<svg xmlns="http://www.w3.org/2000/svg" xmlns:xlink="http://www.w3.org/1999/xlink" width="1254" zoomAndPan="magnify" viewBox="0 0 940.5 940.499971" height="1254" preserveAspectRatio="xMidYMid meet" version="1.0"><path fill="#ff3131" d="M 848.375 335.609375 C 794.980469 224.15625 687.90625 208.488281 600.175781 217.882812 C 689.617188 139.644531 681.917969 18.96875 681.792969 17.304688 C 681.273438 8.472656 672.695312 1.246094 663.859375 2.527344 C 520.128906 19.1875 466.734375 111.445312 446.925781 181.75 C 430.9375 142.21875 403.085938 99.203125 355 80.933594 C 346.664062 77.769531 337.359375 81.957031 334.199219 90.269531 C 331.035156 98.601562 335.214844 107.914062 343.539062 111.070312 C 403.210938 133.75 425.140625 210.113281 432.300781 246.027344 C 334.261719 222.167969 146.035156 159.199219 54.539062 335.609375 C 10.273438 428.03125 11.21875 561.339844 57.007812 683.511719 C 101 800.886719 177.941406 888.234375 273.660156 929.480469 C 297.921875 939.945312 326.746094 940.21875 352.726562 930.238281 L 412.859375 907.113281 C 472.648438 879.742188 531.164062 936.550781 589.34375 937.53125 C 603.175781 937.527344 616.820312 934.84375 629.257812 929.480469 C 831.277344 850.671875 940.113281 521.335938 848.375 335.613281 Z M 649.773438 37.128906 C 648.011719 84.640625 628.25 213.75 467.953125 244.445312 C 471.109375 195.378906 494.207031 64.25 649.773438 37.128906 Z M 815.71875 672.1875 C 774.824219 781.273438 704.082031 862.128906 616.503906 899.863281 C 599.890625 907.027344 579.933594 907.121094 561.765625 900.128906 L 501.632812 877.023438 C 469.277344 864.570312 433.644531 864.578125 401.285156 877.015625 C 401.285156 877.015625 341.152344 900.128906 341.152344 900.128906 C 322.988281 907.105469 303.023438 907.019531 286.414062 899.863281 C 101.160156 827.925781 -0.375 519.050781 83.628906 349.542969 C 148.308594 214.496094 306.425781 242.191406 394.898438 270.675781 C 431.902344 282.597656 471.015625 282.597656 508.015625 270.675781 C 596.507812 242.183594 754.609375 214.496094 819.292969 349.546875 C 859.890625 434.320312 858.527344 557.960938 815.71875 672.1875 Z M 815.71875 672.1875 " fill-opacity="1" fill-rule="nonzero"/><path fill="#ff3131" d="M 196.960938 295.492188 C 163.628906 312.425781 137.875 339.476562 120.4375 375.898438 C 110.359375 396.933594 102.960938 420.714844 98.449219 446.578125 C 96.921875 455.355469 102.796875 463.703125 111.566406 465.238281 C 120.140625 466.773438 128.726562 460.949219 130.222656 452.121094 C 139.003906 399.332031 164.351562 347.351562 211.566406 324.242188 C 230.253906 314.394531 216.082031 286.191406 196.960938 295.492188 Z M 196.960938 295.492188 " fill-opacity="1" fill-rule="nonzero"/></svg>