<svg xmlns="http://www.w3.org/2000/svg" xmlns:xlink="http://www.w3.org/1999/xlink" width="1254" zoomAndPan="magnify" viewBox="0 0 940.5 940.499971" height="1254" preserveAspectRatio="xMidYMid meet" version="1.0"><defs><clipPath id="a0baf8945a"><path d="M 130 295 L 445 295 L 445 806 L 130 806 Z M 130 295 " clip-rule="nonzero"/></clipPath><clipPath id="3f200f61c9"><path d="M 167.011719 96.425781 L 516.664062 187.453125 L 349.714844 828.726562 L 0.0625 737.699219 Z M 167.011719 96.425781 " clip-rule="nonzero"/></clipPath><clipPath id="bca4e79086"><path d="M 167.011719 96.425781 L 516.664062 187.453125 L 349.714844 828.726562 L 0.0625 737.699219 Z M 167.011719 96.425781 " clip-rule="nonzero"/></clipPath><clipPath id="053bf75053"><path d="M 362 166 L 483 166 L 483 307 L 362 307 Z M 362 166 " clip-rule="nonzero"/></clipPath><clipPath id="5093d90005"><path d="M 167.011719 96.425781 L 516.664062 187.453125 L 349.714844 828.726562 L 0.0625 737.699219 Z M 167.011719 96.425781 " clip-rule="nonzero"/></clipPath><clipPath id="537a15a1d2"><path d="M 167.011719 96.425781 L 516.664062 187.453125 L 349.714844 828.726562 L 0.0625 737.699219 Z M 167.011719 96.425781 " clip-rule="nonzero"/></clipPath><clipPath id="9516bff860"><path d="M 275 179 L 365 179 L 365 283 L 275 283 Z M 275 179 " clip-rule="nonzero"/></clipPath><clipPath id="edf2e1fbb9"><path d="M 167.011719 96.425781 L 516.664062 187.453125 L 349.714844 828.726562 L 0.0625 737.699219 Z M 167.011719 96.425781 " clip-rule="nonzero"/></clipPath><clipPath id="2c3b584102"><path d="M 167.011719 96.425781 L 516.664062 187.453125 L 349.714844 828.726562 L 0.0625 737.699219 Z M 167.011719 96.425781 " clip-rule="nonzero"/></clipPath><clipPath id="c248225eea"><path d="M 201 193 L 280 193 L 280 284 L 201 284 Z M 201 193 " clip-rule="nonzero"/></clipPath><clipPath id="8f2b9647f2"><path d="M 167.011719 96.425781 L 516.664062 187.453125 L 349.714844 828.726562 L 0.0625 737.699219 Z M 167.011719 96.425781 " clip-rule="nonzero"/></clipPath><clipPath id="2e35d4340d"><path d="M 167.011719 96.425781 L 516.664062 187.453125 L 349.714844 828.726562 L 0.0625 737.699219 Z M 167.011719 96.425781 " clip-rule="nonzero"/></clipPath><clipPath id="619f60f914"><path d="M 144 231 L 217 231 L 217 312 L 144 312 Z M 144 231 " clip-rule="nonzero"/></clipPath><clipPath id="8a7f1d28b2"><path d="M 167.011719 96.425781 L 516.664062 187.453125 L 349.714844 828.726562 L 0.0625 737.699219 Z M 167.011719 96.425781 " clip-rule="nonzero"/></clipPath><clipPath id="f67b0dd98b"><path d="M 167.011719 96.425781 L 516.664062 187.453125 L 349.714844 828.726562 L 0.0625 737.699219 Z M 167.011719 96.425781 " clip-rule="nonzero"/></clipPath><clipPath id="4a38b941e7"><path d="M 112 281 L 175 281 L 175 350 L 112 350 Z M 112 281 " clip-rule="nonzero"/></clipPath><clipPath id="b00c42418c"><path d="M 167.011719 96.425781 L 516.664062 187.453125 L 349.714844 828.726562 L 0.0625 737.699219 Z M 167.011719 96.425781 " clip-rule="nonzero"/></clipPath><clipPath id="086d3c0138"><path d="M 167.011719 96.425781 L 516.664062 187.453125 L 349.714844 828.726562 L 0.0625 737.699219 Z M 167.011719 96.425781 " clip-rule="nonzero"/></clipPath><clipPath id="5c5e15921c"><path d="M 429 69 L 940 69 L 940 801 L 429 801 Z M 429 69 " clip-rule="nonzero"/></clipPath><clipPath id="2c880b2980"><path d="M 590.375 68.117188 L 940.027344 159.148438 L 773.078125 800.421875 L 423.425781 709.390625 Z M 590.375 68.117188 " clip-rule="nonzero"/></clipPath><clipPath id="ae3aacaa57"><path d="M 24 168 L 391 168 L 391 671 L 24 671 Z M 24 168 " clip-rule="nonzero"/></clipPath><clipPath id="d68f4c05be"><path d="M 161.375 -0.882812 L 511.027344 90.148438 L 344.078125 731.421875 L -5.574219 640.390625 Z M 161.375 -0.882812 " clip-rule="nonzero"/></clipPath><clipPath id="e3334afcda"><path d="M 510.992188 90.140625 L 161.339844 -0.890625 L -5.609375 640.382812 L 344.042969 731.410156 Z M 510.992188 90.140625 " clip-rule="nonzero"/></clipPath><clipPath id="f752ec8321"><path d="M 510.992188 90.140625 L 161.339844 -0.890625 L -5.609375 640.382812 L 344.042969 731.410156 Z M 510.992188 90.140625 " clip-rule="nonzero"/></clipPath><clipPath id="3209c3fec9"><path d="M 156 16 L 277 16 L 277 158 L 156 158 Z M 156 16 " clip-rule="nonzero"/></clipPath><clipPath id="0094eefa60"><path d="M 161.375 -0.882812 L 511.027344 90.148438 L 344.078125 731.421875 L -5.574219 640.390625 Z M 161.375 -0.882812 " clip-rule="nonzero"/></clipPath><clipPath id="f61d24622d"><path d="M 510.992188 90.140625 L 161.339844 -0.890625 L -5.609375 640.382812 L 344.042969 731.410156 Z M 510.992188 90.140625 " clip-rule="nonzero"/></clipPath><clipPath id="538c8d28b2"><path d="M 510.992188 90.140625 L 161.339844 -0.890625 L -5.609375 640.382812 L 344.042969 731.410156 Z M 510.992188 90.140625 " clip-rule="nonzero"/></clipPath><clipPath id="d180f406c3"><path d="M 263 81 L 358 81 L 358 184 L 263 184 Z M 263 81 " clip-rule="nonzero"/></clipPath><clipPath id="d2d8b609fd"><path d="M 161.375 -0.882812 L 511.027344 90.148438 L 344.078125 731.421875 L -5.574219 640.390625 Z M 161.375 -0.882812 " clip-rule="nonzero"/></clipPath><clipPath id="481ad2bced"><path d="M 510.992188 90.140625 L 161.339844 -0.890625 L -5.609375 640.382812 L 344.042969 731.410156 Z M 510.992188 90.140625 " clip-rule="nonzero"/></clipPath><clipPath id="c37687ed9a"><path d="M 510.992188 90.140625 L 161.339844 -0.890625 L -5.609375 640.382812 L 344.042969 731.410156 Z M 510.992188 90.140625 " clip-rule="nonzero"/></clipPath><clipPath id="55bd6b5e82"><path d="M 335 135 L 419 135 L 419 223 L 335 223 Z M 335 135 " clip-rule="nonzero"/></clipPath><clipPath id="4a9593f06f"><path d="M 161.375 -0.882812 L 511.027344 90.148438 L 344.078125 731.421875 L -5.574219 640.390625 Z M 161.375 -0.882812 " clip-rule="nonzero"/></clipPath><clipPath id="0da30cfd66"><path d="M 510.992188 90.140625 L 161.339844 -0.890625 L -5.609375 640.382812 L 344.042969 731.410156 Z M 510.992188 90.140625 " clip-rule="nonzero"/></clipPath><clipPath id="2f1493d9e1"><path d="M 510.992188 90.140625 L 161.339844 -0.890625 L -5.609375 640.382812 L 344.042969 731.410156 Z M 510.992188 90.140625 " clip-rule="nonzero"/></clipPath><clipPath id="68dc93370b"><path d="M 376 198 L 454 198 L 454 276 L 376 276 Z M 376 198 " clip-rule="nonzero"/></clipPath><clipPath id="72daafc581"><path d="M 161.375 -0.882812 L 511.027344 90.148438 L 344.078125 731.421875 L -5.574219 640.390625 Z M 161.375 -0.882812 " clip-rule="nonzero"/></clipPath><clipPath id="61e18d24ce"><path d="M 510.992188 90.140625 L 161.339844 -0.890625 L -5.609375 640.382812 L 344.042969 731.410156 Z M 510.992188 90.140625 " clip-rule="nonzero"/></clipPath><clipPath id="49ddc815b3"><path d="M 510.992188 90.140625 L 161.339844 -0.890625 L -5.609375 640.382812 L 344.042969 731.410156 Z M 510.992188 90.140625 " clip-rule="nonzero"/></clipPath><clipPath id="8bcee0a485"><path d="M 392 260 L 458 260 L 458 326 L 392 326 Z M 392 260 " clip-rule="nonzero"/></clipPath><clipPath id="68ffe95f04"><path d="M 161.375 -0.882812 L 511.027344 90.148438 L 344.078125 731.421875 L -5.574219 640.390625 Z M 161.375 -0.882812 " clip-rule="nonzero"/></clipPath><clipPath id="0b4925db07"><path d="M 510.992188 90.140625 L 161.339844 -0.890625 L -5.609375 640.382812 L 344.042969 731.410156 Z M 510.992188 90.140625 " clip-rule="nonzero"/></clipPath><clipPath id="fcfca340b5"><path d="M 510.992188 90.140625 L 161.339844 -0.890625 L -5.609375 640.382812 L 344.042969 731.410156 Z M 510.992188 90.140625 " clip-rule="nonzero"/></clipPath><clipPath id="90ab7c3722"><rect x="0" width="511" y="0" height="732"/></clipPath><clipPath id="fa1f5ef012"><path d="M 130 281 L 445 281 L 445 792 L 130 792 Z M 130 281 " clip-rule="nonzero"/></clipPath><clipPath id="159ca3fc84"><path d="M 167.011719 82.273438 L 516.664062 173.300781 L 349.714844 814.574219 L 0.0625 723.542969 Z M 167.011719 82.273438 " clip-rule="nonzero"/></clipPath><clipPath id="9f67742d09"><path d="M 167.011719 82.273438 L 516.664062 173.300781 L 349.714844 814.574219 L 0.0625 723.542969 Z M 167.011719 82.273438 " clip-rule="nonzero"/></clipPath><clipPath id="6436f78195"><path d="M 362 152 L 483 152 L 483 293 L 362 293 Z M 362 152 " clip-rule="nonzero"/></clipPath><clipPath id="3abbb21b0c"><path d="M 167.011719 82.273438 L 516.664062 173.300781 L 349.714844 814.574219 L 0.0625 723.542969 Z M 167.011719 82.273438 " clip-rule="nonzero"/></clipPath><clipPath id="5e404468c8"><path d="M 167.011719 82.273438 L 516.664062 173.300781 L 349.714844 814.574219 L 0.0625 723.542969 Z M 167.011719 82.273438 " clip-rule="nonzero"/></clipPath><clipPath id="969373ff44"><path d="M 275 165 L 365 165 L 365 269 L 275 269 Z M 275 165 " clip-rule="nonzero"/></clipPath><clipPath id="68365ed4a4"><path d="M 167.011719 82.273438 L 516.664062 173.300781 L 349.714844 814.574219 L 0.0625 723.542969 Z M 167.011719 82.273438 " clip-rule="nonzero"/></clipPath><clipPath id="6af8c0d385"><path d="M 167.011719 82.273438 L 516.664062 173.300781 L 349.714844 814.574219 L 0.0625 723.542969 Z M 167.011719 82.273438 " clip-rule="nonzero"/></clipPath><clipPath id="7dca294091"><path d="M 201 179 L 280 179 L 280 270 L 201 270 Z M 201 179 " clip-rule="nonzero"/></clipPath><clipPath id="08441224c9"><path d="M 167.011719 82.273438 L 516.664062 173.300781 L 349.714844 814.574219 L 0.0625 723.542969 Z M 167.011719 82.273438 " clip-rule="nonzero"/></clipPath><clipPath id="c87eec8e08"><path d="M 167.011719 82.273438 L 516.664062 173.300781 L 349.714844 814.574219 L 0.0625 723.542969 Z M 167.011719 82.273438 " clip-rule="nonzero"/></clipPath><clipPath id="d8d51ea8ab"><path d="M 144 217 L 217 217 L 217 298 L 144 298 Z M 144 217 " clip-rule="nonzero"/></clipPath><clipPath id="50312c0b8c"><path d="M 167.011719 82.273438 L 516.664062 173.300781 L 349.714844 814.574219 L 0.0625 723.542969 Z M 167.011719 82.273438 " clip-rule="nonzero"/></clipPath><clipPath id="2858a83d9e"><path d="M 167.011719 82.273438 L 516.664062 173.300781 L 349.714844 814.574219 L 0.0625 723.542969 Z M 167.011719 82.273438 " clip-rule="nonzero"/></clipPath><clipPath id="d0bbf31fff"><path d="M 112 267 L 175 267 L 175 336 L 112 336 Z M 112 267 " clip-rule="nonzero"/></clipPath><clipPath id="c32c9903b3"><path d="M 167.011719 82.273438 L 516.664062 173.300781 L 349.714844 814.574219 L 0.0625 723.542969 Z M 167.011719 82.273438 " clip-rule="nonzero"/></clipPath><clipPath id="baa8d97897"><path d="M 167.011719 82.273438 L 516.664062 173.300781 L 349.714844 814.574219 L 0.0625 723.542969 Z M 167.011719 82.273438 " clip-rule="nonzero"/></clipPath><clipPath id="fef71ce832"><path d="M 429 55 L 940 55 L 940 787 L 429 787 Z M 429 55 " clip-rule="nonzero"/></clipPath><clipPath id="e5418dc454"><path d="M 590.375 53.964844 L 940.027344 144.996094 L 773.078125 786.265625 L 423.425781 695.238281 Z M 590.375 53.964844 " clip-rule="nonzero"/></clipPath><clipPath id="52c12a85e3"><path d="M 24 168 L 391 168 L 391 671 L 24 671 Z M 24 168 " clip-rule="nonzero"/></clipPath><clipPath id="599bb3fcfb"><path d="M 161.375 -1.035156 L 511.027344 89.996094 L 344.078125 731.265625 L -5.574219 640.238281 Z M 161.375 -1.035156 " clip-rule="nonzero"/></clipPath><clipPath id="a87de8bfcd"><path d="M 510.992188 89.984375 L 161.339844 -1.042969 L -5.609375 640.230469 L 344.042969 731.257812 Z M 510.992188 89.984375 " clip-rule="nonzero"/></clipPath><clipPath id="2797f17467"><path d="M 510.992188 89.984375 L 161.339844 -1.042969 L -5.609375 640.230469 L 344.042969 731.257812 Z M 510.992188 89.984375 " clip-rule="nonzero"/></clipPath><clipPath id="6e7e83cafd"><path d="M 156 16 L 277 16 L 277 158 L 156 158 Z M 156 16 " clip-rule="nonzero"/></clipPath><clipPath id="9a80613cb2"><path d="M 161.375 -1.035156 L 511.027344 89.996094 L 344.078125 731.265625 L -5.574219 640.238281 Z M 161.375 -1.035156 " clip-rule="nonzero"/></clipPath><clipPath id="0af09fa818"><path d="M 510.992188 89.984375 L 161.339844 -1.042969 L -5.609375 640.230469 L 344.042969 731.257812 Z M 510.992188 89.984375 " clip-rule="nonzero"/></clipPath><clipPath id="a0ec854e5e"><path d="M 510.992188 89.984375 L 161.339844 -1.042969 L -5.609375 640.230469 L 344.042969 731.257812 Z M 510.992188 89.984375 " clip-rule="nonzero"/></clipPath><clipPath id="6a30c2f510"><path d="M 263 81 L 358 81 L 358 184 L 263 184 Z M 263 81 " clip-rule="nonzero"/></clipPath><clipPath id="81ea5639de"><path d="M 161.375 -1.035156 L 511.027344 89.996094 L 344.078125 731.265625 L -5.574219 640.238281 Z M 161.375 -1.035156 " clip-rule="nonzero"/></clipPath><clipPath id="ba19614d49"><path d="M 510.992188 89.984375 L 161.339844 -1.042969 L -5.609375 640.230469 L 344.042969 731.257812 Z M 510.992188 89.984375 " clip-rule="nonzero"/></clipPath><clipPath id="d7271d0659"><path d="M 510.992188 89.984375 L 161.339844 -1.042969 L -5.609375 640.230469 L 344.042969 731.257812 Z M 510.992188 89.984375 " clip-rule="nonzero"/></clipPath><clipPath id="528a5c4c1b"><path d="M 335 134 L 419 134 L 419 223 L 335 223 Z M 335 134 " clip-rule="nonzero"/></clipPath><clipPath id="42f68f0512"><path d="M 161.375 -1.035156 L 511.027344 89.996094 L 344.078125 731.265625 L -5.574219 640.238281 Z M 161.375 -1.035156 " clip-rule="nonzero"/></clipPath><clipPath id="b5712ee17f"><path d="M 510.992188 89.984375 L 161.339844 -1.042969 L -5.609375 640.230469 L 344.042969 731.257812 Z M 510.992188 89.984375 " clip-rule="nonzero"/></clipPath><clipPath id="b5f3781ee9"><path d="M 510.992188 89.984375 L 161.339844 -1.042969 L -5.609375 640.230469 L 344.042969 731.257812 Z M 510.992188 89.984375 " clip-rule="nonzero"/></clipPath><clipPath id="e56e640faa"><path d="M 376 198 L 454 198 L 454 276 L 376 276 Z M 376 198 " clip-rule="nonzero"/></clipPath><clipPath id="6dd37dd51d"><path d="M 161.375 -1.035156 L 511.027344 89.996094 L 344.078125 731.265625 L -5.574219 640.238281 Z M 161.375 -1.035156 " clip-rule="nonzero"/></clipPath><clipPath id="17ffcd888b"><path d="M 510.992188 89.984375 L 161.339844 -1.042969 L -5.609375 640.230469 L 344.042969 731.257812 Z M 510.992188 89.984375 " clip-rule="nonzero"/></clipPath><clipPath id="5ae47047ba"><path d="M 510.992188 89.984375 L 161.339844 -1.042969 L -5.609375 640.230469 L 344.042969 731.257812 Z M 510.992188 89.984375 " clip-rule="nonzero"/></clipPath><clipPath id="4b168657c1"><path d="M 392 260 L 458 260 L 458 326 L 392 326 Z M 392 260 " clip-rule="nonzero"/></clipPath><clipPath id="2a34a6f81b"><path d="M 161.375 -1.035156 L 511.027344 89.996094 L 344.078125 731.265625 L -5.574219 640.238281 Z M 161.375 -1.035156 " clip-rule="nonzero"/></clipPath><clipPath id="9d1078d877"><path d="M 510.992188 89.984375 L 161.339844 -1.042969 L -5.609375 640.230469 L 344.042969 731.257812 Z M 510.992188 89.984375 " clip-rule="nonzero"/></clipPath><clipPath id="3f3b101137"><path d="M 510.992188 89.984375 L 161.339844 -1.042969 L -5.609375 640.230469 L 344.042969 731.257812 Z M 510.992188 89.984375 " clip-rule="nonzero"/></clipPath><clipPath id="f70147dcfd"><rect x="0" width="511" y="0" height="732"/></clipPath><clipPath id="dbef6b1dff"><path d="M 130 272 L 445 272 L 445 783 L 130 783 Z M 130 272 " clip-rule="nonzero"/></clipPath><clipPath id="76a3d10969"><path d="M 167.011719 73.207031 L 516.664062 164.238281 L 349.714844 805.507812 L 0.0625 714.480469 Z M 167.011719 73.207031 " clip-rule="nonzero"/></clipPath><clipPath id="6c5f43c957"><path d="M 167.011719 73.207031 L 516.664062 164.238281 L 349.714844 805.507812 L 0.0625 714.480469 Z M 167.011719 73.207031 " clip-rule="nonzero"/></clipPath><clipPath id="a1d43c21bd"><path d="M 362 143 L 483 143 L 483 284 L 362 284 Z M 362 143 " clip-rule="nonzero"/></clipPath><clipPath id="41c20cddd5"><path d="M 167.011719 73.207031 L 516.664062 164.238281 L 349.714844 805.507812 L 0.0625 714.480469 Z M 167.011719 73.207031 " clip-rule="nonzero"/></clipPath><clipPath id="5cf7706947"><path d="M 167.011719 73.207031 L 516.664062 164.238281 L 349.714844 805.507812 L 0.0625 714.480469 Z M 167.011719 73.207031 " clip-rule="nonzero"/></clipPath><clipPath id="37d934ff18"><path d="M 275 156 L 365 156 L 365 260 L 275 260 Z M 275 156 " clip-rule="nonzero"/></clipPath><clipPath id="b2d936102d"><path d="M 167.011719 73.207031 L 516.664062 164.238281 L 349.714844 805.507812 L 0.0625 714.480469 Z M 167.011719 73.207031 " clip-rule="nonzero"/></clipPath><clipPath id="e0a846a8aa"><path d="M 167.011719 73.207031 L 516.664062 164.238281 L 349.714844 805.507812 L 0.0625 714.480469 Z M 167.011719 73.207031 " clip-rule="nonzero"/></clipPath><clipPath id="a05f20744b"><path d="M 201 170 L 280 170 L 280 261 L 201 261 Z M 201 170 " clip-rule="nonzero"/></clipPath><clipPath id="8f3cb8119a"><path d="M 167.011719 73.207031 L 516.664062 164.238281 L 349.714844 805.507812 L 0.0625 714.480469 Z M 167.011719 73.207031 " clip-rule="nonzero"/></clipPath><clipPath id="ff5e6d9921"><path d="M 167.011719 73.207031 L 516.664062 164.238281 L 349.714844 805.507812 L 0.0625 714.480469 Z M 167.011719 73.207031 " clip-rule="nonzero"/></clipPath><clipPath id="60d9290483"><path d="M 144 207 L 217 207 L 217 289 L 144 289 Z M 144 207 " clip-rule="nonzero"/></clipPath><clipPath id="68a7cec4cc"><path d="M 167.011719 73.207031 L 516.664062 164.238281 L 349.714844 805.507812 L 0.0625 714.480469 Z M 167.011719 73.207031 " clip-rule="nonzero"/></clipPath><clipPath id="90a3b8714a"><path d="M 167.011719 73.207031 L 516.664062 164.238281 L 349.714844 805.507812 L 0.0625 714.480469 Z M 167.011719 73.207031 " clip-rule="nonzero"/></clipPath><clipPath id="9892c524a5"><path d="M 112 257 L 175 257 L 175 326 L 112 326 Z M 112 257 " clip-rule="nonzero"/></clipPath><clipPath id="5fe20be9d5"><path d="M 167.011719 73.207031 L 516.664062 164.238281 L 349.714844 805.507812 L 0.0625 714.480469 Z M 167.011719 73.207031 " clip-rule="nonzero"/></clipPath><clipPath id="93d215a879"><path d="M 167.011719 73.207031 L 516.664062 164.238281 L 349.714844 805.507812 L 0.0625 714.480469 Z M 167.011719 73.207031 " clip-rule="nonzero"/></clipPath><clipPath id="c902b268a0"><path d="M 429 46 L 940 46 L 940 778 L 429 778 Z M 429 46 " clip-rule="nonzero"/></clipPath><clipPath id="17a813f4f9"><path d="M 590.375 44.902344 L 940.027344 135.929688 L 773.078125 777.203125 L 423.425781 686.171875 Z M 590.375 44.902344 " clip-rule="nonzero"/></clipPath><clipPath id="944fcb8807"><path d="M 24 168 L 391 168 L 391 671 L 24 671 Z M 24 168 " clip-rule="nonzero"/></clipPath><clipPath id="e21966a53b"><path d="M 161.375 -1.097656 L 511.027344 89.929688 L 344.078125 731.203125 L -5.574219 640.171875 Z M 161.375 -1.097656 " clip-rule="nonzero"/></clipPath><clipPath id="7d91da402b"><path d="M 510.992188 89.921875 L 161.339844 -1.109375 L -5.609375 640.164062 L 344.042969 731.195312 Z M 510.992188 89.921875 " clip-rule="nonzero"/></clipPath><clipPath id="11529181df"><path d="M 510.992188 89.921875 L 161.339844 -1.109375 L -5.609375 640.164062 L 344.042969 731.195312 Z M 510.992188 89.921875 " clip-rule="nonzero"/></clipPath><clipPath id="1c7b8afc04"><path d="M 156 16 L 277 16 L 277 158 L 156 158 Z M 156 16 " clip-rule="nonzero"/></clipPath><clipPath id="2b37181dd2"><path d="M 161.375 -1.097656 L 511.027344 89.929688 L 344.078125 731.203125 L -5.574219 640.171875 Z M 161.375 -1.097656 " clip-rule="nonzero"/></clipPath><clipPath id="c7543e1d15"><path d="M 510.992188 89.921875 L 161.339844 -1.109375 L -5.609375 640.164062 L 344.042969 731.195312 Z M 510.992188 89.921875 " clip-rule="nonzero"/></clipPath><clipPath id="c5dfc0cfa2"><path d="M 510.992188 89.921875 L 161.339844 -1.109375 L -5.609375 640.164062 L 344.042969 731.195312 Z M 510.992188 89.921875 " clip-rule="nonzero"/></clipPath><clipPath id="15b02f5109"><path d="M 263 81 L 358 81 L 358 184 L 263 184 Z M 263 81 " clip-rule="nonzero"/></clipPath><clipPath id="ef0a68ebe6"><path d="M 161.375 -1.097656 L 511.027344 89.929688 L 344.078125 731.203125 L -5.574219 640.171875 Z M 161.375 -1.097656 " clip-rule="nonzero"/></clipPath><clipPath id="c592db604e"><path d="M 510.992188 89.921875 L 161.339844 -1.109375 L -5.609375 640.164062 L 344.042969 731.195312 Z M 510.992188 89.921875 " clip-rule="nonzero"/></clipPath><clipPath id="fc01c16c9f"><path d="M 510.992188 89.921875 L 161.339844 -1.109375 L -5.609375 640.164062 L 344.042969 731.195312 Z M 510.992188 89.921875 " clip-rule="nonzero"/></clipPath><clipPath id="dbfe2e799f"><path d="M 335 134 L 419 134 L 419 223 L 335 223 Z M 335 134 " clip-rule="nonzero"/></clipPath><clipPath id="5390c7ba9c"><path d="M 161.375 -1.097656 L 511.027344 89.929688 L 344.078125 731.203125 L -5.574219 640.171875 Z M 161.375 -1.097656 " clip-rule="nonzero"/></clipPath><clipPath id="ad59ec69ee"><path d="M 510.992188 89.921875 L 161.339844 -1.109375 L -5.609375 640.164062 L 344.042969 731.195312 Z M 510.992188 89.921875 " clip-rule="nonzero"/></clipPath><clipPath id="003586d017"><path d="M 510.992188 89.921875 L 161.339844 -1.109375 L -5.609375 640.164062 L 344.042969 731.195312 Z M 510.992188 89.921875 " clip-rule="nonzero"/></clipPath><clipPath id="1167d78e6e"><path d="M 376 198 L 454 198 L 454 276 L 376 276 Z M 376 198 " clip-rule="nonzero"/></clipPath><clipPath id="ed1b77ab1f"><path d="M 161.375 -1.097656 L 511.027344 89.929688 L 344.078125 731.203125 L -5.574219 640.171875 Z M 161.375 -1.097656 " clip-rule="nonzero"/></clipPath><clipPath id="ecfcec278c"><path d="M 510.992188 89.921875 L 161.339844 -1.109375 L -5.609375 640.164062 L 344.042969 731.195312 Z M 510.992188 89.921875 " clip-rule="nonzero"/></clipPath><clipPath id="46892e3008"><path d="M 510.992188 89.921875 L 161.339844 -1.109375 L -5.609375 640.164062 L 344.042969 731.195312 Z M 510.992188 89.921875 " clip-rule="nonzero"/></clipPath><clipPath id="8ecda448d8"><path d="M 392 260 L 458 260 L 458 326 L 392 326 Z M 392 260 " clip-rule="nonzero"/></clipPath><clipPath id="964bacacd7"><path d="M 161.375 -1.097656 L 511.027344 89.929688 L 344.078125 731.203125 L -5.574219 640.171875 Z M 161.375 -1.097656 " clip-rule="nonzero"/></clipPath><clipPath id="53e52d018a"><path d="M 510.992188 89.921875 L 161.339844 -1.109375 L -5.609375 640.164062 L 344.042969 731.195312 Z M 510.992188 89.921875 " clip-rule="nonzero"/></clipPath><clipPath id="521b4f0eec"><path d="M 510.992188 89.921875 L 161.339844 -1.109375 L -5.609375 640.164062 L 344.042969 731.195312 Z M 510.992188 89.921875 " clip-rule="nonzero"/></clipPath><clipPath id="bd4700e89a"><rect x="0" width="511" y="0" height="732"/></clipPath></defs><g clip-path="url(#a0baf8945a)"><g clip-path="url(#3f200f61c9)"><g clip-path="url(#bca4e79086)"><path fill="#ff3131" d="M 203.835938 754.390625 C 214.949219 771.140625 231.78125 783.144531 251.273438 788.222656 C 294.832031 799.5625 339.496094 773.351562 350.835938 729.789062 L 350.980469 729.304688 C 361.453125 698.195312 358.222656 672.117188 355.089844 646.875 C 350.960938 613.597656 347.078125 582.148438 377.175781 548.46875 C 411.304688 510.289062 431.730469 452.597656 429.210938 401.496094 C 427.019531 356.542969 403.183594 326.878906 360.304688 315.714844 C 338.816406 310.121094 313.53125 309.261719 285.15625 313.125 C 198.238281 324.953125 153.082031 365.453125 147.136719 436.929688 C 138.832031 536.550781 163.203125 672.917969 203.835938 754.390625 Z M 247.546875 802.527344 C 224.363281 796.492188 204.375 782.15625 191.242188 762.140625 C 191.085938 761.90625 190.949219 761.648438 190.816406 761.390625 C 149.015625 677.859375 123.90625 537.851562 132.414062 435.707031 C 138.925781 357.382812 189.644531 311.210938 283.164062 298.476562 C 313.457031 294.347656 340.660156 295.339844 364.027344 301.421875 C 413.066406 314.191406 441.449219 349.480469 443.972656 400.769531 C 446.667969 455.550781 424.761719 517.390625 388.1875 558.316406 C 362.566406 586.992188 365.71875 612.617188 369.757812 645.070312 C 372.917969 670.628906 376.507812 699.585938 365.070312 733.765625 C 351.5625 785.058594 298.902344 815.898438 247.546875 802.527344 " fill-opacity="1" fill-rule="nonzero"/></g></g></g><g clip-path="url(#053bf75053)"><g clip-path="url(#5093d90005)"><g clip-path="url(#537a15a1d2)"><path fill="#ff3131" d="M 438.410156 182.402344 C 404.761719 173.640625 385.035156 212.65625 378.675781 237.082031 C 372.558594 260.582031 386.699219 284.679688 410.191406 290.796875 C 433.683594 296.910156 457.789062 282.773438 463.90625 259.269531 C 470.265625 234.84375 472.0625 191.160156 438.410156 182.402344 Z M 406.46875 305.09375 C 375.089844 296.925781 356.203125 264.746094 364.375 233.359375 C 372.117188 203.617188 397.199219 156.410156 442.132812 168.109375 C 487.066406 179.804688 485.941406 233.25 478.199219 262.992188 C 470.027344 294.378906 437.847656 313.265625 406.46875 305.09375 " fill-opacity="1" fill-rule="nonzero"/></g></g></g><g clip-path="url(#9516bff860)"><g clip-path="url(#edf2e1fbb9)"><g clip-path="url(#2c3b584102)"><path fill="#ff3131" d="M 328.648438 195 C 326.9375 194.554688 325.105469 194.253906 323.171875 194.109375 C 294.703125 192.023438 290.578125 228.367188 290.035156 235.675781 C 288.972656 250.125 298.367188 263.253906 312.351562 266.894531 C 314.113281 267.355469 315.933594 267.660156 317.773438 267.785156 C 325.761719 268.378906 333.5 265.820312 339.570312 260.585938 C 345.628906 255.351562 349.296875 248.0625 349.878906 240.078125 C 350.363281 233.59375 351.574219 200.96875 328.648438 195 Z M 308.628906 281.195312 C 287.742188 275.757812 273.726562 256.15625 275.304688 234.597656 C 277.289062 207.601562 291.300781 176.964844 324.261719 179.386719 C 327.074219 179.589844 329.796875 180.035156 332.367188 180.707031 C 358.914062 187.617188 366.433594 216.464844 364.617188 241.144531 C 363.75 253.082031 358.269531 263.949219 349.222656 271.769531 C 340.167969 279.589844 328.613281 283.40625 316.679688 282.523438 C 313.964844 282.324219 311.257812 281.878906 308.628906 281.195312 " fill-opacity="1" fill-rule="nonzero"/></g></g></g><g clip-path="url(#c248225eea)"><g clip-path="url(#8f2b9647f2)"><g clip-path="url(#2e35d4340d)"><path fill="#ff3131" d="M 245.378906 209.28125 C 243.035156 208.671875 240.421875 208.480469 237.640625 208.746094 C 229.335938 209.53125 223.605469 213.789062 220.132812 221.734375 C 217.226562 228.394531 216.058594 237.5 216.917969 246.742188 C 217.871094 256.847656 225.097656 265.355469 234.90625 267.90625 C 237.613281 268.613281 240.425781 268.832031 243.253906 268.578125 C 249.6875 267.964844 255.488281 264.890625 259.609375 259.929688 C 263.734375 254.953125 265.679688 248.664062 265.066406 242.230469 C 263.832031 229.070312 257.9375 212.550781 245.378906 209.28125 Z M 231.1875 282.199219 C 215.378906 278.085938 203.734375 264.394531 202.210938 248.128906 C 201.570312 241.28125 201.285156 227.972656 206.597656 215.8125 C 212.253906 202.867188 222.519531 195.332031 236.261719 194.039062 C 240.773438 193.617188 245.089844 193.945312 249.097656 194.988281 C 269.035156 200.179688 278.019531 222.082031 279.78125 240.855469 C 280.746094 251.207031 277.625 261.328125 270.984375 269.339844 C 264.34375 277.359375 254.988281 282.300781 244.625 283.277344 C 240.085938 283.695312 235.566406 283.339844 231.1875 282.199219 " fill-opacity="1" fill-rule="nonzero"/></g></g></g><g clip-path="url(#619f60f914)"><g clip-path="url(#8a7f1d28b2)"><g clip-path="url(#f67b0dd98b)"><path fill="#ff3131" d="M 181.28125 246.46875 C 178.273438 245.6875 175.09375 245.855469 171.59375 246.984375 C 164.96875 249.125 161.078125 253.640625 159.6875 260.785156 C 158.5 266.90625 159.246094 274.769531 161.703125 282.378906 C 163.855469 289.019531 169.175781 294.039062 175.941406 295.800781 C 179.6875 296.777344 183.609375 296.648438 187.320312 295.453125 C 192.484375 293.765625 196.679688 290.1875 199.144531 285.355469 C 201.617188 280.507812 202.054688 275 200.382812 269.839844 C 197.238281 260.117188 190.5625 248.886719 181.28125 246.46875 Z M 172.21875 310.09375 C 160.546875 307.054688 151.359375 298.40625 147.648438 286.933594 C 145.757812 281.117188 142.921875 269.589844 145.1875 257.957031 C 147.609375 245.433594 155.179688 236.773438 167.046875 232.929688 C 173.214844 230.925781 179.261719 230.675781 185.007812 232.171875 C 203.960938 237.105469 212.324219 258.761719 214.433594 265.277344 C 217.328125 274.191406 216.574219 283.71875 212.304688 292.0625 C 208.054688 300.414062 200.78125 306.609375 191.867188 309.503906 C 185.484375 311.570312 178.699219 311.78125 172.21875 310.09375 " fill-opacity="1" fill-rule="nonzero"/></g></g></g><g clip-path="url(#4a38b941e7)"><g clip-path="url(#b00c42418c)"><g clip-path="url(#086d3c0138)"><path fill="#ff3131" d="M 144.101562 296.316406 C 141.898438 295.742188 139.546875 295.867188 136.953125 296.710938 C 131.996094 298.3125 129.199219 301.570312 128.144531 306.941406 C 127.214844 311.722656 127.800781 317.894531 129.753906 323.894531 C 131.371094 328.871094 135.363281 332.625 140.425781 333.945312 C 143.234375 334.675781 146.179688 334.589844 148.941406 333.691406 C 152.820312 332.429688 155.976562 329.738281 157.816406 326.125 C 159.671875 322.496094 159.996094 318.371094 158.742188 314.492188 C 156.394531 307.253906 151.15625 298.152344 144.101562 296.316406 Z M 136.703125 348.242188 C 126.726562 345.644531 118.867188 338.246094 115.6875 328.453125 C 114.113281 323.582031 111.738281 313.929688 113.648438 304.125 C 115.699219 293.53125 122.363281 285.910156 132.40625 282.65625 C 137.691406 280.945312 142.875 280.730469 147.824219 282.015625 C 163.964844 286.21875 171.019531 304.453125 172.789062 309.9375 C 175.273438 317.5625 174.632812 325.6875 170.984375 332.835938 C 167.347656 339.976562 161.136719 345.269531 153.503906 347.746094 C 148.054688 349.511719 142.242188 349.683594 136.703125 348.242188 " fill-opacity="1" fill-rule="nonzero"/></g></g></g><g clip-path="url(#5c5e15921c)"><g clip-path="url(#2c880b2980)"><g transform="matrix(1, 0, 0, 1, 429, 69)"><g clip-path="url(#90ab7c3722)"><g clip-path="url(#ae3aacaa57)"><g clip-path="url(#d68f4c05be)"><g clip-path="url(#e3334afcda)"><g clip-path="url(#f752ec8321)"><path fill="#ff3131" d="M 158 646.617188 C 140.128906 655.824219 119.582031 658.097656 100.085938 653.023438 C 56.527344 641.683594 30.316406 597.019531 41.65625 553.457031 L 41.769531 552.964844 C 47.792969 520.699219 63.332031 499.503906 78.375 478.996094 C 98.207031 451.957031 116.933594 426.390625 107.078125 382.3125 C 95.902344 332.339844 106.203125 272.011719 133.316406 228.625 C 157.152344 190.449219 192.429688 176.171875 235.304688 187.335938 C 256.796875 192.929688 279.289062 204.507812 302.179688 221.714844 C 372.296875 274.425781 391.96875 331.804688 362.304688 397.109375 C 320.976562 488.132812 233.203125 595.304688 158 646.617188 Z M 96.363281 667.328125 C 119.546875 673.367188 143.988281 670.59375 165.214844 659.523438 C 165.464844 659.398438 165.710938 659.238281 165.953125 659.082031 C 243.179688 606.535156 333.375 496.546875 375.753906 403.21875 C 408.265625 331.664062 386.5 266.621094 311.0625 209.902344 C 286.625 191.523438 262.390625 179.125 239.027344 173.042969 C 189.988281 160.273438 148 177.242188 120.785156 220.789062 C 91.71875 267.304688 80.6875 331.976562 92.664062 385.539062 C 101.046875 423.070312 85.800781 443.902344 66.449219 470.269531 C 51.226562 491.039062 33.972656 514.570312 27.289062 549.988281 C 14.070312 601.355469 45.007812 653.960938 96.363281 667.328125 " fill-opacity="1" fill-rule="nonzero"/></g></g></g></g><g clip-path="url(#3209c3fec9)"><g clip-path="url(#0094eefa60)"><g clip-path="url(#f61d24622d)"><g clip-path="url(#538c8d28b2)"><path fill="#ff3131" d="M 232.125 32.855469 C 265.773438 41.617188 263.972656 85.296875 257.613281 109.726562 C 251.496094 133.226562 227.398438 147.367188 203.90625 141.25 C 180.410156 135.136719 166.261719 111.035156 172.378906 87.535156 C 178.738281 63.109375 198.476562 24.097656 232.125 32.855469 Z M 200.183594 155.550781 C 231.5625 163.71875 263.742188 144.835938 271.914062 113.449219 C 279.65625 83.707031 280.777344 30.261719 235.84375 18.5625 C 190.914062 6.867188 165.832031 54.074219 158.089844 83.816406 C 149.917969 115.203125 168.800781 147.382812 200.183594 155.550781 " fill-opacity="1" fill-rule="nonzero"/></g></g></g></g><g clip-path="url(#d180f406c3)"><g clip-path="url(#d2d8b609fd)"><g clip-path="url(#481ad2bced)"><g clip-path="url(#c37687ed9a)"><path fill="#ff3131" d="M 321.8125 97.382812 C 323.519531 97.824219 325.265625 98.457031 327.023438 99.273438 C 352.898438 111.332031 338.773438 145.074219 335.6875 151.722656 C 329.566406 164.855469 314.960938 171.734375 300.976562 168.09375 C 299.21875 167.636719 297.476562 167.015625 295.8125 166.230469 C 288.546875 162.851562 283.039062 156.84375 280.292969 149.3125 C 277.554688 141.789062 277.90625 133.636719 281.292969 126.382812 C 284.03125 120.484375 298.886719 91.414062 321.8125 97.382812 Z M 297.253906 182.394531 C 318.140625 187.832031 339.9375 177.554688 349.070312 157.960938 C 360.503906 133.429688 363.210938 99.847656 333.253906 85.886719 C 330.699219 84.695312 328.105469 83.757812 325.53125 83.089844 C 298.988281 76.175781 278.355469 97.691406 267.902344 120.128906 C 262.839844 130.972656 262.328125 143.132812 266.414062 154.371094 C 270.503906 165.613281 278.726562 174.582031 289.578125 179.628906 C 292.046875 180.777344 294.625 181.710938 297.253906 182.394531 " fill-opacity="1" fill-rule="nonzero"/></g></g></g></g><g clip-path="url(#55bd6b5e82)"><g clip-path="url(#4a9593f06f)"><g clip-path="url(#0da30cfd66)"><g clip-path="url(#2f1493d9e1)"><path fill="#ff3131" d="M 387.546875 150.453125 C 389.886719 151.0625 392.257812 152.171875 394.5625 153.761719 C 401.425781 158.492188 404.355469 165.007812 403.511719 173.636719 C 402.804688 180.871094 399.382812 189.390625 394.121094 197.039062 C 388.367188 205.394531 377.910156 209.296875 368.097656 206.742188 C 365.390625 206.039062 362.828125 204.859375 360.484375 203.257812 C 355.167969 199.589844 351.601562 194.074219 350.421875 187.734375 C 349.25 181.375 350.617188 174.9375 354.289062 169.621094 C 361.785156 158.734375 374.984375 147.183594 387.546875 150.453125 Z M 364.375 221.035156 C 380.183594 225.152344 397.027344 218.878906 406.289062 205.421875 C 410.1875 199.757812 416.925781 188.273438 418.21875 175.066406 C 419.59375 161.007812 414.304688 149.421875 402.9375 141.59375 C 399.203125 139.027344 395.273438 137.207031 391.265625 136.160156 C 371.328125 130.972656 352.804688 145.710938 342.113281 161.242188 C 336.222656 169.808594 334.007812 180.167969 335.902344 190.402344 C 337.789062 200.640625 343.546875 209.515625 352.117188 215.421875 C 355.878906 218.003906 359.996094 219.894531 364.375 221.035156 " fill-opacity="1" fill-rule="nonzero"/></g></g></g></g><g clip-path="url(#68dc93370b)"><g clip-path="url(#72daafc581)"><g clip-path="url(#61e18d24ce)"><g clip-path="url(#49ddc815b3)"><path fill="#ff3131" d="M 425.367188 214.175781 C 428.378906 214.960938 431.070312 216.660156 433.578125 219.351562 C 438.316406 224.449219 439.507812 230.289062 437.242188 237.207031 C 435.292969 243.128906 430.808594 249.628906 424.949219 255.074219 C 419.835938 259.824219 412.742188 261.613281 405.976562 259.851562 C 402.226562 258.875 398.867188 256.851562 396.210938 253.996094 C 392.527344 250.007812 390.605469 244.835938 390.8125 239.414062 C 391.015625 233.976562 393.320312 228.957031 397.296875 225.265625 C 404.78125 218.3125 416.089844 211.761719 425.367188 214.175781 Z M 402.253906 274.144531 C 413.925781 277.183594 426.167969 274.113281 435 265.90625 C 439.488281 261.75 447.582031 253.066406 451.28125 241.804688 C 455.273438 229.691406 452.886719 218.441406 444.398438 209.300781 C 439.992188 204.539062 434.835938 201.371094 429.089844 199.875 C 410.136719 194.941406 392.273438 209.769531 387.253906 214.429688 C 380.382812 220.800781 376.394531 229.488281 376.050781 238.855469 C 375.691406 248.214844 379.019531 257.175781 385.390625 264.046875 C 389.953125 268.964844 395.777344 272.457031 402.253906 274.144531 " fill-opacity="1" fill-rule="nonzero"/></g></g></g></g><g clip-path="url(#8bcee0a485)"><g clip-path="url(#68ffe95f04)"><g clip-path="url(#0b4925db07)"><g clip-path="url(#fcfca340b5)"><path fill="#ff3131" d="M 433.519531 275.828125 C 435.726562 276.402344 437.714844 277.65625 439.570312 279.65625 C 443.121094 283.472656 443.972656 287.679688 442.273438 292.882812 C 440.753906 297.511719 437.230469 302.613281 432.601562 306.898438 C 428.761719 310.457031 423.445312 311.785156 418.382812 310.46875 C 415.574219 309.738281 413.046875 308.226562 411.070312 306.09375 C 408.296875 303.105469 406.855469 299.214844 407.015625 295.160156 C 407.160156 291.089844 408.890625 287.328125 411.875 284.554688 C 417.457031 279.382812 426.46875 273.992188 433.519531 275.828125 Z M 414.660156 324.769531 C 424.636719 327.367188 435.105469 324.738281 442.65625 317.738281 C 446.410156 314.253906 453.1875 306.984375 456.300781 297.496094 C 459.675781 287.246094 457.574219 277.34375 450.394531 269.605469 C 446.617188 265.53125 442.191406 262.816406 437.246094 261.527344 C 421.105469 257.324219 406.054688 269.804688 401.835938 273.726562 C 395.945312 279.171875 392.546875 286.578125 392.246094 294.597656 C 391.9375 302.609375 394.777344 310.257812 400.234375 316.144531 C 404.132812 320.339844 409.121094 323.328125 414.660156 324.769531 " fill-opacity="1" fill-rule="nonzero"/></g></g></g></g></g></g></g></g><g clip-path="url(#fa1f5ef012)"><g clip-path="url(#159ca3fc84)"><g clip-path="url(#9f67742d09)"><path fill="#ff3131" d="M 203.835938 740.238281 C 214.949219 756.988281 231.78125 768.992188 251.273438 774.066406 C 294.832031 785.410156 339.496094 759.195312 350.835938 715.636719 L 350.980469 715.152344 C 361.453125 684.042969 358.222656 657.960938 355.089844 632.722656 C 350.960938 599.445312 347.078125 567.996094 377.175781 534.316406 C 411.304688 496.136719 431.730469 438.445312 429.210938 387.34375 C 427.019531 342.390625 403.183594 312.726562 360.304688 301.5625 C 338.816406 295.96875 313.53125 295.105469 285.15625 298.96875 C 198.238281 310.796875 153.082031 351.300781 147.136719 422.777344 C 138.832031 522.398438 163.203125 658.765625 203.835938 740.238281 Z M 247.546875 788.375 C 224.363281 782.339844 204.375 768 191.242188 747.988281 C 191.085938 747.753906 190.949219 747.496094 190.816406 747.238281 C 149.015625 663.707031 123.90625 523.699219 132.414062 421.550781 C 138.925781 343.226562 189.644531 297.058594 283.164062 284.324219 C 313.457031 280.195312 340.660156 281.1875 364.027344 287.269531 C 413.066406 300.039062 441.449219 335.328125 443.972656 386.613281 C 446.667969 441.398438 424.761719 503.238281 388.1875 544.164062 C 362.566406 572.839844 365.71875 598.460938 369.757812 630.917969 C 372.917969 656.472656 376.507812 685.429688 365.070312 719.609375 C 351.5625 770.90625 298.902344 801.746094 247.546875 788.375 " fill-opacity="1" fill-rule="nonzero"/></g></g></g><g clip-path="url(#6436f78195)"><g clip-path="url(#3abbb21b0c)"><g clip-path="url(#5e404468c8)"><path fill="#ff3131" d="M 438.410156 168.246094 C 404.761719 159.488281 385.035156 198.5 378.675781 222.929688 C 372.558594 246.429688 386.699219 270.527344 410.191406 276.640625 C 433.683594 282.757812 457.789062 268.617188 463.90625 245.117188 C 470.265625 220.691406 472.0625 177.007812 438.410156 168.246094 Z M 406.46875 290.941406 C 375.089844 282.773438 356.203125 250.59375 364.375 219.207031 C 372.117188 189.464844 397.199219 142.257812 442.132812 153.953125 C 487.066406 165.652344 485.941406 219.097656 478.199219 248.839844 C 470.027344 280.226562 437.847656 299.113281 406.46875 290.941406 " fill-opacity="1" fill-rule="nonzero"/></g></g></g><g clip-path="url(#969373ff44)"><g clip-path="url(#68365ed4a4)"><g clip-path="url(#6af8c0d385)"><path fill="#ff3131" d="M 328.648438 180.847656 C 326.9375 180.402344 325.105469 180.101562 323.171875 179.957031 C 294.703125 177.867188 290.578125 214.210938 290.035156 221.523438 C 288.972656 235.972656 298.367188 249.101562 312.351562 252.742188 C 314.113281 253.199219 315.933594 253.507812 317.773438 253.632812 C 325.761719 254.226562 333.5 251.667969 339.570312 246.429688 C 345.628906 241.199219 349.296875 233.910156 349.878906 225.921875 C 350.363281 219.4375 351.574219 186.816406 328.648438 180.847656 Z M 308.628906 267.042969 C 287.742188 261.605469 273.726562 242.003906 275.304688 220.445312 C 277.289062 193.449219 291.300781 162.808594 324.261719 165.234375 C 327.074219 165.4375 329.796875 165.882812 332.367188 166.554688 C 358.914062 173.464844 366.433594 202.308594 364.617188 226.992188 C 363.75 238.929688 358.269531 249.796875 349.222656 257.617188 C 340.167969 265.4375 328.613281 269.253906 316.679688 268.371094 C 313.964844 268.171875 311.257812 267.726562 308.628906 267.042969 " fill-opacity="1" fill-rule="nonzero"/></g></g></g><g clip-path="url(#7dca294091)"><g clip-path="url(#08441224c9)"><g clip-path="url(#c87eec8e08)"><path fill="#ff3131" d="M 245.378906 195.128906 C 243.035156 194.519531 240.421875 194.328125 237.640625 194.59375 C 229.335938 195.378906 223.605469 199.636719 220.132812 207.582031 C 217.226562 214.242188 216.058594 223.347656 216.917969 232.589844 C 217.871094 242.691406 225.097656 251.199219 234.90625 253.753906 C 237.613281 254.460938 240.425781 254.675781 243.253906 254.425781 C 249.6875 253.8125 255.488281 250.738281 259.609375 245.773438 C 263.734375 240.796875 265.679688 234.507812 265.066406 228.078125 C 263.832031 214.917969 257.9375 198.398438 245.378906 195.128906 Z M 231.1875 268.046875 C 215.378906 263.933594 203.734375 250.242188 202.210938 233.976562 C 201.570312 227.128906 201.285156 213.820312 206.597656 201.660156 C 212.253906 188.710938 222.519531 181.179688 236.261719 179.886719 C 240.773438 179.464844 245.089844 179.792969 249.097656 180.835938 C 269.035156 186.027344 278.019531 207.929688 279.78125 226.699219 C 280.746094 237.050781 277.625 247.175781 270.984375 255.1875 C 264.34375 263.203125 254.988281 268.148438 244.625 269.121094 C 240.085938 269.542969 235.566406 269.1875 231.1875 268.046875 " fill-opacity="1" fill-rule="nonzero"/></g></g></g><g clip-path="url(#d8d51ea8ab)"><g clip-path="url(#50312c0b8c)"><g clip-path="url(#2858a83d9e)"><path fill="#ff3131" d="M 181.28125 232.316406 C 178.273438 231.535156 175.09375 231.703125 171.59375 232.832031 C 164.96875 234.972656 161.078125 239.488281 159.6875 246.632812 C 158.5 252.75 159.246094 260.613281 161.703125 268.226562 C 163.855469 274.867188 169.175781 279.886719 175.941406 281.648438 C 179.6875 282.625 183.609375 282.496094 187.320312 281.296875 C 192.484375 279.613281 196.679688 276.035156 199.144531 271.203125 C 201.617188 266.355469 202.054688 260.847656 200.382812 255.6875 C 197.238281 245.964844 190.5625 234.734375 181.28125 232.316406 Z M 172.21875 295.941406 C 160.546875 292.902344 151.359375 284.253906 147.648438 272.78125 C 145.757812 266.964844 142.921875 255.4375 145.1875 243.800781 C 147.609375 231.28125 155.179688 222.621094 167.046875 218.777344 C 173.214844 216.773438 179.261719 216.519531 185.007812 218.015625 C 203.960938 222.953125 212.324219 244.609375 214.433594 251.125 C 217.328125 260.039062 216.574219 269.566406 212.304688 277.910156 C 208.054688 286.257812 200.78125 292.457031 191.867188 295.351562 C 185.484375 297.417969 178.699219 297.628906 172.21875 295.941406 " fill-opacity="1" fill-rule="nonzero"/></g></g></g><g clip-path="url(#d0bbf31fff)"><g clip-path="url(#c32c9903b3)"><g clip-path="url(#baa8d97897)"><path fill="#ff3131" d="M 144.101562 282.164062 C 141.898438 281.589844 139.546875 281.714844 136.953125 282.558594 C 131.996094 284.160156 129.199219 287.417969 128.144531 292.789062 C 127.214844 297.570312 127.800781 303.742188 129.753906 309.742188 C 131.371094 314.71875 135.363281 318.472656 140.425781 319.789062 C 143.234375 320.523438 146.179688 320.4375 148.941406 319.539062 C 152.820312 318.277344 155.976562 315.585938 157.816406 311.96875 C 159.671875 308.34375 159.996094 304.21875 158.742188 300.339844 C 156.394531 293.101562 151.15625 284 144.101562 282.164062 Z M 136.703125 334.089844 C 126.726562 331.492188 118.867188 324.09375 115.6875 314.300781 C 114.113281 309.425781 111.738281 299.777344 113.648438 289.972656 C 115.699219 279.378906 122.363281 271.757812 132.40625 268.503906 C 137.691406 266.789062 142.875 266.574219 147.824219 267.863281 C 163.964844 272.066406 171.019531 290.300781 172.789062 295.785156 C 175.273438 303.410156 174.632812 311.53125 170.984375 318.679688 C 167.347656 325.824219 161.136719 331.117188 153.503906 333.59375 C 148.054688 335.359375 142.242188 335.53125 136.703125 334.089844 " fill-opacity="1" fill-rule="nonzero"/></g></g></g><g clip-path="url(#fef71ce832)"><g clip-path="url(#e5418dc454)"><g transform="matrix(1, 0, 0, 1, 429, 55)"><g clip-path="url(#f70147dcfd)"><g clip-path="url(#52c12a85e3)"><g clip-path="url(#599bb3fcfb)"><g clip-path="url(#a87de8bfcd)"><g clip-path="url(#2797f17467)"><path fill="#ff3131" d="M 158 646.464844 C 140.128906 655.671875 119.582031 657.945312 100.085938 652.867188 C 56.527344 641.527344 30.316406 596.863281 41.65625 553.304688 L 41.769531 552.8125 C 47.792969 520.542969 63.332031 499.351562 78.375 478.839844 C 98.207031 451.800781 116.933594 426.238281 107.078125 382.160156 C 95.902344 332.1875 106.203125 271.859375 133.316406 228.46875 C 157.152344 190.292969 192.429688 176.019531 235.304688 187.179688 C 256.796875 192.777344 279.289062 204.351562 302.179688 221.5625 C 372.296875 274.273438 391.96875 331.652344 362.304688 396.957031 C 320.976562 487.980469 233.203125 595.152344 158 646.464844 Z M 96.363281 667.175781 C 119.546875 673.210938 143.988281 670.441406 165.214844 659.371094 C 165.464844 659.246094 165.710938 659.085938 165.953125 658.925781 C 243.179688 606.382812 333.375 496.390625 375.753906 403.0625 C 408.265625 331.507812 386.5 266.46875 311.0625 209.75 C 286.625 191.371094 262.390625 178.972656 239.027344 172.890625 C 189.988281 160.121094 148 177.089844 120.785156 220.636719 C 91.71875 267.152344 80.6875 331.820312 92.664062 385.386719 C 101.046875 422.917969 85.800781 443.75 66.449219 470.117188 C 51.226562 490.886719 33.972656 514.417969 27.289062 549.832031 C 14.070312 601.203125 45.007812 653.808594 96.363281 667.175781 " fill-opacity="1" fill-rule="nonzero"/></g></g></g></g><g clip-path="url(#6e7e83cafd)"><g clip-path="url(#9a80613cb2)"><g clip-path="url(#0af09fa818)"><g clip-path="url(#a0ec854e5e)"><path fill="#ff3131" d="M 232.125 32.703125 C 265.773438 41.464844 263.972656 85.144531 257.613281 109.570312 C 251.496094 133.074219 227.398438 147.214844 203.90625 141.097656 C 180.410156 134.980469 166.261719 110.882812 172.378906 87.382812 C 178.738281 62.957031 198.476562 23.941406 232.125 32.703125 Z M 200.183594 155.398438 C 231.5625 163.566406 263.742188 144.679688 271.914062 113.296875 C 279.65625 83.554688 280.777344 30.109375 235.84375 18.410156 C 190.914062 6.710938 165.832031 53.917969 158.089844 83.660156 C 149.917969 115.046875 168.800781 147.230469 200.183594 155.398438 " fill-opacity="1" fill-rule="nonzero"/></g></g></g></g><g clip-path="url(#6a30c2f510)"><g clip-path="url(#81ea5639de)"><g clip-path="url(#ba19614d49)"><g clip-path="url(#d7271d0659)"><path fill="#ff3131" d="M 321.8125 97.226562 C 323.519531 97.671875 325.265625 98.304688 327.023438 99.121094 C 352.898438 111.179688 338.773438 144.921875 335.6875 151.570312 C 329.566406 164.703125 314.960938 171.582031 300.976562 167.941406 C 299.21875 167.484375 297.476562 166.863281 295.8125 166.074219 C 288.546875 162.695312 283.039062 156.691406 280.292969 149.160156 C 277.554688 141.636719 277.90625 133.484375 281.292969 126.226562 C 284.03125 120.332031 298.886719 91.257812 321.8125 97.226562 Z M 297.253906 182.242188 C 318.140625 187.679688 339.9375 177.402344 349.070312 157.808594 C 360.503906 133.277344 363.210938 99.691406 333.253906 85.734375 C 330.699219 84.539062 328.105469 83.605469 325.53125 82.933594 C 298.988281 76.023438 278.355469 97.539062 267.902344 119.972656 C 262.839844 130.820312 262.328125 142.980469 266.414062 154.21875 C 270.503906 165.460938 278.726562 174.429688 289.578125 179.476562 C 292.046875 180.625 294.625 181.558594 297.253906 182.242188 " fill-opacity="1" fill-rule="nonzero"/></g></g></g></g><g clip-path="url(#528a5c4c1b)"><g clip-path="url(#42f68f0512)"><g clip-path="url(#b5712ee17f)"><g clip-path="url(#b5f3781ee9)"><path fill="#ff3131" d="M 387.546875 150.300781 C 389.886719 150.910156 392.257812 152.019531 394.5625 153.609375 C 401.425781 158.339844 404.355469 164.855469 403.511719 173.484375 C 402.804688 180.714844 399.382812 189.234375 394.121094 196.886719 C 388.367188 205.242188 377.910156 209.144531 368.097656 206.589844 C 365.390625 205.886719 362.828125 204.707031 360.484375 203.105469 C 355.167969 199.4375 351.601562 193.921875 350.421875 187.578125 C 349.25 181.222656 350.617188 174.785156 354.289062 169.464844 C 361.785156 158.578125 374.984375 147.03125 387.546875 150.300781 Z M 364.375 220.882812 C 380.183594 225 397.027344 218.722656 406.289062 205.269531 C 410.1875 199.601562 416.925781 188.121094 418.21875 174.914062 C 419.59375 160.851562 414.304688 149.269531 402.9375 141.4375 C 399.203125 138.871094 395.273438 137.050781 391.265625 136.007812 C 371.328125 130.816406 352.804688 145.558594 342.113281 161.089844 C 336.222656 169.65625 334.007812 180.015625 335.902344 190.25 C 337.789062 200.488281 343.546875 209.363281 352.117188 215.269531 C 355.878906 217.851562 359.996094 219.742188 364.375 220.882812 " fill-opacity="1" fill-rule="nonzero"/></g></g></g></g><g clip-path="url(#e56e640faa)"><g clip-path="url(#6dd37dd51d)"><g clip-path="url(#17ffcd888b)"><g clip-path="url(#5ae47047ba)"><path fill="#ff3131" d="M 425.367188 214.023438 C 428.378906 214.808594 431.070312 216.503906 433.578125 219.199219 C 438.316406 224.296875 439.507812 230.136719 437.242188 237.054688 C 435.292969 242.972656 430.808594 249.476562 424.949219 254.921875 C 419.835938 259.671875 412.742188 261.460938 405.976562 259.699219 C 402.226562 258.722656 398.867188 256.695312 396.210938 253.84375 C 392.527344 249.855469 390.605469 244.683594 390.8125 239.261719 C 391.015625 233.824219 393.320312 228.800781 397.296875 225.113281 C 404.78125 218.15625 416.089844 211.609375 425.367188 214.023438 Z M 402.253906 273.992188 C 413.925781 277.03125 426.167969 273.957031 435 265.75 C 439.488281 261.597656 447.582031 252.914062 451.28125 241.652344 C 455.273438 229.539062 452.886719 218.289062 444.398438 209.144531 C 439.992188 204.386719 434.835938 201.21875 429.089844 199.722656 C 410.136719 194.789062 392.273438 209.617188 387.253906 214.277344 C 380.382812 220.648438 376.394531 229.335938 376.050781 238.699219 C 375.691406 248.0625 379.019531 257.019531 385.390625 263.894531 C 389.953125 268.808594 395.777344 272.304688 402.253906 273.992188 " fill-opacity="1" fill-rule="nonzero"/></g></g></g></g><g clip-path="url(#4b168657c1)"><g clip-path="url(#2a34a6f81b)"><g clip-path="url(#9d1078d877)"><g clip-path="url(#3f3b101137)"><path fill="#ff3131" d="M 433.519531 275.671875 C 435.726562 276.246094 437.714844 277.5 439.570312 279.503906 C 443.121094 283.316406 443.972656 287.527344 442.273438 292.730469 C 440.753906 297.359375 437.230469 302.460938 432.601562 306.746094 C 428.761719 310.304688 423.445312 311.632812 418.382812 310.316406 C 415.574219 309.585938 413.046875 308.074219 411.070312 305.941406 C 408.296875 302.949219 406.855469 299.0625 407.015625 295.007812 C 407.160156 290.9375 408.890625 287.175781 411.875 284.402344 C 417.457031 279.230469 426.46875 273.835938 433.519531 275.671875 Z M 414.660156 324.617188 C 424.636719 327.210938 435.105469 324.585938 442.65625 317.585938 C 446.410156 314.097656 453.1875 306.828125 456.300781 297.339844 C 459.675781 287.089844 457.574219 277.1875 450.394531 269.453125 C 446.617188 265.378906 442.191406 262.660156 437.246094 261.375 C 421.105469 257.171875 406.054688 269.648438 401.835938 273.574219 C 395.945312 279.019531 392.546875 286.425781 392.246094 294.445312 C 391.9375 302.457031 394.777344 310.105469 400.234375 315.988281 C 404.132812 320.1875 409.121094 323.171875 414.660156 324.617188 " fill-opacity="1" fill-rule="nonzero"/></g></g></g></g></g></g></g></g><g clip-path="url(#dbef6b1dff)"><g clip-path="url(#76a3d10969)"><g clip-path="url(#6c5f43c957)"><path fill="#ff3131" d="M 203.835938 731.171875 C 214.949219 747.921875 231.78125 759.929688 251.273438 765.003906 C 294.832031 776.34375 339.496094 750.132812 350.835938 706.570312 L 350.980469 706.085938 C 361.453125 674.976562 358.222656 648.898438 355.089844 623.65625 C 350.960938 590.378906 347.078125 558.929688 377.175781 525.253906 C 411.304688 487.070312 431.730469 429.378906 429.210938 378.277344 C 427.019531 333.324219 403.183594 303.660156 360.304688 292.496094 C 338.816406 286.902344 313.53125 286.042969 285.15625 289.90625 C 198.238281 301.734375 153.082031 342.234375 147.136719 413.710938 C 138.832031 513.335938 163.203125 649.699219 203.835938 731.171875 Z M 247.546875 779.308594 C 224.363281 773.273438 204.375 758.9375 191.242188 738.921875 C 191.085938 738.691406 190.949219 738.429688 190.816406 738.175781 C 149.015625 654.644531 123.90625 514.632812 132.414062 412.488281 C 138.925781 334.164062 189.644531 287.992188 283.164062 275.261719 C 313.457031 271.128906 340.660156 272.121094 364.027344 278.207031 C 413.066406 290.972656 441.449219 326.261719 443.972656 377.550781 C 446.667969 432.332031 424.761719 494.171875 388.1875 535.097656 C 362.566406 563.773438 365.71875 589.398438 369.757812 621.851562 C 372.917969 647.410156 376.507812 676.367188 365.070312 710.546875 C 351.5625 761.839844 298.902344 792.679688 247.546875 779.308594 " fill-opacity="1" fill-rule="nonzero"/></g></g></g><g clip-path="url(#a1d43c21bd)"><g clip-path="url(#41c20cddd5)"><g clip-path="url(#5cf7706947)"><path fill="#ff3131" d="M 438.410156 159.183594 C 404.761719 150.421875 385.035156 189.4375 378.675781 213.863281 C 372.558594 237.363281 386.699219 261.460938 410.191406 267.578125 C 433.683594 273.695312 457.789062 259.554688 463.90625 236.054688 C 470.265625 211.625 472.0625 167.941406 438.410156 159.183594 Z M 406.46875 281.878906 C 375.089844 273.707031 356.203125 241.527344 364.375 210.140625 C 372.117188 180.398438 397.199219 133.191406 442.132812 144.890625 C 487.066406 156.585938 485.941406 210.03125 478.199219 239.773438 C 470.027344 271.160156 437.847656 290.046875 406.46875 281.878906 " fill-opacity="1" fill-rule="nonzero"/></g></g></g><g clip-path="url(#37d934ff18)"><g clip-path="url(#b2d936102d)"><g clip-path="url(#e0a846a8aa)"><path fill="#ff3131" d="M 328.648438 171.78125 C 326.9375 171.335938 325.105469 171.035156 323.171875 170.894531 C 294.703125 168.804688 290.578125 205.148438 290.035156 212.460938 C 288.972656 226.90625 298.367188 240.039062 312.351562 243.679688 C 314.113281 244.136719 315.933594 244.441406 317.773438 244.566406 C 325.761719 245.160156 333.5 242.601562 339.570312 237.367188 C 345.628906 232.132812 349.296875 224.84375 349.878906 216.859375 C 350.363281 210.375 351.574219 177.75 328.648438 171.78125 Z M 308.628906 257.976562 C 287.742188 252.539062 273.726562 232.941406 275.304688 211.378906 C 277.289062 184.386719 291.300781 153.746094 324.261719 156.167969 C 327.074219 156.371094 329.796875 156.820312 332.367188 157.488281 C 358.914062 164.398438 366.433594 193.246094 364.617188 217.925781 C 363.75 229.863281 358.269531 240.730469 349.222656 248.550781 C 340.167969 256.371094 328.613281 260.191406 316.679688 259.308594 C 313.964844 259.105469 311.257812 258.660156 308.628906 257.976562 " fill-opacity="1" fill-rule="nonzero"/></g></g></g><g clip-path="url(#a05f20744b)"><g clip-path="url(#8f3cb8119a)"><g clip-path="url(#ff5e6d9921)"><path fill="#ff3131" d="M 245.378906 186.0625 C 243.035156 185.453125 240.421875 185.265625 237.640625 185.527344 C 229.335938 186.3125 223.605469 190.570312 220.132812 198.519531 C 217.226562 205.175781 216.058594 214.28125 216.917969 223.527344 C 217.871094 233.628906 225.097656 242.136719 234.90625 244.691406 C 237.613281 245.394531 240.425781 245.613281 243.253906 245.359375 C 249.6875 244.75 255.488281 241.671875 259.609375 236.710938 C 263.734375 231.734375 265.679688 225.445312 265.066406 219.011719 C 263.832031 205.851562 257.9375 189.332031 245.378906 186.0625 Z M 231.1875 258.984375 C 215.378906 254.867188 203.734375 241.175781 202.210938 224.910156 C 201.570312 218.066406 201.285156 204.753906 206.597656 192.59375 C 212.253906 179.648438 222.519531 172.113281 236.261719 170.820312 C 240.773438 170.402344 245.089844 170.726562 249.097656 171.769531 C 269.035156 176.960938 278.019531 198.863281 279.78125 217.636719 C 280.746094 227.988281 277.625 238.109375 270.984375 246.121094 C 264.34375 254.140625 254.988281 259.082031 244.625 260.058594 C 240.085938 260.480469 235.566406 260.125 231.1875 258.984375 " fill-opacity="1" fill-rule="nonzero"/></g></g></g><g clip-path="url(#60d9290483)"><g clip-path="url(#68a7cec4cc)"><g clip-path="url(#90a3b8714a)"><path fill="#ff3131" d="M 181.28125 223.25 C 178.273438 222.46875 175.09375 222.636719 171.59375 223.765625 C 164.96875 225.90625 161.078125 230.421875 159.6875 237.570312 C 158.5 243.6875 159.246094 251.550781 161.703125 259.160156 C 163.855469 265.804688 169.175781 270.824219 175.941406 272.585938 C 179.6875 273.558594 183.609375 273.429688 187.320312 272.234375 C 192.484375 270.546875 196.679688 266.972656 199.144531 262.136719 C 201.617188 257.289062 202.054688 251.78125 200.382812 246.621094 C 197.238281 236.902344 190.5625 225.667969 181.28125 223.25 Z M 172.21875 286.878906 C 160.546875 283.839844 151.359375 275.1875 147.648438 263.714844 C 145.757812 257.902344 142.921875 246.371094 145.1875 234.738281 C 147.609375 222.214844 155.179688 213.558594 167.046875 209.714844 C 173.214844 207.707031 179.261719 207.457031 185.007812 208.953125 C 203.960938 213.886719 212.324219 235.542969 214.433594 242.058594 C 217.328125 250.972656 216.574219 260.5 212.304688 268.847656 C 208.054688 277.195312 200.78125 283.390625 191.867188 286.285156 C 185.484375 288.351562 178.699219 288.5625 172.21875 286.878906 " fill-opacity="1" fill-rule="nonzero"/></g></g></g><g clip-path="url(#9892c524a5)"><g clip-path="url(#5fe20be9d5)"><g clip-path="url(#93d215a879)"><path fill="#ff3131" d="M 144.101562 273.097656 C 141.898438 272.527344 139.546875 272.648438 136.953125 273.492188 C 131.996094 275.09375 129.199219 278.351562 128.144531 283.722656 C 127.214844 288.503906 127.800781 294.675781 129.753906 300.675781 C 131.371094 305.652344 135.363281 309.40625 140.425781 310.726562 C 143.234375 311.457031 146.179688 311.371094 148.941406 310.472656 C 152.820312 309.214844 155.976562 306.523438 157.816406 302.90625 C 159.671875 299.277344 159.996094 295.152344 158.742188 291.273438 C 156.394531 284.039062 151.15625 274.9375 144.101562 273.097656 Z M 136.703125 325.027344 C 126.726562 322.429688 118.867188 315.027344 115.6875 305.238281 C 114.113281 300.363281 111.738281 290.710938 113.648438 280.90625 C 115.699219 270.3125 122.363281 262.691406 132.40625 259.441406 C 137.691406 257.726562 142.875 257.511719 147.824219 258.800781 C 163.964844 263 171.019531 281.234375 172.789062 286.71875 C 175.273438 294.34375 174.632812 302.46875 170.984375 309.617188 C 167.347656 316.761719 161.136719 322.054688 153.503906 324.53125 C 148.054688 326.292969 142.242188 326.46875 136.703125 325.027344 " fill-opacity="1" fill-rule="nonzero"/></g></g></g><g clip-path="url(#c902b268a0)"><g clip-path="url(#17a813f4f9)"><g transform="matrix(1, 0, 0, 1, 429, 46)"><g clip-path="url(#bd4700e89a)"><g clip-path="url(#944fcb8807)"><g clip-path="url(#e21966a53b)"><g clip-path="url(#7d91da402b)"><g clip-path="url(#11529181df)"><path fill="#ff3131" d="M 158 646.398438 C 140.128906 655.605469 119.582031 657.878906 100.085938 652.804688 C 56.527344 641.464844 30.316406 596.800781 41.65625 553.238281 L 41.769531 552.746094 C 47.792969 520.480469 63.332031 499.285156 78.375 478.777344 C 98.207031 451.738281 116.933594 426.175781 107.078125 382.097656 C 95.902344 332.121094 106.203125 271.792969 133.316406 228.40625 C 157.152344 190.230469 192.429688 175.953125 235.304688 187.117188 C 256.796875 192.710938 279.289062 204.289062 302.179688 221.5 C 372.296875 274.210938 391.96875 331.589844 362.304688 396.890625 C 320.976562 487.914062 233.203125 595.085938 158 646.398438 Z M 96.363281 667.113281 C 119.546875 673.148438 143.988281 670.375 165.214844 659.308594 C 165.464844 659.179688 165.710938 659.023438 165.953125 658.863281 C 243.179688 606.316406 333.375 496.328125 375.753906 403 C 408.265625 331.445312 386.5 266.402344 311.0625 209.683594 C 286.625 191.304688 262.390625 178.90625 239.027344 172.824219 C 189.988281 160.058594 148 177.027344 120.785156 220.574219 C 91.71875 267.085938 80.6875 331.757812 92.664062 385.324219 C 101.046875 422.851562 85.800781 443.683594 66.449219 470.050781 C 51.226562 490.820312 33.972656 514.351562 27.289062 549.769531 C 14.070312 601.136719 45.007812 653.742188 96.363281 667.113281 " fill-opacity="1" fill-rule="nonzero"/></g></g></g></g><g clip-path="url(#1c7b8afc04)"><g clip-path="url(#2b37181dd2)"><g clip-path="url(#c7543e1d15)"><g clip-path="url(#c5dfc0cfa2)"><path fill="#ff3131" d="M 232.125 32.636719 C 265.773438 41.398438 263.972656 85.082031 257.613281 109.507812 C 251.496094 133.007812 227.398438 147.148438 203.90625 141.035156 C 180.410156 134.917969 166.261719 110.820312 172.378906 87.316406 C 178.738281 62.890625 198.476562 23.878906 232.125 32.636719 Z M 200.183594 155.332031 C 231.5625 163.503906 263.742188 144.617188 271.914062 113.230469 C 279.65625 83.488281 280.777344 30.042969 235.84375 18.34375 C 190.914062 6.648438 165.832031 53.855469 158.089844 83.597656 C 149.917969 114.984375 168.800781 147.164062 200.183594 155.332031 " fill-opacity="1" fill-rule="nonzero"/></g></g></g></g><g clip-path="url(#15b02f5109)"><g clip-path="url(#ef0a68ebe6)"><g clip-path="url(#c592db604e)"><g clip-path="url(#fc01c16c9f)"><path fill="#ff3131" d="M 321.8125 97.164062 C 323.519531 97.609375 325.265625 98.238281 327.023438 99.058594 C 352.898438 111.113281 338.773438 144.855469 335.6875 151.507812 C 329.566406 164.636719 314.960938 171.519531 300.976562 167.878906 C 299.21875 167.417969 297.476562 166.796875 295.8125 166.011719 C 288.546875 162.632812 283.039062 156.628906 280.292969 149.09375 C 277.554688 141.570312 277.90625 133.417969 281.292969 126.164062 C 284.03125 120.265625 298.886719 91.195312 321.8125 97.164062 Z M 297.253906 182.175781 C 318.140625 187.613281 339.9375 177.335938 349.070312 157.742188 C 360.503906 133.210938 363.210938 99.628906 333.253906 85.671875 C 330.699219 84.476562 328.105469 83.539062 325.53125 82.871094 C 298.988281 75.960938 278.355469 97.476562 267.902344 119.910156 C 262.839844 130.753906 262.328125 142.914062 266.414062 154.15625 C 270.503906 165.394531 278.726562 174.363281 289.578125 179.410156 C 292.046875 180.5625 294.625 181.492188 297.253906 182.175781 " fill-opacity="1" fill-rule="nonzero"/></g></g></g></g><g clip-path="url(#dbfe2e799f)"><g clip-path="url(#5390c7ba9c)"><g clip-path="url(#ad59ec69ee)"><g clip-path="url(#003586d017)"><path fill="#ff3131" d="M 387.546875 150.238281 C 389.886719 150.847656 392.257812 151.953125 394.5625 153.542969 C 401.425781 158.277344 404.355469 164.789062 403.511719 173.421875 C 402.804688 180.652344 399.382812 189.171875 394.121094 196.820312 C 388.367188 205.175781 377.910156 209.082031 368.097656 206.527344 C 365.390625 205.820312 362.828125 204.640625 360.484375 203.042969 C 355.167969 199.371094 351.601562 193.855469 350.421875 187.515625 C 349.25 181.15625 350.617188 174.71875 354.289062 169.402344 C 361.785156 158.515625 374.984375 146.964844 387.546875 150.238281 Z M 364.375 220.820312 C 380.183594 224.933594 397.027344 218.660156 406.289062 205.203125 C 410.1875 199.539062 416.925781 188.054688 418.21875 174.847656 C 419.59375 160.789062 414.304688 149.203125 402.9375 141.375 C 399.203125 138.808594 395.273438 136.988281 391.265625 135.945312 C 371.328125 130.753906 352.804688 145.496094 342.113281 161.023438 C 336.222656 169.589844 334.007812 179.953125 335.902344 190.183594 C 337.789062 200.421875 343.546875 209.300781 352.117188 215.203125 C 355.878906 217.785156 359.996094 219.679688 364.375 220.820312 " fill-opacity="1" fill-rule="nonzero"/></g></g></g></g><g clip-path="url(#1167d78e6e)"><g clip-path="url(#ed1b77ab1f)"><g clip-path="url(#ecfcec278c)"><g clip-path="url(#46892e3008)"><path fill="#ff3131" d="M 425.367188 213.957031 C 428.378906 214.742188 431.070312 216.441406 433.578125 219.132812 C 438.316406 224.230469 439.507812 230.070312 437.242188 236.988281 C 435.292969 242.910156 430.808594 249.410156 424.949219 254.855469 C 419.835938 259.605469 412.742188 261.394531 405.976562 259.632812 C 402.226562 258.65625 398.867188 256.632812 396.210938 253.777344 C 392.527344 249.789062 390.605469 244.617188 390.8125 239.199219 C 391.015625 233.757812 393.320312 228.738281 397.296875 225.046875 C 404.78125 218.09375 416.089844 211.542969 425.367188 213.957031 Z M 402.253906 273.925781 C 413.925781 276.964844 426.167969 273.894531 435 265.6875 C 439.488281 261.53125 447.582031 252.851562 451.28125 241.589844 C 455.273438 229.472656 452.886719 218.222656 444.398438 209.082031 C 439.992188 204.324219 434.835938 201.15625 429.089844 199.660156 C 410.136719 194.722656 392.273438 209.554688 387.253906 214.214844 C 380.382812 220.582031 376.394531 229.269531 376.050781 238.636719 C 375.691406 248 379.019531 256.957031 385.390625 263.828125 C 389.953125 268.746094 395.777344 272.238281 402.253906 273.925781 " fill-opacity="1" fill-rule="nonzero"/></g></g></g></g><g clip-path="url(#8ecda448d8)"><g clip-path="url(#964bacacd7)"><g clip-path="url(#53e52d018a)"><g clip-path="url(#521b4f0eec)"><path fill="#ff3131" d="M 433.519531 275.609375 C 435.726562 276.183594 437.714844 277.4375 439.570312 279.4375 C 443.121094 283.253906 443.972656 287.464844 442.273438 292.664062 C 440.753906 297.292969 437.230469 302.394531 432.601562 306.683594 C 428.761719 310.238281 423.445312 311.570312 418.382812 310.25 C 415.574219 309.519531 413.046875 308.011719 411.070312 305.878906 C 408.296875 302.886719 406.855469 298.996094 407.015625 294.945312 C 407.160156 290.871094 408.890625 287.113281 411.875 284.339844 C 417.457031 279.164062 426.46875 273.773438 433.519531 275.609375 Z M 414.660156 324.550781 C 424.636719 327.148438 435.105469 324.519531 442.65625 317.519531 C 446.410156 314.035156 453.1875 306.765625 456.300781 297.277344 C 459.675781 287.027344 457.574219 277.125 450.394531 269.386719 C 446.617188 265.3125 442.191406 262.597656 437.246094 261.308594 C 421.105469 257.105469 406.054688 269.585938 401.835938 273.511719 C 395.945312 278.957031 392.546875 286.359375 392.246094 294.382812 C 391.9375 302.390625 394.777344 310.042969 400.234375 315.925781 C 404.132812 320.121094 409.121094 323.109375 414.660156 324.550781 " fill-opacity="1" fill-rule="nonzero"/></g></g></g></g></g></g></g></g></svg>