<svg xmlns="http://www.w3.org/2000/svg" xmlns:xlink="http://www.w3.org/1999/xlink" width="1254" zoomAndPan="magnify" viewBox="0 0 940.5 940.499971" height="1254" preserveAspectRatio="xMidYMid meet" version="1.0"><defs><clipPath id="4589ef5a27"><path d="M 0 31.136719 L 940 31.136719 L 940 908.921875 L 0 908.921875 Z M 0 31.136719 " clip-rule="nonzero"/></clipPath></defs><g clip-path="url(#4589ef5a27)"><path fill="#ff3131" d="M 804.058594 908.335938 L 135.941406 908.335938 C 81.425781 908.335938 36.652344 865.648438 34.101562 811.363281 L 0.230469 138.84375 C -1.160156 110.539062 8.816406 83.863281 28.300781 63.449219 C 47.789062 43.03125 74.003906 31.664062 102.304688 31.664062 L 837.925781 31.664062 C 866.230469 31.664062 892.445312 43.03125 911.929688 63.449219 C 931.417969 83.863281 941.390625 110.773438 940 138.84375 L 906.363281 811.363281 C 903.347656 865.882812 858.574219 908.335938 804.058594 908.335938 Z M 102.304688 59.734375 C 81.890625 59.734375 62.636719 67.855469 48.484375 82.703125 C 34.332031 97.550781 27.140625 117.035156 28.070312 137.449219 L 61.707031 809.972656 C 63.796875 849.410156 96.273438 880.496094 135.710938 880.496094 L 803.824219 880.496094 C 843.496094 880.496094 875.972656 849.640625 877.828125 809.972656 L 911.464844 137.449219 C 912.394531 117.035156 905.203125 97.550781 891.050781 82.703125 C 876.902344 67.855469 857.878906 59.734375 837.230469 59.734375 Z M 102.304688 59.734375 " fill-opacity="1" fill-rule="nonzero"/></g><path fill="#ff3131" d="M 470 436.015625 C 443.089844 436.015625 421.050781 413.976562 421.050781 387.066406 C 421.050781 360.15625 443.089844 338.117188 470 338.117188 C 496.910156 338.117188 518.949219 360.15625 518.949219 387.066406 C 518.949219 413.976562 496.910156 436.015625 470 436.015625 Z M 470 365.953125 C 458.402344 365.953125 448.890625 375.464844 448.890625 387.066406 C 448.890625 398.664062 458.402344 408.175781 470 408.175781 C 481.597656 408.175781 491.109375 398.664062 491.109375 387.066406 C 491.109375 375.464844 481.597656 365.953125 470 365.953125 Z M 470 365.953125 " fill-opacity="1" fill-rule="nonzero"/><path fill="#ff3131" d="M 494.125 375.699219 C 487.632812 375.699219 481.832031 371.058594 480.4375 364.5625 L 456.3125 242.769531 C 454.921875 235.347656 459.792969 227.925781 467.214844 226.300781 C 474.871094 224.910156 482.0625 229.78125 483.6875 237.203125 L 507.8125 358.996094 C 509.207031 366.417969 504.332031 373.84375 496.910156 375.464844 C 495.980469 375.464844 495.054688 375.699219 494.125 375.699219 Z M 494.125 375.699219 " fill-opacity="1" fill-rule="nonzero"/><path fill="#ff3131" d="M 694.792969 400.984375 L 505.03125 400.984375 C 497.375 400.984375 491.109375 394.722656 491.109375 387.066406 C 491.109375 379.410156 497.375 373.144531 505.03125 373.144531 L 694.792969 373.144531 C 701.753906 373.144531 708.246094 370.128906 712.65625 364.796875 C 717.0625 359.460938 719.152344 352.5 717.992188 345.773438 C 699.433594 231.636719 604.320312 150.90625 483.917969 145.105469 L 483.917969 183.847656 C 483.917969 191.503906 477.65625 197.765625 470 197.765625 C 462.34375 197.765625 456.082031 191.503906 456.082031 183.847656 L 456.082031 130.722656 C 456.082031 123.066406 462.34375 116.804688 470 116.804688 C 537.277344 116.804688 601.535156 138.84375 651.179688 178.742188 C 701.519531 219.339844 734.925781 277.105469 745.367188 341.363281 C 747.683594 356.210938 743.507812 371.523438 733.765625 382.890625 C 724.023438 394.488281 709.871094 400.984375 694.792969 400.984375 Z M 694.792969 400.984375 " fill-opacity="1" fill-rule="nonzero"/><path fill="#ff3131" d="M 579.03125 224.910156 C 577.175781 224.910156 575.089844 224.445312 573.234375 223.75 C 566.273438 220.5 563.027344 212.382812 566.273438 205.421875 L 584.367188 165.289062 C 587.617188 158.328125 595.734375 155.082031 602.695312 158.328125 C 609.65625 161.578125 612.902344 169.695312 609.65625 176.65625 L 591.558594 216.789062 C 589.238281 221.660156 584.367188 224.910156 579.03125 224.910156 Z M 579.03125 224.910156 " fill-opacity="1" fill-rule="nonzero"/><path fill="#ff3131" d="M 656.980469 297.75 C 652.570312 297.75 648.394531 295.664062 645.613281 291.953125 C 641.203125 285.6875 642.597656 276.871094 648.859375 272.464844 L 682.960938 248.339844 C 689.226562 243.929688 698.039062 245.324219 702.449219 251.585938 C 706.855469 257.851562 705.464844 266.664062 699.199219 271.074219 L 665.097656 295.199219 C 662.546875 297.054688 659.761719 297.75 656.980469 297.75 Z M 656.980469 297.75 " fill-opacity="1" fill-rule="nonzero"/><path fill="#ff3131" d="M 470 436.015625 C 443.089844 436.015625 421.050781 413.976562 421.050781 387.066406 C 421.050781 360.15625 443.089844 338.117188 470 338.117188 C 496.910156 338.117188 518.949219 360.15625 518.949219 387.066406 C 518.949219 413.976562 496.910156 436.015625 470 436.015625 Z M 470 365.953125 C 458.402344 365.953125 448.890625 375.464844 448.890625 387.066406 C 448.890625 398.664062 458.402344 408.175781 470 408.175781 C 481.597656 408.175781 491.109375 398.664062 491.109375 387.066406 C 491.109375 375.464844 481.597656 365.953125 470 365.953125 Z M 470 365.953125 " fill-opacity="1" fill-rule="nonzero"/><path fill="#ff3131" d="M 445.875 375.699219 C 444.945312 375.699219 444.019531 375.699219 443.089844 375.464844 C 435.433594 374.074219 430.5625 366.652344 432.1875 358.996094 L 456.3125 237.203125 C 457.703125 229.78125 465.128906 224.675781 472.785156 226.300781 C 480.207031 227.691406 485.3125 235.117188 483.6875 242.769531 L 459.5625 364.5625 C 458.167969 371.058594 452.371094 375.699219 445.875 375.699219 Z M 445.875 375.699219 " fill-opacity="1" fill-rule="nonzero"/><path fill="#ff3131" d="M 434.96875 400.984375 L 245.207031 400.984375 C 230.128906 400.984375 215.976562 394.488281 206.234375 382.890625 C 196.492188 371.289062 192.316406 356.210938 194.632812 341.363281 C 205.074219 277.105469 238.480469 219.339844 288.820312 178.742188 C 338.464844 138.84375 402.726562 116.804688 470 116.804688 C 477.65625 116.804688 483.917969 123.066406 483.917969 130.722656 L 483.917969 183.847656 C 483.917969 191.503906 477.65625 197.765625 470 197.765625 C 462.34375 197.765625 456.082031 191.503906 456.082031 183.847656 L 456.082031 145.105469 C 335.914062 150.90625 240.566406 231.867188 222.007812 345.773438 C 220.847656 352.730469 222.9375 359.691406 227.34375 364.796875 C 231.753906 370.128906 238.246094 373.144531 245.207031 373.144531 L 434.96875 373.144531 C 442.625 373.144531 448.890625 379.410156 448.890625 387.066406 C 448.890625 394.722656 442.625 400.984375 434.96875 400.984375 Z M 434.96875 400.984375 " fill-opacity="1" fill-rule="nonzero"/><path fill="#ff3131" d="M 360.96875 224.910156 C 355.632812 224.910156 350.527344 221.894531 348.207031 216.789062 L 330.113281 176.65625 C 326.867188 169.695312 330.113281 161.34375 337.074219 158.328125 C 344.03125 155.3125 352.382812 158.328125 355.398438 165.289062 L 373.496094 205.421875 C 376.742188 212.382812 373.496094 220.734375 366.535156 223.75 C 364.910156 224.445312 363.054688 224.910156 360.96875 224.910156 Z M 360.96875 224.910156 " fill-opacity="1" fill-rule="nonzero"/><path fill="#ff3131" d="M 283.019531 297.75 C 280.238281 297.75 277.453125 296.824219 274.902344 295.199219 L 240.800781 271.074219 C 234.535156 266.664062 232.914062 257.851562 237.550781 251.585938 C 241.960938 245.324219 250.773438 243.699219 257.039062 248.339844 L 291.140625 272.464844 C 297.402344 276.871094 299.027344 285.6875 294.386719 291.953125 C 291.605469 295.894531 287.429688 297.75 283.019531 297.75 Z M 283.019531 297.75 " fill-opacity="1" fill-rule="nonzero"/></svg>