<svg xmlns="http://www.w3.org/2000/svg" xmlns:xlink="http://www.w3.org/1999/xlink" width="1254" zoomAndPan="magnify" viewBox="0 0 940.5 940.499971" height="1254" preserveAspectRatio="xMidYMid meet" version="1.0"><defs><clipPath id="37c27c371d"><path d="M 282 294.453125 L 658.300781 294.453125 L 658.300781 645.269531 L 282 645.269531 Z M 282 294.453125 " clip-rule="nonzero"/></clipPath></defs><g clip-path="url(#37c27c371d)"><path fill="#000000" d="M 603.878906 645.058594 L 336.421875 645.058594 C 314.597656 645.058594 296.671875 627.996094 295.652344 606.300781 L 282.09375 337.503906 C 281.535156 326.191406 285.527344 315.527344 293.328125 307.367188 C 301.128906 299.207031 311.625 294.664062 322.953125 294.664062 L 617.4375 294.664062 C 628.769531 294.664062 639.261719 299.207031 647.0625 307.367188 C 654.863281 315.527344 658.855469 326.28125 658.300781 337.503906 L 644.835938 606.300781 C 643.625 628.089844 625.703125 645.058594 603.878906 645.058594 Z M 322.953125 305.882812 C 314.78125 305.882812 307.074219 309.128906 301.410156 315.0625 C 295.746094 320.996094 292.867188 328.785156 293.238281 336.945312 L 306.703125 605.746094 C 307.539062 621.507812 320.539062 633.933594 336.328125 633.933594 L 603.785156 633.933594 C 619.667969 633.933594 632.667969 621.601562 633.410156 605.746094 L 646.878906 336.945312 C 647.25 328.785156 644.371094 320.996094 638.703125 315.0625 C 633.039062 309.128906 625.425781 305.882812 617.160156 305.882812 Z M 322.953125 305.882812 " fill-opacity="1" fill-rule="nonzero"/></g><path fill="#000000" d="M 470.148438 456.277344 C 459.378906 456.277344 450.554688 447.46875 450.554688 436.714844 C 450.554688 425.957031 459.378906 417.148438 470.148438 417.148438 C 480.921875 417.148438 489.746094 425.957031 489.746094 436.714844 C 489.746094 447.46875 480.921875 456.277344 470.148438 456.277344 Z M 470.148438 428.277344 C 465.507812 428.277344 461.699219 432.078125 461.699219 436.714844 C 461.699219 441.351562 465.507812 445.152344 470.148438 445.152344 C 474.792969 445.152344 478.601562 441.351562 478.601562 436.714844 C 478.601562 432.078125 474.792969 428.277344 470.148438 428.277344 Z M 470.148438 428.277344 " fill-opacity="1" fill-rule="nonzero"/><path fill="#000000" d="M 479.808594 432.171875 C 477.207031 432.171875 474.886719 430.316406 474.328125 427.71875 L 464.671875 379.042969 C 464.113281 376.074219 466.0625 373.105469 469.035156 372.457031 C 472.101562 371.902344 474.980469 373.847656 475.628906 376.816406 L 485.289062 425.496094 C 485.84375 428.460938 483.894531 431.429688 480.921875 432.078125 C 480.550781 432.078125 480.179688 432.171875 479.808594 432.171875 Z M 479.808594 432.171875 " fill-opacity="1" fill-rule="nonzero"/><path fill="#000000" d="M 560.140625 442.277344 L 484.171875 442.277344 C 481.109375 442.277344 478.601562 439.773438 478.601562 436.714844 C 478.601562 433.652344 481.109375 431.152344 484.171875 431.152344 L 560.140625 431.152344 C 562.925781 431.152344 565.523438 429.945312 567.289062 427.8125 C 569.054688 425.679688 569.890625 422.898438 569.425781 420.210938 C 561.996094 374.589844 523.921875 342.324219 475.722656 340.003906 L 475.722656 355.488281 C 475.722656 358.550781 473.214844 361.054688 470.148438 361.054688 C 467.085938 361.054688 464.578125 358.550781 464.578125 355.488281 L 464.578125 334.257812 C 464.578125 331.195312 467.085938 328.695312 470.148438 328.695312 C 497.082031 328.695312 522.804688 337.503906 542.679688 353.449219 C 562.832031 369.675781 576.203125 392.765625 580.382812 418.449219 C 581.3125 424.382812 579.640625 430.5 575.742188 435.042969 C 571.839844 439.679688 566.175781 442.277344 560.140625 442.277344 Z M 560.140625 442.277344 " fill-opacity="1" fill-rule="nonzero"/><path fill="#000000" d="M 513.796875 371.902344 C 513.054688 371.902344 512.21875 371.714844 511.476562 371.4375 C 508.691406 370.140625 507.390625 366.894531 508.691406 364.113281 L 515.933594 348.074219 C 517.234375 345.289062 520.484375 343.992188 523.269531 345.289062 C 526.054688 346.589844 527.355469 349.835938 526.054688 352.617188 L 518.8125 368.65625 C 517.882812 370.605469 515.933594 371.902344 513.796875 371.902344 Z M 513.796875 371.902344 " fill-opacity="1" fill-rule="nonzero"/><path fill="#000000" d="M 545 401.015625 C 543.238281 401.015625 541.566406 400.183594 540.449219 398.699219 C 538.6875 396.195312 539.242188 392.671875 541.75 390.910156 L 555.402344 381.265625 C 557.910156 379.503906 561.4375 380.0625 563.203125 382.566406 C 564.96875 385.066406 564.410156 388.589844 561.902344 390.351562 L 548.25 399.996094 C 547.230469 400.738281 546.117188 401.015625 545 401.015625 Z M 545 401.015625 " fill-opacity="1" fill-rule="nonzero"/><path fill="#000000" d="M 470.148438 456.277344 C 459.378906 456.277344 450.554688 447.46875 450.554688 436.714844 C 450.554688 425.957031 459.378906 417.148438 470.148438 417.148438 C 480.921875 417.148438 489.746094 425.957031 489.746094 436.714844 C 489.746094 447.46875 480.921875 456.277344 470.148438 456.277344 Z M 470.148438 428.277344 C 465.507812 428.277344 461.699219 432.078125 461.699219 436.714844 C 461.699219 441.351562 465.507812 445.152344 470.148438 445.152344 C 474.792969 445.152344 478.601562 441.351562 478.601562 436.714844 C 478.601562 432.078125 474.792969 428.277344 470.148438 428.277344 Z M 470.148438 428.277344 " fill-opacity="1" fill-rule="nonzero"/><path fill="#000000" d="M 460.492188 432.171875 C 460.121094 432.171875 459.75 432.171875 459.378906 432.078125 C 456.3125 431.523438 454.363281 428.554688 455.011719 425.496094 L 464.671875 376.816406 C 465.226562 373.847656 468.199219 371.808594 471.265625 372.457031 C 474.234375 373.015625 476.28125 375.980469 475.628906 379.042969 L 465.972656 427.71875 C 465.414062 430.316406 463.09375 432.171875 460.492188 432.171875 Z M 460.492188 432.171875 " fill-opacity="1" fill-rule="nonzero"/><path fill="#000000" d="M 456.128906 442.277344 L 380.160156 442.277344 C 374.125 442.277344 368.460938 439.679688 364.558594 435.042969 C 360.660156 430.410156 358.988281 424.382812 359.917969 418.449219 C 364.09375 392.765625 377.46875 369.675781 397.621094 353.449219 C 417.492188 337.503906 443.21875 328.695312 470.148438 328.695312 C 473.214844 328.695312 475.722656 331.195312 475.722656 334.257812 L 475.722656 355.488281 C 475.722656 358.550781 473.214844 361.054688 470.148438 361.054688 C 467.085938 361.054688 464.578125 358.550781 464.578125 355.488281 L 464.578125 340.003906 C 416.472656 342.324219 378.304688 374.683594 370.875 420.210938 C 370.410156 422.992188 371.246094 425.773438 373.011719 427.8125 C 374.773438 429.945312 377.375 431.152344 380.160156 431.152344 L 456.128906 431.152344 C 459.191406 431.152344 461.699219 433.652344 461.699219 436.714844 C 461.699219 439.773438 459.191406 442.277344 456.128906 442.277344 Z M 456.128906 442.277344 " fill-opacity="1" fill-rule="nonzero"/><path fill="#000000" d="M 426.503906 371.902344 C 424.367188 371.902344 422.324219 370.695312 421.394531 368.65625 L 414.152344 352.617188 C 412.851562 349.835938 414.152344 346.496094 416.9375 345.289062 C 419.722656 344.085938 423.066406 345.289062 424.273438 348.074219 L 431.515625 364.113281 C 432.816406 366.894531 431.515625 370.234375 428.730469 371.4375 C 428.082031 371.714844 427.339844 371.902344 426.503906 371.902344 Z M 426.503906 371.902344 " fill-opacity="1" fill-rule="nonzero"/><path fill="#000000" d="M 395.296875 401.015625 C 394.183594 401.015625 393.070312 400.644531 392.046875 399.996094 L 378.398438 390.351562 C 375.890625 388.589844 375.238281 385.066406 377.097656 382.566406 C 378.859375 380.0625 382.390625 379.414062 384.898438 381.265625 L 398.550781 390.910156 C 401.054688 392.671875 401.707031 396.195312 399.847656 398.699219 C 398.734375 400.273438 397.0625 401.015625 395.296875 401.015625 Z M 395.296875 401.015625 " fill-opacity="1" fill-rule="nonzero"/></svg>