<svg xmlns="http://www.w3.org/2000/svg" xmlns:xlink="http://www.w3.org/1999/xlink" width="1254" zoomAndPan="magnify" viewBox="0 0 940.5 940.499971" height="1254" preserveAspectRatio="xMidYMid meet" version="1.0"><defs><clipPath id="70e80c30c2"><path d="M 4 0 L 936.777344 0 L 936.777344 940 L 4 940 Z M 4 0 " clip-rule="nonzero"/></clipPath></defs><g clip-path="url(#70e80c30c2)"><path fill="#000000" d="M 736.882812 17.414062 C 717.777344 2.007812 710.394531 -1.621094 702.542969 0.519531 C 697.59375 1.871094 694.871094 2.613281 597.089844 99.421875 C 545.144531 150.855469 473.261719 222.714844 383.441406 313.011719 C 368.1875 328.347656 352.878906 343.75 337.511719 359.222656 C 337.425781 359.296875 337.335938 359.363281 337.253906 359.441406 C 336.984375 359.699219 336.738281 359.96875 336.496094 360.242188 C 193.488281 504.21875 52.929688 646.582031 13.789062 686.34375 L 13.785156 686.34375 C 13.035156 687.105469 12.320312 687.902344 11.644531 688.734375 C 10.96875 689.566406 10.332031 690.425781 9.738281 691.320312 C 9.144531 692.210938 8.59375 693.128906 8.089844 694.070312 C 7.582031 695.015625 7.121094 695.980469 6.707031 696.96875 C 6.292969 697.957031 5.925781 698.960938 5.605469 699.984375 C 5.285156 701.007812 5.015625 702.042969 4.796875 703.089844 C 4.578125 704.140625 4.40625 705.195312 4.285156 706.261719 C 4.167969 707.324219 4.097656 708.390625 4.082031 709.464844 C 4.0625 710.535156 4.09375 711.605469 4.179688 712.671875 C 4.261719 713.738281 4.398438 714.800781 4.582031 715.855469 C 4.765625 716.910156 5 717.957031 5.285156 718.988281 C 5.570312 720.019531 5.902344 721.039062 6.285156 722.039062 C 6.664062 723.039062 7.09375 724.019531 7.566406 724.980469 C 8.042969 725.941406 8.5625 726.878906 9.125 727.789062 C 9.6875 728.699219 10.292969 729.582031 10.941406 730.433594 C 11.589844 731.289062 12.277344 732.109375 13.003906 732.894531 C 37.367188 759.386719 84.730469 810.507812 128.191406 855.238281 C 152.894531 880.664062 172.878906 900.449219 187.59375 914.050781 C 206.867188 931.867188 217.324219 939.957031 225.863281 939.957031 C 228.570312 939.925781 231.070312 939.183594 233.355469 937.730469 C 242.820312 932.054688 451.902344 728.320312 588.242188 593.746094 C 684.929688 498.300781 766.742188 416.476562 824.824219 357.117188 C 935.503906 244.015625 935.8125 238.203125 936.199219 230.847656 C 936.554688 224.0625 937.21875 211.433594 856.707031 129.363281 C 814.28125 86.117188 765.007812 40.082031 736.882812 17.414062 Z M 565.242188 579.011719 C 405.898438 736.25 255.613281 881.734375 224.226562 910.628906 C 204.515625 895.75 140.84375 832.546875 32.613281 714.867188 C 32.308594 714.535156 32.035156 714.175781 31.796875 713.789062 C 31.554688 713.402344 31.355469 712.996094 31.195312 712.570312 C 31.03125 712.148438 30.914062 711.710938 30.835938 711.265625 C 30.753906 710.816406 30.71875 710.367188 30.726562 709.914062 C 30.734375 709.457031 30.785156 709.007812 30.878906 708.566406 C 30.972656 708.121094 31.109375 707.6875 31.285156 707.269531 C 31.457031 706.851562 31.671875 706.453125 31.925781 706.074219 C 32.175781 705.695312 32.460938 705.347656 32.78125 705.023438 L 32.777344 705.023438 C 45.746094 691.851562 62.152344 675.207031 81.230469 655.878906 L 112.253906 688.371094 C 112.859375 689 113.519531 689.566406 114.234375 690.070312 C 114.949219 690.570312 115.707031 691 116.507812 691.351562 C 117.308594 691.703125 118.132812 691.976562 118.988281 692.164062 C 119.839844 692.355469 120.703125 692.460938 121.578125 692.480469 C 122.453125 692.5 123.320312 692.433594 124.179688 692.28125 C 125.042969 692.132812 125.878906 691.898438 126.695312 691.582031 C 127.511719 691.265625 128.285156 690.875 129.023438 690.40625 C 129.761719 689.9375 130.449219 689.402344 131.082031 688.796875 C 131.710938 688.195312 132.28125 687.535156 132.78125 686.820312 C 133.285156 686.105469 133.714844 685.347656 134.066406 684.550781 C 134.417969 683.75 134.691406 682.925781 134.882812 682.070312 C 135.074219 681.21875 135.179688 680.355469 135.199219 679.480469 C 135.21875 678.609375 135.15625 677.738281 135.003906 676.878906 C 134.855469 676.019531 134.621094 675.179688 134.308594 674.363281 C 133.992188 673.550781 133.601562 672.773438 133.132812 672.035156 C 132.664062 671.296875 132.128906 670.613281 131.527344 669.980469 L 99.953125 636.914062 C 114.101562 622.589844 129.386719 607.121094 145.582031 590.738281 L 218.824219 667.441406 C 219.429688 668.074219 220.089844 668.640625 220.804688 669.140625 C 221.523438 669.644531 222.28125 670.070312 223.078125 670.421875 C 223.878906 670.773438 224.707031 671.046875 225.558594 671.234375 C 226.410156 671.425781 227.277344 671.53125 228.148438 671.550781 C 229.023438 671.570312 229.890625 671.503906 230.75 671.351562 C 231.613281 671.203125 232.449219 670.96875 233.265625 670.652344 C 234.078125 670.335938 234.855469 669.945312 235.59375 669.476562 C 236.332031 669.007812 237.015625 668.472656 237.648438 667.867188 C 238.28125 667.265625 238.847656 666.605469 239.351562 665.890625 C 239.851562 665.175781 240.28125 664.417969 240.636719 663.621094 C 240.988281 662.820312 241.261719 661.996094 241.449219 661.140625 C 241.640625 660.289062 241.746094 659.425781 241.769531 658.554688 C 241.789062 657.679688 241.726562 656.8125 241.574219 655.953125 C 241.425781 655.089844 241.191406 654.253906 240.878906 653.4375 C 240.5625 652.621094 240.171875 651.847656 239.703125 651.109375 C 239.234375 650.371094 238.699219 649.683594 238.097656 649.050781 L 164.320312 571.789062 C 180.121094 555.8125 196.640625 539.121094 213.683594 521.910156 L 245.46875 555.199219 C 246.074219 555.832031 246.734375 556.398438 247.449219 556.902344 C 248.164062 557.402344 248.921875 557.832031 249.722656 558.183594 C 250.523438 558.539062 251.347656 558.808594 252.203125 559 C 253.058594 559.191406 253.921875 559.296875 254.796875 559.316406 C 255.671875 559.335938 256.539062 559.273438 257.398438 559.121094 C 258.261719 558.96875 259.101562 558.738281 259.914062 558.421875 C 260.730469 558.105469 261.507812 557.714844 262.246094 557.246094 C 262.984375 556.777344 263.671875 556.238281 264.304688 555.636719 C 264.9375 555.03125 265.503906 554.371094 266.007812 553.65625 C 266.507812 552.941406 266.9375 552.183594 267.289062 551.382812 C 267.644531 550.582031 267.917969 549.757812 268.105469 548.902344 C 268.296875 548.050781 268.402344 547.1875 268.421875 546.3125 C 268.445312 545.4375 268.378906 544.570312 268.226562 543.710938 C 268.078125 542.847656 267.84375 542.007812 267.527344 541.195312 C 267.210938 540.378906 266.820312 539.601562 266.351562 538.863281 C 265.882812 538.125 265.34375 537.441406 264.742188 536.808594 L 232.433594 502.972656 C 248.296875 486.960938 264.484375 470.628906 280.992188 453.976562 L 355.847656 532.367188 C 356.453125 533 357.109375 533.566406 357.828125 534.066406 C 358.542969 534.570312 359.300781 534.996094 360.101562 535.347656 C 360.898438 535.699219 361.726562 535.972656 362.578125 536.160156 C 363.433594 536.351562 364.296875 536.457031 365.171875 536.476562 C 366.042969 536.496094 366.910156 536.429688 367.773438 536.277344 C 368.632812 536.128906 369.472656 535.894531 370.285156 535.578125 C 371.101562 535.261719 371.878906 534.871094 372.617188 534.402344 C 373.351562 533.933594 374.039062 533.398438 374.671875 532.792969 C 375.300781 532.191406 375.871094 531.53125 376.371094 530.816406 C 376.875 530.101562 377.300781 529.34375 377.65625 528.546875 C 378.007812 527.746094 378.28125 526.921875 378.472656 526.070312 C 378.664062 525.214844 378.769531 524.351562 378.789062 523.480469 C 378.808594 522.605469 378.746094 521.738281 378.597656 520.878906 C 378.445312 520.015625 378.214844 519.179688 377.898438 518.363281 C 377.585938 517.550781 377.191406 516.773438 376.726562 516.035156 C 376.257812 515.296875 375.722656 514.609375 375.121094 513.976562 L 299.761719 435.054688 C 315.164062 419.53125 330.671875 403.90625 346.285156 388.1875 L 376.78125 420.125 C 377.386719 420.757812 378.046875 421.324219 378.761719 421.824219 C 379.476562 422.328125 380.234375 422.753906 381.035156 423.109375 C 381.835938 423.460938 382.660156 423.734375 383.515625 423.921875 C 384.367188 424.113281 385.230469 424.21875 386.105469 424.238281 C 386.980469 424.257812 387.847656 424.191406 388.710938 424.042969 C 389.570312 423.890625 390.410156 423.65625 391.226562 423.34375 C 392.039062 423.027344 392.816406 422.632812 393.554688 422.164062 C 394.292969 421.695312 394.976562 421.160156 395.609375 420.558594 C 396.242188 419.953125 396.8125 419.292969 397.3125 418.578125 C 397.816406 417.863281 398.246094 417.105469 398.597656 416.304688 C 398.953125 415.507812 399.222656 414.679688 399.414062 413.828125 C 399.605469 412.972656 399.710938 412.109375 399.730469 411.238281 C 399.75 410.363281 399.6875 409.496094 399.535156 408.632812 C 399.386719 407.773438 399.152344 406.933594 398.835938 406.121094 C 398.523438 405.304688 398.128906 404.527344 397.660156 403.789062 C 397.191406 403.050781 396.65625 402.367188 396.054688 401.734375 L 365.066406 369.28125 C 381.363281 352.878906 397.589844 336.5625 413.75 320.324219 L 489.0625 399.199219 C 489.667969 399.828125 490.324219 400.398438 491.042969 400.898438 C 491.757812 401.402344 492.515625 401.828125 493.316406 402.183594 C 494.117188 402.535156 494.941406 402.808594 495.796875 402.996094 C 496.648438 403.1875 497.511719 403.292969 498.386719 403.3125 C 499.261719 403.332031 500.128906 403.265625 500.992188 403.117188 C 501.851562 402.964844 502.691406 402.734375 503.507812 402.417969 C 504.324219 402.101562 505.097656 401.710938 505.835938 401.242188 C 506.574219 400.773438 507.261719 400.234375 507.894531 399.632812 C 508.527344 399.027344 509.09375 398.367188 509.597656 397.652344 C 510.097656 396.9375 510.527344 396.179688 510.878906 395.378906 C 511.234375 394.582031 511.507812 393.753906 511.695312 392.902344 C 511.886719 392.046875 511.992188 391.183594 512.011719 390.308594 C 512.035156 389.4375 511.96875 388.570312 511.816406 387.707031 C 511.667969 386.847656 511.433594 386.007812 511.121094 385.191406 C 510.804688 384.378906 510.410156 383.601562 509.941406 382.863281 C 509.472656 382.125 508.9375 381.4375 508.335938 380.804688 L 432.550781 301.4375 C 447.714844 286.210938 462.648438 271.226562 477.355469 256.484375 L 511.898438 292.660156 C 512.503906 293.292969 513.164062 293.859375 513.878906 294.363281 C 514.59375 294.863281 515.351562 295.292969 516.152344 295.644531 C 516.953125 295.996094 517.777344 296.269531 518.632812 296.460938 C 519.484375 296.648438 520.351562 296.753906 521.222656 296.777344 C 522.097656 296.796875 522.964844 296.730469 523.828125 296.578125 C 524.691406 296.429688 525.527344 296.195312 526.34375 295.878906 C 527.160156 295.5625 527.9375 295.171875 528.675781 294.703125 C 529.414062 294.234375 530.097656 293.699219 530.730469 293.09375 C 531.363281 292.492188 531.929688 291.832031 532.433594 291.117188 C 532.9375 290.402344 533.363281 289.644531 533.71875 288.84375 C 534.070312 288.042969 534.34375 287.21875 534.535156 286.363281 C 534.722656 285.511719 534.828125 284.648438 534.851562 283.773438 C 534.871094 282.898438 534.804688 282.03125 534.65625 281.171875 C 534.503906 280.308594 534.269531 279.472656 533.957031 278.65625 C 533.640625 277.839844 533.25 277.0625 532.78125 276.324219 C 532.3125 275.585938 531.773438 274.902344 531.171875 274.269531 L 496.179688 237.625 C 515.03125 218.746094 533.265625 200.515625 550.625 183.195312 L 626.082031 262.222656 C 626.6875 262.851562 627.347656 263.421875 628.0625 263.921875 C 628.777344 264.425781 629.535156 264.851562 630.335938 265.207031 C 631.136719 265.558594 631.964844 265.832031 632.816406 266.019531 C 633.671875 266.210938 634.535156 266.316406 635.410156 266.335938 C 636.28125 266.355469 637.152344 266.292969 638.011719 266.140625 C 638.875 265.988281 639.710938 265.757812 640.527344 265.441406 C 641.34375 265.125 642.121094 264.734375 642.859375 264.265625 C 643.597656 263.796875 644.28125 263.257812 644.914062 262.65625 C 645.546875 262.050781 646.113281 261.390625 646.617188 260.675781 C 647.121094 259.960938 647.546875 259.203125 647.902344 258.402344 C 648.253906 257.605469 648.527344 256.777344 648.71875 255.925781 C 648.90625 255.070312 649.011719 254.207031 649.035156 253.335938 C 649.054688 252.460938 648.988281 251.59375 648.839844 250.730469 C 648.6875 249.871094 648.457031 249.03125 648.140625 248.214844 C 647.824219 247.402344 647.433594 246.625 646.964844 245.886719 C 646.496094 245.148438 645.960938 244.460938 645.355469 243.832031 L 569.492188 164.378906 C 591.414062 142.539062 611.644531 122.449219 629.605469 104.703125 L 664.195312 140.519531 C 664.804688 141.148438 665.46875 141.710938 666.1875 142.207031 C 666.90625 142.707031 667.664062 143.128906 668.46875 143.476562 C 669.269531 143.828125 670.097656 144.09375 670.953125 144.277344 C 671.804688 144.464844 672.671875 144.5625 673.546875 144.578125 C 674.417969 144.59375 675.285156 144.523438 676.148438 144.367188 C 677.007812 144.210938 677.84375 143.972656 678.65625 143.652344 C 679.472656 143.332031 680.246094 142.9375 680.980469 142.464844 C 681.71875 141.992188 682.398438 141.453125 683.027344 140.84375 C 683.65625 140.238281 684.222656 139.574219 684.71875 138.855469 C 685.21875 138.136719 685.640625 137.378906 685.992188 136.578125 C 686.339844 135.773438 686.605469 134.949219 686.792969 134.09375 C 686.980469 133.238281 687.078125 132.375 687.09375 131.5 C 687.109375 130.628906 687.039062 129.761719 686.886719 128.898438 C 686.730469 128.039062 686.492188 127.203125 686.171875 126.390625 C 685.851562 125.574219 685.457031 124.800781 684.984375 124.066406 C 684.511719 123.332031 683.972656 122.648438 683.363281 122.019531 L 648.574219 86 C 677.480469 57.574219 698.417969 37.359375 707.992188 28.820312 C 722.894531 38.941406 763.148438 74.226562 812.398438 122.695312 C 873.179688 182.515625 901.789062 217.09375 908.40625 228.730469 C 897.816406 242.917969 842.507812 305.414062 565.242188 579.011719 Z M 565.242188 579.011719 " fill-opacity="1" fill-rule="nonzero"/></g></svg>