<svg xmlns="http://www.w3.org/2000/svg" xmlns:xlink="http://www.w3.org/1999/xlink" width="1254" zoomAndPan="magnify" viewBox="0 0 940.5 940.499971" height="1254" preserveAspectRatio="xMidYMid meet" version="1.0"><defs><clipPath id="8d71d4360d"><path d="M 300 560 L 366 560 L 366 658.300781 L 300 658.300781 Z M 300 560 " clip-rule="nonzero"/></clipPath><clipPath id="705770bdfc"><path d="M 391 518 L 457 518 L 457 658.300781 L 391 658.300781 Z M 391 518 " clip-rule="nonzero"/></clipPath><clipPath id="e77e174df9"><path d="M 483 474 L 549 474 L 549 658.300781 L 483 658.300781 Z M 483 474 " clip-rule="nonzero"/></clipPath><clipPath id="43a7c1f4ee"><path d="M 574 422 L 640 422 L 640 658.300781 L 574 658.300781 Z M 574 422 " clip-rule="nonzero"/></clipPath><clipPath id="7d18139b36"><path d="M 295.863281 357 L 619 357 L 619 524 L 295.863281 524 Z M 295.863281 357 " clip-rule="nonzero"/></clipPath><clipPath id="f72b178aac"><path d="M 588 326 L 644.429688 326 L 644.429688 385 L 588 385 Z M 588 326 " clip-rule="nonzero"/></clipPath></defs><g clip-path="url(#8d71d4360d)"><path fill="#000000" d="M 359.140625 658.300781 L 306.375 658.300781 C 303.019531 658.300781 300.226562 655.585938 300.226562 652.152344 L 300.226562 566.421875 C 300.226562 563.066406 302.941406 560.273438 306.375 560.273438 L 359.140625 560.273438 C 362.496094 560.273438 365.289062 562.988281 365.289062 566.421875 L 365.289062 652.152344 C 365.289062 655.507812 362.496094 658.300781 359.140625 658.300781 Z M 312.519531 646.007812 L 352.996094 646.007812 L 352.996094 572.566406 L 312.519531 572.566406 Z M 312.519531 646.007812 " fill-opacity="1" fill-rule="nonzero"/></g><g clip-path="url(#705770bdfc)"><path fill="#000000" d="M 450.707031 658.300781 L 397.941406 658.300781 C 394.585938 658.300781 391.792969 655.585938 391.792969 652.152344 L 391.792969 524.589844 C 391.792969 521.238281 394.507812 518.445312 397.941406 518.445312 L 450.707031 518.445312 C 454.0625 518.445312 456.855469 521.160156 456.855469 524.589844 L 456.855469 652.152344 C 456.855469 655.507812 454.0625 658.300781 450.707031 658.300781 Z M 404.085938 646.007812 L 444.5625 646.007812 L 444.5625 530.738281 L 404.085938 530.738281 Z M 404.085938 646.007812 " fill-opacity="1" fill-rule="nonzero"/></g><g clip-path="url(#e77e174df9)"><path fill="#000000" d="M 542.273438 658.300781 L 489.507812 658.300781 C 486.152344 658.300781 483.359375 655.585938 483.359375 652.152344 L 483.359375 480.6875 C 483.359375 477.335938 486.074219 474.539062 489.507812 474.539062 L 542.273438 474.539062 C 545.628906 474.539062 548.421875 477.253906 548.421875 480.6875 L 548.421875 652.152344 C 548.421875 655.507812 545.628906 658.300781 542.273438 658.300781 Z M 495.652344 646.007812 L 536.128906 646.007812 L 536.128906 486.832031 L 495.652344 486.832031 Z M 495.652344 646.007812 " fill-opacity="1" fill-rule="nonzero"/></g><g clip-path="url(#43a7c1f4ee)"><path fill="#000000" d="M 633.839844 658.300781 L 581.074219 658.300781 C 577.71875 658.300781 574.925781 655.585938 574.925781 652.152344 L 574.925781 428.402344 C 574.925781 425.046875 577.640625 422.253906 581.074219 422.253906 L 633.839844 422.253906 C 637.195312 422.253906 639.988281 424.96875 639.988281 428.402344 L 639.988281 652.152344 C 639.988281 655.507812 637.195312 658.300781 633.839844 658.300781 Z M 587.21875 646.007812 L 627.695312 646.007812 L 627.695312 434.546875 L 587.21875 434.546875 Z M 587.21875 646.007812 " fill-opacity="1" fill-rule="nonzero"/></g><g clip-path="url(#7d18139b36)"><path fill="#000000" d="M 302.0625 523.953125 C 300.066406 523.953125 298.152344 522.996094 296.953125 521.238281 C 295.039062 518.445312 295.757812 514.613281 298.550781 512.699219 L 401.453125 442.847656 C 403.449219 441.492188 406.082031 441.414062 408.160156 442.769531 L 449.351562 468.632812 L 512.976562 394.554688 C 515.132812 392.082031 518.882812 391.679688 521.4375 393.757812 L 554.488281 419.859375 L 607.578125 359.191406 C 609.8125 356.636719 613.644531 356.398438 616.199219 358.632812 C 618.753906 360.867188 618.992188 364.699219 616.757812 367.253906 L 559.757812 432.234375 C 557.601562 434.707031 553.929688 435.027344 551.375 433.03125 L 518.484375 407.085938 L 455.257812 480.6875 C 453.261719 483.003906 449.910156 483.480469 447.355469 481.882812 L 405.125 455.382812 L 305.496094 522.914062 C 304.457031 523.632812 303.261719 523.953125 302.0625 523.953125 Z M 302.0625 523.953125 " fill-opacity="1" fill-rule="nonzero"/></g><g clip-path="url(#f72b178aac)"><path fill="#000000" d="M 630.167969 384.335938 C 628.730469 384.335938 627.375 383.859375 626.257812 382.898438 L 590.574219 353.046875 C 588.894531 351.609375 588.097656 349.453125 588.496094 347.296875 C 588.894531 345.140625 590.414062 343.386719 592.410156 342.589844 L 636.078125 326.621094 C 638.152344 325.90625 640.46875 326.304688 642.144531 327.660156 C 643.820312 329.097656 644.617188 331.253906 644.21875 333.40625 L 636.234375 379.226562 C 635.835938 381.382812 634.320312 383.140625 632.324219 383.9375 C 631.605469 384.257812 630.886719 384.335938 630.167969 384.335938 Z M 606.539062 350.492188 L 625.9375 366.695312 L 630.328125 341.789062 Z M 606.539062 350.492188 " fill-opacity="1" fill-rule="nonzero"/></g><path fill="#000000" d="M 446 362.542969 C 445.199219 362.542969 444.402344 362.386719 443.605469 362.066406 C 441.847656 361.347656 440.570312 359.832031 440.011719 357.996094 L 433.863281 335.085938 C 432.984375 331.8125 434.902344 328.457031 438.175781 327.582031 C 441.449219 326.703125 444.800781 328.617188 445.679688 331.890625 L 449.75 347.136719 L 497.171875 320.15625 C 500.125 318.480469 503.875 319.519531 505.550781 322.472656 C 507.230469 325.425781 506.191406 329.175781 503.238281 330.855469 L 448.871094 361.824219 C 448.074219 362.304688 447.035156 362.542969 446 362.542969 Z M 446 362.542969 " fill-opacity="1" fill-rule="nonzero"/><path fill="#000000" d="M 470.109375 399.902344 C 437.617188 399.902344 411.191406 373.480469 411.191406 340.992188 C 411.191406 308.503906 437.617188 282 470.109375 282 C 502.597656 282 529.023438 308.421875 529.023438 340.910156 C 529.023438 373.402344 502.597656 399.902344 470.109375 399.902344 Z M 470.109375 294.292969 C 444.402344 294.292969 423.40625 315.207031 423.40625 340.992188 C 423.40625 366.773438 444.320312 387.691406 470.109375 387.691406 C 495.894531 387.691406 516.808594 366.773438 516.808594 340.992188 C 516.808594 315.207031 495.8125 294.292969 470.109375 294.292969 Z M 470.109375 294.292969 " fill-opacity="1" fill-rule="nonzero"/></svg>