<svg xmlns="http://www.w3.org/2000/svg" xmlns:xlink="http://www.w3.org/1999/xlink" width="1254" zoomAndPan="magnify" viewBox="0 0 940.5 940.499971" height="1254" preserveAspectRatio="xMidYMid meet" version="1.0"><defs><clipPath id="9115d28d23"><path d="M 463 282 L 658.300781 282 L 658.300781 477 L 463 477 Z M 463 282 " clip-rule="nonzero"/></clipPath><clipPath id="e0aaf9d70e"><path d="M 282 333 L 561 333 L 561 658.300781 L 282 658.300781 Z M 282 333 " clip-rule="nonzero"/></clipPath></defs><g clip-path="url(#9115d28d23)"><path fill="#000000" d="M 470.148438 282 C 466.582031 282 463.660156 284.917969 463.660156 288.488281 L 463.660156 470.148438 C 463.660156 473.71875 466.582031 476.636719 470.148438 476.636719 L 651.8125 476.636719 C 655.378906 476.636719 658.300781 473.71875 658.300781 470.148438 C 658.300781 366.40625 573.890625 282 470.148438 282 Z M 476.636719 463.660156 L 476.636719 295.105469 C 568.117188 298.480469 641.886719 372.246094 645.195312 463.660156 Z M 476.636719 463.660156 " fill-opacity="1" fill-rule="nonzero"/></g><path fill="#000000" d="M 649.929688 489.613281 L 483.125 489.613281 C 480.53125 489.613281 478.128906 491.171875 477.15625 493.636719 C 476.117188 496.035156 476.703125 498.828125 478.585938 500.707031 L 587.453125 609.574219 C 588.683594 610.808594 590.371094 611.457031 592.058594 611.457031 C 593.617188 611.457031 595.171875 610.875 596.40625 609.769531 C 628.972656 580.25 650.253906 540.21875 656.417969 497.011719 C 656.679688 495.128906 656.160156 493.246094 654.863281 491.820312 C 653.628906 490.390625 651.875 489.613281 649.996094 489.613281 Z M 592.125 595.949219 L 498.761719 502.589844 L 642.273438 502.589844 C 635.65625 537.949219 618.074219 570.648438 592.125 595.949219 Z M 592.125 595.949219 " fill-opacity="1" fill-rule="nonzero"/><g clip-path="url(#e0aaf9d70e)"><path fill="#000000" d="M 450.6875 493.441406 L 450.6875 340.390625 C 450.6875 336.824219 447.765625 333.902344 444.199219 333.902344 C 354.730469 333.902344 282 406.632812 282 496.101562 C 282 585.570312 354.730469 658.300781 444.199219 658.300781 C 487.472656 658.300781 528.152344 641.429688 558.90625 610.808594 C 560.136719 609.574219 560.785156 607.953125 560.785156 606.203125 C 560.785156 604.449219 560.074219 602.828125 558.90625 601.59375 L 450.6875 493.375 Z M 444.199219 645.324219 C 361.929688 645.324219 294.976562 578.367188 294.976562 496.101562 C 294.976562 413.835938 358.429688 350.449219 437.710938 347.007812 L 437.710938 496.101562 C 437.710938 497.851562 438.425781 499.476562 439.59375 500.707031 L 545.019531 606.136719 C 517.382812 631.503906 481.828125 645.390625 444.199219 645.390625 Z M 444.199219 645.324219 " fill-opacity="1" fill-rule="nonzero"/></g></svg>