<svg xmlns="http://www.w3.org/2000/svg" xmlns:xlink="http://www.w3.org/1999/xlink" width="1254" zoomAndPan="magnify" viewBox="0 0 940.5 940.499971" height="1254" preserveAspectRatio="xMidYMid meet" version="1.0"><defs><clipPath id="a9115be0de"><path d="M 282 299.3125 L 658.300781 299.3125 L 658.300781 640.378906 L 282 640.378906 Z M 282 299.3125 " clip-rule="nonzero"/></clipPath></defs><g clip-path="url(#a9115be0de)"><path fill="#000000" d="M 341.132812 405.394531 C 340.0625 405.394531 338.992188 405.445312 337.925781 405.550781 C 336.859375 405.65625 335.796875 405.8125 334.746094 406.023438 C 333.695312 406.230469 332.65625 406.492188 331.632812 406.800781 C 330.605469 407.113281 329.597656 407.472656 328.605469 407.882812 C 327.617188 408.292969 326.648438 408.75 325.703125 409.253906 C 324.757812 409.757812 323.839844 410.308594 322.949219 410.902344 C 322.054688 411.496094 321.195312 412.132812 320.367188 412.8125 C 319.539062 413.492188 318.746094 414.207031 317.988281 414.964844 C 317.230469 415.722656 316.511719 416.515625 315.828125 417.339844 C 315.148438 418.167969 314.511719 419.027344 313.917969 419.917969 C 313.320312 420.808594 312.769531 421.722656 312.265625 422.667969 C 311.757812 423.613281 311.300781 424.578125 310.890625 425.566406 C 310.480469 426.554688 310.121094 427.5625 309.808594 428.585938 C 309.496094 429.609375 309.238281 430.648438 309.027344 431.699219 C 308.820312 432.746094 308.664062 433.804688 308.558594 434.871094 C 308.453125 435.933594 308.398438 437.003906 308.398438 438.074219 C 308.398438 439.144531 308.453125 440.210938 308.558594 441.277344 C 308.664062 442.339844 308.820312 443.398438 309.027344 444.449219 C 309.238281 445.496094 309.5 446.535156 309.808594 447.558594 C 310.121094 448.582031 310.480469 449.589844 310.890625 450.578125 C 311.300781 451.566406 311.757812 452.535156 312.265625 453.476562 C 312.769531 454.421875 313.320312 455.339844 313.917969 456.226562 C 314.511719 457.117188 315.148438 457.976562 315.832031 458.804688 C 316.511719 459.632812 317.230469 460.421875 317.988281 461.179688 C 318.746094 461.9375 319.539062 462.65625 320.367188 463.332031 C 321.195312 464.011719 322.054688 464.648438 322.949219 465.242188 C 323.839844 465.839844 324.757812 466.386719 325.703125 466.890625 C 326.648438 467.398438 327.617188 467.855469 328.605469 468.261719 C 329.597656 468.671875 330.605469 469.03125 331.632812 469.34375 C 332.65625 469.65625 333.695312 469.914062 334.746094 470.121094 C 335.800781 470.332031 336.859375 470.488281 337.925781 470.59375 C 338.992188 470.699219 340.0625 470.75 341.132812 470.75 C 342.207031 470.75 343.277344 470.699219 344.34375 470.59375 C 345.410156 470.488281 346.46875 470.332031 347.519531 470.121094 C 348.570312 469.914062 349.609375 469.65625 350.636719 469.34375 C 351.664062 469.03125 352.671875 468.671875 353.660156 468.261719 C 354.652344 467.855469 355.621094 467.398438 356.566406 466.890625 C 357.511719 466.386719 358.429688 465.839844 359.320312 465.242188 C 360.210938 464.648438 361.070312 464.011719 361.902344 463.332031 C 362.730469 462.652344 363.523438 461.9375 364.28125 461.179688 C 365.039062 460.421875 365.757812 459.628906 366.4375 458.804688 C 367.117188 457.976562 367.757812 457.117188 368.351562 456.226562 C 368.945312 455.335938 369.496094 454.421875 370.003906 453.476562 C 370.507812 452.53125 370.964844 451.566406 371.375 450.578125 C 371.785156 449.589844 372.148438 448.582031 372.457031 447.558594 C 372.769531 446.535156 373.03125 445.496094 373.238281 444.449219 C 373.449219 443.398438 373.605469 442.339844 373.710938 441.273438 C 373.816406 440.210938 373.867188 439.140625 373.867188 438.074219 C 373.867188 437.003906 373.8125 435.933594 373.707031 434.871094 C 373.601562 433.804688 373.441406 432.75 373.234375 431.699219 C 373.023438 430.648438 372.761719 429.613281 372.449219 428.589844 C 372.140625 427.566406 371.777344 426.558594 371.367188 425.570312 C 370.957031 424.582031 370.496094 423.617188 369.992188 422.675781 C 369.488281 421.730469 368.9375 420.816406 368.339844 419.925781 C 367.746094 419.035156 367.105469 418.175781 366.425781 417.351562 C 365.746094 416.523438 365.027344 415.730469 364.269531 414.976562 C 363.511719 414.21875 362.71875 413.5 361.890625 412.820312 C 361.0625 412.144531 360.203125 411.507812 359.3125 410.910156 C 358.421875 410.316406 357.503906 409.765625 356.558594 409.261719 C 355.613281 408.757812 354.644531 408.300781 353.65625 407.890625 C 352.664062 407.480469 351.65625 407.121094 350.632812 406.808594 C 349.605469 406.496094 348.566406 406.238281 347.515625 406.027344 C 346.464844 405.816406 345.40625 405.660156 344.339844 405.554688 C 343.273438 405.449219 342.203125 405.394531 341.132812 405.394531 Z M 341.132812 459.488281 C 340.429688 459.488281 339.730469 459.453125 339.03125 459.382812 C 338.332031 459.316406 337.636719 459.210938 336.949219 459.074219 C 336.257812 458.9375 335.578125 458.769531 334.90625 458.566406 C 334.234375 458.359375 333.574219 458.125 332.925781 457.855469 C 332.273438 457.589844 331.640625 457.289062 331.019531 456.957031 C 330.402344 456.628906 329.800781 456.265625 329.214844 455.878906 C 328.632812 455.488281 328.066406 455.070312 327.523438 454.625 C 326.980469 454.179688 326.460938 453.710938 325.964844 453.214844 C 325.46875 452.71875 324.996094 452.199219 324.550781 451.65625 C 324.105469 451.113281 323.6875 450.550781 323.296875 449.96875 C 322.90625 449.386719 322.546875 448.785156 322.214844 448.167969 C 321.882812 447.546875 321.585938 446.914062 321.316406 446.265625 C 321.046875 445.617188 320.808594 444.960938 320.605469 444.289062 C 320.402344 443.617188 320.230469 442.9375 320.09375 442.25 C 319.957031 441.5625 319.855469 440.867188 319.785156 440.171875 C 319.71875 439.472656 319.683594 438.773438 319.683594 438.070312 C 319.683594 437.371094 319.71875 436.671875 319.785156 435.972656 C 319.855469 435.273438 319.957031 434.582031 320.09375 433.894531 C 320.230469 433.207031 320.402344 432.527344 320.605469 431.855469 C 320.808594 431.183594 321.046875 430.523438 321.316406 429.875 C 321.585938 429.230469 321.882812 428.59375 322.214844 427.976562 C 322.546875 427.359375 322.90625 426.757812 323.296875 426.175781 C 323.6875 425.589844 324.105469 425.027344 324.550781 424.488281 C 324.996094 423.945312 325.46875 423.425781 325.964844 422.929688 C 326.460938 422.433594 326.984375 421.964844 327.527344 421.519531 C 328.070312 421.074219 328.632812 420.65625 329.214844 420.265625 C 329.800781 419.875 330.402344 419.515625 331.023438 419.1875 C 331.640625 418.855469 332.277344 418.554688 332.925781 418.289062 C 333.574219 418.019531 334.234375 417.78125 334.90625 417.578125 C 335.578125 417.375 336.261719 417.207031 336.949219 417.070312 C 337.636719 416.933594 338.332031 416.828125 339.03125 416.761719 C 339.730469 416.691406 340.429688 416.65625 341.132812 416.65625 C 341.835938 416.65625 342.539062 416.691406 343.238281 416.761719 C 343.9375 416.828125 344.628906 416.933594 345.320312 417.070312 C 346.007812 417.207031 346.6875 417.375 347.359375 417.578125 C 348.035156 417.785156 348.695312 418.019531 349.34375 418.289062 C 349.992188 418.554688 350.625 418.855469 351.246094 419.1875 C 351.867188 419.515625 352.46875 419.878906 353.050781 420.265625 C 353.636719 420.65625 354.199219 421.074219 354.742188 421.519531 C 355.285156 421.964844 355.804688 422.433594 356.300781 422.929688 C 356.800781 423.425781 357.269531 423.945312 357.714844 424.488281 C 358.160156 425.027344 358.578125 425.589844 358.96875 426.175781 C 359.359375 426.757812 359.722656 427.359375 360.050781 427.976562 C 360.382812 428.597656 360.683594 429.230469 360.953125 429.878906 C 361.222656 430.523438 361.457031 431.183594 361.660156 431.855469 C 361.867188 432.527344 362.035156 433.207031 362.171875 433.894531 C 362.308594 434.582031 362.414062 435.273438 362.480469 435.972656 C 362.550781 436.671875 362.585938 437.371094 362.585938 438.074219 C 362.585938 438.773438 362.550781 439.472656 362.480469 440.171875 C 362.410156 440.867188 362.308594 441.5625 362.167969 442.25 C 362.03125 442.9375 361.859375 443.617188 361.65625 444.285156 C 361.453125 444.957031 361.214844 445.617188 360.945312 446.265625 C 360.675781 446.910156 360.375 447.542969 360.046875 448.164062 C 359.714844 448.78125 359.351562 449.382812 358.960938 449.964844 C 358.570312 450.546875 358.152344 451.109375 357.707031 451.652344 C 357.261719 452.195312 356.792969 452.710938 356.296875 453.207031 C 355.796875 453.703125 355.277344 454.175781 354.734375 454.617188 C 354.191406 455.0625 353.628906 455.480469 353.046875 455.871094 C 352.460938 456.261719 351.859375 456.621094 351.242188 456.953125 C 350.621094 457.28125 349.988281 457.582031 349.339844 457.851562 C 348.691406 458.121094 348.03125 458.355469 347.359375 458.558594 C 346.6875 458.765625 346.003906 458.933594 345.316406 459.070312 C 344.628906 459.210938 343.933594 459.3125 343.234375 459.382812 C 342.535156 459.453125 341.835938 459.484375 341.132812 459.488281 Z M 641.398438 483.761719 L 638.359375 483.761719 C 637.5 483.757812 636.648438 483.816406 635.796875 483.945312 C 634.949219 484.070312 634.117188 484.261719 633.296875 484.519531 C 632.476562 484.773438 631.683594 485.09375 630.914062 485.472656 C 630.144531 485.851562 629.40625 486.289062 628.707031 486.78125 C 628.003906 487.277344 627.347656 487.824219 626.730469 488.417969 C 626.113281 489.015625 625.546875 489.65625 625.03125 490.339844 C 624.515625 491.027344 624.054688 491.746094 623.648438 492.503906 C 623.246094 493.257812 622.902344 494.042969 622.621094 494.851562 C 619.929688 502.105469 616.660156 509.089844 612.820312 515.804688 C 612.207031 516.9375 611.515625 518.019531 610.742188 519.050781 C 609.96875 520.078125 609.121094 521.046875 608.207031 521.949219 C 607.289062 522.855469 606.3125 523.6875 605.269531 524.445312 C 604.230469 525.207031 603.140625 525.882812 601.996094 526.480469 C 600.855469 527.078125 599.675781 527.589844 598.460938 528.011719 C 597.242188 528.4375 596 528.765625 594.734375 529.003906 C 593.46875 529.246094 592.191406 529.386719 590.902344 529.4375 C 589.613281 529.488281 588.328125 529.441406 587.046875 529.300781 C 581.515625 528.816406 576.488281 528.292969 571.832031 527.71875 C 572.316406 526.148438 572.800781 524.574219 573.261719 522.996094 C 573.308594 522.855469 573.351562 522.707031 573.390625 522.558594 C 577.363281 508.828125 580.347656 494.886719 582.347656 480.734375 C 584.347656 466.585938 585.339844 452.363281 585.324219 438.070312 C 585.328125 423.695312 584.3125 409.394531 582.28125 395.164062 C 582.28125 394.941406 582.269531 394.71875 582.242188 394.5 C 582.203125 394.183594 582.132812 393.871094 582.039062 393.566406 C 579.773438 378.257812 576.351562 363.214844 571.777344 348.429688 C 576.457031 347.855469 581.5 347.328125 587.066406 346.839844 C 588.347656 346.703125 589.632812 346.65625 590.925781 346.710938 C 592.214844 346.761719 593.492188 346.90625 594.761719 347.148438 C 596.027344 347.390625 597.273438 347.722656 598.492188 348.148438 C 599.710938 348.574219 600.890625 349.085938 602.03125 349.6875 C 603.171875 350.285156 604.265625 350.96875 605.304688 351.730469 C 606.347656 352.492188 607.324219 353.328125 608.242188 354.234375 C 609.160156 355.140625 610.003906 356.113281 610.777344 357.144531 C 611.546875 358.175781 612.238281 359.261719 612.851562 360.394531 C 616.679688 367.09375 619.9375 374.058594 622.621094 381.292969 C 622.902344 382.101562 623.246094 382.886719 623.648438 383.640625 C 624.054688 384.398438 624.515625 385.117188 625.03125 385.804688 C 625.546875 386.488281 626.113281 387.128906 626.730469 387.726562 C 627.347656 388.320312 628.003906 388.867188 628.707031 389.359375 C 629.410156 389.855469 630.144531 390.292969 630.914062 390.671875 C 631.683594 391.050781 632.476562 391.371094 633.296875 391.625 C 634.117188 391.882812 634.949219 392.074219 635.800781 392.199219 C 636.648438 392.328125 637.503906 392.386719 638.363281 392.382812 L 641.402344 392.382812 C 642.671875 392.402344 643.925781 392.273438 645.167969 392 C 646.40625 391.726562 647.597656 391.3125 648.742188 390.757812 C 649.882812 390.203125 650.945312 389.527344 651.929688 388.722656 C 652.914062 387.921875 653.789062 387.015625 654.558594 386.007812 C 655.355469 385.023438 656.03125 383.960938 656.582031 382.824219 C 657.132812 381.683594 657.542969 380.496094 657.820312 379.261719 C 658.097656 378.027344 658.226562 376.777344 658.214844 375.511719 C 658.199219 374.25 658.039062 373.003906 657.738281 371.773438 C 653.859375 354.816406 648.464844 338.347656 641.558594 322.378906 C 635.210938 307.691406 621.246094 298.859375 605.113281 299.324219 C 570.238281 300.601562 480.597656 306.28125 401.65625 331.3125 C 365.753906 342.699219 337.488281 356.558594 317.636719 372.511719 C 294.058594 391.464844 282.101562 413.527344 282.101562 438.074219 C 282.101562 471.660156 304.277344 500.261719 348.019531 523.082031 C 381.042969 540.308594 425.46875 553.933594 480.140625 563.613281 C 475.390625 573.597656 470.09375 583.285156 464.25 592.675781 C 463.246094 594.269531 462.410156 595.949219 461.742188 597.710938 C 461.070312 599.472656 460.578125 601.285156 460.265625 603.144531 C 459.953125 605 459.824219 606.871094 459.882812 608.757812 C 459.9375 610.640625 460.179688 612.5 460.605469 614.335938 C 461.023438 616.175781 461.617188 617.957031 462.390625 619.679688 C 463.160156 621.398438 464.097656 623.027344 465.195312 624.5625 C 466.292969 626.097656 467.53125 627.511719 468.910156 628.796875 C 470.289062 630.085938 471.785156 631.226562 473.394531 632.214844 C 475.492188 633.519531 477.59375 634.816406 479.699219 636.113281 C 481.953125 637.5 484.351562 638.554688 486.898438 639.273438 C 489.445312 639.992188 492.039062 640.351562 494.6875 640.347656 C 496.832031 640.351562 498.949219 640.117188 501.039062 639.648438 C 503.132812 639.179688 505.148438 638.488281 507.085938 637.570312 C 509.023438 636.652344 510.835938 635.535156 512.523438 634.214844 C 514.210938 632.894531 515.730469 631.40625 517.085938 629.746094 C 531.324219 612.296875 543.472656 593.496094 553.527344 573.351562 C 570.25 574.964844 587.574219 576.136719 605.105469 576.824219 C 605.632812 576.84375 606.160156 576.855469 606.683594 576.855469 C 622.085938 576.855469 635.355469 568.121094 641.558594 553.773438 C 648.464844 537.804688 653.855469 521.339844 657.738281 504.382812 C 658.039062 503.15625 658.199219 501.910156 658.214844 500.644531 C 658.226562 499.378906 658.097656 498.125 657.820312 496.890625 C 657.546875 495.65625 657.132812 494.46875 656.582031 493.328125 C 656.03125 492.1875 655.359375 491.125 654.5625 490.140625 C 653.792969 489.132812 652.914062 488.226562 651.929688 487.421875 C 650.949219 486.617188 649.886719 485.941406 648.742188 485.386719 C 647.597656 484.832031 646.40625 484.417969 645.167969 484.144531 C 643.925781 483.871094 642.671875 483.742188 641.398438 483.761719 Z M 293.382812 438.074219 C 293.382812 417.101562 303.925781 397.996094 324.714844 381.285156 C 343.46875 366.210938 370.507812 353.007812 405.070312 342.046875 C 458.921875 324.972656 533.863281 313.203125 605.484375 310.578125 C 606.835938 310.519531 608.183594 310.5625 609.527344 310.710938 C 610.871094 310.855469 612.199219 311.101562 613.503906 311.449219 C 614.8125 311.800781 616.085938 312.242188 617.324219 312.785156 C 618.5625 313.328125 619.753906 313.957031 620.898438 314.679688 C 622.039062 315.402344 623.121094 316.210938 624.140625 317.097656 C 625.160156 317.984375 626.105469 318.941406 626.980469 319.972656 C 627.855469 321.003906 628.644531 322.097656 629.351562 323.25 C 630.058594 324.398438 630.671875 325.597656 631.195312 326.84375 C 637.828125 342.183594 643.011719 358.003906 646.738281 374.292969 C 646.96875 375.109375 647 375.933594 646.820312 376.761719 C 646.644531 377.59375 646.28125 378.332031 645.734375 378.984375 C 645.699219 379.027344 645.664062 379.070312 645.632812 379.113281 C 645.136719 379.78125 644.515625 380.289062 643.765625 380.644531 C 643.015625 381 642.226562 381.15625 641.398438 381.117188 L 638.355469 381.117188 C 637.792969 381.125 637.242188 381.046875 636.703125 380.878906 C 636.160156 380.710938 635.660156 380.464844 635.203125 380.136719 C 634.742188 379.8125 634.34375 379.421875 634.007812 378.96875 C 633.671875 378.515625 633.414062 378.023438 633.234375 377.488281 C 633.226562 377.453125 633.210938 377.417969 633.199219 377.382812 C 630.308594 369.582031 626.796875 362.070312 622.667969 354.847656 C 621.789062 353.246094 620.792969 351.722656 619.691406 350.265625 C 618.585938 348.8125 617.378906 347.445312 616.074219 346.164062 C 614.769531 344.886719 613.378906 343.710938 611.902344 342.632812 C 610.425781 341.558594 608.875 340.59375 607.257812 339.746094 C 605.640625 338.894531 603.96875 338.167969 602.242188 337.5625 C 600.515625 336.957031 598.757812 336.476562 596.960938 336.128906 C 595.167969 335.78125 593.355469 335.5625 591.53125 335.480469 C 589.703125 335.394531 587.878906 335.441406 586.058594 335.625 C 577.640625 336.359375 570.320312 337.1875 563.683594 338.148438 L 563.667969 338.148438 L 563.539062 338.164062 C 563.417969 338.183594 563.300781 338.203125 563.183594 338.230469 L 563.113281 338.242188 C 526.210938 346.03125 505.644531 350.390625 501.800781 351.25 C 501.605469 351.285156 501.40625 351.332031 501.214844 351.386719 L 501.152344 351.402344 C 470.539062 360.511719 444.96875 372.859375 427.21875 387.109375 C 408.105469 402.453125 398.003906 420.074219 398.003906 438.074219 C 398.003906 456.070312 408.105469 473.6875 427.21875 489.035156 C 443.933594 502.453125 467.578125 514.183594 495.847656 523.113281 C 492.75 533.277344 489.113281 543.25 484.925781 553.019531 C 411.355469 540.230469 293.382812 508.695312 293.382812 438.074219 Z M 498.910156 512.269531 C 472.125 503.777344 449.863281 492.757812 434.289062 480.257812 C 417.933594 467.125 409.285156 452.539062 409.285156 438.074219 C 409.285156 423.605469 417.933594 409.019531 434.289062 395.886719 C 449.863281 383.386719 472.125 372.367188 498.863281 363.890625 C 505.289062 388.203125 508.5 412.929688 508.488281 438.074219 C 508.488281 463.214844 505.296875 487.945312 498.910156 512.269531 Z M 508.335938 622.636719 C 507.675781 623.449219 506.945312 624.199219 506.144531 624.878906 C 505.347656 625.5625 504.496094 626.167969 503.589844 626.695312 C 502.683594 627.226562 501.734375 627.671875 500.746094 628.03125 C 499.761719 628.386719 498.75 628.65625 497.714844 628.835938 C 496.679688 629.011719 495.636719 629.09375 494.585938 629.085938 C 493.535156 629.074219 492.492188 628.972656 491.460938 628.773438 C 490.429688 628.578125 489.425781 628.289062 488.445312 627.914062 C 487.464844 627.535156 486.527344 627.074219 485.628906 626.527344 C 483.53125 625.234375 481.4375 623.941406 479.347656 622.644531 C 477.382812 621.433594 475.726562 619.890625 474.382812 618.011719 C 473.039062 616.136719 472.109375 614.070312 471.601562 611.820312 C 471.078125 609.558594 471.011719 607.285156 471.398438 605 C 471.785156 602.710938 472.59375 600.585938 473.828125 598.621094 C 481.140625 586.882812 487.621094 574.703125 493.269531 562.085938 C 493.433594 561.800781 493.566406 561.5 493.675781 561.191406 C 497.96875 551.523438 501.746094 541.660156 505.003906 531.601562 C 508.265625 521.542969 510.988281 511.339844 513.183594 500.996094 C 515.375 490.652344 517.019531 480.222656 518.121094 469.707031 C 519.222656 459.191406 519.773438 448.644531 519.769531 438.074219 C 519.777344 411.964844 516.445312 386.289062 509.777344 361.046875 C 520.132812 358.835938 542.625 354.082031 560.539062 350.300781 C 564.675781 363.414062 567.867188 376.757812 570.117188 390.324219 L 557.84375 391.84375 C 557.476562 391.890625 557.117188 391.96875 556.765625 392.085938 C 556.414062 392.203125 556.078125 392.351562 555.753906 392.535156 C 555.433594 392.71875 555.132812 392.929688 554.851562 393.171875 C 554.570312 393.414062 554.316406 393.679688 554.089844 393.972656 C 553.863281 394.261719 553.664062 394.574219 553.5 394.90625 C 553.332031 395.234375 553.199219 395.578125 553.101562 395.933594 C 553.003906 396.292969 552.941406 396.65625 552.914062 397.023438 C 552.886719 397.390625 552.894531 397.761719 552.941406 398.128906 C 552.988281 398.492188 553.066406 398.851562 553.183594 399.203125 C 553.300781 399.554688 553.449219 399.890625 553.632812 400.214844 C 553.816406 400.535156 554.027344 400.835938 554.269531 401.113281 C 554.511719 401.394531 554.78125 401.648438 555.070312 401.875 C 555.363281 402.101562 555.675781 402.300781 556.007812 402.464844 C 556.339844 402.632812 556.683594 402.765625 557.039062 402.863281 C 557.394531 402.960938 557.757812 403.023438 558.128906 403.050781 C 558.5 403.078125 558.867188 403.066406 559.234375 403.023438 L 571.738281 401.472656 C 573.273438 413.625 574.042969 425.824219 574.042969 438.070312 C 574.042969 444.214844 573.847656 450.34375 573.453125 456.457031 L 561.195312 455.289062 C 560.824219 455.253906 560.457031 455.253906 560.089844 455.292969 C 559.71875 455.328125 559.359375 455.402344 559.003906 455.511719 C 558.652344 455.617188 558.3125 455.761719 557.984375 455.9375 C 557.660156 456.113281 557.351562 456.316406 557.066406 456.550781 C 556.78125 456.789062 556.523438 457.046875 556.289062 457.335938 C 556.054688 457.621094 555.851562 457.929688 555.675781 458.253906 C 555.503906 458.582031 555.363281 458.921875 555.257812 459.273438 C 555.152344 459.628906 555.082031 459.992188 555.046875 460.359375 C 555.011719 460.726562 555.011719 461.09375 555.046875 461.460938 C 555.085938 461.828125 555.160156 462.191406 555.265625 462.542969 C 555.375 462.898438 555.515625 463.234375 555.691406 463.5625 C 555.867188 463.886719 556.074219 464.191406 556.308594 464.476562 C 556.542969 464.761719 556.804688 465.023438 557.09375 465.257812 C 557.378906 465.488281 557.6875 465.695312 558.011719 465.867188 C 558.339844 466.039062 558.679688 466.179688 559.035156 466.285156 C 559.390625 466.394531 559.75 466.464844 560.121094 466.5 L 572.515625 467.683594 C 570.882812 483.550781 567.972656 499.183594 563.785156 514.578125 L 551.230469 511.980469 C 550.867188 511.902344 550.5 511.863281 550.128906 511.863281 C 549.757812 511.859375 549.390625 511.890625 549.027344 511.960938 C 548.664062 512.03125 548.3125 512.132812 547.96875 512.273438 C 547.625 512.410156 547.296875 512.582031 546.988281 512.785156 C 546.679688 512.988281 546.390625 513.21875 546.128906 513.480469 C 545.863281 513.738281 545.628906 514.019531 545.417969 514.328125 C 545.210938 514.632812 545.035156 514.957031 544.890625 515.296875 C 544.746094 515.636719 544.636719 515.988281 544.558594 516.347656 C 544.484375 516.710938 544.445312 517.078125 544.441406 517.449219 C 544.4375 517.816406 544.472656 518.183594 544.542969 518.546875 C 544.609375 518.910156 544.714844 519.261719 544.855469 519.605469 C 544.992188 519.949219 545.164062 520.273438 545.367188 520.585938 C 545.570312 520.894531 545.800781 521.179688 546.0625 521.441406 C 546.320312 521.707031 546.605469 521.941406 546.910156 522.152344 C 547.21875 522.359375 547.542969 522.535156 547.882812 522.679688 C 548.222656 522.824219 548.574219 522.933594 548.9375 523.007812 L 560.613281 525.425781 C 556.003906 540.109375 550.277344 554.339844 543.433594 568.125 L 532.230469 562.585938 C 531.898438 562.414062 531.554688 562.277344 531.195312 562.175781 C 530.835938 562.078125 530.46875 562.011719 530.097656 561.980469 C 529.722656 561.953125 529.351562 561.960938 528.980469 562.007812 C 528.609375 562.050781 528.246094 562.132812 527.894531 562.25 C 527.539062 562.367188 527.199219 562.515625 526.875 562.699219 C 526.546875 562.882812 526.246094 563.097656 525.964844 563.34375 C 525.679688 563.585938 525.425781 563.855469 525.195312 564.152344 C 524.96875 564.445312 524.769531 564.761719 524.605469 565.09375 C 524.4375 565.429688 524.308594 565.777344 524.210938 566.136719 C 524.113281 566.496094 524.054688 566.863281 524.03125 567.234375 C 524.003906 567.605469 524.019531 567.976562 524.066406 568.347656 C 524.117188 568.714844 524.203125 569.078125 524.324219 569.429688 C 524.445312 569.78125 524.601562 570.121094 524.789062 570.441406 C 524.980469 570.765625 525.199219 571.0625 525.445312 571.34375 C 525.695312 571.621094 525.96875 571.871094 526.265625 572.097656 C 526.5625 572.320312 526.882812 572.515625 527.21875 572.675781 L 538.21875 578.121094 C 529.632812 593.878906 519.671875 608.71875 508.335938 622.636719 Z M 646.738281 501.863281 C 643.007812 518.152344 637.828125 533.964844 631.195312 549.304688 C 630.679688 550.550781 630.074219 551.753906 629.375 552.90625 C 628.671875 554.0625 627.886719 555.15625 627.019531 556.191406 C 626.152344 557.226562 625.207031 558.1875 624.191406 559.074219 C 623.175781 559.964844 622.09375 560.769531 620.953125 561.496094 C 619.8125 562.21875 618.621094 562.851562 617.382812 563.390625 C 616.144531 563.933594 614.871094 564.375 613.566406 564.722656 C 612.257812 565.066406 610.933594 565.308594 609.589844 565.453125 C 608.242188 565.59375 606.898438 565.632812 605.546875 565.566406 C 589.648438 564.941406 573.917969 563.914062 558.664062 562.519531 C 561.761719 555.648438 564.605469 548.65625 567.199219 541.546875 C 567.550781 540.574219 567.882812 539.597656 568.226562 538.621094 C 573.632812 539.320312 579.507812 539.949219 586.046875 540.519531 C 587.863281 540.703125 589.683594 540.753906 591.511719 540.671875 C 593.335938 540.589844 595.144531 540.375 596.9375 540.027344 C 598.730469 539.679688 600.488281 539.203125 602.210938 538.601562 C 603.9375 537.996094 605.605469 537.273438 607.222656 536.425781 C 608.839844 535.578125 610.386719 534.617188 611.867188 533.546875 C 613.34375 532.472656 614.734375 531.296875 616.039062 530.023438 C 617.34375 528.746094 618.546875 527.382812 619.652344 525.933594 C 620.757812 524.480469 621.753906 522.957031 622.636719 521.359375 C 626.777344 514.117188 630.300781 506.585938 633.203125 498.765625 C 633.214844 498.730469 633.226562 498.695312 633.238281 498.660156 C 633.417969 498.125 633.675781 497.632812 634.011719 497.179688 C 634.347656 496.726562 634.746094 496.335938 635.203125 496.007812 C 635.664062 495.683594 636.164062 495.433594 636.703125 495.269531 C 637.242188 495.101562 637.796875 495.019531 638.359375 495.03125 L 641.398438 495.03125 C 642.230469 494.992188 643.019531 495.148438 643.769531 495.503906 C 644.519531 495.859375 645.140625 496.367188 645.632812 497.03125 C 645.667969 497.078125 645.703125 497.121094 645.738281 497.164062 C 646.285156 497.816406 646.648438 498.558594 646.824219 499.390625 C 647 500.21875 646.972656 501.046875 646.738281 501.863281 Z M 646.738281 501.863281 " fill-opacity="1" fill-rule="nonzero"/></g></svg>