<svg xmlns="http://www.w3.org/2000/svg" xmlns:xlink="http://www.w3.org/1999/xlink" width="1254" zoomAndPan="magnify" viewBox="0 0 940.5 940.499971" height="1254" preserveAspectRatio="xMidYMid meet" version="1.0"><defs><clipPath id="05b5400cf5"><path d="M 34.664062 187 L 841 187 L 841 605 L 34.664062 605 Z M 34.664062 187 " clip-rule="nonzero"/></clipPath><clipPath id="4820d3788a"><path d="M 765 110 L 905.699219 110 L 905.699219 256 L 765 256 Z M 765 110 " clip-rule="nonzero"/></clipPath></defs><path fill="#000000" d="M 192.792969 940 L 60.929688 940 C 52.550781 940 45.566406 933.21875 45.566406 924.644531 L 45.566406 710.484375 C 45.566406 702.109375 52.351562 695.128906 60.929688 695.128906 L 192.792969 695.128906 C 201.167969 695.128906 208.152344 701.910156 208.152344 710.484375 L 208.152344 924.644531 C 208.152344 933.019531 201.167969 940 192.792969 940 Z M 76.289062 909.292969 L 177.429688 909.292969 L 177.429688 725.839844 L 76.289062 725.839844 Z M 76.289062 909.292969 " fill-opacity="1" fill-rule="nonzero"/><path fill="#000000" d="M 421.605469 940 L 289.742188 940 C 281.363281 940 274.382812 933.21875 274.382812 924.644531 L 274.382812 605.996094 C 274.382812 597.621094 281.164062 590.640625 289.742188 590.640625 L 421.605469 590.640625 C 429.984375 590.640625 436.964844 597.421875 436.964844 605.996094 L 436.964844 924.644531 C 436.964844 933.019531 429.984375 940 421.605469 940 Z M 305.105469 909.292969 L 406.246094 909.292969 L 406.246094 621.347656 L 305.105469 621.347656 Z M 305.105469 909.292969 " fill-opacity="1" fill-rule="nonzero"/><path fill="#000000" d="M 650.417969 940 L 518.558594 940 C 510.179688 940 503.195312 933.21875 503.195312 924.644531 L 503.195312 496.320312 C 503.195312 487.945312 509.980469 480.96875 518.558594 480.96875 L 650.417969 480.96875 C 658.796875 480.96875 665.78125 487.746094 665.78125 496.320312 L 665.78125 924.644531 C 665.78125 933.019531 658.796875 940 650.417969 940 Z M 533.917969 909.292969 L 635.058594 909.292969 L 635.058594 511.675781 L 533.917969 511.675781 Z M 533.917969 909.292969 " fill-opacity="1" fill-rule="nonzero"/><path fill="#000000" d="M 879.234375 940 L 747.371094 940 C 738.992188 940 732.011719 933.21875 732.011719 924.644531 L 732.011719 365.710938 C 732.011719 357.335938 738.792969 350.355469 747.371094 350.355469 L 879.234375 350.355469 C 887.613281 350.355469 894.59375 357.136719 894.59375 365.710938 L 894.59375 924.644531 C 894.59375 933.019531 887.613281 940 879.234375 940 Z M 762.730469 909.292969 L 863.871094 909.292969 L 863.871094 381.066406 L 762.730469 381.066406 Z M 762.730469 909.292969 " fill-opacity="1" fill-rule="nonzero"/><g clip-path="url(#05b5400cf5)"><path fill="#000000" d="M 50.15625 604.398438 C 45.167969 604.398438 40.382812 602.007812 37.390625 597.621094 C 32.601562 590.640625 34.398438 581.070312 41.378906 576.285156 L 298.519531 401.804688 C 303.507812 398.414062 310.089844 398.214844 315.277344 401.605469 L 418.214844 466.210938 L 577.207031 281.164062 C 582.59375 274.980469 591.96875 273.984375 598.351562 279.167969 L 680.941406 344.375 L 813.601562 192.824219 C 819.1875 186.445312 828.761719 185.847656 835.148438 191.429688 C 841.53125 197.011719 842.128906 206.585938 836.542969 212.964844 L 694.109375 375.28125 C 688.722656 381.464844 679.546875 382.261719 673.160156 377.277344 L 590.972656 312.46875 L 432.976562 496.320312 C 427.988281 502.105469 419.609375 503.300781 413.226562 499.3125 L 307.695312 433.109375 L 58.734375 601.808594 C 56.140625 603.601562 53.148438 604.398438 50.15625 604.398438 Z M 50.15625 604.398438 " fill-opacity="1" fill-rule="nonzero"/></g><g clip-path="url(#4820d3788a)"><path fill="#000000" d="M 870.058594 255.636719 C 866.464844 255.636719 863.074219 254.441406 860.28125 252.050781 L 771.109375 177.472656 C 766.921875 173.882812 764.925781 168.5 765.921875 163.113281 C 766.921875 157.730469 770.710938 153.34375 775.699219 151.347656 L 884.820312 111.46875 C 890.007812 109.671875 895.792969 110.671875 899.980469 114.058594 C 904.167969 117.648438 906.164062 123.035156 905.167969 128.417969 L 885.21875 242.875 C 884.222656 248.261719 880.429688 252.648438 875.445312 254.640625 C 873.648438 255.4375 871.851562 255.636719 870.058594 255.636719 Z M 811.007812 171.089844 L 859.484375 211.570312 L 870.457031 149.355469 Z M 811.007812 171.089844 " fill-opacity="1" fill-rule="nonzero"/></g><path fill="#000000" d="M 409.835938 201.199219 C 407.839844 201.199219 405.847656 200.800781 403.851562 200.003906 C 399.460938 198.210938 396.269531 194.421875 394.875 189.835938 L 379.511719 132.605469 C 377.320312 124.429688 382.105469 116.054688 390.285156 113.859375 C 398.464844 111.667969 406.84375 116.453125 409.039062 124.628906 L 419.210938 162.714844 L 537.707031 95.316406 C 545.089844 91.128906 554.464844 93.722656 558.65625 101.097656 C 562.84375 108.476562 560.25 117.847656 552.871094 122.035156 L 417.015625 199.40625 C 415.023438 200.601562 412.429688 201.199219 409.835938 201.199219 Z M 409.835938 201.199219 " fill-opacity="1" fill-rule="nonzero"/><path fill="#000000" d="M 470.082031 294.523438 C 388.890625 294.523438 322.859375 228.519531 322.859375 147.359375 C 322.859375 66.203125 388.890625 0 470.082031 0 C 551.273438 0 617.304688 66.003906 617.304688 147.160156 C 617.304688 228.320312 551.273438 294.523438 470.082031 294.523438 Z M 470.082031 30.707031 C 405.847656 30.707031 353.378906 82.953125 353.378906 147.359375 C 353.378906 211.769531 405.644531 264.011719 470.082031 264.011719 C 534.515625 264.011719 586.78125 211.769531 586.78125 147.359375 C 586.78125 82.953125 534.316406 30.707031 470.082031 30.707031 Z M 470.082031 30.707031 " fill-opacity="1" fill-rule="nonzero"/></svg>