<svg xmlns="http://www.w3.org/2000/svg" xmlns:xlink="http://www.w3.org/1999/xlink" width="1254" zoomAndPan="magnify" viewBox="0 0 940.5 940.499971" height="1254" preserveAspectRatio="xMidYMid meet" version="1.0"><path fill="#000000" d="M 470 0 C 461.085938 0 453.792969 7.292969 453.792969 16.207031 L 453.792969 470 C 453.792969 478.914062 461.085938 486.207031 470 486.207031 L 923.792969 486.207031 C 932.707031 486.207031 940 478.914062 940 470 C 940 210.851562 729.148438 0 470 0 Z M 486.207031 453.792969 L 486.207031 32.738281 C 714.722656 41.164062 898.996094 225.4375 907.261719 453.792969 Z M 486.207031 453.792969 " fill-opacity="1" fill-rule="nonzero"/><path fill="#000000" d="M 919.09375 518.621094 L 502.414062 518.621094 C 495.929688 518.621094 489.933594 522.511719 487.503906 528.667969 C 484.910156 534.664062 486.367188 541.632812 491.070312 546.335938 L 763.019531 818.285156 C 766.101562 821.367188 770.3125 822.984375 774.527344 822.984375 C 778.417969 822.984375 782.308594 821.527344 785.386719 818.773438 C 866.746094 745.03125 919.902344 645.035156 935.300781 537.097656 C 935.949219 532.398438 934.652344 527.695312 931.410156 524.132812 C 928.332031 520.566406 923.957031 518.621094 919.253906 518.621094 Z M 774.691406 784.25 L 541.472656 551.035156 L 899.96875 551.035156 C 883.4375 639.363281 839.515625 721.042969 774.691406 784.25 Z M 774.691406 784.25 " fill-opacity="1" fill-rule="nonzero"/><path fill="#000000" d="M 421.378906 528.183594 L 421.378906 145.863281 C 421.378906 136.949219 414.085938 129.65625 405.171875 129.65625 C 181.679688 129.65625 0 311.335938 0 534.828125 C 0 758.320312 181.679688 940 405.171875 940 C 513.273438 940 614.890625 897.863281 691.710938 821.367188 C 694.789062 818.285156 696.410156 814.234375 696.410156 809.859375 C 696.410156 805.484375 694.628906 801.429688 691.710938 798.351562 L 421.378906 528.019531 Z M 405.171875 907.585938 C 199.667969 907.585938 32.414062 740.332031 32.414062 534.828125 C 32.414062 329.324219 190.917969 170.984375 388.964844 162.394531 L 388.964844 534.828125 C 388.964844 539.203125 390.75 543.253906 393.664062 546.335938 L 657.027344 809.695312 C 587.984375 873.066406 499.171875 907.75 405.171875 907.75 Z M 405.171875 907.585938 " fill-opacity="1" fill-rule="nonzero"/></svg>