<svg xmlns="http://www.w3.org/2000/svg" xmlns:xlink="http://www.w3.org/1999/xlink" width="1254" zoomAndPan="magnify" viewBox="0 0 940.5 940.499971" height="1254" preserveAspectRatio="xMidYMid meet" version="1.0"><defs><clipPath id="cb6ae5f209"><path d="M 283 310.199219 L 657 310.199219 L 657 629.53125 L 283 629.53125 Z M 283 310.199219 " clip-rule="nonzero"/></clipPath></defs><g clip-path="url(#cb6ae5f209)"><path fill="#000000" d="M 645.109375 379.683594 L 645.109375 357.632812 C 645.109375 347.273438 636.695312 338.847656 626.351562 338.847656 L 589.769531 338.847656 C 579.398438 338.847656 570.953125 347.273438 570.953125 357.632812 L 570.953125 371.144531 L 567.605469 371.144531 L 532.222656 312.890625 C 531.097656 311.039062 529.085938 309.910156 526.910156 309.910156 L 436.785156 309.910156 C 434.613281 309.910156 432.597656 311.042969 431.476562 312.890625 L 396.09375 371.144531 L 383.011719 371.144531 L 383.011719 357.632812 C 383.011719 347.273438 374.597656 338.847656 364.253906 338.847656 L 327.609375 338.847656 C 317.269531 338.847656 308.855469 347.273438 308.855469 357.632812 L 308.855469 372.367188 C 294.496094 376.144531 283.824219 389.097656 283.824219 404.605469 L 283.824219 595.75 C 283.824219 614.195312 298.855469 629.207031 317.339844 629.207031 L 622.96875 629.207031 C 641.445312 629.207031 656.480469 614.203125 656.480469 595.75 L 656.480469 404.605469 C 656.480469 394.664062 652.027344 385.824219 645.117188 379.683594 Z M 583.375 357.632812 C 583.375 354.113281 586.242188 351.246094 589.769531 351.246094 L 626.351562 351.246094 C 629.84375 351.246094 632.6875 354.113281 632.6875 357.632812 L 632.6875 372.75 C 629.589844 371.804688 626.371094 371.144531 622.96875 371.144531 L 583.375 371.144531 Z M 327.609375 351.246094 L 364.253906 351.246094 C 367.746094 351.246094 370.589844 354.113281 370.589844 357.632812 L 370.589844 371.144531 L 321.277344 371.144531 L 321.277344 357.632812 C 321.277344 354.113281 324.121094 351.246094 327.609375 351.246094 Z M 644.054688 595.75 C 644.054688 607.355469 634.59375 616.808594 622.960938 616.808594 L 317.339844 616.808594 C 305.710938 616.808594 296.246094 607.363281 296.246094 595.75 L 296.246094 404.605469 C 296.246094 392.992188 305.707031 383.546875 317.339844 383.546875 L 376.777344 383.546875 C 376.777344 383.546875 376.792969 383.546875 376.808594 383.546875 C 376.820312 383.546875 376.824219 383.546875 376.839844 383.546875 L 399.601562 383.546875 C 401.773438 383.546875 403.789062 382.414062 404.910156 380.5625 L 440.292969 322.308594 L 523.425781 322.308594 L 558.808594 380.5625 C 559.933594 382.417969 561.945312 383.546875 564.121094 383.546875 L 577.144531 383.546875 C 577.144531 383.546875 577.164062 383.546875 577.175781 383.546875 C 577.1875 383.546875 577.195312 383.546875 577.207031 383.546875 L 622.980469 383.546875 C 634.605469 383.546875 644.070312 392.992188 644.070312 404.605469 L 644.070312 595.75 Z M 644.054688 595.75 " fill-opacity="1" fill-rule="nonzero"/></g><path fill="#000000" d="M 474.390625 396.628906 C 417.160156 396.628906 370.589844 443.121094 370.589844 500.261719 C 370.589844 557.398438 417.160156 603.890625 474.390625 603.890625 C 531.625 603.890625 578.195312 557.398438 578.195312 500.261719 C 578.195312 443.121094 531.625 396.628906 474.390625 396.628906 Z M 474.390625 591.488281 C 424.003906 591.488281 383.011719 550.558594 383.011719 500.261719 C 383.011719 449.960938 424.003906 409.03125 474.390625 409.03125 C 524.78125 409.03125 565.773438 449.957031 565.773438 500.261719 C 565.773438 550.566406 524.78125 591.488281 474.390625 591.488281 Z M 474.390625 591.488281 " fill-opacity="1" fill-rule="nonzero"/><path fill="#000000" d="M 474.390625 425.65625 C 433.183594 425.65625 399.664062 459.121094 399.664062 500.261719 C 399.664062 541.402344 433.183594 574.867188 474.390625 574.867188 C 515.601562 574.867188 549.121094 541.402344 549.121094 500.261719 C 549.121094 459.121094 515.601562 425.65625 474.390625 425.65625 Z M 474.390625 562.464844 C 440.035156 562.464844 412.085938 534.5625 412.085938 500.261719 C 412.085938 465.957031 440.035156 438.054688 474.390625 438.054688 C 508.75 438.054688 536.699219 465.957031 536.699219 500.261719 C 536.699219 534.5625 508.75 562.464844 474.390625 562.464844 Z M 474.390625 562.464844 " fill-opacity="1" fill-rule="nonzero"/><path fill="#000000" d="M 474.390625 467.429688 C 456.257812 467.429688 441.5 482.15625 441.5 500.261719 C 441.5 518.367188 456.25 533.097656 474.390625 533.097656 C 492.535156 533.097656 507.285156 518.371094 507.285156 500.261719 C 507.285156 482.148438 492.535156 467.429688 474.390625 467.429688 Z M 474.390625 520.699219 C 463.105469 520.699219 453.921875 511.527344 453.921875 500.261719 C 453.921875 488.992188 463.105469 479.828125 474.390625 479.828125 C 485.675781 479.828125 494.863281 489 494.863281 500.261719 C 494.863281 511.519531 485.675781 520.699219 474.390625 520.699219 Z M 474.390625 520.699219 " fill-opacity="1" fill-rule="nonzero"/><path fill="#000000" d="M 453.921875 375.851562 L 506.8125 375.851562 C 517.035156 375.851562 525.347656 367.554688 525.347656 357.347656 C 525.347656 347.144531 517.035156 338.847656 506.8125 338.847656 L 453.921875 338.847656 C 443.699219 338.847656 435.386719 347.144531 435.386719 357.347656 C 435.386719 367.554688 443.699219 375.851562 453.921875 375.851562 Z M 453.921875 351.246094 L 506.8125 351.246094 C 510.179688 351.246094 512.925781 353.980469 512.925781 357.347656 C 512.925781 360.714844 510.183594 363.449219 506.8125 363.449219 L 453.921875 363.449219 C 450.554688 363.449219 447.808594 360.714844 447.808594 357.347656 C 447.808594 353.980469 450.546875 351.246094 453.921875 351.246094 Z M 453.921875 351.246094 " fill-opacity="1" fill-rule="nonzero"/></svg>