<svg xmlns="http://www.w3.org/2000/svg" xmlns:xlink="http://www.w3.org/1999/xlink" width="1254" zoomAndPan="magnify" viewBox="0 0 940.5 940.499971" height="1254" preserveAspectRatio="xMidYMid meet" version="1.0"><defs><clipPath id="01c91e79fe"><path d="M 0 43.277344 L 940 43.277344 L 940 897 L 0 897 Z M 0 43.277344 " clip-rule="nonzero"/></clipPath></defs><g clip-path="url(#01c91e79fe)"><path fill="#000000" d="M 147.71875 308.832031 C 146.382812 308.832031 145.042969 308.867188 143.707031 308.933594 C 142.371094 309 141.035156 309.097656 139.703125 309.226562 C 138.371094 309.359375 137.046875 309.523438 135.722656 309.71875 C 134.398438 309.914062 133.078125 310.144531 131.765625 310.40625 C 130.453125 310.667969 129.148438 310.960938 127.851562 311.285156 C 126.554688 311.609375 125.261719 311.96875 123.984375 312.355469 C 122.703125 312.746094 121.433594 313.164062 120.171875 313.617188 C 118.914062 314.066406 117.664062 314.550781 116.425781 315.0625 C 115.191406 315.574219 113.96875 316.117188 112.757812 316.6875 C 111.550781 317.261719 110.355469 317.863281 109.171875 318.492188 C 107.992188 319.125 106.828125 319.785156 105.683594 320.472656 C 104.535156 321.160156 103.402344 321.878906 102.292969 322.621094 C 101.179688 323.363281 100.085938 324.136719 99.011719 324.933594 C 97.933594 325.730469 96.878906 326.554688 95.847656 327.402344 C 94.8125 328.253906 93.796875 329.128906 92.808594 330.027344 C 91.816406 330.925781 90.847656 331.847656 89.898438 332.792969 C 88.953125 333.742188 88.03125 334.710938 87.132812 335.703125 C 86.234375 336.695312 85.359375 337.707031 84.511719 338.742188 C 83.664062 339.777344 82.839844 340.832031 82.042969 341.910156 C 81.246094 342.984375 80.476562 344.078125 79.730469 345.191406 C 78.988281 346.304688 78.273438 347.433594 77.585938 348.582031 C 76.894531 349.730469 76.238281 350.894531 75.605469 352.078125 C 74.976562 353.257812 74.375 354.453125 73.800781 355.664062 C 73.230469 356.875 72.6875 358.097656 72.175781 359.335938 C 71.664062 360.570312 71.183594 361.820312 70.730469 363.082031 C 70.28125 364.339844 69.859375 365.613281 69.472656 366.894531 C 69.082031 368.175781 68.726562 369.464844 68.402344 370.761719 C 68.078125 372.0625 67.785156 373.367188 67.523438 374.679688 C 67.261719 375.992188 67.03125 377.3125 66.835938 378.636719 C 66.640625 379.960938 66.476562 381.289062 66.34375 382.621094 C 66.214844 383.953125 66.117188 385.289062 66.050781 386.625 C 65.984375 387.960938 65.953125 389.300781 65.953125 390.640625 C 65.953125 391.976562 65.984375 393.316406 66.050781 394.652344 C 66.117188 395.992188 66.214844 397.324219 66.34375 398.65625 C 66.476562 399.988281 66.640625 401.316406 66.835938 402.640625 C 67.03125 403.964844 67.261719 405.285156 67.523438 406.597656 C 67.785156 407.910156 68.078125 409.21875 68.402344 410.515625 C 68.726562 411.816406 69.085938 413.105469 69.472656 414.386719 C 69.859375 415.667969 70.28125 416.9375 70.730469 418.199219 C 71.183594 419.457031 71.664062 420.707031 72.175781 421.945312 C 72.6875 423.179688 73.230469 424.40625 73.800781 425.613281 C 74.375 426.824219 74.976562 428.019531 75.605469 429.199219 C 76.238281 430.382812 76.898438 431.546875 77.585938 432.695312 C 78.273438 433.84375 78.988281 434.972656 79.734375 436.085938 C 80.476562 437.199219 81.246094 438.292969 82.042969 439.371094 C 82.839844 440.445312 83.664062 441.5 84.511719 442.535156 C 85.363281 443.570312 86.234375 444.582031 87.132812 445.574219 C 88.03125 446.566406 88.957031 447.535156 89.902344 448.484375 C 90.847656 449.429688 91.816406 450.351562 92.808594 451.25 C 93.800781 452.152344 94.8125 453.023438 95.847656 453.875 C 96.882812 454.722656 97.9375 455.546875 99.011719 456.34375 C 100.085938 457.140625 101.179688 457.914062 102.292969 458.65625 C 103.40625 459.398438 104.535156 460.117188 105.683594 460.804688 C 106.832031 461.492188 107.996094 462.152344 109.175781 462.78125 C 110.355469 463.414062 111.550781 464.015625 112.761719 464.589844 C 113.96875 465.160156 115.191406 465.703125 116.429688 466.214844 C 117.664062 466.726562 118.914062 467.210938 120.175781 467.660156 C 121.433594 468.113281 122.703125 468.53125 123.984375 468.921875 C 125.265625 469.308594 126.554688 469.664062 127.851562 469.992188 C 129.152344 470.316406 130.457031 470.609375 131.769531 470.871094 C 133.082031 471.132812 134.398438 471.359375 135.722656 471.558594 C 137.046875 471.753906 138.375 471.917969 139.707031 472.046875 C 141.039062 472.179688 142.371094 472.277344 143.707031 472.34375 C 145.046875 472.410156 146.382812 472.441406 147.722656 472.441406 C 149.058594 472.441406 150.398438 472.410156 151.734375 472.34375 C 153.070312 472.277344 154.402344 472.179688 155.734375 472.046875 C 157.066406 471.917969 158.394531 471.753906 159.71875 471.558594 C 161.042969 471.359375 162.359375 471.132812 163.671875 470.871094 C 164.984375 470.609375 166.292969 470.316406 167.589844 469.992188 C 168.886719 469.664062 170.175781 469.308594 171.457031 468.917969 C 172.738281 468.53125 174.007812 468.109375 175.269531 467.660156 C 176.527344 467.210938 177.777344 466.726562 179.011719 466.214844 C 180.25 465.703125 181.472656 465.160156 182.683594 464.589844 C 183.890625 464.015625 185.085938 463.414062 186.265625 462.78125 C 187.445312 462.152344 188.609375 461.492188 189.757812 460.804688 C 190.90625 460.117188 192.039062 459.398438 193.148438 458.65625 C 194.261719 457.910156 195.355469 457.140625 196.429688 456.34375 C 197.507812 455.546875 198.5625 454.722656 199.59375 453.875 C 200.628906 453.023438 201.644531 452.148438 202.632812 451.25 C 203.625 450.351562 204.59375 449.429688 205.539062 448.480469 C 206.488281 447.535156 207.410156 446.566406 208.308594 445.574219 C 209.207031 444.582031 210.082031 443.570312 210.929688 442.535156 C 211.777344 441.5 212.601562 440.445312 213.398438 439.367188 C 214.195312 438.292969 214.964844 437.199219 215.710938 436.085938 C 216.453125 434.972656 217.167969 433.84375 217.855469 432.695312 C 218.546875 431.546875 219.203125 430.378906 219.835938 429.199219 C 220.464844 428.019531 221.066406 426.824219 221.640625 425.613281 C 222.210938 424.402344 222.753906 423.179688 223.265625 421.941406 C 223.777344 420.707031 224.261719 419.457031 224.710938 418.195312 C 225.160156 416.9375 225.582031 415.664062 225.96875 414.382812 C 226.359375 413.101562 226.714844 411.8125 227.039062 410.515625 C 227.363281 409.214844 227.660156 407.910156 227.917969 406.597656 C 228.179688 405.285156 228.410156 403.964844 228.605469 402.640625 C 228.800781 401.316406 228.964844 399.988281 229.097656 398.65625 C 229.226562 397.324219 229.328125 395.988281 229.390625 394.652344 C 229.457031 393.316406 229.492188 391.976562 229.492188 390.636719 C 229.488281 389.300781 229.453125 387.960938 229.386719 386.625 C 229.320312 385.289062 229.222656 383.953125 229.089844 382.621094 C 228.957031 381.289062 228.792969 379.964844 228.59375 378.640625 C 228.394531 377.316406 228.167969 375.996094 227.90625 374.683594 C 227.640625 373.371094 227.347656 372.066406 227.023438 370.769531 C 226.695312 369.472656 226.339844 368.183594 225.949219 366.902344 C 225.558594 365.621094 225.140625 364.351562 224.6875 363.089844 C 224.238281 361.832031 223.753906 360.582031 223.242188 359.347656 C 222.730469 358.109375 222.1875 356.886719 221.613281 355.675781 C 221.042969 354.46875 220.441406 353.273438 219.808594 352.09375 C 219.175781 350.914062 218.519531 349.75 217.828125 348.601562 C 217.140625 347.453125 216.425781 346.324219 215.683594 345.210938 C 214.9375 344.097656 214.167969 343.003906 213.371094 341.929688 C 212.574219 340.855469 211.75 339.800781 210.902344 338.765625 C 210.054688 337.730469 209.179688 336.71875 208.28125 335.726562 C 207.382812 334.734375 206.460938 333.765625 205.515625 332.820312 C 204.566406 331.875 203.597656 330.949219 202.609375 330.050781 C 201.617188 329.152344 200.605469 328.277344 199.570312 327.429688 C 198.535156 326.582031 197.480469 325.757812 196.40625 324.960938 C 195.332031 324.160156 194.238281 323.390625 193.128906 322.648438 C 192.015625 321.902344 190.886719 321.1875 189.738281 320.5 C 188.589844 319.808594 187.425781 319.152344 186.246094 318.519531 C 185.070312 317.886719 183.875 317.285156 182.664062 316.710938 C 181.457031 316.140625 180.234375 315.597656 178.996094 315.085938 C 177.761719 314.570312 176.515625 314.089844 175.253906 313.636719 C 173.996094 313.1875 172.726562 312.765625 171.445312 312.375 C 170.167969 311.988281 168.878906 311.628906 167.578125 311.300781 C 166.28125 310.976562 164.976562 310.683594 163.664062 310.421875 C 162.355469 310.15625 161.035156 309.929688 159.714844 309.730469 C 158.390625 309.53125 157.0625 309.367188 155.730469 309.234375 C 154.398438 309.101562 153.066406 309.003906 151.730469 308.9375 C 150.394531 308.871094 149.058594 308.835938 147.71875 308.832031 Z M 147.71875 444.246094 C 145.964844 444.246094 144.214844 444.160156 142.46875 443.988281 C 140.71875 443.816406 138.988281 443.558594 137.265625 443.214844 C 135.542969 442.871094 133.84375 442.445312 132.164062 441.9375 C 130.484375 441.425781 128.835938 440.835938 127.214844 440.164062 C 125.59375 439.492188 124.007812 438.742188 122.460938 437.914062 C 120.914062 437.085938 119.410156 436.1875 117.949219 435.210938 C 116.492188 434.234375 115.082031 433.191406 113.726562 432.078125 C 112.371094 430.960938 111.070312 429.785156 109.828125 428.542969 C 108.589844 427.300781 107.410156 426.003906 106.296875 424.644531 C 105.183594 423.289062 104.140625 421.878906 103.167969 420.417969 C 102.191406 418.960938 101.289062 417.457031 100.464844 415.90625 C 99.636719 414.359375 98.886719 412.773438 98.214844 411.152344 C 97.542969 409.53125 96.953125 407.878906 96.441406 406.199219 C 95.933594 404.519531 95.507812 402.816406 95.164062 401.09375 C 94.824219 399.375 94.566406 397.636719 94.394531 395.890625 C 94.222656 394.144531 94.136719 392.390625 94.136719 390.636719 C 94.136719 388.882812 94.222656 387.128906 94.394531 385.382812 C 94.566406 383.636719 94.824219 381.902344 95.167969 380.179688 C 95.507812 378.457031 95.933594 376.753906 96.445312 375.074219 C 96.953125 373.394531 97.542969 371.746094 98.214844 370.121094 C 98.886719 368.5 99.636719 366.914062 100.464844 365.367188 C 101.292969 363.820312 102.191406 362.316406 103.167969 360.855469 C 104.140625 359.394531 105.1875 357.988281 106.300781 356.628906 C 107.414062 355.273438 108.589844 353.972656 109.832031 352.730469 C 111.070312 351.488281 112.371094 350.3125 113.726562 349.199219 C 115.085938 348.085938 116.492188 347.039062 117.953125 346.066406 C 119.410156 345.089844 120.914062 344.1875 122.460938 343.359375 C 124.007812 342.53125 125.59375 341.78125 127.214844 341.109375 C 128.835938 340.4375 130.488281 339.847656 132.167969 339.339844 C 133.847656 338.828125 135.546875 338.402344 137.265625 338.0625 C 138.988281 337.71875 140.722656 337.460938 142.46875 337.289062 C 144.214844 337.117188 145.964844 337.03125 147.722656 337.03125 C 149.476562 337.03125 151.226562 337.117188 152.972656 337.289062 C 154.71875 337.460938 156.453125 337.71875 158.175781 338.0625 C 159.894531 338.402344 161.597656 338.828125 163.277344 339.339844 C 164.957031 339.847656 166.605469 340.4375 168.226562 341.109375 C 169.847656 341.785156 171.433594 342.53125 172.980469 343.359375 C 174.527344 344.1875 176.03125 345.089844 177.492188 346.066406 C 178.949219 347.039062 180.359375 348.085938 181.714844 349.199219 C 183.070312 350.3125 184.371094 351.492188 185.613281 352.730469 C 186.851562 353.972656 188.03125 355.273438 189.144531 356.628906 C 190.257812 357.988281 191.300781 359.394531 192.273438 360.855469 C 193.25 362.316406 194.152344 363.820312 194.980469 365.367188 C 195.804688 366.917969 196.554688 368.5 197.226562 370.125 C 197.898438 371.746094 198.488281 373.398438 199 375.078125 C 199.507812 376.757812 199.933594 378.457031 200.277344 380.179688 C 200.617188 381.902344 200.875 383.636719 201.046875 385.382812 C 201.21875 387.132812 201.304688 388.882812 201.304688 390.636719 C 201.304688 392.394531 201.214844 394.144531 201.042969 395.890625 C 200.867188 397.636719 200.609375 399.371094 200.265625 401.09375 C 199.921875 402.8125 199.496094 404.515625 198.984375 406.191406 C 198.472656 407.871094 197.882812 409.523438 197.210938 411.144531 C 196.539062 412.765625 195.789062 414.347656 194.960938 415.898438 C 194.132812 417.445312 193.230469 418.949219 192.257812 420.40625 C 191.28125 421.867188 190.238281 423.273438 189.125 424.628906 C 188.011719 425.988281 186.832031 427.285156 185.59375 428.527344 C 184.351562 429.769531 183.054688 430.945312 181.699219 432.058594 C 180.34375 433.171875 178.933594 434.21875 177.476562 435.195312 C 176.015625 436.167969 174.515625 437.070312 172.96875 437.898438 C 171.421875 438.726562 169.835938 439.476562 168.214844 440.148438 C 166.597656 440.820312 164.945312 441.414062 163.269531 441.925781 C 161.589844 442.433594 159.890625 442.863281 158.167969 443.207031 C 156.449219 443.550781 154.714844 443.808594 152.96875 443.980469 C 151.222656 444.15625 149.472656 444.242188 147.71875 444.246094 Z M 897.777344 505.015625 L 890.183594 505.015625 C 888.039062 505 885.90625 505.152344 883.785156 505.46875 C 881.664062 505.785156 879.582031 506.261719 877.535156 506.90625 C 875.488281 507.546875 873.503906 508.34375 871.582031 509.292969 C 869.660156 510.246094 867.820312 511.339844 866.070312 512.574219 C 864.316406 513.8125 862.671875 515.179688 861.132812 516.671875 C 859.59375 518.164062 858.175781 519.769531 856.886719 521.484375 C 855.597656 523.195312 854.449219 525 853.4375 526.894531 C 852.429688 528.789062 851.574219 530.746094 850.871094 532.773438 C 844.144531 550.929688 835.980469 568.414062 826.382812 585.230469 C 825.617188 586.644531 824.804688 588.03125 823.9375 589.382812 C 823.070312 590.738281 822.15625 592.058594 821.191406 593.347656 C 820.230469 594.632812 819.21875 595.882812 818.160156 597.097656 C 817.105469 598.308594 816.003906 599.480469 814.863281 600.609375 C 813.71875 601.742188 812.535156 602.828125 811.308594 603.871094 C 810.085938 604.914062 808.824219 605.910156 807.527344 606.859375 C 806.230469 607.808594 804.898438 608.707031 803.535156 609.558594 C 802.167969 610.40625 800.777344 611.207031 799.351562 611.953125 C 797.929688 612.699219 796.480469 613.394531 795.003906 614.035156 C 793.527344 614.671875 792.03125 615.257812 790.515625 615.785156 C 788.996094 616.316406 787.460938 616.785156 785.90625 617.203125 C 784.351562 617.617188 782.785156 617.972656 781.207031 618.269531 C 779.628906 618.570312 778.039062 618.808594 776.441406 618.988281 C 774.84375 619.171875 773.242188 619.292969 771.636719 619.355469 C 770.027344 619.414062 768.421875 619.417969 766.816406 619.359375 C 765.207031 619.304688 763.605469 619.1875 762.007812 619.011719 C 748.1875 617.796875 735.632812 616.488281 723.996094 615.054688 C 725.210938 611.121094 726.414062 607.179688 727.566406 603.230469 C 727.6875 602.871094 727.792969 602.503906 727.886719 602.128906 C 737.8125 567.761719 745.273438 532.863281 750.265625 497.4375 C 755.261719 462.011719 757.738281 426.410156 757.703125 390.636719 C 757.707031 354.652344 755.175781 318.847656 750.101562 283.226562 C 750.101562 282.667969 750.070312 282.113281 750.003906 281.5625 C 749.902344 280.769531 749.730469 279.988281 749.496094 279.222656 C 743.832031 240.90625 735.289062 203.246094 723.863281 166.234375 C 735.550781 164.792969 748.152344 163.476562 762.050781 162.257812 C 763.652344 162.082031 765.253906 161.96875 766.863281 161.914062 C 768.472656 161.859375 770.082031 161.863281 771.691406 161.929688 C 773.300781 161.992188 774.902344 162.117188 776.503906 162.300781 C 778.101562 162.484375 779.695312 162.726562 781.273438 163.027344 C 782.855469 163.328125 784.425781 163.6875 785.980469 164.105469 C 787.535156 164.523438 789.074219 165 790.59375 165.53125 C 792.113281 166.0625 793.609375 166.648438 795.085938 167.292969 C 796.5625 167.933594 798.011719 168.632812 799.4375 169.382812 C 800.863281 170.132812 802.257812 170.933594 803.621094 171.789062 C 804.988281 172.644531 806.320312 173.546875 807.617188 174.5 C 808.914062 175.453125 810.175781 176.453125 811.398438 177.496094 C 812.625 178.542969 813.808594 179.632812 814.949219 180.769531 C 816.09375 181.902344 817.195312 183.078125 818.25 184.292969 C 819.304688 185.507812 820.316406 186.761719 821.28125 188.050781 C 822.242188 189.34375 823.15625 190.667969 824.023438 192.027344 C 824.886719 193.382812 825.699219 194.773438 826.464844 196.191406 C 836.027344 212.960938 844.164062 230.398438 850.871094 248.5 C 851.574219 250.527344 852.429688 252.488281 853.4375 254.378906 C 854.449219 256.273438 855.597656 258.078125 856.886719 259.792969 C 858.179688 261.507812 859.59375 263.109375 861.132812 264.605469 C 862.671875 266.097656 864.320312 267.460938 866.070312 268.699219 C 867.824219 269.9375 869.660156 271.03125 871.582031 271.980469 C 873.507812 272.933594 875.492188 273.730469 877.539062 274.371094 C 879.585938 275.011719 881.667969 275.492188 883.789062 275.808594 C 885.910156 276.125 888.042969 276.273438 890.1875 276.257812 L 897.78125 276.257812 C 899.363281 276.285156 900.941406 276.21875 902.511719 276.058594 C 904.085938 275.898438 905.644531 275.648438 907.1875 275.304688 C 908.730469 274.964844 910.25 274.53125 911.742188 274.011719 C 913.238281 273.492188 914.695312 272.886719 916.117188 272.195312 C 917.539062 271.507812 918.917969 270.734375 920.25 269.882812 C 921.582031 269.03125 922.859375 268.105469 924.082031 267.101562 C 925.308594 266.101562 926.46875 265.03125 927.566406 263.894531 C 928.664062 262.757812 929.695312 261.558594 930.652344 260.300781 C 931.644531 259.074219 932.5625 257.792969 933.40625 256.460938 C 934.25 255.128906 935.015625 253.753906 935.699219 252.332031 C 936.386719 250.910156 936.988281 249.453125 937.503906 247.964844 C 938.023438 246.472656 938.453125 244.957031 938.796875 243.417969 C 939.140625 241.878906 939.390625 240.324219 939.554688 238.753906 C 939.71875 237.1875 939.792969 235.613281 939.777344 234.035156 C 939.757812 232.457031 939.652344 230.886719 939.453125 229.320312 C 939.253906 227.753906 938.96875 226.207031 938.589844 224.675781 C 928.898438 182.21875 915.425781 141 898.175781 101.019531 C 882.316406 64.253906 847.429688 42.148438 807.140625 43.308594 C 720.019531 46.503906 496.101562 60.726562 298.90625 123.386719 C 209.222656 151.890625 138.613281 186.589844 89.027344 226.523438 C 30.128906 273.96875 0.253906 329.195312 0.253906 390.636719 C 0.253906 474.71875 55.65625 546.316406 164.921875 603.441406 C 247.410156 646.570312 358.390625 680.671875 494.953125 704.90625 C 483.09375 729.902344 469.863281 754.152344 455.261719 777.652344 C 452.757812 781.652344 450.667969 785.855469 448.992188 790.265625 C 447.316406 794.675781 446.089844 799.207031 445.308594 803.859375 C 444.527344 808.511719 444.207031 813.195312 444.351562 817.910156 C 444.496094 822.628906 445.097656 827.285156 446.15625 831.878906 C 447.199219 836.484375 448.683594 840.945312 450.613281 845.253906 C 452.542969 849.5625 454.878906 853.636719 457.621094 857.480469 C 460.363281 861.324219 463.457031 864.855469 466.90625 868.082031 C 470.351562 871.304688 474.085938 874.160156 478.101562 876.636719 C 483.34375 879.898438 488.59375 883.148438 493.855469 886.390625 C 499.480469 889.867188 505.472656 892.503906 511.835938 894.304688 C 518.195312 896.109375 524.679688 897.003906 531.289062 896.996094 C 533.960938 897 536.621094 896.855469 539.277344 896.5625 C 541.929688 896.269531 544.558594 895.832031 547.164062 895.246094 C 549.769531 894.660156 552.335938 893.933594 554.859375 893.0625 C 557.382812 892.195312 559.851562 891.1875 562.265625 890.042969 C 564.675781 888.898438 567.019531 887.625 569.289062 886.21875 C 571.558594 884.816406 573.746094 883.289062 575.847656 881.640625 C 577.949219 879.992188 579.953125 878.234375 581.859375 876.363281 C 583.765625 874.496094 585.5625 872.523438 587.25 870.453125 C 622.816406 826.769531 653.15625 779.710938 678.273438 729.28125 C 720.046875 733.316406 763.320312 736.25 807.113281 737.976562 C 808.433594 738.027344 809.746094 738.054688 811.058594 738.054688 C 849.535156 738.054688 882.683594 716.1875 898.175781 680.273438 C 915.425781 640.296875 928.894531 599.085938 938.585938 556.636719 C 938.964844 555.105469 939.253906 553.554688 939.453125 551.988281 C 939.652344 550.421875 939.761719 548.847656 939.777344 547.269531 C 939.796875 545.691406 939.722656 544.117188 939.558594 542.546875 C 939.398438 540.976562 939.144531 539.421875 938.800781 537.878906 C 938.457031 536.335938 938.027344 534.820312 937.511719 533.328125 C 936.992188 531.835938 936.390625 530.378906 935.707031 528.957031 C 935.019531 527.535156 934.253906 526.15625 933.410156 524.824219 C 932.566406 523.488281 931.648438 522.207031 930.65625 520.980469 C 929.699219 519.722656 928.667969 518.523438 927.570312 517.386719 C 926.472656 516.246094 925.308594 515.175781 924.085938 514.175781 C 922.863281 513.171875 921.582031 512.246094 920.25 511.394531 C 918.917969 510.542969 917.542969 509.769531 916.117188 509.078125 C 914.695312 508.386719 913.238281 507.78125 911.742188 507.261719 C 910.25 506.742188 908.730469 506.3125 907.1875 505.96875 C 905.644531 505.628906 904.082031 505.375 902.511719 505.21875 C 900.9375 505.058594 899.359375 504.988281 897.777344 505.015625 Z M 28.441406 390.636719 C 28.441406 338.140625 54.773438 290.316406 106.703125 248.484375 C 153.554688 210.75 221.089844 177.699219 307.4375 150.261719 C 441.949219 107.511719 629.148438 78.054688 808.058594 71.484375 C 809.746094 71.410156 811.429688 71.402344 813.117188 71.457031 C 814.800781 71.511719 816.484375 71.628906 818.160156 71.8125 C 819.839844 71.996094 821.507812 72.242188 823.164062 72.550781 C 824.824219 72.859375 826.46875 73.234375 828.097656 73.667969 C 829.726562 74.101562 831.339844 74.597656 832.929688 75.15625 C 834.523438 75.714844 836.09375 76.332031 837.636719 77.007812 C 839.183594 77.683594 840.699219 78.417969 842.191406 79.210938 C 843.679688 80.003906 845.136719 80.851562 846.5625 81.753906 C 847.988281 82.65625 849.375 83.613281 850.730469 84.621094 C 852.082031 85.632812 853.394531 86.691406 854.664062 87.800781 C 855.9375 88.910156 857.164062 90.0625 858.347656 91.265625 C 859.53125 92.46875 860.667969 93.714844 861.757812 95.003906 C 862.847656 96.292969 863.886719 97.621094 864.875 98.988281 C 865.863281 100.355469 866.796875 101.761719 867.679688 103.199219 C 868.558594 104.636719 869.386719 106.109375 870.15625 107.609375 C 870.925781 109.113281 871.636719 110.640625 872.289062 112.199219 C 888.859375 150.605469 901.800781 190.199219 911.109375 230.980469 C 911.398438 231.988281 911.558594 233.011719 911.59375 234.058594 C 911.628906 235.105469 911.539062 236.140625 911.320312 237.164062 C 911.101562 238.1875 910.761719 239.167969 910.304688 240.109375 C 909.84375 241.050781 909.28125 241.921875 908.605469 242.722656 C 908.519531 242.828125 908.433594 242.9375 908.347656 243.050781 C 907.742188 243.867188 907.042969 244.601562 906.253906 245.25 C 905.464844 245.898438 904.609375 246.441406 903.6875 246.878906 C 902.761719 247.3125 901.800781 247.632812 900.800781 247.832031 C 899.800781 248.035156 898.789062 248.109375 897.769531 248.0625 L 890.179688 248.0625 C 889.476562 248.074219 888.78125 248.027344 888.085938 247.929688 C 887.390625 247.828125 886.710938 247.675781 886.042969 247.464844 C 885.371094 247.257812 884.722656 247 884.09375 246.6875 C 883.464844 246.378906 882.867188 246.019531 882.292969 245.613281 C 881.722656 245.207031 881.1875 244.757812 880.6875 244.265625 C 880.1875 243.777344 879.726562 243.25 879.3125 242.683594 C 878.894531 242.121094 878.523438 241.527344 878.203125 240.90625 C 877.878906 240.28125 877.605469 239.640625 877.386719 238.972656 C 877.355469 238.886719 877.324219 238.800781 877.292969 238.714844 C 870.066406 219.191406 861.300781 200.386719 850.988281 182.300781 C 849.890625 180.300781 848.71875 178.34375 847.476562 176.429688 C 846.234375 174.515625 844.925781 172.652344 843.546875 170.832031 C 842.167969 169.015625 840.726562 167.25 839.21875 165.535156 C 837.710938 163.824219 836.144531 162.167969 834.515625 160.566406 C 832.890625 158.96875 831.207031 157.433594 829.464844 155.957031 C 827.726562 154.480469 825.933594 153.070312 824.089844 151.726562 C 822.25 150.382812 820.359375 149.105469 818.421875 147.898438 C 816.488281 146.691406 814.511719 145.558594 812.492188 144.496094 C 810.472656 143.433594 808.417969 142.445312 806.328125 141.535156 C 804.238281 140.621094 802.117188 139.785156 799.964844 139.03125 C 797.8125 138.273438 795.636719 137.59375 793.433594 136.996094 C 791.234375 136.398438 789.011719 135.878906 786.773438 135.445312 C 784.535156 135.007812 782.285156 134.652344 780.019531 134.382812 C 777.753906 134.109375 775.484375 133.921875 773.203125 133.816406 C 770.925781 133.710938 768.644531 133.6875 766.367188 133.75 C 764.085938 133.808594 761.8125 133.953125 759.542969 134.179688 C 738.511719 136.023438 720.226562 138.089844 703.648438 140.496094 L 703.605469 140.496094 L 703.277344 140.542969 C 702.984375 140.585938 702.6875 140.636719 702.394531 140.699219 L 702.273438 140.726562 L 702.222656 140.738281 C 610.035156 160.226562 558.667969 171.144531 549.066406 173.300781 C 548.570312 173.386719 548.082031 173.496094 547.597656 173.632812 L 547.523438 173.660156 L 547.445312 173.679688 C 470.972656 196.480469 407.097656 227.390625 362.757812 263.066406 C 315.015625 301.476562 289.777344 345.585938 289.777344 390.636719 C 289.777344 435.6875 315.015625 479.796875 362.757812 518.210938 C 404.511719 551.804688 463.578125 581.167969 534.1875 603.515625 C 526.457031 628.96875 517.363281 653.925781 506.914062 678.382812 C 323.128906 646.371094 28.441406 567.433594 28.441406 390.636719 Z M 541.847656 576.371094 C 474.929688 555.113281 419.324219 527.535156 380.421875 496.238281 C 339.5625 463.363281 317.964844 426.847656 317.964844 390.636719 C 317.964844 354.429688 339.5625 317.910156 380.421875 285.039062 C 419.324219 253.738281 474.933594 226.164062 541.722656 204.941406 C 549.714844 235.242188 555.722656 265.933594 559.75 297.011719 C 563.773438 328.089844 565.78125 359.300781 565.773438 390.636719 C 565.773438 421.976562 563.769531 453.191406 559.765625 484.273438 C 555.761719 515.355469 549.789062 546.054688 541.847656 576.371094 Z M 565.390625 852.65625 C 564.5625 853.671875 563.695312 854.648438 562.78125 855.585938 C 561.867188 856.523438 560.910156 857.421875 559.917969 858.273438 C 558.921875 859.125 557.890625 859.929688 556.824219 860.691406 C 555.757812 861.449219 554.660156 862.160156 553.527344 862.820312 C 552.398438 863.484375 551.242188 864.09375 550.054688 864.648438 C 548.871094 865.207031 547.664062 865.707031 546.433594 866.15625 C 545.203125 866.605469 543.953125 867 542.6875 867.335938 C 541.421875 867.671875 540.144531 867.949219 538.855469 868.171875 C 537.5625 868.394531 536.265625 868.554688 534.960938 868.660156 C 533.65625 868.765625 532.347656 868.8125 531.039062 868.800781 C 529.730469 868.789062 528.421875 868.714844 527.121094 868.585938 C 525.816406 868.457031 524.523438 868.269531 523.234375 868.023438 C 521.949219 867.777344 520.675781 867.472656 519.417969 867.113281 C 518.160156 866.753906 516.917969 866.335938 515.699219 865.863281 C 514.476562 865.394531 513.277344 864.867188 512.105469 864.289062 C 510.929688 863.707031 509.785156 863.078125 508.664062 862.394531 C 503.429688 859.164062 498.199219 855.925781 492.976562 852.679688 C 490.542969 851.179688 488.285156 849.453125 486.195312 847.5 C 484.105469 845.546875 482.230469 843.410156 480.570312 841.082031 C 478.90625 838.753906 477.492188 836.285156 476.324219 833.675781 C 475.15625 831.066406 474.253906 828.367188 473.625 825.578125 C 472.980469 822.777344 472.613281 819.941406 472.527344 817.066406 C 472.445312 814.195312 472.640625 811.339844 473.117188 808.507812 C 473.59375 805.671875 474.34375 802.910156 475.367188 800.222656 C 476.386719 797.539062 477.664062 794.976562 479.191406 792.542969 C 497.453125 763.15625 513.640625 732.671875 527.753906 701.078125 C 528.160156 700.363281 528.496094 699.617188 528.769531 698.839844 C 539.492188 674.640625 548.921875 649.953125 557.066406 624.769531 C 565.207031 599.585938 572.015625 574.046875 577.492188 548.152344 C 582.96875 522.257812 587.082031 496.148438 589.832031 469.824219 C 592.582031 443.5 593.953125 417.105469 593.949219 390.636719 C 593.960938 358.097656 591.875 325.691406 587.699219 293.421875 C 583.519531 261.148438 577.28125 229.28125 568.988281 197.816406 C 594.855469 192.285156 651.039062 180.382812 695.789062 170.917969 C 706.121094 203.75 714.097656 237.148438 719.714844 271.109375 L 689.058594 274.914062 C 688.140625 275.027344 687.242188 275.230469 686.363281 275.523438 C 685.484375 275.8125 684.644531 276.1875 683.839844 276.644531 C 683.035156 277.101562 682.28125 277.632812 681.582031 278.238281 C 680.882812 278.84375 680.246094 279.511719 679.679688 280.242188 C 679.109375 280.972656 678.617188 281.75 678.203125 282.578125 C 677.785156 283.40625 677.457031 284.265625 677.210938 285.15625 C 676.964844 286.050781 676.808594 286.957031 676.738281 287.878906 C 676.671875 288.804688 676.695312 289.722656 676.808594 290.644531 C 676.925781 291.5625 677.125 292.460938 677.417969 293.339844 C 677.707031 294.21875 678.082031 295.058594 678.539062 295.863281 C 678.996094 296.671875 679.527344 297.421875 680.132812 298.125 C 680.738281 298.824219 681.402344 299.457031 682.132812 300.027344 C 682.863281 300.597656 683.640625 301.089844 684.46875 301.503906 C 685.296875 301.921875 686.15625 302.25 687.046875 302.496094 C 687.941406 302.742188 688.847656 302.898438 689.769531 302.96875 C 690.691406 303.035156 691.613281 303.011719 692.53125 302.898438 L 723.769531 299.019531 C 727.601562 329.4375 729.519531 359.972656 729.523438 390.628906 C 729.523438 406.011719 729.03125 421.355469 728.050781 436.664062 L 697.425781 433.730469 C 696.503906 433.644531 695.582031 433.648438 694.664062 433.742188 C 693.742188 433.835938 692.839844 434.019531 691.957031 434.289062 C 691.074219 434.5625 690.222656 434.917969 689.410156 435.355469 C 688.59375 435.796875 687.832031 436.308594 687.117188 436.898438 C 686.40625 437.488281 685.757812 438.140625 685.171875 438.859375 C 684.589844 439.574219 684.078125 440.34375 683.644531 441.160156 C 683.210938 441.976562 682.863281 442.828125 682.597656 443.714844 C 682.332031 444.601562 682.152344 445.503906 682.066406 446.425781 C 681.976562 447.347656 681.980469 448.269531 682.074219 449.1875 C 682.167969 450.109375 682.347656 451.011719 682.621094 451.898438 C 682.890625 452.78125 683.246094 453.632812 683.683594 454.445312 C 684.121094 455.261719 684.636719 456.023438 685.222656 456.738281 C 685.8125 457.453125 686.464844 458.101562 687.179688 458.6875 C 687.898438 459.273438 688.664062 459.78125 689.480469 460.214844 C 690.296875 460.652344 691.148438 461 692.035156 461.269531 C 692.917969 461.535156 693.824219 461.710938 694.742188 461.800781 L 725.707031 464.761719 C 721.628906 504.488281 714.359375 543.617188 703.894531 582.15625 L 672.535156 575.648438 C 671.628906 575.460938 670.714844 575.363281 669.789062 575.355469 C 668.863281 575.347656 667.945312 575.429688 667.035156 575.601562 C 666.128906 575.777344 665.246094 576.035156 664.386719 576.382812 C 663.527344 576.730469 662.714844 577.160156 661.9375 577.667969 C 661.164062 578.175781 660.449219 578.753906 659.789062 579.402344 C 659.128906 580.050781 658.539062 580.757812 658.019531 581.523438 C 657.5 582.289062 657.058594 583.097656 656.695312 583.949219 C 656.335938 584.804688 656.0625 585.683594 655.875 586.589844 C 655.6875 587.496094 655.585938 588.410156 655.582031 589.335938 C 655.574219 590.261719 655.65625 591.179688 655.828125 592.089844 C 656 593 656.261719 593.882812 656.609375 594.742188 C 656.957031 595.601562 657.382812 596.414062 657.890625 597.191406 C 658.398438 597.964844 658.976562 598.679688 659.625 599.339844 C 660.273438 600 660.980469 600.589844 661.746094 601.113281 C 662.511719 601.632812 663.320312 602.074219 664.171875 602.433594 C 665.023438 602.796875 665.902344 603.070312 666.808594 603.257812 L 695.976562 609.3125 C 684.464844 646.066406 670.160156 681.695312 653.054688 716.199219 L 625.078125 702.328125 C 624.246094 701.90625 623.382812 701.566406 622.484375 701.3125 C 621.585938 701.058594 620.671875 700.894531 619.742188 700.820312 C 618.8125 700.75 617.886719 700.769531 616.957031 700.882812 C 616.03125 700.992188 615.125 701.195312 614.238281 701.488281 C 613.355469 701.78125 612.503906 702.15625 611.695312 702.617188 C 610.882812 703.078125 610.125 703.617188 609.417969 704.226562 C 608.714844 704.839844 608.078125 705.515625 607.507812 706.25 C 606.933594 706.992188 606.441406 707.777344 606.027344 708.613281 C 605.613281 709.449219 605.285156 710.320312 605.042969 711.21875 C 604.800781 712.121094 604.648438 713.039062 604.589844 713.96875 C 604.53125 714.902344 604.5625 715.828125 604.6875 716.753906 C 604.808594 717.679688 605.023438 718.582031 605.328125 719.464844 C 605.632812 720.347656 606.019531 721.191406 606.492188 722 C 606.960938 722.804688 607.507812 723.554688 608.128906 724.253906 C 608.75 724.949219 609.429688 725.578125 610.175781 726.140625 C 610.921875 726.703125 611.714844 727.183594 612.554688 727.589844 L 640.035156 741.222656 C 618.589844 780.671875 593.707031 817.8125 565.390625 852.65625 Z M 911.113281 550.324219 C 901.800781 591.097656 888.859375 630.683594 872.289062 669.085938 C 871.648438 670.644531 870.945312 672.175781 870.1875 673.683594 C 869.425781 675.1875 868.609375 676.664062 867.734375 678.105469 C 866.863281 679.546875 865.9375 680.957031 864.953125 682.328125 C 863.972656 683.699219 862.941406 685.03125 861.855469 686.324219 C 860.773438 687.617188 859.640625 688.863281 858.460938 690.070312 C 857.285156 691.277344 856.058594 692.433594 854.792969 693.546875 C 853.523438 694.65625 852.214844 695.71875 850.863281 696.730469 C 849.515625 697.738281 848.128906 698.695312 846.703125 699.601562 C 845.28125 700.507812 843.824219 701.355469 842.335938 702.148438 C 840.847656 702.9375 839.332031 703.671875 837.789062 704.347656 C 836.242188 705.023438 834.671875 705.640625 833.082031 706.195312 C 831.488281 706.753906 829.878906 707.246094 828.25 707.675781 C 826.617188 708.109375 824.976562 708.476562 823.316406 708.78125 C 821.660156 709.089844 819.992188 709.328125 818.3125 709.507812 C 816.636719 709.683594 814.957031 709.796875 813.269531 709.84375 C 811.585938 709.894531 809.902344 709.875 808.214844 709.792969 C 768.5 708.230469 729.210938 705.660156 691.109375 702.167969 C 698.839844 684.964844 705.945312 667.464844 712.425781 649.667969 C 713.308594 647.226562 714.136719 644.78125 714.992188 642.339844 C 728.5 644.09375 743.175781 645.664062 759.507812 647.097656 C 761.773438 647.328125 764.046875 647.472656 766.324219 647.535156 C 768.601562 647.597656 770.878906 647.578125 773.152344 647.472656 C 775.429688 647.371094 777.699219 647.183594 779.960938 646.914062 C 782.222656 646.644531 784.472656 646.292969 786.710938 645.859375 C 788.945312 645.425781 791.164062 644.914062 793.363281 644.316406 C 795.5625 643.722656 797.738281 643.046875 799.886719 642.292969 C 802.039062 641.539062 804.15625 640.707031 806.246094 639.796875 C 808.335938 638.886719 810.390625 637.90625 812.40625 636.847656 C 814.425781 635.785156 816.402344 634.65625 818.335938 633.453125 C 820.269531 632.25 822.160156 630.976562 824 629.636719 C 825.84375 628.296875 827.636719 626.890625 829.375 625.417969 C 831.113281 623.945312 832.796875 622.414062 834.425781 620.816406 C 836.054688 619.222656 837.621094 617.570312 839.128906 615.863281 C 840.636719 614.152344 842.078125 612.390625 843.457031 610.578125 C 844.835938 608.761719 846.148438 606.898438 847.390625 604.988281 C 848.632812 603.078125 849.804688 601.125 850.90625 599.128906 C 861.253906 581 870.050781 562.144531 877.300781 542.566406 C 877.332031 542.480469 877.363281 542.394531 877.394531 542.308594 C 877.613281 541.644531 877.886719 541 878.210938 540.375 C 878.53125 539.753906 878.902344 539.160156 879.320312 538.597656 C 879.734375 538.035156 880.195312 537.507812 880.695312 537.015625 C 881.195312 536.523438 881.730469 536.074219 882.304688 535.671875 C 882.875 535.265625 883.472656 534.90625 884.101562 534.59375 C 884.730469 534.285156 885.378906 534.023438 886.050781 533.816406 C 886.71875 533.609375 887.398438 533.453125 888.09375 533.355469 C 888.785156 533.253906 889.484375 533.207031 890.183594 533.21875 L 897.777344 533.21875 C 898.796875 533.171875 899.808594 533.246094 900.808594 533.449219 C 901.808594 533.648438 902.769531 533.96875 903.691406 534.40625 C 904.617188 534.839844 905.472656 535.382812 906.261719 536.03125 C 907.050781 536.679688 907.75 537.414062 908.355469 538.234375 C 908.441406 538.34375 908.527344 538.453125 908.613281 538.5625 C 909.289062 539.363281 909.851562 540.238281 910.3125 541.179688 C 910.769531 542.121094 911.109375 543.105469 911.328125 544.132812 C 911.546875 545.15625 911.636719 546.191406 911.597656 547.242188 C 911.5625 548.289062 911.398438 549.316406 911.113281 550.324219 Z M 911.113281 550.324219 " fill-opacity="1" fill-rule="nonzero"/></g></svg>