<svg xmlns="http://www.w3.org/2000/svg" xmlns:xlink="http://www.w3.org/1999/xlink" width="1254" zoomAndPan="magnify" viewBox="0 0 940.5 940.499971" height="1254" preserveAspectRatio="xMidYMid meet" version="1.0"><defs><clipPath id="86e40402c7"><path d="M 4 70.5 L 936 70.5 L 936 869 L 4 869 Z M 4 70.5 " clip-rule="nonzero"/></clipPath></defs><g clip-path="url(#86e40402c7)"><path fill="#000000" d="M 907.042969 244.371094 L 907.042969 189.199219 C 907.042969 163.269531 886.019531 142.183594 860.1875 142.183594 L 768.808594 142.183594 C 742.898438 142.183594 721.800781 163.269531 721.800781 189.199219 L 721.800781 223.007812 L 713.4375 223.007812 L 625.050781 77.234375 C 622.242188 72.59375 617.214844 69.769531 611.785156 69.769531 L 386.65625 69.769531 C 381.226562 69.769531 376.199219 72.609375 373.390625 77.234375 L 285.007812 223.007812 L 252.332031 223.007812 L 252.332031 189.199219 C 252.332031 163.269531 231.3125 142.183594 205.480469 142.183594 L 113.945312 142.183594 C 88.113281 142.183594 67.089844 163.269531 67.089844 189.199219 L 67.089844 226.0625 C 31.222656 235.511719 4.566406 267.925781 4.566406 306.730469 L 4.566406 785.042969 C 4.566406 831.203125 42.113281 868.769531 88.28125 868.769531 L 851.734375 868.769531 C 897.886719 868.769531 935.449219 831.21875 935.449219 785.042969 L 935.449219 306.730469 C 935.449219 281.859375 924.324219 259.734375 907.058594 244.371094 Z M 752.828125 189.199219 C 752.828125 180.382812 759.996094 173.214844 768.808594 173.214844 L 860.1875 173.214844 C 868.90625 173.214844 876.011719 180.382812 876.011719 189.199219 L 876.011719 227.027344 C 868.269531 224.652344 860.234375 223.007812 851.734375 223.007812 L 752.828125 223.007812 Z M 113.945312 173.214844 L 205.480469 173.214844 C 214.199219 173.214844 221.304688 180.382812 221.304688 189.199219 L 221.304688 223.007812 L 98.121094 223.007812 L 98.121094 189.199219 C 98.121094 180.382812 105.226562 173.214844 113.945312 173.214844 Z M 904.402344 785.042969 C 904.402344 814.089844 880.777344 837.738281 851.71875 837.738281 L 88.28125 837.738281 C 59.238281 837.738281 35.597656 814.105469 35.597656 785.042969 L 35.597656 306.730469 C 35.597656 277.671875 59.222656 254.039062 88.28125 254.039062 L 236.757812 254.039062 C 236.757812 254.039062 236.800781 254.039062 236.832031 254.039062 C 236.863281 254.039062 236.878906 254.039062 236.910156 254.039062 L 293.773438 254.039062 C 299.203125 254.039062 304.226562 251.199219 307.035156 246.574219 L 395.421875 100.804688 L 603.082031 100.804688 L 691.46875 246.574219 C 694.277344 251.214844 699.304688 254.039062 704.734375 254.039062 L 737.265625 254.039062 C 737.265625 254.039062 737.3125 254.039062 737.34375 254.039062 C 737.375 254.039062 737.390625 254.039062 737.421875 254.039062 L 851.761719 254.039062 C 880.808594 254.039062 904.449219 277.671875 904.449219 306.730469 L 904.449219 785.042969 Z M 904.402344 785.042969 " fill-opacity="1" fill-rule="nonzero"/></g><path fill="#000000" d="M 480.597656 286.777344 C 337.632812 286.777344 221.304688 403.117188 221.304688 546.097656 C 221.304688 689.078125 337.632812 805.417969 480.597656 805.417969 C 623.5625 805.417969 739.890625 689.078125 739.890625 546.097656 C 739.890625 403.117188 623.5625 286.777344 480.597656 286.777344 Z M 480.597656 774.382812 C 354.726562 774.382812 252.332031 671.964844 252.332031 546.097656 C 252.332031 420.230469 354.726562 317.808594 480.597656 317.808594 C 606.464844 317.808594 708.859375 420.214844 708.859375 546.097656 C 708.859375 671.980469 606.464844 774.382812 480.597656 774.382812 Z M 480.597656 774.382812 " fill-opacity="1" fill-rule="nonzero"/><path fill="#000000" d="M 480.597656 359.410156 C 377.65625 359.410156 293.925781 443.148438 293.925781 546.097656 C 293.925781 649.046875 377.65625 732.785156 480.597656 732.785156 C 583.535156 732.785156 667.265625 649.046875 667.265625 546.097656 C 667.265625 443.148438 583.535156 359.410156 480.597656 359.410156 Z M 480.597656 701.753906 C 394.769531 701.753906 324.957031 631.933594 324.957031 546.097656 C 324.957031 460.261719 394.769531 390.441406 480.597656 390.441406 C 566.421875 390.441406 636.238281 460.261719 636.238281 546.097656 C 636.238281 631.933594 566.421875 701.753906 480.597656 701.753906 Z M 480.597656 701.753906 " fill-opacity="1" fill-rule="nonzero"/><path fill="#000000" d="M 480.597656 463.941406 C 435.292969 463.941406 398.433594 500.789062 398.433594 546.097656 C 398.433594 591.402344 435.277344 628.269531 480.597656 628.269531 C 525.914062 628.269531 562.761719 591.417969 562.761719 546.097656 C 562.761719 500.773438 525.914062 463.941406 480.597656 463.941406 Z M 480.597656 597.238281 C 452.40625 597.238281 429.460938 574.289062 429.460938 546.097656 C 429.460938 517.90625 452.40625 494.972656 480.597656 494.972656 C 508.785156 494.972656 531.730469 517.921875 531.730469 546.097656 C 531.730469 574.273438 508.785156 597.238281 480.597656 597.238281 Z M 480.597656 597.238281 " fill-opacity="1" fill-rule="nonzero"/><path fill="#000000" d="M 429.460938 234.785156 L 561.582031 234.785156 C 587.117188 234.785156 607.875 214.023438 607.875 188.484375 C 607.875 162.945312 587.117188 142.183594 561.582031 142.183594 L 429.460938 142.183594 C 403.925781 142.183594 383.164062 162.945312 383.164062 188.484375 C 383.164062 214.023438 403.925781 234.785156 429.460938 234.785156 Z M 429.460938 173.214844 L 561.582031 173.214844 C 569.992188 173.214844 576.847656 180.058594 576.847656 188.484375 C 576.847656 196.910156 570.007812 203.75 561.582031 203.75 L 429.460938 203.75 C 421.050781 203.75 414.195312 196.910156 414.195312 188.484375 C 414.195312 180.058594 421.035156 173.214844 429.460938 173.214844 Z M 429.460938 173.214844 " fill-opacity="1" fill-rule="nonzero"/></svg>