<svg xmlns="http://www.w3.org/2000/svg" xmlns:xlink="http://www.w3.org/1999/xlink" width="1254" zoomAndPan="magnify" viewBox="0 0 940.5 940.499971" height="1254" preserveAspectRatio="xMidYMid meet" version="1.0"><defs><clipPath id="6e88773fb2"><path d="M 283.410156 282 L 656.710938 282 L 656.710938 658.300781 L 283.410156 658.300781 Z M 283.410156 282 " clip-rule="nonzero"/></clipPath></defs><g clip-path="url(#6e88773fb2)"><path fill="#000000" d="M 576.753906 288.972656 C 569.109375 282.804688 566.160156 281.351562 563.015625 282.207031 C 561.039062 282.75 559.949219 283.046875 520.835938 321.800781 C 500.058594 342.390625 471.304688 371.15625 435.378906 407.304688 C 429.273438 413.445312 423.152344 419.609375 417.003906 425.804688 C 416.96875 425.832031 416.933594 425.859375 416.902344 425.890625 C 416.792969 425.996094 416.695312 426.101562 416.597656 426.210938 C 359.394531 483.847656 303.171875 540.839844 287.515625 556.753906 L 287.511719 556.757812 C 286.910156 557.367188 286.371094 558.03125 285.894531 558.75 C 285.417969 559.464844 285.015625 560.21875 284.679688 561.011719 C 284.347656 561.800781 284.09375 562.621094 283.917969 563.460938 C 283.742188 564.300781 283.644531 565.152344 283.632812 566.011719 C 283.617188 566.871094 283.683594 567.722656 283.832031 568.570312 C 283.980469 569.417969 284.207031 570.242188 284.511719 571.046875 C 284.816406 571.847656 285.195312 572.617188 285.648438 573.347656 C 286.101562 574.078125 286.617188 574.761719 287.199219 575.390625 C 296.945312 585.996094 315.890625 606.460938 333.273438 624.367188 C 343.15625 634.546875 351.152344 642.46875 357.035156 647.910156 C 364.746094 655.042969 368.929688 658.28125 372.34375 658.28125 C 373.429688 658.269531 374.425781 657.972656 375.339844 657.390625 C 379.125 655.117188 462.761719 573.5625 517.296875 519.6875 C 555.972656 481.480469 588.695312 448.722656 611.929688 424.960938 C 656.203125 379.683594 656.324219 377.355469 656.480469 374.414062 C 656.625 371.695312 656.890625 366.640625 624.683594 333.785156 C 607.714844 316.472656 588.003906 298.046875 576.753906 288.972656 Z M 508.097656 513.789062 C 444.359375 576.734375 384.246094 634.972656 371.6875 646.542969 C 363.804688 640.585938 338.335938 615.285156 295.042969 568.175781 C 294.796875 567.90625 294.605469 567.597656 294.476562 567.257812 C 294.347656 566.914062 294.285156 566.558594 294.289062 566.191406 C 294.296875 565.824219 294.371094 565.472656 294.511719 565.132812 C 294.652344 564.796875 294.855469 564.496094 295.109375 564.234375 C 300.296875 558.960938 306.859375 552.296875 314.492188 544.5625 L 326.902344 557.566406 C 327.140625 557.820312 327.40625 558.046875 327.691406 558.25 C 327.980469 558.449219 328.28125 558.621094 328.601562 558.761719 C 328.921875 558.902344 329.253906 559.011719 329.59375 559.085938 C 329.933594 559.164062 330.28125 559.203125 330.628906 559.210938 C 330.980469 559.222656 331.328125 559.195312 331.671875 559.132812 C 332.015625 559.074219 332.351562 558.980469 332.675781 558.855469 C 333.003906 558.726562 333.3125 558.570312 333.609375 558.382812 C 333.902344 558.195312 334.179688 557.980469 334.429688 557.738281 C 334.683594 557.496094 334.910156 557.234375 335.113281 556.949219 C 335.3125 556.660156 335.484375 556.359375 335.625 556.039062 C 335.765625 555.71875 335.875 555.386719 335.953125 555.046875 C 336.027344 554.703125 336.070312 554.359375 336.078125 554.007812 C 336.085938 553.660156 336.0625 553.3125 336 552.96875 C 335.941406 552.621094 335.847656 552.289062 335.722656 551.960938 C 335.597656 551.636719 335.441406 551.324219 335.253906 551.027344 C 335.066406 550.734375 334.851562 550.457031 334.609375 550.207031 L 321.980469 536.96875 C 327.640625 531.234375 333.753906 525.042969 340.230469 518.484375 L 369.53125 549.191406 C 369.769531 549.441406 370.035156 549.667969 370.320312 549.871094 C 370.609375 550.070312 370.910156 550.242188 371.230469 550.382812 C 371.550781 550.523438 371.882812 550.632812 372.222656 550.707031 C 372.5625 550.785156 372.910156 550.824219 373.257812 550.835938 C 373.609375 550.84375 373.957031 550.816406 374.300781 550.753906 C 374.644531 550.695312 374.980469 550.601562 375.304688 550.476562 C 375.632812 550.347656 375.941406 550.191406 376.238281 550.003906 C 376.53125 549.816406 376.804688 549.601562 377.058594 549.359375 C 377.3125 549.117188 377.539062 548.855469 377.738281 548.570312 C 377.941406 548.28125 378.113281 547.980469 378.253906 547.660156 C 378.394531 547.339844 378.503906 547.007812 378.578125 546.667969 C 378.65625 546.328125 378.699219 545.980469 378.707031 545.632812 C 378.714844 545.28125 378.6875 544.933594 378.628906 544.589844 C 378.570312 544.246094 378.476562 543.910156 378.351562 543.582031 C 378.226562 543.257812 378.066406 542.945312 377.882812 542.652344 C 377.695312 542.355469 377.480469 542.082031 377.238281 541.828125 L 347.726562 510.898438 C 354.046875 504.5 360.65625 497.820312 367.472656 490.929688 L 380.1875 504.257812 C 380.429688 504.507812 380.691406 504.738281 380.980469 504.9375 C 381.265625 505.140625 381.570312 505.3125 381.886719 505.453125 C 382.207031 505.59375 382.539062 505.703125 382.878906 505.777344 C 383.222656 505.855469 383.566406 505.898438 383.917969 505.90625 C 384.265625 505.914062 384.613281 505.886719 384.960938 505.828125 C 385.304688 505.765625 385.640625 505.671875 385.964844 505.546875 C 386.292969 505.421875 386.601562 505.261719 386.898438 505.074219 C 387.195312 504.886719 387.46875 504.671875 387.722656 504.433594 C 387.972656 504.191406 388.199219 503.925781 388.402344 503.640625 C 388.601562 503.351562 388.773438 503.050781 388.914062 502.730469 C 389.058594 502.410156 389.167969 502.078125 389.242188 501.738281 C 389.320312 501.394531 389.359375 501.050781 389.367188 500.699219 C 389.375 500.347656 389.351562 500 389.289062 499.65625 C 389.230469 499.3125 389.136719 498.976562 389.011719 498.648438 C 388.882812 498.324219 388.726562 498.011719 388.539062 497.71875 C 388.351562 497.421875 388.136719 497.148438 387.894531 496.894531 L 374.972656 483.351562 C 381.320312 476.9375 387.792969 470.402344 394.398438 463.734375 L 424.339844 495.117188 C 424.582031 495.371094 424.84375 495.597656 425.128906 495.796875 C 425.417969 496 425.71875 496.167969 426.039062 496.308594 C 426.359375 496.453125 426.691406 496.558594 427.03125 496.636719 C 427.375 496.710938 427.71875 496.753906 428.066406 496.761719 C 428.417969 496.769531 428.765625 496.742188 429.109375 496.683594 C 429.453125 496.621094 429.789062 496.527344 430.113281 496.402344 C 430.441406 496.277344 430.75 496.117188 431.046875 495.929688 C 431.339844 495.742188 431.613281 495.53125 431.867188 495.289062 C 432.121094 495.046875 432.347656 494.78125 432.546875 494.496094 C 432.75 494.210938 432.921875 493.90625 433.0625 493.585938 C 433.203125 493.265625 433.3125 492.9375 433.390625 492.59375 C 433.464844 492.253906 433.507812 491.910156 433.515625 491.558594 C 433.523438 491.210938 433.5 490.863281 433.4375 490.515625 C 433.378906 490.171875 433.285156 489.835938 433.160156 489.511719 C 433.035156 489.183594 432.875 488.875 432.691406 488.578125 C 432.503906 488.28125 432.289062 488.007812 432.046875 487.753906 L 401.902344 456.160156 C 408.066406 449.945312 414.269531 443.691406 420.511719 437.398438 L 432.710938 450.183594 C 432.953125 450.4375 433.21875 450.664062 433.503906 450.863281 C 433.789062 451.066406 434.09375 451.238281 434.414062 451.378906 C 434.734375 451.519531 435.0625 451.628906 435.40625 451.703125 C 435.746094 451.78125 436.09375 451.824219 436.441406 451.832031 C 436.792969 451.839844 437.140625 451.8125 437.484375 451.753906 C 437.828125 451.691406 438.164062 451.597656 438.488281 451.472656 C 438.816406 451.34375 439.125 451.1875 439.421875 451 C 439.71875 450.8125 439.992188 450.597656 440.246094 450.355469 C 440.496094 450.117188 440.722656 449.851562 440.925781 449.566406 C 441.125 449.277344 441.296875 448.976562 441.4375 448.65625 C 441.582031 448.335938 441.6875 448.003906 441.765625 447.664062 C 441.839844 447.320312 441.882812 446.976562 441.890625 446.625 C 441.898438 446.277344 441.875 445.929688 441.8125 445.585938 C 441.753906 445.238281 441.660156 444.902344 441.535156 444.578125 C 441.410156 444.25 441.25 443.941406 441.0625 443.644531 C 440.875 443.347656 440.664062 443.074219 440.421875 442.820312 L 428.027344 429.832031 C 434.542969 423.265625 441.035156 416.730469 447.5 410.230469 L 477.625 441.804688 C 477.867188 442.058594 478.128906 442.285156 478.417969 442.488281 C 478.703125 442.6875 479.007812 442.859375 479.328125 443 C 479.644531 443.140625 479.976562 443.25 480.320312 443.328125 C 480.660156 443.402344 481.003906 443.445312 481.355469 443.453125 C 481.703125 443.460938 482.050781 443.4375 482.398438 443.375 C 482.742188 443.316406 483.078125 443.222656 483.402344 443.09375 C 483.730469 442.96875 484.039062 442.8125 484.335938 442.625 C 484.628906 442.4375 484.90625 442.222656 485.15625 441.980469 C 485.410156 441.738281 485.636719 441.472656 485.839844 441.1875 C 486.039062 440.902344 486.210938 440.597656 486.351562 440.277344 C 486.492188 439.957031 486.601562 439.628906 486.679688 439.285156 C 486.753906 438.945312 486.796875 438.597656 486.804688 438.25 C 486.8125 437.898438 486.789062 437.550781 486.726562 437.207031 C 486.667969 436.863281 486.574219 436.527344 486.449219 436.199219 C 486.320312 435.875 486.164062 435.5625 485.976562 435.265625 C 485.789062 434.972656 485.574219 434.699219 485.332031 434.445312 L 455.019531 402.671875 C 461.085938 396.574219 467.058594 390.578125 472.941406 384.675781 L 486.757812 399.15625 C 487 399.410156 487.265625 399.636719 487.550781 399.839844 C 487.839844 400.039062 488.140625 400.210938 488.460938 400.351562 C 488.78125 400.492188 489.113281 400.601562 489.453125 400.679688 C 489.792969 400.753906 490.140625 400.796875 490.488281 400.804688 C 490.839844 400.8125 491.1875 400.785156 491.53125 400.726562 C 491.875 400.667969 492.210938 400.574219 492.539062 400.445312 C 492.863281 400.320312 493.175781 400.164062 493.46875 399.976562 C 493.765625 399.789062 494.039062 399.574219 494.292969 399.332031 C 494.546875 399.089844 494.773438 398.824219 494.972656 398.539062 C 495.175781 398.253906 495.347656 397.949219 495.488281 397.628906 C 495.628906 397.308594 495.738281 396.980469 495.8125 396.636719 C 495.890625 396.296875 495.933594 395.949219 495.941406 395.601562 C 495.949219 395.25 495.921875 394.902344 495.863281 394.558594 C 495.800781 394.214844 495.707031 393.878906 495.582031 393.550781 C 495.457031 393.226562 495.300781 392.914062 495.113281 392.617188 C 494.925781 392.324219 494.710938 392.046875 494.46875 391.796875 L 480.472656 377.125 C 488.011719 369.570312 495.304688 362.269531 502.25 355.335938 L 532.433594 386.972656 C 532.675781 387.226562 532.9375 387.453125 533.226562 387.652344 C 533.511719 387.855469 533.816406 388.027344 534.136719 388.167969 C 534.457031 388.308594 534.785156 388.417969 535.128906 388.492188 C 535.46875 388.570312 535.8125 388.613281 536.164062 388.621094 C 536.515625 388.628906 536.859375 388.601562 537.207031 388.542969 C 537.550781 388.480469 537.886719 388.386719 538.210938 388.261719 C 538.539062 388.132812 538.847656 387.976562 539.144531 387.789062 C 539.4375 387.601562 539.714844 387.386719 539.964844 387.144531 C 540.21875 386.90625 540.445312 386.640625 540.648438 386.355469 C 540.847656 386.066406 541.019531 385.765625 541.160156 385.445312 C 541.300781 385.125 541.410156 384.792969 541.488281 384.453125 C 541.5625 384.109375 541.605469 383.765625 541.613281 383.414062 C 541.621094 383.066406 541.597656 382.71875 541.535156 382.371094 C 541.476562 382.027344 541.382812 381.691406 541.257812 381.367188 C 541.128906 381.039062 540.972656 380.726562 540.785156 380.433594 C 540.597656 380.136719 540.382812 379.863281 540.144531 379.609375 L 509.796875 347.804688 C 518.566406 339.0625 526.660156 331.019531 533.84375 323.914062 L 547.679688 338.253906 C 547.921875 338.503906 548.1875 338.730469 548.476562 338.929688 C 548.761719 339.128906 549.066406 339.296875 549.386719 339.4375 C 549.707031 339.578125 550.039062 339.683594 550.382812 339.757812 C 550.722656 339.832031 551.070312 339.871094 551.417969 339.878906 C 551.769531 339.882812 552.117188 339.855469 552.460938 339.792969 C 552.804688 339.730469 553.136719 339.636719 553.464844 339.507812 C 553.789062 339.378906 554.097656 339.21875 554.394531 339.03125 C 554.6875 338.84375 554.960938 338.625 555.210938 338.382812 C 555.464844 338.140625 555.6875 337.875 555.886719 337.585938 C 556.085938 337.300781 556.257812 336.996094 556.398438 336.675781 C 556.535156 336.351562 556.644531 336.023438 556.71875 335.679688 C 556.792969 335.339844 556.832031 334.992188 556.839844 334.640625 C 556.84375 334.292969 556.816406 333.945312 556.753906 333.601562 C 556.691406 333.257812 556.597656 332.921875 556.46875 332.597656 C 556.339844 332.269531 556.183594 331.960938 555.992188 331.664062 C 555.804688 331.371094 555.589844 331.097656 555.347656 330.847656 L 541.429688 316.425781 C 552.992188 305.046875 561.367188 296.957031 565.195312 293.539062 C 571.160156 297.589844 587.261719 311.714844 606.960938 331.117188 C 631.273438 355.066406 642.714844 368.90625 645.363281 373.566406 C 641.128906 379.246094 619.003906 404.265625 508.097656 513.789062 Z M 508.097656 513.789062 " fill-opacity="1" fill-rule="nonzero"/></g></svg>