<svg xmlns="http://www.w3.org/2000/svg" xmlns:xlink="http://www.w3.org/1999/xlink" width="1254" zoomAndPan="magnify" viewBox="0 0 940.5 940.499971" height="1254" preserveAspectRatio="xMidYMid meet" version="1.0"><defs><clipPath id="4561c97d50"><path d="M 0 31.136719 L 940 31.136719 L 940 908.921875 L 0 908.921875 Z M 0 31.136719 " clip-rule="nonzero"/></clipPath></defs><g clip-path="url(#4561c97d50)"><path fill="#000000" d="M 804.058594 908.390625 L 135.941406 908.390625 C 81.425781 908.390625 36.652344 865.703125 34.101562 811.417969 L 0.230469 138.847656 C -1.160156 110.546875 8.816406 83.867188 28.300781 63.449219 C 47.789062 43.035156 74.003906 31.664062 102.304688 31.664062 L 837.925781 31.664062 C 866.230469 31.664062 892.445312 43.035156 911.929688 63.449219 C 931.417969 83.867188 941.390625 110.777344 940 138.847656 L 906.363281 811.417969 C 903.347656 865.9375 858.574219 908.390625 804.058594 908.390625 Z M 102.304688 59.738281 C 81.890625 59.738281 62.636719 67.859375 48.484375 82.707031 C 34.332031 97.554688 27.140625 117.042969 28.070312 137.457031 L 61.707031 810.023438 C 63.796875 849.464844 96.273438 880.550781 135.710938 880.550781 L 803.824219 880.550781 C 843.496094 880.550781 875.972656 849.695312 877.828125 810.023438 L 911.464844 137.457031 C 912.394531 117.042969 905.203125 97.554688 891.050781 82.707031 C 876.902344 67.859375 857.878906 59.738281 837.230469 59.738281 Z M 102.304688 59.738281 " fill-opacity="1" fill-rule="nonzero"/></g><path fill="#000000" d="M 470 436.042969 C 443.089844 436.042969 421.050781 414 421.050781 387.089844 C 421.050781 360.175781 443.089844 338.136719 470 338.136719 C 496.910156 338.136719 518.949219 360.175781 518.949219 387.089844 C 518.949219 414 496.910156 436.042969 470 436.042969 Z M 470 365.976562 C 458.402344 365.976562 448.890625 375.488281 448.890625 387.089844 C 448.890625 398.6875 458.402344 408.203125 470 408.203125 C 481.597656 408.203125 491.109375 398.6875 491.109375 387.089844 C 491.109375 375.488281 481.597656 365.976562 470 365.976562 Z M 470 365.976562 " fill-opacity="1" fill-rule="nonzero"/><path fill="#000000" d="M 494.125 375.722656 C 487.632812 375.722656 481.832031 371.082031 480.4375 364.585938 L 456.3125 242.785156 C 454.921875 235.363281 459.792969 227.9375 467.214844 226.3125 C 474.871094 224.921875 482.0625 229.792969 483.6875 237.21875 L 507.8125 359.015625 C 509.207031 366.441406 504.332031 373.863281 496.910156 375.488281 C 495.980469 375.488281 495.054688 375.722656 494.125 375.722656 Z M 494.125 375.722656 " fill-opacity="1" fill-rule="nonzero"/><path fill="#000000" d="M 694.792969 401.007812 L 505.03125 401.007812 C 497.375 401.007812 491.109375 394.746094 491.109375 387.089844 C 491.109375 379.433594 497.375 373.167969 505.03125 373.167969 L 694.792969 373.167969 C 701.753906 373.167969 708.246094 370.152344 712.65625 364.816406 C 717.0625 359.480469 719.152344 352.519531 717.992188 345.792969 C 699.433594 231.648438 604.320312 150.914062 483.917969 145.113281 L 483.917969 183.855469 C 483.917969 191.511719 477.65625 197.777344 470 197.777344 C 462.34375 197.777344 456.082031 191.511719 456.082031 183.855469 L 456.082031 130.730469 C 456.082031 123.074219 462.34375 116.808594 470 116.808594 C 537.277344 116.808594 601.535156 138.847656 651.179688 178.753906 C 701.519531 219.351562 734.925781 277.121094 745.367188 341.386719 C 747.683594 356.234375 743.507812 371.546875 733.765625 382.914062 C 724.023438 394.511719 709.871094 401.007812 694.792969 401.007812 Z M 694.792969 401.007812 " fill-opacity="1" fill-rule="nonzero"/><path fill="#000000" d="M 579.03125 224.921875 C 577.175781 224.921875 575.089844 224.457031 573.234375 223.761719 C 566.273438 220.511719 563.027344 212.394531 566.273438 205.433594 L 584.367188 165.296875 C 587.617188 158.335938 595.734375 155.089844 602.695312 158.335938 C 609.65625 161.585938 612.902344 169.707031 609.65625 176.664062 L 591.558594 216.800781 C 589.238281 221.671875 584.367188 224.921875 579.03125 224.921875 Z M 579.03125 224.921875 " fill-opacity="1" fill-rule="nonzero"/><path fill="#000000" d="M 656.980469 297.769531 C 652.570312 297.769531 648.394531 295.679688 645.613281 291.96875 C 641.203125 285.707031 642.597656 276.890625 648.859375 272.480469 L 682.960938 248.351562 C 689.226562 243.945312 698.039062 245.335938 702.449219 251.601562 C 706.855469 257.867188 705.464844 266.679688 699.199219 271.089844 L 665.097656 295.21875 C 662.546875 297.074219 659.761719 297.769531 656.980469 297.769531 Z M 656.980469 297.769531 " fill-opacity="1" fill-rule="nonzero"/><path fill="#000000" d="M 470 436.042969 C 443.089844 436.042969 421.050781 414 421.050781 387.089844 C 421.050781 360.175781 443.089844 338.136719 470 338.136719 C 496.910156 338.136719 518.949219 360.175781 518.949219 387.089844 C 518.949219 414 496.910156 436.042969 470 436.042969 Z M 470 365.976562 C 458.402344 365.976562 448.890625 375.488281 448.890625 387.089844 C 448.890625 398.6875 458.402344 408.203125 470 408.203125 C 481.597656 408.203125 491.109375 398.6875 491.109375 387.089844 C 491.109375 375.488281 481.597656 365.976562 470 365.976562 Z M 470 365.976562 " fill-opacity="1" fill-rule="nonzero"/><path fill="#000000" d="M 445.875 375.722656 C 444.945312 375.722656 444.019531 375.722656 443.089844 375.488281 C 435.433594 374.097656 430.5625 366.671875 432.1875 359.015625 L 456.3125 237.21875 C 457.703125 229.792969 465.128906 224.6875 472.785156 226.3125 C 480.207031 227.707031 485.3125 235.128906 483.6875 242.785156 L 459.5625 364.585938 C 458.167969 371.082031 452.371094 375.722656 445.875 375.722656 Z M 445.875 375.722656 " fill-opacity="1" fill-rule="nonzero"/><path fill="#000000" d="M 434.96875 401.007812 L 245.207031 401.007812 C 230.128906 401.007812 215.976562 394.511719 206.234375 382.914062 C 196.492188 371.3125 192.316406 356.234375 194.632812 341.386719 C 205.074219 277.121094 238.480469 219.351562 288.820312 178.753906 C 338.464844 138.847656 402.726562 116.808594 470 116.808594 C 477.65625 116.808594 483.917969 123.074219 483.917969 130.730469 L 483.917969 183.855469 C 483.917969 191.511719 477.65625 197.777344 470 197.777344 C 462.34375 197.777344 456.082031 191.511719 456.082031 183.855469 L 456.082031 145.113281 C 335.914062 150.914062 240.566406 231.882812 222.007812 345.792969 C 220.847656 352.753906 222.9375 359.714844 227.34375 364.816406 C 231.753906 370.152344 238.246094 373.167969 245.207031 373.167969 L 434.96875 373.167969 C 442.625 373.167969 448.890625 379.433594 448.890625 387.089844 C 448.890625 394.746094 442.625 401.007812 434.96875 401.007812 Z M 434.96875 401.007812 " fill-opacity="1" fill-rule="nonzero"/><path fill="#000000" d="M 360.96875 224.921875 C 355.632812 224.921875 350.527344 221.90625 348.207031 216.800781 L 330.113281 176.664062 C 326.867188 169.707031 330.113281 161.351562 337.074219 158.335938 C 344.03125 155.320312 352.382812 158.335938 355.398438 165.296875 L 373.496094 205.433594 C 376.742188 212.394531 373.496094 220.746094 366.535156 223.761719 C 364.910156 224.457031 363.054688 224.921875 360.96875 224.921875 Z M 360.96875 224.921875 " fill-opacity="1" fill-rule="nonzero"/><path fill="#000000" d="M 283.019531 297.769531 C 280.238281 297.769531 277.453125 296.839844 274.902344 295.21875 L 240.800781 271.089844 C 234.535156 266.679688 232.914062 257.867188 237.550781 251.601562 C 241.960938 245.335938 250.773438 243.714844 257.039062 248.351562 L 291.140625 272.480469 C 297.402344 276.890625 299.027344 285.707031 294.386719 291.96875 C 291.605469 295.914062 287.429688 297.769531 283.019531 297.769531 Z M 283.019531 297.769531 " fill-opacity="1" fill-rule="nonzero"/></svg>