<svg xmlns="http://www.w3.org/2000/svg" xmlns:xlink="http://www.w3.org/1999/xlink" width="1254" zoomAndPan="magnify" viewBox="0 0 940.5 940.499971" height="1254" preserveAspectRatio="xMidYMid meet" version="1.0"><path fill="#737373" d="M 470.011719 876.011719 C 463.320312 876.011719 456.984375 872.964844 452.800781 867.730469 C 403.109375 805.554688 320.398438 748.019531 54.03125 748.019531 C 23.234375 748.019531 0 723.132812 0 690.132812 L 0 118.023438 C 0 88.179688 24.1875 63.988281 53.910156 63.988281 C 282.644531 65.015625 414.390625 112.597656 470.003906 216.632812 C 525.613281 112.597656 657.324219 65.015625 885.878906 63.988281 C 915.820312 63.988281 940 88.179688 940 117.898438 L 940 693.984375 C 940 723.78125 915.765625 748.015625 885.96875 748.015625 C 619.671875 748.015625 536.9375 805.546875 487.199219 867.730469 C 483.03125 872.964844 476.707031 876.011719 470.011719 876.011719 Z M 53.941406 108.054688 C 48.488281 108.054688 44.0625 112.472656 44.0625 117.90625 L 44.0625 690.128906 C 44.0625 693.371094 44.785156 703.960938 54.03125 703.960938 C 268.027344 703.960938 391.535156 738.039062 470.011719 820.488281 C 548.535156 738.035156 672.027344 703.960938 885.980469 703.960938 C 891.476562 703.960938 895.949219 699.492188 895.949219 693.992188 L 895.945312 118.023438 C 895.945312 112.46875 891.53125 108.054688 886.101562 108.054688 C 643.550781 109.140625 521.8125 163.226562 491.363281 283.417969 C 488.886719 293.191406 480.085938 300.039062 470.003906 300.039062 C 459.921875 300.039062 451.125 293.191406 448.644531 283.417969 C 418.207031 163.226562 296.46875 109.140625 53.941406 108.054688 Z M 53.941406 108.054688 " fill-opacity="1" fill-rule="evenodd"/><path fill="#737373" d="M 470.011719 876.011719 C 457.847656 876.011719 447.980469 866.148438 447.980469 853.980469 L 447.980469 418.839844 C 447.980469 406.675781 457.847656 396.808594 470.011719 396.808594 C 482.1875 396.808594 492.042969 406.675781 492.042969 418.839844 L 492.042969 853.972656 C 492.042969 866.148438 482.179688 876.011719 470.011719 876.011719 Z M 470.011719 876.011719 " fill-opacity="1" fill-rule="evenodd"/></svg>