<svg xmlns="http://www.w3.org/2000/svg" xmlns:xlink="http://www.w3.org/1999/xlink" width="1254" zoomAndPan="magnify" viewBox="0 0 940.5 940.499971" height="1254" preserveAspectRatio="xMidYMid meet" version="1.0"><defs><clipPath id="834b93578f"><path d="M 54 236 L 886.355469 236 L 886.355469 764.40625 L 54 764.40625 Z M 54 236 " clip-rule="nonzero"/></clipPath><clipPath id="51639e43c2"><path d="M 53.546875 213.449219 L 53.546875 703.503906 C 53.546875 737.039062 80.730469 764.222656 114.265625 764.222656 L 825.734375 764.222656 C 859.269531 764.222656 886.453125 737.039062 886.453125 703.503906 L 886.453125 213.449219 C 886.453125 179.914062 859.269531 152.730469 825.734375 152.730469 L 114.265625 152.730469 C 80.730469 152.730469 53.546875 179.914062 53.546875 213.449219 Z M 53.546875 213.449219 " clip-rule="nonzero"/></clipPath><clipPath id="563b859b26"><path d="M 53.546875 236 L 886 236 L 886 764.40625 L 53.546875 764.40625 Z M 53.546875 236 " clip-rule="nonzero"/></clipPath><clipPath id="884490d582"><path d="M 53.546875 213.449219 L 53.546875 703.503906 C 53.546875 737.039062 80.730469 764.222656 114.265625 764.222656 L 825.734375 764.222656 C 859.269531 764.222656 886.453125 737.039062 886.453125 703.503906 L 886.453125 213.449219 C 886.453125 179.914062 859.269531 152.730469 825.734375 152.730469 L 114.265625 152.730469 C 80.730469 152.730469 53.546875 179.914062 53.546875 213.449219 Z M 53.546875 213.449219 " clip-rule="nonzero"/></clipPath><clipPath id="8f1735a8bf"><path d="M 118 152.730469 L 458 152.730469 L 458 678 L 118 678 Z M 118 152.730469 " clip-rule="nonzero"/></clipPath><clipPath id="0ff65b7195"><path d="M 53.546875 213.449219 L 53.546875 703.503906 C 53.546875 737.039062 80.730469 764.222656 114.265625 764.222656 L 825.734375 764.222656 C 859.269531 764.222656 886.453125 737.039062 886.453125 703.503906 L 886.453125 213.449219 C 886.453125 179.914062 859.269531 152.730469 825.734375 152.730469 L 114.265625 152.730469 C 80.730469 152.730469 53.546875 179.914062 53.546875 213.449219 Z M 53.546875 213.449219 " clip-rule="nonzero"/></clipPath><clipPath id="a8b38f1e1e"><path d="M 483 152.730469 L 822 152.730469 L 822 678 L 483 678 Z M 483 152.730469 " clip-rule="nonzero"/></clipPath><clipPath id="1c6a0360c6"><path d="M 53.546875 213.449219 L 53.546875 703.503906 C 53.546875 737.039062 80.730469 764.222656 114.265625 764.222656 L 825.734375 764.222656 C 859.269531 764.222656 886.453125 737.039062 886.453125 703.503906 L 886.453125 213.449219 C 886.453125 179.914062 859.269531 152.730469 825.734375 152.730469 L 114.265625 152.730469 C 80.730469 152.730469 53.546875 179.914062 53.546875 213.449219 Z M 53.546875 213.449219 " clip-rule="nonzero"/></clipPath></defs><path fill="#b4b4b4" d="M 470.011719 876.011719 C 463.320312 876.011719 456.984375 872.964844 452.800781 867.730469 C 403.109375 805.554688 320.398438 748.019531 54.03125 748.019531 C 23.234375 748.019531 0 723.132812 0 690.132812 L 0 118.023438 C 0 88.179688 24.1875 63.988281 53.910156 63.988281 C 282.644531 65.015625 414.390625 112.597656 470.003906 216.632812 C 525.613281 112.597656 657.324219 65.015625 885.878906 63.988281 C 915.820312 63.988281 940 88.179688 940 117.898438 L 940 693.984375 C 940 723.78125 915.765625 748.015625 885.96875 748.015625 C 619.671875 748.015625 536.9375 805.546875 487.199219 867.730469 C 483.03125 872.964844 476.707031 876.011719 470.011719 876.011719 Z M 53.941406 108.054688 C 48.488281 108.054688 44.0625 112.472656 44.0625 117.90625 L 44.0625 690.128906 C 44.0625 693.371094 44.785156 703.960938 54.03125 703.960938 C 268.027344 703.960938 391.535156 738.039062 470.011719 820.488281 C 548.535156 738.035156 672.027344 703.960938 885.980469 703.960938 C 891.476562 703.960938 895.949219 699.492188 895.949219 693.992188 L 895.945312 118.023438 C 895.945312 112.46875 891.53125 108.054688 886.101562 108.054688 C 643.550781 109.140625 521.8125 163.226562 491.363281 283.417969 C 488.886719 293.191406 480.085938 300.039062 470.003906 300.039062 C 459.921875 300.039062 451.125 293.191406 448.644531 283.417969 C 418.207031 163.226562 296.46875 109.140625 53.941406 108.054688 Z M 53.941406 108.054688 " fill-opacity="1" fill-rule="evenodd"/><path fill="#b4b4b4" d="M 470.011719 876.011719 C 457.847656 876.011719 447.980469 866.148438 447.980469 853.980469 L 447.980469 418.839844 C 447.980469 406.675781 457.847656 396.808594 470.011719 396.808594 C 482.1875 396.808594 492.042969 406.675781 492.042969 418.839844 L 492.042969 853.972656 C 492.042969 866.148438 482.179688 876.011719 470.011719 876.011719 Z M 470.011719 876.011719 " fill-opacity="1" fill-rule="evenodd"/><g clip-path="url(#834b93578f)"><g clip-path="url(#51639e43c2)"><path fill="#b4b4b4" d="M 451.644531 721.613281 C 422.386719 679.304688 319.007812 588.058594 103.960938 626.167969 C 102.152344 626.492188 100.421875 626.136719 98.96875 624.957031 C 97.53125 623.777344 96.773438 622.179688 96.773438 620.335938 L 97.597656 242.652344 C 97.597656 240.535156 96.59375 238.710938 94.800781 237.59375 C 93.007812 236.480469 90.941406 236.367188 89.035156 237.289062 L 58.355469 252.230469 C 56.253906 253.25 55.011719 255.253906 55.011719 257.578125 L 54.847656 713.925781 C 54.847656 715.574219 55.429688 716.980469 56.59375 718.140625 C 57.757812 719.304688 59.179688 719.886719 60.808594 719.886719 L 402.453125 718.820312 C 438.089844 779.257812 502.839844 779.273438 538.496094 718.820312 L 880.136719 719.886719 C 881.785156 719.886719 883.191406 719.304688 884.355469 718.140625 C 885.519531 716.976562 886.101562 715.574219 886.101562 713.925781 L 885.9375 257.578125 C 885.9375 255.253906 884.695312 253.25 882.59375 252.230469 L 851.914062 237.289062 C 850.007812 236.367188 847.941406 236.464844 846.148438 237.59375 C 844.355469 238.710938 843.351562 240.535156 843.351562 242.652344 L 844.175781 652.550781 C 844.175781 654.40625 843.417969 656.007812 841.980469 657.171875 C 840.542969 658.351562 838.8125 658.753906 836.988281 658.382812 C 623.71875 613.648438 519.191406 673.277344 489.304688 721.613281 C 482.371094 732.828125 458.511719 731.582031 451.628906 721.613281 Z M 451.644531 721.613281 " fill-opacity="1" fill-rule="evenodd"/></g></g><g clip-path="url(#563b859b26)"><g clip-path="url(#884490d582)"><path fill="#b4b4b4" d="M 488.300781 721.613281 C 517.558594 679.304688 620.9375 588.058594 835.984375 626.167969 C 837.792969 626.492188 839.523438 626.136719 840.976562 624.957031 C 842.414062 623.777344 843.175781 622.179688 843.175781 620.335938 L 842.351562 242.652344 C 842.351562 240.535156 843.351562 238.710938 845.144531 237.59375 C 846.9375 236.480469 849.007812 236.367188 850.914062 237.289062 L 881.59375 252.230469 C 883.691406 253.25 884.9375 255.253906 884.9375 257.578125 L 885.097656 713.925781 C 885.097656 715.574219 884.515625 716.980469 883.351562 718.140625 C 882.191406 719.304688 880.769531 719.886719 879.136719 719.886719 L 537.496094 718.820312 C 501.855469 779.257812 437.105469 779.273438 401.449219 718.820312 L 59.808594 719.886719 C 58.160156 719.886719 56.753906 719.304688 55.589844 718.140625 C 54.429688 716.976562 53.847656 715.574219 53.847656 713.925781 L 54.007812 257.578125 C 54.007812 255.253906 55.253906 253.25 57.351562 252.230469 L 88.03125 237.289062 C 89.9375 236.367188 92.007812 236.464844 93.800781 237.59375 C 95.59375 238.710938 96.59375 240.535156 96.59375 242.652344 L 95.769531 652.550781 C 95.769531 654.40625 96.53125 656.007812 97.96875 657.171875 C 99.40625 658.351562 101.132812 658.753906 102.960938 658.382812 C 316.230469 613.648438 420.753906 673.277344 450.644531 721.613281 C 457.574219 732.828125 481.4375 731.582031 488.316406 721.613281 Z M 488.300781 721.613281 " fill-opacity="1" fill-rule="evenodd"/></g></g><g clip-path="url(#8f1735a8bf)"><g clip-path="url(#0ff65b7195)"><path fill="#b4b4b4" d="M 457.058594 659.222656 L 456.894531 255.769531 C 456.894531 252.296875 455.585938 249.292969 453.050781 246.980469 C 429.640625 225.429688 282.496094 108.542969 126.144531 170.808594 C 121.601562 172.617188 118.761719 176.929688 118.761719 181.859375 L 118.761719 585.101562 C 118.761719 588.832031 120.3125 592.097656 123.21875 594.421875 C 126.125 596.75 129.617188 597.539062 133.21875 596.683594 C 178.324219 586.039062 314.9375 581.011719 438.882812 669.207031 C 445.359375 673.8125 456.71875 682.535156 456.796875 674.78125 C 456.894531 667.027344 457.039062 663.699219 457.039062 659.222656 Z M 379.816406 513.289062 C 354.550781 492.644531 297.503906 448.765625 197 467.746094 C 189.246094 469.21875 180.507812 472.820312 182.898438 485.710938 C 185.289062 498.589844 202.527344 493.871094 205.144531 493.304688 C 287.617188 475.5 332.984375 511.511719 368.347656 535.40625 C 374.292969 539.414062 384.277344 546.117188 390.542969 537.214844 C 396.8125 528.3125 386.539062 518.765625 379.816406 513.289062 Z M 379.816406 414.515625 C 354.550781 393.867188 297.503906 349.988281 197 368.972656 C 189.246094 370.441406 180.507812 374.042969 182.898438 386.9375 C 185.289062 399.8125 202.527344 395.09375 205.144531 394.53125 C 287.617188 376.726562 332.984375 412.738281 368.347656 436.632812 C 374.292969 440.636719 384.277344 447.34375 390.542969 438.441406 C 396.8125 429.539062 386.539062 419.992188 379.816406 414.515625 Z M 379.816406 310.019531 C 354.550781 289.375 297.503906 245.496094 197 264.476562 C 189.246094 265.949219 180.507812 269.550781 182.898438 282.441406 C 185.289062 295.320312 202.527344 290.601562 205.144531 290.035156 C 287.617188 272.234375 332.984375 308.242188 368.347656 332.136719 C 374.292969 336.144531 384.277344 342.847656 390.542969 333.945312 C 396.8125 325.046875 386.539062 315.496094 379.816406 310.019531 Z M 379.816406 310.019531 " fill-opacity="1" fill-rule="evenodd"/></g></g><g clip-path="url(#a8b38f1e1e)"><g clip-path="url(#1c6a0360c6)"><path fill="#b4b4b4" d="M 483.566406 659.222656 L 483.730469 255.769531 C 483.730469 252.296875 485.039062 249.292969 487.574219 246.980469 C 510.984375 225.429688 658.128906 108.542969 814.480469 170.808594 C 819.023438 172.617188 821.867188 176.929688 821.867188 181.859375 L 821.867188 585.101562 C 821.867188 588.832031 820.316406 592.097656 817.40625 594.421875 C 814.5 596.75 811.007812 597.539062 807.40625 596.683594 C 762.300781 586.039062 625.6875 581.011719 501.742188 669.207031 C 495.265625 673.8125 483.90625 682.535156 483.828125 674.78125 C 483.730469 667.027344 483.585938 663.699219 483.585938 659.222656 Z M 560.808594 513.289062 C 586.074219 492.644531 643.121094 448.765625 743.625 467.746094 C 751.378906 469.21875 760.117188 472.820312 757.726562 485.710938 C 755.335938 498.589844 738.097656 493.871094 735.480469 493.304688 C 653.007812 475.5 607.644531 511.511719 572.277344 535.40625 C 566.332031 539.414062 556.347656 546.117188 550.082031 537.214844 C 543.8125 528.3125 554.085938 518.765625 560.808594 513.289062 Z M 560.808594 414.515625 C 586.074219 393.867188 643.121094 349.988281 743.625 368.972656 C 751.378906 370.441406 760.117188 374.042969 757.726562 386.9375 C 755.335938 399.8125 738.097656 395.09375 735.480469 394.53125 C 653.007812 376.726562 607.644531 412.738281 572.277344 436.632812 C 566.332031 440.636719 556.347656 447.34375 550.082031 438.441406 C 543.8125 429.539062 554.085938 419.992188 560.808594 414.515625 Z M 560.808594 310.019531 C 586.074219 289.375 643.121094 245.496094 743.625 264.476562 C 751.378906 265.949219 760.117188 269.550781 757.726562 282.441406 C 755.335938 295.320312 738.097656 290.601562 735.480469 290.035156 C 653.007812 272.234375 607.644531 308.242188 572.277344 332.136719 C 566.332031 336.144531 556.347656 342.847656 550.082031 333.945312 C 543.8125 325.046875 554.085938 315.496094 560.808594 310.019531 Z M 560.808594 310.019531 " fill-opacity="1" fill-rule="evenodd"/></g></g></svg>