<svg xmlns="http://www.w3.org/2000/svg" xmlns:xlink="http://www.w3.org/1999/xlink" width="1254" zoomAndPan="magnify" viewBox="0 0 940.5 940.499971" height="1254" preserveAspectRatio="xMidYMid meet" version="1.0"><defs><clipPath id="ccd777d765"><path d="M 411 366.523438 L 530 366.523438 L 530 485 L 411 485 Z M 411 366.523438 " clip-rule="nonzero"/></clipPath><clipPath id="9b1b78b49a"><path d="M 528 497 L 658.300781 497 L 658.300781 572 L 528 572 Z M 528 497 " clip-rule="nonzero"/></clipPath><clipPath id="2e25dece11"><path d="M 370 497 L 572 497 L 572 573.410156 L 370 573.410156 Z M 370 497 " clip-rule="nonzero"/></clipPath></defs><path fill="#000000" d="M 354.582031 421.710938 C 340.789062 421.710938 329.566406 432.921875 329.566406 446.703125 C 329.566406 460.480469 340.789062 471.691406 354.582031 471.691406 C 368.378906 471.691406 379.601562 460.480469 379.601562 446.703125 C 379.601562 432.921875 368.378906 421.710938 354.582031 421.710938 Z M 354.582031 485.757812 C 333.023438 485.757812 315.484375 468.234375 315.484375 446.703125 C 315.484375 425.167969 333.023438 407.648438 354.582031 407.648438 C 376.140625 407.648438 393.679688 425.167969 393.679688 446.703125 C 393.679688 468.234375 376.140625 485.757812 354.582031 485.757812 " fill-opacity="1" fill-rule="nonzero"/><path fill="#000000" d="M 585.980469 421.710938 C 572.183594 421.710938 560.960938 432.921875 560.960938 446.703125 C 560.960938 460.480469 572.183594 471.691406 585.980469 471.691406 C 599.773438 471.691406 610.996094 460.480469 610.996094 446.703125 C 610.996094 432.921875 599.773438 421.710938 585.980469 421.710938 Z M 585.980469 485.757812 C 564.421875 485.757812 546.882812 468.234375 546.882812 446.703125 C 546.882812 425.167969 564.421875 407.648438 585.980469 407.648438 C 607.539062 407.648438 625.078125 425.167969 625.078125 446.703125 C 625.078125 468.234375 607.539062 485.757812 585.980469 485.757812 " fill-opacity="1" fill-rule="nonzero"/><g clip-path="url(#ccd777d765)"><path fill="#000000" d="M 470.28125 380.664062 C 445.558594 380.664062 425.445312 400.757812 425.445312 425.449219 C 425.445312 450.144531 445.558594 470.234375 470.28125 470.234375 C 495.003906 470.234375 515.117188 450.144531 515.117188 425.449219 C 515.117188 400.757812 495.003906 380.664062 470.28125 380.664062 Z M 470.28125 484.300781 C 437.796875 484.300781 411.367188 457.902344 411.367188 425.449219 C 411.367188 393 437.796875 366.601562 470.28125 366.601562 C 502.765625 366.601562 529.195312 393 529.195312 425.449219 C 529.195312 457.902344 502.765625 484.300781 470.28125 484.300781 " fill-opacity="1" fill-rule="nonzero"/></g><g clip-path="url(#9b1b78b49a)"><path fill="#000000" d="M 658.300781 571.058594 L 644.21875 571.058594 C 644.21875 538.015625 617.308594 511.136719 584.230469 511.136719 C 566.96875 511.136719 550.53125 518.574219 539.132812 531.542969 L 528.550781 522.265625 C 542.621094 506.253906 562.917969 497.070312 584.230469 497.070312 C 625.074219 497.070312 658.300781 530.261719 658.300781 571.058594 " fill-opacity="1" fill-rule="nonzero"/></g><path fill="#000000" d="M 296.082031 571.058594 L 282 571.058594 C 282 530.261719 315.226562 497.070312 356.070312 497.070312 C 377.382812 497.070312 397.675781 506.253906 411.75 522.265625 L 401.167969 531.542969 C 389.769531 518.574219 373.332031 511.136719 356.070312 511.136719 C 322.992188 511.136719 296.082031 538.015625 296.082031 571.058594 " fill-opacity="1" fill-rule="nonzero"/><g clip-path="url(#2e25dece11)"><path fill="#000000" d="M 557.6875 573.335938 C 552.21875 557.34375 542.414062 543.160156 529.34375 532.316406 C 512.878906 518.65625 492.003906 511.136719 470.574219 511.136719 C 450.835938 511.136719 432.019531 517.285156 416.160156 528.914062 C 400.867188 540.128906 389.558594 555.488281 383.449219 573.335938 L 370.128906 568.785156 C 377.167969 548.207031 390.203125 530.5 407.828125 517.578125 C 426.121094 504.164062 447.816406 497.070312 470.574219 497.070312 C 495.28125 497.070312 519.351562 505.742188 538.339844 521.492188 C 553.40625 533.996094 564.703125 550.347656 571.011719 568.785156 L 557.6875 573.335938 " fill-opacity="1" fill-rule="nonzero"/></g></svg>