<svg xmlns="http://www.w3.org/2000/svg" xmlns:xlink="http://www.w3.org/1999/xlink" width="1254" zoomAndPan="magnify" viewBox="0 0 940.5 940.499971" height="1254" preserveAspectRatio="xMidYMid meet" version="1.0"><defs><clipPath id="0416251a95"><path d="M 323 211.304688 L 618 211.304688 L 618 506 L 323 506 Z M 323 211.304688 " clip-rule="nonzero"/></clipPath><clipPath id="fc0773ec99"><path d="M 220 537 L 722 537 L 722 728.527344 L 220 728.527344 Z M 220 537 " clip-rule="nonzero"/></clipPath></defs><path fill="#000000" d="M 181.3125 349.28125 C 146.855469 349.28125 118.820312 377.308594 118.820312 411.753906 C 118.820312 446.203125 146.855469 474.226562 181.3125 474.226562 C 215.773438 474.226562 243.808594 446.203125 243.808594 411.753906 C 243.808594 377.308594 215.773438 349.28125 181.3125 349.28125 Z M 181.3125 509.390625 C 127.457031 509.390625 83.644531 465.589844 83.644531 411.753906 C 83.644531 357.917969 127.457031 314.121094 181.3125 314.121094 C 235.167969 314.121094 278.980469 357.917969 278.980469 411.753906 C 278.980469 465.589844 235.167969 509.390625 181.3125 509.390625 " fill-opacity="1" fill-rule="nonzero"/><path fill="#000000" d="M 759.339844 349.28125 C 724.882812 349.28125 696.847656 377.308594 696.847656 411.753906 C 696.847656 446.203125 724.882812 474.226562 759.339844 474.226562 C 793.800781 474.226562 821.835938 446.203125 821.835938 411.753906 C 821.835938 377.308594 793.800781 349.28125 759.339844 349.28125 Z M 759.339844 509.390625 C 705.488281 509.390625 661.675781 465.589844 661.675781 411.753906 C 661.675781 357.917969 705.488281 314.121094 759.339844 314.121094 C 813.199219 314.121094 857.011719 357.917969 857.011719 411.753906 C 857.011719 465.589844 813.199219 509.390625 759.339844 509.390625 " fill-opacity="1" fill-rule="nonzero"/><g clip-path="url(#0416251a95)"><path fill="#000000" d="M 470.328125 246.667969 C 408.574219 246.667969 358.332031 296.894531 358.332031 358.628906 C 358.332031 420.363281 408.574219 470.589844 470.328125 470.589844 C 532.082031 470.589844 582.324219 420.363281 582.324219 358.628906 C 582.324219 296.894531 532.082031 246.667969 470.328125 246.667969 Z M 470.328125 505.75 C 389.179688 505.75 323.15625 439.753906 323.15625 358.628906 C 323.15625 277.503906 389.179688 211.503906 470.328125 211.503906 C 551.476562 211.503906 617.496094 277.503906 617.496094 358.628906 C 617.496094 439.753906 551.476562 505.75 470.328125 505.75 " fill-opacity="1" fill-rule="nonzero"/></g><path fill="#000000" d="M 940 722.644531 L 904.828125 722.644531 C 904.828125 640.039062 837.601562 572.839844 754.976562 572.839844 C 711.851562 572.839844 670.792969 591.429688 642.320312 623.855469 L 615.886719 600.65625 C 651.035156 560.632812 701.734375 537.675781 754.976562 537.675781 C 856.996094 537.675781 940 620.648438 940 722.644531 " fill-opacity="1" fill-rule="nonzero"/><path fill="#000000" d="M 35.171875 722.644531 L 0 722.644531 C 0 620.648438 83.003906 537.675781 185.023438 537.675781 C 238.265625 537.675781 288.964844 560.632812 324.113281 600.65625 L 297.679688 623.855469 C 269.207031 591.429688 228.148438 572.839844 185.023438 572.839844 C 102.398438 572.839844 35.171875 640.039062 35.171875 722.644531 " fill-opacity="1" fill-rule="nonzero"/><g clip-path="url(#fc0773ec99)"><path fill="#000000" d="M 688.667969 728.328125 C 675.007812 688.355469 650.519531 652.894531 617.867188 625.78125 C 576.734375 591.640625 524.59375 572.839844 471.058594 572.839844 C 421.75 572.839844 374.753906 588.207031 335.136719 617.285156 C 296.929688 645.320312 268.679688 683.714844 253.425781 728.328125 L 220.144531 716.957031 C 237.730469 665.511719 270.296875 621.242188 314.324219 588.941406 C 360.011719 555.402344 414.207031 537.675781 471.058594 537.675781 C 532.78125 537.675781 592.902344 559.359375 640.335938 598.726562 C 677.972656 629.980469 706.195312 670.863281 721.953125 716.957031 L 688.667969 728.328125 " fill-opacity="1" fill-rule="nonzero"/></g></svg>