<svg xmlns="http://www.w3.org/2000/svg" xmlns:xlink="http://www.w3.org/1999/xlink" width="1254" zoomAndPan="magnify" viewBox="0 0 940.5 940.499971" height="1254" preserveAspectRatio="xMidYMid meet" version="1.0"><defs><clipPath id="8caa8ac561"><path d="M 101.050781 595 L 405 595 L 405 940 L 101.050781 940 Z M 101.050781 595 " clip-rule="nonzero"/></clipPath><clipPath id="2505c1587f"><path d="M 330 595 L 838.65625 595 L 838.65625 940 L 330 940 Z M 330 595 " clip-rule="nonzero"/></clipPath></defs><path fill="#b4b4b4" d="M 528.484375 731.9375 C 495.230469 716.679688 484.667969 700.835938 482.515625 682.445312 C 493.859375 682.445312 504.03125 677.164062 510.488281 668.753906 C 521.050781 677.359375 532.984375 697.507812 528.484375 731.9375 Z M 528.484375 731.9375 " fill-opacity="1" fill-rule="nonzero"/><path fill="#b4b4b4" d="M 591.28125 588.742188 C 588.933594 596.960938 585.214844 604.394531 580.324219 610.847656 C 564.089844 631.390625 536.308594 636.476562 517.921875 637.257812 L 517.921875 631.585938 C 517.921875 625.714844 516.160156 620.433594 513.226562 615.738281 C 525.160156 610.457031 536.898438 604.394531 548.046875 597.351562 C 561.546875 588.742188 574.457031 578.960938 586.390625 568.203125 C 586.78125 568.007812 586.976562 567.617188 587.367188 567.421875 C 587.953125 567.027344 588.347656 566.441406 588.933594 565.855469 C 592.453125 573.679688 593.238281 581.503906 591.28125 588.742188 Z M 591.28125 588.742188 " fill-opacity="1" fill-rule="nonzero"/><path fill="#b4b4b4" d="M 656.421875 381.773438 C 652.121094 386.46875 646.835938 389.992188 640.96875 392.335938 C 644.683594 369.449219 645.859375 346.5625 646.054688 328.371094 C 657.011719 334.238281 664.835938 344.605469 665.8125 355.953125 C 666.789062 364.753906 663.269531 374.144531 656.421875 381.773438 Z M 656.421875 381.773438 " fill-opacity="1" fill-rule="nonzero"/><path fill="#b4b4b4" d="M 493.664062 631.390625 L 493.664062 647.039062 C 493.664062 653.101562 488.578125 658.1875 482.515625 658.1875 L 457.472656 658.1875 C 451.410156 658.1875 446.324219 653.101562 446.324219 647.039062 L 446.324219 631.390625 C 446.324219 628.453125 448.867188 625.910156 451.800781 625.910156 L 488.1875 625.910156 C 491.316406 625.910156 493.664062 628.453125 493.664062 631.390625 Z M 493.664062 631.390625 " fill-opacity="1" fill-rule="nonzero"/><path fill="#b4b4b4" d="M 426.761719 615.542969 C 423.828125 620.042969 422.066406 625.519531 422.066406 631.390625 L 422.066406 637.0625 C 403.679688 636.28125 375.898438 631.390625 359.664062 610.652344 C 354.773438 604.394531 351.054688 596.960938 348.707031 588.546875 C 346.753906 581.308594 347.535156 573.679688 351.25 565.464844 C 351.839844 566.050781 352.230469 566.441406 352.816406 567.027344 C 353.011719 567.421875 353.402344 567.617188 353.792969 567.8125 C 365.726562 578.765625 378.441406 588.546875 392.136719 596.960938 C 403.089844 604.195312 414.632812 610.261719 426.761719 615.542969 Z M 426.761719 615.542969 " fill-opacity="1" fill-rule="nonzero"/><path fill="#b4b4b4" d="M 566.632812 522.425781 L 566.632812 553.140625 C 556.851562 561.746094 546.289062 569.769531 535.332031 576.613281 C 521.246094 585.417969 505.988281 592.851562 490.339844 598.71875 C 488.578125 599.308594 487.011719 600.480469 485.839844 601.652344 L 454.539062 601.652344 C 453.367188 600.480469 451.800781 599.308594 450.039062 598.71875 C 434.390625 592.851562 419.132812 585.613281 405.046875 576.613281 C 393.898438 569.769531 383.527344 561.746094 373.75 553.140625 L 373.75 522.425781 C 402.308594 544.921875 435.371094 556.660156 470.386719 556.660156 C 505.402344 556.660156 538.070312 544.921875 566.632812 522.425781 Z M 566.632812 522.425781 " fill-opacity="1" fill-rule="nonzero"/><path fill="#b4b4b4" d="M 614.167969 404.269531 C 613.972656 404.269531 613.972656 404.269531 614.167969 404.269531 C 613.972656 404.660156 613.972656 404.859375 613.972656 405.25 C 613.191406 408.378906 612.40625 411.507812 611.625 414.441406 C 598.128906 461.980469 549.222656 532.597656 470.191406 532.597656 C 391.160156 532.597656 342.253906 461.980469 328.753906 414.441406 C 327.972656 411.507812 326.996094 408.378906 326.40625 405.25 C 326.40625 405.054688 326.210938 404.660156 326.210938 404.464844 C 316.625 362.800781 317.996094 314.871094 318.777344 299.613281 L 621.796875 299.613281 C 622.1875 314.675781 623.753906 362.601562 614.167969 404.269531 Z M 614.167969 404.269531 " fill-opacity="1" fill-rule="nonzero"/><path fill="#b4b4b4" d="M 299.019531 392.335938 C 293.152344 389.992188 287.871094 386.46875 283.566406 381.773438 C 276.71875 374.339844 273.394531 364.949219 273.980469 356.148438 C 274.957031 344.800781 282.785156 334.433594 293.738281 328.566406 C 294.128906 346.367188 295.304688 369.449219 299.019531 392.335938 Z M 299.019531 392.335938 " fill-opacity="1" fill-rule="nonzero"/><path fill="#b4b4b4" d="M 676.179688 119.445312 C 675.984375 128.441406 673.636719 158.960938 648.597656 175.980469 C 624.535156 192.214844 589.324219 189.085938 563.109375 167.957031 C 560.566406 165.808594 557.046875 165.023438 553.917969 165.414062 C 550.589844 165.808594 547.65625 167.761719 545.699219 170.5 C 544.722656 171.871094 521.246094 205.125 469.996094 205.125 C 418.742188 205.125 395.265625 171.871094 394.289062 170.5 C 392.332031 167.761719 389.398438 165.808594 386.070312 165.21875 C 382.746094 164.632812 379.421875 165.609375 376.683594 167.761719 C 350.46875 188.695312 315.257812 192.019531 291.195312 175.785156 C 266.15625 158.960938 263.808594 128.246094 263.613281 119.25 C 263.222656 91.078125 279.066406 57.234375 310.367188 47.0625 C 337.949219 38.066406 362.597656 51.953125 369.640625 56.257812 C 372.574219 58.019531 376.09375 58.605469 379.421875 57.628906 C 382.746094 56.648438 385.484375 54.496094 387.050781 51.367188 C 392.527344 40.414062 405.4375 20.261719 430.28125 8.722656 C 442.410156 3.046875 456.105469 0.113281 469.996094 0.308594 L 470.386719 0.308594 C 484.078125 0.113281 497.96875 3.046875 510.097656 8.722656 C 534.941406 20.261719 547.851562 40.414062 553.328125 51.367188 C 554.894531 54.496094 557.632812 56.648438 560.957031 57.628906 C 564.285156 58.605469 567.804688 58.019531 570.738281 56.257812 C 577.585938 51.757812 602.429688 38.066406 630.015625 47.0625 C 660.726562 57.433594 676.769531 91.273438 676.179688 119.445312 Z M 676.179688 119.445312 " fill-opacity="1" fill-rule="nonzero"/><path fill="#b4b4b4" d="M 621.210938 210.015625 L 621.210938 275.355469 L 318.777344 275.355469 L 318.777344 210.015625 C 340.101562 211.777344 362.597656 206.300781 382.160156 193.78125 C 394.875 207.082031 423.4375 229.382812 469.800781 229.382812 C 516.160156 229.382812 544.722656 207.082031 557.4375 193.78125 C 577.390625 206.105469 599.886719 211.582031 621.210938 210.015625 Z M 621.210938 210.015625 " fill-opacity="1" fill-rule="nonzero"/><path fill="#b4b4b4" d="M 457.472656 682.445312 C 455.324219 700.835938 444.5625 716.679688 411.308594 731.9375 C 408.570312 709.246094 412.675781 692.8125 418.742188 681.859375 C 418.9375 681.664062 418.9375 681.273438 419.132812 681.078125 C 422.261719 675.597656 425.980469 671.492188 429.304688 668.753906 C 435.957031 677.164062 446.128906 682.445312 457.472656 682.445312 Z M 457.472656 682.445312 " fill-opacity="1" fill-rule="nonzero"/><g clip-path="url(#8caa8ac561)"><path fill="#b4b4b4" d="M 404.851562 659.558594 C 402.894531 661.90625 401.136719 664.253906 399.570312 666.992188 L 312.714844 716.484375 C 308.996094 718.636719 306.648438 722.550781 306.648438 727.046875 L 306.648438 939.691406 L 232.117188 939.691406 L 232.117188 800.40625 C 232.117188 793.753906 226.640625 788.277344 219.988281 788.277344 C 213.335938 788.277344 207.859375 793.753906 207.859375 800.40625 L 207.859375 939.691406 L 122.765625 939.691406 C 116.503906 939.691406 110.832031 937.148438 106.527344 932.453125 C 102.417969 927.757812 100.464844 921.886719 101.246094 915.628906 L 119.828125 753.066406 C 125.308594 705.53125 156.214844 664.644531 200.621094 646.648438 L 325.820312 595.980469 C 328.949219 607.132812 334.035156 617.109375 340.882812 625.714844 C 358.097656 647.625 383.527344 656.429688 404.851562 659.558594 Z M 404.851562 659.558594 " fill-opacity="1" fill-rule="nonzero"/></g><g clip-path="url(#2505c1587f)"><path fill="#b4b4b4" d="M 838.742188 915.628906 L 820.160156 753.066406 C 814.683594 705.53125 783.773438 664.644531 739.367188 646.648438 L 614.167969 595.980469 C 611.039062 607.132812 605.953125 617.109375 599.105469 625.714844 C 581.890625 647.625 556.460938 656.429688 535.136719 659.558594 C 550.003906 677.75 559.394531 708.660156 549.417969 751.695312 C 548.632812 755.023438 546.484375 757.957031 543.351562 759.71875 C 541.59375 760.695312 539.636719 761.085938 537.679688 761.085938 C 536.113281 761.085938 534.746094 760.890625 533.375 760.304688 C 502.273438 748.371094 481.535156 734.480469 469.996094 717.070312 C 458.257812 734.480469 437.714844 748.371094 406.613281 760.304688 C 405.242188 760.890625 403.679688 761.085938 402.308594 761.085938 C 400.351562 761.085938 398.398438 760.695312 396.636719 759.71875 C 393.507812 758.152344 391.355469 755.21875 390.570312 751.695312 C 386.070312 732.722656 385.484375 716.09375 387.636719 701.8125 L 330.90625 734.089844 L 330.90625 939.691406 L 708.066406 939.691406 L 708.066406 800.40625 C 708.066406 793.753906 713.542969 788.277344 720.195312 788.277344 C 726.847656 788.277344 732.324219 793.753906 732.324219 800.40625 L 732.324219 939.691406 L 817.421875 939.691406 C 823.679688 939.691406 829.351562 937.148438 833.65625 932.453125 C 837.570312 927.757812 839.527344 921.691406 838.742188 915.628906 Z M 385.09375 927.953125 C 369.054688 927.953125 355.945312 914.847656 355.945312 898.804688 C 355.945312 882.765625 369.054688 869.65625 385.09375 869.65625 C 401.136719 869.65625 414.242188 882.765625 414.242188 898.804688 C 414.242188 915.042969 401.136719 927.953125 385.09375 927.953125 Z M 385.09375 842.660156 C 369.054688 842.660156 355.945312 829.554688 355.945312 813.511719 C 355.945312 797.472656 369.054688 784.367188 385.09375 784.367188 C 401.136719 784.367188 414.242188 797.472656 414.242188 813.511719 C 414.242188 829.554688 401.136719 842.660156 385.09375 842.660156 Z M 554.894531 927.953125 C 538.855469 927.953125 525.746094 914.847656 525.746094 898.804688 C 525.746094 882.765625 538.855469 869.65625 554.894531 869.65625 C 570.9375 869.65625 584.042969 882.765625 584.042969 898.804688 C 584.042969 915.042969 570.9375 927.953125 554.894531 927.953125 Z M 554.894531 842.660156 C 538.855469 842.660156 525.746094 829.554688 525.746094 813.511719 C 525.746094 797.472656 538.855469 784.367188 554.894531 784.367188 C 570.9375 784.367188 584.042969 797.472656 584.042969 813.511719 C 584.042969 829.554688 570.9375 842.660156 554.894531 842.660156 Z M 554.894531 842.660156 " fill-opacity="1" fill-rule="nonzero"/></g><path fill="#b4b4b4" d="M 390.179688 813.511719 C 390.179688 816.253906 387.832031 818.601562 385.09375 818.601562 C 382.355469 818.601562 380.007812 816.253906 380.007812 813.511719 C 380.007812 810.773438 382.355469 808.425781 385.09375 808.425781 C 387.832031 808.425781 390.179688 810.773438 390.179688 813.511719 Z M 390.179688 813.511719 " fill-opacity="1" fill-rule="nonzero"/><path fill="#b4b4b4" d="M 390.179688 898.804688 C 390.179688 901.542969 387.832031 903.890625 385.09375 903.890625 C 382.355469 903.890625 380.007812 901.542969 380.007812 898.804688 C 380.007812 896.066406 382.355469 893.71875 385.09375 893.71875 C 387.832031 893.914062 390.179688 896.066406 390.179688 898.804688 Z M 390.179688 898.804688 " fill-opacity="1" fill-rule="nonzero"/><path fill="#b4b4b4" d="M 559.980469 898.804688 C 559.980469 901.542969 557.632812 903.890625 554.894531 903.890625 C 552.15625 903.890625 549.808594 901.542969 549.808594 898.804688 C 549.808594 896.066406 552.15625 893.71875 554.894531 893.71875 C 557.632812 893.914062 559.980469 896.066406 559.980469 898.804688 Z M 559.980469 898.804688 " fill-opacity="1" fill-rule="nonzero"/><path fill="#b4b4b4" d="M 559.980469 813.511719 C 559.980469 816.253906 557.632812 818.601562 554.894531 818.601562 C 552.15625 818.601562 549.808594 816.253906 549.808594 813.511719 C 549.808594 810.773438 552.15625 808.425781 554.894531 808.425781 C 557.632812 808.425781 559.980469 810.773438 559.980469 813.511719 Z M 559.980469 813.511719 " fill-opacity="1" fill-rule="nonzero"/></svg>