<svg xmlns="http://www.w3.org/2000/svg" xmlns:xlink="http://www.w3.org/1999/xlink" width="1254" zoomAndPan="magnify" viewBox="0 0 940.5 940.499971" height="1254" preserveAspectRatio="xMidYMid meet" version="1.0"><defs><clipPath id="903fa438f9"><path d="M 458 563 L 843.863281 563 L 843.863281 940 L 458 940 Z M 458 563 " clip-rule="nonzero"/></clipPath><clipPath id="457a5166d9"><path d="M 95.761719 563 L 482 563 L 482 940 L 95.761719 940 Z M 95.761719 563 " clip-rule="nonzero"/></clipPath></defs><g clip-path="url(#903fa438f9)"><path fill="#737373" d="M 800.71875 940 L 470.089844 940 C 463.773438 940 458.605469 934.832031 458.605469 928.511719 C 458.605469 922.195312 463.773438 917.027344 470.089844 917.027344 L 800.71875 917.027344 C 806.652344 917.027344 812.207031 914.539062 816.035156 910.132812 C 820.054688 905.730469 821.777344 899.988281 821.203125 894.054688 L 803.589844 739.363281 C 798.421875 693.992188 768.9375 655.320312 726.628906 638.089844 L 596.253906 585.25 C 590.320312 582.953125 587.449219 576.253906 589.9375 570.316406 C 592.234375 564.382812 598.933594 561.511719 604.867188 564 L 735.242188 616.839844 C 785.402344 637.132812 820.246094 683.078125 826.371094 736.875 L 843.984375 891.5625 C 845.324219 903.816406 841.496094 916.261719 833.265625 925.449219 C 825.03125 934.640625 812.972656 940 800.71875 940 Z M 800.71875 940 " fill-opacity="1" fill-rule="nonzero"/></g><path fill="#737373" d="M 708.058594 933.109375 C 701.742188 933.109375 696.570312 927.9375 696.570312 921.621094 L 696.570312 784.546875 C 696.570312 778.226562 701.742188 773.058594 708.058594 773.058594 C 714.375 773.058594 719.546875 778.226562 719.546875 784.546875 L 719.546875 921.621094 C 719.546875 927.9375 714.375 933.109375 708.058594 933.109375 Z M 708.058594 933.109375 " fill-opacity="1" fill-rule="nonzero"/><path fill="#737373" d="M 550.882812 905.921875 C 535.566406 905.921875 523.121094 893.480469 523.121094 878.164062 C 523.121094 862.847656 535.566406 850.402344 550.882812 850.402344 C 566.195312 850.402344 578.640625 862.847656 578.640625 878.164062 C 578.640625 893.480469 566.195312 905.921875 550.882812 905.921875 Z M 550.882812 873.570312 C 548.199219 873.570312 546.09375 875.675781 546.09375 878.355469 C 546.09375 881.035156 548.199219 883.140625 550.882812 883.140625 C 553.5625 883.140625 555.667969 881.035156 555.667969 878.355469 C 555.667969 875.675781 553.5625 873.570312 550.882812 873.570312 Z M 550.882812 873.570312 " fill-opacity="1" fill-rule="nonzero"/><path fill="#737373" d="M 550.882812 824.75 C 535.566406 824.75 523.121094 812.304688 523.121094 796.988281 C 523.121094 781.675781 535.566406 769.230469 550.882812 769.230469 C 566.195312 769.230469 578.640625 781.675781 578.640625 796.988281 C 578.640625 812.304688 566.195312 824.75 550.882812 824.75 Z M 550.882812 792.203125 C 548.199219 792.203125 546.09375 794.308594 546.09375 796.988281 C 546.09375 799.671875 548.199219 801.777344 550.882812 801.777344 C 553.5625 801.777344 555.667969 799.671875 555.667969 796.988281 C 555.667969 794.308594 553.5625 792.203125 550.882812 792.203125 Z M 550.882812 792.203125 " fill-opacity="1" fill-rule="nonzero"/><path fill="#737373" d="M 534.609375 747.023438 C 533.269531 747.023438 531.738281 746.832031 530.394531 746.257812 C 480.046875 726.921875 458.414062 702.414062 458.414062 664.316406 C 458.414062 658 463.582031 652.832031 469.898438 652.832031 C 476.21875 652.832031 481.386719 658 481.386719 664.316406 C 481.386719 685.183594 489.234375 702.796875 525.609375 719.453125 C 530.203125 682.3125 515.082031 662.59375 504.359375 656.46875 C 498.808594 653.40625 496.894531 646.320312 499.957031 640.769531 C 503.019531 635.21875 510.101562 633.304688 515.65625 636.367188 C 537.480469 648.621094 558.539062 682.503906 545.710938 738.023438 C 544.945312 741.277344 542.839844 743.960938 539.96875 745.492188 C 538.246094 746.640625 536.523438 747.023438 534.609375 747.023438 Z M 534.609375 747.023438 " fill-opacity="1" fill-rule="nonzero"/><path fill="#737373" d="M 481.960938 672.359375 L 470.089844 672.359375 C 463.773438 672.359375 458.605469 667.191406 458.605469 660.871094 C 458.605469 654.554688 463.773438 649.386719 470.089844 649.386719 L 481.960938 649.386719 C 487.894531 649.386719 492.679688 644.597656 492.679688 638.664062 L 492.679688 623.730469 C 492.679688 620.859375 490.382812 618.5625 487.511719 618.5625 L 470.089844 618.5625 C 463.773438 618.5625 458.605469 613.394531 458.605469 607.074219 C 458.605469 600.757812 463.773438 595.589844 470.089844 595.589844 L 487.511719 595.589844 C 503.019531 595.589844 515.65625 608.222656 515.65625 623.730469 L 515.65625 638.664062 C 515.65625 657.234375 500.53125 672.359375 481.960938 672.359375 Z M 481.960938 672.359375 " fill-opacity="1" fill-rule="nonzero"/><path fill="#737373" d="M 509.910156 652.066406 C 503.59375 652.066406 498.425781 646.894531 498.425781 640.578125 C 498.425781 634.261719 503.59375 629.09375 509.910156 629.09375 C 526.757812 629.09375 557.773438 625.835938 575.003906 603.820312 C 579.789062 597.886719 583.234375 590.800781 585.53125 582.761719 C 587.449219 575.871094 586.679688 568.59375 583.234375 560.9375 C 571.367188 572.230469 558.347656 582.1875 544.371094 590.992188 C 529.628906 600.375 513.742188 608.03125 497.277344 614.160156 C 491.339844 616.265625 484.640625 613.203125 482.535156 607.265625 C 480.429688 601.332031 483.492188 594.632812 489.425781 592.527344 C 504.359375 586.972656 518.910156 579.890625 532.3125 571.464844 C 546.09375 562.851562 559.113281 552.703125 570.792969 541.21875 C 575.195312 537.007812 581.128906 535.089844 587.0625 535.859375 C 593.191406 536.816406 598.359375 540.261719 601.421875 545.621094 C 609.464844 559.980469 611.761719 574.914062 607.933594 588.886719 C 604.867188 599.800781 600.082031 609.5625 593.382812 617.988281 C 569.835938 647.660156 530.972656 652.066406 509.910156 652.066406 Z M 509.910156 652.066406 " fill-opacity="1" fill-rule="nonzero"/><path fill="#737373" d="M 573.472656 565.914062 C 567.152344 565.914062 561.984375 560.746094 561.984375 554.429688 L 561.984375 508.863281 C 561.984375 502.546875 567.152344 497.375 573.472656 497.375 C 579.789062 497.375 584.957031 502.546875 584.957031 508.863281 L 584.957031 554.429688 C 584.957031 560.746094 579.789062 565.914062 573.472656 565.914062 Z M 573.472656 565.914062 " fill-opacity="1" fill-rule="nonzero"/><path fill="#737373" d="M 470.089844 552.511719 C 463.773438 552.511719 458.605469 547.34375 458.605469 541.027344 C 458.605469 534.707031 463.773438 529.539062 470.089844 529.539062 C 545.328125 529.539062 591.851562 462.34375 604.675781 417.160156 C 617.3125 372.746094 614.632812 315.886719 614.058594 304.972656 C 613.867188 303.25 613.867188 301.527344 613.867188 299.804688 L 613.867188 221.3125 C 613.867188 214.992188 619.035156 209.824219 625.355469 209.824219 C 631.671875 209.824219 636.839844 214.992188 636.839844 221.3125 L 636.839844 299.804688 C 636.839844 301.144531 636.839844 302.292969 637.03125 303.632812 C 637.796875 315.3125 640.476562 375.425781 626.886719 423.480469 C 618.078125 454.300781 599.316406 485.316406 575.578125 508.289062 C 545.519531 537.199219 509.144531 552.511719 470.089844 552.511719 Z M 470.089844 552.511719 " fill-opacity="1" fill-rule="nonzero"/><path fill="#737373" d="M 625.546875 307.652344 L 470.089844 307.652344 C 463.773438 307.652344 458.605469 302.484375 458.605469 296.167969 C 458.605469 289.847656 463.773438 284.679688 470.089844 284.679688 L 625.546875 284.679688 C 631.863281 284.679688 637.03125 289.847656 637.03125 296.167969 C 637.03125 302.484375 631.863281 307.652344 625.546875 307.652344 Z M 625.546875 307.652344 " fill-opacity="1" fill-rule="nonzero"/><path fill="#737373" d="M 618.269531 421.753906 C 611.953125 421.753906 606.785156 416.585938 606.785156 410.269531 C 606.785156 403.953125 611.761719 398.78125 618.269531 398.78125 C 629.566406 398.78125 640.09375 393.996094 647.5625 385.957031 C 654.070312 378.871094 657.324219 369.875 656.558594 361.449219 C 655.21875 346.515625 641.433594 333.308594 624.585938 330.820312 C 618.269531 329.863281 614.058594 324.117188 614.824219 317.800781 C 615.78125 311.484375 621.523438 307.269531 627.84375 308.035156 C 655.410156 312.058594 677.234375 333.691406 679.339844 359.535156 C 680.679688 374.277344 675.128906 389.59375 664.410156 401.460938 C 652.921875 414.289062 636.074219 421.753906 618.269531 421.753906 C 618.460938 421.753906 618.460938 421.753906 618.269531 421.753906 Z M 618.269531 421.753906 " fill-opacity="1" fill-rule="nonzero"/><path fill="#737373" d="M 470.089844 240.839844 C 463.773438 240.839844 458.605469 235.671875 458.605469 229.351562 C 458.605469 223.035156 463.773438 217.867188 470.089844 217.867188 C 518.910156 217.867188 541.308594 186.277344 542.265625 184.9375 C 543.988281 182.257812 546.859375 180.535156 550.117188 180.152344 C 553.179688 179.769531 556.433594 180.535156 558.921875 182.449219 C 583.808594 202.359375 617.3125 205.421875 640.285156 189.914062 C 664.027344 173.832031 666.324219 144.734375 666.515625 136.117188 C 666.898438 109.316406 651.773438 77.152344 622.097656 67.390625 C 595.871094 58.964844 572.324219 71.984375 565.8125 76.195312 C 563.132812 77.917969 559.6875 78.492188 556.625 77.535156 C 553.5625 76.578125 550.882812 74.472656 549.351562 71.601562 C 544.179688 61.261719 531.738281 42.117188 508.1875 31.015625 C 496.511719 25.652344 483.492188 22.78125 470.472656 22.972656 C 464.15625 23.164062 458.988281 17.996094 458.796875 11.679688 C 458.796875 5.359375 463.773438 0.191406 470.089844 0 C 486.746094 -0.191406 503.210938 3.253906 517.953125 10.148438 C 541.117188 21.058594 555.476562 37.714844 563.898438 50.925781 C 578.066406 44.222656 602.378906 36.757812 629.183594 45.371094 C 669.578125 58.390625 690.0625 101.082031 689.488281 136.308594 C 689.296875 147.605469 686.042969 186.46875 653.113281 208.675781 C 624.78125 227.820312 585.148438 226.671875 553.5625 206.570312 C 541.308594 219.589844 514.316406 240.839844 470.089844 240.839844 Z M 470.089844 240.839844 " fill-opacity="1" fill-rule="nonzero"/><g clip-path="url(#457a5166d9)"><path fill="#737373" d="M 470.089844 940 L 139.464844 940 C 127.019531 940 115.148438 934.640625 106.917969 925.449219 C 98.6875 916.261719 94.664062 903.816406 96.195312 891.5625 L 113.808594 736.875 C 119.9375 683.078125 154.777344 637.132812 204.9375 616.839844 L 335.3125 564 C 341.246094 561.703125 347.949219 564.382812 350.246094 570.316406 C 352.542969 576.253906 349.863281 582.953125 343.929688 585.25 L 213.554688 638.089844 C 171.242188 655.128906 141.761719 693.992188 136.59375 739.363281 L 118.980469 894.054688 C 118.214844 899.988281 120.128906 905.730469 124.148438 910.132812 C 128.167969 914.539062 133.527344 917.027344 139.464844 917.027344 L 470.089844 917.027344 C 476.410156 917.027344 481.578125 922.195312 481.578125 928.511719 C 481.578125 934.832031 476.410156 940 470.089844 940 Z M 470.089844 940 " fill-opacity="1" fill-rule="nonzero"/></g><path fill="#737373" d="M 232.125 933.109375 C 225.804688 933.109375 220.636719 927.9375 220.636719 921.621094 L 220.636719 784.546875 C 220.636719 778.226562 225.804688 773.058594 232.125 773.058594 C 238.441406 773.058594 243.609375 778.226562 243.609375 784.546875 L 243.609375 921.621094 C 243.609375 927.9375 238.441406 933.109375 232.125 933.109375 Z M 232.125 933.109375 " fill-opacity="1" fill-rule="nonzero"/><path fill="#737373" d="M 389.300781 905.921875 C 373.984375 905.921875 361.539062 893.480469 361.539062 878.164062 C 361.539062 862.847656 373.984375 850.402344 389.300781 850.402344 C 404.617188 850.402344 417.058594 862.847656 417.058594 878.164062 C 417.058594 893.480469 404.617188 905.921875 389.300781 905.921875 Z M 389.300781 873.570312 C 386.621094 873.570312 384.515625 875.675781 384.515625 878.355469 C 384.515625 881.035156 386.621094 883.140625 389.300781 883.140625 C 391.980469 883.140625 394.085938 881.035156 394.085938 878.355469 C 394.085938 875.675781 391.980469 873.570312 389.300781 873.570312 Z M 389.300781 873.570312 " fill-opacity="1" fill-rule="nonzero"/><path fill="#737373" d="M 389.300781 824.75 C 373.984375 824.75 361.539062 812.304688 361.539062 796.988281 C 361.539062 781.675781 373.984375 769.230469 389.300781 769.230469 C 404.617188 769.230469 417.058594 781.675781 417.058594 796.988281 C 417.058594 812.304688 404.617188 824.75 389.300781 824.75 Z M 389.300781 792.203125 C 386.621094 792.203125 384.515625 794.308594 384.515625 796.988281 C 384.515625 799.671875 386.621094 801.777344 389.300781 801.777344 C 391.980469 801.777344 394.085938 799.671875 394.085938 796.988281 C 394.085938 794.308594 391.980469 792.203125 389.300781 792.203125 Z M 389.300781 792.203125 " fill-opacity="1" fill-rule="nonzero"/><path fill="#737373" d="M 405.574219 747.023438 C 403.660156 747.023438 401.9375 746.640625 400.214844 745.683594 C 397.339844 744.152344 395.234375 741.277344 394.46875 738.214844 C 381.644531 682.695312 402.511719 648.8125 424.527344 636.558594 C 430.078125 633.496094 436.972656 635.410156 440.226562 640.960938 C 443.289062 646.511719 441.375 653.40625 435.820312 656.660156 C 425.101562 662.785156 409.976562 682.3125 414.570312 719.644531 C 450.945312 702.988281 458.796875 685.375 458.796875 664.507812 C 458.796875 658.191406 463.964844 653.023438 470.28125 653.023438 C 476.601562 653.023438 481.769531 658.191406 481.769531 664.507812 C 481.769531 702.605469 460.328125 727.113281 409.785156 746.449219 C 408.253906 746.832031 406.914062 747.023438 405.574219 747.023438 Z M 405.574219 747.023438 " fill-opacity="1" fill-rule="nonzero"/><path fill="#737373" d="M 470.089844 672.359375 L 458.222656 672.359375 C 439.652344 672.359375 424.527344 657.234375 424.527344 638.664062 L 424.527344 623.730469 C 424.527344 608.222656 437.164062 595.589844 452.667969 595.589844 L 470.089844 595.589844 C 476.410156 595.589844 481.578125 600.757812 481.578125 607.074219 C 481.578125 613.394531 476.410156 618.5625 470.089844 618.5625 L 452.667969 618.5625 C 449.796875 618.5625 447.5 620.859375 447.5 623.730469 L 447.5 638.664062 C 447.5 644.597656 452.285156 649.386719 458.222656 649.386719 L 470.089844 649.386719 C 476.410156 649.386719 481.578125 654.554688 481.578125 660.871094 C 481.578125 667.191406 476.410156 672.359375 470.089844 672.359375 Z M 470.089844 672.359375 " fill-opacity="1" fill-rule="nonzero"/><path fill="#737373" d="M 430.269531 652.066406 C 409.210938 652.066406 370.347656 647.660156 346.992188 618.179688 C 340.289062 609.753906 335.503906 599.992188 332.441406 589.078125 C 328.613281 575.105469 330.910156 560.171875 338.949219 545.8125 C 342.011719 540.453125 347.183594 536.816406 353.308594 536.050781 C 359.242188 535.089844 365.371094 537.199219 369.582031 541.410156 C 381.261719 552.894531 394.085938 563.042969 408.0625 571.65625 C 421.464844 580.082031 436.011719 587.164062 450.945312 592.71875 C 456.882812 594.824219 459.945312 601.523438 457.839844 607.457031 C 455.734375 613.394531 449.03125 616.457031 443.097656 614.351562 C 426.632812 608.222656 410.742188 600.566406 396 591.183594 C 382.21875 582.570312 369.007812 572.421875 357.136719 561.128906 C 353.691406 568.785156 352.925781 576.0625 354.839844 582.953125 C 356.945312 590.800781 360.582031 597.886719 365.371094 604.011719 C 382.601562 625.835938 413.613281 629.28125 430.460938 629.28125 C 436.78125 629.28125 441.949219 634.453125 441.949219 640.769531 C 441.949219 647.085938 436.585938 652.066406 430.269531 652.066406 Z M 430.269531 652.066406 " fill-opacity="1" fill-rule="nonzero"/><path fill="#737373" d="M 366.710938 565.914062 C 360.390625 565.914062 355.222656 560.746094 355.222656 554.429688 L 355.222656 508.863281 C 355.222656 502.546875 360.390625 497.375 366.710938 497.375 C 373.027344 497.375 378.195312 502.546875 378.195312 508.863281 L 378.195312 554.429688 C 378.195312 560.746094 373.027344 565.914062 366.710938 565.914062 Z M 366.710938 565.914062 " fill-opacity="1" fill-rule="nonzero"/><path fill="#737373" d="M 470.089844 552.511719 C 431.035156 552.511719 394.660156 537.199219 364.605469 508.097656 C 340.863281 485.125 322.101562 454.109375 313.296875 423.289062 C 299.511719 375.234375 302.382812 315.121094 303.148438 303.441406 C 303.148438 302.101562 303.339844 300.761719 303.339844 299.613281 L 303.339844 221.121094 C 303.339844 214.800781 308.511719 209.632812 314.828125 209.632812 C 321.144531 209.632812 326.316406 214.800781 326.316406 221.121094 L 326.316406 299.613281 C 326.316406 301.335938 326.316406 303.058594 326.125 304.78125 C 325.550781 315.695312 322.867188 372.554688 335.503906 416.96875 C 348.332031 462.152344 394.851562 529.347656 470.089844 529.347656 C 476.410156 529.347656 481.578125 534.515625 481.578125 540.835938 C 481.578125 547.152344 476.410156 552.511719 470.089844 552.511719 Z M 470.089844 552.511719 " fill-opacity="1" fill-rule="nonzero"/><path fill="#737373" d="M 470.089844 307.652344 L 314.636719 307.652344 C 308.320312 307.652344 303.148438 302.484375 303.148438 296.167969 C 303.148438 289.847656 308.320312 284.679688 314.636719 284.679688 L 470.089844 284.679688 C 476.410156 284.679688 481.578125 289.847656 481.578125 296.167969 C 481.578125 302.484375 476.410156 307.652344 470.089844 307.652344 Z M 470.089844 307.652344 " fill-opacity="1" fill-rule="nonzero"/><path fill="#737373" d="M 321.910156 421.753906 C 321.71875 421.753906 321.71875 421.753906 321.910156 421.753906 C 304.296875 421.5625 287.453125 414.289062 275.773438 401.269531 C 265.050781 389.402344 259.5 374.085938 260.839844 359.34375 C 263.136719 333.691406 284.769531 312.058594 312.339844 307.84375 C 318.65625 306.886719 324.402344 311.292969 325.359375 317.609375 C 326.316406 323.925781 321.910156 329.671875 315.59375 330.628906 C 298.554688 333.117188 284.960938 346.324219 283.621094 361.257812 C 282.855469 369.683594 286.109375 378.679688 292.621094 385.765625 C 300.085938 393.804688 310.808594 398.589844 321.910156 398.589844 C 328.230469 398.589844 333.398438 403.761719 333.398438 410.078125 C 333.207031 416.777344 328.230469 421.753906 321.910156 421.753906 Z M 321.910156 421.753906 " fill-opacity="1" fill-rule="nonzero"/><path fill="#737373" d="M 470.089844 240.839844 C 425.867188 240.839844 398.871094 219.589844 386.621094 206.953125 C 355.03125 227.054688 315.59375 228.203125 287.070312 209.058594 C 254.140625 186.851562 250.886719 147.988281 250.695312 136.691406 C 250.121094 101.464844 270.605469 58.964844 311 45.753906 C 337.800781 37.140625 362.117188 44.605469 376.28125 51.308594 C 384.707031 38.289062 399.257812 21.441406 422.230469 10.53125 C 436.972656 3.636719 453.433594 0 470.089844 0.382812 C 476.410156 0.382812 481.578125 5.742188 481.386719 12.0625 C 481.386719 18.378906 476.21875 23.355469 469.898438 23.355469 C 469.898438 23.355469 469.707031 23.355469 469.707031 23.355469 C 456.5 23.164062 443.480469 26.035156 431.992188 31.398438 C 408.445312 42.5 396.191406 61.644531 390.832031 71.984375 C 389.300781 74.855469 386.8125 76.960938 383.558594 77.917969 C 380.492188 78.875 377.046875 78.300781 374.367188 76.578125 C 367.667969 72.367188 344.121094 59.347656 318.082031 67.773438 C 288.21875 77.34375 273.09375 109.699219 273.667969 136.5 C 273.859375 145.117188 276.15625 174.214844 299.894531 190.296875 C 322.867188 205.804688 356.371094 202.742188 381.261719 182.832031 C 383.75 180.917969 387.003906 179.960938 390.257812 180.535156 C 393.511719 181.109375 396.191406 182.832031 398.105469 185.511719 C 399.0625 186.851562 421.273438 218.441406 470.089844 218.441406 C 476.410156 218.441406 481.578125 223.609375 481.578125 229.925781 C 481.578125 236.246094 476.410156 240.839844 470.089844 240.839844 Z M 470.089844 240.839844 " fill-opacity="1" fill-rule="nonzero"/><path fill="#737373" d="M 326.125 929.085938 C 319.804688 929.085938 314.636719 923.917969 314.636719 917.601562 L 314.636719 714.667969 C 314.636719 710.457031 316.933594 706.820312 320.378906 704.714844 L 405.765625 655.894531 C 411.316406 652.832031 418.210938 654.746094 421.464844 660.105469 C 424.71875 665.464844 422.613281 672.550781 417.25 675.804688 L 337.609375 721.175781 L 337.609375 917.410156 C 337.609375 923.917969 332.441406 929.085938 326.125 929.085938 Z M 326.125 929.085938 " fill-opacity="1" fill-rule="nonzero"/></svg>