<svg xmlns="http://www.w3.org/2000/svg" xmlns:xlink="http://www.w3.org/1999/xlink" width="1254" zoomAndPan="magnify" viewBox="0 0 940.5 940.499971" height="1254" preserveAspectRatio="xMidYMid meet" version="1.0"><defs><clipPath id="9b63c7a989"><path d="M 282 307 L 658.300781 307 L 658.300781 633 L 282 633 Z M 282 307 " clip-rule="nonzero"/></clipPath></defs><g clip-path="url(#9b63c7a989)"><path fill="#000000" d="M 470.15625 632.683594 C 467.476562 632.683594 464.941406 631.464844 463.265625 629.371094 C 443.371094 604.480469 410.261719 581.445312 303.628906 581.445312 C 291.300781 581.445312 282 571.484375 282 558.273438 L 282 329.246094 C 282 317.300781 291.683594 307.617188 303.582031 307.617188 C 395.148438 308.027344 447.886719 327.074219 470.152344 368.722656 C 492.414062 327.074219 545.140625 308.027344 636.632812 307.617188 C 648.621094 307.617188 658.300781 317.300781 658.300781 329.195312 L 658.300781 559.816406 C 658.300781 571.742188 648.597656 581.445312 636.667969 581.445312 C 530.066406 581.445312 496.945312 604.476562 477.035156 629.371094 C 475.367188 631.464844 472.835938 632.683594 470.15625 632.683594 Z M 303.59375 325.257812 C 301.410156 325.257812 299.640625 327.023438 299.640625 329.199219 L 299.640625 558.269531 C 299.640625 559.570312 299.929688 563.808594 303.628906 563.808594 C 389.296875 563.808594 438.738281 577.453125 470.15625 610.457031 C 501.589844 577.449219 551.027344 563.808594 636.675781 563.808594 C 638.875 563.808594 640.664062 562.019531 640.664062 559.816406 L 640.664062 329.246094 C 640.664062 327.023438 638.898438 325.257812 636.722656 325.257812 C 539.625 325.691406 490.890625 347.34375 478.703125 395.457031 C 477.710938 399.371094 474.1875 402.113281 470.152344 402.113281 C 466.117188 402.113281 462.59375 399.371094 461.601562 395.457031 C 449.417969 347.34375 400.683594 325.691406 303.59375 325.257812 Z M 303.59375 325.257812 " fill-opacity="1" fill-rule="evenodd"/></g><path fill="#000000" d="M 470.15625 632.683594 C 465.285156 632.683594 461.335938 628.738281 461.335938 623.863281 L 461.335938 449.667969 C 461.335938 444.800781 465.285156 440.851562 470.15625 440.851562 C 475.027344 440.851562 478.972656 444.800781 478.972656 449.667969 L 478.972656 623.859375 C 478.972656 628.734375 475.027344 632.683594 470.15625 632.683594 Z M 470.15625 632.683594 " fill-opacity="1" fill-rule="evenodd"/></svg>