<svg xmlns="http://www.w3.org/2000/svg" xmlns:xlink="http://www.w3.org/1999/xlink" width="1254" zoomAndPan="magnify" viewBox="0 0 940.5 940.499971" height="1254" preserveAspectRatio="xMidYMid meet" version="1.0"><defs><clipPath id="039dc01852"><path d="M 0 96.351562 L 940 96.351562 L 940 843.703125 L 0 843.703125 Z M 0 96.351562 " clip-rule="nonzero"/></clipPath></defs><g clip-path="url(#039dc01852)"><path fill="#030404" d="M 62.414062 163.480469 C 62.742188 159.726562 62.742188 146.25 62.367188 123.15625 C 62.132812 106.207031 70.441406 97.429688 87.433594 96.867188 C 177.796875 93.863281 272.707031 104.472656 355.839844 131.886719 C 393.628906 144.328125 431.179688 162.023438 468.496094 184.886719 C 469.53125 185.542969 470.84375 185.542969 471.832031 184.886719 C 583.457031 114.660156 723.574219 91.75 855.851562 97.242188 C 875.144531 98.039062 878.242188 114.234375 877.726562 131.183594 C 877.398438 142.402344 877.351562 153.386719 877.539062 164.042969 C 877.539062 164.984375 878.335938 165.734375 879.273438 165.734375 C 893.074219 165.640625 906.59375 163.996094 917.53125 168.035156 C 932.082031 173.433594 939.359375 185.167969 939.359375 203.242188 C 939.3125 452.515625 939.265625 637.148438 939.3125 757.136719 C 939.3125 774.179688 937.855469 785.070312 934.898438 789.859375 C 925.980469 804.457031 914.714844 807.460938 896.21875 807.460938 C 806.046875 807.648438 695.597656 807.695312 564.960938 807.507812 C 562.847656 807.507812 560.832031 808.496094 559.5625 810.183594 C 531.539062 846.847656 470.09375 847.785156 429.492188 839.101562 C 411.230469 835.207031 396.351562 826.191406 384.757812 811.96875 C 382.457031 809.152344 379.027344 807.507812 375.367188 807.554688 C 278.578125 807.648438 170.988281 807.742188 52.605469 807.742188 C 34.625 807.742188 23.359375 806.335938 18.667969 803.425781 C 3.550781 793.988281 0.78125 780.9375 0.78125 762.113281 C 0.875 418.480469 0.78125 234.273438 0.59375 209.4375 C 0.5 197.375 1.484375 189.300781 3.503906 185.308594 C 15.992188 160.710938 37.582031 167.613281 59.878906 165.921875 C 61.242188 165.828125 62.273438 164.792969 62.414062 163.480469 Z M 459.203125 763.242188 L 459.203125 207.796875 C 459.203125 205.214844 457.84375 202.867188 455.589844 201.597656 C 394.238281 166.203125 329.085938 142.589844 260.128906 130.761719 C 203.144531 120.949219 145.546875 117.003906 87.433594 118.835938 C 86.027344 118.882812 84.898438 120.058594 84.898438 121.464844 L 84.898438 692.214844 C 84.898438 693.902344 86.261719 695.265625 87.949219 695.265625 C 111.609375 695.125 134.375 695.3125 156.296875 695.921875 C 258.390625 698.738281 364.289062 721.460938 457.984375 763.992188 C 458.40625 764.179688 458.921875 763.992188 459.109375 763.570312 C 459.15625 763.476562 459.203125 763.382812 459.203125 763.242188 Z M 481.640625 763.191406 C 481.640625 763.664062 482.015625 764.039062 482.484375 764.039062 C 482.628906 764.039062 482.722656 763.992188 482.863281 763.945312 C 576.507812 721.414062 682.359375 698.644531 784.40625 695.828125 C 806.328125 695.21875 829.140625 694.984375 852.753906 695.125 C 854.445312 695.125 855.804688 693.761719 855.804688 692.074219 L 855.617188 121.605469 C 855.617188 120.152344 854.492188 118.976562 853.082031 118.976562 C 795.015625 117.144531 737.46875 121.136719 680.480469 130.949219 C 611.574219 142.777344 546.464844 166.390625 485.160156 201.738281 C 482.957031 203.007812 481.546875 205.402344 481.546875 207.9375 Z M 470.28125 821.121094 C 491.265625 821.121094 518.160156 818.726562 533.464844 804.597656 C 536.421875 801.875 540.035156 797.792969 544.308594 792.296875 C 545.246094 791.125 546.464844 790.140625 547.828125 789.433594 C 552.710938 786.945312 557.449219 785.726562 562.097656 785.679688 C 629.410156 785.304688 739.910156 785.210938 893.546875 785.492188 C 908.941406 785.492188 916.828125 784.976562 916.828125 767.886719 C 917.0625 439.183594 917.109375 249.339844 916.921875 198.40625 C 916.921875 191.789062 913.730469 188.359375 907.488281 188.125 C 895.1875 187.703125 885.847656 187.65625 879.460938 188.03125 C 878.523438 188.078125 877.773438 188.878906 877.773438 189.863281 C 877.914062 426.320312 877.867188 594.476562 877.726562 694.324219 C 877.679688 713.011719 862.46875 718.457031 844.726562 718.03125 C 749.0625 715.640625 656.308594 726.625 565.898438 755.355469 C 535.433594 765.023438 505.675781 778.964844 478.214844 790.375 C 475.867188 791.359375 473.238281 791.828125 470.328125 791.828125 C 467.417969 791.828125 464.742188 791.359375 462.394531 790.375 C 434.9375 778.964844 405.175781 765.023438 374.710938 755.355469 C 284.351562 726.578125 191.59375 715.59375 95.929688 717.984375 C 78.1875 718.410156 62.976562 713.011719 62.929688 694.277344 C 62.742188 594.382812 62.742188 426.226562 62.882812 189.816406 C 62.882812 188.832031 62.132812 188.078125 61.195312 187.984375 C 54.8125 187.609375 45.46875 187.65625 33.171875 188.078125 C 26.882812 188.3125 23.734375 191.742188 23.734375 198.359375 C 23.5 249.292969 23.5 439.136719 23.6875 767.839844 C 23.6875 784.929688 31.574219 785.445312 46.972656 785.445312 C 200.609375 785.210938 311.105469 785.257812 378.417969 785.632812 C 383.066406 785.679688 387.808594 786.945312 392.6875 789.386719 C 394.050781 790.09375 395.269531 791.078125 396.210938 792.25 C 400.480469 797.746094 404.09375 801.828125 407.054688 804.550781 C 422.355469 818.679688 449.253906 821.121094 470.28125 821.121094 Z M 470.28125 821.121094 " fill-opacity="1" fill-rule="nonzero"/></g></svg>