<svg xmlns="http://www.w3.org/2000/svg" xmlns:xlink="http://www.w3.org/1999/xlink" width="1254" zoomAndPan="magnify" viewBox="0 0 940.5 940.499971" height="1254" preserveAspectRatio="xMidYMid meet" version="1.0"><defs><clipPath id="be19e95081"><path d="M 0 3.148438 L 574.945312 3.148438 L 574.945312 485.890625 L 0 485.890625 Z M 0 3.148438 " clip-rule="nonzero"/></clipPath><clipPath id="42e7a914a9"><path d="M 449.753906 486.113281 L 939.992188 486.113281 L 939.992188 940 L 449.753906 940 Z M 449.753906 486.113281 " clip-rule="nonzero"/></clipPath><clipPath id="4ca6d740aa"><path d="M 1 0.113281 L 490.992188 0.113281 L 490.992188 454 L 1 454 Z M 1 0.113281 " clip-rule="nonzero"/></clipPath><clipPath id="ee9223c500"><rect x="0" width="491" y="0" height="454"/></clipPath></defs><path fill="#ff3131" d="M 315.417969 117.910156 L 271.664062 142.570312 L 253.113281 159.390625 C 238.835938 172.261719 226.074219 198.601562 230.671875 198.546875 C 232.238281 198.492188 236.457031 197.789062 237.429688 196.492188 L 242.945312 189.40625 C 252.734375 176.75 260.6875 161.714844 274.476562 153.007812 L 310.332031 130.292969 C 318.121094 125.375 326.828125 136.027344 331.316406 129.808594 L 340.023438 117.640625 C 342.132812 114.664062 332.5625 108.230469 315.417969 117.910156 Z M 328.503906 123.101562 L 324.988281 118.019531 L 332.507812 119.371094 C 333.480469 119.585938 329.046875 123.859375 328.503906 123.101562 Z M 328.503906 123.101562 " fill-opacity="1" fill-rule="nonzero"/><g clip-path="url(#be19e95081)"><path fill="#ff3131" d="M 511.734375 262.742188 L 512.058594 190.109375 L 511.734375 165.988281 L 535.152344 141.8125 L 551.324219 125.101562 C 553.488281 122.941406 553.972656 114.71875 551.648438 112.449219 L 530.285156 91.246094 L 517.738281 81.890625 C 515.035156 79.890625 508.492188 87.625 505.894531 90.21875 L 459.980469 137.164062 C 458.734375 138.460938 455.707031 140.679688 454.515625 140.03125 C 453.378906 139.328125 450.675781 137 449.863281 135.703125 L 426.125 96.925781 L 403.085938 54.417969 L 380.371094 14.289062 L 374.691406 5.09375 C 374.3125 4.445312 372.039062 2.550781 371.390625 2.984375 L 368.148438 4.933594 L 344.242188 19.480469 L 347.378906 30.1875 L 361.875 57.878906 L 372.039062 77.023438 L 364.46875 87.460938 L 366.6875 130.132812 C 364.46875 132.621094 358.953125 136.296875 355.4375 137.867188 L 313.308594 156.6875 L 271.609375 177.292969 C 268.3125 178.914062 260.6875 185.890625 259.765625 189.515625 L 250.949219 224.832031 L 246.246094 248.679688 L 243.269531 257.820312 L 232.832031 249.761719 C 206.65625 229.425781 186.214844 215.691406 152.144531 217.800781 C 143.867188 218.339844 154.359375 200.277344 140.839844 178.804688 C 136.835938 172.480469 131.539062 167.179688 125.96875 163.230469 C 102.332031 146.355469 75.183594 153.386719 59.230469 176.480469 C 45.980469 195.625 50.144531 223.101562 68.53125 240.570312 C 79.1875 250.683594 93.03125 255.550781 107.632812 252.414062 C 116.015625 248.789062 108.011719 266.203125 123.480469 286.972656 C 124.019531 289.132812 124.019531 292.054688 123.316406 291.296875 L 89.460938 272.207031 L 30.132812 238.785156 C 22.777344 234.621094 8.878906 242.839844 6.605469 249.222656 L 0.875 265.609375 C -0.421875 269.339844 3.6875 277.074219 6.984375 278.804688 L 27.210938 289.621094 L 81.242188 318.339844 L 119.207031 338.132812 L 100.0625 390.539062 L 88.164062 424.175781 L 80.863281 444.945312 L 46.085938 445.539062 C 42.03125 445.59375 37.273438 452.679688 37.433594 456.789062 L 38.300781 477.933594 C 38.460938 482.53125 47.546875 485.613281 53.386719 485.613281 L 382.316406 485.777344 L 510.652344 485.777344 L 510.652344 429.585938 L 510.816406 424.125 C 547.699219 415.742188 575.226562 382.75 575.226562 343.324219 C 575.226562 304.222656 548.132812 271.449219 511.734375 262.742188 Z M 257.550781 394.109375 C 257.765625 387.507812 266.148438 375.9375 270.472656 370.851562 L 286.863281 351.652344 L 309.304688 328.613281 L 325.691406 309.902344 L 357.058594 277.128906 L 371.121094 291.40625 L 348.785156 312.820312 L 325.367188 337.105469 L 308.710938 355.601562 L 290.917969 376.042969 C 287.238281 380.261719 278.046875 389.1875 278.046875 394.648438 L 277.722656 444.835938 L 255.925781 444.78125 Z M 245.488281 355.277344 L 235.914062 349.867188 L 267.988281 351.003906 L 259.710938 362.253906 Z M 313.363281 222.398438 L 353.003906 195.894531 L 362.957031 188.109375 L 383.992188 169.9375 C 385.34375 168.800781 390.753906 168.316406 392.863281 168.691406 L 349.597656 213.039062 L 333.804688 230.402344 C 330.019531 234.566406 327.316406 243.8125 331.859375 248.519531 C 337.265625 254.144531 341.105469 256.46875 348.839844 261.335938 C 349.433594 261.335938 347.21875 267.988281 345.433594 269.933594 L 312.710938 304.765625 L 313.578125 233.375 Z M 406.871094 172.261719 L 419.039062 160.582031 L 426.773438 168.367188 L 410.277344 185.730469 L 361.980469 236.675781 L 348.460938 253.546875 C 343.269531 250.140625 340.996094 240.894531 346.460938 235.160156 Z M 289.621094 399.300781 L 302.382812 382.480469 L 311.902344 371.5 L 343.917969 337.917969 L 352.03125 328.558594 L 381.234375 300.273438 L 398.8125 284.863281 L 438.128906 243.703125 L 473.230469 206.820312 L 472.796875 262.742188 C 436.398438 271.503906 409.359375 304.222656 409.359375 343.324219 C 409.359375 382.695312 436.832031 415.632812 473.660156 424.125 L 473.605469 445.214844 L 367.496094 445.160156 L 334.941406 444.457031 L 331.859375 444.457031 L 331.859375 444.511719 L 289.457031 444.675781 Z M 491.617188 401.191406 C 463.386719 401.191406 439.804688 381.128906 434.34375 354.519531 C 434.289062 354.410156 434.289062 354.25 434.289062 354.085938 C 433.53125 350.410156 433.152344 346.625 433.152344 342.730469 C 433.152344 311.199219 458.085938 285.511719 489.292969 284.320312 C 490.265625 284.265625 491.292969 284.265625 492.320312 284.265625 C 493.078125 284.265625 493.886719 284.265625 494.644531 284.320312 C 525.527344 285.890625 550.078125 311.46875 550.078125 342.730469 C 550.078125 375.015625 523.902344 401.191406 491.617188 401.191406 Z M 485.453125 197.679688 C 485.453125 191.246094 492.480469 182.972656 499.078125 179.078125 L 499.132812 260.742188 C 496.863281 260.523438 494.589844 260.417969 492.320312 260.417969 C 490.046875 260.417969 487.777344 260.523438 485.558594 260.742188 Z M 465.710938 150.683594 L 517.144531 97.359375 L 523.199219 102.875 L 539.585938 117.746094 L 501.027344 158.09375 L 472.6875 187.730469 L 458.195312 203.359375 L 404.976562 258.253906 L 391.726562 272.964844 L 379.667969 283.023438 L 366.363281 263.5 C 364.144531 260.253906 364.738281 252.789062 368.253906 249.222656 Z M 445.59375 149.117188 L 437.480469 158.199219 C 435.585938 160.363281 429.476562 153.984375 429.421875 151.386719 C 429.421875 148.25 434.074219 142.410156 436.34375 142.085938 Z M 357.332031 24.996094 L 369.066406 18.613281 L 433.425781 137.21875 L 421.6875 143.597656 Z M 255.980469 267.394531 L 270.527344 197.953125 C 271.449219 193.515625 279.128906 187.566406 282.96875 185.835938 L 339.320312 160.09375 L 374.582031 142.839844 C 377.394531 141.488281 380.75 133.324219 380.585938 130.078125 L 378.691406 95.25 C 381.289062 98.117188 384.640625 102.226562 385.667969 104.28125 L 399.191406 132.023438 C 401.246094 136.242188 404.761719 145.382812 405.355469 150.898438 C 405.679688 153.984375 395.351562 154.035156 392.160156 154.144531 C 380.53125 154.738281 370.582031 165.070312 361.765625 171.992188 L 348.839844 182.160156 L 303.953125 212.230469 C 301.679688 213.742188 299.355469 220.449219 299.410156 223.585938 L 300.058594 279.667969 L 298.542969 304.386719 L 285.402344 305.304688 L 249.492188 304.925781 Z M 141.921875 233.214844 C 158.957031 228.886719 179.886719 228.996094 194.976562 239.863281 L 232.941406 267.339844 L 241.054688 274.046875 L 236.347656 301.628906 C 228.992188 297.789062 220.933594 293.082031 215.90625 287.296875 L 200.492188 269.554688 L 188 253.820312 C 185.726562 251.007812 177.5625 249.003906 174.480469 251.4375 C 172.585938 252.953125 173.777344 259.929688 175.34375 261.714844 L 183.671875 271.179688 L 201.734375 291.136719 L 217.417969 306.171875 C 221.636719 310.171875 231.265625 313.253906 237.648438 315.472656 C 252.25 320.5 267.390625 322.664062 282.320312 319.257812 C 288.59375 317.796875 293.1875 317.527344 300.542969 318.390625 L 284.914062 335.535156 L 231.101562 335.15625 C 219.527344 335.050781 208.171875 328.179688 198.546875 322.230469 L 147.328125 271.125 L 140.839844 274.964844 C 139.109375 275.992188 141.867188 282.859375 143.433594 284.484375 L 165.121094 306.546875 L 164.472656 309.46875 L 145.003906 297.460938 C 130.617188 284.644531 125.480469 264.960938 126.074219 246.839844 Z M 77.832031 231.15625 C 59.933594 215.746094 61.285156 184.917969 80.265625 172.855469 C 93.515625 164.476562 111.3125 165.828125 122.722656 176.589844 C 139.324219 192.21875 140.027344 218.179688 124.183594 231.105469 C 110.554688 242.191406 91.03125 242.515625 77.832031 231.15625 Z M 11.960938 267.609375 L 22.074219 248.734375 L 253.277344 372.527344 L 243.164062 391.347656 Z M 243.164062 445.160156 L 120.449219 445.214844 L 131.96875 412.875 L 151.710938 357.546875 L 191.242188 377.503906 L 237.808594 402.058594 C 239.484375 402.921875 242.675781 408.167969 242.675781 409.953125 Z M 110.230469 401.03125 L 129.535156 345.269531 L 139.757812 353.652344 L 107.09375 444.242188 L 94.597656 444.730469 Z M 499.1875 472.363281 L 432.828125 472.363281 L 179.128906 472.472656 L 123.53125 472.527344 L 52.359375 472.636719 C 50.25 469.5 50.46875 460.898438 53.335938 458.03125 L 249.113281 457.816406 L 289.671875 457.761719 L 486.046875 457.925781 L 485.667969 425.960938 C 487.886719 426.125 490.101562 426.234375 492.320312 426.234375 C 494.589844 426.234375 496.863281 426.125 499.078125 425.90625 L 499.1875 429.421875 Z M 499.1875 472.363281 " fill-opacity="1" fill-rule="nonzero"/></g><path fill="#ff3131" d="M 515.304688 306.65625 C 503.675781 298.273438 488.261719 297.355469 474.203125 303.035156 C 464.25 307.089844 453.328125 317.636719 449.867188 330.722656 C 445.160156 348.839844 452.460938 368.472656 467.875 379.667969 C 483.558594 390.972656 506.652344 389.996094 522.171875 372.960938 C 540.398438 352.953125 537.585938 322.71875 515.304688 306.65625 Z M 491.183594 362.902344 C 479.988281 362.902344 470.902344 353.871094 470.902344 342.675781 C 470.902344 331.480469 479.988281 322.394531 491.183594 322.394531 C 502.378906 322.394531 511.410156 331.480469 511.410156 342.675781 C 511.410156 353.871094 502.378906 362.902344 491.183594 362.902344 Z M 491.183594 362.902344 " fill-opacity="1" fill-rule="nonzero"/><g clip-path="url(#42e7a914a9)"><g transform="matrix(1, 0, 0, 1, 449, 486)"><g clip-path="url(#ee9223c500)"><g clip-path="url(#4ca6d740aa)"><path fill="#ff3131" d="M 372.683594 453.207031 L 422.527344 453.449219 C 438.851562 453.53125 434.773438 432.777344 436.058594 421.691406 L 457.195312 420.972656 C 473.855469 420.410156 487.117188 406.539062 489.824219 390.773438 C 493.445312 369.675781 480.203125 349.984375 458.683594 348.167969 L 364.664062 340.226562 L 159.511719 322.769531 L 105.386719 317.585938 L 138.746094 184.28125 L 147.726562 149.371094 L 172.546875 149.566406 L 270.875 149.585938 C 275.515625 149.585938 280.089844 145.738281 280.230469 140.960938 C 280.847656 120.378906 265.421875 104.019531 245.289062 102.304688 L 214.105469 99.652344 L 141.101562 93.652344 C 134.332031 93.097656 130.269531 90.597656 127 84.824219 L 99.347656 36.042969 L 80.871094 4.347656 C 78.066406 -0.464844 70.761719 -1.359375 66.53125 1.601562 L 54.714844 9.871094 C 48.359375 14.320312 44.007812 21.542969 40.730469 28.625 C 39.710938 37.578125 41.519531 45.507812 45.921875 53.382812 L 83.597656 120.769531 L 58.675781 218.078125 L 35.410156 313.226562 C 15.925781 318.316406 1.691406 335.074219 1.554688 355.511719 L 1.332031 388.9375 C 2.671875 404.835938 13.972656 416.929688 29.324219 420.464844 L 30.089844 444.0625 C 30.238281 448.742188 38.003906 453.636719 42.714844 453.625 L 132.777344 453.300781 C 142.183594 453.269531 148.449219 443.105469 150.535156 435.707031 L 154.609375 421.25 L 264.234375 421.273438 L 352.296875 421.125 C 353.589844 421.125 356.851562 423.390625 357.1875 424.761719 L 361.40625 441.890625 C 362.308594 445.566406 368.335938 453.171875 372.675781 453.195312 Z M 259.398438 131.164062 L 124.539062 131.714844 C 114.914062 131.757812 107.726562 128.28125 103.269531 119.925781 L 86.011719 87.578125 L 60.320312 41.316406 C 59.550781 39.933594 58.25 36.351562 57.414062 34.183594 C 60.488281 29.273438 64.105469 25.335938 70.097656 21.320312 L 105.621094 83.464844 L 117.234375 103.746094 C 118.699219 106.300781 122.21875 109.398438 125.136719 109.671875 L 181.210938 114.929688 L 248.144531 121.421875 C 252.980469 121.886719 257.921875 126.679688 259.398438 131.175781 Z M 87.683594 316.480469 L 53.640625 313.164062 L 96.921875 141.644531 C 102.695312 143.960938 108.339844 147.589844 112.640625 148.105469 L 128.816406 150.03125 L 117.792969 193.894531 L 87.679688 316.484375 Z M 470.371094 375.816406 C 475.5 386.339844 468.652344 403.605469 455.0625 403.609375 L 33.335938 403.71875 C 27.417969 402.039062 20.269531 397.265625 19.941406 391.234375 C 19.242188 378.40625 19.378906 366.761719 19.769531 354.253906 C 20.160156 341.746094 30.878906 329.84375 44.222656 330.953125 L 165.917969 341.027344 L 285.734375 351.269531 L 404.484375 361.105469 L 453.898438 365.203125 C 460.636719 365.761719 466.75 368.402344 470.363281 375.816406 Z M 378.523438 435.890625 L 374.730469 421.292969 L 417.988281 421.460938 L 417.773438 435.96875 L 378.523438 435.886719 Z M 47.285156 435.902344 L 47.347656 421.257812 L 136.085938 421.382812 C 134.839844 427.488281 133.035156 432.386719 129.785156 435.902344 Z M 47.285156 435.902344 " fill-opacity="1" fill-rule="nonzero"/></g></g></g></g></svg>