<svg xmlns="http://www.w3.org/2000/svg" xmlns:xlink="http://www.w3.org/1999/xlink" width="1254" zoomAndPan="magnify" viewBox="0 0 940.5 940.499971" height="1254" preserveAspectRatio="xMidYMid meet" version="1.0"><defs><clipPath id="18ff968e56"><path d="M 408 172 L 733.109375 172 L 733.109375 356 L 408 356 Z M 408 172 " clip-rule="nonzero"/></clipPath><clipPath id="1f1ebbbec5"><path d="M 356 171.675781 L 377 171.675781 L 377 308 L 356 308 Z M 356 171.675781 " clip-rule="nonzero"/></clipPath><clipPath id="10e072f1a7"><path d="M 469 660 L 532 660 L 532 844.066406 L 469 844.066406 Z M 469 660 " clip-rule="nonzero"/></clipPath><clipPath id="4b1081be07"><path d="M 0 171.675781 L 325 171.675781 L 325 356 L 0 356 Z M 0 171.675781 " clip-rule="nonzero"/></clipPath><clipPath id="988f321734"><path d="M 356 171.675781 L 377 171.675781 L 377 308 L 356 308 Z M 356 171.675781 " clip-rule="nonzero"/></clipPath><clipPath id="f8eaee9b2f"><path d="M 201 660 L 264 660 L 264 844.066406 L 201 844.066406 Z M 201 660 " clip-rule="nonzero"/></clipPath><clipPath id="4be4059fbd"><path d="M 619.53125 452.828125 L 940 452.828125 L 940 773.65625 L 619.53125 773.65625 Z M 619.53125 452.828125 " clip-rule="nonzero"/></clipPath></defs><g clip-path="url(#18ff968e56)"><path fill="#ff3131" d="M 527.730469 355.410156 C 490.0625 355.410156 451.242188 346.527344 414.398438 328.433594 C 409.464844 325.964844 407.488281 320.042969 409.957031 315.273438 C 412.425781 310.339844 418.34375 308.367188 423.117188 310.832031 C 501.90625 349.652344 590.894531 342.90625 649.78125 293.726562 C 693.863281 257.046875 708.503906 206.710938 713.4375 180.066406 C 714.425781 174.636719 719.523438 171.183594 724.953125 172.167969 C 730.378906 173.15625 733.832031 178.253906 732.847656 183.683594 C 727.582031 212.960938 711.296875 268.230469 662.445312 309.023438 C 625.4375 339.617188 577.898438 355.410156 527.730469 355.410156 Z M 527.730469 355.410156 " fill-opacity="1" fill-rule="nonzero"/></g><g clip-path="url(#1f1ebbbec5)"><path fill="#ff3131" d="M 366.53125 307.707031 C 361.105469 307.707031 356.664062 303.265625 356.664062 297.839844 L 356.664062 181.710938 C 356.664062 176.28125 361.105469 171.839844 366.53125 171.839844 C 371.960938 171.839844 376.402344 176.28125 376.402344 181.710938 L 376.402344 297.671875 C 376.402344 303.265625 371.960938 307.707031 366.53125 307.707031 Z M 366.53125 307.707031 " fill-opacity="1" fill-rule="nonzero"/></g><path fill="#ff3131" d="M 408.96875 242.898438 C 390.875 242.898438 372.945312 235.660156 359.457031 222.007812 C 355.675781 218.0625 355.675781 211.8125 359.457031 208.027344 C 363.40625 204.246094 369.65625 204.246094 373.441406 208.027344 C 386.765625 221.515625 406.503906 226.449219 423.609375 220.527344 C 444.828125 213.292969 452.230469 192.402344 453.050781 189.933594 C 454.695312 184.835938 460.289062 182.039062 465.554688 183.683594 C 470.652344 185.328125 473.449219 190.921875 471.804688 196.183594 C 469.996094 201.613281 459.632812 228.917969 430.023438 239.117188 C 423.28125 241.746094 416.042969 242.898438 408.96875 242.898438 Z M 408.96875 242.898438 " fill-opacity="1" fill-rule="nonzero"/><path fill="#ff3131" d="M 434.628906 572.203125 C 420.484375 572.203125 408.476562 569.40625 399.101562 565.953125 C 372.945312 556.25 359.292969 538.484375 358.636719 537.660156 C 357.320312 536.015625 356.664062 533.878906 356.664062 531.738281 L 356.664062 470.878906 C 356.664062 465.453125 361.105469 461.011719 366.53125 461.011719 C 371.960938 461.011719 376.402344 465.453125 376.402344 470.878906 L 376.402344 528.121094 C 385.941406 538.484375 428.378906 576.316406 503.222656 529.929688 C 506.347656 527.957031 508.15625 524.503906 507.664062 520.882812 C 494.503906 399.328125 399.429688 407.878906 395.480469 408.210938 C 390.054688 408.703125 385.285156 404.917969 384.625 399.492188 C 383.96875 394.0625 387.914062 389.292969 393.34375 388.636719 C 395.152344 388.472656 439.5625 384.03125 477.398438 414.460938 C 505.359375 436.996094 522.136719 472.03125 527.238281 518.746094 C 528.386719 529.765625 523.125 540.785156 513.585938 546.707031 C 482.496094 565.953125 456.011719 572.203125 434.628906 572.203125 Z M 434.628906 572.203125 " fill-opacity="1" fill-rule="nonzero"/><path fill="#ff3131" d="M 447.460938 699.351562 C 438.414062 699.351562 429.367188 698.367188 421.140625 696.558594 C 390.054688 689.976562 356.664062 671.0625 356.664062 644.742188 L 356.664062 601.8125 C 356.664062 596.382812 361.105469 591.941406 366.53125 591.941406 C 371.960938 591.941406 376.402344 596.382812 376.402344 601.8125 L 376.402344 644.90625 C 376.402344 655.601562 394.988281 671.0625 425.089844 677.3125 C 454.203125 683.398438 490.0625 679.613281 503.058594 650.007812 C 527.730469 594.246094 484.140625 558.386719 482.332031 556.90625 C 478.054688 553.453125 477.398438 547.367188 480.851562 543.089844 C 484.304688 538.8125 490.390625 538.15625 494.667969 541.445312 C 495.324219 541.9375 509.472656 553.289062 519.671875 573.191406 C 529.210938 591.777344 537.269531 621.550781 521.152344 658.066406 C 507.496094 688.828125 476.902344 699.351562 447.460938 699.351562 Z M 447.460938 699.351562 " fill-opacity="1" fill-rule="nonzero"/><g clip-path="url(#10e072f1a7)"><path fill="#ff3131" d="M 479.863281 844.265625 C 477.230469 844.265625 474.601562 843.28125 472.625 841.140625 C 468.84375 837.195312 469.171875 830.945312 473.121094 827.160156 C 482.824219 818.113281 505.851562 793.113281 510.625 753.800781 C 515.230469 715.636719 499.765625 686.359375 492.859375 675.503906 C 489.898438 670.898438 491.378906 664.8125 495.984375 661.851562 C 500.589844 658.890625 506.675781 660.371094 509.636719 664.976562 C 519.503906 680.601562 535.460938 713.335938 530.195312 756.101562 C 524.605469 801.828125 497.792969 831.109375 486.609375 841.636719 C 484.796875 843.445312 482.332031 844.265625 479.863281 844.265625 Z M 479.863281 844.265625 " fill-opacity="1" fill-rule="nonzero"/></g><path fill="#ff3131" d="M 366.53125 780.445312 C 361.105469 780.445312 356.664062 776.003906 356.664062 770.578125 L 356.664062 716.460938 C 356.664062 711.03125 361.105469 706.589844 366.53125 706.589844 C 371.960938 706.589844 376.402344 711.03125 376.402344 716.460938 L 376.402344 770.578125 C 376.402344 776.003906 371.960938 780.445312 366.53125 780.445312 Z M 366.53125 780.445312 " fill-opacity="1" fill-rule="nonzero"/><path fill="#ff3131" d="M 637.773438 775.675781 C 633.332031 775.675781 629.21875 772.550781 628.230469 768.109375 C 616.554688 718.761719 611.617188 670.402344 613.265625 620.398438 C 613.265625 620.234375 613.265625 620.234375 613.265625 620.070312 C 614.910156 592.4375 618.035156 562.828125 630.535156 534.371094 C 635.632812 523.1875 640.734375 512 645.832031 501.144531 C 669.683594 449.824219 692.21875 401.464844 698.960938 344.882812 C 702.25 306.71875 705.378906 270.699219 697.8125 234.839844 C 696.660156 229.574219 700.113281 224.3125 705.378906 223.160156 C 710.640625 222.007812 715.902344 225.464844 717.054688 230.726562 C 725.28125 269.546875 721.824219 308.695312 718.535156 346.691406 C 718.535156 346.855469 718.535156 346.855469 718.535156 347.019531 C 711.628906 406.730469 687.285156 459.035156 663.761719 509.535156 C 658.828125 520.226562 653.5625 531.410156 648.628906 542.433594 C 637.445312 567.761719 634.484375 595.234375 633.003906 621.058594 C 631.355469 669.253906 636.128906 715.800781 647.476562 763.339844 C 648.792969 768.601562 645.503906 774.03125 640.074219 775.183594 C 639.417969 775.511719 638.59375 775.675781 637.773438 775.675781 Z M 708.667969 346.03125 Z M 708.667969 346.03125 " fill-opacity="1" fill-rule="nonzero"/><g clip-path="url(#4b1081be07)"><path fill="#ff3131" d="M 205.332031 355.410156 C 155.328125 355.410156 107.628906 339.617188 70.617188 308.695312 C 21.765625 267.902344 5.480469 212.632812 0.21875 183.355469 C -0.769531 177.925781 2.847656 172.828125 8.113281 171.839844 C 13.539062 170.851562 18.640625 174.472656 19.625 179.734375 C 24.398438 206.382812 39.199219 256.714844 83.285156 293.398438 C 142.335938 342.578125 231.324219 349.324219 309.949219 310.503906 C 314.882812 308.035156 320.804688 310.175781 323.105469 314.945312 C 325.574219 319.878906 323.4375 325.800781 318.664062 328.105469 C 281.820312 346.527344 242.835938 355.410156 205.332031 355.410156 Z M 205.332031 355.410156 " fill-opacity="1" fill-rule="nonzero"/></g><g clip-path="url(#988f321734)"><path fill="#ff3131" d="M 366.53125 307.707031 C 361.105469 307.707031 356.664062 303.265625 356.664062 297.839844 L 356.664062 181.710938 C 356.664062 176.28125 361.105469 171.839844 366.53125 171.839844 C 371.960938 171.839844 376.402344 176.28125 376.402344 181.710938 L 376.402344 297.671875 C 376.402344 303.265625 371.960938 307.707031 366.53125 307.707031 Z M 366.53125 307.707031 " fill-opacity="1" fill-rule="nonzero"/></g><path fill="#ff3131" d="M 324.09375 242.898438 C 317.019531 242.898438 309.785156 241.746094 303.039062 239.445312 C 273.429688 229.246094 263.070312 201.777344 261.257812 196.511719 C 259.613281 191.414062 262.410156 185.820312 267.511719 184.011719 C 272.609375 182.367188 278.203125 185.164062 280.011719 190.261719 C 280.832031 192.566406 288.234375 213.457031 309.453125 220.859375 C 326.5625 226.78125 346.136719 221.84375 359.625 208.355469 C 363.40625 204.410156 369.65625 204.410156 373.605469 208.355469 C 377.550781 212.140625 377.550781 218.390625 373.605469 222.339844 C 360.117188 235.496094 342.1875 242.898438 324.09375 242.898438 Z M 324.09375 242.898438 " fill-opacity="1" fill-rule="nonzero"/><path fill="#ff3131" d="M 298.433594 572.203125 C 277.050781 572.203125 250.566406 565.953125 219.480469 546.707031 C 209.9375 540.785156 204.511719 529.765625 205.828125 518.746094 C 210.925781 472.03125 227.703125 436.832031 255.667969 414.460938 C 293.5 384.03125 337.910156 388.472656 339.71875 388.636719 C 345.148438 389.292969 349.097656 394.0625 348.4375 399.492188 C 347.78125 404.917969 343.011719 408.867188 337.582031 408.210938 C 333.46875 407.714844 238.558594 399.328125 225.402344 520.882812 C 225.070312 524.503906 226.71875 527.957031 229.84375 529.929688 C 265.699219 552.136719 298.433594 558.058594 327.054688 547.367188 C 342.515625 541.609375 352.550781 532.234375 356.664062 527.957031 L 356.664062 470.714844 C 356.664062 465.285156 361.105469 460.847656 366.53125 460.847656 C 371.960938 460.847656 376.402344 465.285156 376.402344 470.714844 L 376.402344 531.574219 C 376.402344 533.714844 375.742188 535.851562 374.425781 537.496094 C 373.933594 538.320312 360.28125 555.921875 333.964844 565.789062 C 324.421875 569.40625 312.578125 572.203125 298.433594 572.203125 Z M 298.433594 572.203125 " fill-opacity="1" fill-rule="nonzero"/><path fill="#ff3131" d="M 285.605469 699.351562 C 256.160156 699.351562 225.566406 688.828125 211.914062 658.066406 C 195.792969 621.550781 203.851562 591.777344 213.394531 573.191406 C 223.757812 553.289062 237.902344 541.9375 238.394531 541.445312 C 242.671875 537.992188 248.921875 538.8125 252.210938 543.089844 C 255.667969 547.367188 254.84375 553.617188 250.566406 556.90625 C 248.59375 558.550781 205.167969 594.410156 229.84375 650.007812 C 242.835938 679.449219 278.695312 683.398438 307.808594 677.3125 C 337.910156 670.898438 356.496094 655.601562 356.496094 644.90625 L 356.496094 601.8125 C 356.496094 596.382812 360.9375 591.941406 366.367188 591.941406 C 371.796875 591.941406 376.238281 596.382812 376.238281 601.8125 L 376.238281 644.90625 C 376.238281 671.0625 342.84375 690.140625 311.757812 696.722656 C 303.695312 698.367188 294.652344 699.351562 285.605469 699.351562 Z M 285.605469 699.351562 " fill-opacity="1" fill-rule="nonzero"/><g clip-path="url(#f8eaee9b2f)"><path fill="#ff3131" d="M 253.199219 844.265625 C 250.730469 844.265625 248.429688 843.445312 246.457031 841.636719 C 235.105469 831.109375 208.292969 801.828125 202.867188 756.101562 C 197.765625 713.335938 213.558594 680.601562 223.425781 664.976562 C 226.386719 660.371094 232.472656 659.054688 237.078125 661.851562 C 241.683594 664.8125 243 670.898438 240.203125 675.503906 C 233.296875 686.359375 217.835938 715.636719 222.441406 753.800781 C 227.210938 793.113281 250.238281 818.113281 259.945312 827.160156 C 263.890625 830.945312 264.21875 837.03125 260.4375 841.140625 C 258.464844 843.117188 255.832031 844.265625 253.199219 844.265625 Z M 253.199219 844.265625 " fill-opacity="1" fill-rule="nonzero"/></g><path fill="#ff3131" d="M 366.53125 780.445312 C 361.105469 780.445312 356.664062 776.003906 356.664062 770.578125 L 356.664062 716.460938 C 356.664062 711.03125 361.105469 706.589844 366.53125 706.589844 C 371.960938 706.589844 376.402344 711.03125 376.402344 716.460938 L 376.402344 770.578125 C 376.402344 776.003906 371.960938 780.445312 366.53125 780.445312 Z M 366.53125 780.445312 " fill-opacity="1" fill-rule="nonzero"/><path fill="#ff3131" d="M 95.289062 775.675781 C 94.46875 775.675781 93.808594 775.511719 92.988281 775.347656 C 87.722656 774.03125 84.433594 768.765625 85.585938 763.503906 C 96.9375 715.800781 101.707031 669.253906 100.0625 621.222656 C 98.582031 595.398438 95.621094 567.925781 84.433594 542.433594 C 79.5 531.574219 74.402344 520.390625 69.300781 509.699219 C 45.78125 459.199219 21.601562 406.894531 14.527344 347.183594 C 14.527344 347.019531 14.527344 347.019531 14.527344 346.855469 C 11.238281 308.859375 7.785156 269.710938 16.007812 230.890625 C 17.160156 225.628906 22.421875 222.171875 27.6875 223.324219 C 32.949219 224.476562 36.402344 229.738281 35.253906 235.003906 C 27.6875 270.863281 30.8125 306.886719 34.101562 345.046875 C 40.679688 401.628906 63.214844 449.988281 87.230469 501.308594 C 92.332031 512.167969 97.429688 523.351562 102.527344 534.371094 C 115.03125 562.828125 118.15625 592.4375 119.800781 620.070312 C 119.800781 620.234375 119.800781 620.234375 119.800781 620.398438 C 121.445312 670.402344 116.511719 718.761719 104.832031 768.109375 C 103.679688 772.550781 99.730469 775.675781 95.289062 775.675781 Z M 95.289062 775.675781 " fill-opacity="1" fill-rule="nonzero"/><g clip-path="url(#4be4059fbd)"><path fill="#ff3131" d="M 779.765625 773.292969 C 778.800781 773.292969 777.871094 773.109375 776.976562 772.738281 C 776.085938 772.371094 775.296875 771.84375 774.617188 771.160156 L 745.265625 741.808594 L 705.171875 752.550781 C 704.710938 752.675781 704.242188 752.753906 703.765625 752.785156 C 703.289062 752.816406 702.8125 752.800781 702.335938 752.738281 C 701.863281 752.675781 701.398438 752.570312 700.945312 752.414062 C 700.492188 752.261719 700.058594 752.066406 699.644531 751.828125 C 699.230469 751.585938 698.84375 751.308594 698.484375 750.996094 C 698.125 750.679688 697.800781 750.332031 697.507812 749.953125 C 697.21875 749.574219 696.96875 749.167969 696.757812 748.738281 C 696.542969 748.308594 696.378906 747.863281 696.253906 747.402344 L 685.511719 707.3125 L 645.421875 696.570312 C 644.960938 696.445312 644.515625 696.277344 644.085938 696.066406 C 643.65625 695.855469 643.253906 695.601562 642.875 695.3125 C 642.496094 695.019531 642.148438 694.695312 641.832031 694.335938 C 641.515625 693.976562 641.238281 693.589844 641 693.175781 C 640.761719 692.761719 640.566406 692.328125 640.410156 691.875 C 640.257812 691.421875 640.148438 690.960938 640.085938 690.484375 C 640.023438 690.011719 640.007812 689.535156 640.039062 689.058594 C 640.070312 688.582031 640.148438 688.113281 640.273438 687.648438 L 651.015625 647.558594 L 621.664062 618.207031 C 621.324219 617.871094 621.023438 617.503906 620.757812 617.105469 C 620.492188 616.707031 620.269531 616.289062 620.085938 615.84375 C 619.902344 615.402344 619.761719 614.949219 619.671875 614.480469 C 619.578125 614.011719 619.53125 613.535156 619.53125 613.058594 C 619.53125 612.582031 619.578125 612.105469 619.671875 611.636719 C 619.761719 611.167969 619.902344 610.714844 620.085938 610.273438 C 620.269531 609.828125 620.492188 609.410156 620.757812 609.011719 C 621.023438 608.613281 621.324219 608.246094 621.664062 607.910156 L 651.015625 578.558594 L 640.273438 538.46875 C 640.148438 538.007812 640.070312 537.539062 640.039062 537.0625 C 640.007812 536.585938 640.023438 536.109375 640.085938 535.632812 C 640.148438 535.160156 640.257812 534.695312 640.410156 534.246094 C 640.566406 533.792969 640.761719 533.359375 641 532.945312 C 641.238281 532.53125 641.515625 532.144531 641.832031 531.785156 C 642.148438 531.425781 642.496094 531.097656 642.875 530.808594 C 643.253906 530.515625 643.65625 530.265625 644.085938 530.054688 C 644.515625 529.84375 644.960938 529.675781 645.421875 529.550781 L 685.511719 518.808594 L 696.253906 478.71875 C 696.378906 478.253906 696.546875 477.808594 696.757812 477.378906 C 696.96875 476.949219 697.21875 476.546875 697.511719 476.167969 C 697.800781 475.785156 698.125 475.4375 698.484375 475.125 C 698.84375 474.808594 699.234375 474.53125 699.648438 474.292969 C 700.0625 474.050781 700.496094 473.855469 700.949219 473.703125 C 701.402344 473.546875 701.863281 473.441406 702.339844 473.378906 C 702.8125 473.316406 703.289062 473.300781 703.765625 473.332031 C 704.242188 473.363281 704.714844 473.441406 705.175781 473.566406 L 745.265625 484.3125 L 774.617188 454.960938 C 774.953125 454.621094 775.324219 454.320312 775.71875 454.054688 C 776.117188 453.789062 776.539062 453.5625 776.980469 453.378906 C 777.421875 453.195312 777.875 453.058594 778.34375 452.964844 C 778.816406 452.871094 779.289062 452.824219 779.765625 452.824219 C 780.246094 452.824219 780.71875 452.871094 781.1875 452.964844 C 781.65625 453.058594 782.113281 453.195312 782.554688 453.378906 C 782.996094 453.5625 783.414062 453.789062 783.8125 454.054688 C 784.210938 454.320312 784.578125 454.621094 784.914062 454.960938 L 814.265625 484.3125 L 854.359375 473.566406 C 854.820312 473.441406 855.289062 473.363281 855.765625 473.332031 C 856.242188 473.300781 856.71875 473.316406 857.195312 473.378906 C 857.667969 473.441406 858.132812 473.550781 858.585938 473.703125 C 859.039062 473.855469 859.472656 474.054688 859.886719 474.292969 C 860.300781 474.53125 860.6875 474.808594 861.046875 475.125 C 861.40625 475.4375 861.730469 475.785156 862.023438 476.167969 C 862.3125 476.546875 862.5625 476.949219 862.773438 477.378906 C 862.988281 477.808594 863.152344 478.253906 863.277344 478.71875 L 874.019531 518.808594 L 914.109375 529.550781 C 914.574219 529.675781 915.019531 529.84375 915.445312 530.054688 C 915.875 530.265625 916.28125 530.515625 916.660156 530.808594 C 917.039062 531.097656 917.386719 531.425781 917.699219 531.785156 C 918.015625 532.144531 918.292969 532.53125 918.53125 532.945312 C 918.773438 533.359375 918.96875 533.792969 919.121094 534.246094 C 919.273438 534.695312 919.382812 535.160156 919.445312 535.632812 C 919.507812 536.109375 919.523438 536.585938 919.492188 537.0625 C 919.460938 537.539062 919.382812 538.007812 919.261719 538.46875 L 908.515625 578.558594 L 937.867188 607.914062 C 938.207031 608.25 938.507812 608.617188 938.773438 609.015625 C 939.039062 609.414062 939.265625 609.832031 939.449219 610.273438 C 939.632812 610.714844 939.769531 611.171875 939.863281 611.640625 C 939.957031 612.109375 940.003906 612.582031 940.003906 613.0625 C 940.003906 613.539062 939.957031 614.011719 939.863281 614.480469 C 939.769531 614.953125 939.632812 615.40625 939.449219 615.847656 C 939.265625 616.289062 939.039062 616.710938 938.773438 617.109375 C 938.507812 617.503906 938.207031 617.871094 937.867188 618.210938 L 908.515625 647.5625 L 919.261719 687.652344 C 919.382812 688.113281 919.460938 688.585938 919.492188 689.0625 C 919.523438 689.539062 919.507812 690.015625 919.445312 690.488281 C 919.382812 690.960938 919.273438 691.425781 919.121094 691.878906 C 918.96875 692.332031 918.773438 692.765625 918.53125 693.179688 C 918.292969 693.59375 918.015625 693.980469 917.699219 694.339844 C 917.386719 694.699219 917.039062 695.023438 916.660156 695.316406 C 916.28125 695.605469 915.875 695.859375 915.445312 696.070312 C 915.019531 696.28125 914.574219 696.449219 914.109375 696.570312 L 874.019531 707.316406 L 863.277344 747.40625 C 863.152344 747.867188 862.984375 748.3125 862.773438 748.742188 C 862.5625 749.171875 862.3125 749.574219 862.019531 749.957031 C 861.730469 750.335938 861.40625 750.683594 861.046875 751 C 860.6875 751.3125 860.300781 751.589844 859.886719 751.828125 C 859.472656 752.070312 859.039062 752.265625 858.585938 752.417969 C 858.132812 752.574219 857.667969 752.679688 857.195312 752.742188 C 856.71875 752.804688 856.242188 752.820312 855.765625 752.789062 C 855.289062 752.757812 854.820312 752.679688 854.359375 752.554688 L 814.265625 741.8125 L 784.914062 771.164062 C 784.234375 771.847656 783.445312 772.375 782.554688 772.742188 C 781.660156 773.113281 780.730469 773.296875 779.765625 773.292969 Z M 747.441406 726.402344 C 748.40625 726.402344 749.335938 726.589844 750.226562 726.957031 C 751.121094 727.328125 751.90625 727.855469 752.589844 728.539062 L 779.765625 755.710938 L 806.9375 728.539062 C 807.390625 728.085938 807.894531 727.699219 808.445312 727.378906 C 809 727.058594 809.585938 726.816406 810.203125 726.652344 C 810.820312 726.484375 811.449219 726.402344 812.089844 726.402344 C 812.726562 726.402344 813.355469 726.488281 813.972656 726.652344 L 851.089844 736.597656 L 861.039062 699.480469 C 861.203125 698.863281 861.445312 698.277344 861.765625 697.726562 C 862.082031 697.171875 862.46875 696.667969 862.921875 696.214844 C 863.375 695.765625 863.875 695.378906 864.429688 695.058594 C 864.984375 694.738281 865.570312 694.496094 866.1875 694.332031 L 903.304688 684.386719 L 893.355469 647.269531 C 893.191406 646.652344 893.109375 646.023438 893.109375 645.382812 C 893.105469 644.742188 893.191406 644.117188 893.355469 643.5 C 893.519531 642.878906 893.761719 642.296875 894.082031 641.742188 C 894.402344 641.1875 894.789062 640.6875 895.242188 640.234375 L 922.414062 613.058594 L 895.242188 585.886719 C 894.789062 585.433594 894.402344 584.933594 894.082031 584.378906 C 893.761719 583.824219 893.519531 583.238281 893.355469 582.621094 C 893.191406 582.003906 893.105469 581.375 893.109375 580.738281 C 893.109375 580.097656 893.191406 579.46875 893.355469 578.851562 L 903.304688 541.734375 L 866.1875 531.789062 C 865.570312 531.621094 864.984375 531.378906 864.429688 531.0625 C 863.875 530.742188 863.375 530.355469 862.921875 529.902344 C 862.46875 529.453125 862.082031 528.949219 861.765625 528.394531 C 861.445312 527.839844 861.203125 527.253906 861.039062 526.636719 L 851.089844 489.519531 L 813.972656 499.46875 C 813.355469 499.632812 812.726562 499.71875 812.089844 499.71875 C 811.449219 499.71875 810.820312 499.636719 810.203125 499.46875 C 809.585938 499.304688 809 499.0625 808.445312 498.742188 C 807.894531 498.421875 807.390625 498.035156 806.9375 497.582031 L 779.765625 470.410156 L 752.589844 497.582031 C 752.140625 498.035156 751.636719 498.421875 751.082031 498.742188 C 750.53125 499.0625 749.945312 499.304688 749.328125 499.46875 C 748.710938 499.632812 748.082031 499.71875 747.441406 499.71875 C 746.800781 499.71875 746.175781 499.632812 745.554688 499.46875 L 708.4375 489.519531 L 698.492188 526.636719 C 698.328125 527.253906 698.085938 527.839844 697.765625 528.394531 C 697.445312 528.949219 697.058594 529.453125 696.609375 529.902344 C 696.15625 530.355469 695.652344 530.742188 695.101562 531.0625 C 694.546875 531.378906 693.960938 531.621094 693.34375 531.789062 L 656.226562 541.734375 L 666.171875 578.851562 C 666.339844 579.46875 666.421875 580.097656 666.421875 580.738281 C 666.421875 581.375 666.339844 582.003906 666.175781 582.621094 C 666.007812 583.238281 665.765625 583.824219 665.445312 584.378906 C 665.125 584.933594 664.742188 585.433594 664.289062 585.886719 L 637.113281 613.058594 L 664.289062 640.234375 C 664.742188 640.6875 665.125 641.1875 665.445312 641.742188 C 665.765625 642.296875 666.007812 642.878906 666.175781 643.5 C 666.339844 644.117188 666.421875 644.742188 666.421875 645.382812 C 666.421875 646.023438 666.339844 646.652344 666.171875 647.269531 L 656.226562 684.386719 L 693.34375 694.332031 C 693.960938 694.496094 694.546875 694.738281 695.101562 695.058594 C 695.652344 695.378906 696.15625 695.765625 696.609375 696.214844 C 697.058594 696.667969 697.445312 697.171875 697.765625 697.726562 C 698.085938 698.277344 698.328125 698.863281 698.492188 699.480469 L 708.4375 736.597656 L 745.554688 726.652344 C 746.175781 726.484375 746.800781 726.402344 747.441406 726.402344 Z M 747.441406 726.402344 " fill-opacity="1" fill-rule="nonzero"/></g><path fill="#ff3131" d="M 743.347656 605.777344 C 742.394531 605.777344 741.441406 605.730469 740.492188 605.636719 C 739.542969 605.542969 738.601562 605.402344 737.664062 605.21875 C 736.730469 605.03125 735.804688 604.800781 734.890625 604.523438 C 733.976562 604.246094 733.082031 603.925781 732.199219 603.558594 C 731.316406 603.195312 730.457031 602.785156 729.613281 602.335938 C 728.773438 601.886719 727.957031 601.398438 727.164062 600.867188 C 726.371094 600.335938 725.605469 599.769531 724.867188 599.164062 C 724.128906 598.558594 723.421875 597.917969 722.746094 597.242188 C 722.074219 596.570312 721.433594 595.863281 720.828125 595.125 C 720.222656 594.386719 719.65625 593.621094 719.125 592.828125 C 718.59375 592.035156 718.105469 591.21875 717.65625 590.375 C 717.207031 589.535156 716.796875 588.671875 716.433594 587.792969 C 716.066406 586.910156 715.746094 586.011719 715.46875 585.101562 C 715.191406 584.1875 714.960938 583.261719 714.773438 582.328125 C 714.589844 581.390625 714.449219 580.449219 714.355469 579.5 C 714.261719 578.550781 714.214844 577.597656 714.214844 576.644531 C 714.214844 575.6875 714.261719 574.738281 714.355469 573.789062 C 714.449219 572.839844 714.589844 571.894531 714.773438 570.960938 C 714.960938 570.023438 715.191406 569.097656 715.46875 568.1875 C 715.746094 567.273438 716.066406 566.375 716.433594 565.496094 C 716.796875 564.613281 717.207031 563.75 717.65625 562.910156 C 718.105469 562.070312 718.59375 561.25 719.125 560.457031 C 719.65625 559.664062 720.222656 558.898438 720.828125 558.160156 C 721.433594 557.425781 722.074219 556.71875 722.746094 556.042969 C 723.421875 555.367188 724.128906 554.726562 724.867188 554.121094 C 725.605469 553.519531 726.371094 552.949219 727.164062 552.421875 C 727.957031 551.890625 728.773438 551.398438 729.613281 550.949219 C 730.457031 550.5 731.316406 550.09375 732.199219 549.726562 C 733.082031 549.363281 733.976562 549.042969 734.890625 548.765625 C 735.804688 548.488281 736.730469 548.257812 737.664062 548.070312 C 738.601562 547.882812 739.542969 547.742188 740.492188 547.648438 C 741.441406 547.558594 742.394531 547.511719 743.347656 547.511719 C 744.300781 547.511719 745.253906 547.558594 746.203125 547.648438 C 747.152344 547.742188 748.097656 547.882812 749.03125 548.070312 C 749.96875 548.257812 750.890625 548.488281 751.804688 548.765625 C 752.71875 549.042969 753.617188 549.363281 754.496094 549.726562 C 755.378906 550.09375 756.238281 550.5 757.082031 550.949219 C 757.921875 551.398438 758.742188 551.890625 759.535156 552.417969 C 760.328125 552.949219 761.09375 553.519531 761.832031 554.121094 C 762.566406 554.726562 763.273438 555.367188 763.949219 556.042969 C 764.625 556.71875 765.261719 557.425781 765.867188 558.160156 C 766.472656 558.898438 767.042969 559.664062 767.570312 560.457031 C 768.101562 561.25 768.589844 562.070312 769.042969 562.910156 C 769.492188 563.75 769.898438 564.613281 770.265625 565.496094 C 770.628906 566.375 770.949219 567.273438 771.226562 568.1875 C 771.503906 569.097656 771.734375 570.023438 771.921875 570.960938 C 772.109375 571.894531 772.246094 572.839844 772.339844 573.789062 C 772.433594 574.738281 772.480469 575.6875 772.480469 576.644531 C 772.480469 577.597656 772.433594 578.546875 772.339844 579.496094 C 772.242188 580.445312 772.101562 581.390625 771.917969 582.324219 C 771.730469 583.261719 771.496094 584.183594 771.21875 585.097656 C 770.941406 586.007812 770.621094 586.90625 770.253906 587.789062 C 769.890625 588.667969 769.480469 589.527344 769.03125 590.371094 C 768.582031 591.210938 768.09375 592.027344 767.5625 592.820312 C 767.03125 593.613281 766.464844 594.378906 765.859375 595.117188 C 765.253906 595.855469 764.613281 596.558594 763.9375 597.234375 C 763.265625 597.910156 762.558594 598.546875 761.820312 599.152344 C 761.085938 599.757812 760.320312 600.328125 759.527344 600.855469 C 758.734375 601.386719 757.917969 601.878906 757.074219 602.328125 C 756.234375 602.777344 755.375 603.183594 754.492188 603.550781 C 753.609375 603.914062 752.714844 604.238281 751.800781 604.515625 C 750.890625 604.792969 749.964844 605.023438 749.03125 605.210938 C 748.09375 605.398438 747.152344 605.539062 746.203125 605.632812 C 745.253906 605.726562 744.300781 605.777344 743.347656 605.777344 Z M 743.347656 562.078125 C 742.390625 562.078125 741.445312 562.171875 740.507812 562.355469 C 739.570312 562.542969 738.65625 562.820312 737.773438 563.183594 C 736.890625 563.550781 736.050781 564 735.253906 564.53125 C 734.460938 565.0625 733.722656 565.667969 733.046875 566.34375 C 732.371094 567.019531 731.769531 567.753906 731.238281 568.550781 C 730.707031 569.347656 730.257812 570.183594 729.890625 571.070312 C 729.523438 571.953125 729.25 572.863281 729.0625 573.800781 C 728.875 574.738281 728.78125 575.6875 728.78125 576.644531 C 728.78125 577.601562 728.875 578.546875 729.0625 579.484375 C 729.25 580.421875 729.523438 581.335938 729.890625 582.21875 C 730.257812 583.101562 730.707031 583.941406 731.238281 584.734375 C 731.769531 585.53125 732.371094 586.265625 733.046875 586.945312 C 733.722656 587.621094 734.460938 588.222656 735.253906 588.753906 C 736.050781 589.285156 736.890625 589.734375 737.773438 590.101562 C 738.65625 590.46875 739.570312 590.742188 740.507812 590.929688 C 741.445312 591.117188 742.390625 591.210938 743.347656 591.210938 C 744.304688 591.210938 745.253906 591.117188 746.191406 590.929688 C 747.128906 590.742188 748.039062 590.46875 748.921875 590.101562 C 749.804688 589.734375 750.644531 589.285156 751.441406 588.753906 C 752.238281 588.222656 752.972656 587.621094 753.648438 586.945312 C 754.324219 586.265625 754.929688 585.53125 755.460938 584.734375 C 755.992188 583.941406 756.441406 583.101562 756.804688 582.21875 C 757.171875 581.335938 757.449219 580.421875 757.636719 579.484375 C 757.820312 578.546875 757.914062 577.601562 757.914062 576.644531 C 757.914062 575.6875 757.820312 574.742188 757.632812 573.800781 C 757.445312 572.863281 757.167969 571.953125 756.800781 571.070312 C 756.4375 570.1875 755.988281 569.347656 755.457031 568.554688 C 754.925781 567.757812 754.320312 567.023438 753.644531 566.347656 C 752.96875 565.671875 752.234375 565.066406 751.4375 564.535156 C 750.644531 564.003906 749.804688 563.554688 748.921875 563.1875 C 748.039062 562.824219 747.125 562.546875 746.1875 562.359375 C 745.25 562.171875 744.304688 562.078125 743.347656 562.078125 Z M 743.347656 562.078125 " fill-opacity="1" fill-rule="nonzero"/><path fill="#ff3131" d="M 816.179688 678.609375 C 815.226562 678.609375 814.277344 678.5625 813.324219 678.46875 C 812.375 678.375 811.433594 678.234375 810.496094 678.050781 C 809.5625 677.863281 808.636719 677.632812 807.722656 677.355469 C 806.8125 677.078125 805.914062 676.757812 805.03125 676.390625 C 804.152344 676.027344 803.289062 675.621094 802.449219 675.167969 C 801.605469 674.71875 800.789062 674.230469 799.996094 673.699219 C 799.203125 673.171875 798.4375 672.601562 797.699219 671.996094 C 796.960938 671.390625 796.257812 670.75 795.582031 670.078125 C 794.90625 669.402344 794.265625 668.695312 793.660156 667.957031 C 793.054688 667.222656 792.488281 666.457031 791.957031 665.664062 C 791.429688 664.867188 790.9375 664.050781 790.488281 663.210938 C 790.039062 662.367188 789.632812 661.507812 789.265625 660.625 C 788.902344 659.742188 788.578125 658.847656 788.300781 657.933594 C 788.027344 657.019531 787.792969 656.097656 787.609375 655.160156 C 787.421875 654.222656 787.28125 653.28125 787.1875 652.332031 C 787.09375 651.382812 787.046875 650.429688 787.046875 649.476562 C 787.046875 648.523438 787.09375 647.570312 787.1875 646.621094 C 787.28125 645.671875 787.421875 644.730469 787.609375 643.792969 C 787.792969 642.855469 788.027344 641.933594 788.300781 641.019531 C 788.578125 640.105469 788.902344 639.210938 789.265625 638.328125 C 789.632812 637.445312 790.039062 636.585938 790.488281 635.742188 C 790.9375 634.902344 791.429688 634.085938 791.957031 633.292969 C 792.488281 632.496094 793.054688 631.730469 793.660156 630.996094 C 794.265625 630.257812 794.90625 629.550781 795.582031 628.875 C 796.257812 628.203125 796.960938 627.5625 797.699219 626.957031 C 798.4375 626.351562 799.203125 625.785156 799.996094 625.253906 C 800.789062 624.722656 801.605469 624.234375 802.449219 623.785156 C 803.289062 623.332031 804.152344 622.925781 805.03125 622.5625 C 805.914062 622.195312 806.8125 621.875 807.722656 621.597656 C 808.636719 621.320312 809.5625 621.089844 810.496094 620.902344 C 811.433594 620.71875 812.375 620.578125 813.324219 620.484375 C 814.277344 620.390625 815.226562 620.34375 816.179688 620.34375 C 817.136719 620.34375 818.085938 620.390625 819.039062 620.484375 C 819.988281 620.578125 820.929688 620.71875 821.863281 620.902344 C 822.800781 621.089844 823.726562 621.320312 824.636719 621.597656 C 825.550781 621.875 826.449219 622.195312 827.332031 622.5625 C 828.210938 622.925781 829.074219 623.332031 829.914062 623.785156 C 830.757812 624.234375 831.574219 624.722656 832.367188 625.253906 C 833.160156 625.785156 833.925781 626.351562 834.664062 626.957031 C 835.402344 627.5625 836.105469 628.203125 836.78125 628.875 C 837.457031 629.550781 838.097656 630.257812 838.703125 630.996094 C 839.308594 631.730469 839.875 632.496094 840.40625 633.292969 C 840.933594 634.085938 841.425781 634.902344 841.875 635.742188 C 842.324219 636.585938 842.730469 637.445312 843.097656 638.328125 C 843.460938 639.210938 843.785156 640.105469 844.058594 641.019531 C 844.335938 641.933594 844.570312 642.855469 844.753906 643.792969 C 844.941406 644.730469 845.082031 645.671875 845.175781 646.621094 C 845.269531 647.570312 845.316406 648.523438 845.316406 649.476562 C 845.3125 650.429688 845.265625 651.382812 845.171875 652.332031 C 845.078125 653.28125 844.9375 654.222656 844.75 655.15625 C 844.5625 656.09375 844.332031 657.015625 844.054688 657.929688 C 843.777344 658.84375 843.453125 659.738281 843.089844 660.621094 C 842.722656 661.5 842.316406 662.363281 841.863281 663.203125 C 841.414062 664.042969 840.925781 664.863281 840.394531 665.65625 C 839.863281 666.449219 839.296875 667.210938 838.691406 667.949219 C 838.085938 668.6875 837.445312 669.394531 836.773438 670.066406 C 836.097656 670.742188 835.390625 671.382812 834.65625 671.988281 C 833.917969 672.59375 833.152344 673.160156 832.359375 673.691406 C 831.566406 674.21875 830.75 674.710938 829.910156 675.160156 C 829.066406 675.609375 828.207031 676.019531 827.324219 676.382812 C 826.445312 676.75 825.546875 677.070312 824.636719 677.347656 C 823.722656 677.625 822.796875 677.859375 821.863281 678.042969 C 820.925781 678.230469 819.984375 678.371094 819.035156 678.464844 C 818.085938 678.5625 817.136719 678.609375 816.179688 678.609375 Z M 816.179688 634.910156 C 815.226562 634.910156 814.277344 635.003906 813.339844 635.191406 C 812.402344 635.375 811.492188 635.652344 810.605469 636.019531 C 809.722656 636.386719 808.882812 636.832031 808.089844 637.363281 C 807.292969 637.894531 806.558594 638.5 805.882812 639.175781 C 805.203125 639.851562 804.601562 640.589844 804.070312 641.382812 C 803.539062 642.179688 803.089844 643.019531 802.722656 643.902344 C 802.359375 644.785156 802.082031 645.695312 801.894531 646.636719 C 801.707031 647.574219 801.613281 648.519531 801.613281 649.476562 C 801.613281 650.433594 801.707031 651.378906 801.894531 652.320312 C 802.082031 653.257812 802.359375 654.167969 802.722656 655.050781 C 803.089844 655.933594 803.539062 656.773438 804.070312 657.570312 C 804.601562 658.363281 805.203125 659.101562 805.882812 659.777344 C 806.558594 660.453125 807.292969 661.058594 808.089844 661.589844 C 808.882812 662.121094 809.722656 662.570312 810.605469 662.933594 C 811.492188 663.300781 812.402344 663.578125 813.339844 663.761719 C 814.277344 663.949219 815.226562 664.042969 816.179688 664.042969 C 817.136719 664.042969 818.085938 663.949219 819.023438 663.761719 C 819.960938 663.578125 820.871094 663.300781 821.757812 662.933594 C 822.640625 662.570312 823.480469 662.121094 824.273438 661.589844 C 825.070312 661.058594 825.804688 660.453125 826.480469 659.777344 C 827.15625 659.101562 827.761719 658.363281 828.292969 657.570312 C 828.824219 656.773438 829.273438 655.933594 829.640625 655.050781 C 830.003906 654.167969 830.28125 653.257812 830.46875 652.320312 C 830.65625 651.378906 830.75 650.433594 830.75 649.476562 C 830.746094 648.519531 830.652344 647.574219 830.464844 646.636719 C 830.277344 645.699219 830 644.789062 829.636719 643.90625 C 829.269531 643.019531 828.820312 642.183594 828.289062 641.386719 C 827.757812 640.59375 827.152344 639.855469 826.476562 639.179688 C 825.800781 638.503906 825.066406 637.902344 824.269531 637.371094 C 823.476562 636.839844 822.636719 636.390625 821.753906 636.023438 C 820.871094 635.65625 819.960938 635.378906 819.023438 635.191406 C 818.085938 635.003906 817.136719 634.910156 816.179688 634.910156 Z M 816.179688 634.910156 " fill-opacity="1" fill-rule="nonzero"/><path fill="#ff3131" d="M 736.058594 678.609375 C 735.382812 678.609375 734.71875 678.515625 734.070312 678.332031 C 733.417969 678.144531 732.804688 677.875 732.230469 677.519531 C 731.65625 677.164062 731.140625 676.734375 730.683594 676.238281 C 730.230469 675.738281 729.851562 675.183594 729.550781 674.582031 C 729.246094 673.976562 729.035156 673.339844 728.90625 672.675781 C 728.78125 672.011719 728.75 671.34375 728.8125 670.671875 C 728.871094 669.996094 729.023438 669.34375 729.265625 668.714844 C 729.507812 668.082031 729.832031 667.496094 730.238281 666.957031 L 817.636719 550.421875 C 817.925781 550.042969 818.246094 549.691406 818.601562 549.371094 C 818.960938 549.054688 819.34375 548.773438 819.753906 548.527344 C 820.164062 548.285156 820.597656 548.085938 821.046875 547.925781 C 821.5 547.769531 821.960938 547.65625 822.433594 547.585938 C 822.90625 547.519531 823.382812 547.5 823.859375 547.527344 C 824.335938 547.550781 824.808594 547.625 825.269531 547.742188 C 825.734375 547.863281 826.179688 548.023438 826.609375 548.230469 C 827.042969 548.4375 827.449219 548.683594 827.832031 548.972656 C 828.214844 549.257812 828.5625 549.578125 828.882812 549.9375 C 829.203125 550.292969 829.484375 550.675781 829.726562 551.085938 C 829.972656 551.496094 830.171875 551.929688 830.332031 552.378906 C 830.488281 552.832031 830.601562 553.292969 830.671875 553.765625 C 830.738281 554.238281 830.757812 554.714844 830.734375 555.191406 C 830.707031 555.667969 830.636719 556.136719 830.519531 556.601562 C 830.398438 557.066406 830.238281 557.511719 830.03125 557.941406 C 829.824219 558.375 829.578125 558.78125 829.292969 559.164062 L 741.890625 675.695312 C 741.203125 676.617188 740.347656 677.332031 739.320312 677.84375 C 738.292969 678.355469 737.207031 678.613281 736.058594 678.609375 Z M 736.058594 678.609375 " fill-opacity="1" fill-rule="nonzero"/></svg>