<svg xmlns="http://www.w3.org/2000/svg" xmlns:xlink="http://www.w3.org/1999/xlink" width="1254" zoomAndPan="magnify" viewBox="0 0 940.5 940.499971" height="1254" preserveAspectRatio="xMidYMid meet" version="1.0"><defs><clipPath id="b8996865b1"><path d="M 0 126.3125 L 940 126.3125 L 940 813.695312 L 0 813.695312 Z M 0 126.3125 " clip-rule="nonzero"/></clipPath></defs><g clip-path="url(#b8996865b1)"><path fill="#ff3131" d="M 718.964844 535.835938 L 737.09375 535.835938 C 783.757812 535.839844 830.421875 535.632812 877.082031 535.910156 C 917.949219 536.152344 939.796875 558.308594 939.886719 599.203125 C 940 649.921875 939.992188 700.640625 939.863281 751.363281 C 939.726562 789.789062 916.769531 813.171875 878.492188 813.199219 C 698.433594 813.335938 518.363281 814.496094 338.324219 812.679688 C 240.933594 811.699219 150.097656 785.207031 71.464844 725.171875 C 37.644531 699.351562 12.183594 666.839844 3.550781 623.835938 C 1.378906 613.023438 0.785156 601.742188 0.753906 590.671875 C 0.519531 513.578125 2.171875 436.441406 0.125 359.398438 C -1.453125 299.851562 23.492188 254.777344 67.210938 218.070312 C 121.050781 172.859375 184.703125 148.804688 252.914062 136.589844 C 369.667969 115.683594 483.109375 125.285156 590.933594 178.023438 C 622.117188 193.277344 650.039062 213.347656 673.742188 239 C 703.574219 271.28125 719.464844 308.832031 719.074219 353.269531 C 718.59375 408.042969 718.964844 462.828125 718.964844 517.605469 Z M 330.148438 786.0625 C 330.148438 779.5 330.148438 774.542969 330.148438 769.589844 C 330.148438 748.792969 330.269531 727.996094 330.105469 707.203125 C 330.03125 697.578125 332.003906 689.222656 343.582031 689.382812 C 355.152344 689.546875 356.917969 698.253906 356.855469 707.644531 C 356.824219 712.210938 356.863281 716.773438 356.863281 721.339844 C 356.863281 742.496094 356.863281 763.652344 356.863281 785.617188 L 406.582031 785.617188 C 406.582031 769.199219 406.785156 753.613281 406.507812 738.03125 C 406.320312 727.457031 408.0625 717.085938 420.714844 717.410156 C 432.441406 717.710938 433.691406 727.921875 433.527344 737.800781 C 433.261719 753.78125 433.457031 769.765625 433.457031 785.6875 L 483.074219 785.6875 C 483.074219 779.5 483.074219 774.089844 483.074219 768.683594 C 483.078125 748.394531 483.085938 728.105469 483.097656 707.816406 C 483.109375 698.441406 485.152344 689.753906 496.472656 689.390625 C 508.148438 689.011719 510.207031 697.488281 509.949219 707.089844 C 509.808594 712.160156 509.929688 717.234375 509.929688 722.308594 C 509.929688 743.394531 509.929688 764.464844 509.929688 785.515625 L 560.257812 785.515625 C 560.257812 773.503906 559.402344 762.363281 560.484375 751.414062 C 561.703125 739.054688 553.347656 718.5625 573.199219 718.101562 C 593.960938 717.617188 585.230469 738.382812 586.5 750.542969 C 587.6875 761.925781 586.753906 773.53125 586.753906 785.179688 L 637.210938 785.179688 C 637.210938 761.105469 636.894531 738.328125 637.351562 715.566406 C 637.558594 705.222656 632.992188 689.96875 649.957031 689.753906 C 667.535156 689.53125 663.945312 705.007812 664.101562 716.105469 C 664.433594 739.195312 664.203125 762.296875 664.203125 785.390625 L 743.304688 785.390625 C 743.304688 776.804688 743.023438 769.273438 743.355469 761.765625 C 744.496094 735.863281 761.445312 718.601562 787.5 716.535156 C 813.324219 714.488281 829.273438 699.234375 829.953125 675.9375 C 830.65625 651.871094 815.175781 635.167969 789.035156 631.777344 C 756.550781 627.5625 742.53125 613.152344 743.699219 580.851562 C 744.296875 564.40625 738.347656 561.957031 723.808594 562.027344 C 607.148438 562.566406 490.46875 563.574219 373.835938 561.714844 C 327.480469 560.972656 280.636719 556.566406 235.078125 548.109375 C 170.039062 536.035156 110.464844 509.453125 60.164062 464.800781 C 48.894531 454.796875 36.898438 445.609375 25.238281 436.046875 C 27.085938 437.335938 26.609375 442.140625 26.601562 446.945312 C 26.542969 492.089844 27.351562 537.25 26.34375 582.367188 C 25.375 625.78125 41.5 661.210938 72.015625 691.015625 C 100.039062 718.386719 133.308594 737.316406 169.390625 751.730469 C 171.078125 752.40625 173.101562 752.222656 176.804688 752.65625 C 176.804688 736.046875 176.707031 720.472656 176.847656 704.898438 C 176.921875 696.472656 179.597656 689.375 189.519531 689.355469 C 199.976562 689.335938 203.152344 696.332031 203.136719 705.625 C 203.109375 721.855469 202.730469 738.109375 203.480469 754.304688 C 203.660156 758.234375 206.878906 764.394531 210.03125 765.410156 C 223.761719 769.84375 237.980469 772.753906 253.855469 776.667969 C 253.855469 759.554688 252.871094 744.816406 254.414062 730.351562 C 254.925781 725.542969 261.8125 718.046875 265.980469 717.914062 C 270.390625 717.777344 276.550781 724.164062 279.121094 729.15625 C 281.417969 733.621094 279.980469 740.066406 279.996094 745.636719 C 280.082031 780.457031 280.0625 780.457031 313.824219 784.25 C 318.328125 784.757812 322.835938 785.25 330.148438 786.0625 Z M 373.851562 535.933594 C 391.453125 534.148438 423.851562 531.9375 455.882812 527.226562 C 477.316406 524.070312 498.632812 518.628906 519.289062 512 C 570.5 495.566406 618.363281 472.621094 655.078125 431.726562 C 705.347656 375.730469 705.460938 307.828125 652.070312 255.046875 C 629.4375 232.667969 602.128906 212.671875 573.375 199.238281 C 453.355469 143.171875 328.765625 140 202.679688 176.253906 C 149.929688 191.417969 101.640625 215.808594 63.882812 257.160156 C 15.160156 310.535156 13.996094 376.164062 62.710938 429.523438 C 79.207031 447.589844 99.164062 463.609375 120.125 476.289062 C 193.363281 520.585938 274.796875 534.425781 373.851562 535.933594 Z M 769.867188 786.109375 C 810.507812 786.109375 849.390625 786.824219 888.226562 785.730469 C 902.363281 785.332031 913.425781 771.722656 913.597656 755.945312 C 914.183594 701.738281 914.191406 647.53125 913.613281 593.316406 C 913.398438 575.320312 901.691406 563.3125 883.984375 562.832031 C 849.050781 561.882812 814.074219 562.210938 779.128906 562.742188 C 775.980469 562.789062 770.359375 568.035156 770.21875 571.0625 C 769.316406 590.941406 767.894531 603.632812 796.984375 606.550781 C 834.308594 610.304688 859.703125 642.933594 857.089844 679.683594 C 854.648438 713.996094 828.589844 739.6875 791.117188 743.359375 C 777.582031 744.683594 770.59375 750.746094 769.929688 764.035156 C 769.582031 770.964844 769.867188 777.929688 769.867188 786.109375 Z M 691.046875 429.296875 C 650.964844 481.609375 598.699219 510.894531 542.414062 534.816406 L 691.046875 534.816406 Z M 691.046875 429.296875 " fill-opacity="1" fill-rule="nonzero"/></g><path fill="#ff3131" d="M 766.265625 661.40625 C 772.332031 661.421875 779.015625 659.835938 784.28125 661.890625 C 789.007812 663.738281 794.972656 669.414062 795.230469 673.707031 C 795.480469 677.898438 789.59375 685.832031 785.710938 686.289062 C 772.167969 687.863281 758.621094 687.863281 745.078125 686.292969 C 741.34375 685.859375 735.695312 677.832031 735.976562 673.628906 C 736.265625 669.332031 742.082031 663.496094 746.714844 661.886719 C 752.578125 659.847656 759.6875 661.394531 766.265625 661.40625 Z M 766.265625 661.40625 " fill-opacity="1" fill-rule="nonzero"/><path fill="#ff3131" d="M 351.566406 236.34375 C 408.996094 237.65625 458.015625 243.875 501.441406 271.925781 C 538.480469 295.847656 553.636719 329.964844 543.476562 366.007812 C 537.078125 388.714844 521.679688 404.503906 502.34375 416.835938 C 470.382812 437.222656 434.523438 446.28125 397.515625 450.101562 C 341.816406 455.851562 287.035156 451.828125 235.609375 427.042969 C 224.601562 421.757812 214.390625 415.234375 204.972656 407.464844 C 161.15625 371.046875 161.484375 317.082031 205.414062 280.839844 C 232.828125 258.21875 265.457031 247.445312 299.800781 241.78125 C 319.257812 238.570312 339.082031 237.601562 351.566406 236.34375 Z M 355.277344 430.078125 C 355.65625 428.953125 356.03125 427.828125 356.40625 426.703125 C 375.03125 424.820312 393.855469 424.050781 412.238281 420.804688 C 443.800781 415.238281 474.785156 407.109375 499.796875 385.316406 C 525.527344 362.898438 526.914062 330.238281 502.207031 306.808594 C 492.492188 297.597656 480.535156 289.839844 468.277344 284.375 C 416.65625 261.367188 362.445312 259.269531 307.445312 267.617188 C 275.558594 272.457031 245.128906 281.671875 220.132812 303.367188 C 192.296875 327.527344 191.644531 360.460938 219.507812 384.632812 C 230.019531 393.75 242.464844 402.636719 255.539062 406.414062 C 288.324219 415.890625 321.976562 422.386719 355.28125 430.078125 Z M 355.277344 430.078125 " fill-opacity="1" fill-rule="nonzero"/></svg>