<svg xmlns="http://www.w3.org/2000/svg" xmlns:xlink="http://www.w3.org/1999/xlink" width="1254" zoomAndPan="magnify" viewBox="0 0 940.5 940.499971" height="1254" preserveAspectRatio="xMidYMid meet" version="1.0"><defs><clipPath id="bc49d29ead"><path d="M 23 599 L 578 599 L 578 940 L 23 940 Z M 23 599 " clip-rule="nonzero"/></clipPath></defs><path fill="#ff3131" d="M 561.648438 821.074219 C 558.101562 821.074219 554.617188 819.898438 551.785156 817.695312 C 548.070312 814.820312 545.804688 810.476562 545.554688 805.796875 C 542.890625 754.328125 500.378906 714 448.785156 714 C 437.664062 714 426.773438 715.867188 416.386719 719.5625 C 412.023438 721.113281 407.199219 720.695312 403.167969 718.449219 C 399.121094 716.203125 396.246094 712.324219 395.257812 707.789062 C 385.648438 663.644531 345.824219 631.582031 300.566406 631.582031 C 256.714844 631.582031 218.210938 661.148438 206.921875 703.46875 C 205.453125 708.964844 201.214844 713.265625 195.761719 714.820312 C 190.304688 716.371094 184.410156 714.925781 180.296875 711.023438 C 137.914062 670.945312 104.550781 623.652344 81.15625 570.484375 C 56.921875 515.425781 44.648438 456.78125 44.648438 396.144531 C 44.648438 311.898438 68.859375 230.195312 114.664062 159.925781 C 159.25 91.480469 221.925781 37.179688 295.886719 2.875 C 302.160156 -0.0429688 309.609375 1.386719 314.371094 6.421875 C 319.136719 11.457031 320.140625 18.945312 316.910156 25.074219 C 286.359375 82.566406 270.203125 147.546875 270.203125 213.03125 C 270.203125 434.183594 450.128906 614.125 671.300781 614.125 C 730.113281 614.125 786.804688 601.664062 839.808594 577.09375 C 846.082031 574.175781 853.53125 575.601562 858.292969 580.640625 C 863.054688 585.675781 864.0625 593.164062 860.832031 599.292969 C 831.289062 654.894531 789.03125 704.371094 738.652344 742.371094 C 687.519531 780.933594 627.425781 808.066406 564.898438 820.800781 C 563.789062 820.96875 562.71875 821.074219 561.648438 821.074219 Z M 448.785156 681.773438 C 511.121094 681.773438 563.515625 725.941406 575.390625 785.339844 C 670.335938 761.714844 752.542969 704.515625 807.871094 624.367188 C 764.039062 638.949219 718.300781 646.335938 671.300781 646.335938 C 432.375 646.335938 237.976562 451.957031 237.976562 213.011719 C 237.976562 158.707031 248.277344 104.679688 268 54.40625 C 150.566406 126.796875 76.875 256.339844 76.875 396.164062 C 76.875 499.375 115.167969 595.828125 185.226562 670.359375 C 206.816406 627.535156 251.152344 599.355469 300.566406 599.355469 C 355.121094 599.355469 403.757812 634.3125 422.011719 684.542969 C 430.761719 682.695312 439.71875 681.773438 448.785156 681.773438 Z M 448.785156 681.773438 " fill-opacity="1" fill-rule="nonzero"/><path fill="#ff3131" d="M 511.164062 225.894531 L 408.539062 225.894531 C 402.015625 225.894531 396.140625 221.96875 393.644531 215.949219 C 391.144531 209.925781 392.53125 203.003906 397.125 198.386719 L 483.636719 111.875 L 419.933594 111.875 C 411.039062 111.875 403.820312 104.660156 403.820312 95.761719 C 403.820312 86.867188 411.039062 79.648438 419.933594 79.648438 L 522.558594 79.648438 C 529.082031 79.648438 534.957031 83.570312 537.453125 89.59375 C 539.953125 95.617188 538.566406 102.539062 533.949219 107.15625 L 447.441406 193.664062 L 511.144531 193.664062 C 520.039062 193.664062 527.257812 200.882812 527.257812 209.78125 C 527.257812 218.675781 520.082031 225.894531 511.164062 225.894531 Z M 511.164062 225.894531 " fill-opacity="1" fill-rule="nonzero"/><path fill="#ff3131" d="M 699.226562 390.332031 L 596.601562 390.332031 C 590.078125 390.332031 584.203125 386.40625 581.707031 380.386719 C 579.210938 374.363281 580.59375 367.4375 585.210938 362.824219 L 671.71875 276.3125 L 608.019531 276.3125 C 599.121094 276.3125 591.902344 269.097656 591.902344 260.199219 C 591.902344 251.304688 599.121094 244.085938 608.019531 244.085938 L 710.640625 244.085938 C 717.167969 244.085938 723.042969 248.007812 725.539062 254.03125 C 728.035156 260.054688 726.652344 266.976562 722.035156 271.59375 L 635.523438 358.101562 L 699.226562 358.101562 C 708.125 358.101562 715.339844 365.320312 715.339844 374.214844 C 715.339844 383.113281 708.125 390.332031 699.226562 390.332031 Z M 699.226562 390.332031 " fill-opacity="1" fill-rule="nonzero"/><path fill="#ff3131" d="M 887.835938 208.773438 L 785.210938 208.773438 C 778.6875 208.773438 772.8125 204.847656 770.316406 198.828125 C 767.816406 192.804688 769.203125 185.878906 773.820312 181.265625 L 860.328125 94.753906 L 796.625 94.753906 C 787.730469 94.753906 780.511719 87.539062 780.511719 78.640625 C 780.511719 69.746094 787.730469 62.527344 796.625 62.527344 L 899.25 62.527344 C 905.773438 62.527344 911.648438 66.449219 914.148438 72.472656 C 916.644531 78.496094 915.257812 85.417969 910.644531 90.035156 L 824.132812 176.542969 L 887.835938 176.542969 C 896.730469 176.542969 903.949219 183.761719 903.949219 192.65625 C 903.949219 201.554688 896.730469 208.773438 887.835938 208.773438 Z M 887.835938 208.773438 " fill-opacity="1" fill-rule="nonzero"/><g clip-path="url(#bc49d29ead)"><path fill="#ff3131" d="M 448.785156 940.042969 L 152.347656 940.042969 C 81.136719 940.042969 23.203125 882.109375 23.203125 810.917969 C 23.203125 739.726562 81.136719 681.792969 152.347656 681.792969 C 161.414062 681.792969 170.351562 682.71875 179.121094 684.585938 C 197.375 634.351562 246.011719 599.398438 300.566406 599.398438 C 355.121094 599.398438 403.757812 634.351562 422.011719 684.585938 C 430.78125 682.738281 439.71875 681.792969 448.785156 681.792969 C 519.996094 681.792969 577.929688 739.726562 577.929688 810.917969 C 577.929688 882.109375 519.976562 940.042969 448.785156 940.042969 Z M 152.347656 714 C 98.90625 714 55.433594 757.476562 55.433594 810.917969 C 55.433594 864.359375 98.90625 907.835938 152.347656 907.835938 L 448.785156 907.835938 C 502.226562 907.835938 545.699219 864.359375 545.699219 810.917969 C 545.699219 757.476562 502.226562 714 448.785156 714 C 437.664062 714 426.773438 715.867188 416.386719 719.5625 C 412.023438 721.113281 407.199219 720.695312 403.167969 718.449219 C 399.121094 716.203125 396.246094 712.324219 395.257812 707.789062 C 385.648438 663.644531 345.824219 631.582031 300.566406 631.582031 C 255.308594 631.582031 215.484375 663.625 205.875 707.789062 C 204.886719 712.324219 202.011719 716.183594 197.964844 718.449219 C 193.914062 720.695312 189.089844 721.09375 184.746094 719.5625 C 174.359375 715.867188 163.46875 714 152.347656 714 Z M 152.347656 714 " fill-opacity="1" fill-rule="nonzero"/></g></svg>