<svg xmlns="http://www.w3.org/2000/svg" xmlns:xlink="http://www.w3.org/1999/xlink" width="1254" zoomAndPan="magnify" viewBox="0 0 940.5 940.499971" height="1254" preserveAspectRatio="xMidYMid meet" version="1.0"><path fill="#000000" d="M 512.707031 115.347656 C 493.574219 102.59375 468.648438 102.59375 449.515625 115.347656 L 130.539062 327.953125 C 114.691406 338.515625 105.175781 356.296875 105.175781 375.339844 L 105.175781 782.160156 C 105.175781 813.613281 130.675781 839.109375 162.136719 839.109375 L 310.230469 839.109375 L 310.230469 645.484375 C 310.230469 576.289062 366.335938 520.199219 435.542969 520.199219 L 526.679688 520.199219 C 595.886719 520.199219 651.992188 576.289062 651.992188 645.484375 L 651.992188 839.109375 L 800.085938 839.109375 C 831.546875 839.109375 857.046875 813.613281 857.046875 782.160156 L 857.046875 375.339844 C 857.046875 356.296875 847.527344 338.515625 831.683594 327.953125 L 781.132812 294.257812 C 765.425781 283.792969 761.183594 262.578125 771.652344 246.875 C 782.121094 231.171875 803.339844 226.929688 819.042969 237.398438 L 869.597656 271.09375 C 904.460938 294.332031 925.398438 333.449219 925.398438 375.339844 L 925.398438 782.160156 C 925.398438 851.355469 869.296875 907.445312 800.085938 907.445312 L 617.816406 907.445312 C 598.941406 907.445312 583.640625 892.148438 583.640625 873.277344 L 583.640625 645.484375 C 583.640625 614.035156 558.140625 588.535156 526.679688 588.535156 L 435.542969 588.535156 C 404.082031 588.535156 378.582031 614.035156 378.582031 645.484375 L 378.582031 873.277344 C 378.582031 892.148438 363.28125 907.445312 344.40625 907.445312 L 162.136719 907.445312 C 92.925781 907.445312 36.824219 851.355469 36.824219 782.160156 L 36.824219 375.339844 C 36.824219 333.449219 57.761719 294.332031 92.625 271.09375 L 411.601562 58.488281 C 453.691406 30.429688 508.53125 30.429688 550.621094 58.488281 L 636.773438 115.910156 C 652.480469 126.375 656.722656 147.589844 646.25 163.292969 C 635.78125 178.996094 614.5625 183.238281 598.859375 172.769531 Z M 512.707031 115.347656 " fill-opacity="1" fill-rule="evenodd"/><path fill="#b4b4b4" d="M 550.414062 58.476562 C 508.339844 30.425781 453.523438 30.425781 411.449219 58.476562 L 92.597656 271.042969 C 57.75 294.277344 36.816406 333.386719 36.816406 375.269531 L 36.816406 782.015625 C 36.816406 851.195312 92.898438 907.277344 162.078125 907.277344 L 344.28125 907.277344 C 363.148438 907.277344 378.441406 891.984375 378.441406 873.117188 L 378.441406 645.363281 C 378.441406 613.917969 403.933594 588.425781 435.378906 588.425781 L 526.480469 588.425781 C 557.929688 588.425781 583.417969 613.917969 583.417969 645.363281 L 583.417969 873.117188 C 583.417969 891.984375 598.714844 907.277344 617.582031 907.277344 L 799.78125 907.277344 C 868.964844 907.277344 925.046875 851.195312 925.046875 782.015625 L 925.046875 375.269531 C 925.046875 333.386719 904.113281 294.277344 869.265625 271.042969 Z M 550.414062 58.476562 " fill-opacity="1" fill-rule="evenodd"/><path fill="#b4b4b4" d="M 512.515625 115.332031 C 493.390625 102.582031 468.472656 102.582031 449.347656 115.332031 L 130.496094 327.898438 C 114.65625 338.457031 105.140625 356.238281 105.140625 375.273438 L 105.140625 782.019531 C 105.140625 813.46875 130.632812 838.957031 162.078125 838.957031 L 310.117188 838.957031 L 310.117188 645.371094 C 310.117188 576.1875 366.199219 520.105469 435.378906 520.105469 L 526.480469 520.105469 C 595.664062 520.105469 651.742188 576.1875 651.742188 645.371094 L 651.742188 838.957031 L 799.78125 838.957031 C 831.230469 838.957031 856.71875 813.46875 856.71875 782.019531 L 856.71875 375.273438 C 856.71875 356.238281 847.203125 338.457031 831.367188 327.898438 L 780.832031 294.210938 C 765.132812 283.746094 760.890625 262.535156 771.359375 246.835938 C 781.820312 231.136719 803.035156 226.894531 818.730469 237.359375 L 869.265625 271.050781 C 904.113281 294.28125 925.046875 333.390625 925.046875 375.273438 L 925.046875 782.019531 C 925.046875 851.203125 868.964844 907.28125 799.78125 907.28125 L 617.582031 907.28125 C 598.714844 907.28125 583.417969 891.988281 583.417969 873.121094 L 583.417969 645.371094 C 583.417969 613.925781 557.929688 588.433594 526.480469 588.433594 L 435.378906 588.433594 C 403.933594 588.433594 378.441406 613.925781 378.441406 645.371094 L 378.441406 873.121094 C 378.441406 891.988281 363.148438 907.28125 344.28125 907.28125 L 162.078125 907.28125 C 92.898438 907.28125 36.816406 851.203125 36.816406 782.019531 L 36.816406 375.273438 C 36.816406 333.390625 57.75 294.28125 92.597656 271.050781 L 411.449219 58.480469 C 453.523438 30.429688 508.339844 30.429688 550.414062 58.480469 L 636.53125 115.894531 C 652.230469 126.359375 656.472656 147.570312 646.003906 163.269531 C 635.542969 178.964844 614.328125 183.207031 598.632812 172.742188 Z M 512.515625 115.332031 " fill-opacity="1" fill-rule="evenodd"/></svg>