<svg xmlns="http://www.w3.org/2000/svg" xmlns:xlink="http://www.w3.org/1999/xlink" width="1254" zoomAndPan="magnify" viewBox="0 0 940.5 940.499971" height="1254" preserveAspectRatio="xMidYMid meet" version="1.0"><path fill="#ff3131" d="M 456.078125 416.234375 C 461.679688 404.53125 456.734375 390.5 445.03125 384.898438 C 413.425781 369.769531 379.515625 362.097656 344.238281 362.097656 C 312.703125 362.097656 282.101562 368.28125 253.277344 380.46875 C 225.449219 392.238281 200.464844 409.082031 179.011719 430.535156 C 157.5625 451.984375 140.714844 476.972656 128.949219 504.800781 C 116.753906 533.621094 110.578125 564.226562 110.578125 595.761719 C 110.578125 627.296875 116.757812 657.898438 128.949219 686.722656 C 140.71875 714.550781 157.5625 739.535156 179.011719 760.988281 C 200.464844 782.4375 225.453125 799.285156 253.277344 811.050781 C 282.101562 823.246094 312.703125 829.425781 344.238281 829.425781 C 375.773438 829.425781 406.378906 823.246094 435.199219 811.050781 C 463.03125 799.28125 488.015625 782.4375 509.464844 760.988281 C 530.917969 739.535156 547.765625 714.546875 559.53125 686.722656 C 571.722656 657.898438 577.90625 627.296875 577.90625 595.761719 C 577.90625 561.019531 570.457031 527.578125 555.765625 496.363281 C 550.238281 484.625 536.242188 479.585938 524.503906 485.113281 C 512.761719 490.640625 507.726562 504.632812 513.253906 516.375 C 524.976562 541.28125 530.917969 567.992188 530.917969 595.761719 C 530.917969 645.625 511.5 692.503906 476.242188 727.761719 C 440.984375 763.019531 394.105469 782.4375 344.238281 782.4375 C 294.375 782.4375 247.496094 763.019531 212.238281 727.761719 C 176.980469 692.503906 157.5625 645.625 157.5625 595.761719 C 157.5625 545.894531 176.980469 499.019531 212.238281 463.757812 C 247.496094 428.5 294.375 409.082031 344.238281 409.082031 C 372.4375 409.082031 399.519531 415.207031 424.738281 427.277344 C 436.441406 432.882812 450.472656 427.9375 456.078125 416.234375 Z M 456.078125 416.234375 " fill-opacity="1" fill-rule="nonzero"/><path fill="#ff3131" d="M 603.496094 405.449219 C 592.511719 412.351562 589.199219 426.855469 596.105469 437.84375 C 625.785156 485.074219 641.476562 539.683594 641.476562 595.761719 C 641.476562 635.898438 633.621094 674.820312 618.128906 711.449219 C 603.15625 746.839844 581.722656 778.632812 554.417969 805.933594 C 527.113281 833.238281 495.324219 854.675781 459.929688 869.644531 C 423.300781 885.136719 384.378906 892.996094 344.242188 892.996094 C 304.105469 892.996094 265.183594 885.136719 228.554688 869.644531 C 193.160156 854.675781 161.371094 833.242188 134.066406 805.933594 C 106.765625 778.632812 85.328125 746.839844 70.359375 711.449219 C 54.867188 674.820312 47.007812 635.898438 47.007812 595.761719 C 47.007812 590.078125 47.171875 584.335938 47.488281 578.683594 C 54.101562 461.773438 129.199219 359.351562 238.808594 317.761719 C 272.445312 304.996094 307.914062 298.527344 344.238281 298.527344 C 400 298.527344 454.339844 314.046875 501.390625 343.414062 C 505.257812 345.832031 509.558594 346.980469 513.808594 346.980469 C 521.644531 346.980469 529.304688 343.0625 533.761719 335.925781 C 540.628906 324.917969 537.277344 310.425781 526.273438 303.554688 C 471.753906 269.527344 408.808594 251.539062 344.242188 251.539062 C 302.199219 251.539062 261.121094 259.035156 222.140625 273.828125 C 95.207031 321.996094 8.238281 440.617188 0.574219 576.03125 C 0.574219 576.03125 0.574219 576.035156 0.574219 576.035156 C 0.203125 582.5625 0.0195312 589.203125 0.0195312 595.761719 C 0.0195312 642.222656 9.125 687.304688 27.078125 729.757812 C 44.417969 770.75 69.234375 807.558594 100.839844 839.167969 C 132.445312 870.773438 169.257812 895.589844 210.25 912.925781 C 252.699219 930.878906 297.78125 939.984375 344.242188 939.984375 C 390.703125 939.984375 435.785156 930.878906 478.238281 912.925781 C 519.230469 895.585938 556.039062 870.769531 587.644531 839.167969 C 619.25 807.558594 644.066406 770.75 661.40625 729.757812 C 679.363281 687.304688 688.46875 642.222656 688.46875 595.761719 C 688.46875 530.828125 670.285156 467.574219 635.894531 412.84375 C 628.984375 401.855469 614.484375 398.546875 603.496094 405.449219 Z M 603.496094 405.449219 " fill-opacity="1" fill-rule="nonzero"/><path fill="#ff3131" d="M 937.226562 186.429688 C 934.496094 178.027344 927.28125 171.863281 918.550781 170.484375 L 800.335938 151.796875 C 799.195312 149.167969 797.554688 146.703125 795.402344 144.550781 C 793.253906 142.402344 790.789062 140.761719 788.15625 139.617188 L 769.46875 21.402344 C 768.089844 12.675781 761.929688 5.460938 753.527344 2.726562 C 745.125 -0.0078125 735.898438 2.207031 729.652344 8.457031 L 579.648438 158.460938 C 574.332031 163.777344 571.882812 171.316406 573.054688 178.742188 L 594.199219 312.523438 L 336.789062 569.9375 C 327.613281 579.113281 327.613281 593.988281 336.789062 603.160156 C 341.375 607.746094 347.390625 610.042969 353.402344 610.042969 C 359.414062 610.042969 365.425781 607.746094 370.015625 603.160156 L 627.429688 345.746094 L 761.210938 366.894531 C 762.4375 367.085938 763.660156 367.183594 764.882812 367.183594 C 771.066406 367.183594 777.054688 364.742188 781.496094 360.300781 L 931.496094 210.300781 C 937.742188 204.058594 939.957031 194.835938 937.226562 186.429688 Z M 730.261719 74.304688 L 744.207031 162.527344 L 635.28125 271.449219 L 621.339844 183.226562 Z M 756.730469 318.621094 L 668.511719 304.675781 L 777.433594 195.753906 L 865.65625 209.699219 Z M 756.730469 318.621094 " fill-opacity="1" fill-rule="nonzero"/><path fill="#ff3131" d="M 344.242188 533.378906 C 347.132812 533.378906 350.035156 533.578125 352.875 533.96875 C 365.734375 535.738281 377.585938 526.753906 379.355469 513.902344 C 381.125 501.046875 372.144531 489.191406 359.289062 487.417969 C 354.335938 486.738281 349.269531 486.390625 344.242188 486.390625 C 283.933594 486.390625 234.871094 535.453125 234.871094 595.761719 C 234.871094 656.074219 283.933594 705.136719 344.242188 705.136719 C 404.550781 705.136719 453.617188 656.074219 453.617188 595.761719 C 453.617188 590.839844 453.285156 585.878906 452.628906 581.023438 C 450.894531 568.164062 439.054688 559.148438 426.203125 560.882812 C 413.34375 562.617188 404.324219 574.449219 406.0625 587.308594 C 406.4375 590.089844 406.628906 592.933594 406.628906 595.761719 C 406.628906 630.164062 378.640625 658.148438 344.242188 658.148438 C 309.84375 658.148438 281.859375 630.164062 281.859375 595.761719 C 281.859375 561.363281 309.84375 533.378906 344.242188 533.378906 Z M 344.242188 533.378906 " fill-opacity="1" fill-rule="nonzero"/></svg>