<svg xmlns="http://www.w3.org/2000/svg" xmlns:xlink="http://www.w3.org/1999/xlink" width="1254" zoomAndPan="magnify" viewBox="0 0 940.5 940.499971" height="1254" preserveAspectRatio="xMidYMid meet" version="1.0"><defs><clipPath id="a29535b229"><path d="M 1 39.550781 L 940 39.550781 L 940 911.339844 L 1 911.339844 Z M 1 39.550781 " clip-rule="nonzero"/></clipPath><clipPath id="9d8aa07ff6"><path d="M 1 34.074219 L 940 34.074219 L 940 905.863281 L 1 905.863281 Z M 1 34.074219 " clip-rule="nonzero"/></clipPath><clipPath id="1e341934c7"><path d="M 0 34.074219 L 934.714844 34.074219 L 934.714844 905.863281 L 0 905.863281 Z M 0 34.074219 " clip-rule="nonzero"/></clipPath><clipPath id="ff743de648"><path d="M 0 39.550781 L 934.714844 39.550781 L 934.714844 911.339844 L 0 911.339844 Z M 0 39.550781 " clip-rule="nonzero"/></clipPath></defs><g clip-path="url(#a29535b229)"><path fill="#ff3131" d="M 89.714844 639.929688 L 89.714844 311.367188 C 89.714844 304.921875 94.953125 299.683594 101.398438 299.683594 L 240.890625 299.683594 C 247.335938 299.683594 252.574219 304.921875 252.574219 311.367188 L 252.574219 555.707031 C 252.574219 562.152344 247.335938 567.390625 240.890625 567.390625 C 234.445312 567.390625 229.207031 562.152344 229.207031 555.707031 L 229.207031 323.054688 L 113.085938 323.054688 L 113.085938 639.929688 C 113.085938 646.375 107.847656 651.613281 101.398438 651.613281 C 94.953125 651.613281 89.714844 646.375 89.714844 639.929688 Z M 939.746094 225.140625 L 917.175781 438.007812 C 916.710938 442.484375 913.691406 446.285156 909.445312 447.78125 C 905.199219 449.28125 900.46875 448.210938 897.292969 445.035156 L 854.683594 402.429688 L 509.492188 747.601562 C 507.3125 749.78125 504.332031 751.027344 501.234375 751.027344 L 266.519531 751.027344 L 109.65625 907.890625 C 107.378906 910.167969 104.378906 911.316406 101.398438 911.316406 C 98.421875 911.316406 95.421875 910.167969 93.144531 907.890625 L 4.597656 819.34375 C 0.0390625 814.785156 0.0390625 807.386719 4.597656 802.808594 L 201.554688 605.851562 C 203.734375 603.671875 206.714844 602.425781 209.8125 602.425781 L 444.507812 602.425781 L 749.585938 297.347656 L 706.976562 254.738281 C 703.800781 251.566406 702.710938 246.832031 704.230469 242.585938 C 705.730469 238.34375 709.527344 235.34375 714.007812 234.855469 L 926.875 212.285156 C 930.378906 211.917969 933.867188 213.144531 936.378906 215.636719 C 938.871094 218.128906 940.117188 221.613281 939.746094 225.140625 Z M 914.976562 237.039062 L 740.800781 255.519531 L 774.375 289.089844 C 778.933594 293.648438 778.933594 301.046875 774.375 305.625 L 457.613281 622.386719 C 455.433594 624.566406 452.453125 625.8125 449.359375 625.8125 L 214.660156 625.8125 L 29.386719 811.085938 L 101.398438 883.101562 L 253.433594 731.066406 C 255.613281 728.886719 258.59375 727.640625 261.6875 727.640625 L 496.386719 727.640625 L 846.410156 377.617188 C 850.964844 373.0625 858.367188 373.0625 862.921875 377.617188 L 896.496094 411.191406 Z M 311.621094 567.390625 C 318.066406 567.390625 323.304688 562.152344 323.304688 555.707031 L 323.304688 193.125 L 439.425781 193.125 L 439.425781 529.730469 C 439.425781 536.175781 444.664062 541.414062 451.109375 541.414062 C 457.554688 541.414062 462.792969 536.175781 462.792969 529.730469 L 462.792969 181.441406 C 462.792969 174.992188 457.554688 169.753906 451.109375 169.753906 L 311.621094 169.753906 C 305.175781 169.753906 299.933594 174.992188 299.933594 181.441406 L 299.933594 555.707031 C 299.933594 562.152344 305.175781 567.390625 311.621094 567.390625 Z M 521.859375 470.703125 C 528.304688 470.703125 533.542969 465.464844 533.542969 459.019531 L 533.542969 63.195312 L 649.664062 63.195312 L 649.664062 319.507812 C 649.664062 325.953125 654.902344 331.191406 661.347656 331.191406 C 667.796875 331.191406 673.035156 325.953125 673.035156 319.507812 L 673.035156 51.511719 C 673.035156 45.066406 667.796875 39.828125 661.347656 39.828125 L 521.859375 39.828125 C 515.414062 39.828125 510.175781 45.066406 510.175781 51.511719 L 510.175781 459.019531 C 510.175781 465.464844 515.394531 470.703125 521.859375 470.703125 Z M 521.859375 470.703125 " fill-opacity="1" fill-rule="nonzero"/></g><g clip-path="url(#9d8aa07ff6)"><path fill="#ff3131" d="M 89.714844 634.453125 L 89.714844 305.890625 C 89.714844 299.445312 94.953125 294.207031 101.398438 294.207031 L 240.890625 294.207031 C 247.335938 294.207031 252.574219 299.445312 252.574219 305.890625 L 252.574219 550.230469 C 252.574219 556.675781 247.335938 561.914062 240.890625 561.914062 C 234.445312 561.914062 229.207031 556.675781 229.207031 550.230469 L 229.207031 317.574219 L 113.085938 317.574219 L 113.085938 634.453125 C 113.085938 640.898438 107.847656 646.136719 101.398438 646.136719 C 94.953125 646.136719 89.714844 640.898438 89.714844 634.453125 Z M 939.746094 219.660156 L 917.175781 432.53125 C 916.710938 437.007812 913.691406 440.804688 909.445312 442.304688 C 905.199219 443.804688 900.46875 442.734375 897.292969 439.558594 L 854.683594 396.953125 L 509.492188 742.125 C 507.3125 744.304688 504.332031 745.550781 501.234375 745.550781 L 266.519531 745.550781 L 109.65625 902.414062 C 107.378906 904.691406 104.378906 905.839844 101.398438 905.839844 C 98.421875 905.839844 95.421875 904.691406 93.144531 902.414062 L 4.597656 813.867188 C 0.0390625 809.308594 0.0390625 801.910156 4.597656 797.332031 L 201.554688 600.375 C 203.734375 598.195312 206.714844 596.945312 209.8125 596.945312 L 444.507812 596.945312 L 749.585938 291.871094 L 706.976562 249.261719 C 703.800781 246.085938 702.710938 241.355469 704.230469 237.109375 C 705.730469 232.863281 709.527344 229.867188 714.007812 229.378906 L 926.875 206.808594 C 930.378906 206.4375 933.867188 207.664062 936.378906 210.160156 C 938.871094 212.652344 940.117188 216.136719 939.746094 219.660156 Z M 914.976562 231.558594 L 740.800781 250.039062 L 774.375 283.613281 C 778.933594 288.171875 778.933594 295.570312 774.375 300.148438 L 457.613281 616.90625 C 455.433594 619.089844 452.453125 620.335938 449.359375 620.335938 L 214.660156 620.335938 L 29.386719 805.609375 L 101.398438 877.625 L 253.433594 725.589844 C 255.613281 723.410156 258.59375 722.164062 261.6875 722.164062 L 496.386719 722.164062 L 846.410156 372.140625 C 850.964844 367.585938 858.367188 367.585938 862.921875 372.140625 L 896.496094 405.714844 Z M 311.621094 561.914062 C 318.066406 561.914062 323.304688 556.675781 323.304688 550.230469 L 323.304688 187.648438 L 439.425781 187.648438 L 439.425781 524.25 C 439.425781 530.699219 444.664062 535.9375 451.109375 535.9375 C 457.554688 535.9375 462.792969 530.699219 462.792969 524.25 L 462.792969 175.960938 C 462.792969 169.515625 457.554688 164.277344 451.109375 164.277344 L 311.621094 164.277344 C 305.175781 164.277344 299.933594 169.515625 299.933594 175.960938 L 299.933594 550.230469 C 299.933594 556.675781 305.175781 561.914062 311.621094 561.914062 Z M 521.859375 465.226562 C 528.304688 465.226562 533.542969 459.988281 533.542969 453.542969 L 533.542969 57.71875 L 649.664062 57.71875 L 649.664062 314.03125 C 649.664062 320.476562 654.902344 325.714844 661.347656 325.714844 C 667.796875 325.714844 673.035156 320.476562 673.035156 314.03125 L 673.035156 46.035156 C 673.035156 39.585938 667.796875 34.347656 661.347656 34.347656 L 521.859375 34.347656 C 515.414062 34.347656 510.175781 39.585938 510.175781 46.035156 L 510.175781 453.542969 C 510.175781 459.988281 515.394531 465.226562 521.859375 465.226562 Z M 521.859375 465.226562 " fill-opacity="1" fill-rule="nonzero"/></g><g clip-path="url(#1e341934c7)"><path fill="#ff3131" d="M 84.429688 634.453125 L 84.429688 305.890625 C 84.429688 299.445312 89.667969 294.207031 96.117188 294.207031 L 235.605469 294.207031 C 242.050781 294.207031 247.289062 299.445312 247.289062 305.890625 L 247.289062 550.230469 C 247.289062 556.675781 242.050781 561.914062 235.605469 561.914062 C 229.160156 561.914062 223.921875 556.675781 223.921875 550.230469 L 223.921875 317.574219 L 107.800781 317.574219 L 107.800781 634.453125 C 107.800781 640.898438 102.5625 646.136719 96.117188 646.136719 C 89.667969 646.136719 84.429688 640.898438 84.429688 634.453125 Z M 934.460938 219.660156 L 911.890625 432.53125 C 911.425781 437.007812 908.40625 440.804688 904.160156 442.304688 C 899.914062 443.804688 895.183594 442.734375 892.007812 439.558594 L 849.402344 396.953125 L 504.207031 742.125 C 502.027344 744.304688 499.046875 745.550781 495.953125 745.550781 L 261.234375 745.550781 L 104.371094 902.414062 C 102.09375 904.691406 99.09375 905.839844 96.117188 905.839844 C 93.136719 905.839844 90.136719 904.691406 87.859375 902.414062 L -0.6875 813.867188 C -5.246094 809.308594 -5.246094 801.910156 -0.6875 797.332031 L 196.269531 600.375 C 198.449219 598.195312 201.429688 596.945312 204.527344 596.945312 L 439.222656 596.945312 L 744.300781 291.871094 L 701.691406 249.261719 C 698.519531 246.085938 697.425781 241.355469 698.945312 237.109375 C 700.445312 232.863281 704.242188 229.867188 708.722656 229.378906 L 921.589844 206.808594 C 925.09375 206.4375 928.582031 207.664062 931.09375 210.160156 C 933.585938 212.652344 934.832031 216.136719 934.460938 219.660156 Z M 909.691406 231.558594 L 735.519531 250.039062 L 769.089844 283.613281 C 773.648438 288.171875 773.648438 295.570312 769.089844 300.148438 L 452.332031 616.90625 C 450.148438 619.089844 447.167969 620.335938 444.074219 620.335938 L 209.375 620.335938 L 24.101562 805.609375 L 96.117188 877.625 L 248.148438 725.589844 C 250.328125 723.410156 253.308594 722.164062 256.40625 722.164062 L 491.101562 722.164062 L 841.125 372.140625 C 845.679688 367.585938 853.082031 367.585938 857.636719 372.140625 L 891.210938 405.714844 Z M 306.335938 561.914062 C 312.78125 561.914062 318.019531 556.675781 318.019531 550.230469 L 318.019531 187.648438 L 434.140625 187.648438 L 434.140625 524.25 C 434.140625 530.699219 439.378906 535.9375 445.824219 535.9375 C 452.273438 535.9375 457.511719 530.699219 457.511719 524.25 L 457.511719 175.960938 C 457.511719 169.515625 452.273438 164.277344 445.824219 164.277344 L 306.335938 164.277344 C 299.890625 164.277344 294.652344 169.515625 294.652344 175.960938 L 294.652344 550.230469 C 294.652344 556.675781 299.890625 561.914062 306.335938 561.914062 Z M 516.574219 465.226562 C 523.019531 465.226562 528.257812 459.988281 528.257812 453.542969 L 528.257812 57.71875 L 644.378906 57.71875 L 644.378906 314.03125 C 644.378906 320.476562 649.621094 325.714844 656.066406 325.714844 C 662.511719 325.714844 667.75 320.476562 667.75 314.03125 L 667.75 46.035156 C 667.75 39.585938 662.511719 34.347656 656.066406 34.347656 L 516.574219 34.347656 C 510.128906 34.347656 504.890625 39.585938 504.890625 46.035156 L 504.890625 453.542969 C 504.890625 459.988281 510.109375 465.226562 516.574219 465.226562 Z M 516.574219 465.226562 " fill-opacity="1" fill-rule="nonzero"/></g><g clip-path="url(#ff743de648)"><path fill="#ff3131" d="M 84.429688 639.929688 L 84.429688 311.367188 C 84.429688 304.921875 89.667969 299.683594 96.117188 299.683594 L 235.605469 299.683594 C 242.050781 299.683594 247.289062 304.921875 247.289062 311.367188 L 247.289062 555.707031 C 247.289062 562.152344 242.050781 567.390625 235.605469 567.390625 C 229.160156 567.390625 223.921875 562.152344 223.921875 555.707031 L 223.921875 323.054688 L 107.800781 323.054688 L 107.800781 639.929688 C 107.800781 646.375 102.5625 651.613281 96.117188 651.613281 C 89.667969 651.613281 84.429688 646.375 84.429688 639.929688 Z M 934.460938 225.140625 L 911.890625 438.007812 C 911.425781 442.484375 908.40625 446.285156 904.160156 447.78125 C 899.914062 449.28125 895.183594 448.210938 892.007812 445.035156 L 849.402344 402.429688 L 504.207031 747.601562 C 502.027344 749.78125 499.046875 751.027344 495.953125 751.027344 L 261.234375 751.027344 L 104.371094 907.890625 C 102.09375 910.167969 99.09375 911.316406 96.117188 911.316406 C 93.136719 911.316406 90.136719 910.167969 87.859375 907.890625 L -0.6875 819.34375 C -5.246094 814.785156 -5.246094 807.386719 -0.6875 802.808594 L 196.269531 605.851562 C 198.449219 603.671875 201.429688 602.425781 204.527344 602.425781 L 439.222656 602.425781 L 744.300781 297.347656 L 701.691406 254.738281 C 698.519531 251.566406 697.425781 246.832031 698.945312 242.585938 C 700.445312 238.34375 704.242188 235.34375 708.722656 234.855469 L 921.589844 212.285156 C 925.09375 211.917969 928.582031 213.144531 931.09375 215.636719 C 933.585938 218.128906 934.832031 221.613281 934.460938 225.140625 Z M 909.691406 237.039062 L 735.519531 255.519531 L 769.089844 289.089844 C 773.648438 293.648438 773.648438 301.046875 769.089844 305.625 L 452.332031 622.386719 C 450.148438 624.566406 447.167969 625.8125 444.074219 625.8125 L 209.375 625.8125 L 24.101562 811.085938 L 96.117188 883.101562 L 248.148438 731.066406 C 250.328125 728.886719 253.308594 727.640625 256.40625 727.640625 L 491.101562 727.640625 L 841.125 377.617188 C 845.679688 373.0625 853.082031 373.0625 857.636719 377.617188 L 891.210938 411.191406 Z M 306.335938 567.390625 C 312.78125 567.390625 318.019531 562.152344 318.019531 555.707031 L 318.019531 193.125 L 434.140625 193.125 L 434.140625 529.730469 C 434.140625 536.175781 439.378906 541.414062 445.824219 541.414062 C 452.273438 541.414062 457.511719 536.175781 457.511719 529.730469 L 457.511719 181.441406 C 457.511719 174.992188 452.273438 169.753906 445.824219 169.753906 L 306.335938 169.753906 C 299.890625 169.753906 294.652344 174.992188 294.652344 181.441406 L 294.652344 555.707031 C 294.652344 562.152344 299.890625 567.390625 306.335938 567.390625 Z M 516.574219 470.703125 C 523.019531 470.703125 528.257812 465.464844 528.257812 459.019531 L 528.257812 63.195312 L 644.378906 63.195312 L 644.378906 319.507812 C 644.378906 325.953125 649.621094 331.191406 656.066406 331.191406 C 662.511719 331.191406 667.75 325.953125 667.75 319.507812 L 667.75 51.511719 C 667.75 45.066406 662.511719 39.828125 656.066406 39.828125 L 516.574219 39.828125 C 510.128906 39.828125 504.890625 45.066406 504.890625 51.511719 L 504.890625 459.019531 C 504.890625 465.464844 510.109375 470.703125 516.574219 470.703125 Z M 516.574219 470.703125 " fill-opacity="1" fill-rule="nonzero"/></g></svg>