<svg xmlns="http://www.w3.org/2000/svg" xmlns:xlink="http://www.w3.org/1999/xlink" width="1254" zoomAndPan="magnify" viewBox="0 0 940.5 940.499971" height="1254" preserveAspectRatio="xMidYMid meet" version="1.0"><defs><clipPath id="ea5994cf15"><path d="M 0 0 L 940 0 L 940 940 L 0 940 Z M 0 0 " clip-rule="nonzero"/></clipPath></defs><path fill="#ff3131" d="M 489.332031 405.863281 L 566.769531 233.769531 L 431.414062 233.769531 L 326.394531 480.671875 L 436.074219 480.671875 C 439.828125 480.671875 443.359375 482.375 445.699219 485.3125 C 448.039062 488.246094 448.902344 492.082031 448.082031 495.738281 L 408.53125 669.082031 L 606.503906 423.246094 L 500.539062 423.246094 C 496.351562 423.246094 492.472656 421.113281 490.195312 417.621094 C 487.917969 414.113281 487.589844 409.699219 489.3125 405.882812 Z M 489.332031 405.863281 " fill-opacity="1" fill-rule="evenodd"/><g clip-path="url(#ea5994cf15)"><path fill="#ff3131" d="M 673.597656 39.507812 L 723.636719 192.453125 L 753.253906 162.121094 C 755.53125 159.78125 758.648438 158.445312 761.914062 158.40625 C 765.195312 158.300781 768.335938 159.636719 770.65625 161.914062 C 854.3125 243.601562 900.390625 352.972656 900.390625 469.898438 C 900.390625 586.824219 855.625 692.933594 774.351562 774.226562 C 693.054688 855.503906 584.976562 900.265625 470.019531 900.265625 C 355.066406 900.265625 246.964844 855.503906 165.691406 774.226562 C 84.414062 692.953125 39.652344 584.871094 39.652344 469.898438 C 39.652344 354.921875 84.414062 246.84375 165.691406 165.566406 C 244.070312 87.1875 347.347656 42.773438 457.707031 39.695312 L 457.707031 0.0625 C 204.214844 6.609375 0.0195312 214.84375 0.0195312 469.898438 C 0.0195312 724.949219 210.863281 939.898438 470.019531 939.898438 C 729.175781 939.898438 940.019531 729.074219 940.019531 469.898438 C 940.019531 342.21875 889.695312 222.769531 798.324219 133.570312 C 793.457031 128.808594 793.355469 121.03125 798.117188 116.164062 L 827.714844 85.851562 L 673.597656 39.527344 Z M 673.597656 39.507812 " fill-opacity="1" fill-rule="evenodd"/></g></svg>