<svg xmlns="http://www.w3.org/2000/svg" xmlns:xlink="http://www.w3.org/1999/xlink" width="1254" zoomAndPan="magnify" viewBox="0 0 940.5 940.499971" height="1254" preserveAspectRatio="xMidYMid meet" version="1.0"><path fill="#ff3131" d="M 99.015625 912.621094 L 501.492188 912.621094 L 501.492188 871.269531 L 99.015625 871.269531 Z M 358.316406 313.726562 L 265.203125 406.835938 L 358.316406 406.835938 Z M 358.316406 453.585938 L 261.121094 550.777344 L 358.316406 551.851562 Z M 358.316406 599.410156 L 260.722656 700.367188 L 358.316406 700.367188 Z M 358.316406 747.105469 L 261.53125 843.890625 L 358.316406 843.890625 Z M 242.183594 824.53125 L 242.183594 727.746094 L 338.96875 727.746094 Z M 242.183594 680.257812 L 242.183594 577.847656 L 340.175781 578.921875 Z M 242.183594 531.007812 L 242.183594 434.226562 L 338.96875 434.226562 Z M 242.183594 391.148438 L 242.183594 294.433594 L 338.910156 294.433594 Z M 204.21875 267.042969 L 159.855469 193.636719 L 117.449219 267.042969 Z M 72.070312 267.042969 L 43.242188 215.207031 L 43.242188 267.042969 Z M 55.140625 180.480469 L 135.910156 180.480469 L 94.785156 251.734375 Z M 183.855469 180.480469 L 214.804688 180.480469 L 214.804688 231.667969 Z M 848.003906 153.332031 C 848.425781 153.398438 848.847656 153.492188 849.269531 153.605469 L 849.429688 153.640625 L 849.5 153.664062 L 849.703125 153.71875 L 849.75 153.730469 L 849.933594 153.789062 L 850.136719 153.855469 L 850.34375 153.925781 L 850.410156 153.949219 L 850.570312 153.992188 L 850.730469 154.0625 L 850.777344 154.074219 L 850.980469 154.152344 L 851.074219 154.1875 L 851.1875 154.234375 L 851.390625 154.3125 L 851.597656 154.402344 L 851.710938 154.449219 L 852.03125 154.609375 L 852.214844 154.699219 L 852.351562 154.769531 L 852.417969 154.792969 L 852.601562 154.90625 L 852.671875 154.941406 L 852.808594 155.019531 L 852.964844 155.121094 L 852.988281 155.132812 C 853.25 155.28125 853.503906 155.441406 853.742188 155.613281 L 853.832031 155.691406 L 853.925781 155.75 L 854.109375 155.886719 L 854.128906 155.898438 L 854.289062 156.011719 L 854.402344 156.105469 L 854.804688 156.433594 L 854.917969 156.539062 L 854.984375 156.582031 L 855.144531 156.730469 L 855.191406 156.765625 L 855.429688 156.992188 L 855.636719 157.199219 L 855.660156 157.234375 L 855.796875 157.359375 L 855.957031 157.519531 L 856.113281 157.691406 L 856.136719 157.710938 L 856.253906 157.859375 L 856.367188 157.976562 L 856.410156 158.042969 L 856.546875 158.214844 L 856.570312 158.226562 L 856.707031 158.398438 L 856.777344 158.488281 L 856.84375 158.578125 L 856.980469 158.761719 L 856.980469 158.773438 L 857.117188 158.957031 L 857.1875 159.035156 L 857.257812 159.148438 L 857.371094 159.308594 L 857.394531 159.34375 L 857.53125 159.550781 L 857.550781 159.582031 L 857.644531 159.742188 L 857.757812 159.949219 L 857.894531 160.152344 L 922.90625 272.769531 C 924.492188 275.007812 925.429688 277.757812 925.429688 280.699219 C 925.429688 288.261719 919.304688 294.390625 911.75 294.390625 L 735.796875 294.390625 L 735.796875 481.578125 L 769.953125 481.578125 C 774.367188 481.578125 778.578125 482.777344 782.320312 484.988281 C 785.96875 487.179688 789.027344 490.328125 791.136719 494.265625 C 793.257812 498.144531 794.21875 502.398438 794.035156 506.664062 C 793.851562 510.941406 792.539062 515.105469 790.109375 518.835938 L 767.089844 554.132812 L 742.265625 592.15625 C 740.507812 594.859375 738.320312 597.105469 735.785156 598.863281 L 735.785156 614.789062 C 744.878906 617.230469 753.011719 622.03125 759.492188 628.5 L 759.558594 628.578125 C 769.140625 638.183594 775.039062 651.394531 775.039062 665.941406 C 775.039062 680.554688 769.109375 693.796875 759.539062 703.390625 L 758.691406 704.179688 C 749.15625 713.304688 736.253906 718.90625 722.109375 718.90625 C 707.539062 718.90625 694.296875 712.972656 684.703125 703.390625 L 684.632812 703.3125 C 675.050781 693.707031 669.152344 680.496094 669.152344 665.953125 C 669.152344 663.773438 669.289062 661.570312 669.554688 659.378906 L 669.792969 658.023438 C 670.054688 656.082031 670.398438 654.351562 670.773438 652.84375 C 672.644531 645.519531 680.082031 641.09375 687.417969 642.953125 C 694.730469 644.8125 699.15625 652.261719 697.308594 659.585938 L 696.792969 661.902344 L 696.703125 662.699219 C 696.589844 663.714844 696.519531 664.808594 696.519531 665.953125 C 696.519531 673.058594 699.351562 679.445312 703.9375 684.042969 L 704.003906 684.089844 C 708.589844 688.675781 714.988281 691.527344 722.097656 691.527344 C 728.917969 691.527344 735.066406 688.902344 739.628906 684.625 L 740.167969 684.042969 C 744.796875 679.421875 747.648438 673.023438 747.648438 665.953125 C 747.648438 658.84375 744.820312 652.457031 740.234375 647.871094 L 740.167969 647.824219 C 735.582031 643.238281 729.179688 640.386719 722.097656 640.386719 C 714.523438 640.386719 708.394531 634.25 708.394531 626.695312 L 708.394531 598.90625 C 705.851562 597.152344 703.671875 594.902344 701.917969 592.199219 L 654.082031 518.882812 C 651.652344 515.152344 650.34375 510.988281 650.160156 506.710938 C 649.976562 502.445312 650.933594 498.199219 653.058594 494.308594 C 655.179688 490.386719 658.226562 487.226562 661.898438 485.035156 C 665.617188 482.824219 669.828125 481.625 674.242188 481.625 L 708.394531 481.625 L 708.394531 294.433594 L 385.703125 294.433594 L 385.703125 843.890625 L 515.207031 843.890625 C 522.757812 843.890625 528.882812 850.027344 528.882812 857.578125 L 528.882812 926.3125 C 528.882812 933.875 522.757812 940 515.207031 940 L 85.316406 940 C 77.761719 940 71.636719 933.875 71.636719 926.3125 L 71.636719 857.578125 C 71.636719 850.015625 77.761719 843.890625 85.316406 843.890625 L 214.804688 843.890625 L 214.804688 294.433594 L 29.542969 294.433594 C 21.992188 294.433594 15.863281 288.308594 15.863281 280.746094 L 15.863281 166.78125 C 15.863281 159.21875 21.992188 153.09375 29.542969 153.09375 L 77.695312 153.09375 L 244.066406 4.378906 C 246.550781 1.6875 250.125 0 254.082031 0 L 346.417969 0 C 352.300781 0.0234375 357.5625 3.820312 359.386719 9.410156 L 724.628906 153.09375 L 845.792969 153.09375 L 845.792969 153.148438 L 846.246094 153.148438 L 846.476562 153.160156 L 846.703125 153.171875 L 846.816406 153.183594 L 846.910156 153.183594 L 847.136719 153.207031 L 847.160156 153.207031 L 847.367188 153.230469 L 847.59375 153.253906 L 847.820312 153.273438 Z M 845.804688 194.046875 L 803.652344 267.042969 L 887.964844 267.042969 Z M 756 267.042969 L 712.171875 193.417969 L 668.273438 267.042969 Z M 621.515625 267.042969 L 578.917969 193.976562 L 536.742188 267.042969 Z M 488.75 267.042969 L 442.628906 192.664062 L 396.507812 267.042969 Z M 385.703125 232.707031 L 418.101562 180.472656 L 385.703125 180.472656 Z M 467.15625 180.480469 L 512.765625 254.039062 L 555.234375 180.480469 Z M 602.667969 180.480469 L 644.910156 252.96875 L 688.136719 180.480469 Z M 736.175781 180.480469 L 779.820312 253.800781 L 822.15625 180.480469 Z M 722.121094 573.183594 L 763.984375 509.015625 L 680.230469 509.015625 Z M 649.976562 153.09375 L 364.816406 40.910156 L 383.582031 153.09375 Z M 234.210938 49.75 L 118.589844 153.09375 L 216.914062 153.09375 Z M 355.691406 151.972656 L 334.859375 27.378906 L 265.660156 27.378906 L 244.832031 151.960938 L 355.691406 151.960938 Z M 242.183594 267.042969 L 358.316406 267.042969 L 358.316406 180.472656 L 242.183594 180.472656 Z M 242.183594 267.042969 " fill-opacity="1" fill-rule="evenodd"/></svg>