<svg xmlns="http://www.w3.org/2000/svg" xmlns:xlink="http://www.w3.org/1999/xlink" width="1254" zoomAndPan="magnify" viewBox="0 0 940.5 940.499971" height="1254" preserveAspectRatio="xMidYMid meet" version="1.0"><path fill="#737373" d="M 512.515625 115.332031 C 493.390625 102.582031 468.472656 102.582031 449.347656 115.332031 L 130.496094 327.898438 C 114.65625 338.457031 105.140625 356.238281 105.140625 375.273438 L 105.140625 782.019531 C 105.140625 813.46875 130.632812 838.957031 162.078125 838.957031 L 310.117188 838.957031 L 310.117188 645.371094 C 310.117188 576.1875 366.199219 520.105469 435.378906 520.105469 L 526.480469 520.105469 C 595.664062 520.105469 651.742188 576.1875 651.742188 645.371094 L 651.742188 838.957031 L 799.78125 838.957031 C 831.230469 838.957031 856.71875 813.46875 856.71875 782.019531 L 856.71875 375.273438 C 856.71875 356.238281 847.203125 338.457031 831.367188 327.898438 L 780.832031 294.210938 C 765.132812 283.746094 760.890625 262.535156 771.359375 246.835938 C 781.820312 231.136719 803.035156 226.894531 818.730469 237.359375 L 869.265625 271.050781 C 904.113281 294.28125 925.046875 333.390625 925.046875 375.273438 L 925.046875 782.019531 C 925.046875 851.203125 868.964844 907.28125 799.78125 907.28125 L 617.582031 907.28125 C 598.714844 907.28125 583.417969 891.988281 583.417969 873.121094 L 583.417969 645.371094 C 583.417969 613.925781 557.929688 588.433594 526.480469 588.433594 L 435.378906 588.433594 C 403.933594 588.433594 378.441406 613.925781 378.441406 645.371094 L 378.441406 873.121094 C 378.441406 891.988281 363.148438 907.28125 344.28125 907.28125 L 162.078125 907.28125 C 92.898438 907.28125 36.816406 851.203125 36.816406 782.019531 L 36.816406 375.273438 C 36.816406 333.390625 57.75 294.28125 92.597656 271.050781 L 411.449219 58.480469 C 453.523438 30.429688 508.339844 30.429688 550.414062 58.480469 L 636.53125 115.894531 C 652.230469 126.359375 656.472656 147.570312 646.003906 163.269531 C 635.542969 178.964844 614.328125 183.207031 598.632812 172.742188 Z M 512.515625 115.332031 " fill-opacity="1" fill-rule="evenodd"/><path fill="#737373" d="M 512.515625 115.332031 C 493.390625 102.582031 468.472656 102.582031 449.347656 115.332031 L 130.496094 327.898438 C 114.65625 338.457031 105.140625 356.238281 105.140625 375.273438 L 105.140625 782.019531 C 105.140625 813.46875 130.632812 838.957031 162.078125 838.957031 L 310.117188 838.957031 L 310.117188 645.371094 C 310.117188 576.1875 366.199219 520.105469 435.378906 520.105469 L 526.480469 520.105469 C 595.664062 520.105469 651.742188 576.1875 651.742188 645.371094 L 651.742188 838.957031 L 799.78125 838.957031 C 831.230469 838.957031 856.71875 813.46875 856.71875 782.019531 L 856.71875 375.273438 C 856.71875 356.238281 847.203125 338.457031 831.367188 327.898438 L 780.832031 294.210938 C 765.132812 283.746094 760.890625 262.535156 771.359375 246.835938 C 781.820312 231.136719 803.035156 226.894531 818.730469 237.359375 L 869.265625 271.050781 C 904.113281 294.28125 925.046875 333.390625 925.046875 375.273438 L 925.046875 782.019531 C 925.046875 851.203125 868.964844 907.28125 799.78125 907.28125 L 617.582031 907.28125 C 598.714844 907.28125 583.417969 891.988281 583.417969 873.121094 L 583.417969 645.371094 C 583.417969 613.925781 557.929688 588.433594 526.480469 588.433594 L 435.378906 588.433594 C 403.933594 588.433594 378.441406 613.925781 378.441406 645.371094 L 378.441406 873.121094 C 378.441406 891.988281 363.148438 907.28125 344.28125 907.28125 L 162.078125 907.28125 C 92.898438 907.28125 36.816406 851.203125 36.816406 782.019531 L 36.816406 375.273438 C 36.816406 333.390625 57.75 294.28125 92.597656 271.050781 L 411.449219 58.480469 C 453.523438 30.429688 508.339844 30.429688 550.414062 58.480469 L 636.53125 115.894531 C 652.230469 126.359375 656.472656 147.570312 646.003906 163.269531 C 635.542969 178.964844 614.328125 183.207031 598.632812 172.742188 Z M 512.515625 115.332031 " fill-opacity="1" fill-rule="evenodd"/></svg>