<svg xmlns="http://www.w3.org/2000/svg" xmlns:xlink="http://www.w3.org/1999/xlink" width="1254" zoomAndPan="magnify" viewBox="0 0 940.5 940.499971" height="1254" preserveAspectRatio="xMidYMid meet" version="1.0"><defs><clipPath id="f884b53b50"><path d="M 0 104.769531 L 940 104.769531 L 940 834.882812 L 0 834.882812 Z M 0 104.769531 " clip-rule="nonzero"/></clipPath></defs><g clip-path="url(#f884b53b50)"><path fill="#ff3131" d="M 227.585938 811.703125 C 128.515625 779.652344 52.613281 724.585938 15.421875 624.851562 C -2.726562 576.183594 -1.515625 466.023438 2.480469 413.597656 C 12.914062 276.765625 150.648438 202.6875 268.910156 207.460938 L 385.882812 212.1875 C 427.726562 213.878906 468 208.722656 504.996094 190.230469 L 598.28125 143.585938 C 683.289062 101.078125 769.53125 85.855469 855.152344 137.269531 C 902.585938 165.753906 935.4375 214.730469 937.914062 271.089844 C 940.148438 321.707031 941.148438 371.011719 937.878906 421.824219 C 934.746094 470.613281 915.179688 516.675781 886.796875 557.027344 C 821.4375 649.941406 734.617188 722.058594 633.574219 772.796875 C 577.617188 800.882812 521.28125 817.351562 459.550781 827.863281 C 380.8125 841.257812 303.660156 836.351562 227.574219 811.726562 Z M 364.710938 670.652344 C 548.507812 671.53125 715.066406 571.792969 830.113281 435.074219 C 856.621094 403.566406 876.976562 370.0625 893.011719 332.597656 C 914.984375 281.257812 904.140625 225.191406 862.703125 187.292969 C 815.480469 144.105469 752.125 130.449219 689.234375 145.128906 C 608.632812 163.953125 539.660156 232.394531 432.980469 245.320312 C 337.226562 256.917969 233.925781 215.085938 123.878906 280.292969 C 64.800781 315.304688 29.496094 380.707031 38.820312 450.011719 C 58.128906 593.332031 235.988281 670.035156 364.6875 670.652344 Z M 39.402344 552.488281 C 39.214844 624.75 76.371094 680.066406 127.121094 721.121094 C 251.171875 816.894531 424 819.734375 567.171875 764.210938 C 655.089844 730.113281 730.089844 676.144531 796.421875 610.132812 C 846.777344 560.011719 913.726562 474.191406 902.066406 396.707031 C 772.34375 598.734375 503.566406 752.8125 261.65625 691.585938 C 216.839844 681.238281 175.601562 665.78125 137.519531 640.429688 C 96.046875 619.804688 67.378906 587.078125 39.390625 552.488281 Z M 39.402344 552.488281 " fill-opacity="1" fill-rule="nonzero"/></g><path fill="#ff3131" d="M 348.601562 643.070312 C 247.125 637.457031 129.082031 591.285156 82.675781 497.800781 C 52.664062 437.355469 64.046875 368.175781 113.230469 321.902344 C 230.460938 211.609375 391.9375 320.742188 547.679688 239.488281 L 615.8125 203.933594 C 646.367188 187.984375 676.640625 172.625 711.785156 168.074219 C 758.042969 162.089844 803.316406 172.292969 838.140625 201.578125 C 902.695312 255.855469 870.621094 339.789062 827.164062 396.386719 C 716.953125 539.929688 537.121094 653.480469 348.601562 643.070312 Z M 709.675781 469.859375 C 762.265625 425.128906 901.769531 285.648438 811.039062 222.523438 C 745.265625 176.769531 677.503906 207.945312 617.761719 243.152344 C 601.265625 252.871094 584.316406 259.816406 568.464844 270.488281 C 517.863281 304.570312 556.660156 367.300781 480.261719 395.203125 C 459.121094 402.925781 417.460938 416.976562 417.484375 442.316406 C 417.484375 447.730469 420.199219 462.347656 428.957031 461.65625 C 551.699219 451.984375 642.703125 526.828125 709.675781 469.859375 Z M 386.878906 418.765625 C 402.546875 390.898438 426.960938 376.402344 456.925781 366.496094 C 502.679688 351.375 499.335938 338.765625 508.945312 290.59375 C 454.988281 307.25 371.113281 309.960938 317.367188 303.820312 C 271.132812 298.539062 224.578125 300.550781 181.941406 320.3125 C 162.488281 329.328125 142.308594 337.261719 132.585938 358.28125 C 194.6875 355.332031 247.472656 373.675781 294.078125 409.304688 C 320.042969 429.152344 370.152344 448.496094 386.878906 418.753906 Z M 391.828125 461.507812 C 270.242188 493.707031 268.675781 369.890625 106.582031 394.476562 C 69.019531 497.503906 206.144531 590.542969 292.585938 599.980469 C 309.757812 574.730469 330.738281 555.964844 357.261719 543.851562 C 386.523438 530.492188 413.808594 482.765625 391.828125 461.496094 Z M 625.554688 527.199219 C 570.820312 520.769531 516.074219 498.429688 466.558594 492.855469 C 414.5 487.007812 441.703125 538.621094 371.816406 575.902344 C 357.902344 583.316406 343.015625 590.136719 334.15625 606.421875 C 426.453125 621.148438 553.859375 585.335938 625.570312 527.199219 Z M 625.554688 527.199219 " fill-opacity="1" fill-rule="nonzero"/><path fill="#ff3131" d="M 760.917969 343.714844 C 722.136719 373.652344 663.664062 382.101562 630.699219 340.148438 C 622.507812 321.386719 624.976562 301.140625 637.90625 284.820312 C 681.699219 229.554688 763.398438 237.699219 780.125 273.867188 C 791.769531 299.058594 782.371094 327.144531 760.917969 343.699219 Z M 747.953125 304.449219 C 753.246094 295.28125 749.261719 287.226562 740.144531 282.167969 C 707.046875 268.425781 651.5625 299.910156 661.910156 322.59375 C 669.78125 339.839844 724.640625 344.800781 747.953125 304.449219 Z M 747.953125 304.449219 " fill-opacity="1" fill-rule="nonzero"/></svg>