<svg xmlns="http://www.w3.org/2000/svg" xmlns:xlink="http://www.w3.org/1999/xlink" width="1254" zoomAndPan="magnify" viewBox="0 0 940.5 940.499971" height="1254" preserveAspectRatio="xMidYMid meet" version="1.0"><defs><clipPath id="05a7537713"><path d="M 0 79 L 940 79 L 940 863.457031 L 0 863.457031 Z M 0 79 " clip-rule="nonzero"/></clipPath></defs><g clip-path="url(#05a7537713)"><path fill="#ff3131" d="M 861.46875 346.878906 L 788.386719 346.878906 L 531.535156 154.203125 C 531.75 153.074219 531.933594 151.941406 532.085938 150.804688 C 532.238281 149.667969 532.355469 148.527344 532.445312 147.382812 C 532.535156 146.238281 532.59375 145.09375 532.621094 143.945312 C 532.644531 142.796875 532.640625 141.652344 532.605469 140.503906 C 532.566406 139.355469 532.5 138.210938 532.398438 137.066406 C 532.300781 135.925781 532.167969 134.785156 532.007812 133.648438 C 531.84375 132.511719 531.648438 131.382812 531.425781 130.257812 C 531.203125 129.132812 530.945312 128.011719 530.660156 126.902344 C 530.375 125.789062 530.058594 124.6875 529.710938 123.59375 C 529.363281 122.5 528.988281 121.414062 528.582031 120.34375 C 528.175781 119.269531 527.738281 118.207031 527.277344 117.15625 C 526.8125 116.109375 526.316406 115.070312 525.796875 114.050781 C 525.273438 113.027344 524.726562 112.019531 524.148438 111.027344 C 523.570312 110.035156 522.96875 109.058594 522.339844 108.101562 C 521.707031 107.140625 521.050781 106.203125 520.367188 105.277344 C 519.6875 104.355469 518.980469 103.453125 518.246094 102.566406 C 517.515625 101.683594 516.761719 100.820312 515.980469 99.976562 C 515.203125 99.136719 514.398438 98.316406 513.574219 97.515625 C 512.75 96.71875 511.90625 95.945312 511.039062 95.191406 C 510.171875 94.441406 509.285156 93.710938 508.378906 93.007812 C 507.46875 92.304688 506.542969 91.628906 505.601562 90.976562 C 504.65625 90.324219 503.695312 89.699219 502.714844 89.097656 C 501.738281 88.5 500.742188 87.925781 499.734375 87.382812 C 498.722656 86.835938 497.699219 86.320312 496.660156 85.832031 C 495.621094 85.34375 494.570312 84.882812 493.507812 84.453125 C 492.441406 84.023438 491.367188 83.621094 490.28125 83.25 C 489.195312 82.878906 488.101562 82.535156 486.996094 82.226562 C 485.890625 81.914062 484.777344 81.632812 483.660156 81.382812 C 482.539062 81.132812 481.414062 80.914062 480.28125 80.726562 C 479.148438 80.535156 478.011719 80.378906 476.871094 80.253906 C 475.730469 80.128906 474.585938 80.03125 473.441406 79.96875 C 472.296875 79.90625 471.148438 79.875 470 79.875 C 468.851562 79.875 467.707031 79.90625 466.5625 79.96875 C 465.414062 80.03125 464.269531 80.128906 463.128906 80.253906 C 461.988281 80.378906 460.851562 80.535156 459.722656 80.726562 C 458.589844 80.914062 457.464844 81.132812 456.34375 81.382812 C 455.222656 81.632812 454.109375 81.914062 453.007812 82.226562 C 451.902344 82.535156 450.804688 82.878906 449.71875 83.25 C 448.632812 83.621094 447.558594 84.023438 446.496094 84.453125 C 445.433594 84.882812 444.382812 85.34375 443.34375 85.832031 C 442.304688 86.320312 441.28125 86.835938 440.269531 87.382812 C 439.257812 87.925781 438.265625 88.5 437.285156 89.097656 C 436.308594 89.699219 435.347656 90.324219 434.402344 90.976562 C 433.457031 91.628906 432.53125 92.304688 431.625 93.007812 C 430.71875 93.710938 429.832031 94.441406 428.964844 95.191406 C 428.097656 95.945312 427.25 96.71875 426.425781 97.515625 C 425.601562 98.316406 424.800781 99.136719 424.019531 99.976562 C 423.242188 100.820312 422.484375 101.683594 421.753906 102.566406 C 421.023438 103.453125 420.316406 104.355469 419.632812 105.277344 C 418.949219 106.203125 418.292969 107.140625 417.664062 108.101562 C 417.035156 109.058594 416.429688 110.035156 415.851562 111.027344 C 415.277344 112.019531 414.726562 113.027344 414.207031 114.050781 C 413.683594 115.070312 413.191406 116.109375 412.726562 117.15625 C 412.261719 118.207031 411.828125 119.269531 411.421875 120.34375 C 411.015625 121.414062 410.636719 122.5 410.292969 123.59375 C 409.945312 124.6875 409.628906 125.789062 409.34375 126.902344 C 409.054688 128.011719 408.800781 129.132812 408.578125 130.257812 C 408.351562 131.382812 408.160156 132.511719 407.996094 133.648438 C 407.832031 134.785156 407.703125 135.925781 407.601562 137.066406 C 407.503906 138.210938 407.433594 139.355469 407.398438 140.503906 C 407.363281 141.652344 407.355469 142.796875 407.382812 143.945312 C 407.410156 145.09375 407.464844 146.238281 407.554688 147.382812 C 407.644531 148.527344 407.765625 149.667969 407.917969 150.804688 C 408.070312 151.941406 408.253906 153.074219 408.46875 154.203125 L 151.613281 346.878906 L 78.53125 346.878906 C 77.25 346.882812 75.96875 346.914062 74.691406 346.980469 C 73.410156 347.042969 72.132812 347.140625 70.859375 347.265625 C 69.585938 347.394531 68.3125 347.550781 67.046875 347.738281 C 65.78125 347.929688 64.519531 348.148438 63.261719 348.398438 C 62.007812 348.652344 60.757812 348.933594 59.515625 349.246094 C 58.273438 349.558594 57.039062 349.898438 55.8125 350.273438 C 54.585938 350.644531 53.371094 351.046875 52.167969 351.480469 C 50.960938 351.914062 49.765625 352.375 48.582031 352.863281 C 47.398438 353.355469 46.230469 353.875 45.070312 354.421875 C 43.914062 354.972656 42.769531 355.546875 41.640625 356.152344 C 40.511719 356.757812 39.398438 357.386719 38.300781 358.046875 C 37.199219 358.707031 36.121094 359.390625 35.054688 360.105469 C 33.988281 360.816406 32.941406 361.554688 31.914062 362.316406 C 30.886719 363.078125 29.875 363.867188 28.886719 364.679688 C 27.894531 365.492188 26.925781 366.328125 25.976562 367.191406 C 25.027344 368.050781 24.101562 368.933594 23.195312 369.839844 C 22.289062 370.746094 21.40625 371.671875 20.546875 372.621094 C 19.6875 373.570312 18.847656 374.539062 18.035156 375.53125 C 17.222656 376.519531 16.4375 377.53125 15.671875 378.558594 C 14.910156 379.585938 14.171875 380.632812 13.460938 381.699219 C 12.746094 382.761719 12.0625 383.84375 11.402344 384.945312 C 10.746094 386.042969 10.113281 387.15625 9.507812 388.285156 C 8.902344 389.414062 8.328125 390.558594 7.78125 391.714844 C 7.230469 392.875 6.710938 394.042969 6.222656 395.226562 C 5.730469 396.410156 5.269531 397.605469 4.835938 398.808594 C 4.402344 400.015625 4 401.230469 3.628906 402.457031 C 3.253906 403.683594 2.914062 404.917969 2.601562 406.160156 C 2.289062 407.402344 2.007812 408.648438 1.757812 409.90625 C 1.503906 411.164062 1.285156 412.425781 1.097656 413.691406 C 0.90625 414.957031 0.75 416.230469 0.621094 417.503906 C 0.496094 418.777344 0.398438 420.054688 0.335938 421.335938 C 0.269531 422.613281 0.238281 423.894531 0.238281 425.175781 L 0.238281 785.328125 C 0.238281 786.609375 0.269531 787.886719 0.335938 789.167969 C 0.398438 790.445312 0.496094 791.722656 0.621094 792.996094 C 0.75 794.273438 0.90625 795.542969 1.097656 796.808594 C 1.285156 798.078125 1.503906 799.339844 1.757812 800.59375 C 2.007812 801.851562 2.289062 803.101562 2.601562 804.34375 C 2.914062 805.585938 3.253906 806.820312 3.628906 808.042969 C 4 809.269531 4.402344 810.484375 4.835938 811.691406 C 5.269531 812.898438 5.730469 814.089844 6.222656 815.273438 C 6.710938 816.457031 7.230469 817.628906 7.78125 818.785156 C 8.328125 819.941406 8.902344 821.085938 9.507812 822.214844 C 10.113281 823.34375 10.746094 824.460938 11.402344 825.558594 C 12.0625 826.65625 12.746094 827.738281 13.460938 828.800781 C 14.171875 829.867188 14.910156 830.914062 15.671875 831.941406 C 16.4375 832.972656 17.222656 833.980469 18.035156 834.972656 C 18.847656 835.960938 19.6875 836.929688 20.546875 837.878906 C 21.40625 838.828125 22.289062 839.757812 23.195312 840.660156 C 24.101562 841.566406 25.027344 842.449219 25.976562 843.3125 C 26.925781 844.171875 27.894531 845.007812 28.886719 845.820312 C 29.875 846.632812 30.886719 847.421875 31.914062 848.183594 C 32.941406 848.949219 33.988281 849.683594 35.054688 850.398438 C 36.121094 851.109375 37.199219 851.792969 38.300781 852.453125 C 39.398438 853.113281 40.511719 853.746094 41.640625 854.347656 C 42.769531 854.953125 43.914062 855.527344 45.070312 856.078125 C 46.230469 856.625 47.398438 857.144531 48.582031 857.636719 C 49.765625 858.128906 50.960938 858.589844 52.167969 859.019531 C 53.371094 859.453125 54.585938 859.855469 55.8125 860.230469 C 57.039062 860.601562 58.273438 860.945312 59.515625 861.257812 C 60.757812 861.566406 62.007812 861.851562 63.261719 862.101562 C 64.519531 862.351562 65.78125 862.570312 67.046875 862.761719 C 68.3125 862.949219 69.585938 863.109375 70.859375 863.234375 C 72.132812 863.363281 73.410156 863.457031 74.691406 863.523438 C 75.96875 863.585938 77.25 863.617188 78.53125 863.621094 L 861.46875 863.621094 C 862.75 863.617188 864.03125 863.585938 865.308594 863.523438 C 866.589844 863.457031 867.867188 863.363281 869.140625 863.234375 C 870.414062 863.109375 871.6875 862.949219 872.953125 862.761719 C 874.21875 862.570312 875.480469 862.351562 876.738281 862.101562 C 877.992188 861.851562 879.242188 861.566406 880.484375 861.257812 C 881.726562 860.945312 882.960938 860.601562 884.1875 860.230469 C 885.414062 859.855469 886.628906 859.453125 887.832031 859.019531 C 889.039062 858.589844 890.234375 858.128906 891.417969 857.636719 C 892.601562 857.144531 893.769531 856.625 894.929688 856.078125 C 896.085938 855.527344 897.230469 854.953125 898.359375 854.347656 C 899.488281 853.746094 900.601562 853.113281 901.699219 852.453125 C 902.800781 851.792969 903.882812 851.109375 904.945312 850.398438 C 906.011719 849.683594 907.058594 848.949219 908.085938 848.183594 C 909.113281 847.421875 910.125 846.632812 911.113281 845.820312 C 912.105469 845.007812 913.074219 844.171875 914.023438 843.3125 C 914.972656 842.449219 915.898438 841.566406 916.804688 840.660156 C 917.710938 839.757812 918.59375 838.828125 919.453125 837.878906 C 920.316406 836.929688 921.152344 835.960938 921.964844 834.972656 C 922.777344 833.980469 923.566406 832.972656 924.328125 831.941406 C 925.089844 830.914062 925.828125 829.867188 926.539062 828.800781 C 927.253906 827.738281 927.9375 826.65625 928.597656 825.558594 C 929.257812 824.460938 929.886719 823.34375 930.492188 822.214844 C 931.097656 821.085938 931.671875 819.941406 932.21875 818.785156 C 932.769531 817.628906 933.289062 816.457031 933.78125 815.273438 C 934.269531 814.089844 934.730469 812.898438 935.164062 811.691406 C 935.597656 810.484375 936 809.269531 936.371094 808.042969 C 936.746094 806.820312 937.085938 805.585938 937.398438 804.34375 C 937.710938 803.101562 937.992188 801.851562 938.242188 800.59375 C 938.496094 799.339844 938.714844 798.078125 938.90625 796.808594 C 939.09375 795.542969 939.25 794.273438 939.378906 792.996094 C 939.503906 791.722656 939.601562 790.445312 939.664062 789.167969 C 939.730469 787.886719 939.761719 786.609375 939.765625 785.328125 L 939.765625 425.175781 C 939.761719 423.894531 939.730469 422.613281 939.664062 421.335938 C 939.601562 420.054688 939.503906 418.777344 939.378906 417.503906 C 939.25 416.230469 939.09375 414.957031 938.90625 413.691406 C 938.714844 412.425781 938.496094 411.164062 938.246094 409.90625 C 937.992188 408.648438 937.710938 407.402344 937.398438 406.160156 C 937.085938 404.917969 936.746094 403.683594 936.371094 402.457031 C 936 401.230469 935.597656 400.015625 935.164062 398.808594 C 934.730469 397.605469 934.269531 396.410156 933.78125 395.226562 C 933.289062 394.042969 932.769531 392.875 932.222656 391.714844 C 931.671875 390.558594 931.097656 389.414062 930.492188 388.285156 C 929.886719 387.15625 929.257812 386.042969 928.597656 384.945312 C 927.9375 383.84375 927.253906 382.761719 926.539062 381.699219 C 925.828125 380.632812 925.089844 379.585938 924.328125 378.558594 C 923.566406 377.53125 922.777344 376.519531 921.964844 375.53125 C 921.152344 374.539062 920.316406 373.570312 919.453125 372.621094 C 918.59375 371.671875 917.710938 370.746094 916.804688 369.839844 C 915.898438 368.933594 914.972656 368.050781 914.023438 367.191406 C 913.074219 366.328125 912.105469 365.492188 911.113281 364.679688 C 910.125 363.867188 909.113281 363.078125 908.085938 362.316406 C 907.058594 361.554688 906.011719 360.816406 904.945312 360.105469 C 903.882812 359.390625 902.800781 358.707031 901.699219 358.046875 C 900.601562 357.386719 899.488281 356.757812 898.359375 356.152344 C 897.230469 355.546875 896.085938 354.972656 894.929688 354.421875 C 893.769531 353.875 892.601562 353.355469 891.417969 352.863281 C 890.234375 352.375 889.039062 351.914062 887.835938 351.480469 C 886.628906 351.046875 885.414062 350.644531 884.1875 350.273438 C 882.960938 349.898438 881.726562 349.558594 880.484375 349.246094 C 879.242188 348.933594 877.992188 348.652344 876.738281 348.398438 C 875.480469 348.148438 874.21875 347.929688 872.953125 347.738281 C 871.6875 347.550781 870.414062 347.394531 869.140625 347.265625 C 867.867188 347.140625 866.589844 347.042969 865.308594 346.980469 C 864.03125 346.914062 862.75 346.882812 861.46875 346.878906 Z M 470 112 C 471.027344 112 472.050781 112.050781 473.070312 112.148438 C 474.089844 112.25 475.105469 112.402344 476.109375 112.601562 C 477.117188 112.800781 478.109375 113.050781 479.089844 113.347656 C 480.074219 113.644531 481.039062 113.988281 481.984375 114.382812 C 482.933594 114.773438 483.859375 115.214844 484.761719 115.695312 C 485.667969 116.179688 486.546875 116.707031 487.398438 117.277344 C 488.253906 117.847656 489.074219 118.457031 489.867188 119.109375 C 490.660156 119.757812 491.417969 120.445312 492.144531 121.171875 C 492.871094 121.898438 493.558594 122.65625 494.207031 123.449219 C 494.859375 124.242188 495.46875 125.0625 496.039062 125.917969 C 496.609375 126.769531 497.136719 127.648438 497.621094 128.554688 C 498.101562 129.457031 498.542969 130.382812 498.933594 131.332031 C 499.324219 132.277344 499.671875 133.242188 499.96875 134.226562 C 500.265625 135.207031 500.515625 136.199219 500.714844 137.207031 C 500.914062 138.210938 501.066406 139.226562 501.167969 140.246094 C 501.265625 141.265625 501.316406 142.289062 501.316406 143.316406 C 501.316406 144.34375 501.265625 145.367188 501.167969 146.386719 C 501.066406 147.40625 500.914062 148.421875 500.714844 149.425781 C 500.515625 150.433594 500.265625 151.425781 499.96875 152.40625 C 499.671875 153.390625 499.328125 154.351562 498.933594 155.300781 C 498.542969 156.25 498.101562 157.175781 497.621094 158.078125 C 497.136719 158.984375 496.609375 159.863281 496.039062 160.714844 C 495.46875 161.566406 494.859375 162.390625 494.207031 163.183594 C 493.558594 163.976562 492.871094 164.734375 492.144531 165.460938 C 491.417969 166.1875 490.660156 166.875 489.867188 167.523438 C 489.074219 168.175781 488.253906 168.785156 487.398438 169.355469 C 486.546875 169.925781 485.667969 170.453125 484.761719 170.9375 C 483.859375 171.417969 482.933594 171.859375 481.984375 172.25 C 481.039062 172.640625 480.074219 172.988281 479.089844 173.285156 C 478.109375 173.582031 477.117188 173.832031 476.109375 174.03125 C 475.105469 174.230469 474.089844 174.382812 473.070312 174.484375 C 472.050781 174.582031 471.027344 174.632812 470 174.632812 C 468.972656 174.632812 467.953125 174.582031 466.929688 174.484375 C 465.910156 174.382812 464.894531 174.230469 463.890625 174.03125 C 462.882812 173.832031 461.890625 173.582031 460.910156 173.285156 C 459.925781 172.988281 458.964844 172.640625 458.015625 172.25 C 457.066406 171.859375 456.140625 171.417969 455.238281 170.9375 C 454.332031 170.453125 453.453125 169.925781 452.601562 169.355469 C 451.75 168.785156 450.925781 168.175781 450.132812 167.523438 C 449.339844 166.875 448.582031 166.1875 447.855469 165.460938 C 447.128906 164.734375 446.441406 163.976562 445.792969 163.183594 C 445.140625 162.390625 444.53125 161.566406 443.960938 160.714844 C 443.390625 159.863281 442.863281 158.984375 442.378906 158.078125 C 441.898438 157.175781 441.457031 156.25 441.066406 155.300781 C 440.675781 154.351562 440.328125 153.390625 440.03125 152.40625 C 439.734375 151.425781 439.484375 150.433594 439.285156 149.425781 C 439.085938 148.421875 438.933594 147.40625 438.832031 146.386719 C 438.734375 145.363281 438.683594 144.34375 438.683594 143.316406 C 438.683594 142.289062 438.734375 141.269531 438.835938 140.246094 C 438.9375 139.226562 439.089844 138.214844 439.289062 137.210938 C 439.492188 136.203125 439.742188 135.210938 440.039062 134.230469 C 440.335938 133.25 440.683594 132.285156 441.078125 131.335938 C 441.46875 130.390625 441.90625 129.464844 442.390625 128.5625 C 442.875 127.65625 443.402344 126.777344 443.972656 125.925781 C 444.542969 125.074219 445.152344 124.25 445.800781 123.457031 C 446.453125 122.667969 447.140625 121.90625 447.867188 121.183594 C 448.589844 120.457031 449.351562 119.769531 450.140625 119.117188 C 450.933594 118.46875 451.757812 117.859375 452.609375 117.289062 C 453.460938 116.71875 454.339844 116.191406 455.246094 115.707031 C 456.148438 115.222656 457.074219 114.785156 458.019531 114.394531 C 458.96875 114 459.933594 113.652344 460.914062 113.355469 C 461.894531 113.058594 462.886719 112.808594 463.894531 112.605469 C 464.898438 112.40625 465.910156 112.253906 466.929688 112.152344 C 467.953125 112.050781 468.976562 112 470 112 Z M 422.058594 183.136719 C 422.78125 184.027344 423.527344 184.894531 424.296875 185.738281 C 425.066406 186.585938 425.855469 187.410156 426.671875 188.210938 C 427.488281 189.011719 428.324219 189.792969 429.183594 190.546875 C 430.042969 191.300781 430.917969 192.035156 431.820312 192.742188 C 432.71875 193.449219 433.636719 194.128906 434.574219 194.785156 C 435.507812 195.441406 436.464844 196.070312 437.4375 196.671875 C 438.40625 197.273438 439.394531 197.851562 440.398438 198.398438 C 441.402344 198.945312 442.421875 199.464844 443.453125 199.957031 C 444.488281 200.449219 445.53125 200.910156 446.589844 201.34375 C 447.648438 201.777344 448.71875 202.179688 449.800781 202.554688 C 450.878906 202.929688 451.96875 203.273438 453.070312 203.585938 C 454.167969 203.898438 455.277344 204.183594 456.394531 204.433594 C 457.507812 204.6875 458.628906 204.90625 459.757812 205.097656 C 460.886719 205.285156 462.019531 205.445312 463.15625 205.570312 C 464.289062 205.695312 465.429688 205.792969 466.570312 205.855469 C 467.714844 205.917969 468.855469 205.949219 470 205.949219 C 471.144531 205.949219 472.285156 205.917969 473.429688 205.855469 C 474.570312 205.792969 475.710938 205.695312 476.847656 205.570312 C 477.984375 205.445312 479.113281 205.285156 480.242188 205.097656 C 481.371094 204.90625 482.492188 204.6875 483.605469 204.433594 C 484.722656 204.183594 485.832031 203.898438 486.929688 203.585938 C 488.03125 203.273438 489.121094 202.929688 490.199219 202.554688 C 491.28125 202.179688 492.351562 201.777344 493.410156 201.34375 C 494.46875 200.910156 495.511719 200.449219 496.546875 199.957031 C 497.578125 199.464844 498.597656 198.945312 499.601562 198.398438 C 500.605469 197.851562 501.59375 197.273438 502.5625 196.671875 C 503.535156 196.070312 504.492188 195.441406 505.425781 194.785156 C 506.363281 194.128906 507.28125 193.449219 508.179688 192.742188 C 509.082031 192.035156 509.960938 191.300781 510.816406 190.546875 C 511.675781 189.792969 512.511719 189.011719 513.328125 188.210938 C 514.144531 187.410156 514.9375 186.585938 515.707031 185.738281 C 516.476562 184.894531 517.21875 184.027344 517.941406 183.136719 L 736.214844 346.878906 L 203.785156 346.878906 Z M 908.445312 785.328125 C 908.445312 786.863281 908.367188 788.398438 908.214844 789.929688 C 908.0625 791.460938 907.835938 792.980469 907.535156 794.488281 C 907.234375 795.996094 906.859375 797.484375 906.410156 798.957031 C 905.964844 800.429688 905.445312 801.875 904.855469 803.296875 C 904.265625 804.714844 903.609375 806.105469 902.882812 807.460938 C 902.15625 808.816406 901.367188 810.132812 900.511719 811.414062 C 899.65625 812.691406 898.742188 813.925781 897.765625 815.113281 C 896.789062 816.300781 895.757812 817.441406 894.671875 818.527344 C 893.585938 819.617188 892.445312 820.648438 891.257812 821.625 C 890.066406 822.597656 888.835938 823.515625 887.554688 824.371094 C 886.277344 825.226562 884.960938 826.015625 883.605469 826.742188 C 882.246094 827.464844 880.859375 828.125 879.4375 828.714844 C 878.019531 829.300781 876.570312 829.820312 875.101562 830.269531 C 873.628906 830.714844 872.140625 831.089844 870.628906 831.390625 C 869.121094 831.691406 867.601562 831.917969 866.074219 832.070312 C 864.542969 832.222656 863.007812 832.300781 861.46875 832.304688 L 78.53125 832.304688 C 76.992188 832.300781 75.457031 832.222656 73.925781 832.070312 C 72.398438 831.917969 70.878906 831.691406 69.371094 831.390625 C 67.859375 831.089844 66.371094 830.714844 64.898438 830.269531 C 63.429688 829.820312 61.980469 829.300781 60.5625 828.714844 C 59.140625 828.125 57.753906 827.464844 56.394531 826.742188 C 55.039062 826.015625 53.722656 825.226562 52.445312 824.371094 C 51.164062 823.515625 49.933594 822.597656 48.742188 821.625 C 47.554688 820.648438 46.417969 819.617188 45.328125 818.527344 C 44.242188 817.441406 43.210938 816.300781 42.234375 815.113281 C 41.257812 813.925781 40.34375 812.691406 39.488281 811.414062 C 38.632812 810.132812 37.84375 808.816406 37.117188 807.460938 C 36.390625 806.105469 35.734375 804.714844 35.144531 803.296875 C 34.554688 801.875 34.035156 800.429688 33.589844 798.957031 C 33.140625 797.484375 32.765625 795.996094 32.464844 794.488281 C 32.164062 792.980469 31.9375 791.460938 31.785156 789.929688 C 31.632812 788.398438 31.554688 786.863281 31.554688 785.328125 L 31.554688 425.175781 C 31.554688 423.636719 31.632812 422.101562 31.785156 420.570312 C 31.9375 419.042969 32.164062 417.523438 32.464844 416.011719 C 32.765625 414.503906 33.140625 413.015625 33.589844 411.542969 C 34.035156 410.074219 34.554688 408.625 35.144531 407.207031 C 35.734375 405.785156 36.390625 404.398438 37.117188 403.039062 C 37.84375 401.683594 38.632812 400.367188 39.488281 399.089844 C 40.34375 397.808594 41.257812 396.574219 42.234375 395.386719 C 43.210938 394.199219 44.242188 393.058594 45.328125 391.972656 C 46.417969 390.886719 47.554688 389.851562 48.742188 388.878906 C 49.933594 387.902344 51.164062 386.984375 52.445312 386.132812 C 53.722656 385.277344 55.039062 384.484375 56.394531 383.761719 C 57.753906 383.035156 59.140625 382.378906 60.5625 381.789062 C 61.980469 381.199219 63.429688 380.679688 64.898438 380.234375 C 66.371094 379.785156 67.859375 379.410156 69.371094 379.109375 C 70.878906 378.808594 72.398438 378.582031 73.925781 378.429688 C 75.457031 378.277344 76.992188 378.199219 78.53125 378.199219 L 861.46875 378.199219 C 863.007812 378.199219 864.542969 378.277344 866.074219 378.429688 C 867.601562 378.582031 869.121094 378.808594 870.628906 379.109375 C 872.140625 379.410156 873.628906 379.785156 875.101562 380.234375 C 876.570312 380.679688 878.019531 381.199219 879.4375 381.789062 C 880.859375 382.378906 882.246094 383.035156 883.605469 383.761719 C 884.960938 384.484375 886.277344 385.277344 887.554688 386.132812 C 888.835938 386.984375 890.066406 387.902344 891.257812 388.878906 C 892.445312 389.851562 893.585938 390.886719 894.671875 391.972656 C 895.757812 393.058594 896.789062 394.199219 897.765625 395.386719 C 898.742188 396.574219 899.65625 397.808594 900.511719 399.089844 C 901.367188 400.367188 902.15625 401.683594 902.882812 403.039062 C 903.609375 404.398438 904.265625 405.785156 904.855469 407.207031 C 905.445312 408.625 905.964844 410.074219 906.410156 411.542969 C 906.859375 413.015625 907.234375 414.503906 907.535156 416.011719 C 907.835938 417.523438 908.0625 419.042969 908.214844 420.570312 C 908.367188 422.101562 908.445312 423.636719 908.445312 425.175781 Z M 908.445312 785.328125 " fill-opacity="1" fill-rule="nonzero"/></g><path fill="#ff3131" d="M 830.152344 403.988281 L 109.847656 403.988281 C 108.308594 403.988281 106.777344 404.066406 105.246094 404.21875 C 103.714844 404.371094 102.195312 404.597656 100.6875 404.898438 C 99.179688 405.199219 97.6875 405.574219 96.21875 406.023438 C 94.746094 406.46875 93.300781 406.988281 91.878906 407.578125 C 90.457031 408.167969 89.070312 408.824219 87.714844 409.550781 C 86.355469 410.277344 85.039062 411.066406 83.761719 411.921875 C 82.484375 412.777344 81.25 413.691406 80.058594 414.667969 C 78.871094 415.644531 77.734375 416.675781 76.644531 417.761719 C 75.558594 418.851562 74.527344 419.988281 73.550781 421.175781 C 72.574219 422.367188 71.660156 423.597656 70.804688 424.878906 C 69.949219 426.15625 69.160156 427.472656 68.433594 428.828125 C 67.707031 430.1875 67.050781 431.574219 66.460938 432.996094 C 65.871094 434.414062 65.351562 435.863281 64.90625 437.332031 C 64.457031 438.804688 64.085938 440.296875 63.78125 441.804688 C 63.480469 443.3125 63.253906 444.832031 63.101562 446.363281 C 62.949219 447.890625 62.875 449.425781 62.871094 450.964844 L 62.871094 759.535156 C 62.875 761.074219 62.949219 762.609375 63.101562 764.140625 C 63.253906 765.667969 63.480469 767.1875 63.78125 768.699219 C 64.085938 770.207031 64.457031 771.695312 64.90625 773.167969 C 65.351562 774.640625 65.871094 776.085938 66.460938 777.503906 C 67.050781 778.925781 67.707031 780.316406 68.433594 781.671875 C 69.160156 783.027344 69.949219 784.34375 70.804688 785.625 C 71.660156 786.902344 72.574219 788.136719 73.550781 789.324219 C 74.527344 790.511719 75.558594 791.652344 76.644531 792.738281 C 77.734375 793.828125 78.871094 794.859375 80.058594 795.835938 C 81.25 796.808594 82.484375 797.726562 83.761719 798.582031 C 85.039062 799.433594 86.355469 800.226562 87.714844 800.949219 C 89.070312 801.675781 90.457031 802.332031 91.878906 802.921875 C 93.300781 803.511719 94.746094 804.03125 96.21875 804.476562 C 97.6875 804.925781 99.179688 805.300781 100.6875 805.601562 C 102.195312 805.902344 103.714844 806.128906 105.246094 806.28125 C 106.777344 806.433594 108.308594 806.511719 109.847656 806.511719 L 830.152344 806.511719 C 831.691406 806.511719 833.222656 806.433594 834.753906 806.28125 C 836.285156 806.128906 837.804688 805.902344 839.3125 805.601562 C 840.820312 805.300781 842.3125 804.925781 843.78125 804.480469 C 845.253906 804.03125 846.699219 803.511719 848.121094 802.921875 C 849.542969 802.335938 850.929688 801.675781 852.285156 800.949219 C 853.644531 800.226562 854.960938 799.433594 856.238281 798.582031 C 857.515625 797.726562 858.75 796.808594 859.941406 795.835938 C 861.128906 794.859375 862.265625 793.828125 863.355469 792.738281 C 864.441406 791.652344 865.472656 790.511719 866.449219 789.324219 C 867.425781 788.136719 868.339844 786.902344 869.195312 785.625 C 870.050781 784.34375 870.839844 783.027344 871.566406 781.671875 C 872.292969 780.316406 872.949219 778.925781 873.539062 777.503906 C 874.128906 776.085938 874.648438 774.640625 875.09375 773.167969 C 875.542969 771.695312 875.917969 770.207031 876.21875 768.699219 C 876.519531 767.1875 876.746094 765.671875 876.898438 764.140625 C 877.050781 762.609375 877.125 761.074219 877.128906 759.535156 L 877.128906 450.964844 C 877.125 449.425781 877.050781 447.890625 876.898438 446.363281 C 876.746094 444.832031 876.519531 443.3125 876.21875 441.804688 C 875.917969 440.296875 875.542969 438.804688 875.09375 437.332031 C 874.648438 435.863281 874.128906 434.414062 873.539062 432.996094 C 872.949219 431.574219 872.292969 430.1875 871.566406 428.828125 C 870.839844 427.472656 870.050781 426.15625 869.195312 424.878906 C 868.339844 423.597656 867.425781 422.367188 866.449219 421.175781 C 865.472656 419.988281 864.441406 418.851562 863.355469 417.761719 C 862.265625 416.675781 861.128906 415.644531 859.941406 414.667969 C 858.75 413.691406 857.515625 412.777344 856.238281 411.921875 C 854.960938 411.066406 853.644531 410.277344 852.285156 409.550781 C 850.929688 408.824219 849.542969 408.167969 848.121094 407.578125 C 846.699219 406.988281 845.253906 406.46875 843.78125 406.023438 C 842.3125 405.574219 840.820312 405.199219 839.3125 404.898438 C 837.804688 404.597656 836.285156 404.371094 834.753906 404.21875 C 833.222656 404.066406 831.691406 403.988281 830.152344 403.988281 Z M 845.8125 759.535156 C 845.808594 760.5625 845.707031 761.582031 845.507812 762.589844 C 845.304688 763.597656 845.007812 764.578125 844.613281 765.527344 C 844.222656 766.476562 843.738281 767.378906 843.167969 768.234375 C 842.597656 769.085938 841.945312 769.878906 841.21875 770.605469 C 840.492188 771.332031 839.703125 771.980469 838.847656 772.550781 C 837.992188 773.121094 837.089844 773.605469 836.140625 774 C 835.191406 774.394531 834.214844 774.691406 833.207031 774.890625 C 832.199219 775.09375 831.179688 775.195312 830.152344 775.195312 L 109.847656 775.195312 C 108.820312 775.195312 107.800781 775.09375 106.792969 774.890625 C 105.785156 774.691406 104.808594 774.394531 103.859375 774 C 102.910156 773.605469 102.007812 773.121094 101.152344 772.550781 C 100.296875 771.980469 99.507812 771.332031 98.78125 770.605469 C 98.054688 769.878906 97.40625 769.085938 96.832031 768.230469 C 96.261719 767.378906 95.777344 766.476562 95.386719 765.527344 C 94.992188 764.578125 94.695312 763.597656 94.492188 762.589844 C 94.292969 761.582031 94.191406 760.5625 94.1875 759.535156 L 94.1875 450.964844 C 94.191406 449.9375 94.292969 448.917969 94.492188 447.910156 C 94.695312 446.902344 94.992188 445.925781 95.386719 444.972656 C 95.777344 444.023438 96.261719 443.125 96.832031 442.269531 C 97.40625 441.414062 98.054688 440.625 98.78125 439.898438 C 99.507812 439.167969 100.296875 438.519531 101.152344 437.949219 C 102.007812 437.378906 102.910156 436.894531 103.859375 436.5 C 104.808594 436.109375 105.785156 435.808594 106.792969 435.609375 C 107.800781 435.40625 108.820312 435.308594 109.847656 435.304688 L 830.152344 435.304688 C 831.179688 435.308594 832.199219 435.40625 833.207031 435.609375 C 834.214844 435.808594 835.191406 436.109375 836.140625 436.5 C 837.089844 436.894531 837.992188 437.378906 838.847656 437.949219 C 839.703125 438.519531 840.492188 439.167969 841.21875 439.898438 C 841.945312 440.625 842.597656 441.414062 843.167969 442.269531 C 843.738281 443.125 844.222656 444.023438 844.613281 444.972656 C 845.007812 445.925781 845.304688 446.902344 845.507812 447.910156 C 845.707031 448.917969 845.808594 449.9375 845.8125 450.964844 Z M 845.8125 759.535156 " fill-opacity="1" fill-rule="nonzero"/><path fill="#ff3131" d="M 360.386719 597.421875 L 329.070312 597.421875 C 328.042969 597.421875 327.023438 597.519531 326.015625 597.722656 C 325.007812 597.921875 324.027344 598.21875 323.078125 598.613281 C 322.128906 599.007812 321.226562 599.488281 320.371094 600.058594 C 319.515625 600.632812 318.726562 601.28125 318 602.007812 C 317.273438 602.734375 316.621094 603.527344 316.050781 604.378906 C 315.480469 605.234375 314.996094 606.136719 314.605469 607.085938 C 314.210938 608.039062 313.914062 609.015625 313.714844 610.023438 C 313.511719 611.035156 313.414062 612.050781 313.414062 613.078125 C 313.414062 614.109375 313.511719 615.125 313.714844 616.132812 C 313.914062 617.144531 314.210938 618.121094 314.605469 619.070312 C 314.996094 620.023438 315.480469 620.925781 316.050781 621.78125 C 316.621094 622.632812 317.273438 623.425781 318 624.152344 C 318.726562 624.878906 319.515625 625.527344 320.371094 626.097656 C 321.226562 626.671875 322.128906 627.152344 323.078125 627.546875 C 324.027344 627.941406 325.007812 628.238281 326.015625 628.4375 C 327.023438 628.636719 328.042969 628.738281 329.070312 628.738281 L 344.730469 628.738281 L 344.730469 644.398438 C 344.730469 645.421875 344.679688 646.445312 344.578125 647.46875 C 344.476562 648.488281 344.328125 649.5 344.128906 650.507812 C 343.929688 651.511719 343.679688 652.507812 343.382812 653.488281 C 343.082031 654.46875 342.738281 655.433594 342.347656 656.382812 C 341.953125 657.328125 341.515625 658.257812 341.03125 659.160156 C 340.546875 660.066406 340.023438 660.945312 339.453125 661.796875 C 338.882812 662.648438 338.273438 663.472656 337.621094 664.265625 C 336.96875 665.058594 336.28125 665.816406 335.558594 666.542969 C 334.832031 667.269531 334.074219 667.957031 333.28125 668.605469 C 332.488281 669.257812 331.664062 669.867188 330.8125 670.4375 C 329.957031 671.007812 329.078125 671.535156 328.175781 672.015625 C 327.269531 672.5 326.34375 672.9375 325.398438 673.332031 C 324.449219 673.722656 323.484375 674.070312 322.503906 674.367188 C 321.523438 674.664062 320.527344 674.914062 319.523438 675.113281 C 318.515625 675.3125 317.503906 675.464844 316.480469 675.5625 C 315.460938 675.664062 314.4375 675.714844 313.414062 675.714844 C 312.386719 675.714844 311.363281 675.664062 310.34375 675.5625 C 309.320312 675.464844 308.308594 675.3125 307.300781 675.113281 C 306.296875 674.914062 305.304688 674.664062 304.320312 674.367188 C 303.339844 674.070312 302.375 673.722656 301.425781 673.332031 C 300.480469 672.9375 299.554688 672.5 298.648438 672.015625 C 297.746094 671.535156 296.867188 671.007812 296.011719 670.4375 C 295.160156 669.867188 294.335938 669.257812 293.542969 668.605469 C 292.75 667.957031 291.992188 667.269531 291.265625 666.542969 C 290.542969 665.816406 289.855469 665.058594 289.203125 664.265625 C 288.550781 663.472656 287.941406 662.648438 287.371094 661.796875 C 286.804688 660.945312 286.277344 660.066406 285.792969 659.160156 C 285.308594 658.257812 284.871094 657.328125 284.480469 656.382812 C 284.085938 655.433594 283.742188 654.46875 283.441406 653.488281 C 283.144531 652.507812 282.898438 651.511719 282.695312 650.507812 C 282.496094 649.5 282.347656 648.488281 282.246094 647.46875 C 282.144531 646.445312 282.09375 645.421875 282.09375 644.398438 L 282.09375 581.761719 C 282.09375 580.183594 282.210938 578.617188 282.449219 577.058594 C 282.683594 575.5 283.035156 573.964844 283.503906 572.460938 C 283.972656 570.953125 284.550781 569.492188 285.238281 568.070312 C 285.929688 566.652344 286.71875 565.292969 287.613281 563.996094 C 288.507812 562.695312 289.496094 561.472656 290.574219 560.320312 C 291.652344 559.171875 292.8125 558.109375 294.050781 557.132812 C 295.292969 556.160156 296.597656 555.28125 297.96875 554.503906 C 299.339844 553.726562 300.765625 553.058594 302.238281 552.496094 C 303.710938 551.929688 305.21875 551.484375 306.757812 551.148438 C 308.300781 550.8125 309.859375 550.59375 311.433594 550.496094 C 313.007812 550.394531 314.578125 550.414062 316.148438 550.550781 C 317.722656 550.691406 319.273438 550.945312 320.804688 551.316406 C 322.335938 551.691406 323.832031 552.175781 325.292969 552.773438 C 326.753906 553.371094 328.15625 554.078125 329.511719 554.886719 C 330.863281 555.699219 332.148438 556.605469 333.363281 557.609375 C 334.578125 558.613281 335.710938 559.707031 336.761719 560.882812 C 337.453125 561.632812 338.210938 562.308594 339.035156 562.914062 C 339.855469 563.515625 340.730469 564.035156 341.652344 564.46875 C 342.578125 564.902344 343.535156 565.238281 344.527344 565.484375 C 345.515625 565.730469 346.523438 565.878906 347.542969 565.925781 C 348.558594 565.976562 349.574219 565.925781 350.585938 565.777344 C 351.59375 565.628906 352.578125 565.382812 353.539062 565.039062 C 354.503906 564.699219 355.421875 564.265625 356.296875 563.746094 C 357.175781 563.222656 357.992188 562.621094 358.753906 561.9375 C 359.511719 561.257812 360.199219 560.507812 360.8125 559.691406 C 361.425781 558.878906 361.953125 558.007812 362.398438 557.089844 C 362.839844 556.171875 363.191406 555.21875 363.449219 554.230469 C 363.703125 553.242188 363.863281 552.238281 363.925781 551.222656 C 363.984375 550.203125 363.945312 549.1875 363.808594 548.175781 C 363.671875 547.164062 363.4375 546.175781 363.105469 545.210938 C 362.777344 544.246094 362.355469 543.320312 361.84375 542.4375 C 361.332031 541.554688 360.742188 540.730469 360.066406 539.964844 C 359.015625 538.789062 357.925781 537.660156 356.789062 536.570312 C 355.652344 535.480469 354.480469 534.433594 353.265625 533.433594 C 352.050781 532.429688 350.800781 531.476562 349.515625 530.570312 C 348.226562 529.660156 346.910156 528.804688 345.558594 527.996094 C 344.207031 527.1875 342.828125 526.433594 341.421875 525.730469 C 340.011719 525.023438 338.578125 524.375 337.121094 523.78125 C 335.667969 523.183594 334.1875 522.644531 332.691406 522.160156 C 331.195312 521.675781 329.679688 521.246094 328.148438 520.878906 C 326.621094 520.507812 325.078125 520.195312 323.527344 519.941406 C 321.972656 519.6875 320.410156 519.492188 318.84375 519.355469 C 317.277344 519.21875 315.703125 519.140625 314.128906 519.121094 C 312.558594 519.105469 310.984375 519.144531 309.414062 519.246094 C 307.84375 519.347656 306.277344 519.507812 304.71875 519.722656 C 303.160156 519.941406 301.613281 520.21875 300.074219 520.554688 C 298.535156 520.890625 297.011719 521.28125 295.503906 521.734375 C 293.996094 522.183594 292.507812 522.6875 291.039062 523.25 C 289.566406 523.8125 288.121094 524.429688 286.695312 525.101562 C 285.273438 525.773438 283.875 526.496094 282.507812 527.273438 C 281.140625 528.050781 279.800781 528.878906 278.496094 529.753906 C 277.1875 530.632812 275.914062 531.558594 274.679688 532.53125 C 273.441406 533.503906 272.242188 534.523438 271.082031 535.585938 C 269.921875 536.648438 268.804688 537.757812 267.726562 538.902344 C 266.652344 540.050781 265.617188 541.238281 264.632812 542.464844 C 263.644531 543.691406 262.703125 544.953125 261.8125 546.25 C 260.921875 547.546875 260.078125 548.875 259.285156 550.234375 C 258.492188 551.59375 257.753906 552.980469 257.066406 554.398438 C 256.378906 555.8125 255.746094 557.253906 255.167969 558.71875 C 254.589844 560.179688 254.066406 561.664062 253.597656 563.167969 C 253.132812 564.671875 252.722656 566.1875 252.367188 567.722656 C 252.015625 569.257812 251.722656 570.800781 251.484375 572.359375 C 251.25 573.914062 251.074219 575.476562 250.953125 577.046875 C 250.835938 578.617188 250.777344 580.1875 250.777344 581.761719 L 250.777344 644.398438 C 250.777344 646.449219 250.878906 648.496094 251.078125 650.535156 C 251.28125 652.578125 251.582031 654.605469 251.980469 656.617188 C 252.378906 658.628906 252.878906 660.617188 253.472656 662.578125 C 254.070312 664.542969 254.761719 666.472656 255.542969 668.367188 C 256.328125 670.261719 257.207031 672.113281 258.171875 673.921875 C 259.140625 675.734375 260.191406 677.488281 261.332031 679.195312 C 262.472656 680.902344 263.691406 682.546875 264.996094 684.132812 C 266.296875 685.71875 267.671875 687.238281 269.121094 688.6875 C 270.574219 690.136719 272.089844 691.511719 273.675781 692.816406 C 275.261719 694.117188 276.910156 695.335938 278.613281 696.476562 C 280.320312 697.617188 282.078125 698.667969 283.886719 699.636719 C 285.695312 700.605469 287.546875 701.480469 289.441406 702.265625 C 291.339844 703.050781 293.265625 703.738281 295.230469 704.335938 C 297.191406 704.929688 299.179688 705.429688 301.191406 705.828125 C 303.203125 706.230469 305.230469 706.53125 307.273438 706.730469 C 309.3125 706.933594 311.359375 707.03125 313.414062 707.03125 C 315.464844 707.03125 317.511719 706.933594 319.550781 706.730469 C 321.59375 706.53125 323.621094 706.230469 325.632812 705.828125 C 327.644531 705.429688 329.632812 704.929688 331.59375 704.335938 C 333.558594 703.738281 335.488281 703.050781 337.382812 702.265625 C 339.277344 701.480469 341.128906 700.605469 342.9375 699.636719 C 344.746094 698.667969 346.503906 697.617188 348.210938 696.476562 C 349.917969 695.335938 351.5625 694.117188 353.148438 692.816406 C 354.734375 691.511719 356.25 690.136719 357.703125 688.6875 C 359.152344 687.238281 360.527344 685.71875 361.828125 684.132812 C 363.132812 682.546875 364.351562 680.902344 365.492188 679.195312 C 366.632812 677.488281 367.683594 675.734375 368.652344 673.921875 C 369.617188 672.113281 370.496094 670.261719 371.28125 668.367188 C 372.066406 666.472656 372.753906 664.542969 373.351562 662.578125 C 373.945312 660.617188 374.445312 658.628906 374.84375 656.617188 C 375.242188 654.605469 375.542969 652.578125 375.746094 650.535156 C 375.945312 648.496094 376.046875 646.449219 376.046875 644.398438 L 376.046875 613.078125 C 376.046875 612.050781 375.945312 611.035156 375.746094 610.023438 C 375.546875 609.015625 375.25 608.039062 374.855469 607.085938 C 374.460938 606.136719 373.980469 605.234375 373.410156 604.378906 C 372.835938 603.527344 372.1875 602.734375 371.460938 602.007812 C 370.734375 601.28125 369.941406 600.632812 369.089844 600.058594 C 368.234375 599.488281 367.332031 599.007812 366.382812 598.613281 C 365.429688 598.21875 364.453125 597.921875 363.445312 597.722656 C 362.433594 597.519531 361.417969 597.421875 360.386719 597.421875 Z M 360.386719 597.421875 " fill-opacity="1" fill-rule="nonzero"/><path fill="#ff3131" d="M 525.035156 521.359375 C 524.152344 520.832031 523.230469 520.394531 522.261719 520.046875 C 521.292969 519.699219 520.300781 519.449219 519.285156 519.296875 C 518.265625 519.148438 517.246094 519.097656 516.21875 519.144531 C 515.191406 519.195312 514.179688 519.34375 513.179688 519.59375 C 512.183594 519.84375 511.21875 520.1875 510.289062 520.628906 C 509.359375 521.066406 508.484375 521.589844 507.65625 522.203125 C 506.832031 522.816406 506.070312 523.503906 505.382812 524.261719 C 504.691406 525.023438 504.082031 525.847656 503.550781 526.726562 L 470 582.640625 L 436.449219 526.726562 C 436.1875 526.285156 435.90625 525.851562 435.601562 525.4375 C 435.296875 525.019531 434.972656 524.621094 434.628906 524.234375 C 434.285156 523.851562 433.921875 523.484375 433.542969 523.136719 C 433.164062 522.789062 432.765625 522.460938 432.355469 522.148438 C 431.941406 521.839844 431.515625 521.550781 431.074219 521.285156 C 430.632812 521.019531 430.179688 520.773438 429.714844 520.550781 C 429.25 520.328125 428.777344 520.128906 428.292969 519.953125 C 427.808594 519.777344 427.316406 519.625 426.816406 519.5 C 426.316406 519.371094 425.8125 519.269531 425.300781 519.191406 C 424.792969 519.117188 424.277344 519.0625 423.765625 519.035156 C 423.25 519.011719 422.734375 519.007812 422.21875 519.035156 C 421.703125 519.058594 421.191406 519.109375 420.683594 519.183594 C 420.171875 519.257812 419.667969 519.355469 419.167969 519.480469 C 418.667969 519.605469 418.171875 519.757812 417.6875 519.929688 C 417.203125 520.101562 416.726562 520.300781 416.261719 520.519531 C 415.792969 520.742188 415.339844 520.984375 414.898438 521.25 C 414.457031 521.515625 414.027344 521.800781 413.613281 522.109375 C 413.199219 522.417969 412.804688 522.742188 412.421875 523.089844 C 412.039062 523.4375 411.675781 523.800781 411.332031 524.183594 C 410.988281 524.566406 410.660156 524.964844 410.355469 525.382812 C 410.046875 525.796875 409.765625 526.226562 409.5 526.667969 C 409.238281 527.109375 408.996094 527.566406 408.777344 528.03125 C 408.558594 528.5 408.363281 528.976562 408.191406 529.460938 C 408.019531 529.949219 407.871094 530.441406 407.75 530.941406 C 407.625 531.441406 407.527344 531.949219 407.457031 532.460938 C 407.382812 532.96875 407.335938 533.480469 407.3125 533.996094 C 407.289062 534.511719 407.292969 535.027344 407.324219 535.542969 C 407.351562 536.058594 407.40625 536.570312 407.484375 537.078125 C 407.5625 537.585938 407.667969 538.09375 407.796875 538.589844 C 407.925781 539.089844 408.078125 539.582031 408.253906 540.066406 C 408.433594 540.550781 408.632812 541.023438 408.859375 541.488281 C 409.082031 541.953125 409.328125 542.40625 409.597656 542.84375 L 454.339844 617.417969 L 454.339844 691.375 C 454.339844 692.402344 454.441406 693.421875 454.640625 694.429688 C 454.84375 695.4375 455.140625 696.417969 455.535156 697.367188 C 455.925781 698.316406 456.410156 699.21875 456.980469 700.074219 C 457.550781 700.929688 458.199219 701.71875 458.925781 702.445312 C 459.65625 703.171875 460.445312 703.824219 461.300781 704.394531 C 462.15625 704.964844 463.058594 705.445312 464.007812 705.839844 C 464.957031 706.234375 465.9375 706.53125 466.945312 706.730469 C 467.953125 706.933594 468.972656 707.03125 470 707.03125 C 471.027344 707.03125 472.046875 706.933594 473.054688 706.730469 C 474.0625 706.53125 475.042969 706.234375 475.992188 705.839844 C 476.941406 705.445312 477.84375 704.964844 478.699219 704.394531 C 479.554688 703.824219 480.34375 703.171875 481.074219 702.445312 C 481.800781 701.71875 482.449219 700.929688 483.019531 700.074219 C 483.589844 699.21875 484.074219 698.316406 484.46875 697.367188 C 484.859375 696.417969 485.15625 695.4375 485.359375 694.429688 C 485.558594 693.421875 485.660156 692.402344 485.660156 691.375 L 485.660156 617.417969 L 530.402344 542.84375 C 530.929688 541.960938 531.367188 541.035156 531.714844 540.070312 C 532.0625 539.101562 532.3125 538.109375 532.464844 537.089844 C 532.613281 536.074219 532.664062 535.054688 532.613281 534.027344 C 532.566406 533 532.414062 531.988281 532.167969 530.988281 C 531.917969 529.992188 531.574219 529.027344 531.132812 528.101562 C 530.695312 527.171875 530.171875 526.292969 529.558594 525.464844 C 528.945312 524.640625 528.261719 523.882812 527.5 523.191406 C 526.738281 522.5 525.917969 521.890625 525.035156 521.359375 Z M 525.035156 521.359375 " fill-opacity="1" fill-rule="nonzero"/><path fill="#ff3131" d="M 677.738281 519.691406 C 676.921875 519.46875 676.085938 519.308594 675.242188 519.21875 C 674.398438 519.128906 673.550781 519.109375 672.703125 519.15625 C 671.855469 519.203125 671.015625 519.320312 670.183594 519.503906 C 669.355469 519.6875 668.546875 519.9375 667.757812 520.253906 C 666.96875 520.566406 666.210938 520.945312 665.480469 521.382812 C 664.753906 521.820312 664.066406 522.316406 663.417969 522.867188 C 662.769531 523.417969 662.171875 524.015625 661.621094 524.664062 C 661.070312 525.3125 660.578125 526 660.140625 526.726562 L 626.589844 582.640625 L 593.035156 526.726562 C 592.597656 526 592.105469 525.308594 591.554688 524.660156 C 591.007812 524.011719 590.40625 523.414062 589.757812 522.863281 C 589.113281 522.308594 588.425781 521.816406 587.695312 521.375 C 586.96875 520.9375 586.207031 520.558594 585.417969 520.246094 C 584.628906 519.929688 583.820312 519.679688 582.988281 519.496094 C 582.160156 519.3125 581.320312 519.199219 580.46875 519.152344 C 579.621094 519.105469 578.773438 519.128906 577.929688 519.21875 C 577.082031 519.308594 576.25 519.46875 575.429688 519.695312 C 574.609375 519.921875 573.816406 520.214844 573.042969 520.570312 C 572.273438 520.929688 571.535156 521.347656 570.828125 521.824219 C 570.125 522.300781 569.464844 522.832031 568.847656 523.414062 C 568.230469 524 567.664062 524.628906 567.148438 525.308594 C 566.632812 525.984375 566.175781 526.699219 565.777344 527.449219 C 565.378906 528.199219 565.046875 528.980469 564.773438 529.785156 C 564.5 530.589844 564.296875 531.414062 564.160156 532.25 C 564.023438 533.089844 563.953125 533.9375 563.953125 534.785156 L 563.953125 691.375 C 563.953125 692.402344 564.054688 693.421875 564.253906 694.429688 C 564.453125 695.4375 564.75 696.417969 565.144531 697.367188 C 565.539062 698.316406 566.019531 699.21875 566.589844 700.074219 C 567.164062 700.929688 567.8125 701.71875 568.539062 702.445312 C 569.265625 703.171875 570.058594 703.824219 570.910156 704.394531 C 571.765625 704.964844 572.667969 705.445312 573.621094 705.839844 C 574.570312 706.234375 575.546875 706.53125 576.558594 706.730469 C 577.566406 706.933594 578.582031 707.03125 579.613281 707.03125 C 580.640625 707.03125 581.65625 706.933594 582.667969 706.730469 C 583.675781 706.53125 584.652344 706.234375 585.605469 705.839844 C 586.554688 705.445312 587.457031 704.964844 588.3125 704.394531 C 589.164062 703.824219 589.957031 703.171875 590.683594 702.445312 C 591.410156 701.71875 592.058594 700.929688 592.632812 700.074219 C 593.203125 699.21875 593.683594 698.316406 594.078125 697.367188 C 594.472656 696.417969 594.769531 695.4375 594.96875 694.429688 C 595.171875 693.421875 595.269531 692.402344 595.269531 691.375 L 595.269531 591.320312 L 613.164062 621.136719 C 618.820312 630.574219 634.355469 630.574219 640.011719 621.136719 L 657.90625 591.320312 L 657.90625 691.375 C 657.90625 692.402344 658.003906 693.421875 658.207031 694.429688 C 658.40625 695.4375 658.703125 696.417969 659.097656 697.367188 C 659.492188 698.316406 659.972656 699.21875 660.542969 700.074219 C 661.117188 700.929688 661.765625 701.71875 662.492188 702.445312 C 663.21875 703.171875 664.011719 703.824219 664.863281 704.394531 C 665.71875 704.964844 666.621094 705.445312 667.570312 705.839844 C 668.523438 706.234375 669.5 706.53125 670.507812 706.730469 C 671.519531 706.933594 672.535156 707.03125 673.5625 707.03125 C 674.59375 707.03125 675.609375 706.933594 676.617188 706.730469 C 677.628906 706.53125 678.605469 706.234375 679.554688 705.839844 C 680.507812 705.445312 681.410156 704.964844 682.265625 704.394531 C 683.117188 703.824219 683.910156 703.171875 684.636719 702.445312 C 685.363281 701.71875 686.011719 700.929688 686.585938 700.074219 C 687.15625 699.21875 687.636719 698.316406 688.03125 697.367188 C 688.425781 696.417969 688.722656 695.4375 688.921875 694.429688 C 689.121094 693.421875 689.222656 692.402344 689.222656 691.375 L 689.222656 534.785156 C 689.222656 533.933594 689.15625 533.089844 689.015625 532.25 C 688.878906 531.410156 688.675781 530.589844 688.402344 529.78125 C 688.128906 528.976562 687.796875 528.199219 687.398438 527.445312 C 687 526.695312 686.542969 525.980469 686.027344 525.304688 C 685.511719 524.625 684.945312 523.996094 684.328125 523.410156 C 683.707031 522.824219 683.046875 522.296875 682.34375 521.816406 C 681.636719 521.339844 680.898438 520.925781 680.128906 520.566406 C 679.355469 520.210938 678.558594 519.917969 677.738281 519.691406 Z M 677.738281 519.691406 " fill-opacity="1" fill-rule="nonzero"/><path fill="#ff3131" d="M 141.164062 456.492188 C 140.136719 456.492188 139.121094 456.59375 138.109375 456.792969 C 137.101562 456.992188 136.125 457.289062 135.171875 457.683594 C 134.222656 458.078125 133.320312 458.558594 132.464844 459.132812 C 131.609375 459.703125 130.820312 460.351562 130.09375 461.078125 C 129.367188 461.804688 128.71875 462.597656 128.144531 463.453125 C 127.574219 464.304688 127.09375 465.207031 126.699219 466.160156 C 126.304688 467.109375 126.007812 468.085938 125.808594 469.097656 C 125.605469 470.105469 125.507812 471.121094 125.507812 472.152344 L 125.507812 566.105469 C 125.507812 567.132812 125.605469 568.148438 125.808594 569.160156 C 126.007812 570.167969 126.304688 571.144531 126.699219 572.097656 C 127.09375 573.046875 127.574219 573.949219 128.144531 574.804688 C 128.71875 575.65625 129.367188 576.449219 130.09375 577.175781 C 130.820312 577.902344 131.609375 578.550781 132.464844 579.125 C 133.320312 579.695312 134.222656 580.175781 135.171875 580.570312 C 136.125 580.964844 137.101562 581.261719 138.109375 581.460938 C 139.121094 581.660156 140.136719 581.761719 141.164062 581.761719 C 142.195312 581.761719 143.210938 581.660156 144.21875 581.460938 C 145.230469 581.261719 146.207031 580.964844 147.15625 580.570312 C 148.109375 580.175781 149.011719 579.695312 149.863281 579.125 C 150.71875 578.550781 151.511719 577.902344 152.238281 577.175781 C 152.964844 576.449219 153.613281 575.65625 154.183594 574.804688 C 154.757812 573.949219 155.238281 573.046875 155.632812 572.097656 C 156.027344 571.144531 156.324219 570.167969 156.523438 569.160156 C 156.722656 568.148438 156.824219 567.132812 156.824219 566.105469 L 156.824219 472.152344 C 156.824219 471.121094 156.722656 470.105469 156.523438 469.097656 C 156.324219 468.085938 156.027344 467.109375 155.632812 466.160156 C 155.238281 465.207031 154.757812 464.304688 154.183594 463.453125 C 153.613281 462.597656 152.964844 461.804688 152.238281 461.078125 C 151.511719 460.351562 150.71875 459.703125 149.863281 459.132812 C 149.011719 458.558594 148.109375 458.078125 147.15625 457.683594 C 146.207031 457.289062 145.230469 456.992188 144.21875 456.792969 C 143.210938 456.59375 142.195312 456.492188 141.164062 456.492188 Z M 141.164062 456.492188 " fill-opacity="1" fill-rule="nonzero"/><path fill="#ff3131" d="M 156.824219 628.738281 C 156.824219 629.765625 156.722656 630.785156 156.523438 631.792969 C 156.324219 632.800781 156.027344 633.78125 155.632812 634.730469 C 155.238281 635.679688 154.757812 636.582031 154.183594 637.4375 C 153.613281 638.292969 152.964844 639.085938 152.238281 639.8125 C 151.511719 640.539062 150.71875 641.1875 149.863281 641.757812 C 149.011719 642.328125 148.109375 642.8125 147.15625 643.207031 C 146.207031 643.597656 145.230469 643.894531 144.21875 644.097656 C 143.210938 644.296875 142.195312 644.398438 141.164062 644.398438 C 140.136719 644.398438 139.121094 644.296875 138.109375 644.097656 C 137.101562 643.894531 136.125 643.597656 135.171875 643.207031 C 134.222656 642.8125 133.320312 642.328125 132.464844 641.757812 C 131.609375 641.1875 130.820312 640.539062 130.09375 639.8125 C 129.367188 639.085938 128.71875 638.292969 128.144531 637.4375 C 127.574219 636.582031 127.09375 635.679688 126.699219 634.730469 C 126.304688 633.78125 126.007812 632.800781 125.808594 631.792969 C 125.605469 630.785156 125.507812 629.765625 125.507812 628.738281 C 125.507812 627.710938 125.605469 626.691406 125.808594 625.683594 C 126.007812 624.675781 126.304688 623.695312 126.699219 622.746094 C 127.09375 621.796875 127.574219 620.894531 128.144531 620.039062 C 128.71875 619.183594 129.367188 618.394531 130.09375 617.667969 C 130.820312 616.9375 131.609375 616.289062 132.464844 615.71875 C 133.320312 615.148438 134.222656 614.664062 135.171875 614.273438 C 136.125 613.878906 137.101562 613.582031 138.109375 613.378906 C 139.121094 613.179688 140.136719 613.078125 141.164062 613.078125 C 142.195312 613.078125 143.210938 613.179688 144.21875 613.378906 C 145.230469 613.582031 146.207031 613.878906 147.15625 614.273438 C 148.109375 614.664062 149.011719 615.148438 149.863281 615.71875 C 150.71875 616.289062 151.511719 616.9375 152.238281 617.667969 C 152.964844 618.394531 153.613281 619.183594 154.183594 620.039062 C 154.757812 620.894531 155.238281 621.796875 155.632812 622.746094 C 156.027344 623.695312 156.324219 624.675781 156.523438 625.683594 C 156.722656 626.691406 156.824219 627.710938 156.824219 628.738281 Z M 156.824219 628.738281 " fill-opacity="1" fill-rule="nonzero"/></svg>