<svg xmlns="http://www.w3.org/2000/svg" xmlns:xlink="http://www.w3.org/1999/xlink" width="1254" zoomAndPan="magnify" viewBox="0 0 940.5 940.499971" height="1254" preserveAspectRatio="xMidYMid meet" version="1.0"><defs><clipPath id="680229227a"><path d="M 0 21.148438 L 940 21.148438 L 940 919 L 0 919 Z M 0 21.148438 " clip-rule="nonzero"/></clipPath></defs><g clip-path="url(#680229227a)"><path fill="#ff3131" d="M 329.039062 256.242188 C 329.65625 256.859375 330.207031 257.53125 330.691406 258.257812 C 331.175781 258.984375 331.585938 259.75 331.917969 260.554688 C 332.253906 261.363281 332.507812 262.195312 332.675781 263.050781 C 332.847656 263.90625 332.933594 264.769531 332.933594 265.644531 C 332.933594 266.515625 332.847656 267.382812 332.675781 268.238281 C 332.507812 269.09375 332.253906 269.925781 331.917969 270.730469 C 331.585938 271.539062 331.175781 272.304688 330.691406 273.03125 C 330.207031 273.757812 329.65625 274.429688 329.039062 275.046875 L 292.574219 311.507812 C 291.957031 312.125 291.285156 312.679688 290.5625 313.164062 C 289.835938 313.648438 289.070312 314.058594 288.261719 314.394531 C 287.457031 314.730469 286.625 314.980469 285.765625 315.152344 C 284.910156 315.324219 284.046875 315.410156 283.171875 315.410156 C 282.296875 315.410156 281.433594 315.324219 280.578125 315.15625 C 279.71875 314.984375 278.886719 314.734375 278.082031 314.398438 C 277.273438 314.0625 276.507812 313.65625 275.78125 313.167969 C 275.054688 312.683594 274.382812 312.132812 273.765625 311.515625 C 273.148438 310.898438 272.59375 310.226562 272.109375 309.5 C 271.625 308.773438 271.214844 308.007812 270.882812 307.199219 C 270.546875 306.390625 270.296875 305.558594 270.125 304.703125 C 269.953125 303.847656 269.871094 302.980469 269.871094 302.109375 C 269.871094 301.234375 269.957031 300.371094 270.128906 299.511719 C 270.296875 298.65625 270.550781 297.824219 270.886719 297.019531 C 271.21875 296.210938 271.628906 295.445312 272.117188 294.71875 C 272.601562 293.992188 273.152344 293.320312 273.773438 292.703125 L 310.234375 256.242188 C 310.851562 255.625 311.523438 255.074219 312.25 254.589844 C 312.976562 254.105469 313.742188 253.695312 314.546875 253.359375 C 315.355469 253.027344 316.1875 252.773438 317.042969 252.605469 C 317.898438 252.433594 318.761719 252.347656 319.636719 252.347656 C 320.507812 252.347656 321.375 252.433594 322.230469 252.605469 C 323.085938 252.773438 323.917969 253.027344 324.722656 253.359375 C 325.53125 253.695312 326.296875 254.105469 327.023438 254.589844 C 327.75 255.074219 328.421875 255.625 329.039062 256.242188 Z M 886.382812 116.386719 C 888.113281 118.117188 889.808594 119.882812 891.46875 121.679688 C 893.128906 123.480469 894.753906 125.3125 896.339844 127.175781 C 897.925781 129.042969 899.472656 130.9375 900.984375 132.863281 C 902.496094 134.789062 903.964844 136.746094 905.398438 138.734375 C 906.832031 140.71875 908.222656 142.734375 909.574219 144.773438 C 910.921875 146.816406 912.234375 148.882812 913.5 150.980469 C 914.769531 153.074219 915.996094 155.191406 917.175781 157.335938 C 918.359375 159.480469 919.5 161.644531 920.59375 163.835938 C 921.691406 166.023438 922.742188 168.234375 923.75 170.464844 C 924.757812 172.699219 925.71875 174.949219 926.636719 177.21875 C 927.550781 179.488281 928.421875 181.777344 929.246094 184.082031 C 930.074219 186.386719 930.851562 188.707031 931.582031 191.042969 C 932.3125 193.378906 933 195.730469 933.636719 198.09375 C 934.273438 200.457031 934.863281 202.835938 935.402344 205.222656 C 935.945312 207.609375 936.4375 210.007812 936.882812 212.414062 C 937.328125 214.820312 937.726562 217.238281 938.074219 219.660156 C 938.421875 222.085938 938.722656 224.511719 938.972656 226.949219 C 939.226562 229.382812 939.425781 231.824219 939.578125 234.265625 C 939.734375 236.710938 939.835938 239.15625 939.890625 241.605469 C 939.945312 244.050781 939.953125 246.5 939.90625 248.949219 C 939.863281 251.394531 939.769531 253.839844 939.628906 256.285156 C 939.488281 258.730469 939.296875 261.171875 939.054688 263.605469 C 938.816406 266.042969 938.527344 268.472656 938.191406 270.898438 C 937.851562 273.324219 937.464844 275.742188 937.03125 278.148438 C 936.597656 280.558594 936.113281 282.960938 935.582031 285.347656 C 935.050781 287.738281 934.472656 290.117188 933.847656 292.484375 C 933.21875 294.851562 932.546875 297.203125 931.824219 299.542969 C 931.105469 301.882812 930.335938 304.207031 929.523438 306.515625 C 928.707031 308.824219 927.847656 311.117188 926.941406 313.390625 C 926.035156 315.664062 925.082031 317.921875 924.085938 320.15625 C 923.089844 322.394531 922.046875 324.609375 920.960938 326.800781 C 919.875 328.996094 918.746094 331.167969 917.570312 333.316406 C 916.398438 335.464844 915.183594 337.589844 913.925781 339.691406 C 912.664062 341.789062 911.367188 343.863281 910.023438 345.910156 C 908.683594 347.960938 907.300781 349.980469 905.875 351.972656 C 904.453125 353.964844 902.992188 355.925781 901.488281 357.859375 C 899.988281 359.792969 898.445312 361.695312 896.867188 363.570312 C 895.289062 365.441406 893.675781 367.28125 892.023438 369.085938 C 890.371094 370.894531 888.683594 372.664062 886.960938 374.40625 C 885.238281 376.144531 883.480469 377.847656 881.6875 379.515625 C 879.894531 381.183594 878.070312 382.816406 876.214844 384.410156 C 874.355469 386.007812 872.46875 387.5625 870.546875 389.082031 C 868.628906 390.601562 866.679688 392.082031 864.699219 393.523438 C 862.71875 394.964844 860.710938 396.363281 858.675781 397.726562 C 856.640625 399.085938 854.578125 400.40625 852.492188 401.683594 C 850.402344 402.960938 848.289062 404.195312 846.152344 405.386719 C 844.011719 406.578125 841.851562 407.730469 839.667969 408.835938 C 837.484375 409.941406 835.277344 411.003906 833.050781 412.019531 C 830.824219 413.035156 828.578125 414.007812 826.308594 414.9375 C 824.042969 415.863281 821.761719 416.742188 819.460938 417.578125 C 817.15625 418.414062 814.839844 419.203125 812.507812 419.945312 C 810.175781 420.6875 807.828125 421.382812 805.464844 422.03125 C 803.105469 422.679688 800.734375 423.277344 798.347656 423.832031 C 795.960938 424.382812 793.566406 424.890625 791.160156 425.34375 C 788.757812 425.800781 786.34375 426.210938 783.921875 426.570312 C 781.5 426.929688 779.070312 427.238281 776.636719 427.5 C 774.203125 427.761719 771.765625 427.976562 769.320312 428.140625 C 766.878906 428.304688 764.433594 428.417969 761.988281 428.484375 C 759.539062 428.550781 757.089844 428.566406 754.644531 428.535156 C 752.195312 428.503906 749.75 428.421875 747.304688 428.289062 C 744.859375 428.160156 742.417969 427.980469 739.980469 427.75 C 737.542969 427.523438 735.109375 427.242188 732.683594 426.917969 C 730.257812 426.589844 727.839844 426.214844 725.429688 425.792969 C 723.015625 425.367188 720.613281 424.898438 718.222656 424.375 C 716.8125 424.039062 715.386719 423.796875 713.945312 423.652344 C 712.503906 423.507812 711.058594 423.460938 709.609375 423.507812 C 708.164062 423.558594 706.722656 423.703125 705.296875 423.949219 C 703.867188 424.191406 702.460938 424.527344 701.078125 424.960938 C 699.695312 425.394531 698.347656 425.917969 697.035156 426.53125 C 695.722656 427.144531 694.457031 427.84375 693.238281 428.628906 C 692.019531 429.414062 690.859375 430.277344 689.757812 431.21875 C 688.65625 432.15625 687.621094 433.167969 686.65625 434.25 L 638.203125 486.320312 L 910.199219 742.429688 C 911.101562 743.277344 911.980469 744.148438 912.839844 745.039062 C 913.695312 745.933594 914.53125 746.847656 915.34375 747.78125 C 916.15625 748.714844 916.945312 749.667969 917.707031 750.644531 C 918.472656 751.617188 919.210938 752.609375 919.925781 753.621094 C 920.640625 754.628906 921.332031 755.660156 921.996094 756.703125 C 922.65625 757.75 923.292969 758.8125 923.90625 759.886719 C 924.515625 760.964844 925.097656 762.058594 925.652344 763.164062 C 926.207031 764.269531 926.734375 765.390625 927.234375 766.523438 C 927.734375 767.65625 928.207031 768.800781 928.648438 769.957031 C 929.089844 771.113281 929.503906 772.277344 929.886719 773.457031 C 930.269531 774.632812 930.625 775.820312 930.949219 777.011719 C 931.273438 778.207031 931.566406 779.410156 931.832031 780.621094 C 932.09375 781.828125 932.328125 783.042969 932.53125 784.265625 C 932.734375 785.488281 932.910156 786.710938 933.050781 787.941406 C 933.191406 789.171875 933.304688 790.40625 933.382812 791.640625 C 933.464844 792.875 933.511719 794.113281 933.53125 795.351562 C 933.550781 796.589844 933.539062 797.824219 933.492188 799.0625 C 933.449219 800.300781 933.375 801.535156 933.269531 802.769531 C 933.164062 804.003906 933.027344 805.234375 932.863281 806.460938 C 932.695312 807.6875 932.496094 808.90625 932.269531 810.125 C 932.042969 811.339844 931.78125 812.550781 931.496094 813.753906 C 931.207031 814.960938 930.886719 816.15625 930.539062 817.34375 C 930.191406 818.53125 929.8125 819.710938 929.402344 820.878906 C 928.996094 822.046875 928.558594 823.207031 928.09375 824.351562 C 927.628906 825.5 927.136719 826.632812 926.613281 827.757812 C 926.089844 828.878906 925.539062 829.988281 924.960938 831.082031 C 924.382812 832.179688 923.78125 833.257812 923.148438 834.320312 C 922.515625 835.386719 921.859375 836.433594 921.171875 837.464844 C 920.488281 838.5 919.78125 839.511719 919.042969 840.507812 C 918.308594 841.503906 917.550781 842.480469 916.765625 843.441406 C 915.980469 844.398438 915.175781 845.335938 914.34375 846.253906 C 913.511719 847.171875 912.660156 848.066406 911.78125 848.941406 L 866.414062 894.253906 C 864.71875 895.988281 862.941406 897.632812 861.082031 899.191406 C 859.222656 900.746094 857.289062 902.203125 855.28125 903.566406 C 853.273438 904.925781 851.203125 906.183594 849.070312 907.335938 C 846.933594 908.488281 844.75 909.53125 842.511719 910.460938 C 840.269531 911.394531 837.992188 912.210938 835.671875 912.914062 C 833.347656 913.617188 831 914.199219 828.617188 914.667969 C 826.238281 915.132812 823.839844 915.476562 821.425781 915.703125 C 819.011719 915.925781 816.589844 916.027344 814.167969 916.007812 C 813.660156 916.007812 813.15625 916.007812 812.644531 915.996094 C 810.15625 915.972656 807.671875 915.824219 805.199219 915.546875 C 802.726562 915.269531 800.273438 914.867188 797.839844 914.335938 C 795.40625 913.808594 793.007812 913.152344 790.644531 912.375 C 788.28125 911.597656 785.960938 910.703125 783.6875 909.6875 C 781.414062 908.671875 779.199219 907.542969 777.042969 906.296875 C 774.886719 905.054688 772.800781 903.703125 770.78125 902.246094 C 768.765625 900.785156 766.828125 899.230469 764.972656 897.570312 C 763.113281 895.914062 761.347656 894.164062 759.671875 892.324219 L 510.015625 624.078125 L 257.847656 895.09375 C 256.171875 896.933594 254.402344 898.679688 252.546875 900.335938 C 250.691406 901.996094 248.753906 903.550781 246.738281 905.007812 C 244.722656 906.464844 242.636719 907.816406 240.480469 909.058594 C 238.324219 910.300781 236.109375 911.429688 233.839844 912.445312 C 231.566406 913.460938 229.25 914.355469 226.882812 915.132812 C 224.519531 915.910156 222.121094 916.5625 219.691406 917.089844 C 217.261719 917.621094 214.808594 918.023438 212.335938 918.300781 C 209.863281 918.578125 207.382812 918.726562 204.894531 918.75 C 204.445312 918.75 203.992188 918.753906 203.542969 918.757812 C 201.109375 918.792969 198.675781 918.703125 196.25 918.488281 C 193.824219 918.273438 191.414062 917.9375 189.023438 917.480469 C 186.628906 917.019531 184.265625 916.441406 181.933594 915.742188 C 179.601562 915.042969 177.308594 914.226562 175.058594 913.292969 C 172.808594 912.359375 170.613281 911.316406 168.46875 910.160156 C 166.324219 909.003906 164.246094 907.742188 162.230469 906.371094 C 160.214844 905.003906 158.273438 903.535156 156.410156 901.972656 C 154.542969 900.40625 152.761719 898.75 151.0625 897.003906 L 105.753906 851.695312 C 103.984375 849.957031 102.304688 848.132812 100.71875 846.222656 C 99.136719 844.3125 97.652344 842.328125 96.269531 840.265625 C 94.890625 838.203125 93.617188 836.074219 92.453125 833.882812 C 91.292969 831.6875 90.242188 829.441406 89.3125 827.140625 C 88.378906 824.84375 87.566406 822.5 86.875 820.117188 C 86.179688 817.734375 85.613281 815.320312 85.167969 812.878906 C 84.722656 810.4375 84.402344 807.980469 84.207031 805.503906 C 84.015625 803.03125 83.949219 800.550781 84.011719 798.070312 C 84.011719 795.589844 84.144531 793.117188 84.402344 790.648438 C 84.664062 788.183594 85.050781 785.734375 85.5625 783.308594 C 86.074219 780.878906 86.710938 778.488281 87.472656 776.125 C 88.234375 773.765625 89.113281 771.449219 90.117188 769.179688 C 91.117188 766.910156 92.230469 764.695312 93.460938 762.542969 C 94.691406 760.386719 96.027344 758.304688 97.476562 756.285156 C 98.921875 754.269531 100.46875 752.335938 102.113281 750.480469 C 103.757812 748.625 105.496094 746.859375 107.328125 745.183594 L 382.039062 486.503906 L 287.746094 385.214844 L 279.097656 393.863281 C 276.777344 396.21875 274.25 398.324219 271.507812 400.175781 C 268.769531 402.03125 265.875 403.59375 262.820312 404.867188 C 259.769531 406.140625 256.621094 407.101562 253.378906 407.746094 C 250.136719 408.390625 246.859375 408.710938 243.554688 408.703125 C 235.222656 408.527344 227.152344 409.902344 219.347656 412.832031 L 230.335938 423.8125 C 230.953125 424.429688 231.503906 425.101562 231.988281 425.828125 C 232.476562 426.554688 232.882812 427.320312 233.21875 428.128906 C 233.550781 428.933594 233.804688 429.765625 233.976562 430.621094 C 234.144531 431.480469 234.230469 432.34375 234.230469 433.214844 C 234.230469 434.089844 234.144531 434.953125 233.976562 435.808594 C 233.804688 436.667969 233.550781 437.5 233.21875 438.304688 C 232.882812 439.113281 232.476562 439.878906 231.988281 440.605469 C 231.503906 441.328125 230.953125 442 230.335938 442.621094 L 187.390625 485.566406 C 186.21875 486.738281 184.988281 487.847656 183.703125 488.898438 C 182.421875 489.949219 181.089844 490.9375 179.707031 491.859375 C 178.328125 492.777344 176.90625 493.628906 175.441406 494.410156 C 173.980469 495.191406 172.480469 495.898438 170.949219 496.53125 C 169.414062 497.167969 167.855469 497.722656 166.265625 498.203125 C 164.679688 498.6875 163.070312 499.089844 161.445312 499.410156 C 159.816406 499.734375 158.175781 499.976562 156.527344 500.140625 C 154.875 500.300781 153.21875 500.382812 151.558594 500.382812 C 149.902344 500.382812 148.246094 500.300781 146.59375 500.140625 C 144.945312 499.976562 143.304688 499.734375 141.675781 499.410156 C 140.050781 499.089844 138.441406 498.6875 136.855469 498.203125 C 135.265625 497.722656 133.707031 497.167969 132.171875 496.53125 C 130.640625 495.898438 129.140625 495.191406 127.679688 494.410156 C 126.214844 493.628906 124.792969 492.777344 123.414062 491.855469 C 122.03125 490.9375 120.699219 489.949219 119.417969 488.898438 C 118.132812 487.847656 116.902344 486.738281 115.730469 485.566406 L 14.816406 384.648438 C 13.644531 383.472656 12.53125 382.242188 11.480469 380.960938 C 10.429688 379.675781 9.445312 378.34375 8.523438 376.960938 C 7.601562 375.582031 6.75 374.160156 5.96875 372.695312 C 5.191406 371.230469 4.480469 369.730469 3.847656 368.199219 C 3.214844 366.664062 2.65625 365.101562 2.175781 363.515625 C 1.695312 361.925781 1.292969 360.316406 0.96875 358.691406 C 0.648438 357.0625 0.40625 355.421875 0.242188 353.769531 C 0.0820312 352.117188 0 350.464844 0 348.804688 C 0 347.144531 0.0820312 345.488281 0.246094 343.835938 C 0.40625 342.1875 0.652344 340.546875 0.976562 338.917969 C 1.296875 337.289062 1.703125 335.683594 2.183594 334.09375 C 2.664062 332.507812 3.222656 330.945312 3.855469 329.414062 C 4.492188 327.878906 5.199219 326.378906 5.980469 324.917969 C 6.765625 323.453125 7.617188 322.03125 8.535156 320.648438 C 9.457031 319.269531 10.445312 317.9375 11.496094 316.652344 C 12.546875 315.371094 13.660156 314.140625 14.832031 312.96875 L 57.691406 270.050781 C 58.9375 268.800781 60.375 267.839844 62.003906 267.164062 C 63.632812 266.488281 65.328125 266.148438 67.089844 266.148438 C 68.855469 266.148438 70.554688 266.488281 72.183594 267.164062 C 73.8125 267.839844 75.25 268.800781 76.496094 270.050781 L 87.511719 281.050781 C 90.460938 273.242188 91.847656 265.164062 91.671875 256.816406 C 91.648438 253.515625 91.953125 250.242188 92.585938 247.003906 C 93.222656 243.761719 94.171875 240.617188 95.4375 237.570312 C 96.707031 234.523438 98.265625 231.628906 100.113281 228.894531 C 101.964844 226.160156 104.070312 223.636719 106.425781 221.328125 L 115.507812 212.246094 L 100.582031 197.320312 C 99.714844 196.449219 98.890625 195.539062 98.113281 194.589844 C 97.332031 193.640625 96.601562 192.652344 95.921875 191.628906 C 95.238281 190.605469 94.609375 189.554688 94.03125 188.46875 C 93.453125 187.386719 92.929688 186.273438 92.460938 185.140625 C 91.988281 184.003906 91.578125 182.847656 91.222656 181.671875 C 90.867188 180.496094 90.566406 179.304688 90.328125 178.097656 C 90.089844 176.890625 89.910156 175.675781 89.789062 174.453125 C 89.671875 173.230469 89.613281 172.003906 89.613281 170.777344 C 89.613281 169.546875 89.675781 168.320312 89.792969 167.097656 C 89.914062 165.875 90.097656 164.660156 90.335938 163.457031 C 90.578125 162.25 90.875 161.058594 91.234375 159.882812 C 91.589844 158.707031 92.003906 157.550781 92.476562 156.417969 C 92.945312 155.28125 93.46875 154.171875 94.050781 153.085938 C 94.628906 152.003906 95.261719 150.949219 95.945312 149.929688 C 96.625 148.90625 97.359375 147.921875 98.136719 146.972656 C 98.917969 146.019531 99.742188 145.113281 100.609375 144.242188 L 164.753906 80.03125 C 165.621094 79.167969 166.535156 78.347656 167.484375 77.574219 C 168.4375 76.796875 169.421875 76.070312 170.445312 75.390625 C 171.464844 74.714844 172.519531 74.085938 173.601562 73.511719 C 174.683594 72.933594 175.792969 72.414062 176.925781 71.945312 C 178.0625 71.476562 179.214844 71.066406 180.390625 70.710938 C 181.5625 70.355469 182.753906 70.058594 183.957031 69.820312 C 185.160156 69.582031 186.371094 69.402344 187.59375 69.28125 C 188.8125 69.164062 190.039062 69.101562 191.265625 69.101562 C 192.492188 69.101562 193.714844 69.160156 194.933594 69.277344 C 196.15625 69.398438 197.367188 69.574219 198.570312 69.8125 C 199.777344 70.046875 200.964844 70.34375 202.140625 70.695312 C 203.316406 71.050781 204.46875 71.460938 205.605469 71.925781 C 206.738281 72.390625 207.847656 72.914062 208.933594 73.488281 C 210.015625 74.0625 211.070312 74.6875 212.09375 75.363281 C 213.113281 76.042969 214.101562 76.765625 215.054688 77.539062 C 216.007812 78.3125 216.917969 79.132812 217.789062 79.996094 L 232.75 94.988281 L 268.21875 59.523438 C 269.734375 58.011719 271.285156 56.535156 272.875 55.097656 C 274.464844 53.660156 276.085938 52.265625 277.746094 50.90625 C 279.402344 49.550781 281.09375 48.234375 282.816406 46.957031 C 284.535156 45.683594 286.289062 44.453125 288.070312 43.261719 C 289.855469 42.074219 291.664062 40.929688 293.503906 39.828125 C 295.34375 38.730469 297.207031 37.675781 299.097656 36.667969 C 300.988281 35.65625 302.902344 34.695312 304.839844 33.78125 C 306.777344 32.867188 308.734375 32 310.714844 31.179688 C 312.695312 30.363281 314.691406 29.59375 316.710938 28.871094 C 318.726562 28.152344 320.761719 27.480469 322.8125 26.859375 C 324.863281 26.238281 326.929688 25.667969 329.007812 25.148438 C 331.085938 24.628906 333.175781 24.160156 335.277344 23.742188 C 337.378906 23.324219 339.488281 22.957031 341.609375 22.644531 C 343.726562 22.332031 345.851562 22.070312 347.984375 21.859375 C 350.117188 21.648438 352.253906 21.492188 354.394531 21.386719 C 356.535156 21.28125 358.675781 21.230469 360.816406 21.230469 C 362.960938 21.230469 365.101562 21.28125 367.242188 21.386719 C 369.382812 21.492188 371.515625 21.648438 373.648438 21.859375 C 375.78125 22.070312 377.90625 22.332031 380.027344 22.644531 C 382.148438 22.957031 384.257812 23.324219 386.359375 23.742188 C 388.460938 24.160156 390.550781 24.628906 392.628906 25.148438 C 394.707031 25.667969 396.773438 26.238281 398.824219 26.859375 C 400.871094 27.480469 402.90625 28.152344 404.925781 28.871094 C 406.941406 29.59375 408.941406 30.363281 410.921875 31.179688 C 412.902344 32 414.859375 32.867188 416.796875 33.78125 C 418.734375 34.695312 420.648438 35.65625 422.539062 36.667969 C 424.429688 37.675781 426.292969 38.730469 428.132812 39.828125 C 429.96875 40.929688 431.78125 42.074219 433.5625 43.261719 C 435.347656 44.453125 437.097656 45.683594 438.820312 46.957031 C 440.542969 48.234375 442.230469 49.550781 443.890625 50.90625 C 445.546875 52.265625 447.171875 53.660156 448.757812 55.097656 C 450.347656 56.535156 451.902344 58.011719 453.417969 59.523438 L 457.898438 64.058594 C 459.019531 65.1875 460.054688 66.390625 460.996094 67.667969 C 461.941406 68.949219 462.785156 70.292969 463.527344 71.699219 C 464.269531 73.101562 464.902344 74.554688 465.429688 76.054688 C 465.957031 77.558594 466.367188 79.089844 466.664062 80.648438 C 466.960938 82.210938 467.140625 83.785156 467.203125 85.375 C 467.265625 86.964844 467.210938 88.546875 467.035156 90.128906 C 466.863281 91.710938 466.570312 93.269531 466.164062 94.804688 C 465.757812 96.34375 465.238281 97.839844 464.609375 99.300781 C 463.980469 100.757812 463.242188 102.164062 462.402344 103.515625 C 461.5625 104.863281 460.628906 106.144531 459.597656 107.355469 C 458.566406 108.566406 457.453125 109.691406 456.253906 110.734375 C 455.054688 111.78125 453.78125 112.730469 452.441406 113.582031 C 451.101562 114.4375 449.703125 115.1875 448.25 115.832031 C 446.800781 116.480469 445.304688 117.015625 443.773438 117.4375 C 442.242188 117.859375 440.6875 118.167969 439.105469 118.359375 C 437.527344 118.550781 435.945312 118.621094 434.355469 118.578125 C 428.925781 118.402344 423.515625 118.652344 418.128906 119.328125 C 412.738281 120 407.433594 121.09375 402.214844 122.601562 C 396.996094 124.113281 391.929688 126.019531 387.011719 128.328125 C 382.09375 130.632812 377.386719 133.308594 372.890625 136.355469 C 372.183594 136.769531 371.621094 137.320312 371.203125 138.019531 C 370.78125 138.71875 370.554688 139.476562 370.519531 140.289062 C 370.414062 141.105469 370.503906 141.902344 370.785156 142.679688 C 371.066406 143.453125 371.511719 144.121094 372.117188 144.679688 L 414.367188 186.925781 C 415.539062 188.101562 416.648438 189.328125 417.703125 190.613281 C 418.753906 191.898438 419.738281 193.230469 420.660156 194.609375 C 421.578125 195.988281 422.429688 197.410156 423.210938 198.875 C 423.992188 200.339844 424.699219 201.835938 425.332031 203.371094 C 425.96875 204.902344 426.523438 206.464844 427.007812 208.050781 C 427.488281 209.640625 427.890625 211.246094 428.210938 212.875 C 428.535156 214.5 428.777344 216.140625 428.941406 217.792969 C 429.101562 219.441406 429.183594 221.097656 429.183594 222.757812 C 429.183594 224.414062 429.101562 226.070312 428.941406 227.722656 C 428.777344 229.375 428.535156 231.011719 428.210938 232.640625 C 427.890625 234.265625 427.488281 235.875 427.007812 237.460938 C 426.523438 239.050781 425.96875 240.609375 425.332031 242.144531 C 424.699219 243.675781 423.992188 245.175781 423.210938 246.640625 C 422.429688 248.101562 421.578125 249.523438 420.660156 250.90625 C 419.738281 252.285156 418.753906 253.617188 417.703125 254.902344 C 416.648438 256.183594 415.539062 257.414062 414.367188 258.585938 L 405.660156 267.296875 L 510.226562 365.792969 L 567.75 311.621094 C 568.792969 310.671875 569.769531 309.660156 570.683594 308.582031 C 571.59375 307.503906 572.429688 306.375 573.195312 305.1875 C 573.957031 304 574.640625 302.769531 575.242188 301.492188 C 575.847656 300.21875 576.363281 298.910156 576.792969 297.566406 C 577.226562 296.222656 577.566406 294.855469 577.820312 293.46875 C 578.074219 292.082031 578.234375 290.683594 578.304688 289.273438 C 578.375 287.863281 578.355469 286.457031 578.238281 285.050781 C 578.125 283.644531 577.921875 282.25 577.625 280.871094 C 576.90625 277.210938 576.300781 273.53125 575.808594 269.832031 C 575.316406 266.132812 574.933594 262.425781 574.667969 258.703125 C 574.402344 254.980469 574.25 251.257812 574.210938 247.527344 C 574.175781 243.796875 574.25 240.066406 574.441406 236.339844 C 574.632812 232.613281 574.933594 228.898438 575.351562 225.191406 C 575.769531 221.484375 576.300781 217.792969 576.945312 214.117188 C 577.589844 210.441406 578.34375 206.792969 579.210938 203.164062 C 580.078125 199.535156 581.058594 195.9375 582.144531 192.367188 C 583.234375 188.796875 584.429688 185.265625 585.734375 181.769531 C 587.035156 178.273438 588.445312 174.824219 589.960938 171.414062 C 591.476562 168.003906 593.09375 164.644531 594.816406 161.335938 C 596.539062 158.023438 598.359375 154.769531 600.277344 151.570312 C 602.199219 148.375 604.214844 145.238281 606.328125 142.160156 C 608.441406 139.085938 610.644531 136.078125 612.941406 133.136719 C 615.238281 130.199219 617.621094 127.332031 620.09375 124.535156 C 622.566406 121.742188 625.121094 119.027344 627.761719 116.390625 C 630.578125 113.636719 632.863281 111.476562 635.085938 109.460938 C 636.519531 108.167969 638.09375 107.078125 639.808594 106.1875 C 641.523438 105.296875 643.320312 104.636719 645.203125 104.203125 C 647.085938 103.773438 648.992188 103.585938 650.921875 103.640625 C 652.851562 103.699219 654.746094 103.996094 656.601562 104.535156 L 656.789062 104.597656 C 658.640625 105.152344 660.390625 105.933594 662.039062 106.9375 C 663.6875 107.945312 665.183594 109.140625 666.527344 110.53125 C 667.867188 111.921875 669.011719 113.457031 669.960938 115.140625 C 670.910156 116.824219 671.628906 118.597656 672.121094 120.464844 L 694.351562 203.398438 L 749.703125 218.222656 L 790.238281 177.6875 L 768.019531 94.703125 C 767.511719 92.84375 767.246094 90.949219 767.226562 89.023438 C 767.207031 87.097656 767.429688 85.199219 767.894531 83.328125 C 768.359375 81.460938 769.054688 79.679688 769.980469 77.988281 C 770.902344 76.296875 772.023438 74.75 773.34375 73.347656 C 773.414062 73.273438 773.484375 73.199219 773.554688 73.125 C 774.890625 71.742188 776.378906 70.550781 778.019531 69.546875 C 779.660156 68.546875 781.398438 67.761719 783.238281 67.203125 C 785.074219 66.640625 786.957031 66.320312 788.875 66.238281 C 790.796875 66.15625 792.695312 66.316406 794.578125 66.714844 C 803.230469 68.515625 811.707031 70.929688 820.003906 73.964844 C 828.304688 76.996094 836.34375 80.617188 844.113281 84.824219 C 851.886719 89.027344 859.3125 93.773438 866.394531 99.0625 C 873.476562 104.351562 880.136719 110.121094 886.375 116.382812 Z M 116.195312 170.757812 C 116.1875 172.214844 116.457031 173.613281 117.007812 174.957031 C 117.5625 176.304688 118.351562 177.488281 119.378906 178.515625 L 134.304688 193.441406 L 213.949219 113.796875 L 198.996094 98.828125 C 198.484375 98.328125 197.929688 97.878906 197.332031 97.484375 C 196.734375 97.09375 196.101562 96.757812 195.4375 96.488281 C 194.773438 96.21875 194.089844 96.015625 193.386719 95.878906 C 192.683594 95.742188 191.972656 95.671875 191.257812 95.675781 C 190.539062 95.675781 189.832031 95.746094 189.128906 95.886719 C 188.425781 96.027344 187.742188 96.234375 187.082031 96.507812 C 186.417969 96.78125 185.789062 97.117188 185.191406 97.515625 C 184.59375 97.910156 184.042969 98.359375 183.53125 98.867188 L 119.382812 163.066406 C 118.359375 164.082031 117.570312 165.257812 117.015625 166.589844 C 116.464844 167.925781 116.191406 169.316406 116.195312 170.757812 Z M 202.125 433.230469 L 128.226562 359.351562 L 79.382812 310.539062 C 79.359375 310.515625 79.339844 310.492188 79.320312 310.46875 L 67.105469 298.257812 L 33.621094 331.78125 C 33.066406 332.339844 32.539062 332.925781 32.039062 333.535156 C 31.542969 334.144531 31.074219 334.78125 30.636719 335.433594 C 30.199219 336.089844 29.796875 336.765625 29.425781 337.464844 C 29.054688 338.160156 28.722656 338.871094 28.421875 339.597656 C 28.121094 340.328125 27.855469 341.070312 27.628906 341.824219 C 27.398438 342.578125 27.207031 343.339844 27.054688 344.113281 C 26.902344 344.886719 26.785156 345.667969 26.710938 346.449219 C 26.632812 347.234375 26.59375 348.019531 26.59375 348.808594 C 26.59375 349.597656 26.632812 350.382812 26.710938 351.167969 C 26.785156 351.953125 26.902344 352.730469 27.054688 353.503906 C 27.207031 354.277344 27.398438 355.039062 27.628906 355.796875 C 27.855469 356.550781 28.121094 357.292969 28.421875 358.019531 C 28.722656 358.746094 29.054688 359.460938 29.425781 360.15625 C 29.796875 360.851562 30.199219 361.527344 30.636719 362.183594 C 31.074219 362.839844 31.542969 363.472656 32.039062 364.082031 C 32.539062 364.691406 33.066406 365.277344 33.621094 365.835938 L 134.539062 466.761719 C 135.09375 467.320312 135.679688 467.847656 136.289062 468.347656 C 136.898438 468.847656 137.53125 469.316406 138.1875 469.753906 C 138.84375 470.191406 139.519531 470.59375 140.214844 470.964844 C 140.910156 471.335938 141.625 471.671875 142.351562 471.972656 C 143.082031 472.277344 143.820312 472.539062 144.578125 472.769531 C 145.332031 472.996094 146.09375 473.1875 146.867188 473.34375 C 147.640625 473.496094 148.421875 473.613281 149.203125 473.6875 C 149.988281 473.765625 150.777344 473.804688 151.5625 473.804688 C 152.351562 473.804688 153.140625 473.765625 153.921875 473.6875 C 154.707031 473.613281 155.488281 473.496094 156.261719 473.34375 C 157.035156 473.1875 157.796875 472.996094 158.550781 472.769531 C 159.308594 472.539062 160.046875 472.277344 160.777344 471.972656 C 161.503906 471.671875 162.21875 471.335938 162.914062 470.964844 C 163.609375 470.59375 164.285156 470.191406 164.941406 469.753906 C 165.597656 469.316406 166.230469 468.847656 166.839844 468.347656 C 167.449219 467.847656 168.03125 467.320312 168.589844 466.761719 Z M 395.5625 239.800781 C 396.117188 239.242188 396.644531 238.65625 397.144531 238.046875 C 397.644531 237.4375 398.109375 236.804688 398.546875 236.148438 C 398.984375 235.492188 399.386719 234.816406 399.757812 234.121094 C 400.128906 233.425781 400.464844 232.710938 400.765625 231.984375 C 401.066406 231.253906 401.332031 230.515625 401.558594 229.761719 C 401.785156 229.003906 401.976562 228.242188 402.128906 227.46875 C 402.285156 226.695312 402.398438 225.917969 402.476562 225.132812 C 402.554688 224.347656 402.589844 223.5625 402.589844 222.773438 C 402.589844 221.984375 402.554688 221.199219 402.476562 220.414062 C 402.398438 219.632812 402.285156 218.851562 402.128906 218.078125 C 401.976562 217.304688 401.785156 216.542969 401.558594 215.789062 C 401.332031 215.035156 401.066406 214.292969 400.765625 213.5625 C 400.464844 212.835938 400.128906 212.125 399.757812 211.425781 C 399.386719 210.730469 398.984375 210.054688 398.546875 209.398438 C 398.109375 208.742188 397.644531 208.109375 397.144531 207.5 C 396.644531 206.890625 396.117188 206.304688 395.5625 205.746094 L 353.285156 163.449219 L 353.222656 163.386719 C 352.394531 162.554688 351.613281 161.679688 350.882812 160.761719 C 350.148438 159.84375 349.46875 158.886719 348.84375 157.894531 C 348.214844 156.902344 347.644531 155.878906 347.132812 154.824219 C 346.617188 153.769531 346.164062 152.6875 345.769531 151.582031 C 345.375 150.476562 345.039062 149.355469 344.769531 148.210938 C 344.5 147.070312 344.292969 145.914062 344.148438 144.75 C 344.003906 143.585938 343.925781 142.417969 343.910156 141.242188 C 343.894531 140.070312 343.941406 138.898438 344.058594 137.730469 C 344.171875 136.5625 344.347656 135.402344 344.589844 134.253906 C 344.832031 133.105469 345.136719 131.972656 345.5 130.859375 C 345.867188 129.742188 346.292969 128.652344 346.78125 127.582031 C 347.269531 126.515625 347.8125 125.476562 348.414062 124.46875 C 349.011719 123.460938 349.667969 122.488281 350.375 121.550781 C 351.085938 120.613281 351.839844 119.71875 352.648438 118.867188 C 353.453125 118.015625 354.304688 117.207031 355.203125 116.449219 C 356.097656 115.691406 357.03125 114.984375 358.003906 114.328125 C 363.644531 110.5 369.550781 107.136719 375.722656 104.242188 C 381.894531 101.34375 388.25 98.949219 394.800781 97.050781 C 401.347656 95.15625 408.003906 93.785156 414.765625 92.9375 C 421.53125 92.089844 428.320312 91.773438 435.132812 91.996094 C 435.667969 92.007812 436.195312 91.945312 436.710938 91.800781 C 437.230469 91.65625 437.714844 91.4375 438.167969 91.148438 C 438.617188 90.859375 439.019531 90.511719 439.367188 90.101562 C 439.714844 89.691406 439.992188 89.238281 440.203125 88.746094 C 440.417969 88.253906 440.550781 87.738281 440.609375 87.207031 C 440.667969 86.671875 440.644531 86.140625 440.542969 85.613281 C 440.441406 85.085938 440.265625 84.585938 440.011719 84.113281 C 439.761719 83.636719 439.445312 83.210938 439.066406 82.832031 L 434.566406 78.265625 C 433.355469 77.0625 432.117188 75.886719 430.851562 74.742188 C 429.585938 73.597656 428.292969 72.488281 426.96875 71.40625 C 425.648438 70.324219 424.300781 69.277344 422.929688 68.261719 C 421.558594 67.25 420.160156 66.269531 418.742188 65.320312 C 417.320312 64.375 415.878906 63.464844 414.414062 62.589844 C 412.949219 61.714844 411.460938 60.875 409.957031 60.070312 C 408.449219 59.269531 406.925781 58.503906 405.382812 57.777344 C 403.835938 57.046875 402.277344 56.359375 400.699219 55.707031 C 399.121094 55.054688 397.527344 54.445312 395.921875 53.871094 C 394.3125 53.296875 392.691406 52.761719 391.058594 52.269531 C 389.425781 51.773438 387.78125 51.320312 386.125 50.90625 C 384.46875 50.496094 382.804688 50.121094 381.128906 49.789062 C 379.457031 49.457031 377.773438 49.167969 376.085938 48.917969 C 374.398438 48.667969 372.703125 48.460938 371.003906 48.296875 C 369.308594 48.128906 367.605469 48.003906 365.902344 47.921875 C 364.195312 47.839844 362.492188 47.796875 360.785156 47.796875 C 359.078125 47.800781 357.371094 47.839844 355.667969 47.925781 C 353.960938 48.011719 352.261719 48.136719 350.5625 48.304688 C 348.863281 48.472656 347.171875 48.679688 345.480469 48.929688 C 343.792969 49.183594 342.113281 49.472656 340.4375 49.808594 C 338.765625 50.140625 337.101562 50.515625 335.445312 50.929688 C 333.789062 51.34375 332.144531 51.796875 330.511719 52.292969 C 328.878906 52.789062 327.257812 53.324219 325.652344 53.898438 C 324.042969 54.472656 322.453125 55.085938 320.875 55.738281 C 319.296875 56.390625 317.738281 57.082031 316.195312 57.8125 C 314.652344 58.542969 313.125 59.308594 311.621094 60.113281 C 310.117188 60.914062 308.628906 61.753906 307.167969 62.632812 C 305.703125 63.507812 304.257812 64.421875 302.839844 65.367188 C 301.421875 66.316406 300.023438 67.296875 298.652344 68.3125 C 297.28125 69.328125 295.9375 70.378906 294.617188 71.457031 C 293.296875 72.539062 292.003906 73.652344 290.738281 74.796875 C 289.472656 75.945312 288.234375 77.121094 287.027344 78.324219 L 143.707031 221.644531 L 125.253906 240.101562 C 124.121094 241.1875 123.109375 242.382812 122.222656 243.683594 C 121.335938 244.980469 120.589844 246.355469 119.988281 247.808594 C 119.386719 249.261719 118.9375 250.761719 118.644531 252.304688 C 118.351562 253.851562 118.222656 255.410156 118.25 256.980469 C 118.128906 274.738281 114.230469 289.703125 107.058594 300.609375 L 153.335938 346.859375 L 199.71875 393.21875 C 212.9375 384.445312 229.953125 382.214844 243.382812 382.125 C 244.960938 382.152344 246.523438 382.023438 248.074219 381.726562 C 249.621094 381.433594 251.125 380.980469 252.578125 380.375 C 254.035156 379.765625 255.410156 379.015625 256.710938 378.121094 C 258.007812 377.226562 259.199219 376.210938 260.289062 375.066406 Z M 401.390625 468.285156 L 490.832031 384.058594 L 386.851562 286.113281 L 306.554688 366.40625 Z M 620.089844 505.792969 L 528.175781 604.566406 L 779.15625 874.226562 C 780.238281 875.394531 781.378906 876.507812 782.574219 877.558594 C 783.773438 878.613281 785.015625 879.605469 786.3125 880.53125 C 787.609375 881.460938 788.949219 882.320312 790.332031 883.113281 C 791.710938 883.90625 793.132812 884.628906 794.585938 885.28125 C 796.039062 885.929688 797.523438 886.507812 799.039062 887.007812 C 800.550781 887.507812 802.085938 887.933594 803.640625 888.277344 C 805.195312 888.625 806.765625 888.894531 808.347656 889.082031 C 809.929688 889.269531 811.519531 889.378906 813.113281 889.410156 C 814.703125 889.4375 816.296875 889.386719 817.882812 889.253906 C 819.472656 889.125 821.050781 888.914062 822.617188 888.625 C 824.183594 888.332031 825.734375 887.964844 827.261719 887.519531 C 828.792969 887.074219 830.296875 886.550781 831.773438 885.953125 C 833.253906 885.359375 834.695312 884.6875 836.105469 883.945312 C 837.515625 883.203125 838.886719 882.390625 840.214844 881.511719 C 841.542969 880.628906 842.824219 879.6875 844.058594 878.675781 C 845.289062 877.667969 846.46875 876.597656 847.597656 875.46875 L 892.984375 830.136719 C 894.109375 829.011719 895.175781 827.832031 896.183594 826.601562 C 897.191406 825.371094 898.132812 824.09375 899.011719 822.765625 C 899.890625 821.441406 900.703125 820.074219 901.445312 818.667969 C 902.1875 817.261719 902.859375 815.820312 903.457031 814.347656 C 904.054688 812.875 904.574219 811.371094 905.023438 809.847656 C 905.472656 808.320312 905.839844 806.773438 906.132812 805.210938 C 906.425781 803.648438 906.640625 802.074219 906.773438 800.488281 C 906.910156 798.90625 906.964844 797.316406 906.941406 795.726562 C 906.914062 794.136719 906.8125 792.550781 906.628906 790.96875 C 906.445312 789.390625 906.183594 787.824219 905.84375 786.269531 C 905.503906 784.714844 905.085938 783.183594 904.59375 781.671875 C 904.097656 780.160156 903.53125 778.675781 902.886719 777.21875 C 902.246094 775.765625 901.53125 774.347656 900.746094 772.964844 C 899.960938 771.578125 899.109375 770.238281 898.191406 768.941406 C 897.269531 767.644531 896.289062 766.394531 895.242188 765.195312 C 894.199219 763.996094 893.097656 762.851562 891.9375 761.761719 Z M 867.570312 135.195312 C 862.621094 130.226562 857.359375 125.617188 851.785156 121.363281 C 846.210938 117.109375 840.375 113.25 834.28125 109.785156 C 828.183594 106.320312 821.882812 103.28125 815.375 100.667969 C 808.867188 98.054688 802.214844 95.894531 795.414062 94.183594 L 816.53125 172.992188 C 816.796875 173.945312 816.996094 174.917969 817.132812 175.898438 C 817.269531 176.882812 817.339844 177.871094 817.34375 178.863281 C 817.347656 179.855469 817.285156 180.84375 817.15625 181.828125 C 817.03125 182.8125 816.835938 183.785156 816.582031 184.742188 C 816.324219 185.703125 816.003906 186.640625 815.621094 187.554688 C 815.242188 188.472656 814.800781 189.359375 814.300781 190.214844 C 813.800781 191.074219 813.246094 191.894531 812.636719 192.675781 C 812.027344 193.460938 811.367188 194.199219 810.660156 194.894531 L 766.917969 238.636719 C 765.523438 240.042969 763.972656 241.246094 762.257812 242.242188 C 760.546875 243.242188 758.734375 243.996094 756.820312 244.515625 C 754.90625 245.03125 752.960938 245.292969 750.976562 245.292969 C 748.996094 245.292969 747.046875 245.039062 745.132812 244.523438 L 685.253906 228.488281 C 684.289062 228.230469 683.351562 227.914062 682.429688 227.535156 C 681.511719 227.15625 680.621094 226.714844 679.757812 226.21875 C 678.894531 225.71875 678.070312 225.164062 677.285156 224.558594 C 676.496094 223.949219 675.75 223.292969 675.050781 222.585938 C 674.347656 221.878906 673.699219 221.128906 673.097656 220.335938 C 672.496094 219.542969 671.949219 218.710938 671.460938 217.847656 C 670.96875 216.980469 670.539062 216.085938 670.164062 215.164062 C 669.792969 214.238281 669.484375 213.296875 669.238281 212.332031 L 648.136719 133.667969 C 647.59375 134.1875 647.035156 134.730469 646.453125 135.300781 C 644.203125 137.554688 642.023438 139.875 639.914062 142.261719 C 637.804688 144.648438 635.769531 147.097656 633.8125 149.609375 C 631.851562 152.121094 629.972656 154.691406 628.171875 157.320312 C 626.367188 159.945312 624.648438 162.625 623.011719 165.359375 C 621.375 168.089844 619.820312 170.871094 618.351562 173.695312 C 616.886719 176.523438 615.507812 179.394531 614.214844 182.304688 C 612.921875 185.214844 611.71875 188.164062 610.609375 191.148438 C 609.496094 194.136719 608.476562 197.152344 607.550781 200.199219 C 606.625 203.246094 605.789062 206.320312 605.050781 209.417969 C 604.3125 212.515625 603.667969 215.636719 603.121094 218.773438 C 602.570312 221.910156 602.121094 225.0625 601.765625 228.226562 C 601.410156 231.394531 601.152344 234.566406 600.988281 237.75 C 600.828125 240.929688 600.765625 244.113281 600.796875 247.296875 C 600.832031 250.484375 600.964844 253.664062 601.191406 256.84375 C 601.417969 260.019531 601.746094 263.1875 602.167969 266.34375 C 602.589844 269.5 603.105469 272.644531 603.722656 275.769531 C 604.234375 278.246094 604.585938 280.746094 604.773438 283.269531 C 604.964844 285.792969 604.992188 288.316406 604.855469 290.84375 C 604.722656 293.371094 604.425781 295.878906 603.964844 298.367188 C 603.507812 300.855469 602.890625 303.304688 602.117188 305.710938 C 601.34375 308.121094 600.417969 310.46875 599.339844 312.761719 C 598.265625 315.050781 597.046875 317.261719 595.683594 319.394531 C 594.324219 321.527344 592.828125 323.5625 591.207031 325.503906 C 589.582031 327.441406 587.839844 329.269531 585.980469 330.988281 L 125.5625 764.539062 C 124.402344 765.628906 123.304688 766.773438 122.261719 767.976562 C 121.21875 769.175781 120.238281 770.425781 119.320312 771.722656 C 118.402344 773.019531 117.550781 774.363281 116.769531 775.746094 C 115.984375 777.128906 115.273438 778.546875 114.632812 780.003906 C 113.988281 781.457031 113.421875 782.941406 112.929688 784.453125 C 112.4375 785.964844 112.023438 787.496094 111.683594 789.050781 C 111.34375 790.601562 111.082031 792.167969 110.902344 793.75 C 110.71875 795.328125 110.617188 796.914062 110.59375 798.503906 C 110.570312 800.09375 110.625 801.679688 110.761719 803.261719 C 110.898438 804.847656 111.109375 806.421875 111.40625 807.984375 C 111.699219 809.546875 112.066406 811.089844 112.515625 812.617188 C 112.964844 814.140625 113.488281 815.640625 114.085938 817.113281 C 114.683594 818.585938 115.351562 820.027344 116.09375 821.433594 C 116.839844 822.839844 117.648438 824.203125 118.527344 825.527344 C 119.40625 826.851562 120.351562 828.128906 121.355469 829.359375 C 122.363281 830.589844 123.429688 831.769531 124.554688 832.890625 L 169.863281 878.199219 C 170.988281 879.328125 172.167969 880.398438 173.402344 881.410156 C 174.636719 882.417969 175.917969 883.367188 177.246094 884.246094 C 178.578125 885.128906 179.945312 885.941406 181.359375 886.683594 C 182.769531 887.425781 184.214844 888.097656 185.691406 888.695312 C 187.171875 889.296875 188.675781 889.816406 190.207031 890.265625 C 191.738281 890.710938 193.285156 891.082031 194.855469 891.371094 C 196.421875 891.660156 198 891.875 199.589844 892.003906 C 201.179688 892.136719 202.773438 892.191406 204.367188 892.160156 C 205.960938 892.132812 207.550781 892.027344 209.132812 891.839844 C 210.71875 891.652344 212.289062 891.382812 213.84375 891.039062 C 215.402344 890.691406 216.9375 890.269531 218.453125 889.769531 C 219.964844 889.269531 221.453125 888.691406 222.910156 888.042969 C 224.363281 887.394531 225.785156 886.671875 227.167969 885.878906 C 228.554688 885.085938 229.894531 884.226562 231.191406 883.300781 C 232.488281 882.371094 233.734375 881.382812 234.933594 880.328125 C 236.132812 879.277344 237.273438 878.164062 238.359375 876.996094 L 667.1875 416.136719 C 668.933594 414.210938 670.800781 412.410156 672.785156 410.730469 C 674.773438 409.054688 676.859375 407.515625 679.050781 406.117188 C 681.242188 404.71875 683.511719 403.46875 685.871094 402.371094 C 688.226562 401.273438 690.644531 400.335938 693.125 399.558594 C 695.605469 398.785156 698.125 398.175781 700.6875 397.734375 C 703.25 397.292969 705.828125 397.023438 708.425781 396.925781 C 711.023438 396.828125 713.613281 396.898438 716.203125 397.144531 C 718.789062 397.390625 721.351562 397.808594 723.882812 398.394531 C 725.925781 398.839844 727.980469 399.242188 730.039062 399.605469 C 732.101562 399.964844 734.167969 400.285156 736.242188 400.566406 C 738.316406 400.84375 740.394531 401.082031 742.476562 401.277344 C 744.558594 401.472656 746.644531 401.625 748.734375 401.738281 C 750.824219 401.847656 752.914062 401.917969 755.007812 401.945312 C 757.097656 401.972656 759.191406 401.957031 761.28125 401.902344 C 763.375 401.84375 765.460938 401.746094 767.550781 401.605469 C 769.636719 401.464844 771.722656 401.285156 773.800781 401.058594 C 775.882812 400.835938 777.957031 400.570312 780.027344 400.261719 C 782.097656 399.957031 784.160156 399.605469 786.214844 399.214844 C 788.269531 398.828125 790.316406 398.394531 792.355469 397.921875 C 794.394531 397.449219 796.421875 396.9375 798.4375 396.382812 C 800.457031 395.828125 802.460938 395.234375 804.457031 394.601562 C 806.449219 393.964844 808.429688 393.292969 810.394531 392.578125 C 812.363281 391.863281 814.3125 391.109375 816.25 390.320312 C 818.1875 389.527344 820.105469 388.695312 822.007812 387.824219 C 823.914062 386.957031 825.796875 386.050781 827.664062 385.105469 C 829.53125 384.160156 831.375 383.175781 833.203125 382.15625 C 835.03125 381.136719 836.835938 380.082031 838.621094 378.992188 C 840.40625 377.898438 842.167969 376.769531 843.90625 375.609375 C 845.648438 374.445312 847.363281 373.25 849.054688 372.015625 C 850.746094 370.785156 852.410156 369.519531 854.050781 368.222656 C 855.691406 366.925781 857.304688 365.59375 858.894531 364.230469 C 860.480469 362.867188 862.039062 361.472656 863.570312 360.046875 C 865.101562 358.621094 866.605469 357.164062 868.078125 355.679688 C 869.550781 354.191406 870.992188 352.675781 872.402344 351.132812 C 873.816406 349.589844 875.195312 348.015625 876.542969 346.417969 C 877.890625 344.816406 879.207031 343.191406 880.492188 341.539062 C 881.773438 339.886719 883.023438 338.210938 884.242188 336.507812 C 885.457031 334.804688 886.636719 333.078125 887.785156 331.328125 C 888.929688 329.578125 890.042969 327.804688 891.117188 326.011719 C 892.191406 324.214844 893.230469 322.398438 894.234375 320.5625 C 895.238281 318.726562 896.203125 316.871094 897.128906 314.996094 C 898.058594 313.121094 898.949219 311.226562 899.800781 309.316406 C 900.652344 307.40625 901.464844 305.480469 902.238281 303.535156 C 903.015625 301.59375 903.75 299.632812 904.445312 297.660156 C 905.140625 295.6875 905.796875 293.699219 906.414062 291.703125 C 907.027344 289.703125 907.605469 287.691406 908.140625 285.667969 C 908.675781 283.644531 909.167969 281.613281 909.625 279.570312 C 910.078125 277.527344 910.488281 275.476562 910.859375 273.417969 C 911.230469 271.359375 911.5625 269.292969 911.851562 267.222656 C 912.140625 265.148438 912.386719 263.074219 912.589844 260.988281 C 912.796875 258.90625 912.957031 256.824219 913.078125 254.734375 C 913.199219 252.644531 913.28125 250.554688 913.316406 248.464844 C 913.355469 246.371094 913.347656 244.277344 913.300781 242.1875 C 913.253906 240.097656 913.167969 238.007812 913.035156 235.917969 C 912.90625 233.828125 912.734375 231.746094 912.519531 229.664062 C 912.304688 227.582031 912.046875 225.507812 911.75 223.4375 C 911.453125 221.363281 911.113281 219.300781 910.730469 217.242188 C 910.351562 215.1875 909.929688 213.136719 909.464844 211.097656 C 909.003906 209.054688 908.5 207.027344 907.953125 205.007812 C 907.410156 202.984375 906.824219 200.976562 906.199219 198.980469 C 905.574219 196.984375 904.910156 195 904.203125 193.03125 C 903.5 191.0625 902.753906 189.105469 901.972656 187.167969 C 901.1875 185.226562 900.367188 183.304688 899.503906 181.394531 C 898.644531 179.488281 897.746094 177.601562 896.808594 175.730469 C 895.875 173.859375 894.898438 172.007812 893.890625 170.175781 C 892.878906 168.34375 891.832031 166.53125 890.746094 164.742188 C 889.664062 162.953125 888.542969 161.1875 887.390625 159.441406 C 886.234375 157.695312 885.046875 155.976562 883.820312 154.277344 C 882.597656 152.582031 881.339844 150.910156 880.050781 149.261719 C 878.757812 147.617188 877.4375 145.996094 876.078125 144.402344 C 874.722656 142.808594 873.335938 141.246094 871.917969 139.707031 C 870.5 138.167969 869.050781 136.660156 867.570312 135.179688 Z M 867.570312 135.195312 " fill-opacity="1" fill-rule="evenodd"/></g></svg>