<svg xmlns="http://www.w3.org/2000/svg" xmlns:xlink="http://www.w3.org/1999/xlink" width="1254" zoomAndPan="magnify" viewBox="0 0 940.5 940.499971" height="1254" preserveAspectRatio="xMidYMid meet" version="1.0"><defs><clipPath id="a160894c6f"><path d="M 98.113281 0 L 841.71875 0 L 841.71875 940 L 98.113281 940 Z M 98.113281 0 " clip-rule="nonzero"/></clipPath></defs><g clip-path="url(#a160894c6f)"><path fill="#38b6ff" d="M 787.179688 318.902344 C 722.5625 237.089844 665.5625 142.007812 602.914062 10.566406 C 599.964844 4.175781 593.578125 0 586.699219 0 C 579.820312 0 573.429688 4.175781 570.484375 10.320312 C 542.472656 69.285156 514.957031 121.617188 486.210938 170.753906 C 460.90625 213.75 434.125 254.285156 406.609375 291.875 C 392.605469 264.851562 379.828125 238.5625 369.757812 217.679688 C 366.808594 211.292969 360.421875 207.359375 353.539062 207.359375 C 346.417969 207.359375 340.273438 211.292969 337.324219 217.679688 C 309.316406 276.890625 281.554688 329.222656 253.054688 377.867188 C 220.378906 433.394531 187.457031 482.285156 152.324219 527.246094 C 116.945312 572.453125 98.273438 626.75 98.273438 684.484375 C 98.273438 698.980469 99.992188 713.230469 101.464844 725.515625 C 121.367188 849.832031 227.257812 940 353.296875 940 C 475.402344 940 581.046875 853.273438 604.140625 733.621094 C 604.140625 733.132812 604.140625 732.640625 604.140625 732.148438 C 722.316406 724.042969 819.363281 636.820312 838.527344 518.15625 C 840.492188 504.394531 841.722656 490.636719 841.722656 477.371094 C 841.96875 418.898438 823.050781 364.109375 787.179688 318.902344 Z M 353.785156 910.519531 C 242.246094 910.519531 148.390625 830.667969 130.949219 721.339844 C 129.472656 710.28125 128 697.261719 128 684.484375 C 128 633.382812 144.460938 585.472656 175.910156 545.425781 C 211.78125 499.484375 245.4375 449.609375 278.851562 392.855469 C 304.402344 349.367188 328.972656 303.179688 354.03125 251.828125 C 363.859375 271.976562 375.40625 295.070312 387.445312 318.164062 C 386.953125 318.902344 386.21875 319.640625 385.726562 320.375 C 367.300781 344.207031 353.296875 370.496094 344.203125 398.011719 C 335.851562 423.566406 331.675781 450.34375 331.675781 477.371094 C 331.675781 483.757812 331.921875 490.144531 332.410156 497.027344 C 333.148438 503.90625 333.886719 510.539062 334.867188 518.402344 C 345.925781 588.175781 386.21875 650.824219 445.429688 690.136719 C 452.554688 694.804688 460.167969 699.226562 467.785156 703.15625 C 467.785156 703.402344 467.785156 703.402344 467.785156 703.648438 C 460.660156 746.644531 439.53125 783.007812 406.609375 808.804688 C 397.519531 815.929688 395.0625 828.457031 400.957031 838.53125 C 405.136719 845.902344 412.75 849.832031 420.613281 849.832031 C 423.5625 849.832031 426.757812 849.339844 429.703125 848.113281 C 460.660156 835.335938 485.964844 818.628906 504.882812 798.976562 C 523.066406 780.058594 535.59375 755.980469 542.476562 728.953125 C 553.285156 730.921875 564.09375 732.148438 575.152344 732.640625 C 552.300781 835.828125 460.167969 910.519531 353.785156 910.519531 Z M 513.484375 722.074219 C 507.832031 743.941406 497.757812 763.351562 483.265625 778.582031 C 475.402344 786.691406 466.3125 794.308594 455.746094 801.1875 C 475.402344 776.863281 488.421875 747.871094 495.058594 715.6875 C 500.953125 718.144531 507.09375 720.109375 513.484375 722.074219 Z M 810.027344 513.734375 C 792.339844 623.800781 698.242188 703.648438 586.699219 703.648438 C 565.078125 703.648438 543.457031 700.453125 522.820312 694.3125 C 511.765625 691.117188 500.953125 686.941406 490.390625 682.027344 C 490.144531 682.027344 490.144531 681.78125 489.898438 681.78125 C 480.070312 677.113281 470.734375 671.957031 461.644531 665.8125 C 409.3125 630.925781 373.6875 575.398438 363.859375 513.488281 C 363.121094 507.097656 362.140625 500.710938 361.648438 494.816406 C 361.402344 488.917969 360.910156 483.265625 360.910156 477.371094 C 360.910156 453.292969 364.597656 429.707031 372.214844 407.105469 C 380.074219 382.535156 392.359375 359.441406 408.820312 338.3125 C 444.691406 292.367188 479.332031 241.019531 511.761719 185.738281 C 537.316406 142.007812 562.128906 95.574219 586.945312 44.46875 C 646.644531 167.066406 701.925781 258.21875 764.574219 337.328125 C 796.269531 377.375 812.976562 425.777344 812.976562 477.371094 C 812.730469 489.164062 811.75 501.449219 810.027344 513.734375 Z M 810.027344 513.734375 " fill-opacity="1" fill-rule="nonzero"/></g><path fill="#38b6ff" d="M 666.546875 247.652344 C 660.40625 237.089844 648.121094 232.910156 636.820312 238.070312 C 625.761719 243.230469 620.601562 255.269531 624.78125 266.816406 C 642.714844 314.480469 661.632812 356.246094 682.761719 394.082031 C 699.960938 425.53125 706.101562 460.910156 700.207031 496.535156 C 693.082031 539.285156 671.953125 575.644531 639.277344 601.441406 C 630.183594 608.566406 627.726562 620.851562 633.378906 630.925781 C 637.554688 638.296875 645.171875 642.472656 653.28125 642.472656 C 656.226562 642.472656 659.175781 641.980469 662.125 640.753906 C 693.082031 627.976562 718.386719 611.269531 737.304688 591.617188 C 759.664062 568.03125 774.15625 537.320312 778.824219 502.675781 C 785.949219 450.835938 771.210938 396.292969 739.761719 356.738281 C 714.703125 324.554688 690.625 288.929688 666.546875 247.652344 Z M 749.835938 498.5 C 745.902344 527 734.109375 552.304688 716.175781 571.222656 C 708.3125 579.578125 698.976562 587.191406 688.414062 594.070312 C 709.542969 567.785156 723.546875 536.335938 729.441406 501.203125 C 736.320312 459.191406 729.195312 417.175781 708.804688 379.832031 C 699.46875 363.125 690.625 345.4375 682.023438 326.765625 C 693.574219 343.714844 705.121094 359.441406 717.160156 374.425781 C 743.203125 407.839844 755.730469 455.257812 749.835938 498.5 Z M 749.835938 498.5 " fill-opacity="1" fill-rule="nonzero"/></svg>