<svg xmlns="http://www.w3.org/2000/svg" xmlns:xlink="http://www.w3.org/1999/xlink" width="1254" zoomAndPan="magnify" viewBox="0 0 940.5 940.499971" height="1254" preserveAspectRatio="xMidYMid meet" version="1.0"><path fill="#ff3131" d="M 939.152344 337.753906 C 898.402344 453.5 817.042969 550.609375 710.050781 611.191406 C 707.730469 612.507812 705.203125 613.128906 702.710938 613.128906 C 697.507812 613.128906 692.453125 610.40625 689.707031 605.558594 C 685.644531 598.378906 688.167969 589.277344 695.339844 585.207031 C 790.867188 531.117188 864.6875 446.105469 904.761719 344.527344 C 851.785156 336.65625 798.402344 337.804688 745.707031 347.757812 C 736.167969 370.363281 725.03125 392.398438 712.171875 413.628906 C 709.367188 418.265625 704.4375 420.832031 699.386719 420.832031 C 696.753906 420.832031 694.089844 420.132812 691.667969 418.667969 C 684.617188 414.402344 682.363281 405.21875 686.632812 398.171875 C 700.0625 375.992188 711.503906 352.875 721.082031 329.125 C 721.144531 328.957031 721.214844 328.796875 721.28125 328.632812 C 752.832031 250.136719 763.199219 164.398438 750.671875 79.824219 C 687.421875 104.898438 629.867188 143.492188 582.726562 192.152344 C 588.96875 213.328125 593.894531 234.953125 597.363281 256.9375 C 598.644531 265.082031 593.082031 272.722656 584.941406 274.007812 C 576.824219 275.285156 569.15625 269.726562 567.871094 261.582031 C 554.976562 179.757812 521.246094 102.964844 470.003906 38.386719 C 418.757812 102.957031 385.03125 179.75 372.128906 261.582031 C 370.972656 268.9375 364.621094 274.1875 357.402344 274.1875 C 356.628906 274.1875 355.847656 274.128906 355.058594 274.007812 C 346.917969 272.722656 341.355469 265.078125 342.640625 256.941406 C 346.105469 234.957031 351.039062 213.332031 357.277344 192.15625 C 310.132812 143.496094 252.578125 104.902344 189.328125 79.828125 C 176.800781 164.410156 187.171875 250.160156 218.734375 328.671875 C 218.796875 328.8125 218.855469 328.949219 218.910156 329.09375 C 228.492188 352.859375 239.933594 375.984375 253.371094 398.175781 C 257.640625 405.222656 255.386719 414.40625 248.335938 418.671875 C 245.917969 420.136719 243.25 420.835938 240.617188 420.835938 C 235.566406 420.835938 230.640625 418.269531 227.832031 413.632812 C 214.972656 392.402344 203.835938 370.367188 194.296875 347.761719 C 141.617188 337.816406 88.234375 336.660156 35.242188 344.53125 C 75.316406 446.109375 149.136719 531.121094 244.664062 585.210938 C 251.835938 589.277344 254.359375 598.386719 250.296875 605.5625 C 247.550781 610.410156 242.496094 613.132812 237.292969 613.132812 C 234.800781 613.132812 232.273438 612.511719 229.953125 611.195312 C 122.957031 550.609375 41.597656 453.503906 0.847656 337.753906 C -0.601562 333.648438 -0.179688 329.101562 2.003906 325.328125 C 4.1875 321.554688 7.910156 318.921875 12.195312 318.128906 C 68.605469 307.609375 125.582031 306.699219 181.933594 315.296875 C 153.613281 232.828125 146.695312 143.910156 162.917969 56.757812 C 163.714844 52.46875 166.347656 48.742188 170.132812 46.554688 C 173.914062 44.367188 178.460938 43.96875 182.570312 45.414062 C 251.804688 69.902344 315.3125 109.503906 367.78125 160.417969 C 388.550781 103.90625 419.191406 51.316406 458.660156 5.21875 C 461.496094 1.90625 465.640625 0 470 0 C 474.359375 0 478.503906 1.90625 481.339844 5.21875 C 520.8125 51.320312 551.449219 103.90625 572.21875 160.414062 C 624.6875 109.507812 688.195312 69.902344 757.425781 45.414062 C 761.539062 43.976562 766.082031 44.378906 769.863281 46.554688 C 773.644531 48.742188 776.28125 52.46875 777.078125 56.757812 C 793.300781 143.914062 786.390625 232.828125 758.066406 315.300781 C 814.414062 306.699219 871.390625 307.613281 927.804688 318.128906 C 932.089844 318.921875 935.8125 321.554688 937.996094 325.328125 C 940.175781 329.101562 940.601562 333.648438 939.152344 337.753906 Z M 844.828125 688.070312 L 839.996094 710.453125 C 835.894531 729.640625 824.496094 746.140625 807.90625 756.867188 C 791.277344 767.628906 771.519531 771.25 752.234375 767.121094 L 640.941406 743.191406 C 625.464844 739.855469 613.175781 730.820312 605.398438 717.0625 L 593.152344 695.304688 L 593.152344 754.632812 L 659 786.980469 C 672.550781 793.640625 713.753906 813.910156 701.863281 864.800781 C 693.300781 901.449219 660.964844 927.042969 623.222656 927.042969 L 584.019531 927.042969 C 583.054688 934.355469 576.792969 939.996094 569.222656 939.996094 L 316.769531 939.996094 C 279 939.996094 246.664062 914.296875 238.128906 877.511719 C 229.550781 840.789062 247.277344 803.542969 281.246094 786.964844 L 346.84375 754.648438 L 346.84375 695.316406 L 334.609375 717.042969 C 326.816406 730.820312 314.527344 739.859375 299.058594 743.195312 L 187.753906 767.125 C 168.476562 771.253906 148.71875 767.628906 132.089844 756.871094 C 115.5 746.144531 104.101562 729.652344 99.992188 710.425781 L 95.167969 688.0625 C 93.429688 680.007812 98.546875 672.066406 106.601562 670.328125 L 250.25 639.246094 L 292.367188 565.539062 C 320.886719 507.214844 380.902344 469.558594 445.410156 469.558594 L 448.433594 469.558594 C 400.027344 459.566406 363.523438 416.617188 363.523438 365.292969 C 363.523438 306.582031 411.289062 258.824219 470 258.824219 C 528.703125 258.824219 576.46875 306.582031 576.46875 365.292969 C 576.46875 416.617188 539.964844 459.566406 491.5625 469.558594 L 494.585938 469.558594 C 559.09375 469.558594 619.109375 507.214844 647.628906 565.539062 L 689.746094 639.246094 L 833.394531 670.328125 C 841.449219 672.066406 846.570312 680.007812 844.828125 688.070312 Z M 470 441.902344 C 512.246094 441.902344 546.613281 407.535156 546.613281 365.289062 C 546.613281 323.042969 512.246094 288.679688 470 288.679688 C 427.753906 288.679688 393.382812 323.042969 393.382812 365.289062 C 393.382812 407.535156 427.753906 441.902344 470 441.902344 Z M 812.5 696.351562 L 676.921875 667.015625 C 672.785156 666.121094 669.222656 663.503906 667.117188 659.828125 L 621.457031 579.921875 C 621.292969 579.632812 621.136719 579.339844 620.988281 579.035156 C 597.523438 530.664062 547.902344 499.417969 494.585938 499.417969 L 445.410156 499.417969 C 392.09375 499.417969 342.472656 530.667969 319.007812 579.035156 C 318.863281 579.339844 318.707031 579.632812 318.539062 579.921875 L 272.878906 659.828125 C 270.777344 663.503906 267.210938 666.121094 263.074219 667.015625 L 127.5 696.351562 L 129.179688 704.15625 C 131.628906 715.597656 138.414062 725.40625 148.304688 731.804688 C 158.226562 738.21875 170 740.40625 181.472656 737.929688 L 292.773438 714.003906 C 299.863281 712.472656 305.046875 708.671875 308.605469 702.371094 L 348.761719 631.054688 C 351.453125 626.273438 356.476562 623.445312 361.769531 623.445312 C 363.023438 623.445312 364.292969 623.605469 365.554688 623.9375 C 372.117188 625.652344 376.695312 631.589844 376.695312 638.375 L 376.695312 763.9375 C 376.695312 769.625 373.464844 774.8125 368.367188 777.332031 L 294.386719 813.777344 C 272.625 824.394531 261.71875 847.28125 267.203125 870.75 C 272.671875 894.324219 292.585938 910.144531 316.765625 910.144531 L 554.289062 910.144531 L 554.289062 899.386719 C 554.289062 871.1875 531.441406 848.242188 503.363281 848.242188 L 372.085938 848.242188 C 363.84375 848.242188 357.160156 841.558594 357.160156 833.3125 C 357.160156 825.070312 363.84375 818.382812 372.085938 818.382812 L 503.363281 818.382812 C 547.171875 818.382812 582.949219 853.535156 584.117188 897.1875 L 623.222656 897.1875 C 647.394531 897.1875 667.3125 881.441406 672.789062 858.011719 C 676.898438 840.410156 673.804688 827.539062 645.832031 813.777344 L 571.640625 777.339844 C 566.527344 774.828125 563.289062 769.632812 563.289062 763.9375 L 563.289062 638.371094 C 563.289062 631.589844 567.867188 625.652344 574.433594 623.933594 C 580.996094 622.203125 587.894531 625.136719 591.226562 631.050781 L 631.398438 702.398438 C 634.945312 708.667969 640.121094 712.472656 647.21875 714 L 758.507812 737.929688 C 769.988281 740.402344 781.757812 738.207031 791.691406 731.796875 C 801.574219 725.40625 808.359375 715.597656 810.800781 704.175781 Z M 558.414062 570.148438 C 570.769531 607.511719 540.6875 664.769531 476.136719 690.238281 C 474.234375 690.996094 472.21875 691.359375 470.136719 691.265625 C 469.945312 691.273438 469.75 691.28125 469.558594 691.28125 C 467.722656 691.28125 465.871094 690.941406 464.101562 690.246094 C 399.390625 664.804688 369.214844 607.539062 381.628906 570.023438 C 388.394531 548.945312 406.199219 535.378906 429.226562 533.84375 C 444.570312 532.820312 459.214844 537.398438 470 545.902344 C 480.785156 537.394531 495.363281 532.820312 510.765625 533.84375 C 533.796875 535.375 551.605469 548.945312 558.414062 570.148438 Z M 530.023438 579.398438 C 525.921875 566.617188 514.960938 564.046875 508.789062 563.632812 C 497.648438 562.902344 487.074219 567.851562 483.484375 575.414062 C 481.011719 580.617188 475.761719 583.9375 470 583.9375 C 464.238281 583.9375 458.988281 580.617188 456.515625 575.414062 C 453.160156 568.351562 443.652344 563.5625 433.386719 563.5625 C 432.664062 563.5625 431.941406 563.585938 431.207031 563.632812 C 425.035156 564.046875 414.070312 566.617188 410.011719 579.269531 C 403.339844 599.441406 423.597656 639.976562 470.09375 660.410156 C 516.457031 639.953125 536.652344 599.433594 530.023438 579.398438 Z M 530.023438 579.398438 " fill-opacity="1" fill-rule="nonzero"/></svg>