<svg xmlns="http://www.w3.org/2000/svg" xmlns:xlink="http://www.w3.org/1999/xlink" width="1254" zoomAndPan="magnify" viewBox="0 0 940.5 940.499971" height="1254" preserveAspectRatio="xMidYMid meet" version="1.0"><defs><clipPath id="e96412c08e"><path d="M 243 269 L 894 269 L 894 940 L 243 940 Z M 243 269 " clip-rule="nonzero"/></clipPath><clipPath id="94b93c3c82"><path d="M -19.917969 127.308594 L 687.449219 -86.953125 L 959.949219 812.683594 L 252.578125 1026.945312 Z M -19.917969 127.308594 " clip-rule="nonzero"/></clipPath><clipPath id="30d1621c28"><path d="M -19.917969 127.308594 L 687.449219 -86.953125 L 959.949219 812.683594 L 252.578125 1026.945312 Z M -19.917969 127.308594 " clip-rule="nonzero"/></clipPath><clipPath id="0aa123301d"><path d="M 130 156 L 350 156 L 350 376 L 130 376 Z M 130 156 " clip-rule="nonzero"/></clipPath><clipPath id="6b7843fd8d"><path d="M -19.917969 127.308594 L 687.449219 -86.953125 L 959.949219 812.683594 L 252.578125 1026.945312 Z M -19.917969 127.308594 " clip-rule="nonzero"/></clipPath><clipPath id="7bcae63401"><path d="M -19.917969 127.308594 L 687.449219 -86.953125 L 959.949219 812.683594 L 252.578125 1026.945312 Z M -19.917969 127.308594 " clip-rule="nonzero"/></clipPath><clipPath id="bab438c055"><path d="M 31 58 L 448 58 L 448 475 L 31 475 Z M 31 58 " clip-rule="nonzero"/></clipPath><clipPath id="7cb92280c3"><path d="M -19.917969 127.308594 L 687.449219 -86.953125 L 959.949219 812.683594 L 252.578125 1026.945312 Z M -19.917969 127.308594 " clip-rule="nonzero"/></clipPath><clipPath id="051c097b35"><path d="M -19.917969 127.308594 L 687.449219 -86.953125 L 959.949219 812.683594 L 252.578125 1026.945312 Z M -19.917969 127.308594 " clip-rule="nonzero"/></clipPath></defs><g clip-path="url(#e96412c08e)"><g clip-path="url(#94b93c3c82)"><g clip-path="url(#30d1621c28)"><path fill="#ff3131" d="M 292.171875 327.765625 L 463.449219 893.867188 L 592.082031 688.636719 L 821.5 591.9375 Z M 453.796875 965.972656 L 243.117188 269.625 L 893.566406 594.242188 L 612.546875 712.691406 L 453.796875 965.972656 " fill-opacity="1" fill-rule="nonzero"/></g></g></g><g clip-path="url(#0aa123301d)"><g clip-path="url(#6b7843fd8d)"><g clip-path="url(#7bcae63401)"><path fill="#ff3131" d="M 208.011719 161.558594 C 150.320312 179.03125 117.605469 240.1875 135.078125 297.875 C 148.71875 342.914062 188.988281 372.691406 233.441406 375.285156 L 223.050781 340.972656 C 196.921875 335.113281 174.558594 315.835938 166.257812 288.429688 C 153.988281 247.933594 176.957031 205.003906 217.457031 192.734375 C 257.957031 180.46875 300.886719 203.4375 313.152344 243.9375 C 314.769531 249.277344 315.726562 254.699219 316.15625 260.128906 L 348.546875 276.390625 C 349.847656 262.492188 348.515625 248.300781 344.332031 234.492188 C 326.855469 176.804688 265.707031 144.082031 208.011719 161.558594 " fill-opacity="1" fill-rule="nonzero"/></g></g></g><g clip-path="url(#bab438c055)"><g clip-path="url(#7cb92280c3)"><g clip-path="url(#051c097b35)"><path fill="#ff3131" d="M 179.363281 66.96875 C 69.511719 100.242188 7.210938 216.679688 40.484375 326.527344 C 70.035156 424.078125 165.167969 484.027344 263.027344 472.953125 L 253.382812 441.117188 C 172.980469 447.417969 95.984375 397.371094 71.664062 317.082031 C 43.597656 224.425781 96.152344 126.214844 188.808594 98.148438 C 281.460938 70.082031 379.679688 122.628906 407.746094 215.285156 C 416.871094 245.40625 417.535156 277.253906 410.273438 307.378906 L 440.070312 322.339844 C 450.640625 284.5 450.480469 243.996094 438.925781 205.839844 C 405.652344 95.992188 289.214844 33.695312 179.363281 66.96875 " fill-opacity="1" fill-rule="nonzero"/></g></g></g></svg>