<svg xmlns="http://www.w3.org/2000/svg" xmlns:xlink="http://www.w3.org/1999/xlink" width="1254" zoomAndPan="magnify" viewBox="0 0 940.5 940.499971" height="1254" preserveAspectRatio="xMidYMid meet" version="1.0"><defs><clipPath id="6c0c2aac8c"><path d="M 0 105.75 L 940 105.75 L 940 834.363281 L 0 834.363281 Z M 0 105.75 " clip-rule="nonzero"/></clipPath></defs><g clip-path="url(#6c0c2aac8c)"><path fill="#ff3131" d="M 892.59375 182.734375 L 851.476562 182.734375 L 851.476562 144.546875 C 851.476562 123.558594 834.34375 106.277344 813.351562 106.082031 L 800.4375 105.964844 C 682.171875 105.054688 548.777344 103.953125 470.046875 173.816406 C 391.316406 103.914062 257.808594 105.058594 139.652344 105.964844 L 126.738281 106.082031 C 105.785156 106.28125 88.613281 123.441406 88.613281 144.546875 L 88.613281 182.734375 L 47.5 182.734375 C 21.386719 182.734375 0.121094 204.035156 0.121094 230.191406 L 0.121094 708.992188 C 0.121094 721.8125 5.042969 733.726562 14.023438 742.722656 C 23.003906 751.714844 35.09375 756.570312 47.8125 756.449219 L 60.730469 756.332031 C 196.054688 755.226562 349.371094 754.003906 441.210938 824.304688 C 449.875 830.894531 459.957031 834.246094 470.039062 834.246094 C 480.121094 834.246094 490.203125 830.933594 498.789062 824.34375 C 590.632812 754.042969 743.988281 755.269531 879.269531 756.371094 L 892.1875 756.492188 C 904.90625 756.609375 916.996094 751.753906 925.976562 742.761719 C 934.957031 733.765625 939.878906 721.851562 939.878906 709.03125 L 939.878906 230.109375 C 939.957031 203.953125 918.691406 182.730469 892.578125 182.730469 Z M 800.238281 128.921875 L 813.15625 129.042969 C 821.625 129.160156 828.476562 136.023438 828.476562 144.503906 L 828.476562 655.027344 C 828.476562 659.289062 826.859375 663.117188 823.945312 666.035156 C 821.03125 668.953125 817.09375 670.570312 812.839844 670.492188 L 800.355469 670.375 C 687.636719 669.46875 561.214844 668.636719 481.347656 729.035156 L 481.347656 194.648438 C 552.90625 127.109375 684.171875 128.015625 800.238281 128.921875 Z M 111.539062 144.46875 C 111.539062 135.984375 118.390625 129.003906 126.859375 129.003906 L 139.773438 128.886719 C 255.839844 127.976562 387.101562 127.070312 458.582031 194.648438 L 458.582031 728.992188 C 388.519531 675.972656 282.660156 670.136719 181.523438 670.136719 C 167.425781 670.136719 153.40625 670.253906 139.582031 670.332031 L 127.097656 670.449219 C 122.84375 670.570312 118.945312 668.953125 115.992188 665.992188 C 113.074219 663.074219 111.460938 659.128906 111.460938 654.988281 L 111.421875 144.464844 Z M 917.078125 709.03125 C 917.078125 715.699219 914.558594 721.851562 909.914062 726.507812 C 905.382812 731.042969 899.238281 733.570312 892.664062 733.570312 L 892.464844 733.570312 L 879.546875 733.449219 C 740.527344 732.347656 583.035156 731.121094 484.925781 806.15625 C 475.945312 813.019531 464.246094 813.019531 455.269531 806.15625 C 357.164062 731.121094 199.597656 732.34375 60.644531 733.449219 L 47.726562 733.570312 C 41.1875 733.570312 34.925781 731.160156 30.28125 726.507812 C 25.632812 721.851562 23.113281 715.699219 23.113281 709.03125 L 23.191406 230.109375 C 23.191406 216.578125 34.179688 205.648438 47.609375 205.648438 L 88.722656 205.648438 L 88.722656 655.0625 C 88.722656 665.476562 92.742188 675.140625 100.027344 682.441406 C 107.273438 689.617188 116.882812 693.5625 127.042969 693.5625 L 127.359375 693.5625 L 139.84375 693.445312 C 257.714844 692.539062 391.300781 691.433594 461.957031 762.207031 C 464.164062 764.417969 467.117188 765.519531 470.03125 765.519531 C 472.945312 765.519531 475.859375 764.417969 478.105469 762.207031 C 548.796875 691.394531 682.386719 692.539062 800.21875 693.445312 L 812.703125 693.5625 L 813.019531 693.5625 C 823.296875 693.5625 832.867188 689.621094 840.035156 682.441406 C 847.28125 675.179688 851.339844 665.476562 851.339844 655.0625 L 851.339844 205.648438 L 892.453125 205.648438 C 905.960938 205.648438 916.871094 216.65625 916.871094 230.109375 L 916.871094 709.03125 Z M 532.144531 434.929688 C 529.625 429.089844 532.34375 422.304688 538.210938 419.898438 C 603.546875 391.929688 687.042969 387.984375 767.375 387.984375 C 773.71875 387.984375 778.875 393.152344 778.875 399.503906 C 778.875 405.855469 773.714844 411.023438 767.375 411.023438 C 689.4375 411.023438 608.785156 414.769531 547.183594 441.121094 C 545.6875 441.714844 544.148438 442.03125 542.652344 442.03125 C 538.203125 441.988281 533.957031 439.347656 532.144531 434.929688 Z M 532.144531 522.191406 C 529.625 516.351562 532.34375 509.566406 538.210938 507.160156 C 603.546875 479.191406 687.042969 475.246094 767.375 475.246094 C 773.71875 475.246094 778.875 480.414062 778.875 486.765625 C 778.875 493.117188 773.714844 498.285156 767.375 498.285156 C 689.4375 498.285156 608.785156 502.03125 547.183594 528.386719 C 545.6875 528.976562 544.148438 529.292969 542.652344 529.292969 C 538.203125 529.132812 533.957031 526.53125 532.144531 522.191406 Z M 532.144531 347.75 C 529.625 341.910156 532.34375 335.125 538.210938 332.71875 C 603.546875 304.75 687.042969 300.804688 767.375 300.804688 C 773.71875 300.804688 778.875 305.972656 778.875 312.320312 C 778.875 318.671875 773.714844 323.839844 767.375 323.839844 C 689.4375 323.839844 608.785156 327.589844 547.183594 353.941406 C 545.6875 354.535156 544.148438 354.847656 542.652344 354.847656 C 538.203125 354.730469 533.957031 352.089844 532.144531 347.75 Z M 532.144531 260.605469 C 529.625 254.765625 532.34375 247.980469 538.210938 245.574219 C 603.546875 217.605469 687.042969 213.660156 767.375 213.660156 C 773.71875 213.660156 778.875 218.828125 778.875 225.175781 C 778.875 231.527344 773.714844 236.695312 767.375 236.695312 C 689.4375 236.695312 608.785156 240.445312 547.183594 266.796875 C 545.6875 267.386719 544.148438 267.703125 542.652344 267.703125 C 538.203125 267.585938 533.957031 264.945312 532.144531 260.605469 Z M 778.84375 573.800781 C 778.84375 580.152344 773.683594 585.320312 767.34375 585.320312 C 689.402344 585.320312 608.753906 589.066406 547.152344 615.421875 C 545.65625 616.011719 544.117188 616.328125 542.621094 616.328125 C 538.171875 616.328125 533.957031 613.683594 532.027344 609.34375 C 529.507812 603.507812 532.222656 596.71875 538.09375 594.3125 C 603.429688 566.34375 686.925781 562.398438 767.257812 562.398438 C 773.71875 562.359375 778.84375 567.527344 778.84375 573.800781 Z M 161.234375 225.175781 C 161.234375 218.824219 166.390625 213.65625 172.734375 213.65625 C 253.191406 213.65625 336.566406 217.601562 401.898438 245.574219 C 407.726562 248.097656 410.484375 254.765625 407.964844 260.601562 C 406.152344 264.941406 401.898438 267.585938 397.371094 267.585938 C 395.871094 267.585938 394.335938 267.269531 392.839844 266.679688 C 331.246094 240.324219 250.59375 236.695312 172.648438 236.578125 C 166.347656 236.578125 161.234375 231.410156 161.234375 225.175781 Z M 161.234375 312.320312 C 161.234375 305.96875 166.390625 300.800781 172.734375 300.800781 C 253.191406 300.800781 336.566406 304.746094 401.898438 332.71875 C 407.726562 335.242188 410.484375 341.910156 407.964844 347.746094 C 406.152344 352.085938 401.898438 354.730469 397.371094 354.730469 C 395.871094 354.730469 394.335938 354.414062 392.839844 353.824219 C 331.246094 327.46875 250.59375 323.839844 172.648438 323.722656 C 166.347656 323.722656 161.234375 318.671875 161.234375 312.320312 Z M 161.234375 399.464844 C 161.234375 393.113281 166.390625 387.949219 172.734375 387.949219 C 253.191406 387.949219 336.566406 391.890625 401.898438 419.863281 C 407.726562 422.386719 410.484375 429.054688 407.964844 434.894531 C 406.152344 439.230469 401.898438 441.875 397.371094 441.875 C 395.871094 441.875 394.335938 441.558594 392.839844 440.96875 C 331.246094 414.617188 250.59375 410.984375 172.648438 410.867188 C 166.347656 410.984375 161.234375 405.816406 161.234375 399.464844 Z M 161.234375 573.796875 C 161.234375 567.445312 166.390625 562.277344 172.734375 562.277344 C 253.191406 562.277344 336.566406 566.222656 401.898438 594.195312 C 407.726562 596.71875 410.484375 603.386719 407.964844 609.226562 C 406.152344 613.5625 401.898438 616.207031 397.371094 616.207031 C 395.871094 616.207031 394.335938 615.890625 392.839844 615.300781 C 331.246094 588.945312 250.59375 585.316406 172.648438 585.199219 C 166.347656 585.316406 161.234375 580.148438 161.234375 573.796875 Z M 161.234375 486.613281 C 161.234375 480.261719 166.390625 475.09375 172.734375 475.09375 C 253.191406 475.09375 336.566406 479.039062 401.898438 507.007812 C 407.726562 509.535156 410.484375 516.203125 407.964844 522.039062 C 406.152344 526.378906 401.898438 529.023438 397.371094 529.023438 C 395.871094 529.023438 394.335938 528.707031 392.839844 528.117188 C 331.246094 501.761719 250.59375 498.132812 172.648438 498.015625 C 166.347656 498.132812 161.234375 493.003906 161.234375 486.613281 Z M 161.234375 486.613281 " fill-opacity="1" fill-rule="nonzero"/></g></svg>