<svg xmlns="http://www.w3.org/2000/svg" xmlns:xlink="http://www.w3.org/1999/xlink" width="1254" zoomAndPan="magnify" viewBox="0 0 940.5 940.499971" height="1254" preserveAspectRatio="xMidYMid meet" version="1.0"><path fill="#00bf63" d="M 470 52.222656 C 700.824219 52.222656 887.777344 239.179688 887.777344 470 C 887.777344 700.824219 700.824219 887.777344 470 887.777344 C 239.179688 887.777344 52.222656 700.824219 52.222656 470 C 52.222656 239.179688 239.179688 52.222656 470 52.222656 M 470 0 C 209.933594 0 0 209.933594 0 470 C 0 730.066406 209.933594 940 470 940 C 730.066406 940 940 730.066406 940 470 C 940 209.933594 729.023438 0 470 0 Z M 470 0 " fill-opacity="1" fill-rule="nonzero"/><path fill="#00bf63" d="M 715.445312 354.066406 L 436.578125 639.199219 C 430.3125 645.464844 420.910156 649.644531 410.46875 649.644531 C 400.023438 649.644531 391.667969 645.464844 384.355469 639.199219 L 226.644531 478.355469 C 220.378906 472.089844 216.199219 462.6875 216.199219 452.246094 C 216.199219 431.355469 232.910156 414.644531 252.753906 414.644531 C 263.199219 414.644531 271.554688 418.824219 278.867188 425.089844 L 410.46875 559.824219 L 664.265625 300.800781 C 670.535156 294.535156 679.933594 290.355469 690.378906 290.355469 C 710.222656 290.355469 726.933594 307.066406 726.933594 327.957031 C 725.890625 338.398438 721.710938 347.800781 715.445312 354.066406 Z M 715.445312 354.066406 " fill-opacity="1" fill-rule="evenodd"/></svg>