<svg xmlns="http://www.w3.org/2000/svg" xmlns:xlink="http://www.w3.org/1999/xlink" width="1254" zoomAndPan="magnify" viewBox="0 0 940.5 940.499971" height="1254" preserveAspectRatio="xMidYMid meet" version="1.0"><defs><clipPath id="aa58c023ea"><path d="M 6 27 L 940 27 L 940 915.960938 L 6 915.960938 Z M 6 27 " clip-rule="nonzero"/></clipPath></defs><g clip-path="url(#aa58c023ea)"><path fill="#ff3131" d="M 866.902344 124.589844 L 798.335938 124.589844 C 788.632812 118.90625 778.226562 115.203125 767.109375 113.484375 L 721.882812 106.722656 L 721.882812 85.316406 C 721.882812 83.929688 721.816406 82.546875 721.679688 81.167969 C 721.542969 79.789062 721.339844 78.417969 721.070312 77.058594 C 720.800781 75.699219 720.460938 74.355469 720.058594 73.03125 C 719.65625 71.703125 719.191406 70.398438 718.660156 69.117188 C 718.128906 67.835938 717.539062 66.585938 716.882812 65.363281 C 716.230469 64.140625 715.519531 62.953125 714.75 61.800781 C 713.976562 60.648438 713.152344 59.535156 712.273438 58.464844 C 711.394531 57.390625 710.464844 56.367188 709.484375 55.386719 C 708.503906 54.40625 707.476562 53.476562 706.40625 52.59375 C 705.335938 51.714844 704.222656 50.890625 703.070312 50.121094 C 701.917969 49.351562 700.730469 48.636719 699.507812 47.984375 C 698.285156 47.332031 697.03125 46.738281 695.75 46.207031 C 694.46875 45.679688 693.167969 45.210938 691.839844 44.808594 C 690.511719 44.40625 689.167969 44.070312 687.808594 43.800781 C 686.449219 43.53125 685.082031 43.324219 683.699219 43.191406 C 682.320312 43.054688 680.9375 42.988281 679.550781 42.988281 L 625.953125 42.988281 C 624.566406 42.988281 623.183594 43.054688 621.804688 43.191406 C 620.425781 43.324219 619.054688 43.53125 617.695312 43.800781 C 616.335938 44.070312 614.992188 44.40625 613.664062 44.808594 C 612.339844 45.210938 611.035156 45.679688 609.753906 46.207031 C 608.472656 46.738281 607.222656 47.332031 606 47.984375 C 604.777344 48.636719 603.589844 49.351562 602.4375 50.121094 C 601.28125 50.890625 600.171875 51.714844 599.097656 52.59375 C 598.027344 53.476562 597 54.40625 596.019531 55.386719 C 595.039062 56.363281 594.109375 57.390625 593.230469 58.464844 C 592.351562 59.535156 591.527344 60.648438 590.757812 61.800781 C 589.988281 62.953125 589.273438 64.140625 588.621094 65.363281 C 587.96875 66.585938 587.375 67.835938 586.84375 69.117188 C 586.3125 70.398438 585.847656 71.703125 585.445312 73.03125 C 585.042969 74.355469 584.707031 75.699219 584.4375 77.058594 C 584.164062 78.417969 583.960938 79.789062 583.828125 81.167969 C 583.691406 82.546875 583.621094 83.929688 583.621094 85.316406 L 198.136719 28.339844 C 196.726562 28.125 195.3125 27.941406 193.894531 27.792969 C 192.476562 27.648438 191.054688 27.535156 189.628906 27.460938 C 188.207031 27.382812 186.78125 27.339844 185.355469 27.335938 C 183.929688 27.328125 182.503906 27.355469 181.078125 27.417969 C 179.652344 27.484375 178.230469 27.582031 176.8125 27.714844 C 175.390625 27.847656 173.976562 28.015625 172.5625 28.21875 C 171.152344 28.421875 169.746094 28.660156 168.347656 28.933594 C 166.945312 29.207031 165.554688 29.511719 164.167969 29.855469 C 162.785156 30.195312 161.410156 30.570312 160.042969 30.980469 C 158.675781 31.386719 157.320312 31.828125 155.976562 32.304688 C 154.632812 32.78125 153.300781 33.289062 151.980469 33.828125 C 150.660156 34.371094 149.355469 34.941406 148.0625 35.546875 C 146.773438 36.152344 145.496094 36.789062 144.238281 37.457031 C 142.976562 38.125 141.734375 38.824219 140.507812 39.554688 C 139.285156 40.285156 138.078125 41.042969 136.886719 41.832031 C 135.699219 42.621094 134.53125 43.4375 133.382812 44.28125 C 132.234375 45.128906 131.109375 46.003906 130.003906 46.90625 C 128.898438 47.804688 127.816406 48.734375 126.757812 49.6875 C 125.699219 50.644531 124.664062 51.625 123.652344 52.628906 C 122.640625 53.636719 121.65625 54.664062 120.695312 55.71875 C 119.734375 56.773438 118.800781 57.851562 117.894531 58.953125 C 116.988281 60.050781 116.105469 61.175781 115.253906 62.316406 C 114.402344 63.460938 113.578125 64.625 112.785156 65.808594 C 111.988281 66.992188 111.222656 68.195312 110.488281 69.417969 C 109.753906 70.640625 109.046875 71.878906 108.375 73.136719 C 107.699219 74.390625 107.054688 75.664062 106.445312 76.953125 C 105.832031 78.242188 105.25 79.542969 104.703125 80.859375 C 104.15625 82.175781 103.640625 83.503906 103.15625 84.847656 C 102.675781 86.191406 102.226562 87.542969 101.8125 88.90625 C 101.394531 90.269531 101.011719 91.644531 100.664062 93.027344 C 100.316406 94.410156 100.003906 95.800781 99.722656 97.199219 C 99.441406 98.597656 99.199219 100.003906 98.988281 101.414062 L 7.402344 711.433594 C 7.191406 712.84375 7.015625 714.261719 6.875 715.683594 C 6.734375 717.105469 6.625 718.527344 6.554688 719.957031 C 6.480469 721.382812 6.445312 722.808594 6.441406 724.238281 C 6.441406 725.667969 6.472656 727.09375 6.542969 728.519531 C 6.609375 729.949219 6.710938 731.371094 6.847656 732.792969 C 6.988281 734.214844 7.160156 735.632812 7.367188 737.046875 C 7.574219 738.460938 7.8125 739.867188 8.089844 741.269531 C 8.367188 742.671875 8.675781 744.066406 9.019531 745.453125 C 9.363281 746.839844 9.742188 748.214844 10.152344 749.582031 C 10.5625 750.953125 11.007812 752.308594 11.484375 753.65625 C 11.964844 755 12.472656 756.335938 13.015625 757.65625 C 13.558594 758.976562 14.136719 760.285156 14.742188 761.578125 C 15.347656 762.871094 15.988281 764.148438 16.65625 765.410156 C 17.328125 766.671875 18.027344 767.917969 18.757812 769.144531 C 19.488281 770.371094 20.246094 771.582031 21.039062 772.769531 C 21.828125 773.960938 22.644531 775.132812 23.492188 776.28125 C 24.339844 777.433594 25.214844 778.5625 26.117188 779.667969 C 27.019531 780.777344 27.945312 781.859375 28.902344 782.921875 C 29.855469 783.984375 30.839844 785.023438 31.84375 786.039062 C 32.851562 787.050781 33.878906 788.039062 34.933594 789.003906 C 35.988281 789.96875 37.066406 790.90625 38.167969 791.816406 C 39.265625 792.726562 40.390625 793.609375 41.53125 794.464844 C 42.675781 795.320312 43.839844 796.148438 45.023438 796.949219 C 46.207031 797.746094 47.410156 798.515625 48.632812 799.257812 C 49.855469 799.996094 51.09375 800.707031 52.351562 801.386719 C 53.605469 802.066406 54.878906 802.714844 56.167969 803.332031 C 57.457031 803.949219 58.757812 804.535156 60.074219 805.089844 C 61.390625 805.640625 62.722656 806.164062 64.0625 806.652344 C 65.40625 807.140625 66.761719 807.59375 68.125 808.015625 C 69.488281 808.4375 70.863281 808.828125 72.246094 809.183594 C 73.632812 809.539062 75.023438 809.859375 76.421875 810.144531 C 77.820312 810.433594 79.226562 810.683594 80.636719 810.902344 L 190.25 826.996094 L 190.25 843.09375 C 190.25 844.292969 190.285156 845.496094 190.34375 846.695312 C 190.40625 847.894531 190.5 849.089844 190.621094 850.285156 C 190.738281 851.480469 190.890625 852.671875 191.070312 853.859375 C 191.25 855.046875 191.457031 856.230469 191.695312 857.40625 C 191.933594 858.582031 192.199219 859.753906 192.496094 860.917969 C 192.792969 862.082031 193.117188 863.238281 193.46875 864.386719 C 193.820312 865.535156 194.199219 866.671875 194.609375 867.800781 C 195.019531 868.929688 195.453125 870.050781 195.917969 871.15625 C 196.382812 872.265625 196.875 873.359375 197.390625 874.445312 C 197.910156 875.527344 198.453125 876.597656 199.023438 877.65625 C 199.59375 878.710938 200.191406 879.753906 200.8125 880.78125 C 201.433594 881.808594 202.082031 882.820312 202.753906 883.816406 C 203.425781 884.8125 204.121094 885.789062 204.839844 886.75 C 205.5625 887.710938 206.304688 888.652344 207.070312 889.578125 C 207.839844 890.503906 208.625 891.40625 209.4375 892.292969 C 210.25 893.179688 211.082031 894.042969 211.9375 894.890625 C 212.789062 895.734375 213.664062 896.554688 214.558594 897.359375 C 215.453125 898.160156 216.367188 898.9375 217.300781 899.695312 C 218.230469 900.449219 219.183594 901.183594 220.152344 901.894531 C 221.121094 902.601562 222.105469 903.289062 223.109375 903.949219 C 224.113281 904.609375 225.128906 905.246094 226.164062 905.855469 C 227.199219 906.46875 228.246094 907.050781 229.308594 907.609375 C 230.375 908.167969 231.449219 908.703125 232.539062 909.207031 C 233.628906 909.714844 234.730469 910.191406 235.839844 910.644531 C 236.953125 911.097656 238.078125 911.519531 239.210938 911.917969 C 240.34375 912.3125 241.488281 912.679688 242.640625 913.019531 C 243.792969 913.359375 244.949219 913.671875 246.117188 913.953125 C 247.285156 914.238281 248.457031 914.492188 249.636719 914.714844 C 250.820312 914.941406 252.003906 915.136719 253.191406 915.304688 C 254.382812 915.46875 255.574219 915.605469 256.769531 915.714844 C 257.964844 915.820312 259.164062 915.898438 260.363281 915.949219 C 261.566406 915.996094 262.765625 916.015625 263.964844 916.007812 L 867.546875 916.007812 C 868.734375 915.992188 869.921875 915.949219 871.109375 915.878906 C 872.296875 915.808594 873.480469 915.710938 874.660156 915.582031 C 875.84375 915.453125 877.019531 915.296875 878.195312 915.109375 C 879.367188 914.921875 880.535156 914.710938 881.699219 914.464844 C 882.863281 914.222656 884.019531 913.953125 885.171875 913.652344 C 886.320312 913.355469 887.464844 913.027344 888.597656 912.671875 C 889.730469 912.320312 890.855469 911.9375 891.972656 911.527344 C 893.089844 911.117188 894.195312 910.679688 895.289062 910.21875 C 896.382812 909.753906 897.464844 909.265625 898.535156 908.75 C 899.605469 908.234375 900.664062 907.691406 901.707031 907.125 C 902.753906 906.554688 903.78125 905.964844 904.796875 905.347656 C 905.8125 904.726562 906.8125 904.085938 907.796875 903.421875 C 908.78125 902.753906 909.75 902.0625 910.699219 901.351562 C 911.652344 900.636719 912.582031 899.902344 913.5 899.140625 C 914.414062 898.382812 915.308594 897.601562 916.183594 896.800781 C 917.0625 896 917.917969 895.175781 918.753906 894.332031 C 919.59375 893.488281 920.40625 892.621094 921.203125 891.738281 C 921.996094 890.855469 922.769531 889.953125 923.519531 889.03125 C 924.269531 888.109375 925 887.171875 925.703125 886.214844 C 926.410156 885.257812 927.089844 884.28125 927.746094 883.292969 C 928.40625 882.304688 929.039062 881.296875 929.648438 880.277344 C 930.253906 879.253906 930.839844 878.222656 931.398438 877.171875 C 931.957031 876.121094 932.488281 875.058594 932.996094 873.984375 C 933.5 872.910156 933.980469 871.824219 934.433594 870.722656 C 934.886719 869.625 935.3125 868.515625 935.714844 867.398438 C 936.113281 866.277344 936.484375 865.148438 936.832031 864.011719 C 937.175781 862.875 937.492188 861.730469 937.78125 860.578125 C 938.070312 859.421875 938.332031 858.265625 938.5625 857.097656 C 938.796875 855.933594 939 854.761719 939.175781 853.585938 C 939.351562 852.410156 939.496094 851.234375 939.613281 850.050781 C 939.734375 848.867188 939.820312 847.683594 939.882812 846.496094 C 939.941406 845.308594 939.972656 844.121094 939.976562 842.933594 L 939.976562 197.984375 C 939.980469 196.789062 939.953125 195.589844 939.898438 194.390625 C 939.839844 193.195312 939.753906 192 939.640625 190.808594 C 939.523438 189.613281 939.382812 188.425781 939.207031 187.238281 C 939.035156 186.050781 938.832031 184.871094 938.601562 183.695312 C 938.371094 182.519531 938.109375 181.351562 937.820312 180.1875 C 937.53125 179.023438 937.214844 177.867188 936.871094 176.71875 C 936.523438 175.574219 936.152344 174.433594 935.75 173.304688 C 935.347656 172.175781 934.921875 171.054688 934.464844 169.949219 C 934.007812 168.839844 933.523438 167.742188 933.015625 166.660156 C 932.503906 165.574219 931.96875 164.503906 931.40625 163.445312 C 930.84375 162.386719 930.253906 161.34375 929.640625 160.3125 C 929.027344 159.285156 928.386719 158.269531 927.722656 157.273438 C 927.058594 156.273438 926.371094 155.292969 925.660156 154.328125 C 924.949219 153.363281 924.214844 152.417969 923.457031 151.488281 C 922.695312 150.5625 921.917969 149.652344 921.113281 148.761719 C 920.3125 147.875 919.484375 147.003906 918.640625 146.152344 C 917.796875 145.304688 916.929688 144.476562 916.042969 143.667969 C 915.15625 142.863281 914.25 142.078125 913.328125 141.316406 C 912.402344 140.554688 911.457031 139.8125 910.496094 139.097656 C 909.535156 138.382812 908.558594 137.691406 907.5625 137.023438 C 906.566406 136.355469 905.558594 135.710938 904.53125 135.09375 C 903.503906 134.472656 902.460938 133.882812 901.40625 133.3125 C 900.351562 132.746094 899.28125 132.207031 898.199219 131.691406 C 897.117188 131.175781 896.023438 130.6875 894.917969 130.226562 C 893.808594 129.765625 892.695312 129.332031 891.566406 128.925781 C 890.4375 128.519531 889.300781 128.140625 888.15625 127.789062 C 887.007812 127.441406 885.855469 127.117188 884.691406 126.824219 C 883.53125 126.53125 882.363281 126.265625 881.1875 126.027344 C 880.011719 125.792969 878.832031 125.585938 877.648438 125.40625 C 876.460938 125.226562 875.273438 125.078125 874.082031 124.957031 C 872.886719 124.839844 871.695312 124.75 870.496094 124.6875 C 869.300781 124.625 868.101562 124.59375 866.902344 124.589844 Z M 614.847656 85.316406 C 614.847656 84.585938 614.917969 83.859375 615.058594 83.140625 C 615.203125 82.417969 615.410156 81.722656 615.691406 81.042969 C 615.96875 80.363281 616.308594 79.71875 616.710938 79.109375 C 617.117188 78.496094 617.578125 77.929688 618.089844 77.40625 C 618.605469 76.886719 619.164062 76.417969 619.769531 76.003906 C 620.378906 75.59375 621.015625 75.242188 621.691406 74.953125 C 622.367188 74.667969 623.0625 74.445312 623.777344 74.292969 C 624.496094 74.140625 625.222656 74.0625 625.953125 74.050781 L 679.550781 74.050781 C 680.289062 74.0625 681.015625 74.140625 681.738281 74.292969 C 682.460938 74.445312 683.160156 74.664062 683.839844 74.949219 C 684.519531 75.238281 685.164062 75.585938 685.773438 75.996094 C 686.386719 76.410156 686.953125 76.875 687.472656 77.398438 C 687.992188 77.917969 688.460938 78.484375 688.871094 79.09375 C 689.28125 79.707031 689.632812 80.351562 689.917969 81.03125 C 690.207031 81.710938 690.425781 82.410156 690.574219 83.128906 C 690.726562 83.851562 690.808594 84.582031 690.820312 85.316406 L 690.820312 101.414062 L 614.847656 90.144531 Z M 190.25 197.984375 L 190.25 795.773438 L 85.304688 779.675781 C 83.476562 779.398438 81.667969 779.03125 79.875 778.574219 C 78.085938 778.117188 76.320312 777.570312 74.582031 776.941406 C 72.84375 776.308594 71.140625 775.59375 69.472656 774.796875 C 67.804688 773.996094 66.179688 773.117188 64.601562 772.160156 C 63.019531 771.203125 61.488281 770.167969 60.007812 769.058594 C 58.53125 767.949219 57.109375 766.769531 55.746094 765.519531 C 54.382812 764.269531 53.082031 762.957031 51.847656 761.582031 C 50.617188 760.203125 49.453125 758.769531 48.359375 757.277344 C 47.265625 755.785156 46.25 754.242188 45.308594 752.652344 C 44.367188 751.058594 43.507812 749.425781 42.726562 747.75 C 41.949219 746.074219 41.253906 744.363281 40.640625 742.617188 C 40.03125 740.871094 39.503906 739.101562 39.066406 737.304688 C 38.632812 735.507812 38.285156 733.695312 38.023438 731.863281 C 37.765625 730.03125 37.597656 728.191406 37.519531 726.34375 C 37.445312 724.496094 37.457031 722.652344 37.5625 720.804688 C 37.667969 718.957031 37.859375 717.121094 38.144531 715.296875 L 129.730469 105.277344 C 130.277344 101.714844 131.160156 98.242188 132.378906 94.855469 C 133.601562 91.464844 135.132812 88.226562 136.984375 85.136719 C 138.832031 82.046875 140.960938 79.164062 143.367188 76.484375 C 145.777344 73.808594 148.417969 71.386719 151.296875 69.222656 C 154.253906 67.023438 157.402344 65.144531 160.738281 63.578125 C 164.074219 62.011719 167.53125 60.792969 171.113281 59.921875 C 174.691406 59.050781 178.324219 58.546875 182.007812 58.40625 C 185.6875 58.261719 189.347656 58.488281 192.984375 59.082031 L 630.941406 124.589844 L 263.964844 124.589844 C 262.761719 124.578125 261.554688 124.597656 260.351562 124.648438 C 259.144531 124.695312 257.941406 124.777344 256.742188 124.882812 C 255.539062 124.992188 254.339844 125.132812 253.148438 125.300781 C 251.953125 125.46875 250.765625 125.664062 249.578125 125.890625 C 248.394531 126.117188 247.214844 126.375 246.042969 126.660156 C 244.875 126.945312 243.710938 127.257812 242.554688 127.601562 C 241.394531 127.945312 240.25 128.316406 239.113281 128.714844 C 237.972656 129.113281 236.847656 129.542969 235.730469 129.996094 C 234.613281 130.453125 233.507812 130.933594 232.414062 131.445312 C 231.324219 131.957031 230.242188 132.492188 229.175781 133.054688 C 228.109375 133.621094 227.058594 134.207031 226.023438 134.824219 C 224.984375 135.441406 223.964844 136.082031 222.957031 136.746094 C 221.953125 137.414062 220.964844 138.105469 219.992188 138.820312 C 219.023438 139.535156 218.070312 140.273438 217.136719 141.035156 C 216.199219 141.796875 215.285156 142.582031 214.390625 143.390625 C 213.492188 144.199219 212.617188 145.027344 211.765625 145.878906 C 210.910156 146.726562 210.078125 147.601562 209.265625 148.492188 C 208.453125 149.382812 207.664062 150.296875 206.898438 151.226562 C 206.132812 152.160156 205.390625 153.109375 204.667969 154.074219 C 203.949219 155.042969 203.253906 156.027344 202.585938 157.03125 C 201.914062 158.035156 201.269531 159.050781 200.648438 160.085938 C 200.027344 161.121094 199.433594 162.171875 198.867188 163.234375 C 198.296875 164.296875 197.757812 165.375 197.242188 166.464844 C 196.726562 167.554688 196.238281 168.660156 195.777344 169.773438 C 195.320312 170.886719 194.886719 172.011719 194.480469 173.148438 C 194.078125 174.285156 193.699219 175.429688 193.351562 176.585938 C 193.003906 177.742188 192.6875 178.902344 192.394531 180.074219 C 192.105469 181.246094 191.84375 182.421875 191.613281 183.605469 C 191.378906 184.789062 191.179688 185.976562 191.003906 187.171875 C 190.832031 188.363281 190.6875 189.5625 190.574219 190.761719 C 190.460938 191.960938 190.375 193.164062 190.320312 194.371094 C 190.269531 195.574219 190.242188 196.78125 190.25 197.984375 Z M 908.914062 842.933594 C 908.90625 844.304688 908.835938 845.671875 908.695312 847.039062 C 908.554688 848.40625 908.351562 849.761719 908.078125 851.105469 C 907.804688 852.449219 907.46875 853.777344 907.066406 855.089844 C 906.664062 856.402344 906.199219 857.691406 905.667969 858.960938 C 905.140625 860.226562 904.550781 861.464844 903.898438 862.671875 C 903.25 863.878906 902.542969 865.054688 901.777344 866.195312 C 901.011719 867.332031 900.191406 868.433594 899.320312 869.492188 C 898.445312 870.550781 897.523438 871.566406 896.550781 872.535156 C 895.578125 873.5 894.5625 874.421875 893.5 875.289062 C 892.4375 876.160156 891.335938 876.972656 890.191406 877.734375 C 889.050781 878.496094 887.875 879.199219 886.664062 879.84375 C 885.449219 880.488281 884.210938 881.074219 882.941406 881.597656 C 881.675781 882.121094 880.382812 882.582031 879.070312 882.980469 C 877.753906 883.378906 876.425781 883.710938 875.078125 883.976562 C 873.734375 884.246094 872.375 884.445312 871.011719 884.578125 C 869.644531 884.714844 868.277344 884.78125 866.902344 884.78125 L 263.964844 884.78125 C 262.59375 884.78125 261.222656 884.714844 259.859375 884.578125 C 258.492188 884.445312 257.136719 884.246094 255.789062 883.976562 C 254.445312 883.710938 253.113281 883.378906 251.800781 882.980469 C 250.488281 882.582031 249.195312 882.121094 247.925781 881.597656 C 246.660156 881.074219 245.417969 880.488281 244.207031 879.84375 C 242.996094 879.199219 241.820312 878.496094 240.675781 877.734375 C 239.535156 876.972656 238.433594 876.160156 237.371094 875.289062 C 236.308594 874.421875 235.289062 873.503906 234.316406 872.535156 C 233.34375 871.566406 232.421875 870.550781 231.550781 869.492188 C 230.675781 868.433594 229.859375 867.332031 229.09375 866.195312 C 228.328125 865.054688 227.621094 863.882812 226.96875 862.671875 C 226.320312 861.464844 225.730469 860.226562 225.199219 858.960938 C 224.671875 857.691406 224.207031 856.402344 223.804688 855.089844 C 223.402344 853.777344 223.0625 852.449219 222.792969 851.105469 C 222.519531 849.761719 222.3125 848.40625 222.175781 847.039062 C 222.035156 845.675781 221.960938 844.304688 221.957031 842.933594 L 221.957031 197.984375 C 221.953125 196.605469 222.015625 195.230469 222.144531 193.859375 C 222.273438 192.484375 222.472656 191.121094 222.738281 189.769531 C 223 188.414062 223.332031 187.078125 223.726562 185.753906 C 224.125 184.433594 224.585938 183.136719 225.109375 181.859375 C 225.632812 180.585938 226.21875 179.335938 226.863281 178.121094 C 227.511719 176.902344 228.21875 175.71875 228.980469 174.570312 C 229.742188 173.421875 230.5625 172.3125 231.433594 171.246094 C 232.308594 170.175781 233.230469 169.152344 234.203125 168.175781 C 235.175781 167.199219 236.195312 166.273438 237.261719 165.394531 C 238.324219 164.519531 239.429688 163.695312 240.578125 162.929688 C 241.722656 162.160156 242.902344 161.453125 244.117188 160.800781 C 245.335938 160.148438 246.578125 159.558594 247.851562 159.027344 C 249.125 158.5 250.421875 158.035156 251.742188 157.632812 C 253.0625 157.230469 254.398438 156.898438 255.75 156.625 C 257.101562 156.355469 258.464844 156.15625 259.839844 156.019531 C 261.210938 155.882812 262.585938 155.816406 263.964844 155.816406 L 690.820312 155.816406 L 690.820312 271.21875 C 690.820312 271.960938 690.746094 272.691406 690.601562 273.417969 C 690.457031 274.144531 690.242188 274.847656 689.960938 275.53125 C 689.675781 276.214844 689.332031 276.863281 688.917969 277.480469 C 688.507812 278.09375 688.042969 278.664062 687.519531 279.1875 C 686.996094 279.710938 686.425781 280.175781 685.8125 280.589844 C 685.195312 281 684.546875 281.347656 683.863281 281.628906 C 683.179688 281.914062 682.476562 282.125 681.75 282.269531 C 681.023438 282.414062 680.292969 282.488281 679.550781 282.488281 C 678.8125 282.488281 678.078125 282.414062 677.355469 282.269531 C 676.628906 282.125 675.921875 281.914062 675.238281 281.628906 C 674.554688 281.347656 673.90625 281 673.292969 280.589844 C 672.675781 280.175781 672.109375 279.710938 671.585938 279.1875 C 671.0625 278.664062 670.59375 278.09375 670.183594 277.480469 C 669.773438 276.863281 669.425781 276.214844 669.140625 275.53125 C 668.859375 274.847656 668.644531 274.144531 668.5 273.417969 C 668.355469 272.691406 668.285156 271.960938 668.285156 271.21875 L 668.285156 194.285156 C 668.445312 193.6875 668.574219 193.085938 668.667969 192.476562 C 668.757812 191.867188 668.816406 191.253906 668.835938 190.640625 C 668.859375 190.023438 668.847656 189.410156 668.796875 188.792969 C 668.75 188.179688 668.664062 187.570312 668.546875 186.964844 C 668.429688 186.359375 668.277344 185.765625 668.089844 185.175781 C 667.902344 184.589844 667.679688 184.015625 667.429688 183.453125 C 667.175781 182.890625 666.890625 182.34375 666.574219 181.816406 C 666.257812 181.285156 665.914062 180.777344 665.539062 180.289062 C 665.164062 179.796875 664.765625 179.332031 664.335938 178.886719 C 663.90625 178.445312 663.457031 178.027344 662.980469 177.632812 C 662.503906 177.242188 662.007812 176.878906 661.488281 176.546875 C 660.972656 176.210938 660.4375 175.90625 659.882812 175.632812 C 659.332031 175.359375 658.765625 175.121094 658.183594 174.910156 C 657.605469 174.703125 657.015625 174.53125 656.414062 174.390625 C 655.8125 174.25 655.207031 174.144531 654.597656 174.074219 C 653.984375 174.003906 653.367188 173.96875 652.753906 173.96875 C 652.136719 173.96875 651.523438 174.003906 650.910156 174.074219 C 650.296875 174.144531 649.691406 174.25 649.089844 174.390625 C 648.492188 174.53125 647.898438 174.703125 647.320312 174.910156 C 646.738281 175.121094 646.171875 175.359375 645.621094 175.632812 C 645.070312 175.90625 644.535156 176.210938 644.015625 176.546875 C 643.496094 176.878906 643 177.242188 642.523438 177.632812 C 642.050781 178.027344 641.597656 178.445312 641.167969 178.886719 C 640.742188 179.332031 640.339844 179.796875 639.964844 180.289062 C 639.589844 180.777344 639.246094 181.285156 638.929688 181.816406 C 638.613281 182.34375 638.332031 182.890625 638.078125 183.453125 C 637.824219 184.015625 637.605469 184.589844 637.417969 185.175781 C 637.230469 185.765625 637.078125 186.359375 636.957031 186.964844 C 636.839844 187.570312 636.757812 188.179688 636.707031 188.792969 C 636.660156 189.410156 636.644531 190.023438 636.667969 190.640625 C 636.691406 191.253906 636.746094 191.867188 636.839844 192.476562 C 636.933594 193.085938 637.058594 193.6875 637.21875 194.285156 L 637.21875 271.21875 C 637.21875 272.605469 637.289062 273.988281 637.425781 275.371094 C 637.558594 276.75 637.761719 278.117188 638.035156 279.480469 C 638.304688 280.839844 638.640625 282.183594 639.042969 283.507812 C 639.445312 284.835938 639.914062 286.140625 640.441406 287.417969 C 640.972656 288.699219 641.566406 289.953125 642.21875 291.175781 C 642.871094 292.398438 643.585938 293.585938 644.355469 294.738281 C 645.125 295.890625 645.949219 297.003906 646.828125 298.074219 C 647.707031 299.148438 648.640625 300.171875 649.617188 301.152344 C 650.597656 302.132812 651.625 303.0625 652.695312 303.941406 C 653.769531 304.824219 654.882812 305.648438 656.035156 306.417969 C 657.1875 307.1875 658.375 307.898438 659.597656 308.554688 C 660.820312 309.207031 662.070312 309.796875 663.351562 310.328125 C 664.632812 310.859375 665.9375 311.328125 667.261719 311.730469 C 668.589844 312.132812 669.933594 312.46875 671.292969 312.738281 C 672.652344 313.007812 674.023438 313.210938 675.402344 313.347656 C 676.78125 313.484375 678.164062 313.550781 679.550781 313.550781 C 680.9375 313.550781 682.320312 313.484375 683.699219 313.347656 C 685.082031 313.210938 686.449219 313.007812 687.808594 312.738281 C 689.167969 312.46875 690.511719 312.132812 691.839844 311.730469 C 693.167969 311.328125 694.46875 310.859375 695.75 310.328125 C 697.03125 309.796875 698.285156 309.207031 699.507812 308.554688 C 700.730469 307.898438 701.917969 307.1875 703.070312 306.417969 C 704.222656 305.648438 705.335938 304.824219 706.40625 303.941406 C 707.476562 303.0625 708.503906 302.132812 709.484375 301.152344 C 710.464844 300.171875 711.394531 299.148438 712.273438 298.074219 C 713.152344 297.003906 713.976562 295.890625 714.75 294.738281 C 715.519531 293.585938 716.230469 292.398438 716.882812 291.175781 C 717.539062 289.953125 718.128906 288.699219 718.660156 287.417969 C 719.191406 286.140625 719.65625 284.835938 720.058594 283.507812 C 720.460938 282.183594 720.800781 280.839844 721.070312 279.480469 C 721.339844 278.117188 721.542969 276.75 721.679688 275.371094 C 721.816406 273.988281 721.882812 272.605469 721.882812 271.21875 L 721.882812 155.816406 L 866.742188 155.816406 C 868.125 155.808594 869.503906 155.875 870.878906 156.003906 C 872.257812 156.136719 873.625 156.332031 874.980469 156.597656 C 876.335938 156.863281 877.675781 157.195312 879 157.59375 C 880.324219 157.992188 881.625 158.457031 882.90625 158.984375 C 884.183594 159.507812 885.433594 160.097656 886.652344 160.746094 C 887.875 161.398438 889.058594 162.105469 890.210938 162.871094 C 891.359375 163.640625 892.46875 164.460938 893.539062 165.339844 C 894.609375 166.214844 895.632812 167.140625 896.609375 168.121094 C 897.585938 169.097656 898.511719 170.121094 899.390625 171.191406 C 900.265625 172.257812 901.089844 173.367188 901.855469 174.519531 C 902.621094 175.667969 903.332031 176.855469 903.980469 178.074219 C 904.628906 179.296875 905.21875 180.542969 905.746094 181.824219 C 906.273438 183.101562 906.734375 184.402344 907.132812 185.726562 C 907.53125 187.050781 907.863281 188.390625 908.128906 189.746094 C 908.394531 191.105469 908.59375 192.472656 908.722656 193.847656 C 908.855469 195.222656 908.917969 196.601562 908.914062 197.984375 Z M 908.914062 842.933594 " fill-opacity="1" fill-rule="nonzero"/></g><path fill="#ff3131" d="M 794.152344 375.035156 L 365.367188 377.933594 C 364.519531 378.164062 363.699219 378.460938 362.902344 378.824219 C 362.101562 379.191406 361.339844 379.617188 360.609375 380.105469 C 359.882812 380.597656 359.199219 381.140625 358.558594 381.742188 C 357.921875 382.34375 357.335938 382.992188 356.800781 383.691406 C 356.269531 384.386719 355.796875 385.121094 355.382812 385.898438 C 354.972656 386.671875 354.625 387.472656 354.34375 388.304688 C 354.0625 389.136719 353.851562 389.984375 353.707031 390.851562 C 353.566406 391.714844 353.492188 392.589844 353.492188 393.464844 C 353.492188 394.34375 353.566406 395.214844 353.707031 396.082031 C 353.851562 396.945312 354.0625 397.792969 354.34375 398.625 C 354.625 399.457031 354.972656 400.261719 355.382812 401.035156 C 355.796875 401.808594 356.269531 402.542969 356.800781 403.242188 C 357.335938 403.9375 357.921875 404.585938 358.558594 405.1875 C 359.199219 405.789062 359.882812 406.335938 360.609375 406.824219 C 361.339844 407.3125 362.101562 407.742188 362.902344 408.105469 C 363.699219 408.46875 364.519531 408.769531 365.367188 408.996094 L 795.117188 406.261719 C 795.964844 406.03125 796.785156 405.734375 797.585938 405.371094 C 798.382812 405.003906 799.144531 404.578125 799.875 404.089844 C 800.601562 403.597656 801.285156 403.054688 801.925781 402.453125 C 802.5625 401.851562 803.148438 401.203125 803.683594 400.503906 C 804.214844 399.808594 804.6875 399.074219 805.101562 398.296875 C 805.515625 397.523438 805.859375 396.722656 806.140625 395.890625 C 806.421875 395.058594 806.636719 394.210938 806.777344 393.34375 C 806.921875 392.480469 806.992188 391.605469 806.992188 390.730469 C 806.992188 389.851562 806.921875 388.980469 806.777344 388.113281 C 806.636719 387.25 806.421875 386.402344 806.140625 385.570312 C 805.859375 384.738281 805.515625 383.9375 805.101562 383.160156 C 804.6875 382.386719 804.214844 381.652344 803.683594 380.953125 C 803.148438 380.257812 802.5625 379.609375 801.925781 379.007812 C 801.285156 378.40625 800.601562 377.859375 799.875 377.371094 C 799.144531 376.882812 798.382812 376.453125 797.585938 376.089844 C 796.785156 375.726562 795.964844 375.425781 795.117188 375.199219 Z M 794.152344 375.035156 " fill-opacity="1" fill-rule="nonzero"/><path fill="#ff3131" d="M 794.152344 534.222656 L 365.367188 537.117188 C 364.519531 537.347656 363.699219 537.644531 362.902344 538.011719 C 362.101562 538.375 361.339844 538.800781 360.609375 539.292969 C 359.882812 539.78125 359.199219 540.324219 358.558594 540.925781 C 357.921875 541.527344 357.335938 542.175781 356.800781 542.875 C 356.269531 543.570312 355.796875 544.308594 355.382812 545.082031 C 354.972656 545.855469 354.625 546.660156 354.34375 547.488281 C 354.0625 548.320312 353.851562 549.167969 353.707031 550.035156 C 353.566406 550.902344 353.492188 551.773438 353.492188 552.648438 C 353.492188 553.527344 353.566406 554.398438 353.707031 555.265625 C 353.851562 556.128906 354.0625 556.980469 354.34375 557.808594 C 354.625 558.640625 354.972656 559.445312 355.382812 560.21875 C 355.796875 560.992188 356.269531 561.730469 356.800781 562.425781 C 357.335938 563.121094 357.921875 563.773438 358.558594 564.375 C 359.199219 564.972656 359.882812 565.519531 360.609375 566.007812 C 361.339844 566.5 362.101562 566.925781 362.902344 567.289062 C 363.699219 567.65625 364.519531 567.953125 365.367188 568.183594 L 795.117188 565.285156 C 795.964844 565.054688 796.785156 564.757812 797.585938 564.394531 C 798.382812 564.027344 799.144531 563.601562 799.875 563.113281 C 800.601562 562.621094 801.285156 562.078125 801.925781 561.476562 C 802.5625 560.875 803.148438 560.226562 803.683594 559.527344 C 804.214844 558.832031 804.6875 558.097656 805.101562 557.320312 C 805.515625 556.546875 805.859375 555.746094 806.140625 554.914062 C 806.421875 554.082031 806.636719 553.234375 806.777344 552.367188 C 806.921875 551.503906 806.992188 550.628906 806.992188 549.753906 C 806.992188 548.875 806.921875 548.003906 806.777344 547.136719 C 806.636719 546.273438 806.421875 545.425781 806.140625 544.59375 C 805.859375 543.761719 805.515625 542.957031 805.101562 542.183594 C 804.6875 541.410156 804.214844 540.675781 803.683594 539.976562 C 803.148438 539.28125 802.5625 538.632812 801.925781 538.03125 C 801.285156 537.429688 800.601562 536.882812 799.875 536.394531 C 799.144531 535.90625 798.382812 535.476562 797.585938 535.113281 C 796.785156 534.75 795.964844 534.449219 795.117188 534.222656 Z M 794.152344 534.222656 " fill-opacity="1" fill-rule="nonzero"/><path fill="#ff3131" d="M 794.152344 693.246094 L 365.367188 696.945312 C 364.839844 696.945312 364.316406 696.972656 363.789062 697.023438 C 363.265625 697.074219 362.746094 697.152344 362.226562 697.253906 C 361.710938 697.359375 361.199219 697.488281 360.695312 697.640625 C 360.191406 697.792969 359.695312 697.96875 359.207031 698.171875 C 358.722656 698.375 358.246094 698.597656 357.78125 698.847656 C 357.316406 699.09375 356.863281 699.367188 356.425781 699.660156 C 355.988281 699.953125 355.5625 700.265625 355.15625 700.601562 C 354.75 700.933594 354.359375 701.289062 353.988281 701.660156 C 353.613281 702.035156 353.261719 702.421875 352.925781 702.832031 C 352.589844 703.238281 352.277344 703.660156 351.984375 704.097656 C 351.691406 704.539062 351.421875 704.988281 351.171875 705.453125 C 350.925781 705.917969 350.699219 706.394531 350.496094 706.882812 C 350.296875 707.371094 350.117188 707.863281 349.964844 708.371094 C 349.8125 708.875 349.683594 709.382812 349.582031 709.902344 C 349.480469 710.417969 349.402344 710.941406 349.351562 711.464844 C 349.296875 711.988281 349.273438 712.515625 349.273438 713.042969 C 349.273438 713.570312 349.296875 714.09375 349.351562 714.621094 C 349.402344 715.144531 349.480469 715.664062 349.582031 716.183594 C 349.683594 716.699219 349.8125 717.210938 349.964844 717.714844 C 350.117188 718.21875 350.296875 718.714844 350.496094 719.203125 C 350.699219 719.6875 350.925781 720.164062 351.171875 720.628906 C 351.421875 721.09375 351.691406 721.546875 351.984375 721.984375 C 352.277344 722.421875 352.589844 722.84375 352.925781 723.253906 C 353.261719 723.660156 353.613281 724.050781 353.988281 724.421875 C 354.359375 724.796875 354.75 725.148438 355.15625 725.484375 C 355.5625 725.816406 355.988281 726.132812 356.425781 726.425781 C 356.863281 726.71875 357.316406 726.988281 357.78125 727.238281 C 358.246094 727.484375 358.722656 727.710938 359.207031 727.910156 C 359.695312 728.113281 360.191406 728.292969 360.695312 728.445312 C 361.199219 728.597656 361.710938 728.726562 362.226562 728.828125 C 362.746094 728.929688 363.265625 729.007812 363.789062 729.058594 C 364.316406 729.113281 364.839844 729.136719 365.367188 729.136719 L 795.117188 724.308594 C 795.710938 724.46875 796.3125 724.597656 796.921875 724.691406 C 797.53125 724.78125 798.144531 724.839844 798.761719 724.863281 C 799.378906 724.882812 799.992188 724.871094 800.609375 724.820312 C 801.222656 724.773438 801.832031 724.691406 802.4375 724.570312 C 803.042969 724.453125 803.636719 724.300781 804.226562 724.113281 C 804.8125 723.925781 805.386719 723.707031 805.949219 723.453125 C 806.511719 723.199219 807.054688 722.914062 807.585938 722.597656 C 808.113281 722.28125 808.625 721.9375 809.113281 721.5625 C 809.605469 721.1875 810.070312 720.789062 810.515625 720.359375 C 810.957031 719.933594 811.375 719.480469 811.765625 719.003906 C 812.160156 718.527344 812.519531 718.03125 812.855469 717.511719 C 813.191406 716.996094 813.496094 716.460938 813.769531 715.90625 C 814.039062 715.355469 814.28125 714.789062 814.488281 714.210938 C 814.699219 713.628906 814.871094 713.039062 815.011719 712.4375 C 815.152344 711.839844 815.257812 711.230469 815.328125 710.621094 C 815.398438 710.007812 815.433594 709.394531 815.433594 708.777344 C 815.433594 708.160156 815.398438 707.546875 815.328125 706.933594 C 815.257812 706.320312 815.152344 705.714844 815.011719 705.113281 C 814.871094 704.515625 814.699219 703.925781 814.488281 703.34375 C 814.28125 702.765625 814.039062 702.199219 813.769531 701.644531 C 813.496094 701.09375 813.191406 700.558594 812.855469 700.039062 C 812.523438 699.523438 812.160156 699.023438 811.765625 698.550781 C 811.375 698.074219 810.957031 697.621094 810.515625 697.191406 C 810.070312 696.765625 809.605469 696.363281 809.113281 695.988281 C 808.625 695.617188 808.113281 695.269531 807.585938 694.953125 C 807.054688 694.636719 806.511719 694.355469 805.949219 694.101562 C 805.386719 693.847656 804.8125 693.628906 804.226562 693.441406 C 803.636719 693.253906 803.042969 693.101562 802.4375 692.980469 C 801.832031 692.863281 801.222656 692.78125 800.609375 692.730469 C 799.992188 692.683594 799.378906 692.667969 798.761719 692.691406 C 798.144531 692.714844 797.53125 692.769531 796.921875 692.863281 C 796.3125 692.957031 795.710938 693.082031 795.117188 693.246094 Z M 794.152344 693.246094 " fill-opacity="1" fill-rule="nonzero"/></svg>