<svg xmlns="http://www.w3.org/2000/svg" xmlns:xlink="http://www.w3.org/1999/xlink" width="1254" zoomAndPan="magnify" viewBox="0 0 940.5 940.499971" height="1254" preserveAspectRatio="xMidYMid meet" version="1.0"><path fill="#000000" d="M 621.621094 416.351562 C 600.246094 371.734375 557.382812 365.460938 522.261719 369.222656 C 558.066406 337.902344 554.984375 289.59375 554.933594 288.929688 C 554.726562 285.390625 551.292969 282.5 547.753906 283.011719 C 490.21875 289.679688 468.84375 326.613281 460.914062 354.757812 C 454.511719 338.933594 443.363281 321.714844 424.113281 314.398438 C 420.777344 313.132812 417.050781 314.808594 415.785156 318.136719 C 414.519531 321.472656 416.195312 325.199219 419.523438 326.464844 C 443.414062 335.542969 452.191406 366.113281 455.058594 380.488281 C 415.8125 370.9375 340.460938 345.730469 303.832031 416.351562 C 286.113281 453.347656 286.492188 506.714844 304.820312 555.621094 C 322.433594 602.609375 353.234375 637.578125 391.550781 654.089844 C 401.265625 658.277344 412.800781 658.386719 423.203125 654.390625 L 447.273438 645.136719 C 471.210938 634.179688 494.636719 656.917969 517.925781 657.3125 C 523.460938 657.308594 528.925781 656.234375 533.902344 654.089844 C 614.777344 622.539062 658.34375 490.699219 621.621094 416.351562 Z M 542.117188 296.863281 C 541.410156 315.882812 533.5 367.566406 469.328125 379.855469 C 470.59375 360.214844 479.839844 307.722656 542.117188 296.863281 Z M 608.546875 551.089844 C 592.175781 594.757812 563.855469 627.125 528.796875 642.230469 C 522.148438 645.101562 514.160156 645.136719 506.886719 642.339844 L 482.8125 633.089844 C 469.859375 628.105469 455.59375 628.105469 442.640625 633.085938 C 442.640625 633.085938 418.570312 642.339844 418.570312 642.339844 C 411.300781 645.132812 403.304688 645.097656 396.65625 642.230469 C 322.496094 613.433594 281.851562 489.785156 315.476562 421.929688 C 341.371094 367.867188 404.667969 378.953125 440.085938 390.355469 C 454.898438 395.128906 470.554688 395.128906 485.367188 390.355469 C 520.792969 378.953125 584.085938 367.867188 609.976562 421.929688 C 626.230469 455.867188 625.6875 505.363281 608.546875 551.089844 Z M 608.546875 551.089844 " fill-opacity="1" fill-rule="nonzero"/><path fill="#000000" d="M 360.847656 400.289062 C 347.503906 407.070312 337.195312 417.898438 330.214844 432.480469 C 326.179688 440.898438 323.21875 450.421875 321.410156 460.773438 C 320.800781 464.289062 323.152344 467.628906 326.660156 468.242188 C 330.09375 468.859375 333.53125 466.527344 334.132812 462.992188 C 337.644531 441.859375 347.792969 421.050781 366.695312 411.800781 C 374.175781 407.859375 368.5 396.570312 360.847656 400.289062 Z M 360.847656 400.289062 " fill-opacity="1" fill-rule="nonzero"/></svg>