<svg xmlns="http://www.w3.org/2000/svg" xmlns:xlink="http://www.w3.org/1999/xlink" width="1254" zoomAndPan="magnify" viewBox="0 0 940.5 940.499971" height="1254" preserveAspectRatio="xMidYMid meet" version="1.0"><defs><clipPath id="f98b02895c"><path d="M 219 140.628906 L 730.847656 140.628906 L 730.847656 834.761719 L 219 834.761719 Z M 219 140.628906 " clip-rule="nonzero"/></clipPath><clipPath id="250df321b1"><path d="M 643.574219 54.46875 L 939.667969 54.46875 L 939.667969 456.253906 L 643.574219 456.253906 Z M 643.574219 54.46875 " clip-rule="nonzero"/></clipPath><clipPath id="f893d643e5"><path d="M 0 54.46875 L 296.09375 54.46875 L 296.09375 456.253906 L 0 456.253906 Z M 0 54.46875 " clip-rule="nonzero"/></clipPath></defs><g clip-path="url(#f98b02895c)"><path fill="#d9d9d9" d="M 474.746094 834.554688 C 333.746094 834.554688 219.050781 719.640625 219.050781 578.410156 C 219.050781 441.796875 451.679688 158.511719 461.570312 146.523438 C 468.074219 138.683594 481.417969 138.648438 487.921875 146.523438 C 497.8125 158.511719 730.460938 441.796875 730.460938 578.410156 C 730.460938 719.640625 615.746094 834.554688 474.746094 834.554688 Z M 474.746094 184.632812 C 425.230469 246.992188 253.207031 471.367188 253.207031 578.410156 C 253.207031 700.8125 352.59375 800.398438 474.746094 800.398438 C 596.898438 800.398438 696.304688 700.8125 696.304688 578.410156 C 696.304688 471.367188 524.265625 246.992188 474.746094 184.632812 Z M 474.746094 184.632812 " fill-opacity="1" fill-rule="nonzero"/></g><path fill="#d9d9d9" d="M 328.828125 677.144531 C 323.140625 677.144531 317.570312 674.308594 314.335938 669.121094 C 255.808594 575.574219 320.890625 480.457031 348.675781 439.828125 L 350.609375 437.007812 C 355.964844 429.203125 366.570312 427.234375 374.34375 432.523438 C 382.132812 437.84375 384.148438 448.46875 378.828125 456.257812 L 376.863281 459.125 C 348.824219 500.101562 296.621094 576.40625 343.289062 651.007812 C 348.292969 659 345.875 669.539062 337.867188 674.542969 C 335.050781 676.3125 331.914062 677.144531 328.828125 677.144531 Z M 328.828125 677.144531 " fill-opacity="1" fill-rule="nonzero"/><path fill="#d9d9d9" d="M 575.167969 728.414062 C 569.445312 728.414062 563.859375 725.546875 560.625 720.324219 C 555.671875 712.300781 558.140625 701.777344 566.160156 696.808594 C 596.464844 678.046875 656.292969 593.386719 611.410156 513.914062 C 606.773438 505.691406 609.675781 495.265625 617.882812 490.628906 C 626.152344 486.011719 636.511719 488.894531 641.164062 497.101562 C 694.300781 591.21875 632.292969 696.039062 584.140625 725.863281 C 581.339844 727.597656 578.234375 728.414062 575.167969 728.414062 Z M 575.167969 728.414062 " fill-opacity="1" fill-rule="nonzero"/><g clip-path="url(#250df321b1)"><path fill="#d9d9d9" d="M 791.777344 456.390625 C 710.109375 456.390625 643.679688 389.832031 643.679688 308.03125 C 643.679688 228.902344 778.417969 64.828125 784.148438 57.878906 C 787.914062 53.339844 795.640625 53.320312 799.410156 57.878906 C 805.136719 64.828125 939.886719 228.902344 939.886719 308.03125 C 939.886719 389.832031 873.445312 456.390625 791.777344 456.390625 Z M 791.777344 79.953125 C 763.097656 116.074219 663.460938 246.03125 663.460938 308.03125 C 663.460938 378.925781 721.027344 436.605469 791.777344 436.605469 C 862.527344 436.605469 920.105469 378.925781 920.105469 308.03125 C 920.105469 246.03125 820.460938 116.074219 791.777344 79.953125 Z M 791.777344 79.953125 " fill-opacity="1" fill-rule="nonzero"/></g><path fill="#d9d9d9" d="M 707.261719 365.21875 C 703.96875 365.21875 700.742188 363.578125 698.867188 360.570312 C 664.96875 306.386719 702.664062 251.296875 718.757812 227.765625 L 719.878906 226.132812 C 722.980469 221.609375 729.121094 220.46875 733.625 223.53125 C 738.136719 226.613281 739.304688 232.769531 736.222656 237.28125 L 735.082031 238.941406 C 718.84375 262.675781 688.609375 306.871094 715.636719 350.082031 C 718.535156 354.707031 717.132812 360.8125 712.496094 363.710938 C 710.863281 364.734375 709.046875 365.21875 707.261719 365.21875 Z M 707.261719 365.21875 " fill-opacity="1" fill-rule="nonzero"/><path fill="#d9d9d9" d="M 849.941406 394.914062 C 846.628906 394.914062 843.390625 393.253906 841.519531 390.230469 C 838.648438 385.582031 840.078125 379.488281 844.726562 376.609375 C 862.277344 365.738281 896.929688 316.707031 870.933594 270.675781 C 868.25 265.914062 869.929688 259.875 874.683594 257.1875 C 879.472656 254.511719 885.472656 256.183594 888.167969 260.9375 C 918.945312 315.449219 883.027344 376.164062 855.140625 393.4375 C 853.515625 394.441406 851.71875 394.914062 849.941406 394.914062 Z M 849.941406 394.914062 " fill-opacity="1" fill-rule="nonzero"/><g clip-path="url(#f893d643e5)"><path fill="#d9d9d9" d="M 148.203125 456.390625 C 66.539062 456.390625 0.105469 389.832031 0.105469 308.03125 C 0.105469 228.902344 134.84375 64.828125 140.574219 57.878906 C 144.339844 53.339844 152.066406 53.320312 155.835938 57.878906 C 161.5625 64.828125 296.3125 228.902344 296.3125 308.03125 C 296.3125 389.832031 229.871094 456.390625 148.203125 456.390625 Z M 148.203125 79.953125 C 119.523438 116.074219 19.886719 246.03125 19.886719 308.03125 C 19.886719 378.925781 77.453125 436.605469 148.203125 436.605469 C 218.957031 436.605469 276.53125 378.925781 276.53125 308.03125 C 276.53125 246.03125 176.886719 116.074219 148.203125 79.953125 Z M 148.203125 79.953125 " fill-opacity="1" fill-rule="nonzero"/></g><path fill="#d9d9d9" d="M 63.6875 365.21875 C 60.394531 365.21875 57.167969 363.578125 55.292969 360.570312 C 21.394531 306.386719 59.089844 251.296875 75.183594 227.765625 L 76.304688 226.132812 C 79.40625 221.609375 85.546875 220.46875 90.050781 223.53125 C 94.5625 226.613281 95.730469 232.769531 92.648438 237.28125 L 91.507812 238.941406 C 75.269531 262.675781 45.035156 306.871094 72.0625 350.082031 C 74.960938 354.707031 73.558594 360.8125 68.921875 363.710938 C 67.289062 364.734375 65.476562 365.21875 63.6875 365.21875 Z M 63.6875 365.21875 " fill-opacity="1" fill-rule="nonzero"/><path fill="#d9d9d9" d="M 206.367188 394.914062 C 203.054688 394.914062 199.820312 393.253906 197.945312 390.230469 C 195.074219 385.582031 196.503906 379.488281 201.152344 376.609375 C 218.703125 365.738281 253.355469 316.707031 227.359375 270.675781 C 224.675781 265.914062 226.355469 259.875 231.109375 257.1875 C 235.898438 254.511719 241.898438 256.183594 244.59375 260.9375 C 275.371094 315.449219 239.453125 376.164062 211.566406 393.4375 C 209.941406 394.441406 208.144531 394.914062 206.367188 394.914062 Z M 206.367188 394.914062 " fill-opacity="1" fill-rule="nonzero"/></svg>