<svg xmlns="http://www.w3.org/2000/svg" xmlns:xlink="http://www.w3.org/1999/xlink" width="1254" zoomAndPan="magnify" viewBox="0 0 940.5 940.499971" height="1254" preserveAspectRatio="xMidYMid meet" version="1.0"><defs><clipPath id="c9eef257df"><path d="M 146 0 L 794.105469 0 L 794.105469 940 L 146 940 Z M 146 0 " clip-rule="nonzero"/></clipPath></defs><path fill="#d9d9d9" d="M 389.53125 667.828125 L 419.117188 667.828125 L 419.117188 857.855469 C 419.117188 863.542969 423.019531 868.421875 428.546875 869.722656 C 429.519531 870.046875 430.496094 870.046875 431.308594 870.046875 C 435.859375 870.046875 440.25 867.609375 442.199219 863.21875 L 562.976562 617.4375 C 564.929688 613.699219 564.601562 609.148438 562.488281 605.570312 C 560.214844 601.996094 556.3125 599.882812 552.085938 599.882812 L 522.5 599.882812 L 522.5 409.691406 C 522.5 404.003906 518.601562 399.125 513.074219 397.824219 C 507.546875 396.527344 501.855469 399.289062 499.417969 404.328125 L 378.640625 650.109375 C 376.691406 654.011719 377.015625 658.402344 379.128906 661.976562 C 381.402344 665.554688 385.304688 667.828125 389.53125 667.828125 Z M 389.53125 667.828125 " fill-opacity="1" fill-rule="nonzero"/><g clip-path="url(#c9eef257df)"><path fill="#d9d9d9" d="M 153.339844 582.976562 C 122.453125 694.976562 204.21875 805.675781 213.648438 817.867188 C 274.117188 896.378906 374.414062 939.78125 474.710938 939.78125 C 527.214844 939.78125 579.71875 927.917969 626.375 902.71875 C 687.980469 869.558594 735.121094 815.753906 766.660156 742.605469 C 837.695312 577.609375 755.441406 418.796875 738.210938 388.558594 C 735.449219 383.683594 729.597656 381.40625 724.230469 383.035156 C 718.703125 384.496094 715.128906 389.699219 715.453125 395.226562 C 716.265625 411.804688 714.316406 437.164062 700.5 463.496094 C 693.671875 476.503906 685.542969 486.90625 677.414062 495.035156 C 677.742188 446.59375 667.664062 402.378906 647.507812 363.527344 C 625.398438 321.101562 598.089844 297.691406 571.753906 275.097656 C 548.023438 254.777344 525.753906 235.597656 509.335938 203.574219 C 484.300781 154.644531 482.511719 91.574219 504.132812 16.148438 C 505.597656 11.433594 503.808594 6.230469 499.90625 3.144531 C 495.84375 0.0546875 490.476562 -0.269531 486.25 2.332031 C 425.292969 38.417969 385.304688 82.632812 366.9375 133.511719 C 355.234375 166.511719 354.90625 194.796875 354.582031 224.542969 C 354.257812 255.589844 353.933594 287.613281 341.253906 330.527344 C 333.777344 356.210938 323.210938 380.921875 309.71875 404.492188 C 304.515625 390.511719 296.0625 374.90625 281.59375 360.601562 C 250.058594 329.226562 211.695312 325.652344 196.742188 325.488281 L 196.578125 325.488281 C 192.515625 325.488281 188.613281 327.601562 186.339844 331.015625 C 184.226562 334.429688 183.738281 338.820312 185.527344 342.71875 C 196.742188 367.753906 202.917969 393.597656 203.894531 419.28125 C 205.519531 464.636719 190.078125 497.148438 175.285156 528.519531 C 167.15625 545.75 158.703125 563.632812 153.339844 582.976562 Z M 197.230469 538.921875 C 212.671875 506.574219 230.066406 469.835938 228.277344 418.46875 C 227.464844 396.199219 223.074219 373.769531 215.4375 351.984375 C 229.578125 354.910156 248.273438 361.902344 264.363281 377.832031 C 285.660156 398.964844 291.023438 423.996094 292.324219 437.164062 C 292.972656 442.203125 296.550781 446.429688 301.589844 447.730469 C 306.464844 449.03125 311.667969 446.917969 314.59375 442.691406 C 337.027344 409.855469 353.769531 374.417969 364.660156 337.519531 C 378.316406 291.191406 378.640625 255.914062 378.964844 224.867188 C 379.289062 195.933594 379.453125 170.898438 390.019531 141.800781 C 403.675781 103.601562 431.472656 69.464844 473.085938 39.878906 C 458.453125 108.316406 463.332031 167 487.550781 214.789062 C 506.082031 251.039062 531.441406 272.660156 555.824219 293.628906 C 580.535156 314.761719 606.054688 336.542969 625.886719 374.742188 C 647.667969 416.84375 656.445312 465.9375 651.730469 520.878906 C 651.40625 525.59375 653.683594 530.144531 657.746094 532.421875 C 661.8125 534.859375 666.851562 534.695312 670.75 532.097656 C 685.867188 521.855469 706.839844 503.8125 722.117188 474.875 C 728.621094 462.359375 732.847656 450.167969 735.609375 438.628906 C 761.457031 498.773438 795.269531 614.347656 744.226562 732.851562 C 714.964844 800.960938 671.402344 850.867188 614.832031 881.261719 C 491.453125 947.585938 316.707031 911.824219 232.992188 803.074219 C 224.375 791.695312 149.113281 690.097656 176.910156 589.476562 C 181.625 572.085938 189.265625 555.992188 197.230469 538.921875 Z M 197.230469 538.921875 " fill-opacity="1" fill-rule="nonzero"/></g></svg>