<svg xmlns="http://www.w3.org/2000/svg" xmlns:xlink="http://www.w3.org/1999/xlink" width="1254" zoomAndPan="magnify" viewBox="0 0 940.5 940.499971" height="1254" preserveAspectRatio="xMidYMid meet" version="1.0"><defs><clipPath id="a30749474b"><path d="M 157 0 L 782.78125 0 L 782.78125 940 L 157 940 Z M 157 0 " clip-rule="nonzero"/></clipPath></defs><g clip-path="url(#a30749474b)"><path fill="#d9d9d9" d="M 679.460938 335.621094 L 572.851562 322.972656 C 582.238281 320.753906 591.425781 317.890625 600.410156 314.382812 C 612.488281 309.679688 624.007812 302.449219 634.644531 292.890625 C 643.492188 284.839844 651.308594 275.890625 658.09375 266.035156 C 670.214844 248.632812 675.980469 233.796875 676.222656 233.171875 C 676.363281 232.808594 676.464844 232.433594 676.535156 232.050781 C 676.605469 231.664062 676.636719 231.277344 676.632812 230.886719 C 676.628906 230.496094 676.589844 230.109375 676.511719 229.726562 C 676.433594 229.347656 676.320312 228.972656 676.175781 228.613281 C 676.027344 228.25 675.847656 227.90625 675.632812 227.578125 C 675.421875 227.25 675.179688 226.945312 674.910156 226.664062 C 674.640625 226.382812 674.34375 226.128906 674.027344 225.902344 C 673.707031 225.679688 673.371094 225.484375 673.015625 225.320312 C 672.394531 225.035156 657.5 218.289062 636.1875 213.941406 C 628.765625 212.410156 621.273438 211.363281 613.714844 210.789062 L 783.136719 177.070312 L 645.042969 197.171875 C 656.023438 191.027344 666.316406 183.886719 675.917969 175.746094 C 685.71875 167.472656 694.113281 156.984375 700.863281 144.570312 C 706.449219 134.148438 710.742188 123.214844 713.738281 111.773438 C 719.167969 91.5 719.480469 75.664062 719.492188 75 C 719.5 74.613281 719.46875 74.234375 719.40625 73.855469 C 719.339844 73.476562 719.242188 73.109375 719.109375 72.75 C 718.976562 72.390625 718.808594 72.046875 718.613281 71.714844 C 718.414062 71.386719 718.191406 71.078125 717.933594 70.792969 C 717.679688 70.503906 717.402344 70.246094 717.097656 70.007812 C 716.796875 69.773438 716.472656 69.570312 716.132812 69.394531 C 715.792969 69.21875 715.4375 69.074219 715.070312 68.964844 C 714.703125 68.855469 714.328125 68.78125 713.945312 68.742188 C 713.257812 68.671875 696.878906 67.015625 675.261719 69.644531 C 663.136719 71.050781 651.3125 73.757812 639.78125 77.761719 C 626.109375 82.617188 614.21875 89.265625 604.433594 97.523438 C 592.242188 107.816406 581.808594 119.054688 573.660156 130.390625 L 606.527344 0.34375 L 559.597656 151.214844 C 559.664062 144.464844 559.304688 137.742188 558.507812 131.039062 C 556.085938 110.25 550.515625 95.339844 550.277344 94.714844 C 550.148438 94.363281 549.984375 94.027344 549.789062 93.707031 C 549.59375 93.386719 549.375 93.085938 549.125 92.800781 C 548.875 92.519531 548.605469 92.265625 548.308594 92.03125 C 548.011719 91.800781 547.699219 91.597656 547.367188 91.421875 C 547.035156 91.25 546.6875 91.105469 546.332031 90.992188 C 545.972656 90.882812 545.605469 90.804688 545.234375 90.757812 C 544.859375 90.714844 544.488281 90.703125 544.113281 90.726562 C 543.738281 90.746094 543.367188 90.804688 543.003906 90.894531 C 542.84375 90.933594 541.808594 91.191406 540.066406 91.695312 C 539.992188 91.339844 539.917969 90.984375 539.835938 90.628906 C 539.757812 91.027344 539.6875 91.429688 539.617188 91.828125 C 528.398438 95.191406 517.566406 99.527344 507.125 104.839844 C 496.3125 110.246094 486.238281 116.789062 476.898438 124.460938 C 465.878906 133.648438 457.191406 143.917969 451.082031 154.980469 C 445.371094 165.253906 440.699219 175.976562 437.058594 187.152344 L 428.847656 83.511719 L 431.945312 208.078125 C 431.59375 210.21875 431.308594 212.328125 431.085938 214.410156 C 429.488281 209.859375 427.648438 205.28125 425.558594 200.683594 C 416.832031 181.523438 406.921875 168.871094 406.507812 168.339844 C 406.277344 168.050781 406.023438 167.78125 405.742188 167.535156 C 405.464844 167.289062 405.167969 167.070312 404.851562 166.878906 C 404.53125 166.6875 404.199219 166.523438 403.855469 166.390625 C 403.507812 166.257812 403.152344 166.160156 402.785156 166.089844 C 402.421875 166.023438 402.054688 165.988281 401.683594 165.984375 C 401.3125 165.984375 400.941406 166.015625 400.578125 166.078125 C 400.210938 166.140625 399.855469 166.238281 399.507812 166.367188 C 399.15625 166.496094 398.824219 166.652344 398.503906 166.839844 C 397.914062 167.1875 383.886719 175.515625 368.480469 190.308594 C 359.386719 199.035156 351.691406 208.222656 345.605469 217.617188 C 337.894531 229.523438 332.75 241.808594 330.316406 254.125 C 326.988281 270.976562 326.089844 287.546875 327.460938 302.457031 L 285.949219 182.957031 L 319.539062 299.632812 C 319.472656 299.542969 319.40625 299.453125 319.335938 299.363281 C 306.519531 282.460938 294.011719 272.15625 293.484375 271.726562 C 293.199219 271.492188 292.894531 271.285156 292.570312 271.105469 C 292.246094 270.925781 291.910156 270.777344 291.558594 270.65625 C 291.207031 270.539062 290.851562 270.449219 290.484375 270.394531 C 290.117188 270.339844 289.75 270.320312 289.378906 270.328125 C 289.007812 270.339844 288.644531 270.386719 288.28125 270.460938 C 287.917969 270.539062 287.566406 270.648438 287.222656 270.789062 C 286.878906 270.929688 286.554688 271.097656 286.242188 271.296875 C 285.929688 271.496094 285.636719 271.71875 285.363281 271.972656 C 284.867188 272.433594 273.023438 283.457031 261.28125 301.085938 C 254.644531 310.917969 249.238281 321.382812 245.0625 332.484375 C 240.199219 345.710938 237.929688 358.773438 238.324219 371.308594 C 238.957031 391.554688 242.769531 410.816406 249.234375 426.949219 L 175.550781 301.890625 L 242.9375 431.726562 C 235.738281 423.855469 227.835938 416.769531 219.222656 410.46875 C 201.96875 397.71875 186.953125 391.207031 186.324219 390.9375 C 185.980469 390.789062 185.628906 390.675781 185.265625 390.589844 C 184.902344 390.507812 184.535156 390.457031 184.164062 390.441406 C 183.789062 390.421875 183.421875 390.441406 183.050781 390.488281 C 182.683594 390.539062 182.320312 390.621094 181.964844 390.738281 C 181.613281 390.851562 181.269531 390.996094 180.945312 391.175781 C 180.617188 391.351562 180.304688 391.554688 180.015625 391.789062 C 179.722656 392.019531 179.457031 392.277344 179.210938 392.558594 C 178.96875 392.839844 178.75 393.136719 178.558594 393.457031 C 178.214844 394.035156 170.078125 407.820312 163.992188 427.914062 C 160.503906 439.167969 158.394531 450.675781 157.65625 462.433594 C 156.882812 476.433594 158.550781 489.574219 162.613281 501.492188 C 170.992188 526.0625 183.871094 547.691406 198.875 562.398438 C 211.289062 574.566406 224.164062 581.011719 236.0625 581.195312 C 239.507812 581.261719 242.878906 580.78125 246.171875 579.753906 C 249.507812 578.707031 252.585938 577.140625 255.398438 575.058594 C 255.179688 576.125 255.015625 577.199219 254.90625 578.28125 C 250.75 589.839844 246.917969 601.507812 243.40625 613.28125 C 233.070312 647.792969 225.324219 683.011719 219.191406 718.445312 C 216.128906 736.167969 213.4375 753.941406 211.113281 771.769531 C 208.785156 789.589844 206.738281 807.4375 204.964844 825.316406 L 203.664062 838.722656 L 202.46875 852.140625 C 202.054688 856.609375 201.707031 861.085938 201.34375 865.558594 C 200.992188 870.035156 200.597656 874.507812 200.285156 878.984375 L 199.300781 892.414062 L 198.394531 905.84375 L 197.949219 912.5625 L 197.542969 919.28125 L 196.738281 932.71875 C 196.734375 932.734375 196.734375 932.789062 196.730469 932.804688 C 196.714844 933.210938 196.734375 933.617188 196.796875 934.019531 C 196.855469 934.421875 196.957031 934.8125 197.09375 935.195312 C 197.234375 935.578125 197.40625 935.941406 197.617188 936.289062 C 197.828125 936.636719 198.070312 936.960938 198.34375 937.261719 C 198.617188 937.5625 198.917969 937.832031 199.246094 938.074219 C 199.574219 938.316406 199.921875 938.519531 200.289062 938.695312 C 200.65625 938.867188 201.039062 939 201.433594 939.097656 C 201.828125 939.195312 202.230469 939.253906 202.636719 939.273438 C 203.039062 939.289062 203.445312 939.269531 203.847656 939.207031 C 204.25 939.148438 204.640625 939.046875 205.023438 938.910156 C 205.40625 938.769531 205.769531 938.597656 206.117188 938.386719 C 206.464844 938.175781 206.789062 937.933594 207.089844 937.660156 C 207.390625 937.386719 207.660156 937.085938 207.902344 936.757812 C 208.144531 936.429688 208.351562 936.082031 208.523438 935.714844 C 208.695312 935.347656 208.828125 934.964844 208.925781 934.570312 C 209.023438 934.175781 209.082031 933.777344 209.101562 933.371094 L 209.101562 933.332031 L 209.710938 919.9375 L 210.019531 913.238281 L 210.371094 906.546875 L 211.078125 893.160156 L 211.867188 879.777344 C 212.113281 875.316406 212.441406 870.859375 212.726562 866.402344 C 213.023438 861.945312 213.308594 857.484375 213.652344 853.03125 L 214.652344 839.667969 L 215.753906 826.316406 C 217.285156 808.519531 219.066406 790.75 221.09375 773.007812 C 223.164062 755.273438 225.582031 737.59375 228.351562 719.964844 C 233.929688 684.726562 241.101562 649.734375 250.835938 615.449219 C 252.929688 608.078125 255.140625 600.742188 257.476562 593.445312 C 263.019531 605.242188 276.6875 613.777344 296.632812 617.722656 C 304.460938 619.222656 312.363281 620.015625 320.332031 620.097656 C 335.8125 620.34375 352.671875 618.335938 369.597656 614.148438 C 382.214844 611.027344 394.625 605.328125 406.488281 597.214844 C 416.371094 590.363281 425.355469 582.492188 433.445312 573.597656 C 447.871094 557.898438 455.644531 543.933594 455.96875 543.347656 C 456.160156 543.003906 456.316406 542.644531 456.4375 542.273438 C 456.558594 541.898438 456.644531 541.519531 456.691406 541.128906 C 456.742188 540.738281 456.753906 540.351562 456.726562 539.957031 C 456.703125 539.566406 456.640625 539.179688 456.542969 538.800781 C 456.445312 538.421875 456.3125 538.054688 456.144531 537.699219 C 455.976562 537.347656 455.773438 537.011719 455.542969 536.695312 C 455.3125 536.378906 455.050781 536.085938 454.765625 535.820312 C 454.476562 535.554688 454.167969 535.316406 453.835938 535.109375 C 453.253906 534.746094 439.429688 526.160156 418.90625 519.132812 C 415.234375 517.875 411.578125 516.75 407.941406 515.753906 L 528.828125 518.636719 L 433.449219 511.402344 C 443.589844 508.628906 453.191406 504.585938 462.261719 499.269531 C 472.660156 493.167969 482.246094 485.976562 491.019531 477.707031 C 506.660156 463.113281 515.523438 449.765625 515.894531 449.207031 C 516.109375 448.878906 516.292969 448.53125 516.445312 448.167969 C 516.59375 447.804688 516.710938 447.433594 516.789062 447.046875 C 516.867188 446.664062 516.910156 446.273438 516.914062 445.878906 C 516.921875 445.488281 516.890625 445.097656 516.820312 444.710938 C 516.75 444.324219 516.644531 443.949219 516.503906 443.582031 C 516.363281 443.214844 516.191406 442.863281 515.984375 442.53125 C 515.773438 442.195312 515.539062 441.886719 515.269531 441.597656 C 515.003906 441.308594 514.714844 441.046875 514.398438 440.8125 C 513.914062 440.457031 503.703125 432.996094 487.695312 425.40625 L 594.304688 437.292969 L 500.613281 421.890625 C 512.167969 420.675781 523.933594 417.460938 535.648438 412.308594 C 546.699219 407.367188 557.070312 401.265625 566.753906 394 C 584.007812 381.199219 594.386719 368.902344 594.820312 368.382812 C 595.074219 368.082031 595.292969 367.761719 595.484375 367.417969 C 595.675781 367.074219 595.835938 366.714844 595.957031 366.339844 C 596.078125 365.964844 596.167969 365.582031 596.214844 365.191406 C 596.265625 364.804688 596.277344 364.410156 596.253906 364.019531 C 596.230469 363.625 596.167969 363.238281 596.070312 362.859375 C 595.96875 362.476562 595.835938 362.109375 595.667969 361.753906 C 595.5 361.398438 595.296875 361.0625 595.066406 360.746094 C 594.832031 360.425781 594.570312 360.136719 594.285156 359.867188 C 593.785156 359.40625 581.894531 348.464844 563.121094 337.847656 C 556.078125 333.847656 548.789062 330.359375 541.25 327.382812 C 543.640625 327.296875 546.066406 327.148438 548.523438 326.933594 Z M 389.25 376.59375 C 390.035156 388.617188 398.328125 399.332031 412.898438 407.472656 L 364.183594 399.464844 C 364.503906 399.074219 364.828125 398.683594 365.148438 398.292969 L 367.277344 395.703125 C 367.984375 394.839844 368.695312 393.980469 369.421875 393.132812 L 373.753906 388.019531 L 375.921875 385.464844 L 378.125 382.9375 C 381.910156 378.570312 385.738281 374.242188 389.613281 369.949219 C 389.226562 372.148438 389.109375 374.363281 389.25 376.59375 Z M 344.726562 352.160156 C 344.53125 351.199219 344.320312 350.238281 344.09375 349.277344 C 349.808594 355.945312 356.730469 360.148438 364.351562 361.515625 C 366.042969 361.820312 367.75 361.984375 369.46875 362.011719 C 382.875 362.222656 396.71875 354 408.960938 338.402344 C 419.734375 324.679688 428.386719 306.363281 433.878906 285.921875 L 434.519531 311.8125 C 434.523438 311.917969 434.53125 312.042969 434.539062 312.148438 C 435.050781 313.898438 435.71875 315.585938 436.542969 317.210938 C 428.835938 324.625 421.207031 332.125 413.65625 339.707031 C 407.652344 343.496094 402.621094 347.648438 398.730469 352.0625 C 396.070312 355.027344 393.886719 358.308594 392.171875 361.90625 C 386.441406 367.992188 380.792969 374.148438 375.21875 380.382812 L 372.96875 382.890625 L 370.753906 385.425781 L 366.328125 390.5 C 365.585938 391.339844 364.859375 392.195312 364.136719 393.054688 L 361.957031 395.625 C 361.457031 396.21875 360.953125 396.8125 360.445312 397.40625 Z M 438.460938 318.972656 C 439.304688 319.46875 440.210938 319.75 441.1875 319.8125 L 464.34375 321.351562 C 454.417969 323.128906 444.722656 325.757812 435.253906 329.230469 C 431.082031 330.777344 427 332.53125 423.007812 334.492188 C 428.121094 329.28125 433.273438 324.109375 438.460938 318.972656 Z M 449.324219 308.316406 C 461.941406 296.039062 474.707031 283.910156 487.621094 271.929688 C 486.660156 273.652344 485.796875 275.421875 485.027344 277.238281 C 481.046875 286.683594 480.714844 295.835938 484.0625 303.710938 C 485.601562 307.300781 487.761719 310.464844 490.539062 313.207031 Z M 541.070312 226.222656 C 538.007812 227.777344 535.035156 229.386719 532.148438 231.050781 C 534.535156 228.882812 536.925781 226.714844 539.316406 224.546875 C 539.789062 225.222656 540.371094 225.78125 541.070312 226.222656 Z M 641.378906 227.808594 C 638.0625 227.617188 634.734375 227.53125 631.394531 227.578125 C 624.171875 227.652344 617.003906 228.320312 609.894531 229.585938 C 602.6875 230.863281 595.675781 232.820312 588.847656 235.457031 C 581.980469 238.128906 575.480469 241.511719 569.351562 245.609375 C 563.253906 249.6875 557.675781 254.382812 552.621094 259.703125 C 547.636719 264.945312 543.253906 270.648438 539.46875 276.8125 C 538.570312 278.363281 537.648438 279.886719 536.78125 281.441406 C 535.957031 283.027344 535.113281 284.585938 534.332031 286.183594 C 533.578125 287.792969 532.84375 289.40625 532.132812 291.023438 C 531.472656 292.675781 530.8125 294.316406 530.214844 295.984375 C 531.421875 294.675781 532.566406 293.339844 533.710938 292.011719 C 534.878906 290.703125 536.050781 289.40625 537.183594 288.09375 C 538.367188 286.816406 539.53125 285.535156 540.691406 284.261719 L 544.25 280.523438 C 548.964844 275.65625 553.953125 271.089844 559.222656 266.828125 C 564.390625 262.660156 569.84375 258.898438 575.578125 255.546875 C 581.273438 252.230469 587.195312 249.378906 593.34375 246.992188 C 599.539062 244.613281 605.863281 242.644531 612.316406 241.085938 C 618.796875 239.503906 625.421875 238.285156 632.136719 237.296875 L 637.195312 236.609375 C 638.886719 236.410156 640.585938 236.214844 642.285156 235.996094 L 647.40625 235.464844 C 648.261719 235.359375 649.121094 235.308594 649.980469 235.226562 L 652.558594 234.992188 C 654.28125 234.796875 656.007812 234.707031 657.738281 234.554688 L 660.339844 234.332031 C 660.894531 234.296875 661.449219 234.253906 662.007812 234.210938 C 662.074219 234.238281 662.148438 234.265625 662.214844 234.289062 C 655.347656 248.867188 633.878906 288.066406 595.917969 302.84375 C 572.617188 311.914062 548.996094 316.183594 529.410156 314.859375 C 511.640625 313.660156 499.265625 307.828125 495.457031 298.867188 C 493.421875 294.082031 493.75 288.421875 496.4375 282.046875 C 504.472656 262.980469 531.101562 242.3125 564.285156 229.398438 C 577.613281 224.207031 591.675781 222.589844 604.65625 222.792969 C 614.34375 222.988281 623.929688 224.0625 633.417969 226.011719 C 636.1875 226.574219 638.847656 227.179688 641.378906 227.808594 Z M 555.109375 210.265625 C 557.746094 207.882812 560.386719 205.503906 563.023438 203.121094 C 564.945312 205.097656 567.097656 206.78125 569.472656 208.171875 Z M 612.421875 106.984375 C 632.042969 90.421875 658.082031 84.242188 676.46875 81.972656 C 676.566406 81.960938 676.660156 81.949219 676.753906 81.9375 C 675.425781 82.378906 674.105469 82.847656 672.777344 83.308594 C 666.046875 85.726562 659.5625 88.6875 653.328125 92.195312 C 647.003906 95.746094 641.09375 99.886719 635.589844 104.609375 C 630.042969 109.375 625.105469 114.707031 620.773438 120.597656 C 616.460938 126.460938 612.871094 132.734375 609.996094 139.421875 C 607.167969 146.011719 605.074219 152.824219 603.714844 159.863281 C 603.421875 161.613281 603.101562 163.347656 602.839844 165.09375 C 602.632812 166.847656 602.398438 168.589844 602.238281 170.339844 C 602.101562 172.09375 601.988281 173.847656 601.898438 175.597656 C 601.867188 177.355469 601.835938 179.105469 601.875 180.859375 C 602.535156 179.222656 603.128906 177.589844 603.726562 175.960938 C 604.351562 174.339844 604.984375 172.730469 605.578125 171.121094 C 606.230469 169.527344 606.863281 167.933594 607.496094 166.351562 L 609.496094 161.65625 C 612.171875 155.519531 615.226562 149.574219 618.65625 143.820312 C 625.375 132.515625 633.71875 122.566406 643.679688 113.980469 C 648.664062 109.71875 653.910156 105.808594 659.414062 102.25 C 664.945312 98.652344 670.730469 95.355469 676.679688 92.242188 L 678.921875 91.09375 L 680.042969 90.511719 C 680.417969 90.316406 680.792969 90.125 681.175781 89.949219 L 685.726562 87.710938 C 687.265625 87.003906 688.800781 86.277344 690.339844 85.546875 C 691.105469 85.167969 691.890625 84.847656 692.664062 84.484375 L 694.996094 83.421875 C 696.542969 82.675781 698.128906 82.035156 699.695312 81.324219 L 701.386719 80.5625 C 701.828125 80.566406 702.253906 80.570312 702.671875 80.578125 C 704.175781 80.601562 705.539062 80.640625 706.738281 80.6875 C 705.867188 90.230469 704.183594 99.625 701.695312 108.878906 C 697.082031 125.957031 687.480469 149.78125 667.929688 166.285156 C 649.085938 182.191406 628.285156 193.671875 609.351562 198.609375 C 592.113281 203.105469 578.351562 201.488281 571.597656 194.171875 C 567.902344 190.171875 566.253906 184.539062 566.695312 177.429688 C 567.960938 157.019531 585.910156 129.367188 612.421875 106.984375 Z M 562.5 202.570312 C 562.636719 202.722656 562.777344 202.867188 562.917969 203.011719 C 560.132812 205.457031 557.34375 207.898438 554.558594 210.34375 L 553.414062 210.511719 L 557.371094 194.855469 C 558.671875 197.699219 560.378906 200.273438 562.5 202.570312 Z M 538.984375 224.023438 C 535.558594 227.039062 532.136719 230.058594 528.714844 233.082031 C 527.339844 233.914062 525.984375 234.761719 524.65625 235.617188 C 530.042969 229.402344 534.980469 222.84375 539.460938 215.945312 L 538.464844 219.152344 C 538.433594 219.25 538.398438 219.371094 538.375 219.472656 C 538.179688 220.242188 538.132812 221.019531 538.242188 221.808594 C 538.347656 222.59375 538.59375 223.335938 538.984375 224.023438 Z M 461.917969 160.96875 C 474.109375 138.902344 496.136719 124.339844 512.472656 116.011719 C 520.542969 111.910156 528.863281 108.410156 537.4375 105.511719 L 537.371094 105.894531 C 537.226562 106.734375 537.105469 107.570312 536.972656 108.410156 C 536.84375 109.246094 536.675781 110.078125 536.527344 110.914062 C 535.375 117.578125 534.074219 124.148438 532.503906 130.589844 C 530.964844 136.972656 529.074219 143.253906 526.832031 149.429688 C 524.613281 155.507812 521.964844 161.386719 518.878906 167.070312 C 515.796875 172.722656 512.277344 178.085938 508.320312 183.164062 C 504.3125 188.292969 499.941406 193.085938 495.207031 197.550781 C 490.363281 202.105469 485.285156 206.378906 479.972656 210.382812 L 477.953125 211.898438 C 477.277344 212.40625 476.601562 212.917969 475.914062 213.40625 L 473.847656 214.890625 C 473.152344 215.378906 472.476562 215.910156 471.769531 216.382812 C 471.070312 216.871094 470.363281 217.34375 469.667969 217.847656 C 468.964844 218.339844 468.269531 218.847656 467.558594 219.328125 C 466.140625 220.300781 464.714844 221.269531 463.308594 222.304688 C 465 221.917969 466.675781 221.464844 468.359375 221.011719 C 470.023438 220.523438 471.675781 219.988281 473.328125 219.441406 C 474.160156 219.179688 474.972656 218.867188 475.785156 218.558594 L 478.230469 217.632812 C 479.058594 217.339844 479.847656 216.976562 480.652344 216.632812 L 483.058594 215.589844 C 489.515625 212.683594 495.625 209.171875 501.382812 205.050781 C 507.253906 200.84375 512.585938 196.035156 517.375 190.625 C 522.160156 185.214844 526.285156 179.339844 529.746094 173 C 533.199219 166.660156 535.949219 160.03125 537.992188 153.109375 C 540.011719 146.285156 541.382812 139.328125 542.109375 132.246094 C 542.78125 125.757812 542.964844 119.257812 542.667969 112.742188 C 547.289062 131.984375 552.359375 168.058594 535.945312 197.777344 L 535.941406 197.777344 C 524.226562 218.988281 509.042969 236.730469 493.191406 247.730469 C 478.738281 257.761719 465.242188 260.890625 456.160156 256.3125 C 451.007812 253.714844 447.273438 248.765625 445.0625 241.597656 C 439.03125 222.070312 445.648438 190.421875 461.917969 160.96875 Z M 450.585938 267.367188 C 455.105469 269.617188 459.886719 270.757812 464.9375 270.789062 C 474.058594 270.933594 484.21875 267.773438 494.792969 261.429688 C 493.289062 263.28125 491.90625 265.144531 490.644531 267.015625 C 490.523438 267.125 490.398438 267.234375 490.277344 267.34375 C 475.582031 280.605469 461.023438 294.027344 446.605469 307.605469 L 442.984375 261.925781 C 445.238281 264.132812 447.769531 265.945312 450.585938 267.367188 Z M 342.460938 256.523438 C 347.292969 232.0625 363.824219 211.984375 376.839844 199.445312 C 383.769531 192.789062 391.179688 186.722656 399.074219 181.246094 C 399.109375 181.574219 399.144531 181.902344 399.175781 182.234375 L 399.433594 184.765625 L 399.65625 187.300781 C 399.726562 188.144531 399.820312 188.980469 399.902344 189.820312 C 399.996094 190.65625 400.035156 191.5 400.101562 192.339844 C 400.664062 199.042969 401.070312 205.691406 401.179688 212.28125 C 401.300781 218.808594 401.066406 225.324219 400.480469 231.828125 C 399.890625 238.226562 398.824219 244.546875 397.28125 250.785156 C 395.738281 256.984375 393.6875 263.015625 391.136719 268.871094 C 388.546875 274.789062 385.519531 280.472656 382.050781 285.921875 C 378.484375 291.480469 374.617188 296.820312 370.449219 301.945312 C 369.386719 303.234375 368.339844 304.546875 367.25 305.828125 L 363.960938 309.6875 C 363.402344 310.324219 362.828125 310.949219 362.277344 311.597656 C 361.714844 312.238281 361.164062 312.894531 360.59375 313.527344 C 359.453125 314.800781 358.304688 316.074219 357.1875 317.40625 C 358.734375 316.636719 360.246094 315.804688 361.765625 314.976562 C 363.257812 314.109375 364.730469 313.203125 366.199219 312.285156 C 366.945312 311.839844 367.648438 311.339844 368.367188 310.855469 L 370.511719 309.382812 C 371.238281 308.902344 371.914062 308.359375 372.609375 307.839844 L 374.691406 306.261719 C 380.242188 301.921875 385.300781 297.0625 389.863281 291.691406 C 394.511719 286.199219 398.480469 280.253906 401.761719 273.851562 C 405.042969 267.449219 407.554688 260.757812 409.296875 253.773438 C 411.03125 246.804688 412.003906 239.730469 412.210938 232.554688 C 412.414062 225.476562 411.976562 218.441406 410.894531 211.445312 C 409.824219 204.546875 408.214844 197.78125 406.066406 191.140625 C 405.808594 190.3125 405.539062 189.488281 405.253906 188.667969 C 408.640625 194.300781 411.695312 200.109375 414.414062 206.09375 C 421.738281 222.257812 429.453125 246.652344 424.628906 271.074219 C 419.980469 294.609375 410.957031 315.804688 399.222656 330.757812 C 393.820312 337.640625 387.945312 342.945312 382.230469 346.101562 C 376.75 349.128906 371.46875 350.214844 366.539062 349.328125 C 360.664062 348.273438 355.449219 344.46875 351.046875 338.019531 C 339.417969 320.980469 336.046875 288.992188 342.460938 256.523438 Z M 349.363281 403.222656 C 349.390625 403.320312 349.429688 403.441406 349.464844 403.539062 C 349.9375 404.902344 350.78125 405.96875 352 406.738281 C 352.070312 406.933594 352.148438 407.128906 352.238281 407.316406 C 348.351562 412.097656 344.507812 416.910156 340.765625 421.808594 C 340.324219 422.382812 339.886719 422.957031 339.449219 423.53125 C 342.765625 413 344.921875 402.238281 345.914062 391.246094 Z M 288.5625 515.621094 C 288.988281 514.71875 289.429688 513.820312 289.875 512.925781 C 289.945312 512.929688 290.011719 512.9375 290.078125 512.941406 L 339.433594 514.117188 C 313.15625 521.050781 290.324219 532.378906 274.996094 545.671875 C 279.230469 535.53125 283.75 525.511719 288.5625 515.621094 Z M 295.992188 500.976562 L 297.691406 497.785156 C 298.738281 495.820312 299.769531 493.84375 300.871094 491.910156 L 304.128906 486.074219 L 304.945312 484.617188 L 305.785156 483.171875 L 307.472656 480.289062 C 308.601562 478.367188 309.710938 476.433594 310.855469 474.523438 L 312.238281 472.265625 C 312.035156 474.753906 312.160156 477.226562 312.613281 479.679688 C 314.390625 489.253906 320.9375 497.449219 331.53125 503.671875 Z M 271.421875 308.199219 C 276.628906 300.375 282.425781 293.015625 288.8125 286.121094 L 288.988281 286.574219 L 289.421875 287.78125 C 289.707031 288.585938 290.011719 289.375 290.304688 290.171875 L 291.203125 292.550781 L 292.058594 294.941406 C 292.628906 296.527344 293.25 298.089844 293.773438 299.6875 C 296.027344 306.011719 298.132812 312.320312 299.917969 318.652344 C 303.5 331.300781 305.945312 344.039062 306.175781 356.765625 C 306.304688 363.132812 305.894531 369.46875 304.953125 375.769531 C 303.984375 382.128906 302.523438 388.375 300.574219 394.507812 C 298.554688 400.773438 296.167969 406.894531 293.417969 412.875 C 292.714844 414.386719 292.027344 415.910156 291.296875 417.421875 L 289.074219 421.964844 C 288.289062 423.457031 287.546875 424.988281 286.769531 426.507812 C 285.976562 428.019531 285.183594 429.53125 284.429688 431.09375 C 285.738281 429.96875 286.996094 428.796875 288.261719 427.621094 C 289.492188 426.414062 290.695312 425.179688 291.890625 423.929688 C 292.496094 423.308594 293.054688 422.65625 293.628906 422.007812 L 295.339844 420.054688 L 295.769531 419.5625 C 295.910156 419.398438 296.039062 419.226562 296.175781 419.058594 L 296.984375 418.039062 L 298.605469 416 C 302.898438 410.417969 306.5625 404.449219 309.597656 398.097656 C 312.6875 391.609375 314.988281 384.851562 316.5 377.828125 C 318.015625 370.804688 318.699219 363.699219 318.550781 356.511719 C 318.40625 349.351562 317.492188 342.285156 315.816406 335.320312 C 314.175781 328.457031 311.933594 321.792969 309.085938 315.335938 C 308.367188 313.746094 307.632812 312.164062 306.894531 310.585938 C 306.101562 309.035156 305.316406 307.484375 304.507812 305.949219 C 304.109375 305.179688 303.667969 304.429688 303.242188 303.675781 L 301.953125 301.421875 C 301.527344 300.667969 301.074219 299.929688 300.613281 299.199219 L 299.234375 297.003906 C 298.316406 295.542969 297.34375 294.117188 296.359375 292.703125 L 294.878906 290.585938 C 294.382812 289.886719 293.851562 289.203125 293.332031 288.515625 C 293.25 288.40625 293.164062 288.292969 293.082031 288.183594 C 306.417969 301.398438 333.128906 332.273438 334.261719 368.480469 C 335.292969 401.464844 326.746094 432.566406 312.488281 447.714844 C 307.046875 453.5 301.234375 456.519531 295.210938 456.695312 C 290.199219 456.847656 285.179688 455 280.277344 451.214844 C 275.164062 447.261719 270.238281 441.167969 266.035156 433.589844 C 256.894531 417.101562 251.445312 394.84375 250.699219 370.921875 C 249.921875 346.074219 261.539062 323.097656 271.421875 308.199219 Z M 294.136719 469.082031 C 294.613281 469.089844 295.097656 469.085938 295.578125 469.074219 C 300.847656 468.886719 305.785156 467.507812 310.394531 464.941406 C 310.179688 465.277344 309.964844 465.609375 309.75 465.949219 L 306.148438 471.65625 C 304.960938 473.566406 303.8125 475.503906 302.644531 477.425781 L 300.898438 480.316406 L 300.03125 481.761719 L 299.183594 483.222656 L 295.808594 489.070312 C 294.667969 491.011719 293.597656 492.992188 292.507812 494.964844 L 290.960938 497.773438 L 265.03125 453.757812 C 273.6875 463.597656 283.675781 468.917969 294.136719 469.082031 Z M 281.785156 506.578125 C 281.835938 506.671875 281.894531 506.78125 281.949219 506.871094 C 282.582031 507.949219 283.460938 508.761719 284.589844 509.304688 C 284.628906 509.386719 284.664062 509.46875 284.703125 509.550781 C 284.128906 510.648438 283.5625 511.753906 283.019531 512.867188 C 280.175781 518.492188 277.429688 524.164062 274.78125 529.882812 C 275.667969 515.871094 274.0625 500.0625 269.988281 483.847656 Z M 242.476562 567.9375 C 240.488281 568.546875 238.453125 568.832031 236.375 568.785156 C 227.699219 568.648438 217.523438 563.339844 207.542969 553.554688 C 193.894531 540.175781 182.097656 520.269531 174.332031 497.496094 C 166.277344 473.875 170.660156 448.734375 175.753906 431.800781 C 178.5 422.714844 181.980469 413.925781 186.203125 405.429688 L 186.285156 405.554688 C 186.753906 406.269531 187.238281 406.96875 187.714844 407.675781 C 188.191406 408.378906 188.664062 409.082031 189.148438 409.777344 L 190.550781 411.898438 C 191.480469 413.308594 192.460938 414.679688 193.347656 416.113281 L 194.726562 418.222656 C 195.183594 418.925781 195.660156 419.613281 196.09375 420.328125 L 198.777344 424.558594 C 199.632812 425.988281 200.503906 427.402344 201.367188 428.8125 C 202.21875 430.234375 203.027344 431.679688 203.871094 433.09375 C 207.132812 438.753906 210.09375 444.570312 212.757812 450.535156 C 215.371094 456.40625 217.550781 462.4375 219.292969 468.621094 C 220.992188 474.773438 222.160156 481.023438 222.804688 487.371094 C 223.4375 493.78125 223.554688 500.199219 223.164062 506.628906 C 222.746094 513.203125 221.921875 519.726562 220.683594 526.199219 C 220.363281 527.835938 220.050781 529.480469 219.714844 531.128906 L 218.640625 536.074219 C 218.234375 537.714844 217.871094 539.378906 217.476562 541.042969 C 217.066406 542.699219 216.652344 544.359375 216.292969 546.058594 C 217.296875 544.652344 218.242188 543.214844 219.195312 541.765625 C 220.097656 540.300781 220.976562 538.8125 221.839844 537.308594 C 222.695312 535.804688 223.460938 534.253906 224.269531 532.710938 C 224.472656 532.328125 224.660156 531.9375 224.839844 531.542969 L 225.382812 530.359375 L 226.46875 527.984375 C 229.304688 521.519531 231.410156 514.824219 232.792969 507.902344 C 234.195312 500.863281 234.765625 493.761719 234.507812 486.589844 C 234.238281 479.371094 233.144531 472.285156 231.222656 465.320312 C 229.296875 458.417969 226.671875 451.792969 223.347656 445.441406 C 220.082031 439.183594 216.289062 433.257812 211.972656 427.671875 C 207.722656 422.152344 203.074219 416.996094 198.015625 412.207031 C 197 411.21875 195.949219 410.265625 194.890625 409.324219 C 212.683594 419.648438 243.039062 441.21875 253.871094 472.972656 C 259.339844 489.015625 262.371094 505.328125 262.628906 520.148438 C 262.871094 534.175781 260.660156 546.203125 256.234375 554.925781 C 252.75 561.796875 248.121094 566.175781 242.476562 567.9375 Z M 421.0625 533.085938 C 416.964844 532.304688 412.824219 531.695312 408.644531 531.285156 C 401.441406 530.554688 394.226562 530.421875 387 530.890625 C 379.679688 531.363281 372.476562 532.527344 365.382812 534.394531 C 358.246094 536.292969 351.394531 538.933594 344.832031 542.3125 C 338.296875 545.679688 332.210938 549.714844 326.5625 554.421875 C 320.996094 559.0625 315.96875 564.226562 311.476562 569.914062 L 309.851562 572.058594 C 309.316406 572.773438 308.765625 573.472656 308.25 574.203125 C 307.246094 575.683594 306.21875 577.136719 305.253906 578.632812 C 304.308594 580.140625 303.382812 581.660156 302.484375 583.1875 C 301.628906 584.75 300.777344 586.304688 299.984375 587.894531 C 301.339844 586.734375 302.640625 585.542969 303.933594 584.355469 C 305.25 583.191406 306.574219 582.039062 307.859375 580.867188 L 311.804688 577.464844 L 315.789062 574.164062 C 321.054688 569.867188 326.554688 565.898438 332.296875 562.261719 C 337.929688 558.707031 343.796875 555.582031 349.890625 552.890625 C 355.949219 550.234375 362.171875 548.054688 368.5625 546.355469 C 375.003906 544.675781 381.527344 543.421875 388.128906 542.589844 C 394.765625 541.734375 401.5 541.261719 408.300781 541.027344 L 413.417969 540.90625 C 415.125 540.898438 416.835938 540.894531 418.554688 540.871094 L 423.71875 540.917969 C 424.582031 540.90625 425.441406 540.945312 426.304688 540.964844 L 428.902344 541.019531 C 430.640625 541.023438 432.371094 541.125 434.113281 541.171875 L 436.726562 541.238281 L 439.347656 541.347656 C 439.425781 541.347656 439.507812 541.351562 439.585938 541.355469 C 440.429688 541.789062 441.207031 542.195312 441.921875 542.582031 C 436.621094 550.695312 430.683594 558.320312 424.113281 565.453125 C 411.871094 578.722656 391.960938 595.859375 366.625 602.128906 C 342.265625 608.15625 318.261719 609.382812 299.035156 605.578125 C 281.628906 602.132812 270.199219 594.804688 267.679688 585.472656 C 266.339844 580.503906 267.4375 574.972656 270.9375 569.027344 C 281.507812 551.082031 310.828125 533.925781 345.628906 525.3125 C 353.871094 523.324219 362.230469 522.421875 370.703125 522.605469 C 387.339844 522.867188 402.921875 526.769531 414.609375 530.75 C 416.84375 531.511719 419 532.292969 421.0625 533.085938 Z M 482.34375 468.867188 C 469.066406 481.210938 447.832031 496.84375 422.058594 501.242188 C 397.289062 505.464844 373.257812 504.929688 354.398438 499.726562 C 337.339844 495.019531 326.546875 486.890625 324.789062 477.421875 C 323.851562 472.378906 325.378906 466.953125 329.332031 461.289062 C 341.296875 444.140625 371.925781 429.152344 407.367188 423.109375 C 413.089844 422.148438 418.855469 421.722656 424.65625 421.828125 C 444.25 422.136719 462.574219 427.996094 475.695312 433.582031 C 479.839844 435.347656 483.679688 437.171875 487.152344 438.941406 C 481.640625 437.492188 476.058594 436.382812 470.414062 435.609375 C 463.234375 434.613281 456.023438 434.21875 448.78125 434.421875 C 441.445312 434.625 434.199219 435.527344 427.035156 437.132812 C 419.832031 438.773438 412.886719 441.160156 406.195312 444.292969 C 399.539062 447.417969 393.300781 451.222656 387.480469 455.714844 C 381.738281 460.144531 376.511719 465.117188 371.800781 470.628906 L 370.097656 472.707031 C 369.53125 473.402344 368.953125 474.078125 368.414062 474.792969 C 367.347656 476.230469 366.265625 477.644531 365.242188 479.101562 C 364.238281 480.574219 363.253906 482.058594 362.292969 483.546875 C 361.378906 485.078125 360.464844 486.597656 359.609375 488.15625 C 361.011719 487.050781 362.355469 485.90625 363.699219 484.773438 C 365.058594 483.65625 366.429688 482.558594 367.757812 481.4375 L 371.835938 478.1875 L 375.949219 475.039062 C 381.378906 470.945312 387.03125 467.1875 392.914062 463.765625 C 398.679688 460.421875 404.664062 457.519531 410.859375 455.054688 C 417.015625 452.621094 423.324219 450.671875 429.777344 449.203125 C 436.277344 447.761719 442.847656 446.746094 449.480469 446.15625 C 456.148438 445.542969 462.902344 445.316406 469.710938 445.335938 L 474.828125 445.402344 C 476.539062 445.457031 478.25 445.515625 479.96875 445.554688 L 485.128906 445.792969 C 485.992188 445.816406 486.855469 445.886719 487.71875 445.9375 L 490.3125 446.089844 C 492.046875 446.15625 493.773438 446.320312 495.515625 446.433594 L 498.128906 446.597656 L 500.742188 446.804688 C 500.863281 446.8125 500.980469 446.820312 501.101562 446.832031 C 501.390625 447.011719 501.671875 447.1875 501.941406 447.359375 C 496 455.066406 489.46875 462.234375 482.34375 468.867188 Z M 352.800781 427.574219 C 346.074219 430.910156 339.71875 434.851562 333.742188 439.398438 C 337.246094 434.421875 340.820312 429.492188 344.464844 424.613281 C 348.027344 419.8125 351.6875 415.082031 355.394531 410.386719 C 355.957031 410.628906 356.546875 410.785156 357.15625 410.851562 L 388.835938 414.386719 C 375.796875 417.695312 363.554688 422.164062 352.800781 427.574219 Z M 571.878906 358.007812 C 570.882812 357.546875 569.882812 357.097656 568.871094 356.667969 L 566.410156 355.621094 C 565.589844 355.269531 564.765625 354.933594 563.929688 354.621094 L 561.421875 353.671875 C 560.585938 353.363281 559.753906 353.035156 558.902344 352.75 C 557.210938 352.175781 555.507812 351.617188 553.800781 351.058594 C 552.078125 350.558594 550.355469 350.054688 548.621094 349.570312 C 541.613281 347.679688 534.496094 346.382812 527.269531 345.683594 C 519.953125 344.96875 512.636719 344.964844 505.320312 345.679688 C 497.960938 346.414062 490.761719 347.917969 483.722656 350.1875 C 476.722656 352.457031 470.042969 355.445312 463.691406 359.160156 C 457.425781 362.824219 451.59375 367.085938 446.203125 371.945312 L 444.238281 373.785156 C 443.589844 374.402344 442.921875 374.996094 442.296875 375.636719 C 441.050781 376.925781 439.785156 378.183594 438.582031 379.496094 C 437.390625 380.828125 436.21875 382.167969 435.070312 383.523438 C 433.957031 384.921875 432.851562 386.308594 431.792969 387.742188 C 433.332031 386.828125 434.816406 385.871094 436.300781 384.921875 C 437.796875 383.992188 439.300781 383.082031 440.769531 382.140625 L 445.246094 379.449219 L 449.742188 376.859375 C 455.667969 373.496094 461.773438 370.488281 468.050781 367.839844 C 474.214844 365.25 480.53125 363.121094 487.003906 361.449219 C 493.429688 359.804688 499.941406 358.65625 506.539062 358 C 519.738281 356.691406 533.183594 357.371094 546.707031 359.128906 C 553.46875 360 560.253906 361.175781 567.074219 362.480469 C 567.929688 362.640625 568.789062 362.773438 569.640625 362.960938 C 570.492188 363.132812 571.339844 363.320312 572.199219 363.480469 L 574.777344 363.976562 L 577.347656 364.511719 C 578.207031 364.6875 579.0625 364.875 579.929688 365.035156 L 580.910156 365.226562 C 574.160156 372.148438 566.898438 378.488281 559.125 384.242188 C 544.464844 395.078125 521.503906 408.328125 495.367188 409.910156 C 470.257812 411.429688 446.453125 408.296875 428.335938 401.089844 C 411.972656 394.582031 402.230469 385.359375 401.605469 375.785156 C 401.273438 370.679688 403.429688 365.453125 408.015625 360.25 C 421.929688 344.46875 454.164062 332.863281 490.136719 330.6875 C 492.421875 330.550781 494.691406 330.5 496.945312 330.539062 C 520.5 330.90625 542.195312 340.273438 556.761719 348.476562 C 562.523438 351.722656 567.625 355.027344 571.878906 358.007812 Z M 571.878906 358.007812 " fill-opacity="1" fill-rule="nonzero"/></g></svg>