<svg xmlns="http://www.w3.org/2000/svg" xmlns:xlink="http://www.w3.org/1999/xlink" width="1254" zoomAndPan="magnify" viewBox="0 0 940.5 940.499971" height="1254" preserveAspectRatio="xMidYMid meet" version="1.0"><path fill="#ff3131" d="M 836.34375 103.523438 C 905.328125 172.503906 939.824219 262.929688 939.824219 353.347656 L 939.777344 353.347656 C 939.773438 443.792969 905.292969 534.226562 836.351562 603.167969 C 767.371094 672.152344 676.945312 706.644531 586.527344 706.644531 L 586.527344 706.59375 C 509.027344 706.585938 431.535156 681.277344 367.5625 630.65625 L 308.148438 690.066406 C 310.035156 697.117188 310.984375 704.363281 310.984375 711.609375 C 310.984375 732.820312 302.917969 754.050781 286.816406 770.160156 L 141.207031 915.765625 C 125.09375 931.878906 103.867188 939.9375 82.65625 939.9375 C 61.796875 939.9375 40.890625 932.109375 24.847656 916.445312 L 24.109375 915.765625 C 8 899.65625 -0.0585938 878.429688 -0.0585938 857.222656 C -0.0585938 836.34375 7.773438 815.433594 23.429688 799.410156 L 24.109375 798.671875 L 169.722656 653.0625 C 185.832031 636.949219 207.058594 628.894531 228.265625 628.894531 C 235.515625 628.894531 242.765625 629.832031 249.8125 631.714844 L 309.21875 572.308594 C 258.566406 508.320312 233.238281 430.835938 233.238281 353.351562 C 233.238281 262.9375 267.726562 172.503906 336.699219 103.535156 C 405.675781 34.554688 496.101562 0.0625 586.519531 0.0625 L 586.519531 0.113281 C 676.96875 0.109375 767.398438 34.582031 836.34375 103.523438 Z M 427.238281 500.996094 L 478.503906 500.996094 L 478.503906 310.011719 L 427.238281 310.011719 Z M 491.207031 526.398438 C 498.21875 526.398438 503.90625 520.710938 503.90625 513.699219 L 503.90625 297.308594 C 503.90625 290.296875 498.21875 284.609375 491.207031 284.609375 L 414.535156 284.609375 C 407.527344 284.609375 401.835938 290.296875 401.835938 297.308594 L 401.835938 513.699219 C 401.835938 520.710938 407.527344 526.398438 414.535156 526.398438 Z M 694.554688 500.996094 L 745.824219 500.996094 L 745.824219 205.710938 L 694.554688 205.710938 Z M 758.527344 526.398438 C 765.539062 526.398438 771.222656 520.710938 771.222656 513.699219 L 771.222656 193.007812 C 771.222656 185.996094 765.539062 180.308594 758.527344 180.308594 L 681.859375 180.308594 C 674.84375 180.308594 669.15625 185.996094 669.15625 193.007812 L 669.15625 513.699219 C 669.15625 520.710938 674.84375 526.398438 681.859375 526.398438 Z M 560.898438 500.996094 L 612.164062 500.996094 L 612.164062 373.277344 L 560.898438 373.277344 Z M 624.863281 526.398438 C 631.875 526.398438 637.566406 520.710938 637.566406 513.699219 L 637.566406 360.574219 C 637.566406 353.558594 631.875 347.871094 624.863281 347.871094 L 548.195312 347.871094 C 541.179688 347.871094 535.492188 353.558594 535.492188 360.574219 L 535.492188 513.699219 C 535.492188 520.710938 541.179688 526.398438 548.195312 526.398438 Z M 348.167969 614.132812 C 344.285156 610.578125 340.460938 606.929688 336.703125 603.167969 C 332.941406 599.414062 329.292969 595.589844 325.738281 591.707031 L 274.519531 642.929688 C 277.929688 645.226562 281.191406 647.792969 284.285156 650.648438 L 284.472656 650.816406 L 284.511719 650.847656 L 284.65625 650.984375 L 284.839844 651.152344 L 285.023438 651.328125 L 285.203125 651.496094 L 285.285156 651.578125 L 285.382812 651.667969 L 285.5625 651.84375 L 285.921875 652.1875 L 286.050781 652.3125 L 286.101562 652.359375 L 286.277344 652.539062 L 286.460938 652.707031 L 286.632812 652.886719 L 286.816406 653.0625 C 289.222656 655.472656 291.476562 658.039062 293.5625 660.734375 L 293.710938 660.929688 L 293.773438 661.015625 L 294.164062 661.519531 L 294.167969 661.527344 L 294.316406 661.722656 L 294.40625 661.84375 L 294.46875 661.921875 L 294.613281 662.125 L 294.761719 662.328125 C 295.507812 663.332031 296.238281 664.347656 296.925781 665.375 Z M 272.144531 674.578125 C 271.117188 673.371094 270.011719 672.179688 268.851562 671.023438 C 267.925781 670.089844 266.976562 669.203125 266.015625 668.355469 L 265.867188 668.230469 L 265.722656 668.105469 L 265.636719 668.023438 L 265.582031 667.980469 L 265.148438 667.605469 L 265.082031 667.558594 C 260.230469 663.511719 254.851562 660.382812 249.179688 658.1875 L 249.09375 658.15625 L 249 658.125 L 248.917969 658.09375 L 248.824219 658.058594 L 248.742188 658.027344 L 248.648438 657.992188 L 248.601562 657.972656 L 248.5625 657.957031 C 242.035156 655.523438 235.15625 654.296875 228.265625 654.296875 C 213.542969 654.296875 198.824219 659.875 187.679688 671.023438 L 41.480469 817.183594 C 30.726562 828.261719 25.347656 842.730469 25.347656 857.222656 C 25.347656 871.945312 30.921875 886.660156 42.066406 897.808594 L 42.628906 898.410156 C 53.675781 909.15625 68.152344 914.535156 82.65625 914.535156 C 97.382812 914.535156 112.097656 908.957031 123.25 897.808594 L 268.851562 752.199219 C 280.003906 741.054688 285.582031 726.335938 285.582031 711.609375 C 285.582031 698.878906 281.421875 686.148438 273.109375 675.746094 L 272.988281 675.597656 L 272.78125 675.347656 L 272.75 675.304688 L 272.628906 675.15625 L 272.507812 675.015625 L 272.386719 674.867188 L 272.324219 674.789062 L 272.261719 674.722656 Z M 374.445312 603.449219 C 374.761719 603.691406 375.066406 603.953125 375.367188 604.230469 L 375.410156 604.269531 C 436.28125 655.609375 511.414062 681.289062 586.527344 681.289062 L 586.527344 681.238281 C 670.449219 681.238281 754.375 649.230469 818.390625 585.214844 C 882.4375 521.160156 914.472656 437.234375 914.472656 353.347656 L 914.421875 353.347656 C 914.421875 269.429688 882.40625 185.5 818.390625 121.484375 C 754.339844 57.4375 670.410156 25.414062 586.519531 25.414062 L 586.519531 25.464844 C 502.601562 25.464844 418.671875 57.480469 354.65625 121.492188 C 290.644531 185.5 258.640625 269.429688 258.640625 353.351562 C 258.640625 437.273438 290.648438 521.199219 354.660156 585.210938 C 360.636719 591.1875 366.785156 596.890625 373.09375 602.308594 L 373.183594 602.382812 L 373.246094 602.4375 L 373.394531 602.566406 L 374.398438 603.414062 Z M 781.382812 158.480469 C 727.582031 104.683594 657.050781 77.785156 586.527344 77.785156 L 586.527344 77.734375 C 516.03125 77.734375 445.496094 104.664062 391.667969 158.496094 C 337.863281 212.296875 310.964844 282.828125 310.964844 353.351562 C 310.964844 423.878906 337.863281 494.402344 391.660156 548.203125 C 445.472656 602.011719 516 628.914062 586.519531 628.914062 L 586.519531 628.964844 C 657.015625 628.964844 727.546875 602.054688 781.382812 548.222656 C 835.226562 494.375 862.144531 423.839844 862.144531 353.347656 L 862.09375 353.347656 C 862.09375 282.816406 835.183594 212.285156 781.382812 158.480469 Z M 586.527344 52.429688 C 509.476562 52.433594 432.433594 81.808594 373.703125 140.539062 C 314.949219 199.296875 285.5625 276.328125 285.5625 353.351562 C 285.5625 430.378906 314.949219 507.402344 373.714844 566.171875 C 432.472656 624.929688 509.503906 654.320312 586.519531 654.320312 L 586.519531 654.269531 C 663.574219 654.273438 740.609375 624.910156 799.347656 566.167969 C 858.082031 507.4375 887.453125 430.398438 887.449219 353.347656 L 887.5 353.347656 C 887.5 276.320312 858.109375 199.292969 799.34375 140.523438 C 740.578125 81.757812 663.542969 52.378906 586.527344 52.378906 Z M 586.527344 52.429688 " fill-opacity="1" fill-rule="evenodd"/></svg>