<svg xmlns="http://www.w3.org/2000/svg" xmlns:xlink="http://www.w3.org/1999/xlink" width="1254" zoomAndPan="magnify" viewBox="0 0 940.5 940.499971" height="1254" preserveAspectRatio="xMidYMid meet" version="1.0"><defs><clipPath id="51eca0cb92"><path d="M 312.785156 285 L 624 285 L 624 597 L 312.785156 597 Z M 312.785156 285 " clip-rule="nonzero"/></clipPath><clipPath id="0f7dae77b3"><path d="M 375 448 L 586 448 L 586 658.300781 L 375 658.300781 Z M 375 448 " clip-rule="nonzero"/></clipPath></defs><g clip-path="url(#51eca0cb92)"><path fill="#1a1a1a" d="M 621.394531 340.867188 C 620.617188 337.390625 618.011719 334.617188 614.601562 333.625 C 611.1875 332.632812 607.507812 333.578125 604.992188 336.101562 L 567.648438 373.515625 L 544.027344 364.824219 L 535.363281 341.179688 L 572.714844 303.761719 C 575.226562 301.246094 576.171875 297.558594 575.183594 294.136719 C 574.191406 290.714844 571.421875 288.101562 567.960938 287.320312 C 544.417969 281.988281 520.058594 288.871094 502.816406 305.738281 C 486.394531 321.789062 478.765625 345.03125 482.410156 367.90625 C 482.910156 371.054688 481.761719 374.386719 479.332031 376.820312 L 323.769531 532.675781 C 316.726562 539.730469 312.851562 549.113281 312.851562 559.085938 C 312.839844 569.175781 316.792969 578.636719 323.980469 585.726562 C 331.113281 592.761719 340.476562 596.265625 349.90625 596.265625 C 359.691406 596.265625 369.546875 592.488281 377.046875 584.976562 L 532.125 429.601562 C 534.492188 427.234375 537.726562 426.121094 540.789062 426.621094 C 563.265625 430.300781 586.292969 422.882812 602.386719 406.761719 C 619.691406 389.425781 626.792969 364.789062 621.394531 340.867188 Z M 591.671875 396.023438 C 579.019531 408.699219 560.917969 414.542969 543.238281 411.636719 C 535.378906 410.347656 527.21875 413.046875 521.410156 418.867188 L 366.328125 574.238281 C 357.46875 583.113281 343.238281 583.414062 334.613281 574.902344 C 330.347656 570.695312 328 565.085938 328.007812 559.097656 C 328.007812 553.167969 330.308594 547.601562 334.484375 543.414062 L 490.050781 387.554688 C 495.902344 381.691406 498.640625 373.453125 497.375 365.511719 C 494.507812 347.5 500.496094 329.21875 513.402344 316.605469 C 523.933594 306.304688 537.839844 300.738281 552.207031 300.738281 C 552.890625 300.738281 553.574219 300.753906 554.257812 300.777344 L 523 332.09375 C 519.824219 335.28125 518.78125 340.054688 520.332031 344.222656 L 530.394531 371.675781 C 531.574219 374.871094 534.085938 377.363281 537.234375 378.496094 L 564.5625 388.554688 C 568.769531 390.128906 573.535156 389.089844 576.714844 385.90625 L 607.964844 354.59375 C 608.535156 369.949219 602.773438 384.902344 591.671875 396.023438 Z M 591.671875 396.023438 " fill-opacity="1" fill-rule="nonzero"/></g><path fill="#1a1a1a" d="M 356.191406 542.292969 L 346.4375 552.066406 C 343.476562 555.027344 343.476562 559.835938 346.4375 562.800781 C 347.917969 564.285156 349.855469 565.023438 351.796875 565.023438 C 353.734375 565.023438 355.675781 564.285156 357.15625 562.800781 L 366.910156 553.027344 C 369.867188 550.0625 369.867188 545.257812 366.910156 542.292969 C 363.949219 539.328125 359.152344 539.328125 356.191406 542.292969 Z M 356.191406 542.292969 " fill-opacity="1" fill-rule="nonzero"/><g clip-path="url(#0f7dae77b3)"><path fill="#1a1a1a" d="M 574.230469 509.273438 L 565.242188 509.390625 C 558.714844 509.503906 552.832031 505.523438 550.183594 499.316406 L 550.042969 498.988281 C 547.398438 492.855469 548.621094 485.878906 553.15625 481.214844 L 559.429688 474.765625 C 561.464844 472.671875 562.566406 469.910156 562.53125 466.984375 C 562.492188 464.0625 561.320312 461.328125 559.140625 459.199219 L 549.769531 450.347656 C 546.722656 447.472656 541.925781 447.617188 539.054688 450.667969 C 536.183594 453.71875 536.328125 458.523438 539.371094 461.398438 L 545.570312 467.253906 L 542.300781 470.617188 C 533.464844 479.707031 531.039062 493.207031 536.121094 504.996094 L 536.25 505.296875 C 541.3125 517.171875 552.71875 524.730469 565.4375 524.578125 L 570.191406 524.515625 L 570.460938 545.316406 L 565.707031 545.378906 C 553.039062 545.542969 541.785156 553.40625 537.011719 565.457031 L 536.914062 565.699219 C 532.132812 577.632812 534.90625 591.0625 543.976562 599.921875 L 547.382812 603.246094 L 532.886719 618.152344 L 529.480469 614.824219 C 520.410156 605.96875 506.9375 603.542969 495.191406 608.625 L 494.867188 608.761719 C 483.011719 613.835938 475.460938 625.3125 475.625 638.003906 L 475.6875 642.769531 L 454.921875 643.039062 L 454.859375 638.273438 C 454.699219 625.582031 446.851562 614.308594 434.921875 609.566406 L 434.71875 609.484375 L 431.914062 616.539062 L 434.578125 609.429688 C 422.667969 604.640625 409.261719 607.414062 400.421875 616.503906 L 397.070312 619.949219 L 388.773438 612.035156 C 385.742188 609.140625 380.945312 609.257812 378.058594 612.296875 C 375.175781 615.332031 375.289062 620.136719 378.320312 623.027344 L 389.558594 633.75 C 393.871094 637.960938 400.796875 637.871094 405.003906 633.550781 L 411.277344 627.101562 C 415.816406 622.4375 422.746094 621.027344 428.90625 623.511719 L 429.28125 623.660156 C 435.53125 626.144531 439.621094 631.957031 439.707031 638.472656 L 439.824219 647.480469 C 439.902344 653.464844 444.789062 658.277344 450.746094 658.277344 C 450.792969 658.277344 450.839844 658.277344 450.886719 658.277344 L 480.117188 657.898438 C 483.035156 657.859375 485.761719 656.6875 487.800781 654.59375 C 489.835938 652.5 490.933594 649.738281 490.898438 646.8125 L 490.78125 637.804688 C 490.695312 631.292969 494.636719 625.375 500.792969 622.738281 L 501.164062 622.582031 C 507.285156 619.933594 514.25 621.15625 518.90625 625.699219 L 525.34375 631.984375 C 529.652344 636.195312 536.582031 636.109375 540.789062 631.785156 L 561.195312 610.804688 C 563.230469 608.710938 564.332031 605.949219 564.292969 603.027344 C 564.253906 600.105469 563.082031 597.371094 560.992188 595.332031 L 554.554688 589.042969 C 549.898438 584.5 548.496094 577.554688 550.976562 571.367188 L 551.117188 571.011719 C 553.597656 564.746094 559.402344 560.648438 565.902344 560.5625 L 574.898438 560.445312 C 580.914062 560.363281 585.75 555.390625 585.671875 549.359375 L 585.292969 520.078125 C 585.214844 514.042969 580.222656 509.203125 574.230469 509.273438 Z M 574.230469 509.273438 " fill-opacity="1" fill-rule="nonzero"/></g><path fill="#1a1a1a" d="M 464.496094 580.296875 C 452.742188 580.519531 441.675781 576.015625 433.277344 567.8125 C 430.28125 564.886719 425.480469 564.949219 422.558594 567.953125 C 419.640625 570.957031 419.699219 575.761719 422.699219 578.6875 C 433.8125 589.539062 448.417969 595.484375 463.902344 595.484375 C 464.164062 595.484375 464.429688 595.480469 464.691406 595.480469 C 480.46875 595.273438 495.222656 588.925781 506.234375 577.601562 C 528.964844 554.226562 528.480469 516.683594 505.148438 493.90625 C 502.15625 490.980469 497.355469 491.042969 494.433594 494.046875 C 491.511719 497.050781 491.574219 501.859375 494.574219 504.785156 C 511.917969 521.714844 512.277344 549.628906 495.378906 567.003906 C 487.191406 575.421875 476.222656 580.144531 464.496094 580.296875 Z M 464.496094 580.296875 " fill-opacity="1" fill-rule="nonzero"/></svg>