<svg xmlns="http://www.w3.org/2000/svg" xmlns:xlink="http://www.w3.org/1999/xlink" width="1254" zoomAndPan="magnify" viewBox="0 0 940.5 940.499971" height="1254" preserveAspectRatio="xMidYMid meet" version="1.0"><path fill="#1a1a1a" d="M 849.585938 147.050781 C 847.636719 138.367188 841.121094 131.433594 832.578125 128.957031 C 824.03125 126.480469 814.816406 128.847656 808.523438 135.144531 L 715.03125 228.605469 L 655.898438 206.890625 L 634.207031 147.835938 L 727.714844 54.359375 C 734 48.074219 736.371094 38.859375 733.894531 30.320312 C 731.414062 21.769531 724.480469 15.242188 715.816406 13.292969 C 656.867188 -0.0273438 595.890625 17.160156 552.71875 59.300781 C 511.605469 99.398438 492.503906 157.449219 501.628906 214.59375 C 502.882812 222.457031 500.003906 230.785156 493.929688 236.859375 L 104.464844 626.191406 C 86.839844 643.8125 77.132812 667.25 77.132812 692.167969 C 77.101562 717.367188 86.996094 741 104.988281 758.707031 C 122.847656 776.289062 146.289062 785.035156 169.898438 785.035156 C 194.398438 785.03125 219.074219 775.605469 237.847656 756.835938 L 626.101562 368.714844 C 632.023438 362.796875 640.125 360.011719 647.785156 361.269531 C 704.054688 370.457031 761.710938 351.929688 802.003906 311.652344 C 845.320312 268.355469 863.105469 206.808594 849.585938 147.050781 Z M 775.171875 284.835938 C 743.496094 316.496094 698.183594 331.097656 653.917969 323.832031 C 634.242188 320.617188 613.808594 327.359375 599.269531 341.890625 L 211.019531 730.015625 C 188.835938 752.1875 153.210938 752.9375 131.609375 731.675781 C 120.929688 721.167969 115.058594 707.148438 115.078125 692.1875 C 115.078125 677.382812 120.835938 663.472656 131.296875 653.015625 L 520.761719 263.679688 C 535.40625 249.03125 542.261719 228.449219 539.097656 208.613281 C 531.914062 163.621094 546.914062 117.953125 579.222656 86.445312 C 605.589844 60.707031 640.402344 46.808594 676.375 46.808594 C 678.082031 46.808594 679.796875 46.84375 681.507812 46.90625 L 603.25 125.136719 C 595.296875 133.09375 592.691406 145.019531 596.574219 155.429688 L 621.761719 224.007812 C 624.71875 231.996094 631.007812 238.222656 638.882812 241.050781 L 707.304688 266.179688 C 717.835938 270.105469 729.769531 267.507812 737.726562 259.558594 L 815.96875 181.34375 C 817.390625 219.699219 802.96875 257.046875 775.171875 284.835938 Z M 775.171875 284.835938 " fill-opacity="1" fill-rule="nonzero"/><path fill="#1a1a1a" d="M 185.636719 650.210938 L 161.21875 674.621094 C 153.808594 682.027344 153.808594 694.039062 161.21875 701.441406 C 164.921875 705.144531 169.777344 707 174.632812 707 C 179.488281 707 184.34375 705.148438 188.050781 701.441406 L 212.46875 677.03125 C 219.878906 669.625 219.878906 657.617188 212.46875 650.210938 C 205.058594 642.804688 193.046875 642.804688 185.636719 650.210938 Z M 185.636719 650.210938 " fill-opacity="1" fill-rule="nonzero"/><path fill="#1a1a1a" d="M 731.507812 567.730469 L 709.003906 568.023438 C 692.667969 568.304688 677.933594 558.367188 671.308594 542.863281 L 670.953125 542.039062 C 664.335938 526.71875 667.394531 509.289062 678.753906 497.640625 L 694.453125 481.53125 C 699.554688 476.300781 702.3125 469.398438 702.214844 462.09375 C 702.121094 454.792969 699.1875 447.960938 693.730469 442.648438 L 670.265625 420.539062 C 662.640625 413.355469 650.632812 413.710938 643.449219 421.332031 C 636.261719 428.953125 636.613281 440.957031 644.238281 448.144531 L 659.761719 462.769531 L 651.574219 471.167969 C 629.445312 493.871094 623.378906 527.59375 636.101562 557.046875 L 636.425781 557.796875 C 649.101562 587.457031 677.648438 606.34375 709.492188 605.957031 L 721.398438 605.800781 L 722.074219 657.765625 L 710.167969 657.917969 C 678.457031 658.332031 650.28125 677.972656 638.328125 708.078125 L 638.085938 708.6875 C 626.117188 738.492188 633.054688 772.042969 655.765625 794.167969 L 664.296875 802.476562 L 628.007812 839.707031 L 619.476562 831.398438 C 596.769531 809.28125 563.035156 803.214844 533.628906 815.910156 L 532.820312 816.253906 C 503.140625 828.925781 484.234375 857.597656 484.644531 889.300781 L 484.800781 901.203125 L 432.816406 901.875 L 432.660156 889.976562 C 432.253906 858.273438 412.605469 830.105469 382.742188 818.257812 L 382.238281 818.058594 L 375.210938 835.675781 L 381.882812 817.917969 C 352.0625 805.953125 318.503906 812.886719 296.371094 835.589844 L 287.980469 844.203125 L 267.207031 824.425781 C 259.621094 817.199219 247.609375 817.488281 240.386719 825.078125 C 233.160156 832.660156 233.453125 844.667969 241.039062 851.890625 L 269.171875 878.675781 C 279.964844 889.199219 297.308594 888.972656 307.84375 878.179688 L 323.550781 862.0625 C 334.910156 850.417969 352.257812 846.898438 367.6875 853.09375 L 368.617188 853.464844 C 384.265625 859.675781 394.511719 874.195312 394.722656 890.46875 L 395.015625 912.972656 C 395.210938 927.917969 407.441406 939.945312 422.355469 939.945312 C 422.472656 939.945312 422.59375 939.945312 422.710938 939.945312 L 495.890625 938.996094 C 503.195312 938.898438 510.027344 935.96875 515.125 930.738281 C 520.21875 925.507812 522.976562 918.609375 522.882812 911.304688 L 522.589844 888.804688 C 522.378906 872.535156 532.242188 857.75 547.65625 851.167969 L 548.582031 850.773438 C 563.914062 844.160156 581.34375 847.214844 593 858.566406 L 609.117188 874.265625 C 619.910156 884.785156 637.253906 884.566406 647.785156 873.769531 L 698.871094 821.355469 C 703.96875 816.125 706.722656 809.226562 706.628906 801.921875 C 706.535156 794.625 703.601562 787.796875 698.371094 782.703125 L 682.25 767 C 670.59375 755.644531 667.082031 738.300781 673.292969 722.835938 L 673.644531 721.953125 C 679.855469 706.304688 694.386719 696.0625 710.660156 695.851562 L 733.175781 695.5625 C 748.246094 695.355469 760.347656 682.933594 760.152344 667.867188 L 759.203125 594.714844 C 759.007812 579.644531 746.511719 567.550781 731.507812 567.730469 Z M 731.507812 567.730469 " fill-opacity="1" fill-rule="nonzero"/><path fill="#1a1a1a" d="M 456.777344 745.144531 C 427.359375 745.703125 399.65625 734.457031 378.621094 713.960938 C 371.121094 706.652344 359.109375 706.808594 351.792969 714.3125 C 344.480469 721.8125 344.636719 733.820312 352.140625 741.128906 C 379.964844 768.230469 416.527344 783.085938 455.296875 783.085938 C 455.957031 783.085938 456.613281 783.082031 457.269531 783.074219 C 496.773438 782.5625 533.710938 766.699219 561.277344 738.414062 C 618.1875 680.027344 616.96875 586.242188 558.5625 529.347656 C 551.0625 522.039062 539.050781 522.195312 531.734375 529.695312 C 524.421875 537.195312 524.578125 549.207031 532.082031 556.515625 C 575.503906 598.8125 576.410156 668.535156 534.101562 711.945312 C 513.605469 732.972656 486.144531 744.765625 456.777344 745.144531 Z M 456.777344 745.144531 " fill-opacity="1" fill-rule="nonzero"/></svg>