<svg xmlns="http://www.w3.org/2000/svg" xmlns:xlink="http://www.w3.org/1999/xlink" width="1254" zoomAndPan="magnify" viewBox="0 0 940.5 940.499971" height="1254" preserveAspectRatio="xMidYMid meet" version="1.0"><path fill="#737373" d="M 178.359375 479.640625 L 81.949219 479.640625 C 35.429688 479.640625 -2.410156 517.480469 -2.410156 564 L -2.410156 853.230469 C -2.410156 899.75 35.429688 937.589844 81.949219 937.589844 L 178.359375 937.589844 C 224.878906 937.589844 262.71875 899.75 262.71875 853.230469 L 262.71875 564 C 262.71875 517.480469 224.878906 479.640625 178.359375 479.640625 Z M 190.410156 853.230469 C 190.410156 859.882812 185.011719 865.28125 178.359375 865.28125 L 81.949219 865.28125 C 75.296875 865.28125 69.898438 859.882812 69.898438 853.230469 L 69.898438 564 C 69.898438 557.347656 75.296875 551.949219 81.949219 551.949219 L 178.359375 551.949219 C 185.011719 551.949219 190.410156 557.347656 190.410156 564 Z M 515.796875 238.617188 L 419.382812 238.617188 C 372.867188 238.617188 335.027344 276.457031 335.027344 322.972656 L 335.027344 853.230469 C 335.027344 899.75 372.867188 937.589844 419.382812 937.589844 L 515.796875 937.589844 C 562.3125 937.589844 600.152344 899.75 600.152344 853.230469 L 600.152344 322.972656 C 600.152344 276.457031 562.3125 238.617188 515.796875 238.617188 Z M 527.847656 853.230469 C 527.847656 859.882812 522.449219 865.28125 515.796875 865.28125 L 419.382812 865.28125 C 412.734375 865.28125 407.332031 859.882812 407.332031 853.230469 L 407.332031 322.972656 C 407.332031 316.320312 412.734375 310.921875 419.382812 310.921875 L 515.796875 310.921875 C 522.449219 310.921875 527.847656 316.320312 527.847656 322.972656 Z M 853.230469 -2.410156 L 756.820312 -2.410156 C 710.304688 -2.410156 672.460938 35.429688 672.460938 81.949219 L 672.460938 853.230469 C 672.460938 899.75 710.304688 937.589844 756.820312 937.589844 L 853.230469 937.589844 C 899.75 937.589844 937.589844 899.75 937.589844 853.230469 L 937.589844 81.949219 C 937.589844 35.429688 899.75 -2.410156 853.230469 -2.410156 Z M 865.28125 853.230469 C 865.28125 859.882812 859.882812 865.28125 853.230469 865.28125 L 756.820312 865.28125 C 750.167969 865.28125 744.769531 859.882812 744.769531 853.230469 L 744.769531 81.949219 C 744.769531 75.296875 750.167969 69.898438 756.820312 69.898438 L 853.230469 69.898438 C 859.882812 69.898438 865.28125 75.296875 865.28125 81.949219 Z M 865.28125 853.230469 " fill-opacity="1" fill-rule="nonzero"/></svg>