<svg xmlns="http://www.w3.org/2000/svg" xmlns:xlink="http://www.w3.org/1999/xlink" width="1254" zoomAndPan="magnify" viewBox="0 0 940.5 940.499971" height="1254" preserveAspectRatio="xMidYMid meet" version="1.0"><path fill="#b4b4b4" d="M 262.71875 564 L 262.71875 853.230469 C 262.71875 899.75 224.878906 937.589844 178.359375 937.589844 L 81.949219 937.589844 C 35.429688 937.589844 -2.410156 899.75 -2.410156 853.230469 L -2.410156 564 C -2.410156 517.480469 35.429688 479.640625 81.949219 479.640625 L 178.359375 479.640625 C 224.878906 479.640625 262.71875 517.480469 262.71875 564 Z M 515.796875 238.617188 L 419.382812 238.617188 C 372.867188 238.617188 335.027344 276.457031 335.027344 322.972656 L 335.027344 853.230469 C 335.027344 899.75 372.867188 937.589844 419.382812 937.589844 L 515.796875 937.589844 C 562.3125 937.589844 600.152344 899.75 600.152344 853.230469 L 600.152344 322.972656 C 600.152344 276.457031 562.3125 238.617188 515.796875 238.617188 Z M 853.230469 -2.410156 L 756.820312 -2.410156 C 710.304688 -2.410156 672.460938 35.429688 672.460938 81.949219 L 672.460938 853.230469 C 672.460938 899.75 710.304688 937.589844 756.820312 937.589844 L 853.230469 937.589844 C 899.75 937.589844 937.589844 899.75 937.589844 853.230469 L 937.589844 81.949219 C 937.589844 35.429688 899.75 -2.410156 853.230469 -2.410156 Z M 853.230469 -2.410156 " fill-opacity="1" fill-rule="nonzero"/></svg>