<svg xmlns="http://www.w3.org/2000/svg" xmlns:xlink="http://www.w3.org/1999/xlink" width="1254" zoomAndPan="magnify" viewBox="0 0 940.5 940.499971" height="1254" preserveAspectRatio="xMidYMid meet" version="1.0"><defs><clipPath id="01b61250bf"><path d="M 282 347 L 658.300781 347 L 658.300781 514 L 282 514 Z M 282 347 " clip-rule="nonzero"/></clipPath></defs><g clip-path="url(#01b61250bf)"><path fill="#000000" d="M 657.945312 389.136719 L 657.945312 388.667969 C 657.757812 388.285156 657.523438 387.933594 657.242188 387.609375 L 656.890625 387.199219 C 656.519531 386.863281 656.109375 386.589844 655.652344 386.378906 L 560.285156 347.976562 C 559.03125 347.46875 557.777344 347.46875 556.523438 347.976562 L 514.304688 365.003906 L 472.03125 347.976562 C 470.777344 347.46875 469.523438 347.46875 468.269531 347.976562 L 426.050781 365.003906 L 383.777344 347.976562 C 383.175781 347.726562 382.546875 347.605469 381.894531 347.605469 C 381.246094 347.605469 380.617188 347.726562 380.015625 347.976562 L 285.117188 386.261719 C 284.652344 386.445312 284.222656 386.695312 283.832031 387.007812 C 283.441406 387.320312 283.105469 387.683594 282.824219 388.097656 C 282.542969 388.507812 282.332031 388.957031 282.183594 389.433594 C 282.035156 389.910156 281.964844 390.398438 281.964844 390.898438 C 281.964844 391.398438 282.035156 391.886719 282.183594 392.367188 C 282.332031 392.84375 282.542969 393.289062 282.824219 393.703125 C 283.105469 394.117188 283.441406 394.480469 283.832031 394.792969 C 284.222656 395.105469 284.652344 395.355469 285.117188 395.539062 L 331.09375 414.09375 C 328.0625 419.308594 325.765625 424.832031 324.199219 430.65625 C 322.632812 436.484375 321.855469 442.410156 321.863281 448.445312 C 321.863281 484.496094 348.792969 513.796875 381.894531 513.796875 C 384.003906 513.769531 386.101562 513.632812 388.191406 513.378906 C 390.285156 513.125 392.355469 512.757812 394.40625 512.28125 C 396.457031 511.800781 398.476562 511.214844 400.464844 510.519531 C 402.453125 509.820312 404.398438 509.019531 406.296875 508.113281 C 408.199219 507.203125 410.042969 506.195312 411.835938 505.089844 C 413.625 503.984375 415.351562 502.78125 417.011719 501.488281 C 418.675781 500.191406 420.261719 498.8125 421.769531 497.347656 C 423.28125 495.882812 424.710938 494.339844 426.050781 492.71875 C 426.714844 493.535156 427.398438 494.335938 428.105469 495.113281 C 428.808594 495.894531 429.539062 496.65625 430.285156 497.394531 C 431.035156 498.132812 431.804688 498.851562 432.589844 499.546875 C 433.378906 500.246094 434.1875 500.917969 435.015625 501.570312 C 435.839844 502.222656 436.683594 502.851562 437.546875 503.457031 C 438.40625 504.0625 439.285156 504.640625 440.179688 505.199219 C 441.070312 505.753906 441.980469 506.285156 442.902344 506.789062 C 443.828125 507.296875 444.761719 507.777344 445.714844 508.230469 C 446.664062 508.683594 447.625 509.109375 448.597656 509.507812 C 449.574219 509.910156 450.558594 510.28125 451.550781 510.625 C 452.546875 510.972656 453.550781 511.289062 454.5625 511.578125 C 455.574219 511.867188 456.59375 512.128906 457.621094 512.359375 C 458.648438 512.59375 459.679688 512.796875 460.71875 512.972656 C 461.757812 513.144531 462.800781 513.292969 463.847656 513.410156 C 464.894531 513.527344 465.941406 513.613281 466.992188 513.671875 C 468.042969 513.730469 469.097656 513.761719 470.148438 513.761719 C 471.203125 513.761719 472.253906 513.730469 473.304688 513.671875 C 474.359375 513.613281 475.40625 513.527344 476.453125 513.410156 C 477.5 513.292969 478.542969 513.144531 479.582031 512.972656 C 480.617188 512.796875 481.652344 512.59375 482.679688 512.359375 C 483.707031 512.128906 484.726562 511.867188 485.738281 511.578125 C 486.75 511.289062 487.753906 510.972656 488.746094 510.625 C 489.742188 510.28125 490.726562 509.910156 491.699219 509.507812 C 492.675781 509.109375 493.636719 508.683594 494.585938 508.230469 C 495.535156 507.777344 496.472656 507.296875 497.398438 506.789062 C 498.320312 506.285156 499.230469 505.753906 500.121094 505.199219 C 501.015625 504.640625 501.894531 504.0625 502.753906 503.457031 C 503.617188 502.851562 504.460938 502.222656 505.285156 501.570312 C 506.113281 500.917969 506.917969 500.246094 507.707031 499.546875 C 508.496094 498.851562 509.265625 498.132812 510.015625 497.394531 C 510.761719 496.65625 511.488281 495.894531 512.195312 495.113281 C 512.902344 494.335938 513.585938 493.535156 514.246094 492.71875 C 515.589844 494.335938 517.015625 495.878906 518.523438 497.34375 C 520.03125 498.808594 521.617188 500.1875 523.273438 501.480469 C 524.933594 502.773438 526.65625 503.972656 528.445312 505.078125 C 530.234375 506.183594 532.078125 507.191406 533.976562 508.097656 C 535.875 509.007812 537.816406 509.808594 539.800781 510.507812 C 541.785156 511.203125 543.800781 511.792969 545.851562 512.269531 C 547.898438 512.75 549.96875 513.117188 552.054688 513.371094 C 554.144531 513.628906 556.242188 513.769531 558.34375 513.796875 C 591.449219 513.796875 618.375 484.4375 618.375 448.445312 C 618.382812 442.402344 617.605469 436.464844 616.039062 430.628906 C 614.472656 424.792969 612.175781 419.261719 609.144531 414.035156 L 648.304688 398.296875 L 648.304688 455.3125 C 648.304688 455.640625 648.339844 455.964844 648.402344 456.285156 C 648.46875 456.605469 648.5625 456.917969 648.6875 457.21875 C 648.816406 457.519531 648.96875 457.808594 649.152344 458.078125 C 649.335938 458.351562 649.542969 458.601562 649.773438 458.832031 C 650.003906 459.066406 650.257812 459.269531 650.53125 459.453125 C 650.800781 459.632812 651.089844 459.789062 651.394531 459.914062 C 651.695312 460.039062 652.007812 460.132812 652.328125 460.195312 C 652.648438 460.257812 652.976562 460.289062 653.300781 460.289062 C 653.628906 460.289062 653.953125 460.257812 654.277344 460.195312 C 654.597656 460.132812 654.910156 460.039062 655.210938 459.914062 C 655.515625 459.789062 655.800781 459.632812 656.074219 459.453125 C 656.347656 459.269531 656.597656 459.066406 656.832031 458.832031 C 657.0625 458.601562 657.269531 458.351562 657.453125 458.078125 C 657.636719 457.808594 657.789062 457.519531 657.914062 457.21875 C 658.042969 456.917969 658.136719 456.605469 658.203125 456.285156 C 658.265625 455.964844 658.300781 455.640625 658.300781 455.3125 L 658.300781 390.722656 C 658.269531 390.175781 658.152344 389.648438 657.945312 389.136719 Z M 558.34375 423.78125 L 527.59375 411.214844 L 560.050781 398.121094 L 560.050781 422.960938 Z M 470.148438 358.015625 L 551.703125 390.898438 L 470.148438 423.78125 L 428.34375 406.929688 L 427.933594 406.929688 L 388.597656 391.074219 L 427.933594 375.222656 Z M 381.953125 358.015625 L 412.707031 370.113281 L 373.371094 385.96875 C 372.90625 386.152344 372.476562 386.398438 372.085938 386.710938 C 371.695312 387.027344 371.359375 387.390625 371.078125 387.800781 C 370.796875 388.214844 370.585938 388.660156 370.4375 389.140625 C 370.289062 389.617188 370.21875 390.105469 370.21875 390.605469 C 370.21875 391.105469 370.289062 391.59375 370.4375 392.070312 C 370.585938 392.550781 370.796875 392.996094 371.078125 393.410156 C 371.359375 393.824219 371.695312 394.1875 372.085938 394.5 C 372.476562 394.8125 372.90625 395.058594 373.371094 395.246094 L 412.707031 411.214844 L 381.953125 423.78125 L 300.402344 390.898438 Z M 381.953125 503.875 C 354.378906 503.875 331.917969 479.035156 331.917969 448.503906 C 331.914062 443.101562 332.644531 437.804688 334.113281 432.605469 C 335.582031 427.410156 337.730469 422.511719 340.5625 417.910156 L 380.132812 433.882812 C 380.734375 434.128906 381.363281 434.253906 382.011719 434.253906 C 382.664062 434.253906 383.292969 434.128906 383.894531 433.882812 L 416 420.964844 C 414.980469 423.320312 414.097656 425.726562 413.351562 428.1875 C 413.351562 428.714844 413.351562 429.242188 412.941406 429.769531 C 412.28125 432.148438 411.75 434.558594 411.351562 436.992188 C 411.351562 437.816406 411.351562 438.578125 411 439.402344 C 410.585938 442.402344 410.371094 445.414062 410.355469 448.445312 C 410.363281 451.429688 410.558594 454.40625 410.941406 457.367188 C 410.941406 457.664062 410.941406 458.015625 410.941406 458.308594 C 411.324219 461.082031 411.875 463.820312 412.585938 466.527344 L 412.941406 467.820312 C 413.691406 470.417969 414.589844 472.964844 415.644531 475.453125 L 416.175781 476.746094 C 417.261719 479.226562 418.496094 481.636719 419.878906 483.96875 L 419.878906 484.4375 C 418.78125 485.914062 417.605469 487.324219 416.347656 488.667969 C 415.089844 490.011719 413.757812 491.277344 412.351562 492.464844 C 410.949219 493.65625 409.480469 494.761719 407.949219 495.78125 C 406.417969 496.800781 404.832031 497.730469 403.191406 498.566406 C 401.550781 499.402344 399.871094 500.144531 398.144531 500.789062 C 396.421875 501.433594 394.664062 501.976562 392.878906 502.417969 C 391.089844 502.859375 389.28125 503.195312 387.457031 503.429688 C 385.628906 503.664062 383.796875 503.792969 381.953125 503.816406 Z M 470.148438 503.875 C 468.160156 503.847656 466.183594 503.703125 464.210938 503.433594 C 462.242188 503.164062 460.296875 502.773438 458.375 502.261719 C 456.453125 501.753906 454.570312 501.125 452.726562 500.382812 C 450.878906 499.640625 449.089844 498.785156 447.351562 497.820312 C 445.613281 496.855469 443.941406 495.785156 442.335938 494.613281 C 440.730469 493.441406 439.203125 492.175781 437.753906 490.816406 C 436.304688 489.457031 434.949219 488.011719 433.679688 486.480469 C 432.410156 484.953125 431.238281 483.351562 430.167969 481.679688 C 428.128906 478.636719 426.382812 475.4375 424.933594 472.078125 C 423.488281 468.714844 422.359375 465.25 421.546875 461.683594 C 420.738281 458.113281 420.261719 454.5 420.121094 450.84375 C 419.980469 447.1875 420.171875 443.550781 420.703125 439.929688 C 420.703125 438.988281 421.113281 438.109375 421.289062 437.226562 C 421.644531 435.40625 421.996094 433.585938 422.523438 431.765625 C 423.054688 429.945312 423.289062 429.710938 423.640625 428.65625 C 423.996094 427.597656 424.757812 425.484375 425.464844 423.957031 C 426.171875 422.429688 426.582031 421.84375 427.109375 420.785156 C 427.640625 419.730469 428.226562 418.789062 428.816406 417.792969 L 462.683594 431.414062 L 468.5625 433.644531 C 469.167969 433.882812 469.792969 434.003906 470.445312 434 C 471.09375 434.003906 471.722656 433.882812 472.324219 433.644531 L 511.308594 417.910156 C 511.933594 418.886719 512.523438 419.90625 513.070312 420.964844 C 513.601562 422.019531 514.1875 423.019531 514.71875 424.074219 C 515.246094 425.132812 516.011719 427.1875 516.539062 428.773438 C 517.070312 430.359375 517.363281 430.828125 517.65625 431.886719 C 517.953125 432.941406 518.539062 435.523438 518.894531 437.34375 C 518.894531 438.226562 519.304688 439.164062 519.480469 440.046875 C 519.894531 442.832031 520.109375 445.628906 520.128906 448.445312 C 520.128906 451.453125 519.914062 454.449219 519.480469 457.425781 C 519.046875 460.351562 518.402344 463.230469 517.539062 466.058594 C 515.867188 471.640625 513.398438 476.847656 510.132812 481.679688 C 509.058594 483.347656 507.886719 484.949219 506.617188 486.472656 C 505.347656 488 503.988281 489.441406 502.539062 490.800781 C 501.089844 492.15625 499.5625 493.421875 497.953125 494.589844 C 496.347656 495.757812 494.675781 496.824219 492.9375 497.785156 C 491.199219 498.75 489.410156 499.601562 487.566406 500.339844 C 485.722656 501.082031 483.839844 501.707031 481.917969 502.214844 C 480 502.722656 478.054688 503.113281 476.085938 503.378906 C 474.117188 503.648438 472.136719 503.792969 470.148438 503.816406 Z M 558.34375 503.875 C 556.496094 503.855469 554.652344 503.730469 552.816406 503.5 C 550.980469 503.269531 549.164062 502.933594 547.371094 502.496094 C 545.574219 502.054688 543.808594 501.511719 542.074219 500.867188 C 540.339844 500.222656 538.648438 499.476562 537.003906 498.636719 C 535.355469 497.796875 533.761719 496.863281 532.222656 495.839844 C 530.683594 494.816406 529.207031 493.707031 527.796875 492.511719 C 526.386719 491.316406 525.050781 490.042969 523.789062 488.691406 C 522.523438 487.34375 521.34375 485.925781 520.246094 484.4375 L 520.246094 483.96875 C 521.625 481.636719 522.859375 479.226562 523.949219 476.746094 L 524.539062 475.453125 C 525.589844 472.964844 526.492188 470.417969 527.242188 467.820312 L 527.59375 466.527344 C 528.414062 463.789062 529.058594 461.011719 529.535156 458.191406 C 529.535156 457.898438 529.535156 457.542969 529.535156 457.25 C 529.917969 454.289062 530.113281 451.3125 530.121094 448.324219 C 530.121094 446.152344 530.121094 444.039062 529.769531 441.925781 C 529.769531 441.339844 529.769531 440.75 529.769531 440.222656 C 529.574219 438.5 529.300781 436.777344 528.945312 435.054688 C 528.945312 434.644531 528.945312 434.234375 528.945312 433.824219 C 528.476562 431.707031 527.929688 429.613281 527.300781 427.539062 L 527.300781 426.835938 C 526.710938 424.957031 526.007812 423.136719 525.242188 421.316406 L 525.242188 420.726562 L 557.347656 433.644531 C 558.523438 434.09375 559.699219 434.09375 560.875 433.644531 L 560.875 455.136719 C 560.875 455.464844 560.90625 455.789062 560.96875 456.109375 C 561.035156 456.433594 561.128906 456.746094 561.253906 457.046875 C 561.378906 457.351562 561.535156 457.636719 561.714844 457.910156 C 561.898438 458.183594 562.105469 458.433594 562.335938 458.667969 C 562.570312 458.898438 562.820312 459.105469 563.09375 459.289062 C 563.367188 459.46875 563.65625 459.625 563.957031 459.75 C 564.261719 459.875 564.574219 459.96875 564.894531 460.03125 C 565.21875 460.097656 565.542969 460.128906 565.871094 460.128906 C 566.199219 460.128906 566.523438 460.097656 566.847656 460.03125 C 567.167969 459.96875 567.480469 459.875 567.785156 459.75 C 568.085938 459.625 568.375 459.46875 568.648438 459.289062 C 568.921875 459.105469 569.171875 458.898438 569.40625 458.667969 C 569.636719 458.433594 569.84375 458.183594 570.027344 457.910156 C 570.210938 457.636719 570.363281 457.351562 570.488281 457.046875 C 570.613281 456.746094 570.710938 456.433594 570.773438 456.109375 C 570.835938 455.789062 570.867188 455.464844 570.867188 455.136719 L 570.867188 429.886719 L 600.679688 418.144531 C 603.488281 422.753906 605.625 427.65625 607.082031 432.851562 C 608.539062 438.046875 609.265625 443.339844 609.261719 448.738281 C 608.441406 478.976562 585.980469 503.816406 558.34375 503.816406 Z M 582.804688 413.976562 L 570.105469 419.085938 L 570.105469 390.898438 C 570.089844 390.15625 569.910156 389.449219 569.574219 388.785156 L 569.574219 388.433594 C 569.214844 387.824219 568.746094 387.3125 568.164062 386.90625 L 567.457031 386.496094 L 528.183594 370.640625 L 558.34375 358.015625 L 639.898438 390.898438 Z M 582.804688 413.976562 " fill-opacity="1" fill-rule="nonzero"/></g><path fill="#000000" d="M 589.507812 528.652344 L 527.300781 528.652344 C 522.917969 528.675781 518.585938 529.164062 514.304688 530.121094 C 510.007812 529.167969 505.65625 528.675781 501.253906 528.652344 L 439.105469 528.652344 C 434.703125 528.675781 430.351562 529.164062 426.050781 530.121094 C 421.753906 529.167969 417.402344 528.675781 413 528.652344 L 350.851562 528.652344 C 348.898438 528.664062 346.953125 528.761719 345.007812 528.957031 C 343.066406 529.148438 341.136719 529.429688 339.21875 529.800781 C 337.304688 530.171875 335.410156 530.632812 333.535156 531.183594 C 331.664062 531.730469 329.820312 532.367188 328.007812 533.085938 C 326.191406 533.808594 324.417969 534.613281 322.679688 535.5 C 320.941406 536.386719 319.246094 537.351562 317.597656 538.398438 C 315.949219 539.441406 314.355469 540.5625 312.8125 541.753906 C 311.269531 542.949219 309.785156 544.214844 308.359375 545.546875 C 306.933594 546.878906 305.574219 548.273438 304.28125 549.734375 C 302.988281 551.195312 301.765625 552.710938 300.613281 554.285156 C 299.460938 555.859375 298.386719 557.480469 297.386719 559.15625 C 296.386719 560.832031 295.464844 562.546875 294.625 564.308594 C 293.789062 566.070312 293.03125 567.863281 292.363281 569.695312 C 291.691406 571.527344 291.105469 573.382812 290.609375 575.269531 C 290.113281 577.15625 289.707031 579.058594 289.386719 580.980469 C 289.070312 582.90625 288.839844 584.839844 288.703125 586.785156 C 288.679688 587.125 288.691406 587.46875 288.734375 587.808594 C 288.78125 588.148438 288.863281 588.480469 288.976562 588.804688 C 289.089844 589.125 289.238281 589.433594 289.417969 589.726562 C 289.59375 590.019531 289.800781 590.292969 290.035156 590.542969 C 290.269531 590.792969 290.527344 591.019531 290.808594 591.214844 C 291.089844 591.414062 291.386719 591.582031 291.703125 591.71875 C 292.019531 591.855469 292.34375 591.957031 292.679688 592.027344 C 293.015625 592.09375 293.355469 592.128906 293.699219 592.128906 L 646.539062 592.128906 C 646.882812 592.128906 647.222656 592.09375 647.5625 592.027344 C 647.898438 591.957031 648.222656 591.855469 648.539062 591.71875 C 648.855469 591.582031 649.152344 591.414062 649.433594 591.214844 C 649.714844 591.019531 649.972656 590.792969 650.207031 590.542969 C 650.441406 590.292969 650.644531 590.019531 650.824219 589.726562 C 651.003906 589.433594 651.148438 589.125 651.265625 588.804688 C 651.378906 588.480469 651.460938 588.148438 651.503906 587.808594 C 651.550781 587.46875 651.5625 587.125 651.539062 586.785156 C 651.402344 584.84375 651.171875 582.910156 650.855469 580.988281 C 650.539062 579.070312 650.128906 577.167969 649.636719 575.285156 C 649.140625 573.398438 648.554688 571.542969 647.886719 569.714844 C 647.21875 567.886719 646.464844 566.09375 645.628906 564.335938 C 644.789062 562.578125 643.871094 560.859375 642.875 559.1875 C 641.878906 557.515625 640.804688 555.890625 639.65625 554.320312 C 638.503906 552.746094 637.285156 551.230469 635.992188 549.773438 C 634.703125 548.3125 633.347656 546.917969 631.925781 545.585938 C 630.503906 544.253906 629.023438 542.988281 627.480469 541.796875 C 625.941406 540.601562 624.347656 539.480469 622.703125 538.433594 C 621.058594 537.390625 619.371094 536.421875 617.636719 535.535156 C 615.898438 534.648438 614.128906 533.839844 612.316406 533.117188 C 610.507812 532.394531 608.667969 531.757812 606.796875 531.207031 C 604.925781 530.65625 603.035156 530.195312 601.121094 529.820312 C 599.207031 529.445312 597.28125 529.160156 595.34375 528.964844 C 593.402344 528.769531 591.457031 528.667969 589.507812 528.652344 Z M 501.3125 538.636719 C 505.285156 538.65625 509.207031 539.125 513.070312 540.042969 C 515.707031 540.660156 518.273438 541.484375 520.773438 542.511719 C 521.597656 542.863281 522.363281 543.332031 523.183594 543.683594 C 524.792969 544.40625 526.363281 545.210938 527.886719 546.09375 C 528.769531 546.621094 529.652344 547.265625 530.476562 547.914062 C 531.296875 548.558594 533.121094 549.734375 534.296875 550.730469 C 535.472656 551.730469 535.945312 552.257812 536.765625 553.019531 C 537.589844 553.785156 538.941406 555.136719 540 556.25 C 541.058594 557.367188 541.46875 558.011719 542.175781 558.894531 C 542.882812 559.773438 544 561.242188 544.820312 562.535156 C 545.644531 563.824219 546.058594 564.53125 546.585938 565.527344 C 547.113281 566.527344 547.996094 568.171875 548.644531 569.519531 C 549.289062 570.871094 549.585938 571.695312 549.996094 572.75 C 550.40625 573.808594 550.996094 575.570312 551.40625 577.039062 C 551.820312 578.503906 552.054688 579.328125 552.289062 580.441406 C 552.523438 581.558594 552.289062 581.5 552.289062 582.085938 L 387.835938 582.085938 C 387.835938 581.558594 387.835938 580.972656 387.835938 580.441406 C 387.835938 579.914062 388.363281 578.09375 388.714844 576.980469 C 389.070312 575.863281 389.597656 574.101562 390.070312 572.691406 C 390.539062 571.28125 390.949219 570.460938 391.421875 569.402344 C 391.890625 568.347656 392.714844 566.761719 393.421875 565.46875 C 394.125 564.179688 394.597656 563.414062 395.183594 562.476562 C 395.773438 561.535156 396.890625 560.066406 397.769531 558.894531 C 398.652344 557.71875 399.183594 557.074219 399.945312 556.191406 C 400.710938 555.3125 402.003906 554.078125 403.121094 553.019531 C 404.238281 551.964844 404.769531 551.4375 405.648438 550.730469 C 406.53125 550.027344 408.121094 548.851562 409.414062 547.972656 C 410.707031 547.089844 411.175781 546.679688 412.117188 546.152344 C 413.058594 545.621094 415.175781 544.566406 416.703125 543.800781 C 418.230469 543.039062 418.410156 542.921875 419.289062 542.570312 C 421.839844 541.644531 424.449219 540.917969 427.109375 540.398438 C 430.976562 539.472656 434.894531 539.003906 438.871094 538.988281 Z M 350.910156 538.636719 L 405.472656 538.636719 L 404.589844 539.28125 C 403.335938 540.101562 402.140625 540.984375 401.003906 541.921875 L 399.652344 542.980469 C 398.183594 544.214844 396.710938 545.503906 395.359375 546.855469 C 393.949219 548.265625 392.65625 549.734375 391.421875 551.261719 L 390.363281 552.609375 C 389.460938 553.785156 388.597656 554.980469 387.777344 556.191406 L 386.835938 557.601562 C 385.777344 559.246094 384.777344 560.949219 383.894531 562.769531 L 383.894531 563.296875 C 383.070312 564.941406 382.367188 566.585938 381.71875 568.289062 L 381.074219 569.992188 C 380.5625 571.398438 380.113281 572.847656 379.71875 574.335938 L 379.25 575.921875 C 378.78125 577.859375 378.367188 579.855469 378.074219 581.792969 L 299.34375 581.792969 C 299.617188 580.300781 299.957031 578.824219 300.359375 577.363281 C 300.757812 575.898438 301.222656 574.457031 301.75 573.035156 C 302.277344 571.613281 302.867188 570.214844 303.511719 568.84375 C 304.160156 567.472656 304.867188 566.128906 305.632812 564.820312 C 306.398438 563.507812 307.21875 562.234375 308.09375 560.996094 C 308.96875 559.753906 309.894531 558.554688 310.875 557.398438 C 311.851562 556.238281 312.878906 555.121094 313.957031 554.050781 C 315.03125 552.980469 316.152344 551.960938 317.316406 550.988281 C 318.484375 550.015625 319.6875 549.09375 320.933594 548.222656 C 322.175781 547.355469 323.457031 546.542969 324.773438 545.78125 C 326.085938 545.023438 327.433594 544.324219 328.808594 543.683594 C 330.183594 543.042969 331.585938 542.460938 333.011719 541.941406 C 334.4375 541.417969 335.886719 540.960938 337.351562 540.566406 C 338.816406 540.171875 340.296875 539.839844 341.792969 539.574219 C 343.289062 539.304688 344.792969 539.105469 346.304688 538.964844 C 347.816406 538.828125 349.332031 538.757812 350.851562 538.753906 Z M 562.929688 582.144531 C 562.636719 580.089844 562.226562 578.09375 561.753906 576.273438 L 561.34375 574.6875 C 560.953125 573.199219 560.5 571.753906 559.992188 570.34375 L 559.402344 568.640625 C 558.757812 566.9375 557.992188 565.234375 557.226562 563.648438 L 557.226562 563.179688 C 556.347656 561.417969 555.347656 559.714844 554.289062 558.011719 L 553.40625 556.660156 C 552.582031 555.410156 551.703125 554.195312 550.761719 553.019531 L 549.761719 551.730469 C 547.035156 548.542969 544.019531 545.667969 540.707031 543.097656 L 539.472656 542.101562 C 538.257812 541.160156 537.003906 540.242188 535.707031 539.339844 L 534.886719 538.753906 L 589.507812 538.753906 C 591.035156 538.761719 592.558594 538.835938 594.078125 538.976562 C 595.597656 539.117188 597.109375 539.324219 598.613281 539.597656 C 600.113281 539.867188 601.601562 540.207031 603.074219 540.605469 C 604.546875 541.007812 606 541.472656 607.433594 542.003906 C 608.867188 542.53125 610.273438 543.121094 611.652344 543.769531 C 613.035156 544.421875 614.382812 545.128906 615.703125 545.898438 C 617.023438 546.667969 618.304688 547.492188 619.554688 548.371094 C 620.800781 549.25 622.007812 550.183594 623.171875 551.167969 C 624.339844 552.152344 625.457031 553.1875 626.535156 554.269531 C 627.609375 555.351562 628.636719 556.476562 629.613281 557.648438 C 630.589844 558.820312 631.515625 560.03125 632.386719 561.285156 C 633.257812 562.539062 634.074219 563.824219 634.832031 565.148438 C 635.589844 566.472656 636.292969 567.824219 636.933594 569.207031 C 637.574219 570.59375 638.152344 572 638.671875 573.4375 C 639.1875 574.871094 639.644531 576.324219 640.035156 577.796875 C 640.425781 579.273438 640.753906 580.761719 641.015625 582.261719 Z M 562.929688 582.144531 " fill-opacity="1" fill-rule="nonzero"/></svg>