<svg xmlns="http://www.w3.org/2000/svg" xmlns:xlink="http://www.w3.org/1999/xlink" width="1254" zoomAndPan="magnify" viewBox="0 0 940.5 940.499971" height="1254" preserveAspectRatio="xMidYMid meet" version="1.0"><path fill="#000000" d="M 939.117188 267.90625 L 939.117188 266.734375 C 938.644531 265.773438 938.058594 264.894531 937.355469 264.089844 L 936.476562 263.0625 C 935.550781 262.21875 934.523438 261.535156 933.390625 261.003906 L 695.160156 164.941406 C 693.652344 164.328125 692.085938 164.023438 690.460938 164.023438 C 688.832031 164.023438 687.265625 164.328125 685.757812 164.941406 L 580.304688 207.539062 L 474.699219 164.941406 C 473.191406 164.328125 471.625 164.023438 470 164.023438 C 468.375 164.023438 466.808594 164.328125 465.300781 164.941406 L 359.84375 207.539062 L 254.242188 164.941406 C 252.734375 164.320312 251.167969 164.011719 249.539062 164.011719 C 247.914062 164.011719 246.347656 164.320312 244.839844 164.941406 L 7.785156 260.710938 C 6.621094 261.171875 5.554688 261.792969 4.578125 262.578125 C 3.605469 263.359375 2.765625 264.269531 2.0625 265.300781 C 1.359375 266.335938 0.824219 267.453125 0.457031 268.648438 C 0.0898438 269.839844 -0.09375 271.0625 -0.09375 272.316406 C -0.09375 273.566406 0.0898438 274.789062 0.457031 275.984375 C 0.824219 277.179688 1.359375 278.292969 2.0625 279.328125 C 2.765625 280.363281 3.605469 281.269531 4.578125 282.054688 C 5.554688 282.835938 6.621094 283.457031 7.785156 283.917969 L 122.640625 330.335938 C 118.871094 336.832031 115.542969 343.546875 112.660156 350.484375 C 109.777344 357.417969 107.359375 364.515625 105.414062 371.769531 C 103.46875 379.023438 102.003906 386.375 101.027344 393.824219 C 100.054688 401.273438 99.570312 408.75 99.582031 416.261719 C 99.582031 506.453125 166.851562 579.746094 249.539062 579.746094 C 254.800781 579.683594 260.046875 579.332031 265.269531 578.695312 C 270.492188 578.0625 275.667969 577.148438 280.792969 575.953125 C 285.917969 574.757812 290.960938 573.285156 295.925781 571.542969 C 300.890625 569.800781 305.75 567.792969 310.496094 565.523438 C 315.246094 563.253906 319.855469 560.734375 324.328125 557.964844 C 328.804688 555.195312 333.117188 552.191406 337.265625 548.953125 C 341.414062 545.714844 345.375 542.265625 349.148438 538.597656 C 352.921875 534.929688 356.488281 531.070312 359.84375 527.015625 C 361.496094 529.0625 363.203125 531.0625 364.96875 533.011719 C 366.730469 534.964844 368.550781 536.863281 370.417969 538.714844 C 372.289062 540.566406 374.207031 542.359375 376.179688 544.105469 C 378.148438 545.847656 380.164062 547.535156 382.230469 549.164062 C 384.292969 550.796875 386.402344 552.367188 388.554688 553.878906 C 390.703125 555.394531 392.898438 556.847656 395.128906 558.238281 C 397.363281 559.628906 399.632812 560.957031 401.9375 562.21875 C 404.246094 563.484375 406.585938 564.683594 408.957031 565.820312 C 411.332031 566.953125 413.734375 568.019531 416.167969 569.019531 C 418.597656 570.019531 421.058594 570.953125 423.542969 571.816406 C 426.027344 572.675781 428.535156 573.472656 431.0625 574.195312 C 433.59375 574.917969 436.140625 575.570312 438.703125 576.152344 C 441.269531 576.734375 443.847656 577.242188 446.441406 577.679688 C 449.035156 578.117188 451.640625 578.484375 454.253906 578.777344 C 456.867188 579.066406 459.488281 579.289062 462.113281 579.433594 C 464.742188 579.582031 467.371094 579.652344 470 579.652344 C 472.628906 579.652344 475.257812 579.582031 477.886719 579.433594 C 480.511719 579.289062 483.132812 579.066406 485.746094 578.777344 C 488.359375 578.484375 490.964844 578.117188 493.558594 577.679688 C 496.152344 577.242188 498.730469 576.734375 501.296875 576.152344 C 503.859375 575.570312 506.40625 574.917969 508.9375 574.195312 C 511.464844 573.472656 513.972656 572.675781 516.457031 571.816406 C 518.941406 570.953125 521.402344 570.019531 523.832031 569.019531 C 526.265625 568.019531 528.667969 566.953125 531.042969 565.820312 C 533.417969 564.683594 535.757812 563.484375 538.0625 562.21875 C 540.367188 560.957031 542.636719 559.628906 544.871094 558.238281 C 547.101562 556.847656 549.296875 555.394531 551.445312 553.878906 C 553.597656 552.367188 555.707031 550.796875 557.769531 549.164062 C 559.835938 547.535156 561.851562 545.847656 563.820312 544.105469 C 565.792969 542.359375 567.710938 540.566406 569.582031 538.714844 C 571.449219 536.863281 573.269531 534.964844 575.03125 533.011719 C 576.796875 531.0625 578.503906 529.0625 580.15625 527.015625 C 583.507812 531.066406 587.070312 534.921875 590.839844 538.585938 C 594.605469 542.25 598.5625 545.699219 602.707031 548.933594 C 606.847656 552.167969 611.15625 555.167969 615.625 557.9375 C 620.089844 560.707031 624.695312 563.226562 629.4375 565.496094 C 634.179688 567.765625 639.027344 569.769531 643.984375 571.515625 C 648.945312 573.257812 653.984375 574.730469 659.101562 575.929688 C 664.21875 577.125 669.386719 578.046875 674.601562 578.683594 C 679.820312 579.320312 685.058594 579.675781 690.3125 579.746094 C 773.003906 579.746094 840.273438 506.304688 840.273438 416.261719 C 840.28125 408.738281 839.796875 401.25 838.820312 393.789062 C 837.84375 386.332031 836.378906 378.96875 834.433594 371.699219 C 832.488281 364.433594 830.070312 357.328125 827.1875 350.378906 C 824.308594 343.429688 820.980469 336.699219 817.210938 330.1875 L 915.03125 290.824219 L 915.03125 433.449219 C 915.035156 434.265625 915.117188 435.078125 915.277344 435.878906 C 915.4375 436.683594 915.675781 437.460938 915.992188 438.214844 C 916.304688 438.972656 916.691406 439.6875 917.148438 440.367188 C 917.601562 441.046875 918.121094 441.675781 918.699219 442.253906 C 919.28125 442.832031 919.910156 443.347656 920.589844 443.800781 C 921.269531 444.257812 921.988281 444.640625 922.746094 444.953125 C 923.503906 445.265625 924.28125 445.5 925.085938 445.660156 C 925.886719 445.820312 926.699219 445.898438 927.515625 445.898438 C 928.335938 445.898438 929.144531 445.820312 929.945312 445.660156 C 930.75 445.5 931.527344 445.265625 932.285156 444.953125 C 933.042969 444.640625 933.761719 444.257812 934.441406 443.800781 C 935.121094 443.347656 935.75 442.832031 936.332031 442.253906 C 936.910156 441.675781 937.429688 441.046875 937.882812 440.367188 C 938.339844 439.6875 938.726562 438.972656 939.039062 438.214844 C 939.355469 437.460938 939.59375 436.683594 939.753906 435.878906 C 939.914062 435.078125 939.996094 434.265625 940 433.449219 L 940 271.875 C 939.925781 270.503906 939.632812 269.179688 939.117188 267.90625 Z M 690.3125 354.570312 L 613.496094 323.136719 L 694.570312 290.382812 L 694.570312 352.515625 Z M 470 190.058594 L 673.714844 272.316406 L 470 354.570312 L 365.570312 312.414062 L 364.542969 312.414062 L 266.285156 272.753906 L 364.542969 233.097656 Z M 249.6875 190.058594 L 326.503906 220.316406 L 228.242188 259.976562 C 227.082031 260.4375 226.011719 261.058594 225.039062 261.84375 C 224.0625 262.625 223.222656 263.53125 222.523438 264.566406 C 221.820312 265.601562 221.285156 266.71875 220.917969 267.910156 C 220.550781 269.105469 220.367188 270.328125 220.367188 271.582031 C 220.367188 272.832031 220.550781 274.054688 220.917969 275.25 C 221.285156 276.445312 221.820312 277.558594 222.523438 278.59375 C 223.222656 279.628906 224.0625 280.535156 225.039062 281.320312 C 226.011719 282.101562 227.082031 282.722656 228.242188 283.183594 L 326.503906 323.136719 L 249.6875 354.570312 L 45.972656 272.316406 Z M 249.6875 554.921875 C 180.804688 554.921875 124.695312 492.789062 124.695312 416.410156 C 124.691406 409.6875 125.144531 402.996094 126.0625 396.339844 C 126.980469 389.679688 128.351562 383.117188 130.175781 376.644531 C 132.003906 370.175781 134.265625 363.863281 136.960938 357.707031 C 139.660156 351.550781 142.769531 345.609375 146.289062 339.882812 L 245.132812 379.835938 C 246.640625 380.457031 248.207031 380.765625 249.835938 380.765625 C 251.460938 380.765625 253.027344 380.457031 254.535156 379.835938 L 334.726562 347.519531 C 332.183594 353.417969 329.980469 359.441406 328.117188 365.585938 C 328.117188 366.910156 328.117188 368.230469 327.089844 369.554688 C 325.441406 375.503906 324.117188 381.527344 323.125 387.621094 C 323.125 389.675781 323.125 391.585938 322.242188 393.644531 C 321.210938 401.148438 320.671875 408.6875 320.628906 416.261719 C 320.65625 423.734375 321.144531 431.179688 322.097656 438.589844 C 322.097656 439.324219 322.097656 440.207031 322.097656 440.941406 C 323.054688 447.878906 324.425781 454.730469 326.210938 461.503906 L 327.089844 464.734375 C 328.960938 471.234375 331.214844 477.601562 333.847656 483.832031 L 335.167969 487.0625 C 337.886719 493.273438 340.972656 499.292969 344.421875 505.128906 L 344.421875 506.304688 C 341.683594 510 338.746094 513.527344 335.601562 516.886719 C 332.457031 520.246094 329.132812 523.410156 325.621094 526.386719 C 322.113281 529.363281 318.445312 532.125 314.621094 534.675781 C 310.792969 537.230469 306.832031 539.550781 302.738281 541.648438 C 298.640625 543.742188 294.441406 545.59375 290.132812 547.207031 C 285.824219 548.816406 281.4375 550.175781 276.972656 551.28125 C 272.507812 552.386719 267.992188 553.230469 263.429688 553.816406 C 258.867188 554.398438 254.285156 554.71875 249.6875 554.777344 Z M 470 554.921875 C 467.519531 554.894531 465.039062 554.785156 462.566406 554.601562 C 460.089844 554.417969 457.625 554.15625 455.167969 553.820312 C 452.707031 553.484375 450.261719 553.070312 447.828125 552.582031 C 445.398438 552.09375 442.980469 551.53125 440.582031 550.894531 C 438.183594 550.253906 435.808594 549.542969 433.453125 548.757812 C 431.101562 547.976562 428.773438 547.117188 426.472656 546.1875 C 424.171875 545.261719 421.902344 544.261719 419.660156 543.191406 C 417.421875 542.121094 415.21875 540.984375 413.050781 539.78125 C 410.878906 538.574219 408.75 537.300781 406.660156 535.964844 C 404.570312 534.628906 402.523438 533.226562 400.519531 531.761719 C 398.515625 530.296875 396.558594 528.773438 394.652344 527.1875 C 392.742188 525.601562 390.882812 523.960938 389.078125 522.257812 C 387.269531 520.558594 385.515625 518.804688 383.816406 516.996094 C 382.117188 515.1875 380.476562 513.328125 378.894531 511.417969 C 377.308594 509.507812 375.785156 507.550781 374.324219 505.542969 C 372.859375 503.539062 371.460938 501.492188 370.125 499.402344 C 367.582031 495.605469 365.21875 491.703125 363.035156 487.691406 C 360.855469 483.679688 358.859375 479.578125 357.054688 475.382812 C 355.246094 471.1875 353.636719 466.921875 352.226562 462.578125 C 350.8125 458.234375 349.601562 453.835938 348.59375 449.382812 C 347.585938 444.925781 346.78125 440.4375 346.1875 435.90625 C 345.589844 431.378906 345.203125 426.835938 345.027344 422.269531 C 344.851562 417.707031 344.882812 413.144531 345.125 408.585938 C 345.367188 404.023438 345.816406 399.484375 346.476562 394.964844 C 346.476562 392.613281 347.507812 390.410156 347.945312 388.207031 C 348.828125 383.65625 349.710938 379.101562 351.03125 374.546875 C 352.351562 369.992188 352.941406 369.40625 353.820312 366.761719 C 354.703125 364.117188 356.613281 358.832031 358.375 355.011719 C 360.136719 351.191406 361.164062 349.722656 362.488281 347.078125 C 363.808594 344.4375 365.277344 342.085938 366.746094 339.589844 L 451.347656 373.667969 L 466.035156 379.246094 C 467.542969 379.84375 469.109375 380.136719 470.734375 380.128906 C 472.359375 380.136719 473.925781 379.84375 475.433594 379.246094 L 572.8125 339.882812 C 574.378906 342.332031 575.847656 344.875 577.21875 347.519531 C 578.539062 350.164062 580.007812 352.660156 581.332031 355.304688 C 582.652344 357.949219 584.5625 363.089844 585.882812 367.054688 C 587.207031 371.023438 587.941406 372.195312 588.675781 374.839844 C 589.410156 377.484375 590.878906 383.949219 591.757812 388.5 C 591.757812 390.703125 592.789062 393.054688 593.226562 395.257812 C 594.265625 402.222656 594.804688 409.222656 594.84375 416.261719 C 594.851562 423.792969 594.3125 431.285156 593.226562 438.738281 C 592.148438 446.054688 590.535156 453.253906 588.382812 460.328125 C 584.199219 474.292969 578.03125 487.316406 569.875 499.402344 C 568.535156 501.488281 567.136719 503.535156 565.671875 505.535156 C 564.207031 507.535156 562.683594 509.488281 561.097656 511.398438 C 559.511719 513.304688 557.867188 515.160156 556.167969 516.964844 C 554.46875 518.769531 552.714844 520.519531 550.90625 522.21875 C 549.097656 523.914062 547.238281 525.554688 545.328125 527.136719 C 543.417969 528.71875 541.460938 530.238281 539.457031 531.699219 C 537.453125 533.160156 535.40625 534.558594 533.316406 535.890625 C 531.226562 537.226562 529.097656 538.496094 526.925781 539.695312 C 524.757812 540.898438 522.554688 542.035156 520.316406 543.101562 C 518.078125 544.167969 515.808594 545.164062 513.507812 546.089844 C 511.207031 547.015625 508.878906 547.867188 506.527344 548.648438 C 504.171875 549.429688 501.796875 550.140625 499.402344 550.773438 C 497.003906 551.410156 494.589844 551.96875 492.15625 552.457031 C 489.726562 552.941406 487.28125 553.351562 484.824219 553.6875 C 482.367188 554.019531 479.902344 554.277344 477.429688 554.460938 C 474.957031 554.644531 472.480469 554.746094 470 554.777344 Z M 690.3125 554.921875 C 685.691406 554.878906 681.089844 554.570312 676.503906 553.992188 C 671.917969 553.414062 667.382812 552.574219 662.894531 551.472656 C 658.40625 550.371094 653.996094 549.011719 649.667969 547.398438 C 645.335938 545.785156 641.113281 543.929688 637 541.824219 C 632.882812 539.722656 628.902344 537.390625 625.058594 534.828125 C 621.210938 532.265625 617.527344 529.488281 614.003906 526.496094 C 610.480469 523.507812 607.140625 520.324219 603.988281 516.949219 C 600.832031 513.570312 597.882812 510.023438 595.136719 506.304688 L 595.136719 505.128906 C 598.585938 499.292969 601.671875 493.273438 604.390625 487.0625 L 605.859375 483.832031 C 608.492188 477.601562 610.742188 471.234375 612.617188 464.734375 L 613.496094 461.503906 C 615.539062 454.652344 617.15625 447.699219 618.34375 440.644531 C 618.34375 439.910156 618.34375 439.03125 618.34375 438.296875 C 619.296875 430.882812 619.785156 423.441406 619.8125 415.96875 C 619.8125 410.535156 619.8125 405.246094 618.929688 399.957031 C 618.929688 398.488281 618.929688 397.019531 618.929688 395.699219 C 618.441406 391.390625 617.757812 387.082031 616.875 382.773438 C 616.875 381.746094 616.875 380.714844 616.875 379.6875 C 615.699219 374.402344 614.328125 369.160156 612.761719 363.972656 L 612.761719 362.210938 C 611.292969 357.507812 609.53125 352.957031 607.621094 348.402344 L 607.621094 346.933594 L 687.816406 379.246094 C 689.234375 379.789062 690.703125 380.0625 692.222656 380.0625 C 693.742188 380.0625 695.210938 379.789062 696.628906 379.246094 L 696.628906 433.007812 C 696.628906 433.828125 696.707031 434.640625 696.867188 435.445312 C 697.027344 436.246094 697.265625 437.027344 697.578125 437.785156 C 697.890625 438.542969 698.277344 439.261719 698.730469 439.945312 C 699.1875 440.625 699.703125 441.257812 700.285156 441.835938 C 700.863281 442.417969 701.496094 442.933594 702.175781 443.390625 C 702.859375 443.84375 703.578125 444.230469 704.335938 444.542969 C 705.09375 444.855469 705.871094 445.09375 706.675781 445.253906 C 707.480469 445.414062 708.292969 445.492188 709.113281 445.492188 C 709.933594 445.492188 710.746094 445.414062 711.546875 445.253906 C 712.351562 445.09375 713.132812 444.855469 713.890625 444.542969 C 714.648438 444.230469 715.367188 443.84375 716.046875 443.390625 C 716.730469 442.933594 717.359375 442.417969 717.941406 441.835938 C 718.519531 441.257812 719.039062 440.625 719.492188 439.945312 C 719.949219 439.261719 720.332031 438.542969 720.648438 437.785156 C 720.960938 437.027344 721.195312 436.246094 721.355469 435.445312 C 721.515625 434.640625 721.597656 433.828125 721.597656 433.007812 L 721.597656 369.847656 L 796.0625 340.46875 C 799.558594 346.207031 802.644531 352.15625 805.320312 358.3125 C 808 364.472656 810.246094 370.789062 812.058594 377.253906 C 813.871094 383.722656 815.234375 390.285156 816.144531 396.941406 C 817.058594 403.59375 817.511719 410.28125 817.507812 416.996094 C 815.449219 492.644531 759.34375 554.777344 690.3125 554.777344 Z M 751.414062 330.039062 L 719.6875 342.820312 L 719.6875 272.316406 C 719.644531 270.453125 719.207031 268.691406 718.367188 267.027344 L 718.367188 266.144531 C 717.464844 264.621094 716.289062 263.347656 714.839844 262.328125 L 713.078125 261.296875 L 614.964844 221.640625 L 690.3125 190.058594 L 894.027344 272.316406 Z M 751.414062 330.039062 " fill-opacity="1" fill-rule="nonzero"/><path fill="#000000" d="M 768.15625 616.910156 L 612.761719 616.910156 C 601.8125 616.964844 590.992188 618.191406 580.304688 620.582031 C 569.566406 618.195312 558.695312 616.96875 547.695312 616.910156 L 392.449219 616.910156 C 381.449219 616.964844 370.582031 618.1875 359.84375 620.582031 C 349.105469 618.195312 338.238281 616.96875 327.238281 616.910156 L 171.992188 616.910156 C 169.554688 616.921875 167.117188 616.992188 164.683594 617.117188 C 162.25 617.242188 159.820312 617.425781 157.398438 617.664062 C 154.972656 617.90625 152.554688 618.203125 150.140625 618.554688 C 147.730469 618.90625 145.328125 619.316406 142.9375 619.78125 C 140.546875 620.246094 138.164062 620.765625 135.796875 621.34375 C 133.429688 621.917969 131.078125 622.550781 128.738281 623.234375 C 126.398438 623.921875 124.078125 624.660156 121.773438 625.457031 C 119.472656 626.25 117.1875 627.097656 114.921875 628 C 112.660156 628.902344 110.417969 629.855469 108.199219 630.863281 C 105.980469 631.867188 103.785156 632.925781 101.613281 634.035156 C 99.445312 635.144531 97.300781 636.300781 95.183594 637.511719 C 93.070312 638.71875 90.984375 639.976562 88.925781 641.285156 C 86.867188 642.589844 84.84375 643.945312 82.847656 645.34375 C 80.855469 646.746094 78.894531 648.191406 76.96875 649.683594 C 75.042969 651.179688 73.152344 652.714844 71.296875 654.296875 C 69.441406 655.878906 67.625 657.5 65.847656 659.167969 C 64.070312 660.832031 62.332031 662.539062 60.632812 664.285156 C 58.933594 666.035156 57.277344 667.820312 55.660156 669.644531 C 54.046875 671.46875 52.472656 673.332031 50.945312 675.226562 C 49.417969 677.125 47.933594 679.058594 46.496094 681.027344 C 45.058594 682.996094 43.664062 684.996094 42.320312 687.027344 C 40.976562 689.058594 39.679688 691.121094 38.433594 693.214844 C 37.183594 695.308594 35.984375 697.429688 34.835938 699.578125 C 33.6875 701.726562 32.589844 703.902344 31.542969 706.101562 C 30.496094 708.304688 29.5 710.527344 28.554688 712.773438 C 27.613281 715.019531 26.722656 717.289062 25.882812 719.578125 C 25.046875 721.867188 24.261719 724.171875 23.53125 726.5 C 22.804688 728.824219 22.128906 731.164062 21.507812 733.519531 C 20.886719 735.878906 20.324219 738.246094 19.8125 740.632812 C 19.304688 743.015625 18.851562 745.410156 18.453125 747.8125 C 18.054688 750.21875 17.714844 752.628906 17.429688 755.050781 C 17.144531 757.46875 16.914062 759.894531 16.742188 762.328125 C 16.683594 763.183594 16.710938 764.035156 16.824219 764.886719 C 16.941406 765.738281 17.140625 766.566406 17.429688 767.375 C 17.714844 768.183594 18.082031 768.957031 18.527344 769.691406 C 18.972656 770.421875 19.488281 771.105469 20.074219 771.730469 C 20.660156 772.359375 21.304688 772.917969 22.003906 773.414062 C 22.707031 773.90625 23.449219 774.324219 24.238281 774.667969 C 25.027344 775.007812 25.839844 775.265625 26.679688 775.4375 C 27.519531 775.609375 28.371094 775.695312 29.226562 775.695312 L 910.625 775.695312 C 911.484375 775.695312 912.332031 775.609375 913.171875 775.4375 C 914.015625 775.265625 914.828125 775.007812 915.617188 774.667969 C 916.402344 774.324219 917.148438 773.90625 917.847656 773.414062 C 918.550781 772.917969 919.195312 772.359375 919.78125 771.730469 C 920.367188 771.105469 920.882812 770.421875 921.328125 769.691406 C 921.773438 768.957031 922.136719 768.183594 922.425781 767.375 C 922.710938 766.566406 922.910156 765.738281 923.027344 764.886719 C 923.144531 764.035156 923.171875 763.183594 923.109375 762.328125 C 922.9375 759.898438 922.710938 757.476562 922.425781 755.058594 C 922.140625 752.640625 921.800781 750.230469 921.402344 747.832031 C 921.007812 745.429688 920.554688 743.039062 920.046875 740.65625 C 919.539062 738.277344 918.972656 735.910156 918.355469 733.558594 C 917.734375 731.203125 917.0625 728.863281 916.335938 726.542969 C 915.605469 724.21875 914.824219 721.914062 913.988281 719.628906 C 913.152344 717.34375 912.265625 715.078125 911.324219 712.832031 C 910.382812 710.589844 909.386719 708.367188 908.34375 706.167969 C 907.296875 703.96875 906.203125 701.796875 905.054688 699.652344 C 903.910156 697.503906 902.714844 695.382812 901.46875 693.292969 C 900.222656 691.203125 898.929688 689.140625 897.589844 687.109375 C 896.246094 685.078125 894.859375 683.082031 893.421875 681.113281 C 891.988281 679.148438 890.507812 677.21875 888.984375 675.320312 C 887.457031 673.421875 885.890625 671.5625 884.277344 669.738281 C 882.667969 667.914062 881.011719 666.128906 879.316406 664.382812 C 877.621094 662.636719 875.886719 660.929688 874.113281 659.265625 C 872.339844 657.601562 870.527344 655.976562 868.675781 654.394531 C 866.824219 652.816406 864.9375 651.277344 863.015625 649.785156 C 861.09375 648.292969 859.136719 646.84375 857.148438 645.445312 C 855.15625 644.042969 853.136719 642.6875 851.082031 641.378906 C 849.03125 640.074219 846.949219 638.816406 844.835938 637.605469 C 842.722656 636.394531 840.585938 635.234375 838.417969 634.125 C 836.253906 633.015625 834.0625 631.957031 831.847656 630.949219 C 829.632812 629.941406 827.394531 628.984375 825.132812 628.082031 C 822.875 627.175781 820.59375 626.328125 818.296875 625.53125 C 815.996094 624.734375 813.679688 623.988281 811.34375 623.300781 C 809.011719 622.613281 806.660156 621.976562 804.296875 621.398438 C 801.933594 620.820312 799.554688 620.296875 797.167969 619.828125 C 794.78125 619.359375 792.382812 618.949219 789.972656 618.589844 C 787.566406 618.234375 785.152344 617.933594 782.730469 617.691406 C 780.308594 617.449219 777.882812 617.261719 775.453125 617.128906 C 773.023438 617 770.589844 616.925781 768.15625 616.910156 Z M 547.84375 641.878906 C 557.769531 641.929688 567.5625 643.105469 577.21875 645.40625 C 583.796875 646.949219 590.210938 649.003906 596.460938 651.574219 C 598.515625 652.457031 600.425781 653.632812 602.480469 654.511719 C 606.5 656.320312 610.417969 658.328125 614.230469 660.535156 C 616.433594 661.855469 618.636719 663.472656 620.695312 665.089844 C 622.75 666.703125 627.304688 669.640625 630.242188 672.140625 C 633.179688 674.636719 634.351562 675.957031 636.410156 677.867188 C 638.464844 679.777344 641.84375 683.15625 644.488281 685.945312 C 647.132812 688.738281 648.160156 690.351562 649.921875 692.554688 C 651.683594 694.757812 654.476562 698.429688 656.53125 701.664062 C 658.585938 704.894531 659.617188 706.65625 660.9375 709.15625 C 662.257812 711.652344 664.460938 715.765625 666.078125 719.144531 C 667.695312 722.519531 668.429688 724.578125 669.457031 727.222656 C 670.484375 729.867188 671.953125 734.273438 672.980469 737.945312 C 674.007812 741.617188 674.597656 743.671875 675.183594 746.464844 C 675.773438 749.253906 675.183594 749.109375 675.183594 750.578125 L 264.375 750.578125 C 264.375 749.253906 264.375 747.785156 264.375 746.464844 C 264.375 745.140625 265.695312 740.589844 266.578125 737.796875 C 267.460938 735.007812 268.78125 730.601562 269.957031 727.074219 C 271.132812 723.550781 272.160156 721.492188 273.335938 718.847656 C 274.507812 716.203125 276.566406 712.238281 278.328125 709.007812 C 280.089844 705.777344 281.265625 703.867188 282.734375 701.515625 C 284.203125 699.167969 286.992188 695.492188 289.195312 692.554688 C 291.398438 689.617188 292.722656 688.003906 294.632812 685.800781 C 296.539062 683.597656 299.773438 680.511719 302.5625 677.867188 C 305.351562 675.222656 306.675781 673.902344 308.878906 672.140625 C 311.082031 670.375 315.046875 667.4375 318.277344 665.234375 C 321.507812 663.03125 322.683594 662.003906 325.035156 660.683594 C 327.382812 659.359375 332.671875 656.714844 336.492188 654.804688 C 340.308594 652.898438 340.75 652.601562 342.953125 651.722656 C 349.324219 649.40625 355.835938 647.59375 362.488281 646.285156 C 372.144531 643.980469 381.933594 642.804688 391.863281 642.761719 Z M 172.136719 641.878906 L 308.4375 641.878906 L 306.234375 643.496094 C 303.101562 645.550781 300.113281 647.753906 297.273438 650.105469 L 293.898438 652.75 C 290.226562 655.835938 286.554688 659.066406 283.175781 662.445312 C 279.648438 665.96875 276.417969 669.640625 273.335938 673.460938 L 270.691406 676.839844 C 268.4375 679.777344 266.285156 682.765625 264.226562 685.800781 L 261.878906 689.324219 C 259.234375 693.4375 256.738281 697.695312 254.535156 702.25 L 254.535156 703.574219 C 252.476562 707.683594 250.714844 711.796875 249.101562 716.058594 L 247.484375 720.316406 C 246.210938 723.84375 245.085938 727.464844 244.105469 731.1875 L 242.929688 735.152344 C 241.757812 740 240.726562 744.996094 239.992188 749.839844 L 43.328125 749.839844 C 43.667969 747.976562 44.050781 746.121094 44.472656 744.269531 C 44.894531 742.421875 45.355469 740.582031 45.859375 738.753906 C 46.359375 736.925781 46.902344 735.109375 47.480469 733.304688 C 48.0625 731.5 48.679688 729.707031 49.335938 727.929688 C 49.996094 726.152344 50.691406 724.386719 51.425781 722.640625 C 52.160156 720.890625 52.929688 719.160156 53.742188 717.445312 C 54.550781 715.730469 55.394531 714.035156 56.277344 712.355469 C 57.160156 710.679688 58.078125 709.019531 59.035156 707.382812 C 59.988281 705.742188 60.976562 704.125 62.003906 702.53125 C 63.027344 700.9375 64.085938 699.363281 65.179688 697.8125 C 66.269531 696.265625 67.394531 694.738281 68.554688 693.238281 C 69.714844 691.738281 70.902344 690.261719 72.125 688.8125 C 73.347656 687.363281 74.601562 685.941406 75.886719 684.546875 C 77.171875 683.152344 78.484375 681.785156 79.828125 680.445312 C 81.171875 679.109375 82.542969 677.800781 83.941406 676.523438 C 85.34375 675.242188 86.769531 673.996094 88.222656 672.777344 C 89.679688 671.5625 91.15625 670.378906 92.664062 669.226562 C 94.167969 668.074219 95.699219 666.953125 97.253906 665.867188 C 98.804688 664.78125 100.382812 663.726562 101.980469 662.710938 C 103.582031 661.691406 105.203125 660.707031 106.84375 659.761719 C 108.488281 658.8125 110.148438 657.902344 111.828125 657.023438 C 113.511719 656.148438 115.210938 655.308594 116.929688 654.507812 C 118.648438 653.707031 120.382812 652.941406 122.132812 652.214844 C 123.882812 651.484375 125.648438 650.796875 127.429688 650.148438 C 129.210938 649.496094 131.003906 648.882812 132.8125 648.3125 C 134.621094 647.738281 136.4375 647.203125 138.269531 646.710938 C 140.097656 646.214844 141.9375 645.761719 143.789062 645.347656 C 145.640625 644.933594 147.496094 644.558594 149.363281 644.226562 C 151.230469 643.890625 153.101562 643.597656 154.980469 643.34375 C 156.859375 643.09375 158.746094 642.878906 160.632812 642.710938 C 162.519531 642.539062 164.414062 642.40625 166.304688 642.320312 C 168.199219 642.230469 170.09375 642.179688 171.992188 642.175781 Z M 701.769531 750.722656 C 701.035156 745.582031 700.007812 740.585938 698.832031 736.035156 L 697.804688 732.070312 C 696.824219 728.347656 695.699219 724.722656 694.425781 721.199219 L 692.957031 716.9375 C 691.339844 712.679688 689.429688 708.417969 687.523438 704.453125 L 687.523438 703.277344 C 685.320312 698.871094 682.820312 694.613281 680.179688 690.351562 L 677.976562 686.972656 C 675.917969 683.839844 673.714844 680.804688 671.367188 677.867188 L 668.867188 674.636719 C 662.0625 666.667969 654.523438 659.472656 646.25 653.042969 L 643.164062 650.546875 C 640.128906 648.195312 636.996094 645.894531 633.765625 643.644531 L 631.710938 642.175781 L 768.15625 642.175781 C 770.0625 642.183594 771.96875 642.234375 773.871094 642.328125 C 775.777344 642.421875 777.675781 642.558594 779.574219 642.734375 C 781.472656 642.910156 783.367188 643.125 785.253906 643.386719 C 787.144531 643.644531 789.023438 643.941406 790.902344 644.285156 C 792.777344 644.625 794.644531 645.003906 796.503906 645.425781 C 798.363281 645.847656 800.210938 646.3125 802.050781 646.8125 C 803.886719 647.316406 805.714844 647.859375 807.53125 648.441406 C 809.347656 649.019531 811.148438 649.640625 812.9375 650.304688 C 814.722656 650.964844 816.496094 651.664062 818.253906 652.398438 C 820.011719 653.136719 821.753906 653.914062 823.476562 654.726562 C 825.199219 655.539062 826.90625 656.390625 828.59375 657.277344 C 830.28125 658.164062 831.945312 659.089844 833.59375 660.050781 C 835.242188 661.011719 836.867188 662.007812 838.46875 663.039062 C 840.074219 664.066406 841.652344 665.132812 843.210938 666.234375 C 844.765625 667.332031 846.296875 668.46875 847.804688 669.632812 C 849.3125 670.800781 850.796875 672 852.25 673.230469 C 853.707031 674.460938 855.132812 675.722656 856.535156 677.015625 C 857.933594 678.3125 859.304688 679.632812 860.648438 680.988281 C 861.992188 682.339844 863.304688 683.722656 864.585938 685.132812 C 865.871094 686.542969 867.121094 687.980469 868.339844 689.445312 C 869.5625 690.910156 870.75 692.398438 871.902344 693.917969 C 873.058594 695.433594 874.179688 696.972656 875.269531 698.539062 C 876.355469 700.105469 877.410156 701.691406 878.429688 703.304688 C 879.445312 704.914062 880.429688 706.546875 881.378906 708.203125 C 882.324219 709.855469 883.238281 711.53125 884.113281 713.222656 C 884.988281 714.917969 885.824219 716.628906 886.625 718.359375 C 887.425781 720.089844 888.1875 721.835938 888.910156 723.601562 C 889.636719 725.363281 890.320312 727.140625 890.96875 728.933594 C 891.613281 730.730469 892.222656 732.535156 892.789062 734.355469 C 893.359375 736.175781 893.886719 738.007812 894.375 739.847656 C 894.863281 741.691406 895.3125 743.542969 895.71875 745.40625 C 896.125 747.269531 896.492188 749.136719 896.820312 751.015625 Z M 701.769531 750.722656 " fill-opacity="1" fill-rule="nonzero"/></svg>