<svg xmlns="http://www.w3.org/2000/svg" xmlns:xlink="http://www.w3.org/1999/xlink" width="1254" zoomAndPan="magnify" viewBox="0 0 940.5 940.499971" height="1254" preserveAspectRatio="xMidYMid meet" version="1.0"><defs><clipPath id="3204dcc331"><path d="M 7 128.445312 L 932 128.445312 L 932 811.332031 L 7 811.332031 Z M 7 128.445312 " clip-rule="nonzero"/></clipPath></defs><path fill="#ffffff" d="M 0 0 L 940 0 L 940 940 L 0 940 Z M 0 0 " fill-opacity="1" fill-rule="nonzero"/><path fill="#ffffff" d="M 0 0 L 940 0 L 940 940 L 0 940 Z M 0 0 " fill-opacity="1" fill-rule="nonzero"/><g clip-path="url(#3204dcc331)"><path fill="#696969" d="M 349.398438 239.34375 C 367.5625 206.109375 386.488281 180.339844 409.488281 161.9375 C 437.378906 139.625 470.5625 128.46875 514.53125 128.46875 C 563.21875 128.46875 607.320312 148.226562 639.246094 180.152344 C 671.171875 212.078125 690.929688 256.179688 690.929688 304.867188 C 690.929688 327.054688 688.035156 349.316406 682.625 371.640625 C 678.550781 388.441406 673.070312 405.183594 666.339844 421.867188 L 714.824219 421.867188 L 714.824219 326.292969 C 714.824219 313.566406 720.023438 302 728.398438 293.625 C 736.773438 285.25 748.335938 280.050781 761.066406 280.050781 C 773.792969 280.050781 785.355469 285.25 793.730469 293.625 C 802.109375 302 807.308594 313.566406 807.308594 326.292969 L 807.308594 342.890625 L 831.023438 342.890625 C 843.75 342.890625 855.316406 348.089844 863.691406 356.464844 C 872.066406 364.839844 877.265625 376.40625 877.265625 389.132812 L 877.265625 421.871094 L 884.0625 421.871094 C 910.152344 421.871094 931.433594 443.148438 931.433594 469.242188 L 931.433594 470.761719 C 931.433594 483.8125 926.113281 495.660156 917.535156 504.234375 C 908.957031 512.8125 897.113281 518.132812 884.0625 518.132812 L 877.265625 518.132812 L 877.265625 550.871094 C 877.265625 563.597656 872.066406 575.160156 863.691406 583.535156 C 855.316406 591.910156 843.75 597.109375 831.023438 597.109375 L 807.308594 597.109375 L 807.308594 613.707031 C 807.308594 626.4375 802.109375 638 793.730469 646.375 C 785.355469 654.75 773.792969 659.949219 761.066406 659.949219 C 748.335938 659.949219 736.773438 654.75 728.398438 646.375 C 720.019531 638 714.824219 626.4375 714.824219 613.707031 L 714.824219 518.132812 L 614.527344 518.132812 C 582.914062 565.945312 543.503906 613.585938 500.121094 661.136719 C 455.0625 710.53125 406.210938 759.382812 357.359375 808.234375 C 352.960938 812.628906 345.832031 812.628906 341.433594 808.234375 C 174.648438 641.449219 7.863281 474.664062 7.863281 304.867188 C 7.863281 256.179688 27.621094 212.078125 59.550781 180.152344 C 91.476562 148.226562 135.574219 128.46875 184.261719 128.46875 C 228.230469 128.46875 261.414062 139.625 289.304688 161.9375 C 312.308594 180.339844 331.230469 206.109375 349.398438 239.34375 Z M 737.347656 433.132812 L 737.347656 613.707031 C 737.347656 620.21875 740.019531 626.144531 744.324219 630.449219 C 748.625 634.753906 754.554688 637.421875 761.066406 637.421875 C 767.574219 637.421875 773.5 634.753906 777.804688 630.449219 C 782.109375 626.144531 784.78125 620.21875 784.78125 613.707031 L 784.78125 326.292969 C 784.78125 319.78125 782.109375 313.855469 777.804688 309.550781 C 773.5 305.25 767.574219 302.578125 761.066406 302.578125 C 754.554688 302.578125 748.625 305.25 744.324219 309.550781 C 740.019531 313.855469 737.347656 319.78125 737.347656 326.292969 Z M 807.308594 574.585938 L 831.023438 574.585938 C 837.535156 574.585938 843.460938 571.914062 847.765625 567.609375 C 852.066406 563.304688 854.738281 557.378906 854.738281 550.871094 L 854.738281 389.132812 C 854.738281 382.621094 852.066406 376.695312 847.765625 372.390625 C 843.460938 368.089844 837.535156 365.417969 831.023438 365.417969 L 807.308594 365.417969 Z M 369.769531 574.585938 L 369.769531 365.417969 L 346.054688 365.417969 C 339.542969 365.417969 333.617188 368.089844 329.3125 372.390625 C 325.011719 376.695312 322.339844 382.621094 322.339844 389.132812 L 322.339844 550.871094 C 322.339844 557.378906 325.011719 563.304688 329.3125 567.609375 C 333.617188 571.914062 339.542969 574.585938 346.054688 574.585938 Z M 392.296875 354.152344 L 392.296875 613.707031 C 392.296875 620.21875 394.96875 626.144531 399.273438 630.449219 C 403.578125 634.75 409.503906 637.421875 416.015625 637.421875 C 422.523438 637.421875 428.453125 634.75 432.753906 630.449219 C 437.058594 626.144531 439.730469 620.21875 439.730469 613.707031 L 439.730469 326.292969 C 439.730469 319.78125 437.058594 313.855469 432.753906 309.550781 C 428.449219 305.25 422.523438 302.578125 416.015625 302.578125 C 409.503906 302.578125 403.574219 305.25 399.273438 309.550781 C 394.96875 313.855469 392.296875 319.78125 392.296875 326.292969 Z M 299.8125 495.605469 L 299.8125 444.398438 L 293.019531 444.398438 C 292.804688 444.398438 292.589844 444.398438 292.378906 444.402344 L 292.378906 444.40625 L 292.0625 444.414062 C 291.109375 444.453125 290.167969 444.542969 289.246094 444.683594 C 288.835938 444.746094 288.429688 444.820312 288.027344 444.902344 L 288.023438 444.902344 L 287.421875 445.035156 C 287.222656 445.082031 287.023438 445.128906 286.824219 445.179688 L 286.53125 445.261719 L 286.234375 445.34375 L 285.648438 445.515625 L 285.648438 445.519531 L 285.359375 445.609375 L 284.78125 445.804688 L 284.210938 446.015625 L 283.929688 446.125 L 283.648438 446.238281 L 283.367188 446.355469 L 283.089844 446.476562 L 282.816406 446.597656 L 282.542969 446.722656 L 282.542969 446.726562 L 282.269531 446.855469 L 281.730469 447.121094 L 281.730469 447.125 L 281.464844 447.261719 L 280.933594 447.550781 L 280.675781 447.699219 L 280.414062 447.851562 L 280.160156 448.003906 L 279.902344 448.160156 L 279.648438 448.320312 L 279.648438 448.324219 L 279.398438 448.484375 L 279.148438 448.652344 L 278.902344 448.820312 L 278.660156 448.992188 L 278.414062 449.167969 L 277.9375 449.527344 L 277.703125 449.710938 L 277.699219 449.710938 L 277.238281 450.085938 L 277.234375 450.085938 L 277.007812 450.277344 L 276.554688 450.667969 L 276.332031 450.867188 L 276.113281 451.070312 L 275.898438 451.273438 L 275.894531 451.273438 L 275.683594 451.480469 L 275.46875 451.691406 L 275.261719 451.90625 L 275.257812 451.90625 L 275.054688 452.121094 L 275.050781 452.121094 L 274.847656 452.335938 L 274.644531 452.554688 L 274.445312 452.777344 L 274.054688 453.230469 L 273.863281 453.457031 L 273.488281 453.925781 L 273.304688 454.160156 L 273.125 454.398438 L 272.945312 454.640625 L 272.773438 454.882812 L 272.769531 454.882812 L 272.597656 455.125 L 272.429688 455.371094 L 272.261719 455.621094 L 272.101562 455.875 L 271.941406 456.125 L 271.9375 456.125 L 271.78125 456.382812 L 271.628906 456.636719 L 271.476562 456.898438 L 271.328125 457.160156 L 271.183594 457.421875 L 271.039062 457.6875 L 270.902344 457.953125 L 270.765625 458.222656 L 270.632812 458.492188 L 270.375 459.039062 L 270.132812 459.59375 L 270.015625 459.871094 L 269.902344 460.152344 L 269.792969 460.433594 L 269.582031 461.003906 L 269.386719 461.582031 L 269.296875 461.871094 L 269.207031 462.164062 L 269.121094 462.457031 L 269.039062 462.753906 L 268.960938 463.050781 L 268.957031 463.050781 L 268.882812 463.347656 L 268.8125 463.644531 L 268.746094 463.945312 L 268.679688 464.25 L 268.621094 464.550781 L 268.5625 464.855469 L 268.511719 465.160156 L 268.460938 465.46875 L 268.414062 465.777344 L 268.375 466.085938 L 268.335938 466.398438 L 268.304688 466.707031 L 268.273438 467.019531 L 268.246094 467.335938 L 268.222656 467.648438 L 268.207031 467.964844 L 268.191406 468.285156 L 268.183594 468.601562 L 268.175781 468.921875 L 268.175781 470.761719 C 268.175781 470.972656 268.175781 471.1875 268.183594 471.398438 L 268.183594 471.402344 C 268.1875 471.613281 268.195312 471.820312 268.207031 472.027344 L 268.207031 472.046875 C 268.21875 472.25 268.230469 472.449219 268.246094 472.648438 L 268.246094 472.667969 L 268.25 472.691406 C 268.265625 472.886719 268.28125 473.074219 268.300781 473.265625 L 268.304688 473.292969 L 268.308594 473.328125 C 268.324219 473.507812 268.347656 473.683594 268.367188 473.859375 L 268.375 473.914062 L 268.375 473.917969 L 268.382812 473.984375 C 268.40625 474.144531 268.425781 474.304688 268.449219 474.464844 L 268.460938 474.53125 L 268.460938 474.535156 L 268.476562 474.617188 L 268.546875 475.050781 L 268.585938 475.277344 L 268.644531 475.578125 L 268.726562 475.96875 L 268.765625 476.140625 L 268.871094 476.601562 L 268.894531 476.703125 C 270 481.160156 272.316406 485.15625 275.46875 488.308594 C 278.484375 491.324219 282.261719 493.570312 286.484375 494.730469 L 286.617188 494.765625 L 286.957031 494.851562 L 287.253906 494.925781 L 287.566406 495 L 287.953125 495.085938 L 288.023438 495.097656 L 288.027344 495.097656 L 288.066406 495.105469 C 288.242188 495.144531 288.417969 495.175781 288.59375 495.210938 L 288.628906 495.214844 L 288.632812 495.214844 L 288.652344 495.21875 C 288.847656 495.253906 289.046875 495.289062 289.242188 495.316406 L 289.246094 495.316406 C 289.449219 495.351562 289.65625 495.378906 289.859375 495.40625 L 289.863281 495.40625 C 290.070312 495.429688 290.277344 495.453125 290.484375 495.476562 L 290.488281 495.476562 C 290.695312 495.496094 290.902344 495.515625 291.109375 495.53125 L 291.113281 495.53125 C 291.324219 495.550781 291.53125 495.5625 291.742188 495.574219 L 291.746094 495.574219 C 291.953125 495.582031 292.167969 495.589844 292.378906 495.597656 C 292.59375 495.601562 292.804688 495.605469 293.019531 495.605469 Z M 299.8125 518.132812 L 293.019531 518.132812 C 292.609375 518.132812 292.203125 518.128906 291.796875 518.117188 C 279.230469 517.796875 267.851562 512.546875 259.542969 504.238281 C 252.304688 497 247.390625 487.433594 246.027344 476.785156 L 246.027344 476.78125 C 245.976562 476.386719 245.933594 475.992188 245.890625 475.59375 C 245.851562 475.195312 245.816406 474.796875 245.785156 474.398438 C 245.753906 473.996094 245.730469 473.597656 245.707031 473.195312 L 245.707031 473.191406 C 245.6875 472.789062 245.671875 472.386719 245.664062 471.980469 C 245.652344 471.574219 245.648438 471.167969 245.648438 470.761719 L 245.648438 469.242188 L 245.652344 468.628906 L 245.664062 468.019531 L 245.683594 467.414062 L 245.707031 466.808594 L 245.742188 466.203125 L 245.785156 465.601562 L 245.835938 465.003906 L 245.890625 464.40625 L 245.957031 463.8125 L 246.027344 463.21875 L 246.109375 462.628906 L 246.195312 462.039062 L 246.289062 461.453125 L 246.390625 460.871094 L 246.496094 460.289062 L 246.613281 459.710938 L 246.734375 459.132812 L 246.863281 458.5625 L 247 457.988281 L 247.140625 457.421875 L 247.292969 456.855469 L 247.449219 456.292969 L 247.613281 455.734375 L 247.78125 455.175781 L 247.957031 454.621094 L 248.140625 454.070312 L 248.332031 453.519531 L 248.527344 452.976562 L 248.730469 452.433594 L 248.941406 451.894531 L 249.15625 451.359375 L 249.378906 450.824219 L 249.605469 450.296875 L 249.839844 449.769531 L 250.082031 449.246094 L 250.328125 448.726562 L 250.582031 448.210938 L 250.839844 447.699219 L 251.105469 447.191406 L 251.652344 446.183594 L 251.9375 445.6875 L 252.226562 445.191406 L 252.519531 444.703125 L 252.820312 444.214844 L 253.125 443.734375 L 253.4375 443.253906 L 253.753906 442.78125 L 254.074219 442.308594 L 254.402344 441.84375 L 254.734375 441.378906 L 254.738281 441.378906 L 255.074219 440.921875 L 255.417969 440.46875 L 255.769531 440.019531 L 256.125 439.574219 L 256.484375 439.132812 L 256.847656 438.695312 L 257.21875 438.261719 L 257.59375 437.835938 L 257.972656 437.414062 L 258.359375 436.996094 L 258.359375 436.992188 L 258.746094 436.578125 L 258.75 436.578125 L 259.144531 436.171875 L 259.542969 435.765625 L 259.945312 435.367188 L 260.355469 434.972656 L 260.769531 434.582031 L 261.1875 434.195312 L 261.613281 433.816406 L 262.039062 433.441406 C 262.328125 433.191406 262.617188 432.949219 262.90625 432.707031 L 262.910156 432.707031 L 263.347656 432.347656 L 263.796875 431.992188 L 264.246094 431.644531 L 264.699219 431.296875 L 265.15625 430.960938 L 265.621094 430.628906 L 266.085938 430.300781 L 266.554688 429.976562 L 267.03125 429.660156 L 267.507812 429.347656 L 267.992188 429.042969 L 268.476562 428.742188 L 268.96875 428.449219 L 269.460938 428.160156 L 269.960938 427.875 L 270.460938 427.601562 L 270.96875 427.328125 L 271.476562 427.0625 L 271.988281 426.804688 L 272.503906 426.550781 L 273.023438 426.304688 L 273.546875 426.066406 L 274.070312 425.832031 L 274.074219 425.832031 L 274.601562 425.601562 C 274.957031 425.453125 275.3125 425.304688 275.671875 425.164062 L 276.210938 424.957031 L 276.75 424.753906 C 277.113281 424.617188 277.476562 424.492188 277.84375 424.367188 L 278.398438 424.183594 L 278.949219 424.003906 L 278.953125 424.003906 L 279.507812 423.835938 L 280.066406 423.671875 L 280.070312 423.671875 L 280.628906 423.515625 L 280.632812 423.515625 C 281.382812 423.3125 282.144531 423.125 282.910156 422.957031 C 286.167969 422.246094 289.546875 421.871094 293.015625 421.871094 L 299.8125 421.871094 L 299.8125 389.132812 C 299.8125 376.402344 305.011719 364.839844 313.386719 356.464844 C 321.761719 348.089844 333.324219 342.890625 346.054688 342.890625 L 369.769531 342.890625 L 369.769531 326.292969 C 369.769531 313.566406 374.96875 302 383.347656 293.625 C 391.722656 285.25 403.285156 280.050781 416.011719 280.050781 C 428.742188 280.050781 440.304688 285.25 448.679688 293.625 C 457.054688 302 462.253906 313.566406 462.253906 326.292969 L 462.253906 421.871094 L 641.976562 421.871094 C 649.976562 403.289062 656.335938 384.78125 660.800781 366.359375 C 665.753906 345.929688 668.402344 325.433594 668.402344 304.867188 C 668.402344 262.398438 651.167969 223.929688 623.320312 196.078125 C 595.46875 168.230469 557 150.996094 514.53125 150.996094 C 475.933594 150.996094 447.191406 160.480469 423.476562 179.449219 C 399.140625 198.917969 379.390625 228.679688 359.441406 268.570312 C 358.394531 270.679688 356.679688 272.480469 354.410156 273.613281 C 348.871094 276.382812 342.132812 274.136719 339.363281 268.597656 C 319.414062 228.695312 299.660156 198.925781 275.316406 179.449219 C 251.601562 160.480469 222.859375 150.996094 184.261719 150.996094 C 141.792969 150.996094 103.324219 168.230469 75.476562 196.078125 C 47.625 223.929688 30.390625 262.398438 30.390625 304.867188 C 30.390625 462.734375 188.609375 623.515625 349.394531 784.34375 C 395.675781 738.050781 441.726562 691.78125 483.492188 646.003906 C 522.460938 603.285156 558.085938 560.640625 587.425781 518.132812 L 462.253906 518.132812 L 462.253906 613.707031 C 462.253906 626.4375 457.054688 638 448.679688 646.375 C 440.304688 654.75 428.742188 659.949219 416.011719 659.949219 C 403.285156 659.949219 391.722656 654.75 383.347656 646.375 C 374.96875 638 369.769531 626.4375 369.769531 613.707031 L 369.769531 597.113281 L 346.054688 597.113281 C 333.324219 597.113281 321.761719 591.914062 313.386719 583.535156 C 305.011719 575.160156 299.8125 563.597656 299.8125 550.871094 Z M 649.300781 444.394531 L 462.257812 444.394531 L 462.257812 495.605469 L 714.824219 495.605469 L 714.824219 444.394531 Z M 245.664062 471.980469 L 245.648438 470.761719 C 245.648438 471.167969 245.652344 471.574219 245.664062 471.980469 Z M 877.265625 495.605469 L 884.0625 495.605469 C 890.894531 495.605469 897.105469 492.8125 901.609375 488.308594 C 906.113281 483.804688 908.90625 477.597656 908.90625 470.761719 L 908.90625 469.242188 C 908.90625 455.558594 897.746094 444.398438 884.0625 444.398438 L 877.265625 444.398438 Z M 230.007812 219.335938 C 222.753906 215.214844 214.875 212.742188 206.875 211.324219 C 199.25 209.96875 191.5625 209.5625 184.261719 209.5625 C 157.957031 209.5625 134.128906 220.234375 116.882812 237.484375 C 99.632812 254.734375 88.957031 278.5625 88.957031 304.867188 C 88.957031 314.097656 89.707031 323.417969 91.097656 332.773438 C 92.460938 341.925781 94.480469 351.167969 97.046875 360.445312 C 98.699219 366.421875 104.886719 369.925781 110.863281 368.277344 C 116.839844 366.625 120.347656 360.4375 118.695312 354.460938 C 116.417969 346.246094 114.609375 337.921875 113.359375 329.515625 C 112.140625 321.316406 111.484375 313.085938 111.484375 304.867188 C 111.484375 284.777344 119.636719 266.582031 132.808594 253.410156 C 145.980469 240.238281 164.175781 232.085938 184.261719 232.085938 C 190.476562 232.085938 196.902344 232.414062 203.003906 233.496094 C 208.726562 234.511719 214.191406 236.183594 218.917969 238.871094 C 224.3125 241.929688 231.167969 240.039062 234.230469 234.644531 C 237.292969 229.253906 235.402344 222.398438 230.007812 219.335938 Z M 230.007812 219.335938 " fill-opacity="1" fill-rule="evenodd"/></g></svg>