<svg xmlns="http://www.w3.org/2000/svg" xmlns:xlink="http://www.w3.org/1999/xlink" width="1254" zoomAndPan="magnify" viewBox="0 0 940.5 940.499971" height="1254" preserveAspectRatio="xMidYMid meet" version="1.0"><path fill="#ffffff" d="M 0 0 L 940 0 L 940 940 L 0 940 Z M 0 0 " fill-opacity="1" fill-rule="nonzero"/><path fill="#ffffff" d="M 0 0 L 940 0 L 940 940 L 0 940 Z M 0 0 " fill-opacity="1" fill-rule="nonzero"/><path fill="#7d909b" d="M 15.160156 485.160156 C 6.8125 485.160156 0 478.351562 0 470 C 0 210.835938 210.835938 0 470 0 C 637.542969 0 793.660156 90.078125 877.339844 235 C 881.546875 242.226562 879 251.523438 871.773438 255.726562 C 864.488281 259.875 855.25 257.386719 851.046875 250.160156 C 772.8125 114.539062 626.765625 30.324219 470 30.324219 C 227.539062 30.324219 30.324219 227.539062 30.324219 470 C 30.324219 478.351562 23.511719 485.160156 15.160156 485.160156 " fill-opacity="1" fill-rule="nonzero"/><path fill="#7d909b" d="M 864.195312 257.742188 L 758.066406 257.742188 C 749.714844 257.742188 742.902344 250.929688 742.902344 242.582031 C 742.902344 234.230469 749.714844 227.417969 758.066406 227.417969 L 849.03125 227.417969 L 849.03125 136.453125 C 849.03125 128.101562 855.84375 121.289062 864.195312 121.289062 C 872.542969 121.289062 879.355469 128.101562 879.355469 136.453125 L 879.355469 242.582031 C 879.355469 250.929688 872.542969 257.742188 864.195312 257.742188 " fill-opacity="1" fill-rule="nonzero"/><path fill="#7d909b" d="M 470 940 C 302.457031 940 146.34375 849.980469 62.660156 705 C 58.511719 697.773438 61 688.476562 68.226562 684.273438 C 75.511719 680.066406 84.75 682.613281 88.953125 689.839844 C 167.1875 825.460938 313.234375 909.675781 470 909.675781 C 712.402344 909.675781 909.675781 712.402344 909.675781 470 C 909.675781 461.648438 916.488281 454.839844 924.839844 454.839844 C 933.191406 454.839844 940 461.648438 940 470 C 940 729.164062 729.164062 940 470 940 " fill-opacity="1" fill-rule="nonzero"/><path fill="#7d909b" d="M 75.804688 818.710938 C 67.457031 818.710938 60.644531 811.898438 60.644531 803.546875 L 60.644531 697.417969 C 60.644531 689.070312 67.457031 682.257812 75.804688 682.257812 L 181.933594 682.257812 C 190.285156 682.257812 197.097656 689.070312 197.097656 697.417969 C 197.097656 705.769531 190.285156 712.582031 181.933594 712.582031 L 90.96875 712.582031 L 90.96875 803.546875 C 90.96875 811.898438 84.15625 818.710938 75.804688 818.710938 " fill-opacity="1" fill-rule="nonzero"/><path fill="#7d909b" d="M 560.96875 515.484375 L 333.546875 515.484375 C 283.386719 515.484375 242.582031 474.679688 242.582031 424.515625 C 242.582031 374.355469 283.386719 333.546875 333.546875 333.546875 L 560.96875 333.546875 C 569.320312 333.546875 576.128906 340.359375 576.128906 348.710938 C 576.128906 357.058594 569.320312 363.871094 560.96875 363.871094 L 333.546875 363.871094 C 300.085938 363.871094 272.902344 391.054688 272.902344 424.515625 C 272.902344 457.976562 300.085938 485.160156 333.546875 485.160156 L 560.96875 485.160156 C 569.320312 485.160156 576.128906 491.972656 576.128906 500.324219 C 576.128906 508.671875 569.320312 515.484375 560.96875 515.484375 " fill-opacity="1" fill-rule="nonzero"/><path fill="#7d909b" d="M 485.160156 803.546875 C 476.8125 803.546875 470 796.738281 470 788.386719 L 470 697.417969 C 470 680.71875 456.378906 667.097656 439.675781 667.097656 L 333.546875 667.097656 C 283.386719 667.097656 242.582031 626.292969 242.582031 576.128906 C 242.582031 525.964844 283.386719 485.160156 333.546875 485.160156 C 341.898438 485.160156 348.710938 491.972656 348.710938 500.324219 C 348.710938 508.671875 341.898438 515.484375 333.546875 515.484375 C 300.085938 515.484375 272.902344 542.667969 272.902344 576.128906 C 272.902344 609.589844 300.085938 636.773438 333.546875 636.773438 L 439.675781 636.773438 C 473.140625 636.773438 500.324219 663.957031 500.324219 697.417969 L 500.324219 788.386719 C 500.324219 796.738281 493.511719 803.546875 485.160156 803.546875 " fill-opacity="1" fill-rule="nonzero"/><path fill="#7d909b" d="M 572.160156 439.675781 L 348.710938 439.675781 C 340.359375 439.675781 333.546875 432.867188 333.546875 424.515625 C 333.546875 416.164062 340.359375 409.355469 348.710938 409.355469 L 572.160156 409.355469 C 605.621094 409.355469 633.8125 385.132812 636.539062 354.160156 C 638.078125 336.925781 632.449219 320.402344 620.84375 307.726562 C 609.414062 295.230469 593.066406 288.066406 576.128906 288.066406 L 500.324219 288.066406 C 466.859375 288.066406 439.675781 260.878906 439.675781 227.417969 L 439.675781 136.453125 C 439.675781 128.101562 446.488281 121.289062 454.839844 121.289062 C 463.1875 121.289062 470 128.101562 470 136.453125 L 470 227.417969 C 470 244.121094 483.621094 257.742188 500.324219 257.742188 L 576.128906 257.742188 C 601.535156 257.742188 625.996094 268.519531 643.171875 287.234375 C 660.640625 306.246094 668.992188 330.941406 666.742188 356.824219 C 662.714844 403.253906 621.199219 439.675781 572.160156 439.675781 " fill-opacity="1" fill-rule="nonzero"/><path fill="#7d909b" d="M 576.128906 591.289062 L 348.710938 591.289062 C 340.359375 591.289062 333.546875 584.480469 333.546875 576.128906 C 333.546875 567.777344 340.359375 560.96875 348.710938 560.96875 L 576.128906 560.96875 C 609.589844 560.96875 636.773438 533.785156 636.773438 500.324219 C 636.773438 466.859375 609.589844 439.675781 576.128906 439.675781 C 567.777344 439.675781 560.96875 432.867188 560.96875 424.515625 C 560.96875 416.164062 567.777344 409.355469 576.128906 409.355469 C 626.292969 409.355469 667.097656 450.160156 667.097656 500.324219 C 667.097656 550.484375 626.292969 591.289062 576.128906 591.289062 " fill-opacity="1" fill-rule="nonzero"/><path fill="#7d909b" d="M 560.96875 803.546875 C 552.617188 803.546875 545.804688 796.738281 545.804688 788.386719 L 545.804688 682.257812 C 545.804688 632.09375 505 591.289062 454.839844 591.289062 C 446.488281 591.289062 439.675781 584.480469 439.675781 576.128906 C 439.675781 567.777344 446.488281 560.96875 454.839844 560.96875 C 521.703125 560.96875 576.128906 615.394531 576.128906 682.257812 L 576.128906 788.386719 C 576.128906 796.738281 569.320312 803.546875 560.96875 803.546875 " fill-opacity="1" fill-rule="nonzero"/><path fill="#7d909b" d="M 485.160156 363.871094 C 418.296875 363.871094 363.871094 309.445312 363.871094 242.582031 L 363.871094 136.453125 C 363.871094 128.101562 370.683594 121.289062 379.03125 121.289062 C 387.382812 121.289062 394.195312 128.101562 394.195312 136.453125 L 394.195312 242.582031 C 394.195312 292.742188 435 333.546875 485.160156 333.546875 C 493.511719 333.546875 500.324219 340.359375 500.324219 348.710938 C 500.324219 357.058594 493.511719 363.871094 485.160156 363.871094 " fill-opacity="1" fill-rule="nonzero"/></svg>