<svg xmlns="http://www.w3.org/2000/svg" xmlns:xlink="http://www.w3.org/1999/xlink" width="1254" zoomAndPan="magnify" viewBox="0 0 940.5 940.499971" height="1254" preserveAspectRatio="xMidYMid meet" version="1.0"><defs><clipPath id="fa56860b41"><path d="M 193.980469 27.644531 L 629.5 27.644531 L 629.5 487 L 193.980469 487 Z M 193.980469 27.644531 " clip-rule="nonzero"/></clipPath><clipPath id="44a394e288"><path d="M 611 482 L 902 482 L 902 825 L 611 825 Z M 611 482 " clip-rule="nonzero"/></clipPath><clipPath id="674611518e"><path d="M 740.8125 466.597656 L 940.085938 594.65625 L 749.214844 891.675781 L 549.941406 763.617188 Z M 740.8125 466.597656 " clip-rule="nonzero"/></clipPath><clipPath id="c9665dd7a2"><path d="M 740.8125 466.597656 L 940.085938 594.65625 L 749.214844 891.675781 L 549.941406 763.617188 Z M 740.8125 466.597656 " clip-rule="nonzero"/></clipPath><clipPath id="6786a8516d"><path d="M 330 434 L 717 434 L 717 856 L 330 856 Z M 330 434 " clip-rule="nonzero"/></clipPath><clipPath id="52ce23eb26"><path d="M 520.652344 432.417969 L 719.925781 560.476562 L 529.054688 857.496094 L 329.78125 729.4375 Z M 520.652344 432.417969 " clip-rule="nonzero"/></clipPath><clipPath id="dfbff9b06f"><path d="M 84 45 L 375 45 L 375 377 L 84 377 Z M 84 45 " clip-rule="nonzero"/></clipPath><clipPath id="9b608bb367"><path d="M 190.652344 -1.582031 L 389.925781 126.476562 L 199.054688 423.496094 L -0.21875 295.4375 Z M 190.652344 -1.582031 " clip-rule="nonzero"/></clipPath><clipPath id="6439a1d587"><path d="M 389.839844 126.421875 L 190.566406 -1.636719 L -0.308594 295.378906 L 198.964844 423.441406 Z M 389.839844 126.421875 " clip-rule="nonzero"/></clipPath><clipPath id="c26f975a13"><path d="M 389.839844 126.421875 L 190.566406 -1.636719 L -0.308594 295.378906 L 198.964844 423.441406 Z M 389.839844 126.421875 " clip-rule="nonzero"/></clipPath><clipPath id="ab960cbbf2"><rect x="0" width="387" y="0" height="422"/></clipPath></defs><g clip-path="url(#fa56860b41)"><path fill="#4aa0d1" d="M 513.109375 461.792969 L 460.300781 445.515625 C 454.597656 449.734375 448.570312 452.445312 442.824219 455.007812 C 434.132812 458.871094 428.519531 467.769531 415.90625 464.148438 C 404.960938 460.996094 399.097656 484.121094 359.851562 473.234375 C 347.652344 484.488281 330.480469 485.21875 316.589844 478.972656 L 288.363281 486.703125 C 283.347656 488.078125 277.433594 484.15625 273.261719 480 C 269.621094 480.796875 262.847656 483.269531 259.488281 483.402344 L 233.765625 484.386719 C 231.621094 484.472656 226.835938 485.339844 225.757812 483.882812 L 221.222656 477.722656 C 215.757812 479.585938 209.140625 481.550781 204.5625 480.191406 C 200.214844 478.90625 192.453125 471.726562 194.246094 466.71875 L 210.824219 420.332031 C 214.605469 409.75 216.660156 394.691406 215.574219 384.300781 C 214.15625 370.777344 211.941406 360.683594 223.964844 350.949219 C 253.652344 326.941406 253.902344 329.097656 291.613281 312.042969 L 267.523438 135.699219 C 255.832031 124.480469 250.242188 69.445312 250.722656 54.386719 C 251.171875 40.332031 259.929688 29.707031 271.398438 28.117188 C 284.390625 26.308594 296.488281 31.839844 300.445312 45.679688 C 307.832031 71.5 313.296875 98.855469 309.085938 127 L 333.324219 302.761719 C 337.15625 305.855469 343.390625 308.632812 347.917969 308.875 C 370.082031 310.050781 389.488281 314.652344 409.53125 324.570312 L 437.382812 280.332031 C 451.246094 258.308594 464.914062 248.613281 489.34375 254.992188 L 527.15625 264.859375 L 567.929688 176.132812 C 574.28125 162.316406 580.898438 148.867188 588.558594 136.039062 C 593.535156 127.707031 602.382812 127.117188 610.101562 130.351562 C 624.332031 136.3125 629.761719 150.410156 623.304688 164.9375 L 572.023438 280.355469 L 607.015625 292.777344 C 633.496094 302.175781 632.632812 328.625 623.636719 351.132812 C 606.609375 393.730469 588.128906 434.027344 567.796875 476.667969 L 513.097656 461.800781 Z M 304.550781 120.855469 C 303.453125 93.941406 301.375 71.269531 294.8125 47.84375 C 290.378906 39.441406 283.792969 33.289062 275.160156 34.101562 C 254.480469 36.035156 255.59375 64.601562 258.628906 79.5625 L 268.277344 127.15625 L 304.558594 120.855469 Z M 302.824219 127.886719 L 273.203125 131.960938 L 297.675781 309.761719 L 327.296875 305.691406 Z M 475.386719 304.28125 C 511.796875 317.308594 545.347656 327.789062 581.152344 337.832031 C 587.214844 339.53125 593.320312 344.953125 600.152344 344.902344 C 607.332031 334.273438 614.089844 323.121094 618.964844 312.5625 C 613.882812 294.328125 582.730469 295.945312 563.765625 283.765625 C 572.511719 259.84375 583.832031 239.792969 593.617188 217.03125 L 618.890625 158.238281 C 621.3125 152.597656 618.0625 143.535156 613.957031 139.84375 C 610.75 136.953125 601.488281 133.328125 597.828125 136.859375 C 590.605469 143.832031 586.285156 152.746094 582.15625 161.710938 L 530.828125 273.085938 C 513.132812 268.648438 497.734375 263.425781 480.816406 260.296875 C 467.144531 257.769531 452.664062 268.292969 445.898438 279.171875 L 416.371094 326.6875 L 425.949219 342.957031 C 433.511719 330.394531 440.285156 317.539062 452.070312 308.269531 C 456.613281 304.695312 469.109375 302.050781 475.378906 304.289062 Z M 559.304688 467.339844 C 568.847656 429.660156 577.679688 395.570312 589.800781 360.972656 L 594.347656 348.015625 C 584.113281 344.242188 577.332031 342 567.6875 339.78125 C 536.757812 332.648438 508.148438 322.390625 478.273438 311.195312 C 472.417969 309 460.964844 306.078125 456.296875 310.890625 C 443.675781 323.890625 433.425781 338.742188 424.472656 353.421875 L 439.164062 383.421875 L 458.71875 420.578125 C 463.320312 426.640625 465.742188 432.726562 466.960938 440.546875 L 559.304688 467.347656 Z M 332.578125 340.949219 L 401.964844 329.074219 C 382.636719 317.960938 361.765625 318.433594 341.183594 313.660156 C 320.460938 308.847656 302.121094 313.949219 282.972656 323.0625 C 263.179688 332.480469 242.855469 340.882812 227.714844 357.789062 Z M 609.289062 367.957031 C 615.542969 352.757812 623.085938 339.332031 621.894531 323.550781 L 600.410156 354.273438 C 581.992188 380.609375 578.789062 415 572.429688 448.847656 C 586.527344 423.886719 597.488281 396.640625 609.289062 367.957031 Z M 223.726562 378.066406 C 290.734375 369.699219 353.457031 360.535156 418.101562 346.453125 C 419 342.78125 414.976562 333.636719 410.324219 334.375 L 221.957031 364.332031 C 220.152344 369.019531 219.621094 374.78125 223.726562 378.066406 Z M 339.027344 475.886719 L 361.441406 466.492188 L 346.425781 402.292969 C 344.71875 394.972656 339.933594 387.054688 345.628906 379.011719 L 368.078125 468.765625 C 381.046875 469.570312 391.046875 468.125 401.902344 462.628906 C 401.019531 457.304688 399.539062 451.757812 397.730469 447.148438 L 372.023438 381.574219 C 371.054688 379.101562 372.71875 374.671875 375.050781 372.898438 C 379.71875 387.816406 384.070312 400.535156 390.191406 414.527344 L 408.832031 457.132812 C 417.546875 460.8125 433.492188 457.578125 437.632812 447.363281 C 425.277344 416.839844 408.933594 400.015625 399.128906 366.5625 C 401.152344 365.492188 402.871094 364.339844 403.410156 365.046875 C 403.949219 365.75 405.558594 368.273438 405.832031 369.183594 C 410.589844 385.003906 418.742188 401.234375 427.257812 415.414062 L 446.519531 447.488281 L 460.335938 435.777344 C 443.890625 408.730469 430.476562 382.1875 417.980469 352.464844 C 353.613281 366.796875 289.316406 375.625 223.816406 383.6875 C 219.835938 423.265625 214.734375 429.757812 200.996094 465.226562 C 200.066406 468.351562 206.0625 473.898438 209.253906 474.246094 C 230.773438 476.601562 239.878906 411.617188 241.394531 394.242188 C 241.601562 391.886719 244.515625 388.71875 246.386719 389.589844 C 246.171875 417.683594 238.203125 445.976562 227.914062 470.554688 C 227.082031 472.539062 226.894531 477.183594 228.386719 477.496094 C 241.429688 480.242188 235.617188 474.546875 259.148438 477.496094 C 277.195312 479.769531 275.691406 398.960938 281.8125 385.128906 C 288.179688 416.191406 277.988281 445.464844 274.566406 474.140625 C 280.566406 480.707031 289.492188 480.757812 296.9375 478.210938 L 315.222656 471.957031 L 314.003906 386.960938 C 313.984375 385.949219 316.050781 381.664062 316.773438 382.425781 C 317.492188 383.1875 319.589844 385.894531 319.632812 387.832031 L 321.09375 471.691406 C 322.824219 477.371094 333.945312 478.003906 339.003906 475.878906 Z M 339.027344 475.886719 " fill-opacity="1" fill-rule="nonzero"/></g><path fill="#ffffff" d="M 339.027344 475.886719 C 333.96875 478.011719 322.851562 477.371094 321.117188 471.699219 L 319.65625 387.839844 C 319.625 385.902344 317.535156 383.207031 316.796875 382.433594 C 316.058594 381.664062 314.011719 385.960938 314.027344 386.972656 L 315.246094 471.964844 L 296.960938 478.21875 C 289.515625 480.765625 280.59375 480.722656 274.589844 474.148438 C 278.015625 445.472656 288.207031 416.199219 281.835938 385.136719 C 275.710938 398.96875 277.21875 479.777344 259.175781 477.503906 C 235.640625 474.546875 241.445312 480.242188 228.410156 477.503906 C 226.910156 477.191406 227.101562 472.546875 227.9375 470.566406 C 238.21875 445.988281 246.195312 417.695312 246.414062 389.597656 C 244.539062 388.730469 241.628906 391.894531 241.421875 394.25 C 239.902344 411.632812 230.796875 476.609375 209.28125 474.253906 C 206.097656 473.90625 200.09375 468.359375 201.019531 465.234375 C 214.753906 429.765625 219.859375 423.273438 223.839844 383.695312 C 289.332031 375.636719 353.640625 366.804688 418.003906 352.476562 C 430.5 382.195312 443.917969 408.730469 460.359375 435.789062 L 446.546875 447.496094 L 427.28125 415.421875 C 418.765625 401.25 410.617188 385.015625 405.855469 369.191406 C 405.582031 368.289062 403.972656 365.757812 403.433594 365.054688 C 402.894531 364.347656 401.179688 365.503906 399.15625 366.570312 C 408.949219 400.023438 425.300781 416.847656 437.65625 447.371094 C 433.519531 457.585938 417.574219 460.820312 408.859375 457.140625 L 390.214844 414.535156 C 384.097656 400.546875 379.734375 387.816406 375.074219 372.90625 C 372.746094 374.679688 371.078125 379.109375 372.046875 381.582031 L 397.753906 447.15625 C 399.5625 451.765625 401.046875 457.3125 401.925781 462.636719 C 391.070312 468.136719 381.070312 469.578125 368.101562 468.773438 L 345.652344 379.019531 C 339.957031 387.070312 344.742188 394.980469 346.449219 402.304688 L 361.46875 466.5 L 339.054688 475.898438 Z M 339.027344 475.886719 " fill-opacity="1" fill-rule="nonzero"/><path fill="#ffffff" d="M 273.210938 131.949219 L 302.832031 127.867188 L 327.316406 305.667969 L 297.691406 309.746094 Z M 273.210938 131.949219 " fill-opacity="1" fill-rule="nonzero"/><path fill="#ffffff" d="M 332.578125 340.949219 L 227.714844 357.789062 C 242.847656 340.882812 263.171875 332.484375 282.972656 323.0625 C 302.121094 313.949219 320.460938 308.847656 341.183594 313.660156 C 361.765625 318.433594 382.636719 317.960938 401.964844 329.074219 Z M 332.578125 340.949219 " fill-opacity="1" fill-rule="nonzero"/><path fill="#ffffff" d="M 304.550781 120.855469 L 268.269531 127.15625 L 258.617188 79.5625 C 255.582031 64.601562 254.480469 36.035156 275.152344 34.101562 C 283.785156 33.296875 290.378906 39.441406 294.804688 47.84375 C 301.367188 71.261719 303.445312 93.941406 304.542969 120.855469 Z M 304.550781 120.855469 " fill-opacity="1" fill-rule="nonzero"/><path fill="#ffffff" d="M 223.726562 378.066406 C 219.621094 374.78125 220.152344 369.019531 221.957031 364.332031 L 410.324219 334.375 C 414.96875 333.636719 419 342.78125 418.101562 346.453125 C 353.464844 360.535156 290.734375 369.691406 223.726562 378.066406 Z M 223.726562 378.066406 " fill-opacity="1" fill-rule="nonzero"/><path fill="#ffffff" d="M 559.304688 467.339844 L 466.960938 440.539062 C 465.742188 432.71875 463.320312 426.632812 458.71875 420.570312 L 439.164062 383.414062 L 424.472656 353.410156 C 433.425781 338.734375 443.675781 323.882812 456.296875 310.882812 C 460.964844 306.070312 472.410156 308.992188 478.273438 311.1875 C 508.148438 322.382812 536.75 332.640625 567.6875 339.769531 C 577.332031 341.992188 584.113281 344.234375 594.347656 348.003906 L 589.800781 360.964844 C 577.679688 395.5625 568.847656 429.644531 559.304688 467.332031 Z M 559.304688 467.339844 " fill-opacity="1" fill-rule="nonzero"/><path fill="#ffffff" d="M 475.386719 304.28125 C 469.117188 302.042969 456.621094 304.679688 452.078125 308.261719 C 440.292969 317.53125 433.511719 330.394531 425.957031 342.945312 L 416.378906 326.679688 L 445.90625 279.164062 C 452.664062 268.285156 467.152344 257.761719 480.824219 260.289062 C 497.734375 263.417969 513.140625 268.640625 530.835938 273.078125 L 582.164062 161.703125 C 586.296875 152.75 590.617188 143.824219 597.835938 136.851562 C 601.503906 133.320312 610.757812 136.941406 613.964844 139.835938 C 618.0625 143.535156 621.320312 152.589844 618.898438 158.230469 L 593.625 217.019531 C 583.839844 239.785156 572.523438 259.835938 563.773438 283.757812 C 582.738281 295.929688 613.890625 294.320312 618.976562 312.554688 C 614.097656 323.121094 607.339844 334.265625 600.160156 344.894531 C 593.328125 344.945312 587.222656 339.523438 581.164062 337.824219 C 545.355469 327.78125 511.8125 317.300781 475.394531 304.273438 Z M 475.386719 304.28125 " fill-opacity="1" fill-rule="nonzero"/><path fill="#ffffff" d="M 609.289062 367.957031 C 597.488281 396.632812 586.527344 423.878906 572.429688 448.847656 C 578.789062 415 581.992188 380.609375 600.410156 354.273438 L 621.894531 323.550781 C 623.085938 339.332031 615.542969 352.757812 609.289062 367.957031 Z M 609.289062 367.957031 " fill-opacity="1" fill-rule="nonzero"/><path fill="#4aa0d1" d="M 23.371094 767.273438 C 26.515625 767.433594 30.226562 767.019531 35.996094 766.644531 C 98.570312 762.578125 164.441406 764.140625 227.460938 766.949219 C 268.03125 768.824219 305.773438 765.253906 321.476562 768.9375 C 326.523438 770.121094 332.488281 771.613281 337.238281 769.832031 C 337.371094 769.757812 337.535156 769.664062 337.636719 769.625 C 337.671875 769.609375 337.714844 769.617188 337.75 769.601562 C 337.773438 769.589844 337.796875 769.554688 337.820312 769.542969 C 344.433594 767 350.480469 758.488281 352.816406 754.460938 C 362.625 745.398438 373.382812 737.421875 384.894531 730.828125 C 385.253906 730.625 385.472656 730.210938 385.746094 729.867188 C 385.855469 729.789062 386.035156 729.679688 386.128906 729.609375 C 387.09375 728.882812 387.683594 727.773438 387.738281 726.574219 C 387.957031 721.875 387.308594 663.101562 387.015625 655.808594 C 386.964844 654.503906 386.035156 653.410156 384.9375 652.699219 C 384.746094 652.574219 384.484375 652.582031 384.261719 652.496094 C 381.039062 650.0625 333.613281 649.777344 330.289062 647.902344 C 327.773438 646.480469 328.699219 645.558594 327.140625 618.570312 C 326.320312 604.402344 326.152344 601.453125 319.859375 601.351562 L 319.015625 601.320312 C 316.433594 601.320312 314.085938 600.011719 287.652344 602.234375 C 281.84375 602.71875 272.328125 603.527344 266.441406 603.476562 L 266.441406 590.601562 C 266.441406 581.171875 263.421875 570.4375 263.863281 562.15625 C 264.015625 559.214844 261.140625 557.472656 258.542969 557.21875 C 226.1875 554.039062 215.480469 552.628906 196.074219 553.789062 C 195.777344 542.460938 194.042969 512.839844 194.542969 507.644531 C 195.753906 504.902344 193.632812 501.738281 190.640625 501.992188 C 190.621094 501.992188 190.316406 502.015625 190.277344 502.015625 C 189.46875 502.078125 185.542969 502.375 186.351562 502.3125 C 158.15625 503.421875 143.378906 501.53125 123.722656 503.007812 C 120.210938 473.839844 124.113281 470.117188 121.800781 459.136719 C 121.785156 459.078125 121.730469 459.042969 121.714844 458.984375 C 121.601562 457.703125 120.953125 456.527344 119.832031 455.859375 C 117.464844 454.464844 115.507812 454.78125 113.445312 455.019531 C 111.09375 454.429688 108.90625 454.101562 106.960938 454.023438 C 103.675781 453.730469 100.167969 453.9375 95.9375 454.097656 C 27.339844 457.34375 52.773438 433.425781 2.386719 509.335938 C 1.546875 510.589844 -0.363281 491.171875 12.996094 759.714844 C 13.460938 767.234375 19.875 767.273438 23.371094 767.273438 Z M 379.78125 724.121094 C 364.269531 733.550781 353.425781 741.644531 340.730469 754.824219 C 345.914062 687.105469 336.1875 722.375 378.089844 663.917969 C 378.515625 686.539062 380.628906 702.171875 379.78125 724.121094 Z M 329.714844 656.136719 C 333.476562 656.765625 342.199219 657.242188 371.671875 659.042969 C 358.425781 677.527344 356.675781 678.664062 336.738281 703.523438 L 289.777344 703.523438 C 302.371094 689.570312 317.246094 672.023438 329.714844 656.136719 Z M 318.652344 611.753906 C 321.0625 644.210938 319.308594 647.078125 322.800781 651.859375 C 311.722656 665.941406 298.320312 681.992188 283.820312 698.074219 C 282.613281 688.417969 280.144531 668.03125 280.195312 658.800781 C 294.515625 636.820312 308.125 624.382812 318.652344 611.753906 Z M 269.535156 611.488281 C 277.414062 611.269531 287.949219 609.976562 310.390625 608.984375 C 299.644531 621.449219 287.121094 633.523438 273.777344 653.882812 C 258.621094 653.714844 241.9375 657.898438 227.160156 658.707031 C 250.246094 627.050781 255.589844 625.5625 269.535156 611.488281 Z M 258.394531 590.601562 C 258.738281 606.910156 257.601562 608.042969 259.445312 610.054688 C 249.148438 619.835938 232.234375 635.039062 220.554688 650.777344 C 219.605469 637.140625 218.671875 623.625 219.558594 611.175781 C 221.375 609.066406 230.46875 593.375 256 568.933594 C 256.632812 576.203125 258.394531 583.695312 258.394531 590.601562 Z M 196.371094 561.832031 C 213.007812 560.84375 220.335938 561.554688 249.105469 564.378906 C 236.367188 576.855469 224.320312 590.199219 214.109375 604.921875 C 207.1875 605.578125 163.300781 606.773438 156.359375 606.957031 C 157.085938 606.140625 190.691406 568.433594 196.371094 561.832031 Z M 186.402344 512.761719 C 186.410156 513.566406 187.972656 558.199219 188.15625 559.011719 C 179.035156 569.410156 172.507812 576.632812 163.0625 587.207031 L 163.058594 587.210938 C 161.683594 588.753906 160.578125 590.066406 150.21875 601.566406 C 149.253906 587.410156 149.363281 569.484375 149.707031 555.339844 C 150.246094 554.710938 150.898438 553.945312 151.570312 553.167969 C 155.902344 548.183594 178.691406 521.78125 186.402344 512.761719 Z M 124.390625 511.015625 C 141.496094 509.746094 160.683594 511.132812 177.492188 510.761719 C 152.636719 539.703125 144.628906 548.945312 142.800781 551 C 142.652344 551.175781 142.535156 551.320312 142.371094 551.511719 C 141.957031 551.539062 147.753906 551.144531 90.324219 554.96875 C 122.230469 516.457031 121.539062 514.703125 124.390625 511.015625 Z M 114.433594 470.363281 C 113.816406 484.46875 115.136719 504.773438 116.375 508.484375 C 115.761719 509.328125 107.773438 521.117188 100.238281 530.207031 C 97.703125 533.355469 89.757812 542.976562 84.109375 549.664062 C 83.226562 536.488281 81.714844 517.917969 82.125 509.398438 C 86.839844 503.671875 96.878906 491.5 114.433594 470.363281 Z M 46.417969 461.191406 C 75.957031 465.105469 100.414062 460.453125 110.40625 462.570312 C 108.484375 464.855469 76.011719 504.109375 72.332031 508.644531 C 5.226562 507.847656 26.628906 510.332031 12.125 509.214844 C 38.792969 468.945312 39.910156 465.757812 46.417969 461.191406 Z M 74.035156 516.683594 C 74.058594 517.488281 75.78125 560.136719 78.207031 562.949219 C 79.015625 563.417969 78.652344 563.378906 79.460938 563.652344 C 79.476562 563.65625 79.484375 563.671875 79.5 563.679688 C 79.523438 563.6875 79.546875 563.683594 79.574219 563.691406 C 82.644531 565.109375 85.671875 564.308594 89.519531 563.394531 C 92.03125 562.804688 140.746094 559.691406 141.550781 559.640625 C 141.414062 574.21875 141 592.320312 142.898438 610.421875 L 142.832031 610.421875 L 142.675781 611.253906 C 142.234375 613.429688 143.644531 615.550781 145.828125 615.992188 C 146.949219 616.222656 148.171875 615.953125 149.136719 615.183594 C 163.761719 614.847656 196.878906 613.964844 211.320312 613.15625 C 210.671875 625.625 211.863281 642.058594 212.679688 653.632812 C 213.710938 660.117188 211.824219 665.621094 216.40625 666.714844 C 217.511719 666.980469 217.21875 666.773438 217.785156 666.707031 C 217.957031 666.6875 218.144531 666.75 218.308594 666.707031 C 224.777344 668.296875 263.496094 662.085938 272.164062 662.007812 C 272.890625 680.59375 274.648438 690.429688 276.945312 707.753906 C 277.316406 710.609375 280.71875 711.605469 279.914062 711.089844 C 280.40625 711.222656 280.972656 711.316406 281.636719 711.191406 C 283.15625 711.902344 280.523438 711.433594 335.449219 711.574219 C 334.175781 719.917969 334.28125 732.808594 332.042969 762.601562 C 321.480469 762.476562 342.496094 759.453125 254.261719 759.453125 C 214.792969 759.453125 129.441406 752.496094 35.476562 758.617188 C 27.542969 759.117188 22.496094 759.304688 21.023438 759.109375 C 16.359375 665.292969 12.835938 588.222656 9.972656 517.1875 C 14.4375 517.753906 73.230469 516.757812 74.035156 516.683594 Z M 74.035156 516.683594 " fill-opacity="1" fill-rule="nonzero"/><path fill="#4aa0d1" d="M 142.800781 551 C 149.402344 543.136719 140.292969 553.824219 142.800781 551 Z M 142.800781 551 " fill-opacity="1" fill-rule="nonzero"/><g clip-path="url(#44a394e288)"><g clip-path="url(#674611518e)"><g clip-path="url(#c9665dd7a2)"><path fill="#4aa0d1" d="M 855.894531 673.902344 C 857.515625 662.402344 856.410156 650.644531 852.859375 639.605469 C 848.277344 625.515625 840.320312 612.339844 830.816406 600.960938 C 821.90625 590.355469 811.046875 581.085938 798.789062 574.605469 C 787.753906 568.707031 775.589844 564.871094 763.128906 564.128906 C 751.667969 563.53125 740.089844 565.445312 729.722656 570.425781 C 719.308594 575.476562 710.503906 583.453125 704.398438 593.261719 C 697.453125 604.226562 693.628906 617.296875 692.617188 630.179688 C 692.109375 635.921875 692.347656 641.75 692.675781 647.433594 C 693.582031 662.746094 690.347656 678.777344 683.234375 692.320312 C 679.160156 700.054688 673.84375 707.085938 667.136719 712.726562 C 663.863281 715.5 661.3125 717.144531 657.867188 719.410156 C 655.019531 721.359375 652.171875 723.3125 649.394531 725.3125 C 638.425781 733.089844 627.464844 741.472656 619.570312 752.519531 C 615.984375 757.480469 613.152344 763.125 611.859375 769.164062 C 610.484375 775.640625 610.78125 782.300781 612.886719 788.628906 C 617.433594 802.300781 627.375 813.46875 640.574219 819.261719 C 653.113281 824.832031 667.515625 825.03125 680.933594 823.203125 C 695.460938 821.195312 709.523438 816.496094 722.824219 810.515625 C 732.640625 806.074219 741.792969 800.511719 750.867188 794.597656 C 758.5625 789.59375 766.300781 784.515625 773.761719 779.257812 C 782.644531 773.023438 791.3125 766.351562 799.601562 759.335938 C 808.550781 751.753906 817.03125 743.667969 824.757812 734.902344 C 832.484375 726.132812 839.523438 716.722656 845.039062 706.433594 C 850.398438 696.242188 854.277344 685.402344 855.894531 673.902344 Z M 715.003906 590.226562 C 714.890625 590.253906 714.890625 590.253906 715.003906 590.226562 Z M 828.539062 719.417969 C 826.859375 721.71875 825.082031 723.863281 823.261719 726.078125 C 822.828125 726.59375 822.441406 727.042969 822.011719 727.5625 C 821.917969 727.703125 821.714844 727.867188 821.667969 727.9375 C 821.417969 728.175781 821.191406 728.527344 820.9375 728.765625 C 819.957031 729.824219 819.046875 730.933594 818.066406 731.992188 C 814.257812 736.214844 810.171875 740.253906 806.054688 744.179688 C 797.964844 751.816406 789.398438 758.953125 780.5 765.675781 C 776.394531 768.808594 772.265625 771.828125 767.996094 774.753906 C 767.054688 775.445312 766.042969 776.089844 765.105469 776.777344 C 764.621094 777.066406 764.164062 777.46875 763.679688 777.753906 C 763.519531 777.851562 763.3125 778.015625 763.152344 778.113281 C 763.105469 778.183594 762.832031 778.304688 762.667969 778.398438 C 760.832031 779.707031 758.972656 780.898438 757.066406 782.164062 C 750.289062 786.664062 743.515625 791.167969 736.550781 795.351562 C 724.914062 802.304688 712.328125 807.949219 699.484375 811.835938 C 686.289062 815.796875 672.8125 818.183594 659.109375 816.742188 C 655.828125 816.425781 653.429688 815.980469 650.210938 815.105469 C 648.742188 814.757812 647.292969 814.222656 645.796875 813.761719 C 645.074219 813.496094 644.347656 813.226562 643.671875 812.890625 C 643.273438 812.734375 642.875 812.578125 642.59375 812.398438 C 642.453125 812.308594 642.265625 812.289062 642.125 812.199219 C 642.054688 812.152344 642.054688 812.152344 642.054688 812.152344 C 642.054688 812.152344 642.054688 812.152344 641.984375 812.105469 C 639.152344 810.785156 636.546875 809.109375 634.101562 807.339844 C 633.652344 806.953125 632.710938 806.25 632.5 806.113281 C 632.640625 806.203125 632.054688 805.726562 631.957031 805.5625 C 631.582031 805.222656 631.273438 804.925781 630.894531 804.582031 C 629.738281 803.441406 628.628906 802.230469 627.5625 800.945312 C 623.347656 796.351562 620.019531 790.226562 618.589844 783.933594 C 617.839844 780.765625 617.617188 778.632812 617.773438 775.449219 C 617.953125 772.378906 618.292969 770.609375 619.265625 767.550781 C 619.488281 766.898438 619.707031 766.242188 619.972656 765.519531 C 620.085938 765.191406 620.242188 764.792969 620.351562 764.46875 C 620.441406 764.328125 620.644531 763.859375 620.664062 763.671875 C 620.753906 763.53125 620.910156 763.132812 621 762.992188 C 621.15625 762.597656 621.335938 762.3125 621.5625 761.960938 C 621.898438 761.28125 622.351562 760.578125 622.691406 759.898438 C 624.25 757.320312 626.0625 754.804688 627.976562 752.449219 C 628.066406 752.308594 628.109375 752.238281 628.273438 752.140625 C 628.273438 752.140625 628.316406 752.070312 628.316406 752.070312 C 628.613281 751.765625 628.839844 751.414062 629.136719 751.105469 C 629.613281 750.515625 630.164062 749.972656 630.710938 749.429688 C 631.851562 748.273438 632.996094 747.117188 634.136719 745.957031 C 636.492188 743.6875 638.984375 741.511719 641.503906 739.449219 C 646.707031 735.226562 652.050781 731.398438 657.585938 727.589844 C 659.007812 726.613281 659.789062 726.019531 661.003906 725.207031 C 662.269531 724.328125 663.644531 723.421875 664.910156 722.542969 C 668.8125 719.875 672.503906 717.074219 675.8125 713.625 C 687.09375 702.265625 693.929688 687.449219 697.363281 672.039062 C 699.175781 663.953125 699.828125 655.8125 699.367188 647.550781 C 698.96875 641.824219 698.730469 635.996094 699.238281 630.253906 C 699.785156 624.136719 700.984375 618.238281 702.835938 612.261719 C 703.761719 609.273438 704.898438 606.421875 706.21875 603.589844 C 706.308594 603.449219 706.421875 603.121094 706.464844 603.050781 C 706.621094 602.65625 706.804688 602.375 706.957031 601.976562 C 707.296875 601.296875 707.679688 600.546875 708.085938 599.914062 C 708.785156 598.671875 709.484375 597.425781 710.253906 596.230469 C 711.023438 595.03125 711.90625 593.808594 712.746094 592.660156 C 713.179688 592.140625 713.542969 591.578125 714.019531 590.988281 C 714.199219 590.707031 714.40625 590.539062 714.589844 590.257812 C 714.632812 590.1875 714.722656 590.046875 714.839844 590.023438 C 714.839844 590.023438 714.886719 589.953125 714.929688 589.882812 C 716.777344 587.78125 718.71875 585.847656 720.800781 584 C 721.761719 583.125 722.792969 582.292969 723.894531 581.507812 C 724.421875 581.152344 724.949219 580.792969 725.40625 580.390625 C 725.566406 580.296875 725.730469 580.199219 725.773438 580.128906 C 726.097656 579.9375 726.347656 579.703125 726.625 579.582031 C 728.851562 578.128906 731.203125 576.949219 733.621094 575.816406 C 734.84375 575.308594 736.109375 574.730469 737.289062 574.292969 C 737.402344 574.269531 737.679688 574.148438 737.839844 574.050781 C 738.003906 573.957031 738.464844 573.855469 738.582031 573.832031 C 739.203125 573.632812 739.828125 573.4375 740.453125 573.242188 C 743.0625 572.429688 745.722656 571.851562 748.363281 571.460938 C 751.398438 570.921875 752.953125 570.824219 755.898438 570.730469 C 758.660156 570.613281 761.472656 570.726562 764.195312 570.984375 C 765.613281 571.097656 767.101562 571.261719 768.476562 571.445312 C 770.105469 571.699219 770.476562 571.738281 772.0625 572.058594 C 774.90625 572.59375 777.796875 573.355469 780.53125 574.214844 C 783.445312 575.09375 786.300781 576.230469 789.105469 577.4375 C 790.722656 578.179688 791.191406 578.378906 792.6875 579.144531 C 794.117188 579.863281 795.546875 580.582031 796.929688 581.371094 C 799.695312 582.949219 802.445312 584.714844 805.074219 586.507812 C 806.4375 587.480469 807.800781 588.457031 809.121094 589.503906 C 809.707031 589.980469 810.296875 590.460938 810.886719 590.9375 C 811.191406 591.234375 811.613281 591.503906 811.921875 591.800781 C 812.371094 592.1875 812.203125 591.984375 812.582031 592.324219 C 823.679688 601.847656 832.628906 613.46875 839.535156 626.265625 C 842.675781 632.066406 845.117188 637.714844 846.769531 643.65625 C 847.5625 646.453125 848.164062 649.230469 848.652344 652.03125 C 848.886719 653.375 849.070312 654.789062 849.234375 656.085938 C 849.308594 656.433594 849.269531 656.804688 849.34375 657.152344 C 849.371094 657.265625 849.371094 657.265625 849.324219 657.335938 C 849.324219 657.335938 849.347656 657.453125 849.304688 657.523438 C 849.339844 658.242188 849.375 658.960938 849.410156 659.683594 C 849.664062 665.019531 849.3125 670.367188 848.402344 675.652344 C 848.382812 675.839844 848.316406 676.097656 848.296875 676.28125 C 848.230469 676.539062 848.191406 676.910156 848.125 677.167969 C 847.972656 677.867188 847.824219 678.566406 847.671875 679.265625 C 847.417969 680.59375 847.042969 681.945312 846.71875 683.230469 C 845.949219 685.820312 845.109375 688.367188 844.199219 690.867188 C 843.730469 692.058594 843.21875 693.320312 842.703125 694.582031 C 842.414062 695.191406 842.191406 695.847656 841.898438 696.457031 C 841.789062 696.78125 841.609375 697.0625 841.453125 697.460938 C 841.453125 697.460938 841.40625 697.53125 841.40625 697.53125 C 841.316406 697.671875 841.273438 697.742188 841.25 697.929688 C 840.085938 700.363281 838.800781 702.824219 837.449219 705.238281 C 835.027344 710.25 831.921875 714.921875 828.539062 719.417969 Z M 748.929688 559.582031 C 763.816406 558.101562 774.617188 544.542969 777.871094 530.808594 C 778.394531 528.757812 778.707031 526.566406 778.972656 524.449219 C 780.410156 510.445312 775.265625 494.601562 762.804688 486.890625 C 757.007812 483.363281 750.066406 482.089844 743.375 483.363281 C 736.570312 484.660156 730.414062 488.667969 725.855469 493.898438 C 715.742188 505.609375 712.640625 522.824219 717.808594 537.394531 C 720.175781 544.089844 724.128906 550.011719 729.84375 554.285156 C 735.277344 558.371094 742.160156 560.207031 748.929688 559.582031 Z M 728.015625 502.152344 C 731.183594 497.222656 735.457031 493.203125 741.042969 491.019531 C 743.210938 490.125 746.242188 489.585938 748.726562 489.589844 C 751.515625 489.589844 753.542969 489.996094 756.351562 491.203125 C 757.402344 491.578125 758.644531 492.277344 760.050781 493.183594 C 761.671875 494.226562 762.144531 494.726562 763.371094 495.914062 C 765.78125 498.359375 767.257812 500.402344 768.746094 503.347656 C 772.011719 509.726562 773.039062 516.957031 772.257812 524.214844 C 771.488281 530.984375 769.109375 537.320312 765.066406 542.683594 C 764.269531 543.765625 763.675781 544.378906 762.652344 545.511719 C 761.511719 546.667969 760.226562 547.734375 758.917969 548.683594 C 757.039062 550.0625 753.976562 551.578125 751.800781 552.171875 C 748.933594 552.917969 746.800781 553.140625 743.824219 552.816406 C 742.894531 552.71875 743.078125 552.738281 742.265625 552.609375 C 741.566406 552.460938 740.980469 552.285156 740.28125 552.132812 C 739.628906 551.914062 738.972656 551.691406 738.320312 551.46875 C 737.3125 551.023438 737.667969 551.25 736.707031 550.730469 C 731.761719 548.050781 728.347656 544.066406 725.800781 539.046875 C 720.105469 527.625 721.136719 512.859375 728.015625 502.152344 Z M 794.503906 566.875 C 805.847656 570.28125 817.40625 562.980469 823.074219 553.386719 C 828.171875 544.523438 829.347656 532.9375 823.09375 524.242188 C 817.171875 515.957031 806.164062 514.65625 797.433594 518.796875 C 787.824219 523.371094 781.261719 533.585938 780.507812 544.046875 C 779.792969 553.835938 784.769531 563.902344 794.503906 566.875 Z M 797.539062 526.53125 C 800.636719 524.339844 804.195312 523.144531 807.585938 523.132812 C 810.929688 523.191406 814.109375 524.4375 816.1875 526.472656 C 816.566406 526.8125 816.898438 527.226562 817.230469 527.636719 C 817.324219 527.800781 817.464844 527.890625 817.5625 528.050781 C 817.5625 528.050781 817.894531 528.464844 817.917969 528.578125 C 818.464844 529.429688 818.96875 530.347656 819.285156 531.25 C 819.867188 532.515625 820.445312 535.179688 820.515625 536.617188 C 820.800781 541.28125 819.574219 545.667969 817.296875 549.675781 C 815.222656 553.21875 812.324219 556.332031 808.945312 558.339844 C 805.652344 560.207031 802.464844 561.144531 798.8125 560.785156 C 798.695312 560.8125 797.882812 560.6875 797.882812 560.6875 C 797.441406 560.601562 796.996094 560.515625 796.597656 560.359375 C 796.203125 560.203125 795.828125 560.164062 795.433594 560.007812 C 795.175781 559.941406 795.035156 559.851562 794.777344 559.785156 C 794.707031 559.742188 794.707031 559.742188 794.707031 559.742188 C 794.707031 559.742188 794.636719 559.695312 794.496094 559.605469 C 793.675781 559.175781 792.902344 558.679688 792.101562 558.066406 C 792.101562 558.066406 792.03125 558.019531 791.890625 557.929688 C 791.75 557.839844 791.582031 557.632812 791.582031 557.632812 C 791.207031 557.292969 790.875 556.878906 790.496094 556.539062 C 788.53125 554.179688 787.214844 550.648438 787 547.421875 C 786.863281 539.273438 791.066406 531.027344 797.539062 526.53125 Z M 830.339844 591.792969 C 840.269531 596.78125 852.15625 592.378906 859.011719 584.34375 C 859.101562 584.203125 859.148438 584.132812 859.238281 583.992188 C 859.328125 583.851562 859.488281 583.753906 859.578125 583.613281 C 865.589844 576.429688 868.359375 565.769531 864.03125 557.019531 C 859.871094 548.472656 849.945312 545.179688 841.089844 547.648438 C 831.5 550.34375 823.53125 558.558594 821.117188 568.355469 C 819.109375 577.210938 821.765625 587.480469 830.339844 591.792969 Z M 829.410156 582.242188 C 829.386719 582.125 829.339844 582.195312 829.410156 582.242188 Z M 831.652344 562.183594 C 833.898438 559.152344 836.949219 556.730469 840.429688 555.1875 C 841.972656 554.488281 843.566406 554.019531 845.398438 553.800781 C 846.046875 553.722656 846.464844 553.691406 847.441406 553.722656 C 847.859375 553.691406 848.230469 553.730469 848.671875 553.816406 C 848.859375 553.835938 849.605469 553.917969 849.605469 553.917969 C 850.417969 554.042969 851.257812 554.285156 852.054688 554.59375 C 852.125 554.640625 852.664062 554.886719 852.777344 554.863281 C 853.175781 555.019531 853.527344 555.246094 853.878906 555.46875 C 855.289062 556.375 856.113281 557.105469 857.300781 558.664062 C 857.039062 558.296875 857.660156 559.191406 857.707031 559.425781 C 857.925781 559.863281 858.1875 560.230469 858.332031 560.621094 C 858.550781 561.058594 858.71875 561.566406 858.71875 561.566406 C 858.820312 562.03125 858.96875 562.421875 859.066406 562.882812 C 859.46875 564.734375 859.566406 566.289062 859.300781 568.40625 C 859.074219 570.152344 858.414062 572.417969 857.566406 574.359375 C 856.824219 575.972656 855.558594 577.945312 854.214844 579.570312 C 851.59375 582.566406 848.683594 584.773438 844.921875 586.136719 C 844.644531 586.257812 843.441406 586.582031 842.863281 586.707031 C 842.402344 586.808594 842.054688 586.882812 841.589844 586.984375 C 841.359375 587.035156 841.128906 587.082031 840.824219 587.089844 C 840.710938 587.113281 840.710938 587.113281 840.640625 587.070312 C 839.734375 587.085938 838.828125 587.097656 837.96875 587.042969 C 837.039062 586.945312 836.921875 586.96875 835.894531 586.707031 C 835.3125 586.53125 834.074219 586.132812 833.863281 586 C 834.003906 586.089844 833.253906 585.707031 833.042969 585.570312 C 832.621094 585.300781 832.128906 584.984375 831.707031 584.710938 C 831.566406 584.621094 831.496094 584.574219 831.351562 584.484375 C 831.28125 584.4375 831.140625 584.347656 831.117188 584.234375 C 830.808594 583.9375 830.503906 583.640625 830.265625 583.386719 C 829.960938 583.089844 829.769531 582.769531 829.460938 582.472656 C 829.390625 582.425781 829.367188 582.3125 829.367188 582.3125 C 829.269531 582.152344 829.105469 581.945312 829.007812 581.785156 C 827.980469 580.128906 827.710938 579.15625 827.378906 577.351562 C 827.097656 575.777344 827.070312 574.269531 827.273438 572.40625 C 827.769531 568.84375 829.359375 565.289062 831.652344 562.183594 Z M 847.796875 602.414062 C 844.285156 610.511719 845.988281 620.5625 853.484375 625.777344 C 862.105469 631.714844 873.691406 628.710938 881.179688 622.476562 C 888.027344 616.625 892.621094 606.839844 889.707031 597.902344 C 886.820312 589.078125 878.132812 584.789062 869.207031 585.820312 C 859.820312 586.953125 851.507812 593.851562 847.796875 602.414062 Z M 867.632812 593.070312 C 870.734375 592.277344 873.679688 592.179688 876.507812 593.199219 C 879.054688 594.039062 881.171875 595.699219 882.488281 598.140625 C 883.953125 600.972656 884.152344 604.382812 883.320312 607.53125 C 882.25 611.519531 879.9375 614.808594 876.707031 617.511719 C 871.578125 621.777344 864.871094 623.539062 858.957031 621.132812 C 858.957031 621.132812 858.886719 621.085938 858.816406 621.042969 C 858.675781 620.949219 858.464844 620.816406 858.464844 620.816406 C 858.179688 620.632812 857.898438 620.453125 857.617188 620.273438 C 857.265625 620.046875 856.914062 619.820312 856.675781 619.566406 C 856.675781 619.566406 856.605469 619.523438 856.535156 619.476562 C 856.464844 619.433594 856.0625 618.972656 856.132812 619.019531 C 855.660156 618.515625 855.023438 617.808594 854.832031 617.484375 C 854.570312 617.117188 854.109375 616.128906 853.800781 615.527344 C 853.367188 614.652344 853.035156 612.847656 852.992188 611.828125 C 852.964844 610.015625 853.148438 608.640625 853.542969 607.101562 C 855.242188 600.433594 861.042969 594.808594 867.632812 593.070312 Z M 901 640.882812 C 898.445312 632.777344 890.664062 628.472656 882.410156 629.238281 C 873.433594 630.039062 865.476562 636.070312 861.78125 644.144531 C 858.332031 651.683594 859.671875 660.902344 866.539062 666.011719 C 874.347656 671.824219 885.359375 669.25 892.511719 663.695312 C 898.996094 658.40625 903.601562 649.226562 901 640.882812 Z M 879.667969 662.308594 C 877.097656 662.746094 874.121094 662.425781 871.964844 661.4375 C 870.960938 660.992188 869.925781 660.125 869.167969 659.441406 C 868.695312 658.9375 868.292969 658.480469 868.171875 658.203125 C 867.789062 657.5625 867.453125 656.847656 867.117188 656.132812 C 866.824219 655.347656 866.542969 653.773438 866.546875 652.679688 C 866.542969 650.984375 866.714844 650.101562 867.222656 648.535156 C 869.097656 642.675781 874.5625 637.730469 880.671875 636.28125 C 883.445312 635.675781 886.046875 635.65625 888.617188 636.609375 C 889.527344 636.898438 890.769531 637.597656 891.597656 638.324219 C 892.421875 639.054688 893.25 640.085938 893.78125 641.121094 C 894.402344 642.320312 894.800781 643.867188 894.820312 645.074219 C 894.921875 646.933594 894.6875 648.074219 894.203125 649.753906 C 893.078125 653.210938 890.921875 656.101562 887.988281 658.5 C 885.511719 660.492188 882.703125 661.769531 879.667969 662.308594 Z M 879.667969 662.308594 " fill-opacity="1" fill-rule="nonzero"/></g></g></g><g clip-path="url(#6786a8516d)"><g clip-path="url(#52ce23eb26)"><g transform="matrix(1, 0, 0, 1, 330, 434)"><g clip-path="url(#ab960cbbf2)"><g clip-path="url(#dfbff9b06f)"><g clip-path="url(#9b608bb367)"><g clip-path="url(#6439a1d587)"><g clip-path="url(#c26f975a13)"><path fill="#4aa0d1" d="M 153.460938 107.863281 C 163.25 101.613281 174.402344 97.734375 185.921875 96.378906 C 200.640625 94.691406 215.925781 96.457031 230.230469 100.371094 C 243.574219 104.070312 256.519531 110.101562 267.507812 118.554688 C 277.457031 126.144531 286 135.617188 291.855469 146.640625 C 297.15625 156.816406 300.226562 168.144531 300.003906 179.644531 C 299.734375 191.214844 296.140625 202.539062 289.75 212.167969 C 282.664062 223.039062 272.363281 231.945312 261.066406 238.222656 C 256.050781 241.070312 250.65625 243.273438 245.347656 245.335938 C 231.042969 250.871094 217.804688 260.476562 208.441406 272.570312 C 203.097656 279.488281 198.910156 287.246094 196.566406 295.695312 C 195.40625 299.824219 194.96875 302.828125 194.339844 306.902344 C 193.746094 310.300781 193.152344 313.703125 192.492188 317.058594 C 189.972656 330.269531 186.902344 343.722656 180.132812 355.492188 C 177.109375 360.816406 173.152344 365.734375 168.195312 369.417969 C 162.875 373.363281 156.695312 375.859375 150.0625 376.574219 C 135.738281 378.117188 121.449219 373.710938 110.699219 364.117188 C 100.417969 355.023438 94.253906 342.003906 90.34375 329.042969 C 86.136719 314.992188 84.566406 300.25 84.480469 285.667969 C 84.441406 274.890625 85.699219 264.257812 87.308594 253.546875 C 88.664062 244.464844 90.066406 235.316406 91.75 226.347656 C 93.730469 215.675781 96.199219 205.023438 99.136719 194.566406 C 102.3125 183.273438 106.144531 172.203125 110.910156 161.53125 C 115.679688 150.859375 121.3125 140.546875 128.378906 131.253906 C 135.421875 122.148438 143.671875 114.113281 153.460938 107.863281 Z M 288.105469 201.257812 C 288.128906 201.375 288.128906 201.375 288.105469 201.257812 Z M 123.425781 151.660156 C 122.027344 154.144531 120.816406 156.648438 119.558594 159.226562 C 119.265625 159.835938 119.019531 160.371094 118.730469 160.980469 C 118.636719 161.121094 118.574219 161.378906 118.527344 161.449219 C 118.417969 161.777344 118.191406 162.128906 118.082031 162.457031 C 117.523438 163.789062 116.894531 165.078125 116.335938 166.410156 C 114.078125 171.625 112.101562 177.023438 110.242188 182.398438 C 106.65625 192.933594 103.726562 203.6875 101.308594 214.574219 C 100.160156 219.609375 99.128906 224.621094 98.242188 229.71875 C 98.003906 230.863281 97.839844 232.050781 97.601562 233.191406 C 97.542969 233.75 97.367188 234.332031 97.304688 234.890625 C 97.285156 235.078125 97.222656 235.335938 97.199219 235.519531 C 97.15625 235.589844 97.160156 235.894531 97.140625 236.078125 C 96.714844 238.292969 96.402344 240.480469 96.046875 242.738281 C 94.761719 250.773438 93.480469 258.808594 92.574219 266.882812 C 91.082031 280.351562 91.175781 294.144531 92.976562 307.445312 C 94.855469 321.09375 98.285156 334.34375 105.289062 346.210938 C 106.9375 349.0625 108.34375 351.058594 110.476562 353.625 C 111.402344 354.816406 112.488281 355.910156 113.53125 357.078125 C 114.074219 357.625 114.617188 358.175781 115.203125 358.652344 C 115.511719 358.949219 115.820312 359.246094 116.101562 359.425781 C 116.242188 359.519531 116.335938 359.679688 116.476562 359.769531 C 116.546875 359.816406 116.546875 359.816406 116.546875 359.816406 C 116.546875 359.816406 116.546875 359.816406 116.617188 359.859375 C 119 361.886719 121.605469 363.5625 124.230469 365.050781 C 124.769531 365.296875 125.800781 365.859375 126.011719 365.996094 C 125.871094 365.90625 126.550781 366.242188 126.734375 366.261719 C 127.203125 366.464844 127.601562 366.617188 128.070312 366.820312 C 129.589844 367.398438 131.152344 367.90625 132.761719 368.34375 C 138.695312 370.265625 145.644531 370.75 151.964844 369.4375 C 155.15625 368.800781 157.191406 368.117188 160.023438 366.652344 C 162.738281 365.214844 164.207031 364.167969 166.585938 362.015625 C 167.089844 361.542969 167.59375 361.070312 168.140625 360.527344 C 168.390625 360.289062 168.6875 359.980469 168.941406 359.746094 C 169.03125 359.605469 169.371094 359.226562 169.535156 359.132812 C 169.625 358.992188 169.921875 358.683594 170.011719 358.542969 C 170.308594 358.234375 170.488281 357.953125 170.714844 357.601562 C 171.191406 357.015625 171.644531 356.308594 172.125 355.722656 C 173.824219 353.230469 175.355469 350.535156 176.703125 347.816406 C 176.796875 347.675781 176.839844 347.605469 176.859375 347.417969 C 176.859375 347.417969 176.90625 347.347656 176.90625 347.347656 C 177.0625 346.953125 177.289062 346.601562 177.445312 346.203125 C 177.78125 345.523438 178.046875 344.796875 178.3125 344.074219 C 178.890625 342.554688 179.46875 341.035156 180.046875 339.515625 C 181.136719 336.433594 182.082031 333.257812 182.910156 330.109375 C 184.589844 323.625 185.851562 317.171875 187.015625 310.554688 C 187.3125 308.855469 187.527344 307.898438 187.761719 306.457031 C 188.035156 304.941406 188.289062 303.3125 188.5625 301.796875 C 189.367188 297.136719 190.382812 292.617188 192.144531 288.175781 C 197.789062 273.191406 208.429688 260.820312 221.015625 251.296875 C 227.621094 246.285156 234.753906 242.308594 242.460938 239.300781 C 247.835938 237.28125 253.234375 235.078125 258.25 232.230469 C 263.585938 229.191406 268.449219 225.648438 273.117188 221.484375 C 275.453125 219.398438 277.574219 217.179688 279.601562 214.800781 C 279.691406 214.660156 279.941406 214.421875 279.988281 214.351562 C 280.285156 214.046875 280.464844 213.765625 280.761719 213.457031 C 281.242188 212.871094 281.761719 212.210938 282.171875 211.578125 C 283.011719 210.425781 283.851562 209.273438 284.621094 208.074219 C 285.390625 206.878906 286.132812 205.5625 286.832031 204.320312 C 287.125 203.710938 287.488281 203.148438 287.824219 202.46875 C 288.003906 202.1875 288.070312 201.933594 288.25 201.648438 C 288.296875 201.578125 288.386719 201.4375 288.363281 201.324219 C 288.363281 201.324219 288.40625 201.253906 288.453125 201.183594 C 289.59375 198.632812 290.550781 196.0625 291.363281 193.398438 C 291.761719 192.164062 292.085938 190.878906 292.34375 189.550781 C 292.449219 188.921875 292.554688 188.292969 292.730469 187.710938 C 292.75 187.523438 292.769531 187.335938 292.816406 187.265625 C 292.855469 186.894531 292.96875 186.566406 292.960938 186.265625 C 293.359375 183.636719 293.453125 181.007812 293.480469 178.339844 C 293.433594 177.015625 293.433594 175.621094 293.34375 174.371094 C 293.316406 174.253906 293.3125 173.953125 293.332031 173.765625 C 293.351562 173.578125 293.25 173.117188 293.226562 173 C 293.144531 172.351562 293.066406 171.703125 292.984375 171.054688 C 292.636719 168.34375 292.058594 165.683594 291.316406 163.117188 C 290.546875 160.132812 289.988281 158.679688 288.851562 155.957031 C 287.8125 153.398438 286.539062 150.886719 285.175781 148.519531 C 284.480469 147.277344 283.714844 145.988281 282.976562 144.816406 C 282.070312 143.4375 281.878906 143.117188 280.925781 141.808594 C 279.261719 139.445312 277.363281 137.132812 275.449219 135.003906 C 273.433594 132.714844 271.214844 130.59375 268.953125 128.542969 C 267.609375 127.378906 267.230469 127.039062 265.914062 125.992188 C 264.664062 124.992188 263.417969 123.988281 262.125 123.058594 C 259.539062 121.199219 256.792969 119.433594 254.070312 117.785156 C 252.617188 116.949219 251.164062 116.113281 249.664062 115.347656 C 248.984375 115.011719 248.304688 114.675781 247.625 114.339844 C 247.230469 114.183594 246.804688 113.910156 246.410156 113.753906 C 245.871094 113.507812 246.128906 113.574219 245.660156 113.375 C 232.386719 107.234375 218.097656 103.921875 203.589844 102.957031 C 197.007812 102.511719 190.855469 102.636719 184.765625 103.597656 C 181.890625 104.042969 179.117188 104.644531 176.363281 105.367188 C 175.046875 105.714844 173.683594 106.132812 172.433594 106.523438 C 172.089844 106.597656 171.765625 106.789062 171.417969 106.867188 C 171.304688 106.890625 171.304688 106.890625 171.257812 106.960938 C 171.257812 106.960938 171.140625 106.988281 171.097656 107.058594 C 170.429688 107.324219 169.757812 107.589844 169.089844 107.855469 C 164.128906 109.84375 159.414062 112.386719 154.980469 115.410156 C 154.820312 115.503906 154.613281 115.671875 154.453125 115.765625 C 154.246094 115.933594 153.925781 116.125 153.71875 116.289062 C 153.144531 116.71875 152.570312 117.144531 152 117.574219 C 150.898438 118.359375 149.820312 119.257812 148.789062 120.089844 C 146.753906 121.867188 144.785156 123.6875 142.890625 125.554688 C 142 126.472656 141.0625 127.464844 140.128906 128.457031 C 139.695312 128.972656 139.191406 129.449219 138.761719 129.964844 C 138.507812 130.203125 138.328125 130.484375 138.03125 130.789062 C 138.03125 130.789062 137.984375 130.859375 137.984375 130.859375 C 137.894531 131.003906 137.851562 131.074219 137.6875 131.167969 C 135.957031 133.242188 134.253906 135.429688 132.621094 137.664062 C 129.070312 141.949219 126.105469 146.714844 123.425781 151.660156 Z M 301.886719 157.667969 C 297.050781 143.511719 304.894531 128.050781 316.035156 119.386719 C 317.6875 118.058594 319.546875 116.867188 321.363281 115.746094 C 333.503906 108.621094 350.054688 106.714844 362.246094 114.847656 C 367.859375 118.65625 371.90625 124.441406 373.527344 131.054688 C 375.171875 137.785156 374.085938 145.050781 371.21875 151.367188 C 364.769531 165.433594 350.398438 175.40625 335 176.757812 C 327.925781 177.386719 320.894531 176.25 314.636719 172.828125 C 308.660156 169.582031 304.132812 164.085938 301.886719 157.667969 Z M 362.8125 152.832031 C 365.984375 147.902344 367.863281 142.34375 367.53125 136.355469 C 367.445312 134.011719 366.675781 131.03125 365.636719 128.773438 C 364.480469 126.238281 363.265625 124.5625 361.003906 122.507812 C 360.222656 121.710938 359.070312 120.871094 357.664062 119.964844 C 356.042969 118.921875 355.390625 118.703125 353.800781 118.078125 C 350.574219 116.902344 348.105469 116.410156 344.804688 116.28125 C 337.644531 115.957031 330.644531 118.027344 324.367188 121.757812 C 318.527344 125.269531 313.753906 130.0625 310.554688 135.96875 C 309.902344 137.140625 309.589844 137.9375 308.988281 139.339844 C 308.40625 140.859375 307.972656 142.46875 307.648438 144.054688 C 307.175781 146.335938 307.070312 149.753906 307.433594 151.976562 C 307.949219 154.894531 308.632812 156.925781 310.160156 159.5 C 310.640625 160.304688 310.542969 160.144531 310.996094 160.835938 C 311.425781 161.40625 311.828125 161.867188 312.253906 162.4375 C 312.726562 162.941406 313.199219 163.445312 313.671875 163.949219 C 314.5 164.675781 314.148438 164.449219 315.015625 165.109375 C 319.507812 168.496094 324.550781 169.941406 330.175781 170.171875 C 342.933594 170.609375 355.933594 163.539062 362.8125 152.832031 Z M 276.320312 119.242188 C 268.507812 110.339844 270.347656 96.792969 276.71875 87.652344 C 282.664062 79.332031 292.710938 73.449219 303.222656 75.523438 C 313.21875 77.46875 318.972656 86.941406 318.835938 96.605469 C 318.664062 107.246094 312.101562 117.457031 302.898438 122.488281 C 294.289062 127.207031 283.066406 126.863281 276.320312 119.242188 Z M 311.757812 99.71875 C 312.460938 95.992188 312.074219 92.257812 310.671875 89.171875 C 309.230469 86.152344 306.773438 83.777344 304.0625 82.734375 C 303.59375 82.53125 303.082031 82.402344 302.570312 82.269531 C 302.382812 82.25 302.242188 82.160156 302.054688 82.140625 C 302.054688 82.140625 301.542969 82.007812 301.425781 82.035156 C 300.425781 81.890625 299.378906 81.8125 298.429688 81.898438 C 297.035156 81.898438 294.375 82.476562 293.035156 83.011719 C 288.675781 84.6875 285.195312 87.625 282.492188 91.363281 C 280.132812 94.726562 278.503906 98.652344 278.082031 102.5625 C 277.753906 106.332031 278.226562 109.621094 280.066406 112.792969 C 280.09375 112.910156 280.546875 113.597656 280.546875 113.597656 C 280.808594 113.964844 281.070312 114.332031 281.375 114.628906 C 281.683594 114.925781 281.875 115.25 282.179688 115.546875 C 282.347656 115.75 282.488281 115.84375 282.652344 116.046875 C 282.722656 116.09375 282.722656 116.09375 282.722656 116.09375 C 282.722656 116.09375 282.792969 116.140625 282.933594 116.230469 C 283.664062 116.796875 284.4375 117.296875 285.328125 117.769531 C 285.328125 117.769531 285.398438 117.8125 285.542969 117.902344 C 285.683594 117.996094 285.9375 118.058594 285.9375 118.058594 C 286.40625 118.261719 286.917969 118.390625 287.386719 118.59375 C 290.351562 119.402344 294.109375 119.128906 297.132812 117.988281 C 304.601562 114.726562 310.355469 107.476562 311.757812 99.71875 Z M 238.765625 97 C 230.101562 90.039062 229.167969 77.398438 233.628906 67.824219 C 233.71875 67.683594 233.765625 67.613281 233.855469 67.472656 C 233.945312 67.332031 233.964844 67.144531 234.054688 67.003906 C 238.09375 58.550781 246.640625 51.605469 256.398438 51.90625 C 265.902344 52.140625 273.019531 59.800781 274.449219 68.878906 C 275.988281 78.722656 271.824219 89.382812 263.917969 95.648438 C 256.695312 101.15625 246.25 103.003906 238.765625 97 Z M 247.839844 93.875 C 247.953125 93.847656 247.910156 93.921875 247.839844 93.875 Z M 265.152344 83.503906 C 266.976562 80.199219 267.914062 76.421875 267.871094 72.613281 C 267.867188 70.917969 267.628906 69.273438 267.066406 67.515625 C 266.871094 66.894531 266.722656 66.5 266.292969 65.625 C 266.144531 65.234375 265.953125 64.910156 265.691406 64.542969 C 265.597656 64.382812 265.214844 63.738281 265.214844 63.738281 C 264.761719 63.050781 264.191406 62.386719 263.578125 61.792969 C 263.507812 61.746094 263.0625 61.359375 263.035156 61.246094 C 262.730469 60.949219 262.375 60.722656 262.023438 60.496094 C 260.617188 59.589844 259.609375 59.144531 257.699219 58.710938 C 258.140625 58.796875 257.070312 58.605469 256.839844 58.65625 C 256.351562 58.640625 255.90625 58.554688 255.488281 58.585938 C 255 58.570312 254.46875 58.625 254.46875 58.625 C 254.003906 58.726562 253.589844 58.757812 253.125 58.855469 C 251.273438 59.261719 249.820312 59.820312 248.003906 60.941406 C 246.511719 61.871094 244.726562 63.410156 243.3125 64.992188 C 242.148438 66.335938 240.882812 68.304688 239.960938 70.203125 C 238.328125 73.828125 237.527344 77.398438 237.851562 81.386719 C 237.855469 81.6875 238.0625 82.914062 238.1875 83.492188 C 238.289062 83.957031 238.367188 84.304688 238.464844 84.765625 C 238.515625 84.996094 238.566406 85.230469 238.6875 85.503906 C 238.710938 85.621094 238.710938 85.621094 238.78125 85.667969 C 239.144531 86.496094 239.507812 87.328125 239.914062 88.085938 C 240.394531 88.890625 240.417969 89.007812 241.082031 89.832031 C 241.484375 90.289062 242.359375 91.25 242.570312 91.386719 C 242.429688 91.296875 243.089844 91.816406 243.300781 91.953125 C 243.722656 92.226562 244.21875 92.542969 244.640625 92.8125 C 244.78125 92.90625 244.851562 92.949219 244.992188 93.039062 C 245.0625 93.085938 245.203125 93.175781 245.320312 93.152344 C 245.714844 93.308594 246.113281 93.460938 246.441406 93.574219 C 246.839844 93.730469 247.210938 93.769531 247.609375 93.925781 C 247.679688 93.96875 247.792969 93.945312 247.792969 93.945312 C 247.980469 93.964844 248.238281 94.03125 248.421875 94.050781 C 250.355469 94.296875 251.351562 94.140625 253.132812 93.691406 C 254.679688 93.296875 256.0625 92.691406 257.671875 91.734375 C 260.707031 89.804688 263.28125 86.878906 265.152344 83.503906 Z M 221.851562 85.535156 C 215.945312 92.089844 206.097656 94.714844 198.238281 90.066406 C 189.253906 84.6875 187.175781 72.902344 189.734375 63.5 C 192.210938 54.84375 199.203125 46.597656 208.542969 45.535156 C 217.769531 44.496094 225.28125 50.617188 228.050781 59.164062 C 230.917969 68.171875 228.097656 78.601562 221.851562 85.535156 Z M 222.109375 63.605469 C 221.542969 60.457031 220.40625 57.734375 218.304688 55.589844 C 216.484375 53.621094 214.09375 52.382812 211.328125 52.199219 C 208.140625 52.042969 204.957031 53.28125 202.4375 55.34375 C 199.253906 57.976562 197.222656 61.445312 196.105469 65.507812 C 194.355469 71.945312 195.539062 78.777344 200.1875 83.15625 C 200.1875 83.15625 200.257812 83.203125 200.332031 83.25 C 200.472656 83.339844 200.683594 83.472656 200.683594 83.472656 C 200.964844 83.65625 201.246094 83.835938 201.527344 84.019531 C 201.878906 84.242188 202.230469 84.46875 202.558594 84.582031 C 202.558594 84.582031 202.628906 84.625 202.699219 84.671875 C 202.769531 84.714844 203.355469 84.894531 203.285156 84.847656 C 203.9375 85.070312 204.847656 85.355469 205.21875 85.394531 C 205.664062 85.480469 206.753906 85.484375 207.429688 85.519531 C 208.40625 85.550781 210.183594 85.101562 211.128906 84.714844 C 212.789062 83.992188 213.960938 83.25 215.199219 82.253906 C 220.5625 77.9375 223.265625 70.320312 222.109375 63.605469 Z M 164.753906 53.121094 C 173.191406 52.074219 180.339844 57.363281 183.074219 65.191406 C 186.074219 73.6875 183.890625 83.433594 178.082031 90.148438 C 172.660156 96.417969 163.714844 99.03125 156.214844 94.90625 C 147.683594 90.21875 145.453125 79.132812 147.535156 70.320312 C 149.648438 62.222656 156.085938 54.21875 164.753906 53.121094 Z M 154.128906 81.425781 C 154.800781 83.945312 156.328125 86.519531 158.121094 88.070312 C 158.945312 88.796875 160.164062 89.382812 161.097656 89.785156 C 161.753906 90.003906 162.335938 90.179688 162.636719 90.175781 C 163.382812 90.257812 164.171875 90.265625 164.960938 90.277344 C 165.796875 90.214844 167.347656 89.816406 168.335938 89.359375 C 169.882812 88.660156 170.617188 88.136719 171.828125 87.027344 C 176.378906 82.886719 178.609375 75.855469 177.390625 69.699219 C 176.785156 66.921875 175.722656 64.550781 173.785156 62.609375 C 173.148438 61.898438 171.996094 61.058594 170.988281 60.609375 C 169.984375 60.164062 168.699219 59.835938 167.539062 59.785156 C 166.191406 59.714844 164.617188 60 163.507812 60.480469 C 161.777344 61.160156 160.835938 61.851562 159.511719 62.988281 C 156.835938 65.449219 155.097656 68.613281 154.140625 72.273438 C 153.355469 75.351562 153.359375 78.441406 154.128906 81.425781 Z M 154.128906 81.425781 " fill-opacity="1" fill-rule="nonzero"/></g></g></g></g></g></g></g></g></svg>