<svg xmlns="http://www.w3.org/2000/svg" xmlns:xlink="http://www.w3.org/1999/xlink" width="1254" zoomAndPan="magnify" viewBox="0 0 940.5 940.499971" height="1254" preserveAspectRatio="xMidYMid meet" version="1.0"><defs><clipPath id="c0600639e0"><path d="M 438 333 L 873 333 L 873 934 L 438 934 Z M 438 333 " clip-rule="nonzero"/></clipPath><clipPath id="0f555d6928"><path d="M 441.113281 -185.269531 L 1149.019531 357.480469 L 582.097656 1096.917969 L -125.808594 554.164062 Z M 441.113281 -185.269531 " clip-rule="nonzero"/></clipPath><clipPath id="0127dc6200"><path d="M 441.113281 -185.269531 L 1149.019531 357.480469 L 582.097656 1096.917969 L -125.808594 554.164062 Z M 441.113281 -185.269531 " clip-rule="nonzero"/></clipPath><clipPath id="d0a0d0a92b"><path d="M 3 216 L 486 216 L 486 850 L 3 850 Z M 3 216 " clip-rule="nonzero"/></clipPath><clipPath id="c35522ac6d"><path d="M 441.113281 -185.269531 L 1149.019531 357.480469 L 582.097656 1096.917969 L -125.808594 554.164062 Z M 441.113281 -185.269531 " clip-rule="nonzero"/></clipPath><clipPath id="0cf3b72764"><path d="M 441.113281 -185.269531 L 1149.019531 357.480469 L 582.097656 1096.917969 L -125.808594 554.164062 Z M 441.113281 -185.269531 " clip-rule="nonzero"/></clipPath><clipPath id="df6162f5a1"><path d="M 261 1 L 879 1 L 879 355 L 261 355 Z M 261 1 " clip-rule="nonzero"/></clipPath><clipPath id="decdbef826"><path d="M 441.113281 -185.269531 L 1149.019531 357.480469 L 582.097656 1096.917969 L -125.808594 554.164062 Z M 441.113281 -185.269531 " clip-rule="nonzero"/></clipPath><clipPath id="993692f854"><path d="M 441.113281 -185.269531 L 1149.019531 357.480469 L 582.097656 1096.917969 L -125.808594 554.164062 Z M 441.113281 -185.269531 " clip-rule="nonzero"/></clipPath><clipPath id="0d746428c5"><path d="M 318.574219 282 L 621.414062 282 L 621.414062 658 L 318.574219 658 Z M 318.574219 282 " clip-rule="nonzero"/></clipPath></defs><path fill="#ffffff" d="M 0 0 L 940 0 L 940 940 L 0 940 Z M 0 0 " fill-opacity="1" fill-rule="nonzero"/><path fill="#ffffff" d="M 0 0 L 940 0 L 940 940 L 0 940 Z M 0 0 " fill-opacity="1" fill-rule="nonzero"/><g clip-path="url(#c0600639e0)"><g clip-path="url(#0f555d6928)"><g clip-path="url(#0127dc6200)"><path fill="#ff3131" d="M 837.511719 490.769531 L 869.976562 453.445312 C 872.273438 450.816406 873.183594 447.269531 872.496094 443.855469 C 871.777344 440.441406 869.539062 437.550781 866.402344 436.039062 L 655.515625 334.640625 C 652.15625 333.027344 648.207031 333.1875 644.988281 335.089844 C 641.773438 336.988281 639.722656 340.367188 639.511719 344.101562 C 635.820312 411.601562 627.59375 508.644531 609.351562 587.660156 C 608.367188 591.878906 609.933594 596.296875 613.339844 598.953125 C 613.367188 598.976562 613.414062 599.011719 613.441406 599.035156 C 616.839844 601.640625 621.441406 602.070312 625.265625 600.144531 C 650.933594 587.203125 675.320312 574.921875 702.996094 570.960938 C 728.144531 624.082031 735.398438 684.558594 723.402344 742.171875 C 718.550781 765.488281 709.445312 790.707031 697.0625 816.011719 C 695.875 816.089844 694.6875 816.351562 693.542969 816.835938 C 661.6875 830.101562 633.996094 832.429688 596.917969 832 C 594.082031 831.960938 591.351562 833.011719 589.253906 834.921875 C 557.445312 863.921875 496.835938 890.882812 448.261719 897.667969 C 443.007812 898.402344 438.996094 902.71875 438.660156 908.023438 C 438.40625 911.84375 440.125 915.386719 443.019531 917.609375 C 444.144531 918.46875 445.425781 919.125 446.859375 919.519531 C 492.269531 931.945312 583.875 941.140625 645.136719 926.25 C 646.433594 926.304688 647.753906 926.144531 649.027344 925.738281 C 652.519531 924.613281 655.984375 923.398438 659.40625 922.148438 C 662.835938 920.976562 666.125 919.71875 669.265625 918.351562 C 737.988281 890.359375 793.257812 836.515625 826.261719 764.757812 C 865.945312 678.410156 870.09375 574.132812 837.511719 490.769531 Z M 502.394531 907.351562 C 537.359375 895.691406 574.464844 877.324219 600.953125 854.40625 C 630.328125 854.566406 655.441406 852.695312 681.542969 844.851562 C 669.453125 865.457031 655.359375 885.675781 639.8125 904.546875 C 602 913.644531 547.746094 913.089844 502.394531 907.351562 Z M 679.425781 889.367188 C 712.035156 842.910156 735.902344 791.675781 745.269531 746.734375 C 758.828125 681.636719 749.679688 613.160156 719.5 553.90625 C 718.730469 552.398438 717.640625 551.097656 716.355469 550.109375 C 714.183594 548.445312 711.441406 547.609375 708.605469 547.851562 C 681.886719 550.132812 658.363281 559.296875 636.03125 569.910156 C 649.914062 500.742188 657.125 422.351562 660.859375 362.015625 L 843.519531 449.847656 L 816.175781 481.285156 C 813.386719 484.496094 812.667969 489.015625 814.300781 492.941406 C 847.371094 571.753906 844.179688 672.332031 805.964844 755.417969 C 785.625 799.546875 747.800781 855.523438 679.425781 889.367188 Z M 679.425781 889.367188 " fill-opacity="1" fill-rule="nonzero"/></g></g></g><g clip-path="url(#d0a0d0a92b)"><g clip-path="url(#c35522ac6d)"><g clip-path="url(#0cf3b72764)"><path fill="#ff3131" d="M 14.804688 393.109375 C -6.257812 464.257812 1.304688 541.046875 36.726562 611.617188 C 79.371094 696.550781 158.203125 764.925781 243.671875 791.523438 L 252.554688 840.175781 C 253.050781 842.925781 254.566406 845.355469 256.753906 847.03125 C 257.285156 847.441406 257.867188 847.816406 258.476562 848.117188 C 261.582031 849.703125 265.253906 849.746094 268.390625 848.230469 L 479.289062 746.859375 C 482.664062 745.242188 484.992188 742.054688 485.511719 738.347656 C 486.03125 734.636719 484.664062 730.9375 481.890625 728.4375 C 431.472656 683.394531 360.8125 616.363281 310.507812 552.777344 C 307.8125 549.375 303.398438 547.84375 299.1875 548.839844 C 294.976562 549.832031 291.710938 553.171875 290.808594 557.410156 C 284.867188 585.546875 279.253906 612.242188 265.046875 636.339844 C 207.859375 622.8125 156.089844 590.703125 118.582031 545.351562 C 103.390625 526.996094 89.390625 504.148438 77.347656 478.65625 C 78.03125 477.675781 78.5625 476.582031 78.910156 475.394531 C 88.453125 442.226562 103.917969 419.144531 127.414062 390.457031 C 129.210938 388.269531 130.105469 385.480469 129.917969 382.664062 C 127.128906 339.714844 143.921875 275.542969 168.957031 233.371094 C 171.660156 228.804688 170.796875 222.980469 166.875 219.40625 C 162.9375 215.847656 157.0625 215.523438 152.769531 218.640625 C 114.707031 246.339844 50.289062 312.175781 23.671875 369.328125 C 22.832031 370.304688 22.140625 371.417969 21.667969 372.648438 C 20.363281 376.0625 19.160156 379.527344 17.996094 382.976562 C 16.789062 386.417969 15.707031 389.789062 14.804688 393.109375 Z M 268.070312 659.917969 C 272.523438 660.84375 277.082031 658.964844 279.609375 655.179688 C 294.519531 632.886719 302.042969 608.78125 307.699219 584.722656 C 353.050781 638.761719 409.765625 693.34375 454.578125 733.941406 L 271.90625 821.757812 L 264.433594 780.757812 C 263.933594 777.980469 262.390625 775.554688 260.234375 773.898438 C 259.140625 773.0625 257.871094 772.417969 256.492188 772.015625 C 174.289062 748.628906 97.722656 683.328125 56.695312 601.582031 C 34.902344 558.167969 14.816406 493.675781 31.070312 419.121094 C 46.980469 473.605469 72.105469 524.246094 101.351562 559.621094 C 143.753906 610.859375 202.945312 646.480469 268.070312 659.917969 Z M 127.601562 269.648438 C 114.886719 304.230469 106.054688 344.675781 107.410156 379.699219 C 88.933594 402.539062 74.714844 423.320312 64.546875 448.613281 C 56.007812 426.296875 49.011719 402.671875 43.976562 378.75 C 60.472656 343.523438 94.785156 301.492188 127.601562 269.648438 Z M 127.601562 269.648438 " fill-opacity="1" fill-rule="nonzero"/></g></g></g><g clip-path="url(#df6162f5a1)"><g clip-path="url(#decdbef826)"><g clip-path="url(#993692f854)"><path fill="#ff3131" d="M 643.339844 113.886719 C 667.160156 113.398438 693.753906 116.609375 721.203125 123.011719 C 721.554688 124.148438 722.070312 125.25 722.789062 126.269531 C 742.847656 154.34375 751.324219 180.816406 759.21875 217.046875 C 759.820312 219.808594 761.445312 222.25 763.785156 223.855469 C 799.148438 248.339844 839.027344 301.375 856.515625 347.191406 C 857.269531 349.175781 858.550781 350.839844 860.148438 352.0625 C 862.527344 353.886719 865.613281 354.730469 868.75 354.222656 C 873.976562 353.371094 877.898438 348.964844 878.113281 343.660156 C 880.058594 296.621094 868.484375 205.261719 840.222656 148.886719 C 839.992188 147.628906 839.550781 146.398438 838.867188 145.238281 C 836.988281 142.085938 835.023438 138.984375 833.039062 135.914062 C 831.144531 132.84375 829.179688 129.925781 827.15625 127.179688 C 784.484375 66.464844 719.613281 24.660156 642.277344 8.574219 C 549.253906 -10.769531 446.695312 8.550781 372.753906 58.988281 L 329.101562 35.730469 C 326.015625 34.089844 322.363281 33.988281 319.191406 35.429688 C 316.019531 36.871094 313.714844 39.726562 312.941406 43.125 L 261.363281 271.367188 C 260.542969 275.007812 261.589844 278.816406 264.152344 281.53125 C 264.554688 281.957031 265.003906 282.347656 265.464844 282.699219 C 267.917969 284.582031 271.0625 285.375 274.167969 284.84375 C 340.789062 273.3125 437.203125 259.582031 518.296875 259.660156 C 522.628906 259.671875 526.574219 257.160156 528.421875 253.25 C 530.269531 249.339844 529.679688 244.6875 526.90625 241.359375 C 508.546875 219.238281 491.109375 198.242188 481.050781 172.152344 C 527.183594 135.734375 584.511719 115.109375 643.339844 113.886719 Z M 853.828125 292.234375 C 834.625 260.777344 808.398438 228.75 780.148438 208.050781 C 773.730469 179.382812 766.265625 155.332031 752.777344 131.660156 C 775.5625 138.828125 798.429688 148.027344 820.300781 158.953125 C 837.648438 193.75 849.253906 246.746094 853.828125 292.234375 Z M 460.738281 159.867188 C 457.257812 162.78125 455.878906 167.519531 457.273438 171.851562 C 465.480469 197.390625 479.6875 218.253906 495.023438 237.640625 C 424.5 239.609375 346.496094 250.136719 286.859375 260.03125 L 331.527344 62.347656 L 368.308594 81.957031 C 372.050781 83.960938 376.632812 83.648438 380.078125 81.175781 C 449.46875 31.285156 548.203125 11.871094 637.75 30.492188 C 685.320312 40.375 748.320312 64.71875 796.660156 123.769531 C 744.078125 102.390625 688.804688 90.617188 642.902344 91.5625 C 576.414062 92.917969 511.714844 117.191406 460.738281 159.867188 Z M 460.738281 159.867188 " fill-opacity="1" fill-rule="nonzero"/></g></g></g><g clip-path="url(#0d746428c5)"><path fill="#ff3131" d="M 547.378906 363.5625 C 524.460938 335.699219 500.054688 309.203125 474.164062 284.078125 C 473.773438 283.707031 473.34375 283.394531 472.867188 283.140625 C 472.394531 282.886719 471.898438 282.699219 471.375 282.578125 C 470.851562 282.457031 470.320312 282.40625 469.78125 282.425781 C 469.246094 282.445312 468.71875 282.53125 468.207031 282.691406 C 467.695312 282.851562 467.210938 283.074219 466.757812 283.363281 C 466.304688 283.648438 465.894531 283.992188 465.53125 284.390625 C 465.167969 284.785156 464.863281 285.222656 464.617188 285.699219 C 464.371094 286.179688 464.191406 286.679688 464.078125 287.203125 C 463.921875 287.9375 448.710938 357.320312 409.875 418.710938 C 407.246094 411.34375 405.035156 403.851562 403.238281 396.238281 C 403.125 395.710938 402.945312 395.210938 402.699219 394.734375 C 402.453125 394.253906 402.148438 393.816406 401.785156 393.421875 C 401.421875 393.023438 401.015625 392.679688 400.5625 392.390625 C 400.109375 392.105469 399.625 391.878906 399.109375 391.722656 C 398.597656 391.5625 398.074219 391.472656 397.535156 391.453125 C 396.996094 391.433594 396.46875 391.484375 395.945312 391.605469 C 395.421875 391.726562 394.921875 391.914062 394.449219 392.167969 C 393.972656 392.421875 393.542969 392.734375 393.152344 393.105469 C 380.097656 405.742188 367.804688 419.085938 356.28125 433.132812 C 331.265625 463.75 318.574219 488.449219 318.574219 506.527344 C 318.574219 590.023438 386.503906 657.953125 470 657.953125 C 553.496094 657.953125 621.425781 590.023438 621.425781 506.527344 C 621.425781 471.800781 596.507812 423.699219 547.378906 363.5625 Z M 470 645.839844 C 393.183594 645.839844 330.6875 583.347656 330.6875 506.527344 C 330.6875 479.082031 371.332031 432.226562 394.097656 409.164062 C 396.5625 417.671875 399.464844 426.027344 402.804688 434.230469 C 403.011719 434.738281 403.28125 435.207031 403.617188 435.640625 C 403.949219 436.070312 404.335938 436.453125 404.773438 436.78125 C 405.210938 437.109375 405.683594 437.375 406.191406 437.574219 C 406.699219 437.777344 407.222656 437.90625 407.769531 437.964844 C 408.3125 438.023438 408.851562 438.007812 409.390625 437.921875 C 409.933594 437.832031 410.449219 437.675781 410.945312 437.445312 C 411.445312 437.21875 411.902344 436.929688 412.320312 436.578125 C 412.738281 436.226562 413.101562 435.824219 413.414062 435.375 C 449.210938 383.207031 467.167969 323.941406 473.371094 300.25 C 502.941406 329.664062 609.3125 440.097656 609.3125 506.527344 C 609.3125 583.347656 546.816406 645.839844 470 645.839844 Z M 470 645.839844 " fill-opacity="1" fill-rule="nonzero"/></g><path fill="#ff3131" d="M 508.007812 480.792969 C 497.433594 467.898438 486.152344 455.652344 474.164062 444.058594 C 473.746094 443.660156 473.28125 443.332031 472.765625 443.066406 C 472.253906 442.804688 471.714844 442.617188 471.148438 442.507812 C 470.582031 442.398438 470.011719 442.371094 469.4375 442.421875 C 468.863281 442.476562 468.308594 442.609375 467.769531 442.820312 C 467.234375 443.03125 466.738281 443.316406 466.28125 443.667969 C 465.828125 444.023438 465.429688 444.433594 465.09375 444.902344 C 464.753906 445.367188 464.488281 445.871094 464.292969 446.414062 C 464.097656 446.957031 463.984375 447.519531 463.949219 448.09375 C 463.929688 448.546875 461.429688 487.980469 447.832031 516.710938 C 445.136719 507.324219 442.605469 497.125 442.570312 496.964844 C 442.503906 496.710938 442.425781 496.460938 442.328125 496.214844 C 442.234375 495.96875 442.121094 495.730469 441.996094 495.5 C 441.867188 495.269531 441.726562 495.046875 441.570312 494.835938 C 441.414062 494.621094 441.242188 494.421875 441.0625 494.230469 C 440.878906 494.039062 440.683594 493.863281 440.480469 493.699219 C 440.273438 493.53125 440.058594 493.382812 439.832031 493.246094 C 439.605469 493.109375 439.371094 492.988281 439.132812 492.878906 C 438.890625 492.773438 438.644531 492.683594 438.390625 492.609375 C 438.136719 492.535156 437.878906 492.480469 437.621094 492.4375 C 437.359375 492.398438 437.097656 492.375 436.832031 492.367188 C 436.570312 492.363281 436.308594 492.375 436.042969 492.402344 C 435.78125 492.429688 435.523438 492.472656 435.265625 492.535156 C 435.011719 492.597656 434.757812 492.675781 434.511719 492.773438 C 434.265625 492.867188 434.027344 492.976562 433.796875 493.101562 C 433.566406 493.230469 433.34375 493.371094 433.128906 493.523438 C 432.914062 493.679688 432.714844 493.847656 432.523438 494.027344 C 428.917969 497.445312 397.316406 527.976562 397.316406 548.398438 C 397.316406 549.585938 397.34375 550.777344 397.402344 551.964844 C 397.460938 553.152344 397.550781 554.339844 397.664062 555.523438 C 397.78125 556.707031 397.929688 557.886719 398.101562 559.0625 C 398.277344 560.238281 398.480469 561.410156 398.710938 562.578125 C 398.945312 563.746094 399.203125 564.90625 399.492188 566.058594 C 399.78125 567.214844 400.101562 568.359375 400.445312 569.496094 C 400.789062 570.636719 401.164062 571.765625 401.566406 572.886719 C 401.964844 574.003906 402.394531 575.113281 402.847656 576.214844 C 403.304688 577.3125 403.785156 578.398438 404.292969 579.476562 C 404.804688 580.550781 405.335938 581.613281 405.898438 582.660156 C 406.457031 583.710938 407.046875 584.746094 407.65625 585.765625 C 408.269531 586.785156 408.90625 587.789062 409.566406 588.78125 C 410.226562 589.769531 410.910156 590.742188 411.621094 591.695312 C 412.328125 592.652344 413.058594 593.589844 413.8125 594.507812 C 414.570312 595.429688 415.34375 596.328125 416.144531 597.210938 C 416.945312 598.089844 417.761719 598.953125 418.605469 599.792969 C 419.445312 600.636719 420.308594 601.453125 421.1875 602.253906 C 422.070312 603.050781 422.96875 603.828125 423.890625 604.582031 C 424.808594 605.339844 425.746094 606.070312 426.703125 606.777344 C 427.65625 607.488281 428.628906 608.171875 429.617188 608.832031 C 430.609375 609.492188 431.613281 610.128906 432.632812 610.742188 C 433.652344 611.351562 434.6875 611.9375 435.738281 612.5 C 436.785156 613.0625 437.847656 613.59375 438.921875 614.105469 C 440 614.613281 441.085938 615.09375 442.183594 615.550781 C 443.285156 616.003906 444.394531 616.433594 445.511719 616.832031 C 446.632812 617.234375 447.761719 617.605469 448.902344 617.953125 C 450.039062 618.296875 451.183594 618.613281 452.339844 618.902344 C 453.492188 619.191406 454.652344 619.453125 455.820312 619.6875 C 456.988281 619.917969 458.160156 620.121094 459.335938 620.296875 C 460.511719 620.46875 461.691406 620.617188 462.875 620.734375 C 464.058594 620.847656 465.246094 620.9375 466.433594 620.996094 C 467.621094 621.054688 468.808594 621.082031 470 621.082031 C 471.191406 621.082031 472.378906 621.054688 473.566406 620.996094 C 474.753906 620.9375 475.941406 620.847656 477.125 620.730469 C 478.308594 620.617188 479.488281 620.46875 480.664062 620.296875 C 481.839844 620.121094 483.011719 619.917969 484.179688 619.6875 C 485.347656 619.453125 486.507812 619.191406 487.660156 618.902344 C 488.816406 618.613281 489.960938 618.296875 491.097656 617.953125 C 492.238281 617.605469 493.367188 617.234375 494.488281 616.832031 C 495.605469 616.433594 496.714844 616.003906 497.816406 615.550781 C 498.914062 615.09375 500 614.613281 501.078125 614.105469 C 502.152344 613.59375 503.214844 613.0625 504.261719 612.5 C 505.3125 611.9375 506.347656 611.351562 507.367188 610.742188 C 508.386719 610.128906 509.390625 609.492188 510.382812 608.832031 C 511.371094 608.171875 512.34375 607.488281 513.296875 606.777344 C 514.253906 606.070312 515.191406 605.339844 516.109375 604.582031 C 517.03125 603.828125 517.929688 603.050781 518.8125 602.253906 C 519.691406 601.453125 520.554688 600.636719 521.394531 599.792969 C 522.238281 598.953125 523.054688 598.089844 523.855469 597.210938 C 524.652344 596.328125 525.429688 595.429688 526.1875 594.507812 C 526.941406 593.589844 527.671875 592.652344 528.378906 591.695312 C 529.089844 590.742188 529.773438 589.769531 530.433594 588.78125 C 531.09375 587.789062 531.730469 586.785156 532.34375 585.765625 C 532.953125 584.746094 533.539062 583.710938 534.101562 582.660156 C 534.664062 581.613281 535.195312 580.550781 535.707031 579.476562 C 536.214844 578.398438 536.695312 577.3125 537.152344 576.214844 C 537.605469 575.113281 538.035156 574.003906 538.433594 572.882812 C 538.835938 571.765625 539.210938 570.636719 539.554688 569.496094 C 539.898438 568.359375 540.21875 567.214844 540.507812 566.058594 C 540.792969 564.90625 541.054688 563.746094 541.289062 562.578125 C 541.519531 561.410156 541.722656 560.238281 541.898438 559.0625 C 542.070312 557.886719 542.21875 556.707031 542.335938 555.523438 C 542.449219 554.339844 542.539062 553.152344 542.597656 551.964844 C 542.65625 550.777344 542.683594 549.585938 542.683594 548.398438 C 542.683594 531.703125 531.015625 508.960938 508.007812 480.792969 Z M 470 608.96875 C 468.015625 608.964844 466.039062 608.867188 464.066406 608.671875 C 462.09375 608.472656 460.132812 608.179688 458.1875 607.792969 C 456.242188 607.402344 454.324219 606.921875 452.425781 606.34375 C 450.527344 605.765625 448.664062 605.097656 446.832031 604.339844 C 445 603.578125 443.210938 602.730469 441.460938 601.796875 C 439.710938 600.859375 438.015625 599.839844 436.367188 598.738281 C 434.71875 597.636719 433.125 596.457031 431.59375 595.199219 C 430.0625 593.941406 428.59375 592.609375 427.191406 591.207031 C 425.789062 589.804688 424.457031 588.335938 423.199219 586.804688 C 421.941406 585.273438 420.761719 583.679688 419.660156 582.03125 C 418.558594 580.382812 417.539062 578.683594 416.601562 576.9375 C 415.667969 575.1875 414.820312 573.398438 414.058594 571.566406 C 413.300781 569.734375 412.628906 567.871094 412.054688 565.972656 C 411.476562 564.074219 410.992188 562.15625 410.605469 560.210938 C 410.214844 558.265625 409.925781 556.304688 409.726562 554.332031 C 409.53125 552.359375 409.433594 550.382812 409.429688 548.398438 C 409.429688 544.914062 411.40625 536.664062 424.640625 520.4375 C 427.730469 516.652344 430.839844 513.167969 433.507812 510.324219 C 435.609375 518.21875 438.535156 528.570312 440.707031 533.90625 C 440.914062 534.414062 441.183594 534.882812 441.515625 535.316406 C 441.847656 535.75 442.234375 536.132812 442.671875 536.460938 C 443.109375 536.792969 443.582031 537.058594 444.089844 537.257812 C 444.597656 537.460938 445.125 537.589844 445.667969 537.648438 C 446.210938 537.707031 446.753906 537.691406 447.292969 537.605469 C 447.835938 537.515625 448.351562 537.355469 448.851562 537.128906 C 449.347656 536.898438 449.804688 536.609375 450.222656 536.257812 C 450.640625 535.902344 451.003906 535.5 451.3125 535.050781 C 466.410156 513.046875 472.476562 479.921875 474.761719 461.773438 C 481.046875 468.25 489.859375 477.734375 498.621094 488.457031 C 519.523438 514.039062 530.570312 534.761719 530.570312 548.398438 C 530.566406 550.382812 530.46875 552.359375 530.273438 554.332031 C 530.074219 556.304688 529.78125 558.265625 529.394531 560.210938 C 529.007812 562.15625 528.523438 564.074219 527.945312 565.972656 C 527.371094 567.871094 526.699219 569.734375 525.941406 571.566406 C 525.179688 573.398438 524.332031 575.1875 523.398438 576.9375 C 522.460938 578.683594 521.441406 580.382812 520.339844 582.03125 C 519.238281 583.679688 518.058594 585.273438 516.800781 586.804688 C 515.542969 588.335938 514.210938 589.804688 512.808594 591.207031 C 511.40625 592.609375 509.9375 593.941406 508.40625 595.199219 C 506.875 596.457031 505.28125 597.636719 503.632812 598.738281 C 501.984375 599.839844 500.289062 600.859375 498.539062 601.796875 C 496.789062 602.730469 495 603.578125 493.167969 604.339844 C 491.335938 605.097656 489.472656 605.765625 487.574219 606.34375 C 485.675781 606.921875 483.757812 607.402344 481.8125 607.792969 C 479.867188 608.179688 477.90625 608.472656 475.933594 608.671875 C 473.960938 608.867188 471.984375 608.964844 470 608.96875 Z M 470 608.96875 " fill-opacity="1" fill-rule="nonzero"/></svg>