<svg xmlns="http://www.w3.org/2000/svg" xmlns:xlink="http://www.w3.org/1999/xlink" width="1254" zoomAndPan="magnify" viewBox="0 0 940.5 940.499971" height="1254" preserveAspectRatio="xMidYMid meet" version="1.0"><path fill="#9cbacb" d="M 628.890625 534.890625 C 647.671875 553.671875 677.679688 555.347656 699 538.566406 C 711.292969 528.304688 718.335938 513.453125 718.335938 497.808594 C 718.335938 484.472656 713.292969 471.742188 704.15625 461.984375 L 595.890625 346.269531 C 587.777344 337.472656 576.214844 332.414062 564.164062 332.414062 L 389.171875 332.414062 C 377.15625 332.414062 365.917969 337.292969 357.507812 346.207031 L 249.179688 462 C 239.324219 472.570312 234.234375 486.914062 235.242188 501.355469 C 236.253906 515.878906 243.308594 529.472656 254.710938 538.726562 C 263.933594 546.109375 275.59375 550.175781 287.546875 550.175781 C 301.628906 550.175781 314.800781 544.746094 324.640625 534.90625 L 383.171875 476.261719 L 383.171875 504.136719 C 382.570312 504.039062 381.984375 503.875 381.367188 503.875 C 375.542969 503.875 370.683594 508.007812 369.460938 513.472656 C 368.46875 515.960938 365.769531 521.050781 363.6875 525.082031 C 361.933594 528.5 360.519531 531.328125 360.0625 532.449219 C 356.628906 541.425781 354.175781 550.078125 352.582031 558.84375 C 349.132812 577.285156 349.296875 596.101562 352.988281 613.277344 C 357.460938 634.011719 367.769531 652.355469 383.171875 667.773438 L 383.171875 773.824219 C 383.171875 802.609375 406.65625 826.027344 436.515625 826.027344 C 452.761719 826.027344 467.105469 818.46875 476.714844 806.855469 C 486.441406 818.46875 501.03125 826.027344 517.828125 826.027344 C 546.695312 826.027344 570.195312 802.609375 570.195312 773.824219 L 570.195312 676.183594 C 576.359375 670.457031 582.214844 664.082031 587.140625 656.164062 C 611.554688 616.953125 601.421875 573.464844 597.617188 560.617188 C 591.207031 540.839844 580.734375 527.539062 570.195312 516.445312 L 570.195312 476.246094 L 628.90625 534.9375 Z M 307.355469 517.652344 C 297.675781 527.34375 280.585938 528.15625 270.015625 519.730469 C 263.816406 514.691406 260.125 507.582031 259.558594 499.679688 C 259.019531 491.859375 261.671875 484.394531 267.003906 478.667969 L 375.269531 362.925781 C 378.992188 359.003906 383.921875 356.824219 389.15625 356.824219 L 564.144531 356.824219 C 569.398438 356.824219 574.441406 359.019531 578.019531 362.890625 L 686.347656 478.667969 C 691.324219 483.96875 693.941406 490.589844 693.941406 497.824219 C 693.941406 506.085938 689.988281 514.316406 683.628906 519.632812 C 672.277344 528.546875 656.195312 527.734375 646.128906 517.667969 L 566.585938 438.140625 C 563.089844 434.644531 557.835938 433.636719 553.300781 435.488281 C 548.746094 437.375 545.769531 441.832031 545.769531 446.761719 L 545.769531 490.328125 C 540.453125 483.304688 536.417969 475.644531 534.582031 465.429688 C 532.15625 451.835938 534.15625 437.117188 540.5 421.699219 C 542.191406 417.550781 541.507812 412.820312 538.695312 409.355469 C 535.882812 405.875 531.394531 404.214844 526.984375 405.046875 C 518.871094 406.558594 446.859375 421.746094 418.773438 487.792969 C 412.980469 501.4375 409.597656 516.171875 408.703125 531.410156 C 408.296875 530.984375 407.941406 530.5 407.535156 530.058594 L 407.535156 446.777344 C 407.535156 441.832031 404.558594 437.394531 400.003906 435.507812 C 395.46875 433.652344 390.179688 434.660156 386.699219 438.15625 L 307.335938 517.683594 Z M 435.523438 801.601562 C 420.089844 801.601562 407.535156 789.128906 407.535156 773.792969 L 407.535156 687.046875 C 411.503906 689.519531 415.617188 691.875 419.976562 694.085938 C 434.238281 701.242188 449.3125 705.828125 464.453125 707.796875 L 464.453125 773.792969 C 464.453125 789.128906 451.914062 801.601562 435.523438 801.601562 Z M 545.785156 773.792969 C 545.785156 789.128906 533.246094 801.601562 516.855469 801.601562 C 501.421875 801.601562 488.863281 789.128906 488.863281 773.792969 L 488.863281 708.707031 C 489.175781 708.691406 489.484375 708.707031 489.808594 708.675781 C 499.320312 708.121094 522.644531 705.359375 545.785156 693.453125 Z M 566.390625 643.234375 C 544.582031 678.394531 501.160156 683.550781 488.230469 684.3125 C 469.039062 685.613281 449.25 681.46875 430.96875 672.296875 C 410.296875 661.789062 384.132812 642.144531 376.796875 608.105469 C 373.753906 594.070312 373.660156 578.589844 376.519531 563.253906 C 377.855469 555.917969 379.902344 548.679688 382.636719 541.492188 C 382.8125 541.117188 383.089844 540.515625 383.480469 539.785156 C 384.359375 540.824219 385.320312 541.769531 386.214844 542.777344 C 386.523438 543.132812 386.816406 543.492188 387.15625 543.816406 C 392.003906 549.25 397.109375 554.390625 402.605469 559.023438 C 406.914062 562.699219 411.078125 565.855469 415.144531 568.652344 C 419.128906 571.414062 424.382812 571.5625 428.496094 568.976562 C 432.628906 566.421875 434.839844 561.675781 434.140625 556.875 C 431.097656 535.980469 433.554688 515.375 441.246094 497.320312 C 456.664062 461.070312 489.515625 443.199219 511.0625 435.066406 C 508.738281 446.921875 508.59375 458.503906 510.59375 469.707031 C 515.308594 496.039062 530.011719 510.675781 544.242188 524.824219 C 556.453125 536.972656 568 548.4375 574.34375 567.984375 C 577.304688 577.90625 585.449219 612.675781 566.40625 643.25 Z M 566.390625 643.234375 " fill-opacity="1" fill-rule="nonzero"/><path fill="#9cbacb" d="M 476.714844 309.761719 C 530.710938 309.761719 574.636719 265.835938 574.636719 211.839844 C 574.636719 157.847656 530.710938 113.921875 476.714844 113.921875 C 422.722656 113.921875 378.796875 157.847656 378.796875 211.839844 C 378.796875 265.835938 422.722656 309.761719 476.714844 309.761719 Z M 476.714844 138.316406 C 517.261719 138.316406 550.242188 171.296875 550.242188 211.839844 C 550.242188 252.386719 517.261719 285.367188 476.714844 285.367188 C 436.171875 285.367188 403.191406 252.386719 403.191406 211.839844 C 403.191406 171.296875 436.171875 138.316406 476.714844 138.316406 Z M 476.714844 138.316406 " fill-opacity="1" fill-rule="nonzero"/><path fill="#9cbacb" d="M 469.675781 939.609375 C 537.425781 939.609375 602.753906 925.476562 663.820312 897.617188 C 669.839844 894.871094 672.570312 887.828125 669.984375 881.746094 L 646.679688 826.941406 C 646.453125 826.417969 646.03125 826.046875 645.738281 825.558594 L 641.738281 816.171875 C 639.070312 809.960938 631.882812 807.132812 625.734375 809.734375 C 619.652344 812.320312 616.804688 819.28125 619.214844 825.425781 C 571.984375 845.464844 521.765625 855.742188 469.675781 855.742188 C 256.988281 855.742188 83.949219 682.703125 83.949219 470.015625 C 83.949219 384.894531 110.832031 304.832031 161.847656 237.601562 L 162.027344 237.78125 C 170.828125 246.613281 183.707031 249.863281 195.691406 246.449219 C 207.742188 242.921875 216.558594 233.488281 219.257812 221.242188 L 238.855469 133.617188 C 241.425781 122.25 238.058594 110.507812 229.859375 102.210938 C 221.597656 93.886719 209.875 90.324219 198.230469 92.894531 L 110.589844 112.507812 C 98.292969 115.335938 88.859375 124.265625 85.378906 136.382812 C 81.917969 148.433594 85.121094 160.890625 93.953125 169.71875 L 102.082031 177.851562 C 36.183594 260.5 0.0507812 363.804688 0.0507812 470.015625 C 0.0507812 728.957031 210.71875 939.625 469.660156 939.625 Z M 127.875 184.84375 C 131.925781 180 131.601562 172.859375 127.144531 168.386719 L 111.222656 152.464844 C 107.675781 148.921875 108.375 144.742188 108.847656 143.113281 C 109.335938 141.4375 110.996094 137.4375 115.988281 136.300781 L 203.546875 116.703125 C 204.3125 116.539062 205.027344 116.460938 205.695312 116.460938 C 209.222656 116.460938 211.582031 118.410156 212.539062 119.371094 C 213.648438 120.492188 216.136719 123.632812 215.078125 128.25 L 195.449219 215.972656 C 194.359375 220.933594 190.472656 222.542969 188.863281 223.03125 C 187.203125 223.519531 182.976562 224.21875 179.28125 220.542969 L 169.394531 210.65625 C 166.972656 208.230469 163.574219 206.882812 160.15625 207.09375 C 156.710938 207.273438 153.488281 208.898438 151.3125 211.566406 C 92.144531 284.277344 59.570312 376.050781 59.570312 470.03125 C 59.570312 696.167969 243.539062 880.152344 469.691406 880.152344 C 525.066406 880.152344 578.523438 869.355469 628.757812 848.03125 L 641.898438 878.949219 C 642.109375 879.453125 642.453125 879.828125 642.730469 880.28125 C 588.019531 903.488281 529.863281 915.246094 469.675781 915.246094 C 224.183594 915.246094 24.460938 715.523438 24.460938 470.03125 C 24.460938 365.804688 61.199219 264.515625 127.875 184.878906 Z M 127.875 184.84375 " fill-opacity="1" fill-rule="nonzero"/><path fill="#9cbacb" d="M 469.675781 0.390625 C 401.921875 0.390625 336.59375 14.523438 275.527344 42.382812 C 269.511719 45.128906 266.777344 52.171875 269.363281 58.253906 L 292.667969 113.058594 C 293.953125 116.117188 296.425781 118.492188 299.515625 119.679688 C 302.589844 120.851562 306.003906 120.738281 309.011719 119.355469 C 359.445312 96.066406 413.484375 84.273438 469.675781 84.273438 C 682.363281 84.273438 855.398438 257.3125 855.398438 470 C 855.398438 555.105469 828.515625 635.167969 777.5 702.414062 L 777.320312 702.234375 C 768.492188 693.40625 755.609375 690.070312 743.640625 693.582031 C 731.589844 697.113281 722.792969 706.527344 720.09375 718.773438 L 700.496094 806.398438 C 697.925781 817.765625 701.292969 829.507812 709.488281 837.804688 C 715.976562 844.359375 724.644531 847.917969 733.71875 847.917969 C 736.160156 847.917969 738.648438 847.660156 741.121094 847.121094 L 828.761719 827.507812 C 840.957031 824.710938 850.667969 815.492188 854.082031 803.457031 C 857.480469 791.421875 854.230469 778.996094 845.398438 770.296875 L 837.265625 762.164062 C 903.148438 679.5 939.300781 576.195312 939.300781 470 C 939.300781 211.0625 728.628906 0.390625 469.691406 0.390625 Z M 812.207031 771.613281 L 828.191406 787.601562 C 831.722656 791.082031 831.039062 795.195312 830.582031 796.789062 C 829.574219 800.316406 826.859375 802.902344 823.363281 803.699219 L 735.800781 823.296875 C 730.988281 824.304688 727.945312 821.753906 726.808594 820.628906 C 725.703125 819.507812 723.214844 816.367188 724.273438 811.75 L 743.902344 724.027344 C 744.992188 719.066406 748.878906 717.457031 750.472656 716.96875 C 751.089844 716.773438 752.097656 716.578125 753.285156 716.578125 C 755.238281 716.578125 757.757812 717.164062 760.066406 719.472656 L 769.953125 729.347656 C 772.394531 731.800781 775.484375 733.136719 779.207031 732.90625 C 782.65625 732.726562 785.859375 731.101562 788.039062 728.433594 C 847.203125 655.722656 879.777344 563.953125 879.777344 469.984375 C 879.777344 243.847656 695.8125 59.863281 469.660156 59.863281 C 414.167969 59.863281 360.597656 70.695312 310.265625 92.097656 L 296.507812 59.765625 C 351.230469 36.527344 409.421875 24.769531 469.640625 24.769531 C 715.132812 24.769531 914.859375 224.492188 914.859375 469.984375 C 914.859375 574.195312 878.121094 675.484375 811.441406 755.140625 C 807.390625 759.984375 807.71875 767.125 812.171875 771.597656 Z M 812.207031 771.613281 " fill-opacity="1" fill-rule="nonzero"/></svg>