<svg xmlns="http://www.w3.org/2000/svg" xmlns:xlink="http://www.w3.org/1999/xlink" width="1254" zoomAndPan="magnify" viewBox="0 0 940.5 940.499971" height="1254" preserveAspectRatio="xMidYMid meet" version="1.0"><defs><clipPath id="74b3366795"><path d="M 2 128.445312 L 937 128.445312 L 937 819.578125 L 2 819.578125 Z M 2 128.445312 " clip-rule="nonzero"/></clipPath></defs><g clip-path="url(#74b3366795)"><path fill="#737373" d="M 348.023438 240.605469 C 366.394531 206.996094 385.535156 180.929688 408.800781 162.320312 C 437.007812 139.753906 470.570312 128.46875 515.042969 128.46875 C 564.28125 128.46875 608.886719 148.449219 641.175781 180.742188 C 673.46875 213.035156 693.449219 257.636719 693.449219 306.878906 C 693.449219 329.316406 690.519531 351.835938 685.050781 374.410156 C 680.929688 391.40625 675.386719 408.339844 668.578125 425.214844 L 717.617188 425.214844 L 717.617188 328.546875 C 717.617188 315.675781 722.875 303.980469 731.34375 295.507812 C 739.816406 287.039062 751.511719 281.78125 764.382812 281.78125 C 777.257812 281.78125 788.953125 287.039062 797.425781 295.507812 C 805.894531 303.980469 811.152344 315.675781 811.152344 328.546875 L 811.152344 345.335938 L 835.140625 345.335938 C 848.015625 345.335938 859.710938 350.59375 868.179688 359.066406 C 876.652344 367.535156 881.910156 379.230469 881.910156 392.105469 L 881.910156 425.214844 L 888.785156 425.214844 C 915.171875 425.214844 936.695312 446.738281 936.695312 473.125 L 936.695312 474.664062 C 936.695312 487.863281 931.316406 499.84375 922.640625 508.519531 C 913.964844 517.195312 901.984375 522.574219 888.785156 522.574219 L 881.910156 522.574219 L 881.910156 555.6875 C 881.910156 568.558594 876.652344 580.253906 868.179688 588.726562 C 859.710938 597.195312 848.015625 602.453125 835.140625 602.453125 L 811.152344 602.453125 L 811.152344 619.242188 C 811.152344 632.113281 805.894531 643.808594 797.425781 652.28125 C 788.953125 660.75 777.257812 666.011719 764.386719 666.011719 C 751.511719 666.011719 739.816406 660.75 731.34375 652.28125 C 722.875 643.808594 717.613281 632.113281 717.613281 619.242188 L 717.613281 522.574219 L 616.175781 522.574219 C 584.203125 570.933594 544.34375 619.117188 500.46875 667.210938 C 454.890625 717.167969 405.484375 766.574219 356.078125 815.984375 C 351.628906 820.429688 344.417969 820.429688 339.96875 815.984375 C 171.28125 647.296875 2.597656 478.609375 2.597656 306.878906 C 2.597656 257.636719 22.578125 213.035156 54.871094 180.742188 C 87.160156 148.449219 131.765625 128.46875 181.003906 128.46875 C 225.476562 128.46875 259.039062 139.753906 287.246094 162.320312 C 310.511719 180.929688 329.648438 206.996094 348.023438 240.605469 Z M 740.398438 436.605469 L 740.398438 619.242188 C 740.398438 625.824219 743.101562 631.820312 747.453125 636.171875 C 751.804688 640.523438 757.800781 643.226562 764.382812 643.226562 C 770.96875 643.226562 776.964844 640.523438 781.316406 636.171875 C 785.667969 631.820312 788.371094 625.824219 788.371094 619.242188 L 788.371094 328.550781 C 788.371094 321.964844 785.667969 315.96875 781.316406 311.617188 C 776.964844 307.265625 770.96875 304.5625 764.382812 304.5625 C 757.800781 304.5625 751.804688 307.265625 747.453125 311.617188 C 743.101562 315.96875 740.398438 321.964844 740.398438 328.550781 Z M 811.152344 579.671875 L 835.140625 579.671875 C 841.726562 579.671875 847.71875 576.96875 852.074219 572.617188 C 856.425781 568.265625 859.128906 562.269531 859.128906 555.6875 L 859.128906 392.105469 C 859.128906 385.519531 856.425781 379.523438 852.074219 375.171875 C 847.71875 370.820312 841.726562 368.117188 835.140625 368.117188 L 811.152344 368.117188 Z M 368.628906 579.671875 L 368.628906 368.117188 L 344.644531 368.117188 C 338.058594 368.117188 332.0625 370.820312 327.710938 375.171875 C 323.359375 379.527344 320.65625 385.519531 320.65625 392.105469 L 320.65625 555.6875 C 320.65625 562.269531 323.359375 568.265625 327.710938 572.617188 C 332.0625 576.96875 338.058594 579.671875 344.644531 579.671875 Z M 391.414062 356.726562 L 391.414062 619.242188 C 391.414062 625.824219 394.113281 631.820312 398.46875 636.171875 C 402.820312 640.523438 408.8125 643.226562 415.398438 643.226562 C 421.984375 643.226562 427.980469 640.523438 432.332031 636.171875 C 436.683594 631.820312 439.386719 625.824219 439.386719 619.242188 L 439.386719 328.546875 C 439.386719 321.964844 436.683594 315.96875 432.332031 311.617188 C 427.976562 307.265625 421.984375 304.5625 415.398438 304.5625 C 408.8125 304.5625 402.820312 307.265625 398.46875 311.617188 C 394.113281 315.96875 391.414062 321.964844 391.414062 328.546875 Z M 297.875 499.792969 L 297.875 448 L 291 448 C 290.785156 448 290.570312 448 290.355469 448.007812 L 290.03125 448.015625 L 290.03125 448.019531 C 289.070312 448.054688 288.117188 448.144531 287.1875 448.289062 C 286.769531 448.355469 286.359375 448.425781 285.953125 448.511719 L 285.949219 448.511719 L 285.644531 448.574219 L 285.644531 448.578125 L 285.34375 448.644531 C 285.140625 448.691406 284.9375 448.742188 284.738281 448.792969 L 284.4375 448.871094 L 283.84375 449.042969 L 283.546875 449.132812 L 283.253906 449.226562 L 282.960938 449.324219 L 282.382812 449.527344 L 282.09375 449.636719 L 281.808594 449.746094 L 281.523438 449.863281 L 281.242188 449.980469 L 280.960938 450.101562 L 280.683594 450.226562 L 280.128906 450.484375 L 279.855469 450.617188 L 279.855469 450.621094 L 279.585938 450.757812 L 279.316406 450.898438 L 279.046875 451.042969 L 278.78125 451.1875 L 278.515625 451.339844 L 278.253906 451.492188 L 277.996094 451.648438 L 277.480469 451.96875 L 277.226562 452.132812 L 277.226562 452.136719 L 276.976562 452.304688 L 276.972656 452.304688 L 276.726562 452.472656 L 276.476562 452.648438 L 276.234375 452.824219 L 275.988281 453.003906 L 275.75 453.1875 L 275.511719 453.375 L 275.507812 453.375 L 275.273438 453.5625 L 275.039062 453.753906 L 274.808594 453.945312 L 274.578125 454.144531 L 274.125 454.542969 L 273.90625 454.75 L 273.902344 454.75 L 273.683594 454.957031 L 273.46875 455.164062 L 273.039062 455.59375 L 272.832031 455.808594 L 272.625 456.03125 L 272.417969 456.25 L 272.019531 456.703125 L 272.015625 456.703125 L 271.820312 456.933594 L 271.628906 457.164062 L 271.4375 457.398438 L 271.0625 457.875 L 270.878906 458.113281 L 270.699219 458.359375 L 270.347656 458.851562 L 270.179688 459.101562 L 270.175781 459.101562 L 270.011719 459.351562 L 269.84375 459.605469 L 269.523438 460.121094 L 269.367188 460.378906 L 269.214844 460.640625 L 269.210938 460.640625 L 269.0625 460.90625 L 268.917969 461.171875 L 268.914062 461.171875 L 268.632812 461.710938 L 268.496094 461.980469 L 268.359375 462.253906 L 268.101562 462.808594 L 267.976562 463.085938 L 267.855469 463.367188 L 267.738281 463.652344 L 267.621094 463.933594 L 267.511719 464.21875 L 267.402344 464.507812 L 267.199219 465.085938 L 267.101562 465.378906 L 267.007812 465.675781 L 266.917969 465.96875 L 266.832031 466.265625 L 266.828125 466.265625 L 266.746094 466.566406 L 266.667969 466.863281 L 266.589844 467.164062 L 266.449219 467.773438 L 266.324219 468.382812 L 266.265625 468.691406 L 266.214844 469 L 266.164062 469.3125 L 266.117188 469.621094 L 266.078125 469.9375 L 266.039062 470.25 L 266.003906 470.566406 L 265.972656 470.882812 L 265.945312 471.199219 L 265.925781 471.519531 L 265.90625 471.835938 L 265.890625 472.160156 L 265.875 472.800781 L 265.875 474.664062 C 265.875 474.878906 265.875 475.09375 265.882812 475.308594 L 265.882812 475.316406 C 265.886719 475.523438 265.894531 475.734375 265.90625 475.945312 L 265.90625 475.964844 C 265.917969 476.167969 265.929688 476.371094 265.945312 476.574219 L 265.945312 476.59375 L 265.949219 476.617188 C 265.964844 476.8125 265.980469 477.003906 266 477.195312 L 266.003906 477.226562 L 266.007812 477.261719 C 266.027344 477.441406 266.046875 477.621094 266.070312 477.796875 L 266.078125 477.855469 L 266.085938 477.921875 C 266.105469 478.085938 266.128906 478.246094 266.152344 478.410156 L 266.164062 478.480469 L 266.179688 478.566406 L 266.25 479 L 266.292969 479.230469 L 266.351562 479.535156 L 266.433594 479.933594 L 266.46875 480.105469 L 266.578125 480.570312 L 266.605469 480.675781 C 267.722656 485.183594 270.0625 489.222656 273.253906 492.414062 C 276.300781 495.460938 280.125 497.734375 284.390625 498.90625 L 284.527344 498.941406 L 284.867188 499.03125 L 285.167969 499.105469 L 285.488281 499.179688 L 285.878906 499.265625 L 285.949219 499.28125 L 285.953125 499.28125 L 285.992188 499.289062 C 286.171875 499.324219 286.347656 499.359375 286.527344 499.390625 L 286.5625 499.398438 L 286.566406 499.398438 L 286.582031 499.402344 C 286.78125 499.4375 286.984375 499.46875 287.183594 499.5 L 287.1875 499.5 C 287.394531 499.535156 287.601562 499.5625 287.808594 499.589844 L 287.8125 499.589844 C 288.019531 499.617188 288.226562 499.640625 288.4375 499.660156 L 288.441406 499.660156 C 288.652344 499.683594 288.863281 499.703125 289.074219 499.71875 C 289.285156 499.734375 289.5 499.746094 289.710938 499.757812 L 289.714844 499.757812 C 289.925781 499.769531 290.140625 499.777344 290.355469 499.78125 L 290.355469 499.785156 C 290.570312 499.789062 290.785156 499.792969 291 499.792969 Z M 297.875 522.574219 L 291 522.574219 C 290.589844 522.574219 290.175781 522.570312 289.765625 522.558594 C 277.054688 522.234375 265.546875 516.925781 257.144531 508.519531 C 249.824219 501.199219 244.851562 491.527344 243.476562 480.753906 C 243.425781 480.355469 243.378906 479.953125 243.335938 479.554688 L 243.335938 479.550781 C 243.296875 479.152344 243.261719 478.746094 243.230469 478.34375 C 243.199219 477.9375 243.171875 477.53125 243.152344 477.125 C 243.132812 476.71875 243.117188 476.308594 243.105469 475.898438 C 243.09375 475.488281 243.089844 475.078125 243.089844 474.664062 L 243.089844 473.125 L 243.09375 472.507812 L 243.105469 471.890625 L 243.125 471.277344 L 243.152344 470.664062 L 243.1875 470.054688 L 243.230469 469.449219 L 243.28125 468.839844 L 243.335938 468.238281 L 243.402344 467.636719 L 243.476562 467.035156 L 243.554688 466.4375 L 243.644531 465.84375 L 243.738281 465.25 L 243.839844 464.660156 L 243.949219 464.074219 L 244.066406 463.488281 L 244.191406 462.90625 L 244.320312 462.324219 L 244.457031 461.746094 L 244.601562 461.171875 L 244.753906 460.601562 L 244.914062 460.03125 L 245.078125 459.464844 L 245.25 458.902344 L 245.429688 458.339844 L 245.613281 457.78125 L 245.804688 457.226562 L 246.003906 456.675781 L 246.210938 456.128906 L 246.421875 455.582031 L 246.640625 455.039062 L 246.863281 454.5 L 247.09375 453.964844 L 247.332031 453.433594 L 247.574219 452.90625 L 247.824219 452.378906 L 248.082031 451.859375 L 248.34375 451.339844 L 248.609375 450.824219 L 248.613281 450.824219 L 248.886719 450.3125 L 249.164062 449.808594 L 249.449219 449.304688 L 249.742188 448.804688 L 250.039062 448.308594 L 250.34375 447.816406 L 250.652344 447.328125 L 250.96875 446.84375 L 251.289062 446.363281 L 251.613281 445.886719 L 251.945312 445.417969 L 252.28125 444.949219 L 252.285156 444.949219 L 252.625 444.484375 L 252.972656 444.027344 L 253.328125 443.570312 L 253.683594 443.121094 L 253.6875 443.121094 L 254.050781 442.675781 L 254.417969 442.234375 L 254.792969 441.796875 L 255.171875 441.363281 L 255.554688 440.933594 L 255.558594 440.933594 L 255.945312 440.511719 L 256.339844 440.09375 L 256.738281 439.679688 L 257.144531 439.269531 L 257.550781 438.867188 L 257.554688 438.867188 L 257.964844 438.46875 L 257.96875 438.46875 L 258.386719 438.074219 L 258.808594 437.683594 L 259.238281 437.300781 L 259.238281 437.296875 L 259.667969 436.917969 C 259.960938 436.667969 260.25 436.421875 260.546875 436.175781 L 260.992188 435.8125 L 261.445312 435.453125 L 261.898438 435.101562 L 262.359375 434.75 L 262.820312 434.410156 L 263.289062 434.074219 L 263.761719 433.742188 L 264.238281 433.414062 L 264.71875 433.09375 L 265.203125 432.78125 L 265.203125 432.777344 L 265.691406 432.46875 L 266.179688 432.167969 L 266.675781 431.867188 L 267.175781 431.578125 L 267.679688 431.289062 L 268.1875 431.011719 L 268.699219 430.738281 L 269.214844 430.46875 L 269.730469 430.207031 L 270.253906 429.953125 L 270.777344 429.703125 L 271.308594 429.457031 L 271.839844 429.222656 L 272.375 428.988281 C 272.734375 428.839844 273.09375 428.691406 273.457031 428.546875 L 274 428.335938 L 274.546875 428.128906 L 274.550781 428.128906 C 274.917969 427.996094 275.285156 427.867188 275.65625 427.738281 L 276.214844 427.554688 L 276.773438 427.375 L 277.335938 427.203125 L 277.902344 427.039062 L 277.90625 427.039062 L 278.472656 426.878906 C 279.234375 426.671875 280.003906 426.484375 280.777344 426.316406 C 284.070312 425.59375 287.488281 425.214844 291 425.214844 L 297.871094 425.214844 L 297.871094 392.105469 C 297.871094 379.230469 303.132812 367.535156 311.601562 359.066406 C 320.074219 350.59375 331.769531 345.335938 344.640625 345.335938 L 368.628906 345.335938 L 368.628906 328.550781 C 368.628906 315.675781 373.886719 303.980469 382.359375 295.507812 C 390.828125 287.039062 402.527344 281.78125 415.398438 281.78125 C 428.269531 281.78125 439.96875 287.039062 448.4375 295.511719 C 456.910156 303.980469 462.167969 315.675781 462.167969 328.550781 L 462.167969 425.214844 L 643.9375 425.214844 C 652.03125 406.421875 658.460938 387.703125 662.976562 369.074219 C 667.984375 348.40625 670.667969 327.679688 670.667969 306.878906 C 670.667969 263.925781 653.234375 225.019531 625.066406 196.851562 C 596.902344 168.683594 557.992188 151.25 515.039062 151.25 C 476.003906 151.25 446.929688 160.84375 422.949219 180.03125 C 398.332031 199.722656 378.355469 229.824219 358.183594 270.167969 C 357.125 272.300781 355.390625 274.121094 353.09375 275.269531 C 347.492188 278.070312 340.679688 275.796875 337.875 270.195312 C 317.695312 229.835938 297.71875 199.726562 273.097656 180.03125 C 249.113281 160.84375 220.042969 151.25 181.003906 151.25 C 138.050781 151.25 99.144531 168.683594 70.976562 196.851562 C 42.808594 225.019531 25.378906 263.925781 25.378906 306.878906 C 25.378906 466.542969 185.402344 629.160156 348.023438 791.820312 C 394.832031 745 441.40625 698.207031 483.644531 651.902344 C 523.0625 608.699219 559.09375 565.566406 588.769531 522.574219 L 462.167969 522.574219 L 462.167969 619.242188 C 462.167969 632.113281 456.910156 643.808594 448.4375 652.28125 C 439.96875 660.75 428.273438 666.011719 415.398438 666.011719 C 402.527344 666.011719 390.828125 660.75 382.359375 652.28125 C 373.886719 643.808594 368.628906 632.113281 368.628906 619.242188 L 368.628906 602.457031 L 344.640625 602.457031 C 331.769531 602.457031 320.074219 597.195312 311.601562 588.726562 C 303.132812 580.253906 297.871094 568.558594 297.871094 555.6875 L 297.871094 522.578125 Z M 651.347656 447.996094 L 651.347656 448 L 462.167969 448 L 462.167969 499.792969 L 717.617188 499.792969 L 717.617188 447.996094 Z M 243.105469 475.898438 L 243.089844 474.664062 C 243.089844 475.078125 243.09375 475.488281 243.105469 475.898438 Z M 881.910156 499.792969 L 888.785156 499.792969 C 895.695312 499.792969 901.976562 496.96875 906.53125 492.414062 C 911.085938 487.859375 913.910156 481.578125 913.910156 474.664062 L 913.910156 473.125 C 913.910156 459.289062 902.621094 448 888.785156 448 L 881.910156 448 Z M 227.273438 220.371094 C 219.9375 216.203125 211.96875 213.703125 203.875 212.269531 C 196.164062 210.898438 188.390625 210.484375 181.003906 210.484375 C 154.398438 210.484375 130.300781 221.28125 112.855469 238.726562 C 95.410156 256.171875 84.613281 280.273438 84.613281 306.878906 C 84.613281 316.214844 85.371094 325.640625 86.78125 335.101562 C 88.15625 344.359375 90.199219 353.707031 92.796875 363.089844 C 94.46875 369.136719 100.722656 372.679688 106.769531 371.011719 C 112.8125 369.339844 116.359375 363.082031 114.6875 357.039062 C 112.390625 348.730469 110.558594 340.3125 109.296875 331.808594 C 108.0625 323.515625 107.398438 315.191406 107.398438 306.878906 C 107.398438 286.5625 115.640625 268.15625 128.964844 254.835938 C 142.285156 241.511719 160.6875 233.269531 181.003906 233.269531 C 187.289062 233.269531 193.789062 233.597656 199.960938 234.695312 C 205.75 235.722656 211.273438 237.410156 216.058594 240.128906 C 221.511719 243.222656 228.449219 241.3125 231.542969 235.855469 C 234.640625 230.402344 232.726562 223.46875 227.273438 220.371094 Z M 227.273438 220.371094 " fill-opacity="1" fill-rule="evenodd"/></g></svg>