<svg xmlns="http://www.w3.org/2000/svg" xmlns:xlink="http://www.w3.org/1999/xlink" width="1254" zoomAndPan="magnify" viewBox="0 0 940.5 940.499971" height="1254" preserveAspectRatio="xMidYMid meet" version="1.0"><defs><clipPath id="e4cb46b451"><path d="M 3.980469 128.445312 L 687 128.445312 L 687 811.332031 L 3.980469 811.332031 Z M 3.980469 128.445312 " clip-rule="nonzero"/></clipPath><clipPath id="3558293197"><path d="M 902 432 L 935.734375 432 L 935.734375 508 L 902 508 Z M 902 432 " clip-rule="nonzero"/></clipPath></defs><g clip-path="url(#e4cb46b451)"><path fill="#b4b4b4" d="M 345.359375 256.585938 C 388.042969 171.226562 430.722656 128.546875 516.082031 128.546875 C 610.324219 128.546875 686.808594 205.03125 686.808594 299.269531 C 686.808594 335.710938 679.007812 372.152344 665.113281 408.59375 L 473.679688 408.59375 L 473.679688 321.425781 C 473.679688 288.679688 446.972656 261.972656 414.230469 261.972656 C 381.488281 261.972656 354.78125 288.679688 354.78125 321.425781 L 354.78125 326.9375 L 341.90625 326.9375 C 309.164062 326.9375 282.457031 353.644531 282.457031 386.386719 L 282.457031 408.761719 C 251.191406 411.128906 226.453125 437.347656 226.453125 469.207031 L 226.453125 470.777344 C 226.453125 502.636719 251.191406 528.851562 282.457031 531.21875 L 282.457031 553.59375 C 282.457031 586.335938 309.164062 613.042969 341.90625 613.042969 L 354.78125 613.042969 L 354.78125 618.558594 C 354.78125 651.300781 381.488281 678.007812 414.230469 678.007812 C 446.972656 678.007812 473.679688 651.300781 473.679688 618.558594 L 473.679688 531.390625 L 597.496094 531.390625 C 532.054688 624.742188 438.710938 718.085938 345.359375 811.433594 C 174.636719 640.710938 3.914062 469.988281 3.914062 299.265625 C 3.914062 205.023438 80.394531 128.539062 174.636719 128.539062 C 260 128.539062 302.683594 171.21875 345.359375 256.582031 Z M 221.925781 210.84375 C 214.425781 206.582031 206.277344 204.023438 198.011719 202.5625 C 190.128906 201.164062 182.179688 200.742188 174.628906 200.742188 C 147.433594 200.742188 122.800781 211.777344 104.964844 229.613281 C 87.132812 247.445312 76.097656 272.082031 76.097656 299.277344 C 76.097656 308.816406 76.871094 318.460938 78.308594 328.128906 C 79.714844 337.59375 81.800781 347.144531 84.460938 356.738281 C 86.171875 362.917969 92.5625 366.542969 98.746094 364.832031 C 104.925781 363.121094 108.546875 356.730469 106.84375 350.546875 C 104.488281 342.058594 102.617188 333.453125 101.328125 324.757812 C 100.070312 316.277344 99.386719 307.769531 99.386719 299.269531 C 99.386719 278.503906 107.816406 259.691406 121.433594 246.074219 C 135.050781 232.457031 153.863281 224.027344 174.628906 224.027344 C 181.054688 224.027344 187.699219 224.367188 194.003906 225.484375 C 199.917969 226.535156 205.574219 228.265625 210.457031 231.039062 C 216.035156 234.203125 223.121094 232.246094 226.289062 226.675781 C 229.457031 221.101562 227.496094 214.011719 221.925781 210.84375 Z M 221.925781 210.84375 " fill-opacity="1" fill-rule="evenodd"/></g><g clip-path="url(#3558293197)"><path fill="#b4b4b4" d="M 902.738281 507.824219 C 921.132812 505.535156 935.449219 489.78125 935.449219 470.78125 L 935.449219 469.210938 C 935.449219 450.214844 921.132812 434.460938 902.738281 432.167969 Z M 902.738281 507.824219 " fill-opacity="1" fill-rule="evenodd"/></g><path fill="#b4b4b4" d="M 473.679688 431.878906 L 711.511719 431.878906 L 711.511719 508.105469 L 473.679688 508.105469 Z M 473.679688 431.878906 " fill-opacity="1" fill-rule="nonzero"/><path fill="#b4b4b4" d="M 282.449219 432.164062 C 264.054688 434.453125 249.738281 450.207031 249.738281 469.207031 L 249.738281 470.777344 C 249.738281 489.773438 264.054688 505.535156 282.449219 507.820312 Z M 282.449219 432.164062 " fill-opacity="1" fill-rule="evenodd"/><path fill="#b4b4b4" d="M 341.898438 589.765625 L 354.773438 589.765625 L 354.773438 350.230469 L 341.898438 350.230469 C 322.011719 350.230469 305.734375 366.503906 305.734375 386.394531 L 305.734375 553.605469 C 305.734375 573.496094 322.011719 589.773438 341.898438 589.773438 Z M 341.898438 589.765625 " fill-opacity="1" fill-rule="evenodd"/><path fill="#b4b4b4" d="M 843.285156 589.765625 L 830.410156 589.765625 L 830.410156 350.230469 L 843.285156 350.230469 C 863.171875 350.230469 879.449219 366.503906 879.449219 386.394531 L 879.449219 553.605469 C 879.449219 573.496094 863.171875 589.773438 843.285156 589.773438 Z M 843.285156 589.765625 " fill-opacity="1" fill-rule="evenodd"/><path fill="#b4b4b4" d="M 414.230469 654.730469 C 434.117188 654.730469 450.394531 638.453125 450.394531 618.566406 L 450.394531 321.425781 C 450.394531 301.535156 434.117188 285.257812 414.230469 285.257812 C 394.339844 285.257812 378.066406 301.527344 378.066406 321.425781 L 378.066406 618.566406 C 378.066406 638.453125 394.339844 654.730469 414.230469 654.730469 Z M 414.230469 654.730469 " fill-opacity="1" fill-rule="evenodd"/><path fill="#b4b4b4" d="M 770.957031 285.257812 C 772.140625 285.257812 773.324219 285.316406 774.503906 285.433594 C 775.679688 285.550781 776.851562 285.722656 778.011719 285.953125 C 779.175781 286.183594 780.320312 286.472656 781.453125 286.816406 C 782.589844 287.160156 783.703125 287.558594 784.796875 288.011719 C 785.890625 288.464844 786.960938 288.972656 788.003906 289.53125 C 789.046875 290.085938 790.0625 290.695312 791.046875 291.355469 C 792.03125 292.011719 792.984375 292.714844 793.898438 293.46875 C 794.8125 294.21875 795.691406 295.015625 796.527344 295.851562 C 797.363281 296.6875 798.160156 297.566406 798.910156 298.480469 C 799.660156 299.398438 800.367188 300.347656 801.023438 301.332031 C 801.683594 302.316406 802.289062 303.332031 802.847656 304.375 C 803.40625 305.421875 803.914062 306.488281 804.367188 307.585938 C 804.820312 308.679688 805.21875 309.792969 805.5625 310.925781 C 805.90625 312.058594 806.191406 313.207031 806.425781 314.367188 C 806.65625 315.53125 806.828125 316.699219 806.945312 317.878906 C 807.0625 319.058594 807.121094 320.238281 807.117188 321.425781 L 807.117188 618.566406 C 807.121094 619.75 807.0625 620.929688 806.945312 622.109375 C 806.828125 623.289062 806.65625 624.457031 806.425781 625.621094 C 806.191406 626.78125 805.90625 627.929688 805.5625 629.0625 C 805.21875 630.195312 804.820312 631.308594 804.367188 632.40625 C 803.914062 633.5 803.40625 634.570312 802.847656 635.613281 C 802.289062 636.65625 801.683594 637.671875 801.023438 638.65625 C 800.367188 639.640625 799.660156 640.59375 798.910156 641.507812 C 798.160156 642.421875 797.363281 643.300781 796.527344 644.136719 C 795.691406 644.976562 794.8125 645.769531 793.898438 646.519531 C 792.984375 647.273438 792.03125 647.976562 791.046875 648.636719 C 790.0625 649.292969 789.046875 649.902344 788.003906 650.460938 C 786.960938 651.019531 785.890625 651.523438 784.796875 651.976562 C 783.703125 652.429688 782.589844 652.828125 781.453125 653.171875 C 780.320312 653.515625 779.175781 653.804688 778.011719 654.035156 C 776.851562 654.265625 775.679688 654.441406 774.503906 654.554688 C 773.324219 654.671875 772.140625 654.730469 770.957031 654.730469 C 769.773438 654.730469 768.589844 654.671875 767.414062 654.554688 C 766.234375 654.441406 765.0625 654.265625 763.902344 654.035156 C 762.742188 653.804688 761.59375 653.515625 760.460938 653.171875 C 759.328125 652.828125 758.214844 652.429688 757.117188 651.976562 C 756.023438 651.523438 754.957031 651.019531 753.910156 650.460938 C 752.867188 649.902344 751.851562 649.292969 750.867188 648.636719 C 749.882812 647.976562 748.933594 647.273438 748.015625 646.519531 C 747.101562 645.769531 746.226562 644.976562 745.386719 644.136719 C 744.550781 643.300781 743.753906 642.421875 743.003906 641.507812 C 742.253906 640.59375 741.546875 639.640625 740.890625 638.65625 C 740.230469 637.671875 739.625 636.65625 739.066406 635.613281 C 738.507812 634.570312 738 633.5 737.546875 632.40625 C 737.09375 631.308594 736.695312 630.195312 736.351562 629.0625 C 736.007812 627.929688 735.722656 626.78125 735.492188 625.621094 C 735.257812 624.457031 735.085938 623.289062 734.96875 622.109375 C 734.855469 620.929688 734.796875 619.75 734.796875 618.566406 L 734.796875 321.425781 C 734.796875 320.238281 734.855469 319.058594 734.96875 317.878906 C 735.085938 316.699219 735.257812 315.53125 735.492188 314.367188 C 735.722656 313.207031 736.007812 312.058594 736.351562 310.925781 C 736.695312 309.792969 737.09375 308.679688 737.546875 307.585938 C 738 306.488281 738.507812 305.421875 739.066406 304.375 C 739.625 303.332031 740.230469 302.316406 740.890625 301.332031 C 741.546875 300.347656 742.253906 299.398438 743.003906 298.480469 C 743.753906 297.566406 744.550781 296.6875 745.386719 295.851562 C 746.226562 295.015625 747.101562 294.21875 748.015625 293.46875 C 748.933594 292.714844 749.882812 292.011719 750.867188 291.355469 C 751.851562 290.695312 752.867188 290.085938 753.910156 289.53125 C 754.957031 288.972656 756.023438 288.464844 757.117188 288.011719 C 758.214844 287.558594 759.328125 287.160156 760.460938 286.816406 C 761.59375 286.472656 762.742188 286.183594 763.902344 285.953125 C 765.0625 285.722656 766.234375 285.550781 767.414062 285.433594 C 768.589844 285.316406 769.773438 285.257812 770.957031 285.257812 Z M 770.957031 285.257812 " fill-opacity="1" fill-rule="nonzero"/></svg>