<svg xmlns="http://www.w3.org/2000/svg" xmlns:xlink="http://www.w3.org/1999/xlink" width="1254" zoomAndPan="magnify" viewBox="0 0 940.5 940.499971" height="1254" preserveAspectRatio="xMidYMid meet" version="1.0"><defs><clipPath id="639c9044bb"><path d="M 283 331.820312 L 657 331.820312 L 657 608.421875 L 283 608.421875 Z M 283 331.820312 " clip-rule="nonzero"/></clipPath></defs><g clip-path="url(#639c9044bb)"><path fill="#000000" d="M 421.320312 376.722656 C 428.675781 363.269531 436.335938 352.832031 445.648438 345.382812 C 456.941406 336.347656 470.378906 331.828125 488.179688 331.828125 C 507.894531 331.828125 525.75 339.828125 538.675781 352.757812 C 551.601562 365.683594 559.601562 383.542969 559.601562 403.257812 C 559.601562 412.238281 558.429688 421.253906 556.238281 430.292969 C 554.589844 437.097656 552.371094 443.875 549.644531 450.632812 L 569.277344 450.632812 L 569.277344 411.933594 C 569.277344 406.777344 571.378906 402.097656 574.773438 398.703125 C 578.164062 395.3125 582.84375 393.207031 588 393.207031 C 593.152344 393.207031 597.832031 395.3125 601.226562 398.703125 C 604.617188 402.097656 606.722656 406.777344 606.722656 411.933594 L 606.722656 418.652344 L 616.324219 418.652344 C 621.476562 418.652344 626.160156 420.757812 629.550781 424.148438 C 632.941406 427.539062 635.046875 432.222656 635.046875 437.375 L 635.046875 450.632812 L 637.796875 450.632812 C 648.359375 450.632812 656.976562 459.25 656.976562 469.8125 L 656.976562 470.429688 C 656.976562 475.714844 654.824219 480.511719 651.351562 483.984375 C 647.878906 487.457031 643.082031 489.613281 637.796875 489.613281 L 635.046875 489.613281 L 635.046875 502.867188 C 635.046875 508.019531 632.941406 512.703125 629.550781 516.09375 C 626.160156 519.484375 621.476562 521.589844 616.324219 521.589844 L 606.722656 521.589844 L 606.722656 528.3125 C 606.722656 533.464844 604.617188 538.148438 601.222656 541.539062 C 597.832031 544.929688 593.152344 547.035156 588 547.035156 C 582.84375 547.035156 578.164062 544.929688 574.773438 541.539062 C 571.378906 538.148438 569.277344 533.464844 569.277344 528.3125 L 569.277344 489.609375 L 528.667969 489.609375 C 515.867188 508.972656 499.910156 528.261719 482.347656 547.515625 C 464.101562 567.515625 444.324219 587.296875 424.542969 607.078125 C 422.761719 608.859375 419.875 608.859375 418.097656 607.078125 C 350.566406 539.542969 283.039062 472.011719 283.039062 403.257812 C 283.039062 383.542969 291.039062 365.683594 303.964844 352.757812 C 316.890625 339.828125 334.746094 331.828125 354.460938 331.828125 C 372.261719 331.828125 385.699219 336.347656 396.992188 345.382812 C 406.304688 352.832031 413.964844 363.269531 421.320312 376.722656 Z M 578.394531 455.191406 L 578.394531 528.3125 C 578.394531 530.949219 579.476562 533.347656 581.21875 535.089844 C 582.960938 536.832031 585.363281 537.914062 587.996094 537.914062 C 590.632812 537.914062 593.035156 536.832031 594.777344 535.089844 C 596.519531 533.347656 597.601562 530.949219 597.601562 528.3125 L 597.601562 411.933594 C 597.601562 409.296875 596.519531 406.894531 594.777344 405.152344 C 593.035156 403.410156 590.632812 402.328125 588 402.328125 C 585.363281 402.328125 582.960938 403.410156 581.21875 405.152344 C 579.476562 406.894531 578.394531 409.296875 578.394531 411.933594 Z M 606.722656 512.46875 L 616.324219 512.46875 C 618.960938 512.46875 621.359375 511.386719 623.101562 509.644531 C 624.84375 507.902344 625.925781 505.503906 625.925781 502.867188 L 625.925781 437.375 C 625.925781 434.742188 624.84375 432.339844 623.101562 430.597656 C 621.359375 428.855469 618.960938 427.773438 616.324219 427.773438 L 606.722656 427.773438 Z M 429.570312 512.46875 L 429.570312 427.773438 L 419.96875 427.773438 C 417.332031 427.773438 414.929688 428.855469 413.1875 430.597656 C 411.445312 432.339844 410.363281 434.742188 410.363281 437.375 L 410.363281 502.867188 C 410.363281 505.503906 411.445312 507.902344 413.1875 509.644531 C 414.929688 511.386719 417.332031 512.46875 419.96875 512.46875 Z M 438.691406 423.214844 L 438.691406 528.3125 C 438.691406 530.949219 439.773438 533.347656 441.515625 535.089844 C 443.257812 536.832031 445.65625 537.914062 448.292969 537.914062 C 450.929688 537.914062 453.328125 536.832031 455.070312 535.089844 C 456.8125 533.347656 457.894531 530.949219 457.894531 528.3125 L 457.894531 411.933594 C 457.894531 409.296875 456.8125 406.894531 455.070312 405.152344 C 453.328125 403.410156 450.929688 402.328125 448.292969 402.328125 C 445.65625 402.328125 443.257812 403.410156 441.515625 405.152344 C 439.769531 406.894531 438.691406 409.296875 438.691406 411.933594 Z M 401.246094 480.488281 L 401.246094 459.753906 L 398.492188 459.753906 C 398.40625 459.753906 398.320312 459.753906 398.234375 459.757812 L 398.105469 459.761719 C 397.71875 459.777344 397.339844 459.8125 396.964844 459.871094 C 396.800781 459.894531 396.636719 459.925781 396.472656 459.960938 L 396.347656 459.984375 L 396.226562 460.011719 C 396.148438 460.03125 396.066406 460.050781 395.984375 460.070312 L 395.867188 460.105469 L 395.746094 460.136719 L 395.628906 460.171875 L 395.507812 460.207031 L 395.273438 460.285156 L 395.160156 460.324219 L 394.925781 460.410156 L 394.8125 460.453125 L 394.585938 460.546875 L 394.472656 460.597656 L 394.363281 460.644531 L 394.25 460.695312 L 394.25 460.699219 L 394.140625 460.75 L 393.921875 460.859375 L 393.816406 460.914062 L 393.707031 460.972656 L 393.496094 461.089844 L 393.285156 461.214844 L 393.183594 461.277344 L 392.878906 461.476562 L 392.777344 461.546875 L 392.484375 461.757812 L 392.386719 461.832031 L 392.292969 461.90625 L 392.195312 461.980469 L 392.101562 462.058594 L 392.011719 462.136719 L 391.917969 462.214844 L 391.828125 462.292969 L 391.648438 462.457031 L 391.5625 462.539062 L 391.472656 462.625 L 391.386719 462.707031 L 391.304688 462.792969 L 391.21875 462.882812 L 391.136719 462.96875 L 390.972656 463.148438 L 390.894531 463.238281 L 390.738281 463.425781 L 390.660156 463.515625 L 390.585938 463.613281 L 390.511719 463.707031 L 390.4375 463.804688 L 390.226562 464.097656 L 390.15625 464.199219 L 389.957031 464.503906 L 389.894531 464.605469 L 389.769531 464.816406 L 389.652344 465.027344 L 389.59375 465.136719 L 389.539062 465.242188 L 389.429688 465.460938 L 389.375 465.574219 L 389.324219 465.683594 L 389.277344 465.796875 L 389.226562 465.90625 L 389.132812 466.132812 L 389.089844 466.25 L 389.046875 466.363281 L 389.003906 466.480469 L 388.886719 466.832031 L 388.816406 467.066406 L 388.785156 467.1875 L 388.75 467.308594 L 388.722656 467.425781 L 388.691406 467.550781 L 388.664062 467.671875 L 388.640625 467.792969 L 388.613281 467.914062 L 388.589844 468.039062 L 388.570312 468.164062 L 388.550781 468.285156 L 388.53125 468.410156 L 388.515625 468.535156 L 388.5 468.664062 L 388.484375 468.789062 L 388.472656 468.914062 L 388.464844 469.042969 L 388.453125 469.171875 L 388.445312 469.296875 L 388.433594 469.683594 L 388.433594 470.429688 C 388.433594 470.515625 388.433594 470.601562 388.4375 470.6875 L 388.4375 470.691406 C 388.4375 470.773438 388.441406 470.859375 388.445312 470.941406 L 388.445312 470.945312 L 388.449219 470.949219 C 388.453125 471.03125 388.457031 471.113281 388.464844 471.195312 L 388.464844 471.210938 C 388.46875 471.289062 388.476562 471.367188 388.484375 471.445312 L 388.484375 471.457031 L 388.488281 471.46875 C 388.496094 471.542969 388.503906 471.613281 388.511719 471.683594 L 388.515625 471.707031 L 388.519531 471.734375 C 388.527344 471.800781 388.535156 471.863281 388.546875 471.929688 L 388.550781 471.957031 L 388.554688 471.992188 L 388.585938 472.167969 L 388.601562 472.257812 L 388.625 472.378906 L 388.65625 472.539062 L 388.671875 472.609375 L 388.714844 472.796875 L 388.726562 472.835938 C 389.171875 474.640625 390.109375 476.257812 391.386719 477.535156 C 392.609375 478.757812 394.136719 479.667969 395.847656 480.132812 L 395.902344 480.148438 L 396.039062 480.183594 L 396.160156 480.214844 L 396.285156 480.246094 L 396.441406 480.277344 L 396.46875 480.285156 L 396.472656 480.285156 L 396.488281 480.289062 C 396.558594 480.300781 396.628906 480.316406 396.703125 480.328125 L 396.714844 480.332031 L 396.726562 480.332031 C 396.804688 480.347656 396.882812 480.359375 396.964844 480.375 C 397.046875 480.386719 397.132812 480.398438 397.214844 480.410156 C 397.300781 480.417969 397.382812 480.429688 397.46875 480.4375 C 397.550781 480.445312 397.636719 480.453125 397.722656 480.460938 C 397.804688 480.46875 397.890625 480.472656 397.976562 480.476562 C 398.0625 480.480469 398.148438 480.484375 398.234375 480.484375 L 398.234375 480.488281 C 398.320312 480.488281 398.40625 480.488281 398.492188 480.488281 Z M 401.246094 489.613281 L 398.492188 489.613281 C 398.328125 489.613281 398.164062 489.609375 398 489.605469 C 392.910156 489.476562 388.304688 487.347656 384.9375 483.984375 C 382.007812 481.054688 380.019531 477.183594 379.46875 472.867188 C 379.449219 472.707031 379.429688 472.546875 379.414062 472.386719 C 379.394531 472.226562 379.382812 472.066406 379.371094 471.902344 C 379.355469 471.742188 379.347656 471.578125 379.339844 471.414062 C 379.328125 471.25 379.324219 471.089844 379.320312 470.925781 C 379.316406 470.757812 379.3125 470.59375 379.3125 470.429688 L 379.3125 469.8125 L 379.320312 469.320312 L 379.328125 469.074219 L 379.339844 468.828125 L 379.351562 468.585938 L 379.371094 468.339844 L 379.390625 468.097656 L 379.414062 467.855469 L 379.4375 467.617188 L 379.46875 467.375 L 379.5 467.136719 L 379.535156 466.898438 L 379.574219 466.660156 L 379.613281 466.425781 L 379.65625 466.191406 L 379.703125 465.957031 L 379.804688 465.488281 L 379.859375 465.257812 L 379.917969 465.027344 L 379.980469 464.800781 L 380.042969 464.570312 L 380.175781 464.117188 L 380.398438 463.449219 L 380.480469 463.226562 L 380.5625 463.007812 L 380.648438 462.789062 L 380.734375 462.574219 L 380.824219 462.359375 L 381.011719 461.929688 L 381.207031 461.507812 L 381.523438 460.886719 L 381.632812 460.679688 L 381.746094 460.476562 L 381.859375 460.277344 L 382.09375 459.878906 L 382.21875 459.679688 L 382.339844 459.484375 L 382.46875 459.292969 L 382.59375 459.101562 L 382.859375 458.71875 L 382.992188 458.53125 L 383.128906 458.347656 L 383.410156 457.980469 L 383.699219 457.621094 L 383.996094 457.269531 L 384 457.269531 L 384.148438 457.097656 L 384.304688 456.925781 L 384.617188 456.589844 L 384.777344 456.421875 L 384.9375 456.261719 L 384.941406 456.261719 L 385.101562 456.097656 L 385.269531 455.9375 L 385.605469 455.625 L 385.777344 455.46875 L 385.949219 455.320312 C 386.066406 455.21875 386.183594 455.117188 386.300781 455.019531 L 386.660156 454.730469 L 387.027344 454.449219 L 387.210938 454.3125 L 387.398438 454.179688 L 387.589844 454.046875 L 387.777344 453.914062 L 387.972656 453.789062 L 388.164062 453.660156 L 388.359375 453.539062 L 388.558594 453.414062 L 388.753906 453.296875 L 388.957031 453.179688 L 389.15625 453.066406 L 389.359375 452.953125 L 389.566406 452.84375 L 389.769531 452.734375 L 389.976562 452.632812 L 390.1875 452.527344 L 390.609375 452.332031 L 390.820312 452.238281 L 390.824219 452.238281 L 391.035156 452.144531 C 391.179688 452.082031 391.324219 452.023438 391.46875 451.96875 L 391.6875 451.882812 L 391.90625 451.800781 C 392.054688 451.746094 392.203125 451.695312 392.351562 451.644531 L 392.796875 451.496094 L 393.25 451.363281 L 393.476562 451.300781 C 393.78125 451.214844 394.089844 451.140625 394.398438 451.074219 L 394.402344 451.074219 C 395.71875 450.785156 397.085938 450.632812 398.492188 450.632812 L 401.242188 450.632812 L 401.242188 437.378906 C 401.242188 432.222656 403.347656 427.542969 406.742188 424.148438 C 410.132812 420.757812 414.8125 418.652344 419.964844 418.652344 L 429.570312 418.652344 L 429.570312 411.933594 C 429.570312 406.777344 431.675781 402.097656 435.066406 398.703125 C 438.457031 395.3125 443.136719 393.207031 448.292969 393.207031 C 453.445312 393.207031 458.128906 395.3125 461.519531 398.707031 C 464.910156 402.097656 467.015625 406.777344 467.015625 411.933594 L 467.015625 450.632812 L 539.78125 450.632812 C 543.019531 443.109375 545.59375 435.613281 547.402344 428.15625 C 549.40625 419.882812 550.480469 411.582031 550.480469 403.257812 C 550.480469 386.058594 543.503906 370.484375 532.226562 359.207031 C 520.949219 347.929688 505.375 340.949219 488.179688 340.949219 C 472.554688 340.949219 460.914062 344.792969 451.3125 352.472656 C 441.460938 360.355469 433.464844 372.40625 425.386719 388.558594 C 424.964844 389.414062 424.269531 390.140625 423.351562 390.601562 C 421.109375 391.722656 418.378906 390.8125 417.257812 388.570312 C 409.179688 372.414062 401.183594 360.359375 391.324219 352.472656 C 381.726562 344.792969 370.085938 340.949219 354.460938 340.949219 C 337.265625 340.949219 321.6875 347.929688 310.414062 359.207031 C 299.136719 370.484375 292.160156 386.058594 292.160156 403.257812 C 292.160156 467.179688 356.21875 532.28125 421.320312 597.40625 C 440.058594 578.660156 458.703125 559.925781 475.613281 541.386719 C 491.390625 524.089844 505.816406 506.824219 517.695312 489.609375 L 467.015625 489.609375 L 467.015625 528.3125 C 467.015625 533.464844 464.910156 538.148438 461.519531 541.539062 C 458.128906 544.929688 453.445312 547.035156 448.292969 547.035156 C 443.136719 547.035156 438.457031 544.929688 435.066406 541.539062 C 431.675781 538.148438 429.570312 533.464844 429.570312 528.3125 L 429.570312 521.589844 L 419.964844 521.589844 C 414.8125 521.589844 410.132812 519.484375 406.742188 516.09375 C 403.347656 512.703125 401.242188 508.019531 401.242188 502.867188 L 401.242188 489.613281 Z M 542.746094 459.753906 L 467.015625 459.753906 L 467.015625 480.488281 L 569.277344 480.488281 L 569.277344 459.753906 Z M 379.320312 470.925781 L 379.3125 470.429688 C 379.3125 470.59375 379.316406 470.761719 379.320312 470.925781 Z M 635.046875 480.488281 L 637.796875 480.488281 C 640.566406 480.488281 643.078125 479.359375 644.902344 477.535156 C 646.726562 475.710938 647.855469 473.199219 647.855469 470.429688 L 647.855469 469.8125 C 647.855469 464.273438 643.335938 459.753906 637.796875 459.753906 L 635.046875 459.753906 Z M 372.980469 368.625 C 370.042969 366.953125 366.855469 365.953125 363.613281 365.378906 C 360.527344 364.832031 357.414062 364.664062 354.460938 364.664062 C 343.808594 364.664062 334.160156 368.988281 327.179688 375.972656 C 320.195312 382.957031 315.871094 392.605469 315.871094 403.257812 C 315.871094 406.992188 316.175781 410.769531 316.738281 414.554688 C 317.289062 418.261719 318.109375 422.003906 319.148438 425.761719 C 319.816406 428.179688 322.320312 429.601562 324.742188 428.933594 C 327.160156 428.261719 328.582031 425.757812 327.910156 423.339844 C 326.992188 420.011719 326.257812 416.640625 325.753906 413.238281 C 325.257812 409.917969 324.992188 406.585938 324.992188 403.257812 C 324.992188 395.121094 328.292969 387.753906 333.625 382.421875 C 338.960938 377.085938 346.328125 373.785156 354.460938 373.785156 C 356.976562 373.785156 359.578125 373.917969 362.046875 374.359375 C 364.363281 374.769531 366.578125 375.445312 368.492188 376.53125 C 370.675781 377.773438 373.453125 377.007812 374.691406 374.824219 C 375.929688 372.640625 375.164062 369.863281 372.980469 368.625 Z M 372.980469 368.625 " fill-opacity="1" fill-rule="evenodd"/></g></svg>