<svg xmlns="http://www.w3.org/2000/svg" xmlns:xlink="http://www.w3.org/1999/xlink" width="1254" zoomAndPan="magnify" viewBox="0 0 940.5 940.499971" height="1254" preserveAspectRatio="xMidYMid meet" version="1.0"><defs><clipPath id="427e60c772"><path d="M 2 124.550781 L 937 124.550781 L 937 815.683594 L 2 815.683594 Z M 2 124.550781 " clip-rule="nonzero"/></clipPath><clipPath id="146e0e2b06"><path d="M 7 128.445312 L 932 128.445312 L 932 811.332031 L 7 811.332031 Z M 7 128.445312 " clip-rule="nonzero"/></clipPath></defs><g clip-path="url(#427e60c772)"><path fill="#000000" d="M 348.023438 236.75 C 366.394531 203.125 385.535156 177.054688 408.800781 158.4375 C 437.007812 135.863281 470.570312 124.574219 515.042969 124.574219 C 564.28125 124.574219 608.886719 144.5625 641.175781 176.863281 C 673.46875 209.167969 693.449219 253.785156 693.449219 303.042969 C 693.449219 325.492188 690.519531 348.015625 685.050781 370.601562 C 680.929688 387.601562 675.386719 404.539062 668.578125 421.421875 L 717.617188 421.421875 L 717.617188 324.722656 C 717.617188 311.84375 722.875 300.144531 731.34375 291.671875 C 739.816406 283.199219 751.511719 277.9375 764.382812 277.9375 C 777.257812 277.9375 788.953125 283.199219 797.425781 291.671875 C 805.894531 300.144531 811.152344 311.84375 811.152344 324.722656 L 811.152344 341.515625 L 835.140625 341.515625 C 848.015625 341.515625 859.710938 346.773438 868.179688 355.25 C 876.652344 363.722656 881.910156 375.421875 881.910156 388.300781 L 881.910156 421.421875 L 888.785156 421.421875 C 915.171875 421.421875 936.695312 442.953125 936.695312 469.347656 L 936.695312 470.886719 C 936.695312 484.09375 931.316406 496.078125 922.640625 504.753906 C 913.964844 513.433594 901.984375 518.8125 888.785156 518.8125 L 881.910156 518.8125 L 881.910156 551.9375 C 881.910156 564.8125 876.652344 576.511719 868.179688 584.984375 C 859.710938 593.460938 848.015625 598.722656 835.140625 598.722656 L 811.152344 598.722656 L 811.152344 615.511719 C 811.152344 628.390625 805.894531 640.089844 797.425781 648.5625 C 788.953125 657.035156 777.257812 662.296875 764.386719 662.296875 C 751.511719 662.296875 739.816406 657.035156 731.34375 648.5625 C 722.875 640.089844 717.613281 628.390625 717.613281 615.511719 L 717.613281 518.8125 L 616.175781 518.8125 C 584.203125 567.1875 544.34375 615.386719 500.46875 663.496094 C 454.890625 713.472656 405.484375 762.898438 356.078125 812.320312 C 351.628906 816.769531 344.417969 816.769531 339.96875 812.320312 C 171.28125 643.578125 2.597656 474.835938 2.597656 303.042969 C 2.597656 253.785156 22.578125 209.167969 54.871094 176.863281 C 87.160156 144.5625 131.765625 124.574219 181.003906 124.574219 C 225.476562 124.574219 259.039062 135.863281 287.246094 158.4375 C 310.511719 177.054688 329.648438 203.125 348.023438 236.75 Z M 740.398438 432.816406 L 740.398438 615.511719 C 740.398438 622.101562 743.101562 628.097656 747.453125 632.449219 C 751.804688 636.804688 757.800781 639.507812 764.382812 639.507812 C 770.96875 639.507812 776.964844 636.804688 781.316406 632.449219 C 785.667969 628.097656 788.371094 622.101562 788.371094 615.511719 L 788.371094 324.722656 C 788.371094 318.136719 785.667969 312.140625 781.316406 307.785156 C 776.964844 303.429688 770.96875 300.726562 764.382812 300.726562 C 757.800781 300.726562 751.804688 303.429688 747.453125 307.785156 C 743.101562 312.136719 740.398438 318.136719 740.398438 324.722656 Z M 811.152344 575.929688 L 835.140625 575.929688 C 841.726562 575.929688 847.71875 573.226562 852.074219 568.871094 C 856.425781 564.519531 859.128906 558.523438 859.128906 551.9375 L 859.128906 388.300781 C 859.128906 381.710938 856.425781 375.714844 852.074219 371.363281 C 847.71875 367.007812 841.726562 364.304688 835.140625 364.304688 L 811.152344 364.304688 Z M 368.628906 575.929688 L 368.628906 364.304688 L 344.644531 364.304688 C 338.058594 364.304688 332.0625 367.007812 327.710938 371.363281 C 323.359375 375.714844 320.65625 381.710938 320.65625 388.300781 L 320.65625 551.9375 C 320.65625 558.523438 323.359375 564.519531 327.710938 568.871094 C 332.0625 573.226562 338.058594 575.929688 344.644531 575.929688 Z M 391.414062 352.910156 L 391.414062 615.511719 C 391.414062 622.097656 394.113281 628.097656 398.46875 632.449219 C 402.820312 636.804688 408.8125 639.507812 415.398438 639.507812 C 421.984375 639.507812 427.980469 636.804688 432.332031 632.449219 C 436.683594 628.09375 439.386719 622.097656 439.386719 615.511719 L 439.386719 324.722656 C 439.386719 318.136719 436.683594 312.136719 432.332031 307.785156 C 427.976562 303.429688 421.984375 300.726562 415.398438 300.726562 C 408.8125 300.726562 402.820312 303.429688 398.46875 307.785156 C 394.113281 312.136719 391.414062 318.136719 391.414062 324.722656 Z M 297.875 496.023438 L 297.875 444.210938 L 291 444.210938 C 290.785156 444.210938 290.570312 444.214844 290.355469 444.21875 L 290.355469 444.222656 L 290.03125 444.230469 C 289.070312 444.269531 288.117188 444.359375 287.1875 444.503906 C 286.769531 444.566406 286.359375 444.640625 285.953125 444.726562 L 285.949219 444.726562 L 285.644531 444.789062 L 285.34375 444.859375 C 285.140625 444.90625 284.9375 444.953125 284.738281 445.007812 L 284.4375 445.085938 L 284.140625 445.167969 L 283.546875 445.347656 L 283.253906 445.441406 L 282.960938 445.539062 L 282.671875 445.636719 L 282.671875 445.640625 L 282.382812 445.742188 L 282.09375 445.851562 L 281.808594 445.960938 L 281.523438 446.078125 L 281.242188 446.195312 L 280.960938 446.316406 L 280.40625 446.566406 L 280.40625 446.570312 L 280.128906 446.699219 L 279.855469 446.832031 L 279.855469 446.835938 L 279.585938 446.972656 L 279.316406 447.113281 L 279.046875 447.257812 L 278.78125 447.402344 L 278.515625 447.554688 L 278.253906 447.707031 L 277.996094 447.863281 L 277.480469 448.183594 L 277.226562 448.351562 L 276.976562 448.519531 L 276.972656 448.519531 L 276.726562 448.691406 L 276.476562 448.863281 L 276.234375 449.039062 L 275.988281 449.21875 L 275.988281 449.222656 L 275.75 449.402344 L 275.511719 449.589844 L 275.507812 449.589844 L 275.273438 449.777344 L 275.039062 449.96875 L 274.578125 450.359375 L 274.351562 450.558594 L 274.125 450.761719 L 273.90625 450.964844 L 273.902344 450.964844 L 273.683594 451.171875 L 273.253906 451.59375 L 273.039062 451.808594 L 272.625 452.246094 L 272.417969 452.46875 L 272.21875 452.691406 L 272.019531 452.921875 L 272.015625 452.921875 L 271.820312 453.148438 L 271.4375 453.617188 L 271.25 453.851562 L 271.0625 454.089844 L 270.878906 454.332031 L 270.699219 454.574219 L 270.347656 455.066406 L 270.179688 455.316406 L 270.175781 455.316406 L 270.011719 455.570312 L 269.84375 455.824219 L 269.683594 456.078125 L 269.523438 456.339844 L 269.367188 456.597656 L 269.214844 456.859375 L 269.210938 456.859375 L 269.0625 457.125 L 268.917969 457.390625 L 268.914062 457.390625 L 268.632812 457.929688 L 268.496094 458.199219 L 268.359375 458.472656 L 268.101562 459.027344 L 267.976562 459.304688 L 267.855469 459.585938 L 267.738281 459.871094 L 267.621094 460.152344 L 267.511719 460.4375 L 267.402344 460.726562 L 267.300781 461.015625 L 267.199219 461.308594 L 267.101562 461.597656 L 267.007812 461.894531 L 266.917969 462.1875 L 266.832031 462.484375 L 266.828125 462.484375 L 266.746094 462.785156 L 266.589844 463.386719 L 266.519531 463.6875 L 266.449219 463.992188 L 266.386719 464.296875 L 266.324219 464.605469 L 266.265625 464.914062 L 266.164062 465.53125 L 266.117188 465.84375 L 266.078125 466.15625 L 266.039062 466.472656 L 266.003906 466.785156 L 265.972656 467.101562 L 265.945312 467.421875 L 265.925781 467.738281 L 265.90625 468.058594 L 265.890625 468.378906 L 265.882812 468.703125 L 265.875 469.023438 L 265.875 470.886719 C 265.875 471.101562 265.875 471.316406 265.882812 471.53125 L 265.882812 471.539062 C 265.886719 471.746094 265.894531 471.957031 265.90625 472.167969 L 265.90625 472.1875 C 265.917969 472.390625 265.929688 472.59375 265.945312 472.796875 L 265.945312 472.816406 L 265.949219 472.839844 C 265.964844 473.035156 265.980469 473.226562 266 473.421875 L 266.003906 473.449219 L 266.007812 473.484375 C 266.027344 473.664062 266.046875 473.84375 266.070312 474.023438 L 266.078125 474.078125 L 266.078125 474.082031 L 266.085938 474.148438 C 266.105469 474.308594 266.128906 474.472656 266.152344 474.632812 L 266.164062 474.703125 L 266.164062 474.707031 L 266.179688 474.789062 L 266.25 475.226562 L 266.292969 475.453125 L 266.351562 475.757812 L 266.433594 476.15625 L 266.46875 476.328125 L 266.578125 476.796875 L 266.605469 476.898438 C 267.722656 481.410156 270.0625 485.449219 273.253906 488.640625 C 276.300781 491.691406 280.125 493.964844 284.390625 495.136719 L 284.527344 495.171875 L 284.867188 495.261719 L 285.167969 495.335938 L 285.488281 495.410156 L 285.878906 495.496094 L 285.949219 495.511719 L 285.953125 495.511719 L 285.992188 495.519531 C 286.171875 495.554688 286.347656 495.589844 286.527344 495.621094 L 286.5625 495.628906 L 286.566406 495.628906 L 286.582031 495.632812 C 286.78125 495.667969 286.984375 495.699219 287.183594 495.730469 L 287.1875 495.734375 C 287.394531 495.765625 287.601562 495.792969 287.808594 495.820312 L 287.8125 495.820312 C 288.019531 495.847656 288.226562 495.871094 288.4375 495.890625 L 288.441406 495.894531 C 288.652344 495.914062 288.863281 495.933594 289.074219 495.949219 C 289.285156 495.964844 289.5 495.980469 289.710938 495.988281 L 289.714844 495.992188 C 289.925781 496 290.140625 496.007812 290.355469 496.015625 C 290.570312 496.019531 290.785156 496.023438 291 496.023438 Z M 297.875 518.816406 L 291 518.816406 C 290.589844 518.816406 290.175781 518.808594 289.765625 518.800781 L 289.765625 518.796875 C 277.054688 518.472656 265.546875 513.160156 257.144531 504.753906 C 249.824219 497.433594 244.851562 487.757812 243.476562 476.980469 L 243.476562 476.976562 C 243.425781 476.578125 243.378906 476.179688 243.335938 475.777344 C 243.296875 475.375 243.261719 474.972656 243.230469 474.566406 C 243.199219 474.160156 243.171875 473.753906 243.152344 473.347656 C 243.132812 472.941406 243.117188 472.53125 243.105469 472.121094 C 243.09375 471.710938 243.089844 471.300781 243.089844 470.886719 L 243.089844 469.347656 L 243.09375 468.730469 L 243.105469 468.113281 L 243.125 467.5 L 243.152344 466.886719 L 243.1875 466.277344 L 243.230469 465.667969 L 243.28125 465.0625 L 243.335938 464.457031 L 243.402344 463.855469 L 243.476562 463.253906 L 243.554688 462.65625 L 243.644531 462.0625 L 243.738281 461.46875 L 243.839844 460.878906 L 243.949219 460.292969 L 244.066406 459.707031 L 244.191406 459.125 L 244.320312 458.542969 L 244.457031 457.964844 L 244.601562 457.390625 L 244.753906 456.816406 L 244.914062 456.25 L 245.078125 455.683594 L 245.25 455.117188 L 245.429688 454.558594 L 245.613281 454 L 245.804688 453.445312 L 246.003906 452.894531 L 246.210938 452.34375 L 246.421875 451.796875 L 246.640625 451.257812 L 246.863281 450.71875 L 247.09375 450.179688 L 247.332031 449.648438 L 247.574219 449.121094 L 247.824219 448.59375 L 248.082031 448.074219 L 248.34375 447.554688 L 248.609375 447.039062 L 248.613281 447.039062 L 248.886719 446.527344 L 249.164062 446.023438 L 249.449219 445.519531 L 249.742188 445.019531 L 250.039062 444.523438 L 250.34375 444.03125 L 250.652344 443.542969 L 250.96875 443.058594 L 251.289062 442.578125 L 251.613281 442.101562 L 251.945312 441.628906 L 252.28125 441.160156 L 252.285156 441.160156 L 252.625 440.699219 L 252.972656 440.238281 L 253.328125 439.785156 L 253.328125 439.78125 L 253.683594 439.332031 L 253.6875 439.332031 L 254.050781 438.886719 L 254.417969 438.445312 L 254.792969 438.007812 L 255.171875 437.574219 L 255.554688 437.148438 L 255.558594 437.148438 L 255.945312 436.722656 L 256.339844 436.304688 L 256.738281 435.890625 L 257.144531 435.480469 L 257.550781 435.078125 L 257.554688 435.078125 L 257.964844 434.675781 L 257.96875 434.675781 L 258.386719 434.28125 L 258.808594 433.894531 L 259.238281 433.507812 L 259.667969 433.128906 C 259.960938 432.878906 260.25 432.628906 260.546875 432.386719 L 260.992188 432.023438 L 260.992188 432.019531 L 261.898438 431.308594 L 262.359375 430.960938 L 262.820312 430.617188 L 263.289062 430.28125 L 263.761719 429.949219 L 264.238281 429.625 L 264.71875 429.300781 L 265.203125 428.988281 L 265.691406 428.679688 L 266.179688 428.375 L 266.675781 428.078125 L 267.175781 427.785156 L 267.679688 427.5 L 268.1875 427.21875 L 268.699219 426.945312 L 269.214844 426.675781 L 269.730469 426.414062 L 270.253906 426.160156 L 270.777344 425.910156 L 271.308594 425.664062 L 271.839844 425.429688 L 272.375 425.199219 C 272.734375 425.046875 273.09375 424.898438 273.457031 424.753906 L 274 424.542969 L 274.546875 424.335938 L 274.550781 424.335938 C 274.917969 424.203125 275.285156 424.074219 275.65625 423.945312 L 276.214844 423.761719 L 276.773438 423.582031 L 277.335938 423.410156 L 277.902344 423.246094 L 277.90625 423.246094 L 278.472656 423.085938 C 279.234375 422.878906 280.003906 422.691406 280.777344 422.523438 C 284.070312 421.800781 287.488281 421.421875 291 421.421875 L 297.871094 421.421875 L 297.871094 388.300781 C 297.871094 375.421875 303.132812 363.722656 311.601562 355.25 C 320.074219 346.777344 331.769531 341.515625 344.640625 341.515625 L 368.628906 341.515625 L 368.628906 324.722656 C 368.628906 311.84375 373.886719 300.144531 382.359375 291.671875 C 390.828125 283.199219 402.527344 277.9375 415.398438 277.9375 C 428.269531 277.9375 439.96875 283.199219 448.4375 291.671875 C 456.910156 300.144531 462.167969 311.84375 462.167969 324.722656 L 462.167969 421.421875 L 643.9375 421.421875 C 652.03125 402.621094 658.460938 383.894531 662.976562 365.257812 C 667.984375 344.589844 670.667969 323.851562 670.667969 303.042969 C 670.667969 260.078125 653.234375 221.15625 625.066406 192.980469 C 596.902344 164.800781 557.992188 147.363281 515.039062 147.363281 C 476.003906 147.363281 446.929688 156.960938 422.949219 176.152344 C 398.332031 195.851562 378.355469 225.960938 358.183594 266.320312 C 357.125 268.453125 355.390625 270.277344 353.09375 271.421875 C 347.492188 274.226562 340.679688 271.953125 337.875 266.347656 C 317.695312 225.976562 297.71875 195.859375 273.097656 176.152344 C 249.113281 156.960938 220.042969 147.363281 181.003906 147.363281 C 138.050781 147.363281 99.144531 164.800781 70.976562 192.980469 C 42.808594 221.15625 25.378906 260.078125 25.378906 303.042969 C 25.378906 462.765625 185.402344 625.433594 348.023438 788.152344 C 394.832031 741.316406 441.40625 694.503906 483.644531 648.1875 C 523.0625 604.96875 559.09375 561.820312 588.769531 518.8125 L 462.167969 518.8125 L 462.167969 615.511719 C 462.167969 628.390625 456.910156 640.089844 448.4375 648.5625 C 439.96875 657.035156 428.273438 662.296875 415.398438 662.296875 C 402.527344 662.296875 390.828125 657.039062 382.359375 648.5625 C 373.886719 640.089844 368.628906 628.390625 368.628906 615.511719 L 368.628906 598.722656 L 344.640625 598.722656 C 331.769531 598.722656 320.074219 593.460938 311.601562 584.988281 C 303.132812 576.511719 297.871094 564.8125 297.871094 551.9375 L 297.871094 518.816406 Z M 651.347656 444.210938 L 462.167969 444.210938 L 462.167969 496.023438 L 717.617188 496.023438 L 717.617188 444.210938 Z M 243.105469 472.121094 L 243.089844 470.886719 C 243.089844 471.300781 243.09375 471.710938 243.105469 472.121094 Z M 881.910156 496.023438 L 888.785156 496.023438 C 895.695312 496.023438 901.976562 493.199219 906.53125 488.640625 C 911.085938 484.085938 913.910156 477.800781 913.910156 470.886719 L 913.910156 469.347656 C 913.910156 455.503906 902.621094 444.210938 888.785156 444.210938 L 881.910156 444.210938 Z M 227.273438 216.507812 C 219.9375 212.339844 211.96875 209.839844 203.875 208.402344 C 196.164062 207.03125 188.390625 206.617188 181.003906 206.617188 C 154.398438 206.617188 130.300781 217.417969 112.855469 234.871094 C 95.410156 252.324219 84.613281 276.429688 84.613281 303.042969 C 84.613281 312.382812 85.371094 321.8125 86.78125 331.277344 C 88.15625 340.535156 90.199219 349.890625 92.796875 359.273438 C 94.46875 365.320312 100.722656 368.867188 106.769531 367.199219 C 112.8125 365.527344 116.359375 359.269531 114.6875 353.222656 C 112.390625 344.910156 110.558594 336.488281 109.296875 327.984375 C 108.0625 319.6875 107.398438 311.359375 107.398438 303.042969 C 107.398438 282.71875 115.640625 264.3125 128.964844 250.984375 C 142.285156 237.65625 160.6875 229.410156 181.003906 229.410156 C 187.289062 229.410156 193.789062 229.742188 199.960938 230.835938 C 205.75 231.863281 211.273438 233.554688 216.058594 236.273438 C 221.511719 239.367188 228.449219 237.457031 231.542969 232 C 234.640625 226.542969 232.726562 219.605469 227.273438 216.507812 Z M 227.273438 216.507812 " fill-opacity="1" fill-rule="evenodd"/></g><g clip-path="url(#146e0e2b06)"><path fill="#000000" d="M 349.4375 239.304688 C 367.605469 206.085938 386.53125 180.320312 409.535156 161.925781 C 437.429688 139.621094 470.617188 128.46875 514.589844 128.46875 C 563.28125 128.46875 607.386719 148.21875 639.316406 180.136719 C 671.25 212.050781 691.007812 256.136719 691.007812 304.808594 C 691.007812 326.988281 688.113281 349.242188 682.699219 371.558594 C 678.628906 388.359375 673.144531 405.09375 666.414062 421.773438 L 714.902344 421.773438 L 714.902344 326.226562 C 714.902344 313.503906 720.101562 301.945312 728.480469 293.570312 C 736.855469 285.199219 748.421875 280 761.148438 280 C 773.878906 280 785.445312 285.199219 793.820312 293.574219 C 802.199219 301.945312 807.398438 313.503906 807.398438 326.226562 L 807.398438 342.820312 L 831.117188 342.820312 C 843.847656 342.820312 855.410156 348.019531 863.789062 356.390625 C 872.164062 364.765625 877.363281 376.324219 877.363281 389.046875 L 877.363281 421.773438 L 884.160156 421.773438 C 910.253906 421.773438 931.539062 443.046875 931.539062 469.128906 L 931.539062 470.648438 C 931.539062 483.695312 926.21875 495.539062 917.640625 504.113281 C 909.0625 512.6875 897.214844 518.003906 884.160156 518.003906 L 877.363281 518.003906 L 877.363281 550.730469 C 877.363281 563.453125 872.164062 575.015625 863.789062 583.386719 C 855.410156 591.761719 843.847656 596.957031 831.117188 596.957031 L 807.398438 596.957031 L 807.398438 613.550781 C 807.398438 626.273438 802.199219 637.832031 793.820312 646.207031 C 785.445312 654.578125 773.878906 659.777344 761.152344 659.777344 C 748.421875 659.777344 736.855469 654.578125 728.480469 646.207031 C 720.101562 637.832031 714.902344 626.273438 714.902344 613.550781 L 714.902344 518.003906 L 614.597656 518.003906 C 582.980469 565.800781 543.5625 613.425781 500.179688 660.960938 C 455.113281 710.339844 406.257812 759.175781 357.398438 808.011719 C 353 812.40625 345.871094 812.40625 341.472656 808.011719 C 174.667969 641.28125 7.863281 474.550781 7.863281 304.808594 C 7.863281 256.136719 27.625 212.050781 59.554688 180.136719 C 91.484375 148.21875 135.589844 128.46875 184.28125 128.46875 C 228.257812 128.46875 261.445312 139.621094 289.339844 161.925781 C 312.34375 180.320312 331.269531 206.085938 349.4375 239.304688 Z M 737.433594 433.03125 L 737.433594 613.550781 C 737.433594 620.058594 740.105469 625.984375 744.40625 630.285156 C 748.710938 634.585938 754.640625 637.257812 761.148438 637.257812 C 767.660156 637.257812 773.589844 634.585938 777.894531 630.285156 C 782.195312 625.984375 784.871094 620.058594 784.871094 613.550781 L 784.871094 326.230469 C 784.871094 319.722656 782.199219 313.796875 777.894531 309.492188 C 773.589844 305.191406 767.660156 302.519531 761.152344 302.519531 C 754.640625 302.519531 748.710938 305.191406 744.40625 309.492188 C 740.105469 313.792969 737.433594 319.71875 737.433594 326.230469 Z M 807.398438 574.441406 L 831.117188 574.441406 C 837.628906 574.441406 843.554688 571.769531 847.859375 567.464844 C 852.164062 563.164062 854.835938 557.238281 854.835938 550.730469 L 854.835938 389.046875 C 854.835938 382.539062 852.164062 376.613281 847.859375 372.3125 C 843.554688 368.011719 837.628906 365.339844 831.117188 365.339844 L 807.398438 365.339844 Z M 369.8125 574.441406 L 369.8125 365.339844 L 346.09375 365.339844 C 339.582031 365.339844 333.65625 368.011719 329.351562 372.3125 C 325.046875 376.613281 322.375 382.539062 322.375 389.046875 L 322.375 550.730469 C 322.375 557.238281 325.046875 563.164062 329.351562 567.464844 C 333.65625 571.769531 339.582031 574.441406 346.09375 574.441406 Z M 392.339844 354.078125 L 392.339844 613.550781 C 392.339844 620.058594 395.015625 625.984375 399.316406 630.285156 C 403.621094 634.585938 409.550781 637.257812 416.058594 637.257812 C 422.570312 637.257812 428.5 634.585938 432.804688 630.285156 C 437.109375 625.984375 439.78125 620.058594 439.78125 613.550781 L 439.78125 326.226562 C 439.78125 319.71875 437.105469 313.796875 432.804688 309.492188 C 428.5 305.191406 422.570312 302.519531 416.058594 302.519531 C 409.550781 302.519531 403.621094 305.191406 399.316406 309.492188 C 395.011719 313.796875 392.339844 319.71875 392.339844 326.226562 Z M 299.847656 495.484375 L 299.847656 444.292969 L 293.050781 444.292969 C 292.835938 444.292969 292.625 444.296875 292.410156 444.300781 L 292.09375 444.3125 C 291.140625 444.347656 290.199219 444.4375 289.277344 444.582031 C 288.867188 444.644531 288.460938 444.714844 288.058594 444.800781 L 287.753906 444.863281 L 287.453125 444.929688 L 287.453125 444.933594 C 287.253906 444.980469 287.054688 445.027344 286.859375 445.078125 L 286.5625 445.15625 L 286.265625 445.238281 L 285.972656 445.324219 L 285.679688 445.414062 L 285.101562 445.601562 L 285.101562 445.605469 L 284.8125 445.703125 L 284.527344 445.804688 L 284.242188 445.914062 L 283.960938 446.023438 L 283.679688 446.136719 L 283.398438 446.253906 L 283.125 446.371094 L 282.847656 446.496094 L 282.574219 446.621094 L 282.300781 446.75 L 282.03125 446.882812 L 281.761719 447.019531 L 281.230469 447.300781 L 280.964844 447.445312 L 280.707031 447.59375 L 280.445312 447.746094 L 280.191406 447.898438 L 280.191406 447.902344 L 279.933594 448.058594 L 279.679688 448.21875 L 279.179688 448.546875 L 278.6875 448.890625 L 278.445312 449.0625 L 277.96875 449.421875 L 277.730469 449.605469 L 277.5 449.792969 L 277.496094 449.792969 L 277.265625 449.980469 L 277.039062 450.171875 L 276.585938 450.5625 L 276.363281 450.761719 L 276.144531 450.964844 L 275.925781 451.171875 L 275.714844 451.378906 L 275.710938 451.378906 L 275.5 451.585938 L 275.289062 451.800781 L 275.082031 452.015625 L 274.878906 452.230469 L 274.675781 452.449219 L 274.476562 452.671875 L 274.28125 452.898438 L 274.277344 452.898438 L 273.894531 453.351562 L 273.703125 453.585938 L 273.519531 453.816406 L 273.335938 454.054688 L 272.976562 454.53125 L 272.800781 454.773438 L 272.628906 455.019531 L 272.460938 455.265625 L 272.292969 455.515625 L 272.128906 455.765625 L 271.96875 456.019531 L 271.8125 456.273438 L 271.65625 456.53125 L 271.507812 456.789062 L 271.503906 456.789062 L 271.359375 457.050781 L 271.210938 457.3125 L 271.070312 457.578125 L 270.929688 457.847656 L 270.660156 458.386719 L 270.53125 458.65625 L 270.40625 458.929688 L 270.28125 459.207031 L 270.046875 459.761719 L 269.933594 460.042969 L 269.824219 460.328125 L 269.71875 460.609375 L 269.714844 460.609375 L 269.613281 460.898438 L 269.515625 461.183594 L 269.417969 461.472656 L 269.324219 461.761719 L 269.234375 462.054688 L 269.148438 462.347656 L 269.066406 462.644531 L 268.988281 462.941406 L 268.914062 463.238281 L 268.84375 463.535156 L 268.773438 463.835938 L 268.710938 464.140625 L 268.648438 464.441406 L 268.539062 465.050781 L 268.445312 465.667969 L 268.402344 465.976562 L 268.367188 466.285156 L 268.332031 466.597656 L 268.300781 466.910156 L 268.277344 467.226562 L 268.253906 467.539062 L 268.222656 468.171875 L 268.210938 468.492188 L 268.207031 468.808594 L 268.203125 469.128906 L 268.203125 470.648438 C 268.203125 470.863281 268.207031 471.074219 268.210938 471.289062 L 268.210938 471.292969 C 268.21875 471.5 268.226562 471.707031 268.234375 471.914062 L 268.238281 471.921875 L 268.238281 471.933594 C 268.246094 472.136719 268.261719 472.335938 268.273438 472.535156 L 268.277344 472.554688 L 268.277344 472.582031 C 268.292969 472.773438 268.3125 472.960938 268.332031 473.152344 L 268.332031 473.183594 L 268.335938 473.214844 C 268.355469 473.394531 268.375 473.570312 268.398438 473.746094 L 268.402344 473.800781 L 268.402344 473.804688 L 268.414062 473.871094 C 268.433594 474.03125 268.457031 474.191406 268.480469 474.351562 L 268.492188 474.421875 L 268.503906 474.503906 L 268.578125 474.9375 L 268.617188 475.164062 L 268.675781 475.464844 L 268.757812 475.855469 L 268.792969 476.027344 L 268.902344 476.488281 L 268.925781 476.589844 C 270.03125 481.046875 272.347656 485.039062 275.5 488.191406 C 278.515625 491.207031 282.292969 493.453125 286.515625 494.609375 L 286.648438 494.644531 L 286.988281 494.734375 L 287.285156 494.808594 L 287.597656 494.878906 L 287.988281 494.964844 L 288.054688 494.980469 L 288.058594 494.980469 L 288.097656 494.988281 C 288.273438 495.023438 288.449219 495.058594 288.628906 495.089844 L 288.660156 495.097656 L 288.683594 495.097656 C 288.878906 495.136719 289.078125 495.167969 289.273438 495.199219 L 289.277344 495.199219 C 289.484375 495.230469 289.6875 495.257812 289.894531 495.285156 L 289.898438 495.285156 C 290.101562 495.3125 290.308594 495.335938 290.515625 495.355469 L 290.519531 495.355469 C 290.726562 495.378906 290.933594 495.398438 291.144531 495.414062 C 291.355469 495.429688 291.566406 495.441406 291.777344 495.453125 C 291.988281 495.464844 292.199219 495.472656 292.410156 495.476562 C 292.625 495.484375 292.835938 495.484375 293.050781 495.484375 Z M 299.847656 518.003906 L 293.050781 518.003906 C 292.640625 518.003906 292.234375 518 291.828125 517.988281 C 279.257812 517.667969 267.882812 512.421875 259.570312 504.113281 C 252.335938 496.878906 247.417969 487.320312 246.054688 476.671875 L 246.054688 476.667969 C 246.003906 476.273438 245.960938 475.878906 245.917969 475.480469 C 245.878906 475.082031 245.84375 474.6875 245.8125 474.285156 C 245.78125 473.886719 245.757812 473.484375 245.734375 473.082031 C 245.714844 472.679688 245.699219 472.273438 245.691406 471.871094 C 245.679688 471.464844 245.675781 471.058594 245.675781 470.648438 L 245.675781 469.128906 L 245.679688 468.519531 L 245.691406 467.910156 L 245.710938 467.304688 L 245.734375 466.699219 L 245.769531 466.09375 L 245.8125 465.492188 L 245.863281 464.894531 L 245.917969 464.296875 L 245.984375 463.703125 L 246.054688 463.109375 L 246.136719 462.519531 L 246.222656 461.929688 L 246.316406 461.34375 L 246.417969 460.761719 L 246.523438 460.179688 L 246.640625 459.601562 L 246.761719 459.027344 L 246.890625 458.453125 L 247.027344 457.882812 L 247.167969 457.3125 L 247.320312 456.75 L 247.476562 456.1875 L 247.640625 455.625 L 247.808594 455.070312 L 247.988281 454.515625 L 248.167969 453.964844 L 248.359375 453.414062 L 248.554688 452.871094 L 248.757812 452.328125 L 248.96875 451.789062 L 249.183594 451.253906 L 249.40625 450.71875 L 249.867188 449.664062 L 250.109375 449.144531 L 250.355469 448.625 L 250.609375 448.109375 L 250.867188 447.597656 L 251.132812 447.085938 L 251.40625 446.582031 L 251.679688 446.082031 L 251.964844 445.582031 L 252.253906 445.089844 L 252.546875 444.597656 L 252.847656 444.113281 L 253.152344 443.628906 L 253.464844 443.152344 L 253.78125 442.675781 L 254.105469 442.207031 L 254.429688 441.742188 L 254.433594 441.742188 L 254.765625 441.277344 L 255.105469 440.820312 L 255.449219 440.367188 L 255.796875 439.917969 L 256.152344 439.472656 L 256.511719 439.03125 L 256.875 438.59375 L 256.878906 438.59375 L 257.246094 438.164062 L 257.621094 437.734375 L 258 437.3125 L 258.003906 437.3125 L 258.386719 436.894531 L 258.777344 436.480469 L 259.171875 436.070312 L 259.570312 435.667969 L 259.976562 435.265625 L 260.386719 434.871094 L 260.800781 434.480469 L 261.21875 434.097656 L 261.640625 433.71875 L 262.070312 433.34375 C 262.355469 433.09375 262.644531 432.847656 262.9375 432.609375 L 263.378906 432.25 L 263.378906 432.246094 L 263.824219 431.894531 L 264.273438 431.542969 L 264.726562 431.199219 L 265.648438 430.527344 L 266.113281 430.199219 L 266.585938 429.878906 L 267.058594 429.5625 L 267.0625 429.5625 L 267.539062 429.25 L 268.023438 428.945312 L 268.507812 428.644531 L 269 428.351562 L 269.492188 428.0625 L 269.992188 427.78125 L 270.492188 427.503906 L 270.996094 427.230469 L 272.019531 426.707031 L 272.535156 426.457031 L 273.054688 426.207031 L 273.574219 425.96875 L 273.578125 425.96875 L 274.101562 425.734375 L 274.632812 425.503906 C 274.984375 425.355469 275.34375 425.210938 275.699219 425.066406 L 275.703125 425.066406 L 276.238281 424.859375 L 276.242188 424.859375 L 276.78125 424.65625 C 277.144531 424.523438 277.507812 424.394531 277.875 424.269531 L 278.425781 424.085938 L 278.429688 424.085938 L 278.980469 423.910156 L 278.984375 423.910156 L 279.539062 423.738281 L 280.097656 423.574219 L 280.101562 423.574219 L 280.660156 423.417969 L 280.664062 423.417969 C 281.414062 423.214844 282.175781 423.03125 282.941406 422.863281 C 286.199219 422.148438 289.578125 421.773438 293.050781 421.773438 L 299.84375 421.773438 L 299.84375 389.046875 C 299.84375 376.324219 305.046875 364.765625 313.421875 356.390625 C 321.796875 348.019531 333.363281 342.820312 346.09375 342.820312 L 369.8125 342.820312 L 369.8125 326.230469 C 369.8125 313.503906 375.011719 301.945312 383.390625 293.574219 C 391.765625 285.199219 403.332031 280.003906 416.058594 280.003906 C 428.789062 280.003906 440.355469 285.199219 448.730469 293.574219 C 457.105469 301.945312 462.308594 313.503906 462.308594 326.230469 L 462.308594 421.773438 L 642.050781 421.773438 C 650.050781 403.199219 656.410156 384.695312 660.875 366.28125 C 665.828125 345.859375 668.476562 325.367188 668.476562 304.808594 C 668.476562 262.355469 651.242188 223.898438 623.390625 196.058594 C 595.535156 168.214844 557.0625 150.988281 514.589844 150.988281 C 475.988281 150.988281 447.242188 160.46875 423.527344 179.433594 C 399.183594 198.898438 379.429688 228.648438 359.480469 268.523438 C 358.4375 270.632812 356.71875 272.433594 354.453125 273.566406 C 348.910156 276.335938 342.171875 274.089844 339.402344 268.550781 C 319.449219 228.660156 299.695312 198.902344 275.347656 179.433594 C 251.632812 160.46875 222.882812 150.988281 184.28125 150.988281 C 141.808594 150.988281 103.335938 168.214844 75.484375 196.058594 C 47.628906 223.898438 30.394531 262.355469 30.394531 304.808594 C 30.394531 462.625 188.628906 623.355469 349.433594 784.128906 C 395.722656 737.851562 441.777344 691.597656 483.546875 645.832031 C 522.519531 603.128906 558.148438 560.5 587.492188 518.003906 L 462.308594 518.003906 L 462.308594 613.550781 C 462.308594 626.273438 457.105469 637.832031 448.730469 646.207031 C 440.355469 654.578125 428.789062 659.777344 416.058594 659.777344 C 403.332031 659.777344 391.765625 654.578125 383.390625 646.207031 C 375.011719 637.835938 369.8125 626.273438 369.8125 613.550781 L 369.8125 596.960938 L 346.09375 596.960938 C 333.363281 596.960938 321.796875 591.761719 313.421875 583.386719 C 305.046875 575.015625 299.84375 563.457031 299.84375 550.730469 L 299.84375 518.007812 Z M 649.375 444.292969 L 462.308594 444.292969 L 462.308594 495.484375 L 714.902344 495.484375 L 714.902344 444.292969 Z M 245.691406 471.871094 L 245.675781 470.648438 C 245.675781 471.058594 245.679688 471.464844 245.691406 471.871094 Z M 877.363281 495.488281 L 884.160156 495.488281 C 890.996094 495.488281 897.207031 492.695312 901.710938 488.191406 C 906.214844 483.691406 909.007812 477.480469 909.007812 470.648438 L 909.007812 469.128906 C 909.007812 455.449219 897.847656 444.292969 884.160156 444.292969 L 877.363281 444.292969 Z M 230.03125 219.304688 C 222.78125 215.1875 214.898438 212.714844 206.898438 211.296875 C 199.269531 209.941406 191.585938 209.535156 184.28125 209.535156 C 157.972656 209.535156 134.144531 220.203125 116.894531 237.449219 C 99.640625 254.691406 88.96875 278.511719 88.96875 304.808594 C 88.96875 314.035156 89.714844 323.355469 91.109375 332.707031 C 92.46875 341.855469 94.488281 351.09375 97.058594 360.367188 C 98.710938 366.34375 104.894531 369.847656 110.875 368.199219 C 116.851562 366.546875 120.359375 360.363281 118.707031 354.386719 C 116.433594 346.175781 114.625 337.855469 113.375 329.453125 C 112.152344 321.253906 111.496094 313.027344 111.496094 304.808594 C 111.496094 284.726562 119.648438 266.539062 132.820312 253.371094 C 145.996094 240.203125 164.191406 232.054688 184.28125 232.054688 C 190.496094 232.054688 196.925781 232.378906 203.023438 233.460938 C 208.75 234.476562 214.214844 236.148438 218.945312 238.832031 C 224.339844 241.894531 231.195312 240.003906 234.257812 234.613281 C 237.316406 229.21875 235.425781 222.367188 230.03125 219.304688 Z M 230.03125 219.304688 " fill-opacity="1" fill-rule="evenodd"/></g></svg>