<svg xmlns="http://www.w3.org/2000/svg" xmlns:xlink="http://www.w3.org/1999/xlink" width="1254" zoomAndPan="magnify" viewBox="0 0 940.5 940.499971" height="1254" preserveAspectRatio="xMidYMid meet" version="1.0"><defs><clipPath id="b444c4d8b1"><path d="M 0 71.085938 L 940 71.085938 L 940 868.664062 L 0 868.664062 Z M 0 71.085938 " clip-rule="nonzero"/></clipPath></defs><g clip-path="url(#b444c4d8b1)"><path fill="#ff3131" d="M 470 71.125 C 440.671875 71.125 415.6875 82.96875 399.65625 101.003906 C 383.625 119.039062 376.148438 142.167969 376.148438 164.976562 C 376.148438 187.789062 383.625 210.914062 399.65625 228.953125 C 415.6875 246.988281 440.671875 258.832031 470 258.832031 C 499.328125 258.832031 524.3125 246.988281 540.34375 228.953125 C 550.835938 217.148438 557.316406 203.089844 560.78125 188.441406 L 915.800781 188.441406 C 916.574219 188.453125 917.347656 188.425781 918.121094 188.359375 C 918.894531 188.292969 919.660156 188.1875 920.425781 188.046875 C 921.1875 187.90625 921.941406 187.726562 922.683594 187.507812 C 923.429688 187.292969 924.160156 187.039062 924.882812 186.75 C 925.601562 186.460938 926.304688 186.136719 926.992188 185.777344 C 927.679688 185.417969 928.347656 185.027344 928.996094 184.601562 C 929.644531 184.175781 930.269531 183.722656 930.875 183.234375 C 931.476562 182.746094 932.054688 182.230469 932.605469 181.6875 C 933.160156 181.140625 933.683594 180.570312 934.179688 179.976562 C 934.671875 179.378906 935.136719 178.761719 935.574219 178.117188 C 936.007812 177.476562 936.410156 176.8125 936.777344 176.128906 C 937.144531 175.449219 937.480469 174.75 937.777344 174.035156 C 938.078125 173.320312 938.339844 172.589844 938.566406 171.847656 C 938.796875 171.105469 938.984375 170.355469 939.136719 169.597656 C 939.289062 168.835938 939.40625 168.070312 939.480469 167.296875 C 939.558594 166.527344 939.597656 165.753906 939.597656 164.976562 C 939.597656 164.203125 939.558594 163.429688 939.480469 162.65625 C 939.40625 161.886719 939.289062 161.121094 939.136719 160.359375 C 938.984375 159.597656 938.796875 158.847656 938.566406 158.105469 C 938.339844 157.363281 938.078125 156.636719 937.777344 155.921875 C 937.480469 155.207031 937.144531 154.507812 936.777344 153.824219 C 936.410156 153.144531 936.007812 152.480469 935.574219 151.835938 C 935.136719 151.195312 934.671875 150.574219 934.179688 149.980469 C 933.683594 149.382812 933.160156 148.8125 932.605469 148.269531 C 932.054688 147.722656 931.476562 147.207031 930.875 146.722656 C 930.269531 146.234375 929.644531 145.777344 928.996094 145.351562 C 928.347656 144.925781 927.679688 144.535156 926.992188 144.175781 C 926.304688 143.816406 925.601562 143.492188 924.882812 143.203125 C 924.160156 142.914062 923.429688 142.664062 922.683594 142.445312 C 921.941406 142.230469 921.1875 142.050781 920.425781 141.910156 C 919.660156 141.765625 918.894531 141.664062 918.121094 141.597656 C 917.347656 141.53125 916.574219 141.503906 915.800781 141.515625 L 560.78125 141.515625 C 557.316406 126.863281 550.835938 112.808594 540.34375 101.003906 C 524.3125 82.96875 499.328125 71.125 470 71.125 Z M 470 118.050781 C 487.597656 118.050781 497.808594 123.804688 505.242188 132.164062 C 512.671875 140.527344 516.925781 152.59375 516.925781 164.976562 C 516.925781 177.359375 512.671875 189.429688 505.242188 197.789062 C 497.808594 206.148438 487.597656 211.902344 470 211.902344 C 452.402344 211.902344 442.191406 206.148438 434.757812 197.789062 C 427.328125 189.429688 423.074219 177.359375 423.074219 164.976562 C 423.074219 152.59375 427.328125 140.527344 434.757812 132.164062 C 442.191406 123.804688 452.402344 118.050781 470 118.050781 Z M 24.199219 141.515625 C 23.425781 141.503906 22.652344 141.53125 21.878906 141.597656 C 21.105469 141.664062 20.339844 141.765625 19.574219 141.910156 C 18.8125 142.050781 18.058594 142.230469 17.316406 142.445312 C 16.570312 142.664062 15.839844 142.914062 15.121094 143.203125 C 14.398438 143.492188 13.695312 143.816406 13.007812 144.175781 C 12.320312 144.535156 11.652344 144.925781 11.003906 145.351562 C 10.355469 145.777344 9.730469 146.234375 9.128906 146.722656 C 8.523438 147.207031 7.945312 147.722656 7.394531 148.269531 C 6.84375 148.8125 6.316406 149.382812 5.824219 149.980469 C 5.328125 150.574219 4.863281 151.195312 4.425781 151.835938 C 3.992188 152.480469 3.59375 153.144531 3.222656 153.824219 C 2.855469 154.507812 2.519531 155.207031 2.222656 155.921875 C 1.921875 156.636719 1.660156 157.363281 1.433594 158.105469 C 1.207031 158.847656 1.015625 159.597656 0.863281 160.359375 C 0.710938 161.121094 0.59375 161.886719 0.519531 162.65625 C 0.441406 163.429688 0.402344 164.203125 0.402344 164.976562 C 0.402344 165.753906 0.441406 166.527344 0.519531 167.296875 C 0.59375 168.070312 0.710938 168.835938 0.863281 169.597656 C 1.015625 170.355469 1.207031 171.105469 1.433594 171.847656 C 1.660156 172.589844 1.921875 173.320312 2.222656 174.035156 C 2.519531 174.75 2.855469 175.449219 3.222656 176.128906 C 3.59375 176.8125 3.992188 177.476562 4.425781 178.117188 C 4.863281 178.761719 5.328125 179.378906 5.824219 179.976562 C 6.316406 180.570312 6.84375 181.140625 7.394531 181.6875 C 7.945312 182.230469 8.523438 182.746094 9.128906 183.234375 C 9.730469 183.722656 10.355469 184.175781 11.003906 184.601562 C 11.652344 185.027344 12.320312 185.417969 13.007812 185.777344 C 13.695312 186.136719 14.398438 186.460938 15.121094 186.75 C 15.839844 187.039062 16.570312 187.292969 17.316406 187.507812 C 18.058594 187.726562 18.8125 187.90625 19.574219 188.046875 C 20.339844 188.1875 21.105469 188.292969 21.878906 188.359375 C 22.652344 188.425781 23.425781 188.453125 24.199219 188.441406 L 305.757812 188.441406 C 306.535156 188.453125 307.308594 188.425781 308.082031 188.359375 C 308.851562 188.292969 309.621094 188.1875 310.382812 188.046875 C 311.144531 187.90625 311.898438 187.726562 312.644531 187.507812 C 313.386719 187.292969 314.121094 187.039062 314.839844 186.75 C 315.558594 186.460938 316.261719 186.136719 316.949219 185.777344 C 317.636719 185.417969 318.304688 185.027344 318.953125 184.601562 C 319.601562 184.175781 320.226562 183.722656 320.832031 183.234375 C 321.433594 182.746094 322.011719 182.230469 322.566406 181.6875 C 323.117188 181.140625 323.640625 180.570312 324.136719 179.976562 C 324.632812 179.378906 325.097656 178.761719 325.53125 178.117188 C 325.964844 177.476562 326.367188 176.8125 326.734375 176.128906 C 327.105469 175.449219 327.4375 174.75 327.738281 174.035156 C 328.035156 173.320312 328.300781 172.589844 328.527344 171.847656 C 328.753906 171.105469 328.941406 170.355469 329.097656 169.597656 C 329.25 168.835938 329.363281 168.070312 329.441406 167.296875 C 329.515625 166.527344 329.554688 165.753906 329.554688 164.976562 C 329.554688 164.203125 329.515625 163.429688 329.441406 162.65625 C 329.363281 161.886719 329.25 161.121094 329.097656 160.359375 C 328.941406 159.597656 328.753906 158.847656 328.527344 158.105469 C 328.300781 157.363281 328.035156 156.636719 327.738281 155.921875 C 327.4375 155.207031 327.105469 154.507812 326.734375 153.824219 C 326.367188 153.144531 325.964844 152.480469 325.53125 151.835938 C 325.097656 151.195312 324.632812 150.574219 324.136719 149.980469 C 323.640625 149.382812 323.117188 148.8125 322.566406 148.269531 C 322.011719 147.722656 321.433594 147.207031 320.832031 146.722656 C 320.226562 146.234375 319.601562 145.777344 318.953125 145.351562 C 318.304688 144.925781 317.636719 144.535156 316.949219 144.175781 C 316.261719 143.816406 315.558594 143.492188 314.839844 143.203125 C 314.121094 142.914062 313.386719 142.664062 312.644531 142.445312 C 311.898438 142.230469 311.144531 142.050781 310.382812 141.910156 C 309.621094 141.765625 308.851562 141.664062 308.082031 141.597656 C 307.308594 141.53125 306.535156 141.503906 305.757812 141.515625 Z M 704.632812 376.144531 C 675.300781 376.144531 650.320312 387.988281 634.289062 406.023438 C 618.257812 424.058594 610.777344 447.1875 610.777344 470 C 610.777344 492.808594 618.257812 515.9375 634.289062 533.972656 C 650.320312 552.007812 675.300781 563.851562 704.632812 563.851562 C 733.960938 563.851562 758.945312 552.007812 774.976562 533.972656 C 785.46875 522.167969 791.949219 508.113281 795.414062 493.460938 L 915.800781 493.460938 C 916.574219 493.472656 917.347656 493.445312 918.121094 493.378906 C 918.894531 493.3125 919.660156 493.210938 920.425781 493.066406 C 921.1875 492.925781 921.941406 492.746094 922.683594 492.53125 C 923.429688 492.3125 924.160156 492.0625 924.882812 491.773438 C 925.601562 491.484375 926.304688 491.160156 926.992188 490.800781 C 927.679688 490.441406 928.347656 490.050781 928.996094 489.625 C 929.644531 489.199219 930.269531 488.742188 930.875 488.253906 C 931.476562 487.769531 932.054688 487.253906 932.605469 486.707031 C 933.160156 486.164062 933.683594 485.59375 934.179688 484.996094 C 934.675781 484.398438 935.140625 483.78125 935.574219 483.136719 C 936.007812 482.496094 936.410156 481.832031 936.777344 481.152344 C 937.144531 480.46875 937.480469 479.769531 937.777344 479.054688 C 938.078125 478.339844 938.339844 477.609375 938.570312 476.871094 C 938.796875 476.128906 938.984375 475.378906 939.136719 474.617188 C 939.289062 473.855469 939.40625 473.089844 939.480469 472.320312 C 939.558594 471.546875 939.597656 470.773438 939.597656 470 C 939.597656 469.222656 939.558594 468.449219 939.480469 467.679688 C 939.40625 466.90625 939.289062 466.140625 939.136719 465.378906 C 938.984375 464.621094 938.796875 463.867188 938.570312 463.128906 C 938.339844 462.386719 938.078125 461.65625 937.777344 460.941406 C 937.480469 460.226562 937.144531 459.527344 936.777344 458.84375 C 936.410156 458.164062 936.007812 457.5 935.574219 456.859375 C 935.140625 456.214844 934.675781 455.597656 934.179688 455 C 933.683594 454.402344 933.160156 453.832031 932.605469 453.289062 C 932.054688 452.746094 931.476562 452.230469 930.875 451.742188 C 930.269531 451.253906 929.644531 450.796875 928.996094 450.375 C 928.347656 449.949219 927.679688 449.554688 926.992188 449.195312 C 926.304688 448.839844 925.601562 448.515625 924.882812 448.226562 C 924.160156 447.9375 923.429688 447.683594 922.683594 447.464844 C 921.941406 447.25 921.1875 447.070312 920.425781 446.929688 C 919.660156 446.785156 918.894531 446.683594 918.121094 446.617188 C 917.347656 446.550781 916.574219 446.523438 915.800781 446.535156 L 795.414062 446.535156 C 791.949219 431.882812 785.46875 417.828125 774.976562 406.023438 C 758.945312 387.988281 733.960938 376.144531 704.632812 376.144531 Z M 704.632812 423.070312 C 722.230469 423.070312 732.441406 428.828125 739.871094 437.1875 C 747.304688 445.546875 751.558594 457.613281 751.558594 470 C 751.558594 482.382812 747.304688 494.449219 739.871094 502.808594 C 732.441406 511.171875 722.230469 516.925781 704.632812 516.925781 C 687.035156 516.925781 676.824219 511.171875 669.390625 502.808594 C 661.960938 494.449219 657.707031 482.382812 657.707031 470 C 657.707031 457.613281 661.960938 445.546875 669.390625 437.1875 C 676.824219 428.828125 687.035156 423.070312 704.632812 423.070312 Z M 24.199219 446.535156 C 23.425781 446.523438 22.652344 446.550781 21.878906 446.617188 C 21.105469 446.683594 20.339844 446.785156 19.574219 446.929688 C 18.8125 447.070312 18.058594 447.25 17.316406 447.464844 C 16.570312 447.683594 15.839844 447.9375 15.117188 448.226562 C 14.398438 448.515625 13.695312 448.839844 13.007812 449.195312 C 12.320312 449.554688 11.652344 449.949219 11.003906 450.371094 C 10.355469 450.796875 9.730469 451.253906 9.125 451.742188 C 8.523438 452.230469 7.945312 452.746094 7.394531 453.289062 C 6.839844 453.832031 6.316406 454.402344 5.820312 455 C 5.328125 455.597656 4.859375 456.214844 4.425781 456.859375 C 3.992188 457.5 3.589844 458.164062 3.222656 458.84375 C 2.855469 459.527344 2.519531 460.226562 2.222656 460.941406 C 1.921875 461.65625 1.660156 462.386719 1.429688 463.128906 C 1.203125 463.867188 1.015625 464.621094 0.863281 465.378906 C 0.710938 466.140625 0.59375 466.90625 0.519531 467.679688 C 0.441406 468.449219 0.402344 469.222656 0.402344 470 C 0.402344 470.773438 0.441406 471.546875 0.519531 472.320312 C 0.59375 473.089844 0.710938 473.855469 0.863281 474.617188 C 1.015625 475.378906 1.203125 476.128906 1.429688 476.871094 C 1.660156 477.609375 1.921875 478.339844 2.222656 479.054688 C 2.519531 479.769531 2.855469 480.46875 3.222656 481.152344 C 3.589844 481.832031 3.992188 482.496094 4.425781 483.136719 C 4.859375 483.78125 5.328125 484.402344 5.820312 484.996094 C 6.316406 485.59375 6.839844 486.164062 7.394531 486.707031 C 7.945312 487.253906 8.523438 487.769531 9.125 488.253906 C 9.730469 488.742188 10.355469 489.199219 11.003906 489.625 C 11.652344 490.050781 12.320312 490.441406 13.007812 490.800781 C 13.695312 491.160156 14.398438 491.484375 15.117188 491.773438 C 15.839844 492.0625 16.570312 492.3125 17.316406 492.53125 C 18.058594 492.746094 18.8125 492.925781 19.574219 493.066406 C 20.339844 493.210938 21.105469 493.3125 21.878906 493.378906 C 22.652344 493.445312 23.425781 493.472656 24.199219 493.460938 L 540.390625 493.460938 C 541.164062 493.472656 541.9375 493.445312 542.710938 493.378906 C 543.484375 493.3125 544.25 493.210938 545.015625 493.066406 C 545.777344 492.925781 546.53125 492.746094 547.273438 492.53125 C 548.019531 492.3125 548.75 492.0625 549.472656 491.773438 C 550.191406 491.484375 550.894531 491.160156 551.582031 490.800781 C 552.269531 490.441406 552.9375 490.050781 553.585938 489.625 C 554.234375 489.199219 554.859375 488.742188 555.464844 488.253906 C 556.066406 487.769531 556.644531 487.253906 557.195312 486.707031 C 557.75 486.164062 558.273438 485.59375 558.769531 484.996094 C 559.265625 484.402344 559.730469 483.78125 560.164062 483.136719 C 560.597656 482.496094 561 481.832031 561.367188 481.152344 C 561.734375 480.46875 562.070312 479.769531 562.367188 479.054688 C 562.667969 478.339844 562.929688 477.609375 563.160156 476.871094 C 563.386719 476.128906 563.574219 475.378906 563.726562 474.617188 C 563.878906 473.855469 563.996094 473.089844 564.070312 472.320312 C 564.148438 471.546875 564.1875 470.773438 564.1875 470 C 564.1875 469.222656 564.148438 468.449219 564.070312 467.679688 C 563.996094 466.90625 563.878906 466.140625 563.726562 465.378906 C 563.574219 464.621094 563.386719 463.867188 563.160156 463.128906 C 562.929688 462.386719 562.667969 461.65625 562.367188 460.941406 C 562.070312 460.226562 561.734375 459.527344 561.367188 458.84375 C 561 458.164062 560.597656 457.5 560.164062 456.859375 C 559.730469 456.214844 559.265625 455.597656 558.769531 455 C 558.273438 454.402344 557.75 453.832031 557.195312 453.289062 C 556.644531 452.746094 556.066406 452.230469 555.464844 451.742188 C 554.859375 451.253906 554.234375 450.796875 553.585938 450.375 C 552.9375 449.949219 552.269531 449.554688 551.582031 449.195312 C 550.894531 448.839844 550.191406 448.515625 549.472656 448.226562 C 548.75 447.9375 548.019531 447.683594 547.273438 447.464844 C 546.53125 447.25 545.777344 447.070312 545.015625 446.929688 C 544.25 446.785156 543.484375 446.683594 542.710938 446.617188 C 541.9375 446.550781 541.164062 446.523438 540.390625 446.535156 Z M 305.757812 681.167969 C 276.429688 681.167969 251.445312 693.011719 235.414062 711.046875 C 219.382812 729.082031 211.90625 752.207031 211.90625 775.019531 C 211.90625 797.832031 219.382812 820.957031 235.414062 838.992188 C 251.445312 857.027344 276.429688 868.871094 305.757812 868.871094 C 335.085938 868.871094 360.070312 857.027344 376.101562 838.992188 C 386.59375 827.1875 393.074219 813.132812 396.539062 798.484375 L 915.800781 798.484375 C 916.574219 798.492188 917.347656 798.464844 918.121094 798.398438 C 918.894531 798.335938 919.660156 798.230469 920.425781 798.089844 C 921.1875 797.945312 921.941406 797.765625 922.683594 797.550781 C 923.429688 797.335938 924.160156 797.082031 924.878906 796.792969 C 925.601562 796.503906 926.304688 796.179688 926.992188 795.820312 C 927.679688 795.460938 928.347656 795.070312 928.996094 794.644531 C 929.644531 794.21875 930.269531 793.761719 930.871094 793.277344 C 931.476562 792.789062 932.054688 792.273438 932.605469 791.726562 C 933.15625 791.183594 933.683594 790.613281 934.175781 790.015625 C 934.671875 789.421875 935.136719 788.800781 935.570312 788.160156 C 936.007812 787.515625 936.40625 786.855469 936.777344 786.171875 C 937.144531 785.488281 937.480469 784.789062 937.777344 784.074219 C 938.078125 783.359375 938.339844 782.632812 938.566406 781.890625 C 938.792969 781.148438 938.984375 780.398438 939.136719 779.636719 C 939.289062 778.878906 939.402344 778.113281 939.480469 777.339844 C 939.558594 776.566406 939.597656 775.792969 939.597656 775.019531 C 939.597656 774.242188 939.558594 773.46875 939.480469 772.699219 C 939.402344 771.925781 939.289062 771.160156 939.136719 770.402344 C 938.984375 769.640625 938.792969 768.890625 938.566406 768.148438 C 938.339844 767.40625 938.078125 766.679688 937.777344 765.964844 C 937.480469 765.246094 937.144531 764.550781 936.777344 763.867188 C 936.40625 763.183594 936.007812 762.523438 935.570312 761.878906 C 935.136719 761.238281 934.671875 760.617188 934.175781 760.019531 C 933.683594 759.425781 933.15625 758.855469 932.605469 758.308594 C 932.054688 757.765625 931.476562 757.25 930.871094 756.761719 C 930.269531 756.277344 929.644531 755.820312 928.996094 755.394531 C 928.347656 754.96875 927.679688 754.578125 926.992188 754.21875 C 926.304688 753.859375 925.601562 753.535156 924.878906 753.246094 C 924.160156 752.957031 923.429688 752.703125 922.683594 752.488281 C 921.941406 752.269531 921.1875 752.09375 920.425781 751.949219 C 919.660156 751.808594 918.894531 751.703125 918.121094 751.636719 C 917.347656 751.574219 916.574219 751.546875 915.800781 751.554688 L 396.539062 751.554688 C 393.074219 736.90625 386.59375 722.851562 376.101562 711.046875 C 360.070312 693.011719 335.085938 681.167969 305.757812 681.167969 Z M 305.757812 728.09375 C 323.355469 728.09375 333.566406 733.847656 341 742.207031 C 347.964844 750.046875 352.007812 761.167969 352.5 772.726562 C 352.34375 774.285156 352.34375 775.84375 352.5 777.402344 C 351.988281 788.929688 347.949219 800.015625 341 807.832031 C 333.566406 816.191406 323.355469 821.945312 305.757812 821.945312 C 288.160156 821.945312 277.949219 816.191406 270.519531 807.832031 C 263.085938 799.46875 258.832031 787.402344 258.832031 775.019531 C 258.832031 762.636719 263.085938 750.566406 270.519531 742.207031 C 277.949219 733.847656 288.160156 728.09375 305.757812 728.09375 Z M 24.199219 751.554688 C 23.425781 751.546875 22.652344 751.574219 21.878906 751.636719 C 21.105469 751.703125 20.339844 751.808594 19.574219 751.949219 C 18.8125 752.09375 18.058594 752.269531 17.316406 752.488281 C 16.570312 752.703125 15.839844 752.957031 15.121094 753.246094 C 14.398438 753.535156 13.695312 753.859375 13.007812 754.21875 C 12.320312 754.578125 11.652344 754.96875 11.003906 755.394531 C 10.355469 755.820312 9.730469 756.277344 9.128906 756.761719 C 8.523438 757.25 7.945312 757.765625 7.394531 758.308594 C 6.84375 758.855469 6.320312 759.425781 5.824219 760.019531 C 5.328125 760.617188 4.863281 761.238281 4.429688 761.878906 C 3.992188 762.523438 3.59375 763.183594 3.222656 763.867188 C 2.855469 764.550781 2.523438 765.246094 2.222656 765.964844 C 1.921875 766.679688 1.660156 767.40625 1.433594 768.148438 C 1.207031 768.890625 1.015625 769.640625 0.863281 770.402344 C 0.710938 771.160156 0.597656 771.925781 0.519531 772.699219 C 0.441406 773.46875 0.40625 774.242188 0.40625 775.019531 C 0.40625 775.792969 0.441406 776.566406 0.519531 777.339844 C 0.597656 778.113281 0.710938 778.878906 0.863281 779.636719 C 1.015625 780.398438 1.207031 781.148438 1.433594 781.890625 C 1.660156 782.632812 1.921875 783.359375 2.222656 784.074219 C 2.523438 784.789062 2.855469 785.488281 3.222656 786.171875 C 3.59375 786.855469 3.992188 787.515625 4.429688 788.160156 C 4.863281 788.800781 5.328125 789.421875 5.824219 790.015625 C 6.320312 790.613281 6.84375 791.183594 7.394531 791.726562 C 7.945312 792.273438 8.523438 792.789062 9.128906 793.277344 C 9.730469 793.761719 10.355469 794.21875 11.003906 794.644531 C 11.652344 795.070312 12.320312 795.460938 13.007812 795.820312 C 13.695312 796.179688 14.398438 796.503906 15.121094 796.792969 C 15.839844 797.082031 16.570312 797.335938 17.316406 797.550781 C 18.058594 797.765625 18.8125 797.945312 19.574219 798.089844 C 20.339844 798.230469 21.105469 798.335938 21.878906 798.398438 C 22.652344 798.464844 23.425781 798.492188 24.199219 798.484375 L 141.515625 798.484375 C 142.292969 798.492188 143.066406 798.464844 143.839844 798.398438 C 144.609375 798.335938 145.378906 798.230469 146.140625 798.089844 C 146.902344 797.945312 147.65625 797.765625 148.402344 797.550781 C 149.144531 797.335938 149.878906 797.082031 150.597656 796.792969 C 151.316406 796.503906 152.019531 796.179688 152.707031 795.820312 C 153.394531 795.460938 154.0625 795.070312 154.710938 794.644531 C 155.359375 794.21875 155.984375 793.761719 156.589844 793.277344 C 157.191406 792.789062 157.769531 792.273438 158.320312 791.726562 C 158.875 791.183594 159.398438 790.613281 159.894531 790.015625 C 160.390625 789.421875 160.855469 788.800781 161.289062 788.160156 C 161.722656 787.515625 162.125 786.855469 162.492188 786.171875 C 162.859375 785.488281 163.195312 784.789062 163.496094 784.074219 C 163.792969 783.359375 164.054688 782.632812 164.285156 781.890625 C 164.511719 781.148438 164.699219 780.398438 164.851562 779.636719 C 165.003906 778.878906 165.121094 778.113281 165.195312 777.339844 C 165.273438 776.566406 165.3125 775.792969 165.3125 775.019531 C 165.3125 774.242188 165.273438 773.46875 165.195312 772.699219 C 165.121094 771.925781 165.003906 771.160156 164.851562 770.402344 C 164.699219 769.640625 164.511719 768.890625 164.285156 768.148438 C 164.054688 767.40625 163.792969 766.679688 163.496094 765.964844 C 163.195312 765.246094 162.859375 764.550781 162.492188 763.867188 C 162.125 763.183594 161.722656 762.523438 161.289062 761.878906 C 160.855469 761.238281 160.390625 760.617188 159.894531 760.019531 C 159.398438 759.425781 158.875 758.855469 158.320312 758.308594 C 157.769531 757.765625 157.191406 757.25 156.589844 756.761719 C 155.984375 756.277344 155.359375 755.820312 154.710938 755.394531 C 154.0625 754.96875 153.394531 754.578125 152.707031 754.21875 C 152.019531 753.859375 151.316406 753.535156 150.597656 753.246094 C 149.878906 752.957031 149.144531 752.703125 148.402344 752.488281 C 147.65625 752.269531 146.902344 752.09375 146.140625 751.949219 C 145.378906 751.808594 144.609375 751.703125 143.839844 751.636719 C 143.066406 751.574219 142.292969 751.546875 141.515625 751.554688 Z M 24.199219 751.554688 " fill-opacity="1" fill-rule="nonzero"/></g></svg>