<svg xmlns="http://www.w3.org/2000/svg" xmlns:xlink="http://www.w3.org/1999/xlink" width="1254" zoomAndPan="magnify" viewBox="0 0 940.5 940.499971" height="1254" preserveAspectRatio="xMidYMid meet" version="1.0"><defs><clipPath id="9bacc2ffd7"><path d="M 123 2 L 822 2 L 822 940 L 123 940 Z M 123 2 " clip-rule="nonzero"/></clipPath></defs><g clip-path="url(#9bacc2ffd7)"><path fill="#e7f8fe" d="M 127.441406 44.238281 L 126.847656 40.691406 C 120.230469 13.566406 124.597656 0.789062 139.949219 2.367188 L 805.878906 3.761719 C 815.773438 3.875 820.796875 6.738281 820.949219 12.359375 C 822.394531 18.308594 820.90625 36.386719 816.488281 66.59375 L 706.34375 875.585938 C 702.210938 915.222656 677.789062 934.859375 633.082031 934.488281 C 472.898438 933.199219 381.285156 935.046875 358.246094 940.03125 L 317.898438 938.539062 C 284.988281 936.636719 260.609375 922.445312 244.761719 895.96875 C 238.738281 884.285156 235.121094 871.207031 233.914062 856.730469 C 224.796875 769.378906 189.308594 498.546875 127.441406 44.238281 " fill-opacity="1" fill-rule="nonzero"/></g><path fill="#f0fcff" d="M 246.640625 159.429688 L 719.492188 170.441406 C 698.296875 380.746094 680.882812 534.179688 667.253906 630.746094 C 655.683594 714.421875 643.800781 773.847656 631.609375 809.023438 C 619.519531 843.152344 604.753906 862.925781 587.3125 868.347656 C 572.578125 875.027344 538.636719 877.527344 485.488281 875.851562 L 371.769531 873 C 364.191406 872.742188 357.03125 871.734375 350.277344 869.980469 C 330.0625 867.085938 313.328125 846.789062 300.070312 809.089844 C 286.929688 768.488281 276.695312 700.496094 269.367188 605.109375 C 263.652344 549.324219 256.074219 400.761719 246.640625 159.429688 " fill-opacity="1" fill-rule="nonzero"/><path fill="#d5f0f6" d="M 737.609375 3.617188 C 640.589844 390.347656 556.140625 665.996094 484.261719 830.5625 C 469.6875 870.710938 450.820312 905.621094 427.667969 935.292969 C 457.316406 934.492188 495.734375 934.089844 542.917969 934.089844 C 570.066406 934.089844 600.121094 934.222656 633.082031 934.488281 C 633.492188 934.492188 633.902344 934.496094 634.3125 934.496094 C 678.238281 934.496094 702.25 914.859375 706.34375 875.585938 L 816.488281 66.59375 C 820.90625 36.386719 822.394531 18.308594 820.949219 12.359375 C 820.796875 6.738281 815.773438 3.875 805.878906 3.761719 L 737.628906 3.617188 Z M 737.609375 3.617188 " fill-opacity="0.549" fill-rule="nonzero"/><path fill="#fefefe" d="M 219.125 2.53125 C 231.683594 80.425781 239.671875 125.683594 243.089844 138.296875 C 278.554688 312.585938 305.308594 440.601562 323.347656 522.351562 C 337.761719 588.363281 348.402344 628.480469 355.269531 642.695312 C 355.542969 642.769531 355.800781 642.804688 356.039062 642.804688 C 357.820312 642.804688 358.621094 640.789062 358.449219 636.757812 C 356.136719 575.019531 355.035156 539.441406 355.148438 530.03125 C 357.191406 398.007812 358.027344 271.84375 357.660156 151.542969 C 357.625 141.984375 356.996094 123.285156 355.773438 95.449219 C 353.140625 55.351562 351.164062 24.472656 349.847656 2.804688 L 219.140625 2.53125 Z M 219.125 2.53125 " fill-opacity="0.757" fill-rule="nonzero"/></svg>