<svg xmlns="http://www.w3.org/2000/svg" xmlns:xlink="http://www.w3.org/1999/xlink" width="1254" zoomAndPan="magnify" viewBox="0 0 940.5 940.499971" height="1254" preserveAspectRatio="xMidYMid meet" version="1.0"><defs><clipPath id="f350b330ad"><path d="M 123 2 L 822 2 L 822 940 L 123 940 Z M 123 2 " clip-rule="nonzero"/></clipPath></defs><path fill="#ffffff" d="M 0 0 L 940 0 L 940 940 L 0 940 Z M 0 0 " fill-opacity="1" fill-rule="nonzero"/><path fill="#ffffff" d="M 0 0 L 940 0 L 940 940 L 0 940 Z M 0 0 " fill-opacity="1" fill-rule="nonzero"/><g clip-path="url(#f350b330ad)"><path fill="#e7f8fe" d="M 127.441406 44.238281 L 126.84375 40.691406 C 120.230469 13.566406 124.597656 0.789062 139.949219 2.367188 L 805.835938 3.761719 C 815.726562 3.875 820.75 6.738281 820.902344 12.359375 C 822.347656 18.308594 820.859375 36.386719 816.441406 66.59375 L 706.304688 875.585938 C 702.171875 915.222656 677.753906 934.859375 633.046875 934.488281 C 472.875 933.199219 381.269531 935.046875 358.226562 940.03125 L 317.886719 938.539062 C 284.976562 936.636719 260.597656 922.445312 244.75 895.96875 C 238.730469 884.285156 235.113281 871.207031 233.90625 856.730469 C 224.789062 769.378906 189.300781 498.546875 127.441406 44.238281 " fill-opacity="1" fill-rule="nonzero"/></g><path fill="#00bbff" d="M 246.628906 159.429688 L 719.449219 170.441406 C 698.257812 380.746094 680.847656 534.179688 667.214844 630.746094 C 655.648438 714.421875 643.765625 773.847656 631.574219 809.023438 C 619.488281 843.152344 604.722656 862.925781 587.28125 868.347656 C 572.546875 875.027344 538.605469 877.527344 485.460938 875.851562 L 371.75 873 C 364.175781 872.742188 357.011719 871.734375 350.261719 869.980469 C 330.050781 867.085938 313.316406 846.789062 300.058594 809.089844 C 286.917969 768.488281 276.6875 700.496094 269.355469 605.109375 C 263.640625 549.324219 256.066406 400.761719 246.628906 159.429688 " fill-opacity="1" fill-rule="nonzero"/><path fill="#c9d7da" d="M 737.566406 3.617188 C 640.554688 390.347656 556.113281 665.996094 484.238281 830.5625 C 469.664062 870.710938 450.796875 905.621094 427.644531 935.292969 C 457.296875 934.492188 495.710938 934.089844 542.886719 934.089844 C 570.039062 934.089844 600.089844 934.222656 633.046875 934.488281 C 633.457031 934.492188 633.871094 934.496094 634.277344 934.496094 C 678.199219 934.496094 702.210938 914.859375 706.304688 875.585938 L 816.441406 66.59375 C 820.859375 36.386719 822.347656 18.308594 820.902344 12.359375 C 820.75 6.738281 815.726562 3.875 805.835938 3.761719 L 737.589844 3.617188 Z M 737.566406 3.617188 " fill-opacity="0.549" fill-rule="nonzero"/><path fill="#fefefe" d="M 219.121094 2.53125 C 231.675781 80.425781 239.664062 125.683594 243.082031 138.296875 C 278.542969 312.585938 305.296875 440.601562 323.335938 522.351562 C 337.746094 588.363281 348.386719 628.480469 355.253906 642.695312 C 355.527344 642.769531 355.785156 642.804688 356.023438 642.804688 C 357.804688 642.804688 358.605469 640.789062 358.433594 636.757812 C 356.121094 575.019531 355.019531 539.441406 355.132812 530.03125 C 357.175781 398.007812 358.011719 271.84375 357.644531 151.542969 C 357.609375 141.984375 356.980469 123.285156 355.757812 95.449219 C 353.125 55.351562 351.148438 24.472656 349.832031 2.804688 L 219.136719 2.53125 Z M 219.121094 2.53125 " fill-opacity="0.757" fill-rule="nonzero"/></svg>